<svg xmlns="http://www.w3.org/2000/svg" xml:space="preserve" id="katman_1" x="0px" y="0px" version="1.1" viewBox="0 0 2336 640.3"><style>.st0{fill:#1c1e1d}</style><g id="编组"><path id="Fill-77" d="M667.6 175.2c-22.9-18.9-54.2-28.2-94.3-28.2h-99.6v14h97.8c34 0 64.7 6.9 83.6 23.3 18.9 16.5 32.9 40.5 32.9 70.3 0 28.9-12.4 50-31.8 66.2-19.3 16.2-54.5 23.3-89.4 23.3H454.6v14h113.2q63 0 98.7-27.3c23.6-18.2 35.6-44 35.6-77.1-.1-33.8-11.6-59.8-34.5-78.5" class="st0"/><path id="Fill-79" d="M659.1 195.2c-14.2-10.9-30.5-19.6-76.7-19.6h-76.9v13.6s34.5-.4 75.1 0c39.3.4 53.8 4.9 67.1 14.7 16.9 12.4 27.6 28 27.6 49.6 0 20.9-10.7 35.6-27.8 48.2-17.3 12.9-44 12.9-54.9 13.3h-57.1v13.6s26.2.4 42.7 0c37.3-.9 59.6-3.1 80.3-18.5 19.3-14.5 29.6-33.3 29.6-57.4-.1-31.5-16.1-47.3-29-57.5" class="st0"/><path id="Fill-80" d="M652.2 213.2c-10.7-6.7-20-11.1-64.2-11.1h-55.4v8.9h53.8c39.1 0 53.8 6.9 58.5 9.8 8.9 5.3 20.5 14.2 20.5 32 0 11.3-6.7 25.8-16.7 31.3-9.1 5.1-25.8 9.8-54.9 9.8H413.2v8.9h181c35.3 0 47.4-4 59.8-10.9s20.9-21.1 20.9-39.1c0-20.5-11.3-32.5-22.7-39.6" class="st0"/></g><path id="Fill-81" d="M687.4 311.7c-22.9-18.9-54.2-28.2-94.3-28.2h-66.7v14h64.7c34 0 64.7 7.1 83.6 23.3s33.1 40.5 33.1 70.3c0 28.9-12.2 50-31.8 66.2s-54.5 23.3-89.4 23.3H474.4v14h113.2q63 0 98.7-27.3c23.8-18.2 35.6-44 35.6-77.1-.3-33.6-11.6-59.6-34.5-78.5" class="st0"/><path id="Fill-82" d="M678.9 331.7c-14.2-10.7-30.5-19.6-76.7-19.6H497.7v13.6s62-.4 102.7 0c39.3.4 53.8 4.9 67.1 14.7 16.9 12.4 27.6 28 27.6 49.6 0 20.9-10.7 35.6-27.8 48.2-17.3 12.9-44 12.9-54.9 13.3h-57.1v13.6s26.5.4 42.7 0c37.3-.9 59.6-3.1 80.3-18.5 19.3-14.5 29.6-33.3 29.6-57.4-.1-31.3-15.9-47.3-29-57.5" class="st0"/><path id="Fill-83" d="M520 378h98v-7.6h-98z" class="st0"/><path id="Fill-84" d="M560.4 404.4h56.9V398h-56.9z" class="st0"/><path id="Fill-85" d="M474.4 378h28.9v-7.6h-28.9z" class="st0"/><path id="Fill-86" d="M456.1 404.9h88.3v-7.6h-88.3z" class="st0"/><path id="Fill-87" d="M477.9 210.3h34.5v-6.2h-34.5z" class="st0"/><path id="Fill-88" d="M454.1 261h78.5v-7.1h-78.5z" class="st0"/><path id="Fill-89" d="M456.1 464.2h83v-8.9h-83z" class="st0"/><path id="Fill-90" d="M435.7 493.8h20.7v-13.1h-20.7z" class="st0"/><path id="Fill-91" d="M487.3 238.8h130.2v-7.1H487.3z" class="st0"/><path id="Fill-92" d="M552.4 261h62.7v-7.1h-62.7z" class="st0"/><path id="Fill-93" d="M672 351.1c-10.7-6.4-20-10.9-64.2-10.9h-70.3v8.7h68.9c39.1 0 54 6.7 58.5 9.3 8.7 5.1 20.5 13.6 20.5 30.9 0 11.1-6.7 24.9-16.7 30.2-9.1 4.9-25.8 9.3-54.9 9.3H433v8.7h181c35.3 0 47.4-3.8 59.8-10.4 12.4-6.7 20.7-20.2 20.7-37.8.2-19.4-11.1-30.9-22.5-38" class="st0"/><path id="Fill-94" d="M857.4 331.7v79.4h43.4c18.7 0 33.3-3.6 43.6-10.7 10-6.4 15.8-17.6 15.6-29.6 0-26-22-39.1-65.8-39.1zm0-94.5v71.1h32.7c17.6 0 31.1-3.3 41.1-10.2 9.8-6.2 15.6-17.3 15.1-28.9 0-21.3-17.3-32.2-52.2-32.2zm-32 197.2V213.9H903c23.6 0 42.2 4.7 56 14s20.7 21.6 20.7 36.5c.2 12-4.2 23.8-12.4 32.7-8.4 9.3-19.8 15.8-34.5 19.8v.7c18.5 1.8 33.1 7.3 44 16.9 10.9 9.1 16.9 22.7 16.5 36.9 0 18.9-8.4 34-25.1 45.8s-37.8 17.6-63.4 17.6h-79.4z" class="st0"/><path id="Fill-95" d="M1028.8 434.4h31.1V277h-31.1zm15.8-197.6c-5.1.2-10.2-1.6-14.2-4.7-3.8-2.7-6-7.1-5.8-11.6 0-4.7 2.2-9.1 5.8-11.8 4-3.1 9.1-4.9 14.2-4.7 5.3-.2 10.4 1.6 14.5 4.7 6.4 4.7 7.8 13.6 3.3 20q-1.35 1.95-3.3 3.3c-4 3.4-9.1 5-14.5 4.8" class="st0"/><path id="Fill-96" d="M1197.6 432.9c-7.3 3.3-17.1 4.9-29.1 4.9-34 0-51.1-15.3-51.1-46.2v-93.2H1084v-21.6h33.3v-38.5l31.1-8.2v46.7h48.9v21.6h-48.9v88.7c0 10.4 2.2 18 6.7 22.7s11.8 6.7 22 6.7c7.1.2 14.2-1.6 20.2-5.3z" class="st0"/><path id="Fill-97" d="M1480.6 434.4h-29.1v-136c.2-13.1.9-26.5 2.4-39.6h-.7c-1.8 6.7-4.4 13.3-7.6 19.6L1360 434.2h-14.5l-85.4-154.7c-3.3-6.7-5.8-13.6-7.6-20.9h-.7c1.1 13.1 1.6 26.5 1.3 39.8v135.8h-28.2V231.4h38.9l76.9 141.4c4.4 7.8 8.4 16 11.6 24.5h1.1c5.1-11.1 9.1-19.3 12-24.9l78.5-140.9h36.7v203" class="st0"/><path id="Fill-98" d="m1638.9 354.6-46.9 5.3c-14.5 1.6-25.3 4.4-32.7 8.7-7.3 4.2-11.1 11.6-11.1 22 0 7.6 3.8 14.7 10.2 18.9 6.7 4.9 15.8 7.3 27.1 7.3 15.6 0 28.2-4.4 38.2-13.1 9.8-8.2 15.3-20.5 15.1-33.3v-15.8zm31.1 79.8h-31.1v-24.7h-.7c-13.6 18.9-33.6 28.2-59.8 28.2-19.3 0-34.5-4.2-45.6-12.4-10.7-7.6-16.7-20-16.5-33.1 0-29.3 21.3-46.5 64.2-51.4l58.2-6.7c0-26.7-13.3-40-40-40-22.7-.2-44.7 6.4-63.4 19.3v-25.8q28.65-14.7 66-14.7c45.8 0 68.5 19.6 68.5 58.7v102.6z" class="st0"/><path id="Fill-99" d="M1814.5 302.4c-5.6-3.3-13.3-5.1-23.6-5.1-12.9-.2-25.1 5.3-33.3 15.3-8.9 10.2-13.3 24-13.3 41.6v80.3h-31.1V277h31.1v32.5h.7c4-10.4 11.1-19.6 20.5-26 8.9-6.2 19.6-9.3 30.7-9.3 6.2-.2 12.7.4 18.7 2.2z" class="st0"/><path id="Fill-100" d="M1923 432.9c-7.3 3.3-17.1 4.9-29.1 4.9-34 0-51.1-15.3-51.1-46.2v-93.2h-33.3v-21.6h33.3v-38.5l31.1-8.2v46.7h48.9v21.6h-48.9v88.7c0 10.4 2.2 18 6.7 22.7s11.8 6.7 22 6.7c7.1.2 14.2-1.6 20.2-5.3z" class="st0"/><path d="M371 88.9h1594v462.4H371z" style="fill:none"/></svg>