<svg xmlns="http://www.w3.org/2000/svg" xml:space="preserve" id="katman_1" x="0px" y="0px" version="1.1" viewBox="0 0 2336 640.3"><style>.st0{fill:#fff}</style><path d="M2101 376.5v138.6H235v-72.8c1.4-.8 2.9-1.4 4.2-2.4 9.9-7.9 19.8-15.8 29.6-23.7 3.1-2.5 6.1-4.9 9.5-7.5 10.8 17.4 21.2 34.1 31.8 51.2 11.4-10.6 22.2-20.7 33.4-31 17.9 28.9 35.4 57.1 53.3 86 18.1-29.1 35.7-57.3 53.6-85.9 11.3 10.5 22.1 20.5 33.3 30.9 10.7-17.2 21.2-34 31.8-51.1 14.1 11.2 27.7 22.1 41.3 32.9.4-.3.8-.5 1.2-.8-1.3-3.4-2.6-6.9-4.1-10.3-12.3-27.5-21.1-56-22.9-86.2-1.4-23.7-1.5-47.5-1.9-71.2-.2-15-.9-29.9-5.1-44.4-3.1-10.5-6.9-20.7-13-30.4-5.3 6-9.9 11.8-15.1 17.2-5.2 5.5-6.5 11.1-3.1 18.1 3.6 7.5 4.5 15.6 2.7 23.8-4.2 18.9-17.3 28.2-35.3 32.3-4.1.9-8.3 1.7-12.6 2.5.2 3 .7 5.5.5 8-1 8.4 3.2 13.1 10.4 16.7 10.7 5.5 21 11.9 32.4 18.4-8.7 4.6-16.6 8.9-24.6 12.9-17 8.5-29 21.5-35.3 39.5-9.4 26.8-18.5 53.6-27.8 80.4-1.9 5.4-3.7 10.7-5.6 16.1-2.3-3.1-3.5-6.1-4.5-9.2-9-26.7-17.9-53.5-27-80.2-8.1-23.7-23.1-41.1-46.7-50.7-5.4-2.2-10.3-5.6-16-8.8 12.4-7.3 23.9-13.8 35.2-20.8 2.6-1.6 5.4-4.4 6.2-7.2 1.4-4.8 1.3-10.1 1.8-15.5-5.9-1.1-11.3-1.9-16.7-3-21.8-4.6-37.9-25.9-30-49.2 1.1-3.3 1.9-6.7 2.8-10.1 1.2-4.3.7-8.2-2.8-11.4-1.3-1.2-2.4-2.8-3.6-4.2-4.4-5.1-8.8-10.3-13.5-15.7-9.7 17.3-16.5 34.6-16.9 53.9s-.6 38.5-.9 57.8c-.4 30.2-3.7 60-13.2 88.8-4.6 13.9-11.1 27.2-16.8 40.7V125.3h1866v250.4c-.6-.8-1.3-1.5-1.8-2.3-10.1-18-20.2-35.9-30.2-53.9-.5-.9-.8-2-1.1-2.8 3.9-2.2 7.7-4 11.1-6.3 14.2-10.2 20.2-29.6 14.8-47.8-4.9-16.6-20.2-28.7-38.2-29.4-13.8-.5-27.7-.2-41.5-.3h-12v143.6h14.5v-57.7c10.8 0 20.9.2 31-.1 3.4-.1 5 1.2 6.5 4 7.1 13.4 14.4 26.6 21.6 39.8 2.6 4.8 4.4 11.3 8.5 13.5 4.5 2.3 11.1.5 16.8.5M273.6 149.9c-.5.3-.9.7-1.4 1 2.5 4.9 4.5 10.1 7.5 14.7 22.4 34.8 53.3 60.4 89.5 79.8 2.6 1.4 7.1 1.4 9.7.1 11.8-6 23.2-6.4 34.9-.1 4.1 2.2 7.8 2 11.7-.5 9.2-6 18.6-11.7 27.7-17.9 27.3-18.6 50.8-40.9 65.8-70.9l2.1-4.5c-7.2 3.2-13.3 7.1-19.5 11-8.2 5.2-8.8 5-16-1.2-37.3-32.3-79.7-42.5-127.4-28.8-18.9 5.4-34.8 16.3-49.8 28.6-7.9 6.5-9.4 6.4-17.9.5-5.6-3.9-11.2-7.9-16.9-11.8m358.5 229.4c15.5 0 30.4.2 45.4-.1 10.6-.2 21.4-.2 31.8-1.9 23.6-3.8 41.3-16.1 50.4-38.9 5.9-14.7 6.4-30.1 4.8-45.6-1.6-14.8-6.1-28.6-16.7-39.6-12.6-13.1-28.8-18.5-46.3-19.2-22.3-.9-44.6-.5-66.9-.6-.8 0-1.5.3-2.4.5-.1 48.4-.1 96.5-.1 145.4m185.7-120.4h66.4v-25.1H783.3v145.3h101v-25.6H818v-36.4h57.3v-23.7h-57.4c-.1-11.6-.1-22.7-.1-34.5m221 120.4c-1.3-2.4-2.1-3.8-2.9-5.2-13.6-22.6-27.2-45.3-40.9-67.8-1.6-2.6-1.6-4.5 0-7.1 12.5-20.6 24.8-41.3 37.2-62 .6-1 1.1-2.2 1.9-3.9-10.8 0-21 .2-31.1-.1-3.4-.1-5.1 1.2-6.6 4-6.9 11.9-14 23.8-21 35.6-1.5 2.6-3.1 5.2-5 8.3-1.6-2.7-2.9-4.6-4-6.6-7.5-12.6-14.9-25.2-22.4-37.7-.8-1.4-2.5-3.3-3.8-3.3-11.1-.3-22.2-.2-34-.2 1.3 2.2 2 3.6 2.9 4.9 12.6 20.2 25.1 40.4 37.7 60.5 1.8 2.9 1.9 5 0 7.9-14.2 22.5-28.2 45.1-42.3 67.6-.9 1.4-1.6 2.9-2.7 5 11.7 0 22.3.1 33-.1 1.5 0 3.6-1.6 4.5-3 4.8-7.6 9.3-15.3 13.9-23 5.6-9.4 11.3-18.7 17.2-28.5 1.3 2.1 2.3 3.6 3.2 5.1 9.2 15.4 18.4 30.8 27.8 46.1.9 1.5 2.8 3.2 4.3 3.2 10.5.5 21.3.3 33.1.3m-642.4 38.4c.4 0 .8 0 1.3.1 9.5-32 19.6-63.7 50.6-83.2-2.9-1.7-4.5-3.1-6.3-3.7-11.6-3.9-15.7-12.4-15-24 0-.7-.1-1.3-.1-2-1.1-11.3-2.6-22.5-9.1-32.2-9.3-14-28.6-15.7-39.3-2.8-3.9 4.7-6.7 10.8-8.2 16.7-2.3 9.1-3.2 18.6-4.2 28-.7 6.2-3.2 10.6-9 13.3-4 1.9-7.7 4.3-12.3 6.9 25.2 14.4 36.3 37.7 44.8 62.8 2.3 6.7 4.5 13.4 6.8 20.1m1343.4-41.2V260c2 2.6 3.1 4 4.1 5.5 25.8 35.7 51.5 71.5 77.4 107.2 1.2 1.6 2.9 3.6 4.7 3.8 3.8.6 7.8.2 11.8.2V233.1h-15v116.6c-2.4-3.2-4-5.5-5.7-7.8-25.5-35.3-51-70.7-76.5-106-1-1.3-2.6-2.9-4-3.1-3.7-.4-7.5-.1-11.4-.1v143.7c4.7.1 9.1.1 14.6.1m-283.5.2c-11.6-20.7-22.7-40.5-33.8-60.4 1.2-.6 1.8-.8 2.4-1.1 18.1-8 28-24.9 25.7-44-2.4-20.4-15-34.3-35.4-37.5-9.5-1.5-19.3-.8-28.9-1-9.6-.1-19.2 0-29 0v143.7h14.3v-57.7c10.8 0 20.9.1 31-.1 3.3-.1 5 .9 6.6 3.8 9 17 18.3 33.9 27.6 50.7.8 1.5 2.6 3.2 4.1 3.3 4.9.5 9.7.3 15.4.3M1072 332.4c0 1.4-.1 2.4 0 3.4.4 2.3.8 4.6 1.4 6.8 5.8 19.4 18.9 31.1 38.5 34.7 21.3 3.9 41.6 1.3 56.3-16.9 15.7-19.5 9.1-45.7-13.8-56-6.3-2.9-13.1-4.6-19.8-6.8-11-3.6-22.6-6.1-33-10.8-11.8-5.4-14.6-18.3-7.1-29 2.8-4 7.1-7.6 11.5-9.9 16.9-8.7 48.4-3.8 52.5 24.9h15.3c-1.6-5.7-2.4-11-4.6-15.7-13.7-29.9-62.6-36.1-84.2-10.8-15.9 18.6-11 43.5 10.9 54.1 6.4 3.1 13.3 5.1 20.1 7.2 10 3.1 20.4 5 30.1 8.9 16.8 6.8 20.1 25 7.6 38.1-17 17.6-52.2 12.5-63.2-9.3-2-3.9-3-8.4-4.6-12.9zm413.4 44h87.8v-13.2h-72.9v-52.6h64.8v-13.5h-64.9v-51.2h72.9V233h-87.8c.1 47.9.1 95.4.1 143.4m134.6-65.9h64.9v-13.3h-64.8v-51.3h72.6V233h-87.4v143.3h87.4v-13.1H1620zm337.7.2v-13.6h-64.8v-51.3h72.8v-12.7h-87.4v143.2h87.4v-13.1h-72.8v-52.5zm-638.2 22.1c-3.9 0-7.3.2-10.8 0-2.8-.2-3.9.9-5 3.5-2.1 4.8-4.5 9.7-7.7 13.8-15.2 19.4-59.6 24.6-77.2-10.1-11.7-23.2-11.8-47.2-.1-70.5 12.4-24.6 43.3-32.6 66.9-18.3 9.7 5.9 15.6 14.6 18.5 25.2h16c-3.3-7.4-5.6-14.4-9.3-20.5-20-32.6-81.6-36.8-104.9 5.7-10.4 18.9-11.9 39.1-8.9 60 5.8 40 37.5 62.9 77.3 56 23.3-4.2 41.6-22 45.2-44.8m-847.8-93.1c-13.3 8.4-26.6 16.8-40.3 25.4 11 7.4 27.9 6.8 37.3-.9 7.8-6.5 9.3-17 3-24.5m-150.1-.3c-4.8 7.3-4.7 14.9 0 21.2 8.1 10.8 29.5 13.3 40.4 4.3-13.6-8.6-27-17-40.4-25.5" class="st0"/><path d="M235 439.4c5.7-13.6 12.2-26.8 16.8-40.7 9.5-28.8 12.8-58.6 13.2-88.8.3-19.3.5-38.5.9-57.8s7.3-36.6 16.9-53.9c4.7 5.5 9.1 10.6 13.5 15.7 1.2 1.4 2.2 2.9 3.6 4.2 3.5 3.2 4.1 7 2.8 11.4-1 3.4-1.7 6.8-2.8 10.1-7.9 23.3 8.2 44.5 30 49.2 5.3 1.1 10.7 1.9 16.7 3-.5 5.4-.4 10.7-1.8 15.5-.8 2.8-3.5 5.6-6.2 7.2-11.3 7-22.8 13.6-35.2 20.8 5.7 3.2 10.6 6.6 16 8.8 23.6 9.6 38.6 27 46.7 50.7 9.1 26.7 18 53.5 27 80.2 1 3.1 2.3 6.1 4.5 9.2 1.9-5.4 3.7-10.7 5.6-16.1 9.3-26.8 18.4-53.7 27.8-80.4 6.3-18 18.3-31 35.3-39.5 8-4 15.9-8.3 24.6-12.9-11.3-6.5-21.6-12.9-32.4-18.4-7.2-3.7-11.3-8.3-10.4-16.7.3-2.4-.3-4.9-.5-8 4.2-.8 8.4-1.6 12.6-2.5 17.9-4 31-13.4 35.3-32.3 1.8-8.2 1-16.3-2.7-23.8-3.4-7-2.1-12.6 3.1-18.1 5.1-5.4 9.8-11.1 15.1-17.2 6.1 9.8 9.9 20 13 30.4 4.2 14.5 4.9 29.4 5.1 44.4.4 23.7.5 47.5 1.9 71.2 1.7 30.2 10.6 58.7 22.9 86.2 1.5 3.4 2.7 6.9 4.1 10.3-.4.3-.8.5-1.2.8-13.6-10.8-27.2-21.6-41.3-32.9-10.7 17.1-21.1 33.9-31.8 51.1-11.2-10.4-22.1-20.5-33.3-30.9-17.8 28.6-35.4 56.9-53.6 85.9-17.9-28.8-35.4-57.1-53.3-86-11.1 10.4-22 20.5-33.4 31-10.6-17.1-21-33.8-31.8-51.2-3.3 2.6-6.4 5-9.5 7.5-9.9 7.9-19.7 15.8-29.6 23.7-1.3 1-2.8 1.6-4.2 2.4zm1866-62.9c-5.7 0-12.3 1.8-16.7-.6-4.1-2.2-5.9-8.8-8.5-13.5-7.3-13.2-14.6-26.5-21.6-39.8-1.5-2.8-3.1-4.1-6.5-4-10.1.3-20.3.1-31 .1v57.7h-14.5V232.8h12c13.8.1 27.7-.3 41.5.3 18 .7 33.4 12.8 38.2 29.4 5.3 18.2-.6 37.6-14.8 47.8-3.3 2.4-7.2 4.1-11.1 6.3.3.8.6 1.9 1.1 2.8 10.1 18 20.1 35.9 30.2 53.9.5.8 1.2 1.5 1.8 2.3-.1.3-.1.6-.1.9m-84.1-71.5c13.2 0 25.8.6 38.4-.2 14.9-1 24.9-12.7 25.6-28.2.6-14.5-8.8-27.9-22.9-29.4-13.4-1.4-27.1-.3-41.1-.3z"/><path d="M273.6 149.9c5.7 4 11.3 7.9 17 11.9 8.5 5.9 10 6 17.9-.5 15-12.4 30.9-23.2 49.8-28.6 47.7-13.7 90.1-3.4 127.4 28.8 7.2 6.2 7.8 6.4 16 1.2 6.2-3.9 12.3-7.8 19.5-11-.7 1.5-1.3 3-2.1 4.5-15 30-38.5 52.3-65.8 70.9-9.1 6.2-18.5 11.8-27.7 17.9-3.9 2.6-7.6 2.7-11.7.5-11.6-6.3-23.1-5.8-34.9.1-2.6 1.3-7.2 1.3-9.7-.1-36.2-19.4-67.1-45-89.5-79.8-3-4.6-5-9.8-7.5-14.7.4-.5.9-.8 1.3-1.1m358.5 229.4V233.9c.9-.2 1.6-.5 2.4-.5 22.3.1 44.6-.3 66.9.6 17.5.7 33.7 6.1 46.3 19.2 10.7 11 15.2 24.8 16.7 39.6 1.6 15.5 1.1 30.9-4.8 45.6-9.1 22.8-26.8 35-50.4 38.9-10.4 1.7-21.2 1.7-31.8 1.9-14.8.4-29.8.1-45.3.1m35.2-121v95.2c7.9 0 15.4.4 22.9-.1 18.2-1.1 31.9-12.3 36.6-29.5 3.3-12.3 3.2-24.7-.1-36.9-4-14.9-13.9-24.3-29-26.8-9.9-1.7-20.2-1.3-30.4-1.9m150.5.6v34.6h57.4v23.7h-57.3v36.4h66.3v25.6h-101V233.9h100.9V259c-22.1-.1-44-.1-66.3-.1m221 120.4c-11.7 0-22.5.1-33.3-.1-1.5 0-3.4-1.8-4.3-3.2-9.3-15.3-18.5-30.7-27.8-46.1-.9-1.5-1.9-3-3.2-5.1-5.9 9.8-11.6 19.2-17.2 28.5-4.6 7.7-9.1 15.4-13.9 23-.9 1.4-2.9 2.9-4.5 3-10.7.3-21.3.1-33 .1 1.1-2 1.8-3.6 2.7-5 14-22.6 28.1-45.2 42.3-67.6 1.9-3 1.9-5 0-7.9-12.7-20.1-25.2-40.3-37.7-60.5-.8-1.4-1.6-2.8-2.9-4.9 11.8 0 22.9-.1 34 .2 1.3 0 2.9 1.9 3.8 3.3 7.6 12.5 15 25.1 22.4 37.7 1.2 2 2.4 3.9 4 6.6 1.9-3.1 3.5-5.7 5-8.3 7-11.9 14.1-23.7 21-35.6 1.6-2.7 3.3-4 6.6-4 10.1.2 20.3.1 31.1.1-.8 1.7-1.3 2.8-1.9 3.9-12.4 20.7-24.7 41.4-37.2 62-1.6 2.6-1.6 4.5 0 7.1 13.7 22.6 27.3 45.2 40.9 67.8 1 1.2 1.7 2.7 3.1 5m-642.4 38.4c-2.3-6.7-4.5-13.5-6.8-20.2-8.5-25.1-19.7-48.4-44.8-62.8 4.6-2.6 8.4-5 12.3-6.9 5.7-2.7 8.3-7.1 9-13.3 1.1-9.4 1.9-18.9 4.2-28 1.5-5.9 4.3-12.1 8.2-16.7 10.7-12.9 30-11.2 39.3 2.8 6.5 9.8 8 21 9.1 32.2.1.7.2 1.3.1 2-.7 11.6 3.4 20 15 24 1.8.6 3.4 2 6.3 3.7-31.1 19.5-41.2 51.2-50.6 83.2-.5.1-.9.1-1.3 0m1343.4-41.2h-14.6V232.8c3.8 0 7.6-.3 11.4.1 1.5.2 3.1 1.7 4 3.1 25.5 35.3 51 70.6 76.5 106 1.7 2.3 3.3 4.6 5.7 7.8V233.2h15v143.6c-3.9 0-7.9.4-11.8-.2-1.7-.3-3.5-2.2-4.7-3.8-25.8-35.7-51.6-71.5-77.4-107.2-1-1.4-2.2-2.9-4.1-5.5zm-283.5.2c-5.7 0-10.5.3-15.3-.2-1.5-.1-3.3-1.9-4.1-3.3-9.3-16.8-18.6-33.7-27.6-50.7-1.6-3-3.3-3.9-6.6-3.8-10.1.2-20.3.1-31 .1v57.7h-14.3V232.8c9.7 0 19.4-.1 29 0s19.4-.5 28.9 1c20.4 3.2 33 17.1 35.4 37.5 2.3 19.1-7.6 36-25.7 44-.6.3-1.2.5-2.4 1.1 11 19.8 22.1 39.6 33.7 60.3M1372 247v58c13 0 25.5.5 37.9-.1 14.7-.8 25-12.1 25.9-27.3 1-14.9-8.1-28.6-22.4-30.2-13.5-1.6-27.4-.4-41.4-.4m-300 85.4h14c1.6 4.5 2.6 9 4.6 12.9 10.9 21.8 46.2 26.9 63.2 9.3 12.6-13.1 9.3-31.3-7.6-38.1-9.6-3.9-20.1-5.8-30.1-8.9-6.8-2.1-13.7-4.1-20.1-7.2-22-10.6-26.9-35.5-10.9-54.1 21.6-25.3 70.5-19.1 84.2 10.8 2.2 4.7 3 10 4.6 15.7h-15.3c-4.1-28.7-35.6-33.6-52.5-24.9-4.4 2.3-8.7 5.9-11.5 9.9-7.5 10.7-4.8 23.6 7.1 29 10.5 4.8 22 7.3 33 10.8 6.6 2.1 13.5 3.9 19.8 6.8 22.9 10.3 29.5 36.5 13.8 56-14.6 18.2-34.9 20.8-56.3 16.9-19.6-3.6-32.8-15.4-38.5-34.7-.7-2.2-1-4.5-1.4-6.8-.2-1-.1-2-.1-3.4m413.4 44V233.1h87.8V246h-72.9v51.2h64.9v13.5h-64.8v52.6h72.9v13.2c-29.4-.1-58.4-.1-87.9-.1m134.6-65.9v52.6h72.7v13.1h-87.4V232.9h87.4v12.9h-72.6v51.3h64.8v13.3c-21.5.1-42.9.1-64.9.1m337.7.2h-64.8v52.5h72.8v13.1h-87.4V233.1h87.4v12.7h-72.8v51.3h64.8zm-638.2 22.1c-3.6 22.8-21.9 40.7-45.2 44.7-39.8 7-71.5-16-77.3-56-3-20.9-1.4-41.1 8.9-60 23.3-42.5 85-38.3 104.9-5.7 3.7 6.1 6 13.1 9.3 20.5h-16c-2.9-10.6-8.8-19.3-18.5-25.2-23.6-14.3-54.5-6.3-66.9 18.3-11.7 23.2-11.7 47.3.1 70.5 17.6 34.7 62 29.5 77.2 10.1 3.2-4.1 5.6-9 7.7-13.8 1.1-2.6 2.2-3.7 5-3.5 3.5.2 6.9.1 10.8.1m-847.8-93.1c6.3 7.5 4.9 18-3 24.5-9.4 7.7-26.3 8.3-37.3.9 13.6-8.7 27-17.1 40.3-25.4m-150.1-.3c13.4 8.5 26.9 17 40.4 25.5-10.9 8.9-32.3 6.5-40.4-4.3-4.7-6.3-4.8-13.9 0-21.2"/><path d="M2016.9 305v-58.1c13.9 0 27.6-1.1 41.1.3 14.1 1.5 23.5 14.9 22.9 29.4-.6 15.5-10.7 27.2-25.6 28.2-12.6.8-25.3.2-38.4.2M667.3 258.3c10.3.6 20.5.2 30.4 1.9 15.1 2.5 25 12 29 26.8 3.3 12.2 3.4 24.7.1 36.9-4.7 17.2-18.4 28.4-36.6 29.5-7.5.5-15 .1-22.9.1zM1372 247c14 0 27.9-1.2 41.5.3 14.3 1.6 23.4 15.4 22.4 30.2-1 15.2-11.2 26.5-25.9 27.3-12.4.7-25 .1-37.9.1-.1-19.5-.1-38.9-.1-57.9" class="st0"/></svg>