<svg xmlns="http://www.w3.org/2000/svg" xml:space="preserve" x="0px" y="0px" viewBox="0 0 2336 640.3"><path d="M1531.5 264.2c-33.3 4.1-57.9 23.1-66.9 51.3-6.2 19.2-5.5 37.4 2.4 56 9.2 21.9 29.1 37.5 55.4 43.5 7.6 1.8 27.3 1.9 35.2.4 30.6-6 51.9-25 60.8-53.8 2.1-6.9 2.4-8.9 2.4-21.2s-.3-14.3-2.4-21.2c-8.7-28.4-29.4-47.1-58.8-53.3-6.2-1.3-23-2.2-28.1-1.7m18.6 37.4c11 2.9 21.5 10.1 26.2 18.4 7.4 12.6 7.2 29.3-.6 41.3-13.8 21.7-45.4 25.3-64.4 7.2-15.8-15.1-16.4-39-1.3-55.2 10.1-10.7 26.1-15.3 40.1-11.7m144.1-37.4c-33.3 4.1-57.9 23.1-66.9 51.3-6.2 19.2-5.5 37.4 2.4 56 9.2 21.9 29.1 37.5 55.4 43.5 7.6 1.8 27.3 1.9 35.2.4 30.6-6 51.9-25 60.8-53.8 2.1-6.9 2.4-8.9 2.4-21.2s-.3-14.3-2.4-21.2c-8.7-28.4-29.4-47.1-58.8-53.3-6.2-1.3-22.9-2.2-28.1-1.7m18.7 37.4c11.1 2.9 21.5 10.1 26.2 18.4 7.4 12.6 7.2 29.3-.6 41.3-13.8 21.7-45.4 25.3-64.4 7.2-15.8-15.1-16.4-39-1.3-55.2 10-10.7 26-15.3 40.1-11.7m200.5-36.9c-19.4 2.8-34 15.2-38.7 33.1-4.5 16.8-1.3 34.1 7.7 42.4 5.4 5 11.8 7.9 29.4 13.5 17 5.5 20.9 7.8 22.7 13.5 2 6.6-2.9 14.5-10.3 16.6-4 1.1-11.7 1.1-16.7-.1-5.6-1.3-15.5-6.2-19.8-9.9-1.9-1.8-4-3.1-4.4-3.1s-2.5 3.2-4.6 7.2c-2.9 5.6-3.9 6.8-4 5.3l-.3-1.9H1829v-114h-37.4v146.2h82.6v-4c0-2.2.2-4 .4-4s3.6 1.6 7.5 3.4c12.2 5.7 20 7.4 35.2 7.4 14.8 0 21.7-1.3 30.9-5.7 7.2-3.5 17-13.2 20.3-19.9 6.5-13.5 7.4-31.8 2-43.4-.9-2.2-4.1-6.4-7.2-9.3-6.4-6.4-13.3-9.9-30.9-15.5-7-2.2-13.9-4.8-15.5-5.7-5.6-3.5-6.8-11.1-2.4-15.9 7.7-8.3 21.5-7.5 35.8 2l2.8 1.8 7.6-14.6c4-7.9 7.4-14.6 7.2-14.7-.8-.8-11.5-5.1-17.5-7-12.6-4-26-5.4-37-3.7M861.6 319.6V416h34.1c18.7 0 38.3-.6 43.4-1.1 42.1-5.2 73.1-30.7 83.1-68.1 3.3-12.4 4-34.2 1.7-47.2-4.8-25.2-17.9-45.5-38-59.3-9-6.2-17.1-9.6-30.1-13.2-10.2-2.7-11.8-2.7-52.2-3.3l-41.8-.5zm74.3-57c26.4 5.6 44 27.8 44 55.4-.1 18.3-5.7 34.2-16.3 44.6-10.4 10.5-26 15.6-47.6 15.7h-10.3V261.1h11.4c6.3 0 14.7.8 18.8 1.5m103.8 57.1V416l81.1-.1h81l20.9-29.4c11.6-16 21.3-29.2 21.5-29.2.5 0 10.2 13.2 21.6 29.4l21 29.4h26.3c14.4 0 26.2-.4 26.2-.7 0-.4-15.5-22-34.2-48.1l-34.2-47.4 32.7-45.7c18.1-25 33.8-46.6 34.8-47.8 2.1-2.1 2.1-1.8 2.1 17.5v19.6h39.8v152.6h47.6V263.5l23.2-.2 23.1-.4-12.4-19.6-12.4-19.6-81.3-.1h-81.4L1266 253c-11.6 16-21.3 29.2-21.5 29.4-.4 0-10.1-13.2-21.5-29.4l-21-29.4h-162.1v96.1zm143.1-48.1c18.6 25.8 33.9 47.4 33.9 48.1s-15.2 22.5-34 48.5l-34.1 47.2-.4-18.4-.2-18.4h-64.1v-43.1h52v-36.8h-52v-37.6h64.2v-18.3c0-10.1.2-18.3.5-18.3.2.1 15.6 21.3 34.2 47.1" style="fill:#1d1d1b"/><path d="M525.7 95.7c-30.1 15.7-54.9 29-54.8 29.5 0 1.4 72.3 38 74.9 37.9 1.1 0 9.6-4 18.8-8.7l16.7-8.6 18.3 9.4 18.3 9.4 29.9-13.5c45-20.2 49.7-22.5 48.9-23.1-.9-1-17.1-9.7-61-32.7C614.5 84.2 594 73.2 590.1 71c-4-2.3-7.7-4-8.4-4s-25.9 13-56 28.7m-132.2 68.5-31.4 16.2v71.1c0 39.1.4 71.1.9 71.1s15.9-6.7 34.3-14.9l33.4-14.9v-75l16.3 8.8c12.6 6.9 25.1 13.6 37.7 20.5l21.5 11.6 9.5-4.3c6-2.7 11.9-5.5 17.9-8.2 4.6-2.2 15.9-7.2 25.1-11.3 9.2-4 17.7-8.2 18.9-9.1 1.6-1.2-18-12-72.3-40-41-21.1-75.9-38.2-77.5-38.1-1.6.2-17.1 7.6-34.3 16.5m308.8 4.5c-21.4 9.7-38.9 18-38.9 18.4 0 .5 11.7 7.4 25.9 15.4 14.3 8 25.9 15 25.9 15.5 0 .6-12.6 6.7-28 13.5-15.4 7-54.4 24.6-86.7 39.1l-107.9 48.8c-27.2 12.2-51.7 23.3-54.4 24.6-55.4 25.1-70.8 32.1-72.8 33.3-2.1 1.2-2.5 8.2-2.9 43.3l-.5 41.9 28 14.3 28 14.3 39-17.6c21.4-9.7 39-18.1 39-18.7s-4-3.2-8.7-5.7c-4.8-2.5-14.8-8.2-22.2-12.5-7.3-4.3-14.7-8.3-16.3-8.8-1.6-.6-2.9-1.4-2.9-2.1 0-.6 17.1-8.7 38.1-18.1 40.6-18.2 71.7-32.2 138.4-62.4 29.8-13.5 59.6-27 89.6-40.5 26.2-11.9 56.7-25.7 67.7-30.8l20-9.2.5-42.3.5-42.3-28.4-14.5c-15.6-8-29.1-14.6-29.7-14.6-.9.1-18.9 8.1-40.3 17.7m89.8 152.8c-4.2 2.1-12.5 5.9-18.4 8.6-5.9 2.6-17.2 7.7-25 11.3l-14.2 6.5-.3 37.2c-.2 20.4-.9 37.1-1.7 37-1.7-.3-28.3-13.9-55.1-28.3-19.4-10.3-20.6-10.8-25.1-8.6-2.6 1.3-18.3 8.4-34.9 15.6-16.6 7.3-30.7 13.7-31.3 14.4-.7.6 32.6 18.6 74.1 40.2l75.3 39.1 32.2-16.7c17.7-9.1 32.7-17.5 33.4-18.5 1.6-2.4 1.4-141.8-.1-141.6-.8.1-4.7 1.7-8.9 3.8M614 485.1c-5.6 2.4-11.2 4.8-16.7 7.2-16.8 7.2-13.5 7.5-33.6-2.4-13.4-6.7-19.1-8.7-21.6-7.7-1.9.8-18 8-35.8 16.1s-33 14.8-33.8 14.8c-7.5 0 5 7.4 53 31.6l56.3 28.4 23.7-11.7c13-6.4 39.3-19.3 58.3-28.6 19.1-9.3 34.4-17.1 34.2-17.5-.3-.3-16.3-8.5-35.6-18.3l-35-17.7z" style="fill-rule:evenodd;clip-rule:evenodd;fill:#05a3c9"/></svg>