<svg xmlns="http://www.w3.org/2000/svg" xml:space="preserve" id="katman_1" x="0px" y="0px" version="1.1" viewBox="0 0 2336 640.3"><style>.st0{fill:#282828}</style><path d="M932.7 418.8v105h17.5v-46.6h49.7v46.6h17.5v-105h-17.5v43.5h-49.7v-43.5zm148.7 43.3v-28.5h58.5v-14.8H1064v105h77.4V509h-59.9v-31.9h51.3v-15zm102.8 61.7h41.3c29.1 0 46.3-18.7 46.3-52.4s-17.8-52.6-46.7-52.6h-40.8v105zm17.5-90.2h22.5c23.5 0 30.1 17.6 30.1 37.8s-6.6 37.6-30.1 37.6h-22.5zm185.9 17.9h17.5c-3.2-20.1-17.9-35-45.2-35-30.3 0-49.4 23.1-49.4 54.6 0 31.7 17 54.8 47.5 54.8 15.9 0 25.7-6 32.8-16.6h.3l3.8 14.4h12v-55.1h-47.5v14.1h29.7c-.1 16.7-13.4 28.2-30 28.2-23.9 0-31.1-20-31.1-39.8 0-19.7 9.3-39.7 31.7-39.7 15.6.2 25.3 7.6 27.9 20.1m81.7 10.6v-28.5h58.5v-14.8h-75.9v105h77.4V509h-59.9v-31.9h51.3v-15zm177 2.1v-30.6h56v-14.8h-73.5v105h17.5v-44.7h45.4v-15h-45.4zm178.6 23.8v-69.2h-17.3V488c0 15.9-7.9 23.1-24.1 23.1-16 0-23.9-7.2-23.9-23.1v-69.2H1742V488c0 22.9 12.2 38 41.4 38 29.3 0 41.5-15.1 41.5-38m45.3 35.8h17.5v-78.6h.3l47.5 78.6h19.4v-105h-17.5v78.9h-.3l-47.3-78.9h-19.5v105zm131.2 0h41.3c29.1 0 46.3-18.7 46.3-52.4s-17.8-52.6-46.7-52.6h-40.8v105zm17.5-90.2h22.5c23.5 0 30.1 17.6 30.1 37.8s-6.6 37.6-30.1 37.6h-22.5zm-918.6-215.7c5.7 0 10.9 1.9 15.3 6 4.1 4.4 6 9.3 6 15.4 0 29.6-10.4 54.6-31.4 75.4-20.8 20.8-45.6 31.5-75.1 31.5s-54.4-10.4-75.1-31.5c-20.8-20.8-31.4-45.8-31.4-75.4s10.4-54.6 31.4-75.4c20.8-20.8 45.6-31.5 75.1-31.5 26 0 48.6 8.2 68.3 25 4.4 3.8 7.1 8.8 7.7 14.5.3 6-1.1 11-4.9 15.6-3.8 4.4-8.7 6.9-14.5 7.4-6 .5-10.9-1.1-15.6-4.9-11.7-9.9-25.4-15.1-41-15.1-17.8 0-32.5 6.3-45.1 18.9q-18.9 18.45-18.9 45.3c0 17.8 6.3 32.6 18.9 45.3 12.3 12.6 27.3 18.9 45.1 18.9 13.7 0 26.2-3.8 37.2-11.8 10.9-8 18.6-18.1 23.2-30.7h-42.1c-6 0-10.9-2.2-15.3-6.3-4.1-4.1-6-9.1-6-15.1s1.9-11 6-15.4c4.4-4.1 9.3-6 15.3-6h66.9zM1258.5 346c-29.5 0-54.4-10.4-75.1-31.5-20.8-20.8-31.4-45.8-31.4-75.4s10.4-54.6 31.4-75.4c20.8-20.8 45.6-31.5 75.1-31.5s54.4 10.4 75.1 31.5c20.8 20.8 31.4 45.8 31.4 75.4s-10.4 54.6-31.4 75.4c-20.7 21.1-45.6 31.5-75.1 31.5m0-170.9c-17.8 0-32.5 6.3-45.1 18.9q-18.9 18.45-18.9 45.3c0 17.8 6.3 32.6 18.9 45.3 12.3 12.6 27.3 18.9 45.1 18.9s32.5-6.3 45.1-18.9q18.9-18.45 18.9-45.3c0-17.8-6.3-32.6-18.9-45.3-12.6-12.6-27.4-18.9-45.1-18.9m138.3 0c-6 0-10.9-1.9-15.3-6-4.1-4.4-6-9.3-6-15.4s1.9-11 6-15.4c4.4-4.1 9.3-6 15.3-6h145.9c6 0 10.9 1.9 15.3 6 4.1 4.4 6 9.3 6 15.4s-1.9 11-6 15.4c-4.4 4.1-9.3 6-15.3 6H1491v149.8c0 6-1.9 11-6 15.1-4.4 4.4-9.3 6.3-15.3 6.3s-10.9-2.2-15-6.3c-4.4-4.1-6.3-9.1-6.3-15.1V175.1zm328.3-42.8c17.8 0 32.5 6.3 45.1 18.9 12.6 12.3 18.8 27.4 18.8 45.3 0 13.2-3.8 25.2-11.2 36.2 15.6 12.9 23.5 29.1 23.5 49.1 0 17.8-6.3 32.6-18.9 45.3-12.3 12.6-27.3 18.9-45.1 18.9h-109.6c-6 0-10.9-2.2-15-6.3-4.4-4.1-6.3-9.1-6.3-15.1V153.7c0-6 2.2-11 6.3-15.4 4.1-4.1 9-6 15-6zm-75.9 85.6h76c6 0 10.9-2.2 15-6.3 4.4-4.1 6.3-9.1 6.3-15.1s-2.2-11-6.3-15.1c-4.1-4.4-9-6.3-15-6.3h-76zm88.2 85.6c6 0 10.9-2.2 15-6.3 4.4-4.1 6.3-9.1 6.3-15.1s-2.2-11-6.3-15.1c-4.1-4.4-9-6.3-15-6.3h-88.3v42.8zm146 42.5c-6 0-10.9-1.9-15.3-6-4.1-4.4-6-9.3-6-15.4V153.7c0-6 1.9-11 6-15.4 4.4-4.1 9.3-6 15.3-6 5.7 0 10.9 1.9 15.3 6 4.1 4.4 6 9.3 6 15.4v171.1c0 6-1.9 11-6 15.4-4.4 3.9-9.6 5.8-15.3 5.8m78.9-170.9c-6 0-10.9-1.9-15.3-6-4.1-4.4-6-9.3-6-15.4s1.9-11 6-15.4c4.4-4.1 9.3-6 15.3-6h145.9c6 0 10.9 1.9 15.3 6 4.1 4.4 6 9.3 6 15.4s-1.9 11-6 15.4c-4.4 4.1-9.3 6-15.3 6h-51.6v149.8c0 6-1.9 11-6 15.1-4.4 4.4-9.3 6.3-15.3 6.3s-10.9-2.2-15-6.3c-4.4-4.1-6.3-9.1-6.3-15.1V175.1zM233.1 343.3c14.7 0 26.6-11.9 26.6-26.7 0-14.7-11.9-26.7-26.6-26.7s-26.6 11.9-26.6 26.7 11.9 26.7 26.6 26.7m184.4 108.4c14.7 0 26.6-11.9 26.6-26.7 0-14.7-11.9-26.7-26.6-26.7s-26.6 11.9-26.6 26.7c.1 14.7 12 26.7 26.6 26.7" class="st0"/><path d="M799.6 296.6c-6.6-6.1-12.5-6.9-17.8-6.4-1.1 0-1.9-.3-2.9-.3H496.3c12.2-60.6 65.9-106.2 129.7-106.2 35.1 0 68.3 13.6 93.3 38.4 10.1 10.1 26.6 10.9 36.9 1.3 11.2-10.4 11.4-27.8.8-38.4-35.1-35.2-81.6-54.4-131-54.4-43.9 0-84.5 15.5-116.2 41.4-14.6 11.2-25.5 11.7-48.6 11.7h-44.4c-14.9 0-26.8 12.3-26.6 27.5.3 14.4 13 25.6 27.4 25.6H488l-26.8 4.8c-3.2.5-6.1 2.7-7.2 5.9-3.7 9.6-6.4 19.7-9 29.9-2.4 8.8-15.7 12.8-34.8 12.8h-96.5c-14.6 0-27.1 11.2-27.6 25.9-.5 14.9 11.7 27.5 26.6 27.5h166.7l-27.4 4.5c-4.8.8-7.7 5.3-6.6 10.1 18.7 82.8 92.3 145 180.6 145 99.1 0 180.5-78.7 185.3-177.2.2-11.2-3.8-21.9-11.7-29.4M626 449.5c-64.1 0-117.5-45.6-129.7-106.2h259.4c-12.5 60.6-65.9 106.2-129.7 106.2" class="st0"/></svg>