<svg xmlns="http://www.w3.org/2000/svg" xml:space="preserve" x="0px" y="0px" viewBox="0 0 1920 364.9"><path d="M1920 364.9V88.3c-2.5.6-4.6 1.8-6.5 2.8-4.7 2.6-9 5.4-14 7.9-7.1 3.5-7.1 2.9-10.4-1.7-2.4-4.1-4.1-8.4-6-12.6-5.1-10.5-8.2-21.3-12-32.1-1.8-3.7-3.5-13.7-13.5-11.8-4.6.9-7.9 3.3-12.5 4.2-.9-.5-1.5-1.3-2.1-1.9-4.7-6.3-8.1-7.7-18.5-10.7-1.3-.3-3.1-.2-4 .5-3.2 2.4-5.6 5.1-8 7.7-3.5 4-6.8 8.1-9.7 12.3-3.7 5.4-6.5 11-12.1 15.9-1.4 1.1-2.9 2.3-5.1 2.7-4.2.6-8.6.1-12.8.2-15.4.1-18.7 1-25.8 8.9-3.2 3.1-18 18-23.4 17.9-8.5-.5-16.4-3.2-25.2-2.9-7.7.1-12.5 4-16.5 7.3-2.5 2-5 3.9-7.8 5.7-10.3 6.5-25.4 10-40.3 11.8-7 .8-14.2.8-21.2 1.5-1 .1-1.9.2-2.9.2-5-1.2-10-2.3-15-3.5-10.4-2-21.2-3.2-31.8-4.8-11.1-1.7-21.9-4.1-33.2-5.5-10.6-1.3-21.5-2.1-32.2-2.8-32.3-2.9-64.9-1.7-97.4-2-17.6-.2-34.9-1.3-52.5-1.4-12.1-.3-24.3.5-36.2-1.1-10.6-1.8-18.2-16.7-28.5-16.9-5.2-.4-12.3 3.1-16.8 2h.1c-1.1-.4-1.7-1.2-2.3-1.8-1.1-1.3-2-2.7-2.9-4.1-3.2-5.4-5.2-11.6-9.9-16.8-1.2-1.2-3.6-.9-5.7-.7-5.1.5-8.4 3-10.6 5.5-7.3 8.1-12.6 16.8-21.6 24.4-3.2 2.6-6.4 5.2-10.6 7.3-2.1.9-4 1.8-6.8 1.9h-1.6l-.5-.1c-.5-.1-1.1-.1-1.6-.2-7.8-1.6-14.6-4.5-22.4-6.1-5.4-1.1-11.2-1.9-17-1.6-5.8.2-11.2 1.6-16 3.3-6.2 2.1-11.4 5.1-17.8 7.1-5.3 1.5-11.1 2.3-17 2.4-18.7.3-37.5-.3-55.9-2.3-21.9-2.1-43.5-4.7-65.1-7.7-19.6-2.5-38.7-5.9-58-9-26.1-3.9-51.8-8.7-77.1-14.1-11.4-2.4-22.2-5.6-33.7-7.8-9.9-2-20.4-3.4-29.6-6.4-7-2-9.9-6.3-12.3-10.3-1.9-3.2-3.8-6.6-5.7-10.1-1.9-3.1-3.1-6.6-7.4-8.9-4.4-2-10.3-.6-15.3-1.1-7.8-.4-14.1-13.1-17-17.1-2.1-3.2-4.3-6.5-7.4-9.4-2.1-2.3-7.2-3.2-10-1-4.8 4.1-6.5 9-9 13.6-1.6 3.1-3.2 6.2-5.1 9.3-5.3 9-7.7 6.8-18.7 11.9-6.6 3.6-7.7 9.4-10.5 14.1-1.4 2.7-2.8 5.3-4.4 7.9-1.9 2.8-3.4 6.1-6.7 8.6-5.2 2.9-18.6 1.7-25.7 1.9-6.9.1-13.7.6-20.5 1.2-5.6.4-10.9.8-14.3 3.7-4.9 4.2-6.6 9.2-9.7 13.9-8.3 13.7-18.6 21.6-43.5 26.3-15 3.2-31.2 2.2-46.9 2.4-21.1.1-42.2 0-63.3.3-10 0-20 .6-30 .4-7.1-.3-14.1-.9-21.2-1.5-11.9-1.1-23.8-2.2-35.2-4.3-10.4-1.9-20.8-3.9-31.3-5.6s-20.6-4.1-31.1-5.9c-9.2-1.7-18.9-2.7-27.4-5.4-6.8-2.8-10.3-7.3-14.6-11.3-2.1-2-4.2-4-7.5-5.4-8.2-3.3-20.2.4-28.9 1.3-2.6.2-5.8.7-7.8-.5-3.2-2.4-4.7-5.5-6.6-8.3-5.1-7.5-9.2-15-13-22.8-3.1-5.7-4.3-12-10.9-16.8-8.7-4.7-16.8 3.9-20.5 7.6-8.1 8.8-15.9 17.7-22.4 26.9-4.3 6.2-7.6 12.6-12.7 18.6-2.5 2.6-5.5 5.9-11.4 6.1-9.6.2-19.4-1.6-28.9-.3-5.8.9-10.4 3.2-14.8 5.3-4.1 2-8.3 3.9-12.8 5.7-8.7 3.2-18.5 5.8-28.9 6.4-3.6.1-7.1-.1-10.6-.2v258.8H1920z" style="fill:#73377c"/><path d="M1920 364.9v-212c-4 .6-8 1.4-11.9 2.5-8.4 2.1-16.8 4-25.2 6-7.7.9-15.6.5-23.4.3-7.2-.3-13.9-2.4-20.7-4-15.5-2.6-31.1-5.5-46.3-9.3-8.2-1.8-16.3-3.7-24.2-6.2-5.2-1.3-10.5-2.4-16-1.7-6.5.8-12.7 1.1-19.4.9-1.6-.1-3.2-.3-4.8-.7-2.3-.7-4.4-1.7-6.6-2.5-4.4-1.6-9.1-3-12.7-5.7-5-3.9-9.7-8.2-15.2-11.5-4.7-2.4-9.4-4.9-14.3-7.1-2.4-.9-4.9-2.6-7.2-3.8-3.9-1.8-7.2-4.3-11.1-6.2-1-.5-2-.6-2.8-.3-1.4-.9-2.8-1.7-4.4-2.2-3.3-.9-6.7-1.3-10.2-1.5-1.7-2.9-3.7-5.7-6.1-8.3-3.6-4-7.7-7.6-11.4-11.5-6.3-7-12.7-14.7-22.9-17.7-8.6-3-16.7-7-25.8-9.1-20.8-4.8-42.7-6.5-64.1-4.4-18.1 2-35.6 7-52.6 12.6-9.8 3.6-19.1 8.2-28.4 12.7-8 3.9-15.1 8.9-22.4 13.6-6 3.8-12.2 7.6-17.4 12.2-5.5 4.9-9.8 10.6-14 16.3-.7 1-1.8 2.5-3 4.2-5 .3-9.9 1.2-14.1 3.7-3 1.8-4.7 4.7-7.5 6.8-3.2 2.3-7 4-10.4 6.1-4.7 2.8-8.4 6.4-11.4 10.5-12.3 14.7-17.2 8.7-35.4 8.3-4.8-.3-9.6-.6-14.5-.9-5.5-.3-11.1-1.2-16.6-.9-8.8.4-16.6 3.9-24.6 6.5-6.1 1.5-12.2 3-18.5 3.7-11.6 0-23.2-1.5-34.8-2-3.9-.2-7.8-1-11.6.1-1.5.4-3.5 1.3-3.2 2.9 0 .1.1.2.1.3-3.5.4-7 .6-10.5.3-.8 0-1.7-.1-2.5-.2-1.5-7.2-3.3-14.3-5.4-21.4-1.7-8.9-3.9-17.8-7-26.5-1.1-3.5-2.3-6.9-4-10.2-4.4-8.1-11.2-15.3-19-21.3-4.6-3.7-10.4-5.7-16.3-7.4-8.3-2.6-16.9-4.2-25.5-6.1-12.9-2.7-25.6-6-38.7-7.8-6.4-.8-12.8-1.5-19.2-1.9-11.1-.8-22.3 0-33.4.4-9 .3-18.1.8-27 2.1-8.6 1.1-17 3.2-25.5 4.7-30.3 5.2-60.9 11.3-88.8 22.8-12 4.8-24.5 8.8-36.2 14.2-11.8 5.2-23.9 10-34.8 16.6l-6.9 4.5-4.2.3c-6.3.3-12.6.1-18.8.8-5.3.8-10.4 1.8-15.8 2.4-7.5 1.1-15.1 1.4-22.6.3-7.7-2-15.6-3.9-23.1-6.8-3.6-1.5-7.7-3.6-11.7-4.9-6.4-2.1-13.3-2.8-20-3.6-5.3-.5-10.7-.5-16.1-.8-2.4-.2-4.8-.3-7.2-.4l-.3-.3c-3.7-3.8-7.6-7.9-12.9-10.2-8.3-3.4-18-3.3-27.1-2.8-13.6 1.2-27.3 2-40.7 4.1-6.8.8-13.6 1.4-20.3 2.6-10.3 2-20.7 3.8-31.4 3-13.4-.3-26.3-4.1-38.2-9.3-8.4-3.7-17.2-5.9-26.2-8.6-5-1.5-9.9-3.2-15.2-3.8-12.3-.7-23.7 3.3-35.9 4.8-3.4-10.5-26.3 2.7-31.5 7-9 6.6-16 14.9-20.7 24-2.3-.3-4.7-.5-7-.8-.7-.1-1.5-.2-2.2-.3-2.4-.3-4.9-.4-7.3-.3-5.9.6-16.1 2.8-16.9 8.8v.3c-1.6 1.1-3.2 2.2-4.7 3.3-2.5 1.7-5.1 3.2-7.3 5.1-2.4 2-4.4 4.4-6.7 6.6-3.2 3-7.1 5.2-10.7 7.8-8.7 6.3-9.3 8.9-21.6 10.5-4.8.9-9.7.8-14.5 1.2-5.6.4-10.9 2-15.8 4.3-7.6 3.1-12.9 8.9-18.7 13.8-2.7 1.9-5.6 3.1-8.6 4.9-3.9 2.3-7.5 5.1-12.1 6.6-6.3 1.7-13 1.5-19.5 2.4-6 .6-11.8 1.1-17.9 1.4-14 .5-28 .4-41.9-.2-6.2-.4-12.3-1.1-18.5-.9-6.8.1-13.5-.3-20.3-.2-11.8.4-23.5 1.1-35.3 1-8.3 0-16.6.5-24.9.2h-.2V365H1920z" style="fill:#a8736d"/></svg>