<svg xmlns="http://www.w3.org/2000/svg" xml:space="preserve" id="Calque_1" x="0px" y="0px" version="1.1" viewBox="0 0 587.6 442.7"><style>.st0{fill:#935a41}.st2{fill:#4f2213}.st3{fill:#9e654b}.st5{fill:#41201a}.st6{fill:#f8f3f2}.st7{fill:#ded5d3}</style><path d="M527.8 247.4c-.4-4.1-1.2-8.2-1.8-12.3-.7-5-.9-10-.9-15 .1-9.8 1.2-19.6.9-29.4-.2-9.5-2.4-18.6-3.3-28-.8-8.6-1.4-17.3-3.6-25.7-2.1-8.5-6.4-16.2-10.9-23.8-3.2-5.5-6.8-10.8-11.4-15.2l-1.1-1.1c-1-1-2.1-1.9-3.2-2.7-3.3-2.5-6.8-4.6-10.4-6.6-3.5-1.9-6.9-3.7-10.9-4.2-3.9-.5-7.8.1-11.8.2-4.5.2-8.9-.4-13-2.3-3.5-1.7-6.6-4-9.8-6.1s-6.5-3.8-10-5.1c-16-5.8-33.2-4.1-49.5-1.2-9.6 1.7-19.2 3.9-28.6 6.5-9.1 2.6-18 5.3-27.4 6.8s-18.9 2.6-28.2 4.5c-9.4 2-18.6 4.4-28.2 5.7-19.5 2.7-39.3 2.8-58.9 1.7-9.4-.5-19-2-28.5-1.6-9.2.5-18.2 2.3-27.1 4.4-4.5 1.1-9 2.3-13.5 3.4-3.5.9-7.1 1.6-10.5 2.8-3.1 1.1-5.9 2.7-8.3 5-3.2 3-5.8 6.8-8.8 9.9-6.3 6.4-12.9 12.4-18.5 19.5-5.4 6.8-10.1 14.1-14.1 21.7-3.8 7.3-7.9 15-9 23.3-1.1 8-.1 16.2 1.6 24.1 1.6 7.6 3.6 15.8 7.4 22.6 3.6 6.7 9 12.3 14.9 17 12.2 9.8 26.5 17.2 42.3 18.3 7.1.5 15-4.9 21.6-1.1h.1s0 .1-.1.1c-2 2.9-7.3 4.4-10.1 5.5-4.4 1.8-8.6 4-13 5.9-9.6 4.3-19.9 6.9-29.3 11.7-8.1 4.2-15 10-17.3 19.1-2.5 10.4 0 21.1 4.8 30.5 5 9.8 12.5 18.5 21 25.6 8.4 7 18 11.3 28.9 12.8 11.1 1.5 22.4.3 33.3-1.7 12.8-2.4 25.5-5.9 38.2-9 15.2-3.7 30.5-6.5 46.1-7.5 15.3-1 30.7-.6 46 .9.5 0 .7-.3.7-.6 4.8.3 9.5-.7 14.2-1.2s9.5 0 14.2.2c9.8.4 19.4-1.2 29.1-2.8 9.7-1.5 19.4-3.3 28.9-5.8 9-2.4 17.9-5.2 27.1-7.2 8.5-1.8 17.1-3 25.8-2.6 6.9.3 13.8 1.2 20.7 1.5 6.7.3 13.6.1 20.1-2 6.7-2.2 11.5-6.5 15.4-12.2 5.2-7.5 8.6-16.1 12.6-24.3 4.1-8.5 8.4-16.8 11.3-25.8 2.7-8.6 4.6-18 3.8-27.1m-17.4 54.1c-3.9 8.1-7.3 16.5-12.6 23.8-4.3 5.9-10 9.6-17.2 11.2-13.3 2.9-27-.5-40.4-.6-17.6-.1-34.4 6-51.3 10.3-9.3 2.4-18.7 4.1-28.2 5.5-9.8 1.5-19.4 3-29.4 2.5-4.5-.2-9-.5-13.5 0-4.7.5-9.4 1.4-14.1 1-.4 0-.7.3-.7.6-25.9-2.5-52-1.7-77.5 3.5-12.9 2.7-25.7 6.2-38.5 9.2-11.2 2.6-22.5 5-34 5.3-11.2.3-22.5-1.5-32.3-7.1-1.1-.6-2.3-1.3-3.4-2.1-1.6-1-3.1-2.2-4.6-3.4-6.2-5-11.8-11.2-16.2-17.6-6.2-8.9-10.9-19.6-10.5-30.7.2-5.1 1.4-10.5 4.5-14.8 2.8-3.8 6.8-6.7 10.9-9 9.9-5.6 21.1-8.3 31.4-12.8 4.9-2.2 9.7-4.5 14.7-6.6 2.7-1.1 7-2.5 8.8-5.2.1-.2.2-.3.3-.5.1-.1.1-.3.2-.4.2-.4.1-.8-.3-1-.6-.4-1.2-.7-1.8-1-5.9-2.5-12.5.9-18.7 1.4-4 .4-8.4-.6-12.3-1.5-4.3-.9-8.4-2.3-12.3-4.3-7-3.6-14.1-7.8-20.3-12.9-1.2-1-2.4-2-3.5-3.1-4-3.8-7.5-8.1-10.1-13-3.7-7-5.7-15.4-7.3-23.1-1.7-8.4-2.7-17.3-.8-25.7.9-4.1 2.7-8 4.5-11.8s3.7-7.6 5.8-11.3c4.2-7.5 9.1-14.7 14.8-21.3 5.8-6.8 12.6-12.5 18.6-19.1 2.8-3.1 5.1-6.6 8.6-8.9 3-2 6.4-3 9.8-3.9 17-4.2 34.5-9.7 52.1-9.1 9.3.3 18.6 1.5 28 1.9 9.5.4 19.1.5 28.6.1 9.1-.3 18.2-1.1 27.3-2.5s17.9-3.8 26.9-5.6c9.1-1.8 18.3-2.8 27.4-4.4 9.2-1.5 18-4.2 27-6.7q13.5-3.75 27.3-6.3c8.6-1.6 17.2-2.9 26-2.9 8.2.1 16.6 1.1 24.4 4 7.3 2.7 13 8.2 20.1 11.3 7.2 3.1 14.4 1.5 21.9 1.7 4.8.1 8.7 2 12.9 4.2 3.6 1.9 7.1 4 10.3 6.5 1.2.9 2.3 1.9 3.4 2.9l.1.1.3.3.7.7.7.7c4.4 4.6 7.9 10 11.1 15.5 4.4 7.6 8.3 15.3 10.2 23.9s2.3 17.4 3.3 26.2c1 9.2 3 18.2 3.1 27.5 0 9.5-1 19-1 28.5 0 4.4.2 8.9.9 13.3.6 4.3 1.6 8.7 1.9 13 1.4 19.4-8 36.9-16 53.6" class="st0"/><path d="M154.8 261.6c-5.9-2.5-12.5.9-18.7 1.4-4 .4-8.4-.6-12.3-1.5-4.3-.9-8.4-2.3-12.3-4.3-7-3.6-14.1-7.8-20.3-12.9 4 1.7 7.9 3.6 11.8 5.4 4.9 2.2 9.9 4.6 15.2 6.1 9.5 2.7 19.5 2.7 29.3 2.9 1.8.1 3.7.1 5.3.8 1 .5 1.6 1.2 2 2.1m355.6 39.9c-3.9 8.1-7.3 16.5-12.6 23.8-4.3 5.9-10 9.6-17.2 11.2-13.3 2.9-27-.5-40.4-.6-17.6-.1-34.4 6-51.3 10.3-9.3 2.4-18.7 4.1-28.2 5.5-9.8 1.5-19.4 3-29.4 2.5-4.5-.2-9-.5-13.5 0-4.7.5-9.4 1.4-14.1 1-.4 0-.7.3-.7.6-25.9-2.5-52-1.7-77.5 3.5-12.9 2.7-25.7 6.2-38.5 9.2-11.2 2.6-22.5 5-34 5.3-11.2.3-22.5-1.5-32.3-7.1-1.1-.6-2.3-1.3-3.4-2.1 15.1 5.7 32.3 5.1 48 4.1 4.8-.3 9.7-.8 14.4-1.8 5.3-1.1 10.5-2.8 15.7-4.2 10.4-2.8 21-4.8 31.3-7.7 10.8-3 21.7-4.5 32.8-6 5.5-.7 11-1.6 16.5-2 5.4-.4 10.8-.4 16.2-.2 10.8.4 21.6 1.6 32.5 1.8 10.3.2 21 .4 31-2.8 5-1.6 9.8-3.9 14.9-5.3 5.2-1.4 10.5-2.2 15.8-2.9 10.9-1.5 21.8-3.3 32.8-3.8 10.7-.5 21.4-.6 32.1-1.1 10-.5 20.1-1.5 29.4-5.5 15.1-6.4 19.4-23.5 25.5-37.1 2.1-4.8 4.6-9.3 7.2-13.9 2.3-4.2 2.5-9 3.9-13.5 3-9.3 2.4-18.6 1.7-28.3-.4-4.9-.6-9.8-.3-14.8.2-4.9.3-9.8-.3-14.7-.4-2.9-.8-5.6-.8-8.6 0-2.6.2-5.3.2-7.9-.1-5.3-.9-10.7-1.4-15.9-1.1-10.4-3.2-20.3-6.1-30.3-1.4-4.8-2.9-9.5-5-14-1.1-2.4-2.5-4.6-3.4-7.1-.9-2.4-1.3-4.8-1.8-7.2-1-4.6-2.4-9.2-3.1-13.9 4.4 4.6 7.9 10 11.1 15.5 4.4 7.6 8.3 15.3 10.2 23.9s2.3 17.4 3.3 26.2c1 9.2 3 18.2 3.1 27.5 0 9.5-1 19-1 28.5 0 4.4.2 8.9.9 13.3.6 4.3 1.6 8.7 1.9 13 1.3 19.4-8.1 36.9-16.1 53.6" style="fill:#85513f"/><path d="M586.5 208.3c-3-5.4-6.9-9.8-8.5-16-1.9-7.2-.3-15.1.2-22.4.6-7.4.6-14.7-.7-22-2.3-13.1-7.8-24.8-15.7-35.3-3.9-5.2-9.3-8.4-14.3-12.4-5.9-4.7-8.1-11.2-12.5-17-3.3-4.4-8.1-7.5-12.8-10.2-5.6-3.3-11.6-6-17.5-8.7-5.4-2.4-10.9-4.9-16.4-7-7-2.6-14.2-4.5-21.4-6.7-7.1-2.2-14.6-4.6-20.8-8.8-5.7-3.9-10.3-9.2-15.8-13.4-6-4.5-12.9-7.6-19.3-11.3-6-3.4-11.4-7.8-17.5-11-4.6-2.4-9.5-4.2-14.7-4.6-5.8-.5-11.6.8-17.2 2.4-6.6 2-13.1 4.5-19.9 5.8-3.7.7-7.5.9-11.2 0-3.2-.8-6.1-2.1-9.2-3.3-7.1-2.7-14.7-2.6-22.2-3-8.1-.4-16.2-.8-24.3-1.7-5.9-.6-12.2-2.4-18.2-1.6-2.8.4-5.8 1.1-8.5 2-3 1-5.3 2.2-8.5 2h-.3c-5.4.5-10.5 3.4-15 6.3-5.1 3.2-9.9 6.9-15 10.2-6.3 4.1-12.4 8.4-18.8 12.2-6.9 4-14.2 7.3-21.3 10.8-7.5 3.8-15.3 8.2-23.4 10.5-7.9 2.2-16.1 2.4-24.1 3.5-11.4 1.5-23.1 4-32.2 11.5-11 9.1-16.1 22.6-24.2 34-4.6 6.4-10.2 12.2-15.3 18.3-4.8 5.7-9 11.8-13.2 17.9-4 5.7-8.5 11-12.1 16.9-3.8 6.2-5.5 12.9-6.9 20-2.8 14.9-3.3 30.1-6.6 44.9-1.7 7.4-4.4 13.9-6.8 20.9-2.2 6.3-3.4 12.9-4 19.5-1.2 13.7.3 27.8 4.1 41.1 6.5 23 18.1 45.4 34.5 63 0 0 0 .1.1.1.8.8 1.6 1.7 2.4 2.5 4.7 4.7 9.7 9.2 15 13.2 5.9 4.4 12.2 8.3 18.1 12.9 5.5 4.3 10.2 9.1 14.2 14.8 2.8 4 5.4 8.2 8.9 11.5 9.2 8.5 22.2 4.8 33.2 3 8.2-1.4 16.1-2 24.5-1.3s16.7 1.8 25 3.3c7.5 1.4 14.8 3.1 21.9 5.7 7 2.5 13.9 5.6 21 7.9 7 2.3 14.2 3.8 21.6 3.7 7.5-.1 14.9-1.5 22.1-3.3 6.8-1.7 13.5-3.6 19.7-6.7 6.6-3.3 12.7-6.6 20.1-7.8 7.7-1.2 15.3-1.7 22.9-3.4 8-1.8 16-4.2 24.1-5.8 8.2-1.7 16.4-2.6 24.7-1.2 7.5 1.3 14.4 2.9 22.1 2.5 3.9-.2 7.7-.6 11.6-.5 4 .2 8 1 11.9 1.8 6.7 1.5 13.3 3.6 20.1 4.5 15.3 2 29.5-5.7 43.3-11.3 7.3-3 14.6-6.1 22-9.1 5.9-2.4 12.1-3.7 18.2-5.5 5.8-1.7 11.7-3.8 16.6-7.3 4.8-3.5 8.7-8.5 12.7-12.9 8.8-9.9 16.8-20.1 20.7-32.9 2.3-7.7 3.5-15.6 4.6-23.6 1-7.6 2.2-15.1 3.2-22.7.9-6.5 1.2-13-1.3-19.2-2.5-6.3-5.2-11.4-3.2-18.4 1.8-6.3 5.1-12 4.9-18.7-.1-3.3-.6-6.6-.7-10-.2-4.3.4-8.2 1.4-12.4.9-3.7 1.7-7.3-.1-10.7m-1.8 12.1c-1.5 6.7-.7 13-.3 19.8.4 7-2.9 12.8-4.8 19.4-1.6 5.6-.6 10.5 1.7 15.7 1.2 2.7 2.4 5.4 3 8.3.7 3.8.4 7.9 0 11.8-.8 7.5-2.2 15-3.1 22.6-1 7.9-2.2 15.8-4.3 23.5-3.8 13.7-12.1 24.4-21.4 34.9-4.2 4.7-8.4 10-13.8 13.4-5.2 3.2-11.2 5-17.1 6.6-6.1 1.7-12.2 3.3-18.1 5.8-7.4 3.1-14.9 6.2-22.4 9.2-7.2 2.9-14.5 6.1-21.8 8.5-7.2 2.4-14.7 2.2-22.1.8-6.7-1.3-13.2-3.4-19.9-4.6-7.3-1.3-14.2-.6-21.6-.4-7.8.3-15.2-2.1-22.9-3-7.2-.9-14.6.2-21.7 1.6-7.6 1.5-15 3.7-22.5 5.5-7.6 1.8-15.2 2.5-22.9 3.6-6.7.9-12.5 3-18.4 6.2-6.7 3.5-13.3 5.9-20.5 7.9-7.6 2-15.3 3.7-23.2 4-7.5.3-14.6-1-21.8-3.3-7.1-2.3-14-5.3-21-7.9-7.1-2.6-14.4-4.4-21.8-5.8-14.6-2.8-30.2-5.2-45-3.2-7.4 1-14.6 2.7-22 3.2-6 .5-11.5-.6-16-4.8-3.8-3.5-6.5-8.2-9.5-12.4-3.5-4.9-7.7-9.2-12.5-13-5.2-4.2-10.9-7.8-16.3-11.7-5.8-4.1-11.2-8.7-16.3-13.7l-.3-.3c-1.2-1.2-2.5-2.5-3.7-3.8-7.3-7.8-13.7-16.5-18.9-25.9C8.1 315.2-.6 288.1 1.9 261.1c.6-6.6 1.9-13.2 4.2-19.5 2.5-7 5.1-13.6 6.7-20.9 3.1-14.5 3.7-29.3 6.4-43.9 1.4-7.3 3.2-14.1 7.2-20.5 3.6-5.8 8-10.9 11.9-16.5 4.5-6.5 9-12.8 14.1-18.8 4.7-5.6 9.9-11 14.1-17 8.1-11.3 13.1-24.7 24-33.7 10.1-8.3 23.8-10.4 36.4-11.7 7.4-.8 14.8-1.3 21.8-3.8 7.3-2.6 14.3-6.4 21.2-9.9 6.8-3.4 13.8-6.5 20.4-10.3 6.5-3.7 12.6-8 18.9-12.2 4.8-3.2 9.5-6.6 14.4-9.8 4.7-3.1 10.1-6.6 15.9-7 2.8.1 4.9-.4 7.5-1.5 2.9-1.2 6-2 9.1-2.5 6.5-1 13.3 1 19.8 1.6 7.7.8 15.5 1.2 23.2 1.5 7.8.4 15.3.4 22.7 3.2 6.2 2.4 11.6 4.2 18.3 3.2 6.3-.9 12.3-3 18.3-5 6.1-2 12.4-3.7 18.9-3.5 5.6.2 10.8 2 15.7 4.7 6 3.2 11.3 7.5 17.2 10.8 6.5 3.7 13.3 6.8 19.3 11.3 5.4 4.1 9.8 9.3 15.4 13.1 5.5 3.8 12 6.1 18.3 8.2 6.9 2.3 14.1 4.1 21 6.4 5.9 2 11.7 4.6 17.4 7.1 6 2.6 11.9 5.3 17.6 8.4 5.5 3 11.3 6.5 15.1 11.7 3.5 4.8 5.5 10.6 10 14.7 4.8 4.5 10.9 7.4 15.2 12.5.7.8 1.4 1.7 2 2.5.6.7 1.1 1.5 1.6 2.2 6.7 9.4 11.1 20.4 13.1 31.7 1.3 7.5 1.1 15 .5 22.5-.5 6.7-1.8 13.8-.4 20.4 1.3 6.1 4.5 10.9 7.9 16 1 1.6 1.9 3 2 4.9.1 3.3-.9 6.1-1.5 8.7" class="st2"/><path d="M584.4 283.6c.7 3.8.4 7.9 0 11.8-.8 7.5-2.2 15-3.1 22.6-1 7.9-2.2 15.8-4.3 23.5-3.8 13.7-12.1 24.4-21.4 34.9-4.2 4.7-8.4 10-13.8 13.4-5.2 3.2-11.2 5-17.1 6.6-6.1 1.7-12.2 3.3-18.1 5.8-7.4 3.1-14.9 6.2-22.4 9.2-7.2 2.9-14.5 6.1-21.8 8.5-7.2 2.4-14.7 2.2-22.1.8-6.7-1.3-13.2-3.4-19.9-4.6-7.3-1.3-14.2-.6-21.6-.4-7.8.3-15.2-2.1-22.9-3-7.2-.9-14.6.2-21.7 1.6-7.6 1.5-15 3.7-22.5 5.5-7.6 1.8-15.2 2.5-22.9 3.6-6.7.9-12.5 3-18.4 6.2-6.7 3.5-13.3 5.9-20.5 7.9-7.6 2-15.3 3.7-23.2 4-7.5.3-14.6-1-21.8-3.3-7.1-2.3-14-5.3-21-7.9-7.1-2.6-14.4-4.4-21.8-5.8-14.6-2.8-30.2-5.2-45-3.2-7.4 1-14.6 2.7-22 3.2-6 .5-11.5-.6-16-4.8-3.8-3.5-6.5-8.2-9.5-12.4-3.5-4.9-7.7-9.2-12.5-13-5.2-4.2-10.9-7.8-16.3-11.7-5.8-4.1-11.2-8.7-16.3-13.7 4.1 2.3 8.2 4.5 12.3 6.8 5.9 3.2 12.2 5.7 18 9.2 2.7 1.6 5.3 3.6 8 5.2 3.1 1.8 6.4 3.5 9.4 5.4 5.2 3.2 9.5 7.7 14.8 10.7s11.4 4.2 17.4 5.1c6.5 1.1 13.1 1.7 19.7 2 6.4.3 12.9.3 19.4-.1 7.6-.5 15.1-1.1 22.8.1 7.1 1.2 14.2 3.2 20.9 5.9 6.1 2.5 11.3 6.8 17.2 9.7 11.1 5.5 25 4.3 37 3.2 5.7-.5 11.5-1.5 16.5-4.5 4.6-2.7 8.1-6.8 12.4-10 5.3-3.9 11.6-3.9 17.8-5.6 6.7-1.9 12.9-5 19.5-7 6.2-1.8 12.6-1.9 19-2.2 3.4-.2 6.8-.4 10.2-.3 3.6.1 7.2.7 10.8.9 6.8.4 13.2-1.8 19.9-2.3 7.4-.6 13.8 2.5 20.9 3.6 3.2.5 6.5.5 9.7.6 3.3.1 6.5.6 9.7 1 6 .8 12.1 1.2 18.2 1.1 5.8-.1 11.7-.8 17.2-2.6 5.6-1.9 10.4-5.4 15.3-8.5 12.1-7.7 26.7-10.5 40-15.5 10.9-4.1 18.7-13.6 26.7-21.7 16.6-16.9 32.8-38.9 31.7-63.8-.7-14.3-6.9-28.3-4.7-42.7 2.1-13.2 9.7-26.8 5.6-40.4-1.7-5.8-5.5-10.6-7.2-16.5-1.8-6.1-2.8-12.5-3.4-18.9-1.3-14.2 1.7-28.4-1.2-42.5-.7-3.4-1.5-6.6-1.7-10-.2-2.5-.3-5-.7-7.4 6.7 9.4 11.1 20.4 13.1 31.7 1.3 7.5 1.1 15 .5 22.5-.5 6.7-1.8 13.8-.4 20.4 1.3 6.1 4.5 10.9 7.9 16 1 1.6 1.9 3 2 4.9.1 2.7-.8 5.5-1.4 8.1-1.5 6.7-.7 13-.3 19.8.4 7-2.9 12.8-4.8 19.4-1.6 5.6-.6 10.5 1.7 15.7.6 2.6 1.9 5.2 2.5 8.2" class="st0"/><path d="M216.9 59.2c-.3-3.2-2.3-5.9-5.4-6.9-2.4-.7-4.9-.5-7.1.3-2.5.9-5 2.4-6.7 4.5-.3.4-.2.8.1 1.1-2.3 3.6.3 8.7 3.4 11 3.7 2.8 9 1.8 12.2-1.2 2.3-2.2 3.7-5.6 3.5-8.8m-12.7 9.9c-2.2-.6-3.9-2.4-4.9-4.4-1-1.9-1.5-4.4 0-6.2.3-.3.2-.8 0-1 2.5-2.6 6.6-4.4 10.2-4 2.7.3 5 1.9 5.7 4.6 1.6 6.1-4.8 12.7-11 11m61-.8c-.1-1.1-.5-2.1-1.2-2.9-1.3-1.5-3.5-1.6-5.3-1-2 .7-3.6 2.2-4.5 4.2-.5 0-1 .5-.7 1.1.1.2.2.3.2.5s.1.3.3.4c1.2 1.7 3.1 2.9 5 3.4 2.1.6 4.6.3 5.7-1.8.5-1.2.7-2.6.5-3.9m-1.6 2.5c-.5 1.7-2.1 2.2-3.7 1.8-1.7-.4-3.5-1.4-4.5-2.8.5-1.6 1.7-2.9 3.2-3.7.7-.3 1.5-.6 2.2-.6s1.3.1 1.9.5c.5.4.9 1 1.1 1.7.1 1 0 2.1-.2 3.1m164.7-28.2c-1-1.3-2.5-2.4-4.1-2.7-1.5-.3-2.8 0-4.1.7-.1-.1-.3-.1-.5-.1-3.7.9-6.8 3.8-7 7.8-.1 3.4 2.1 6.6 5.5 7.5 2.1.5 4.3.2 6.3-.6 1.9-.7 3.6-1.9 4.7-3.6 1.8-2.7 1.3-6.4-.8-9m0 7.5c-1.3 3.2-5.5 4.8-8.7 4.5-2.8-.2-5-2.4-5.4-5.2-.2-1.6.2-3.1 1.1-4.4s2.2-2.1 3.6-2.6c.3.3.7.4 1.1.1 4.7-3.9 10.3 2.8 8.3 7.6M134.1 78.3c-.3-1-1.1-1.8-2.1-2.3-2.7-1.3-5.9-.4-7.8 1.8-1 1.1-1.6 2.6-1.4 4.1.2 1.8 1.4 3.2 2.9 4.1.1 0 .1 0 .1.1.4.4.9.6 1.4.7.9.2 1.9-.1 2.7-.6 1.8-1 3.3-2.9 4-4.9.4-1 .5-2 .2-3m-1.3 1.6v.1c0 .1-.1.2-.1.4-.4 1.5-1.5 3.1-2.8 4-.2.1-.4.3-.6.4-.1.1-.2.1-.3.2 0 0-.1 0-.1.1-.2.1-.4.1-.6.2h-.8c-.1 0-.2-.1-.2-.1l-.1-.1-.2-.2s0-.1-.1-.1c-.1-.1-.1-.2-.2-.4-.2-.4-.6-.5-.9-.3-.6-.5-1.1-1.2-1.2-2-.1-.4 0-.9 0-1.3.1-.5.3-.9.7-1.4 1.2-1.8 3.6-2.8 5.7-2.1.2.1.5.1.7.3.1 0 .2.1.3.2l.1.1c.1.1.3.2.4.4l.1.1c.1.1.1.2.2.3v.2c0 .1 0 .1.1.2s0 .2 0 .2v.3c-.1 0-.1.1-.1.3M54.7 214.6c-.9-2.1-2.8-3.8-5-4.5s-4.7-.3-6.8.5c-.2.1-.3.2-.4.3-1 .5-1.8 1.1-2.4 2.1s-.8 2.2-.6 3.3c.4 2.4 2.1 4.5 4.1 5.8 2.1 1.4 4.9 2 7.4 1 1.5-.6 2.9-1.7 3.6-3.2.8-1.6.8-3.6.1-5.3m-1.1 3.9c-.4 1.4-1.4 2.4-2.7 3.1-3.7 2-8.6-1.1-9.8-4.8-.2-.5-.2-.9-.2-1.4 0-.3 0-.4.1-.6 0-.1.1-.2.1-.4 0-.1.1-.2.1-.2.5-1 1.4-1.7 2.4-2.1.1-.1.2-.1.3-.2 1.5-.5 3-.8 4.5-.5 1.7.4 3.3 1.4 4.2 2.9 1 1.2 1.4 2.7 1 4.2m-1.1 94.8c-1.4-4.4-7.5-4.7-10.7-1.9-.7.6-1.2 1.4-1 2.3.2.7.7 1.2 1.3 1.5.1.1.2.3.3.4 2.1 1.5 4.6 2.9 7.3 2.3 1-.2 1.9-.8 2.5-1.6.5-.9.6-2 .3-3m-3 3.1c-1.9.6-3.8-.4-5.4-1.4 0-.3-.1-.6-.5-.8-.4-.1-.9-.3-1.2-.5 0 0-.1-.1-.2-.1v-.3c0-.1 0-.1.1-.2v-.1s.1-.1.1-.2c.1-.1.2-.3.4-.4 1-.9 2.4-1.3 3.8-1.4 1.8-.1 3.5.6 4.3 2.2.6 1.5.1 2.8-1.4 3.2m183.2 61.1c-1.2-2.6-4.4-3.1-6.9-2.2-1.7.6-3 1.7-3.7 3.4-.5 1.2-.4 2.6-.3 3.9-.1.2-.2.4-.1.7.1.2.2.4.2.5v.6c0 .6.6.8 1 .7 2.4 1.7 6.5-.1 8.4-2.2 1.5-1.5 2.3-3.5 1.4-5.4m-1.1 1.9s0 .1 0 0v.2c-.1.7-.5 1.4-.9 1.9-1 1.3-2.4 2.2-3.9 2.6-.2 0-.4.1-.7.1h-1.2c-.1 0-.2 0-.3-.1-.4-.1-.8-.4-1.1-.8-.1-1.1-.3-2.2-.1-3.3.2-1.3 1-2.3 2.1-2.9 1-.5 2.2-.8 3.4-.6.5.1 1 .2 1.4.5.2.1.4.3.6.5s.2.2.3.4c.2.4.3.5.4.9zm112.5-3c-1-5.5-7.6-5.8-12-4.6-2.8.7-5 2.2-7.3 4-2 1.5-4.4 3.3-5.6 5.7-.4.6-.5 1.4.2 2.1 1.1 1.1 2.8 1.5 4.2 1.9 1.7.4 3.4.8 5.1 1 2 .2 4.1-.1 6-.4 4.7-.9 10.4-4 9.4-9.7m-2 3.7c-1.1 2.1-3.3 3.3-5.5 3.9-3.2.9-6.7 1.2-10 .5-1.6-.3-3.2-.7-4.7-1.3-.5-.2-1.1-.4-1.5-.8l-.1-.1c0-.1.1-.1.1-.2.1-.1.2-.2.3-.2.3-.2.4-.5.3-.8.9-1.2 2.1-2.2 3.2-3.1 1.5-1.2 3.1-2.5 4.8-3.5 2.1-1.1 4.5-1.7 6.9-1.8 2.1 0 4.3.3 5.6 2.1 1.4 1.5 1.4 3.6.6 5.3M461 366.3c-2.6-1.1-5.1-.4-7.5.8-1.1.6-2 1.3-2.8 2.3-.7.9-1.3 1.7-2.3 2.3q-.3.15-.3.3c-2.1 1.9-1.1 5.3.4 7.5.9 1.3 2.1 2.4 3.6 3 1.9.7 4 .6 5.8 0 3.5-1 7.5-3.8 8.1-7.7.7-3.7-1.6-7.1-5-8.5m-1.6 14c-2.7 1.3-6.3 1.8-8.6-.4-1.7-1.7-4.1-5.7-1-7.3.2-.1.3-.2.4-.4.9-.8 1.6-1.8 2.4-2.7.7-.6 1.6-1.1 2.4-1.5 1-.5 2.2-.9 3.3-.9 3.1.1 5.9 2.7 6.3 5.7.4 3.5-2.4 6.1-5.2 7.5m105.5-67.9c-1.3-2.8-4.8-3.8-7.7-3.6-3.4.2-7.4 1.8-8.5 5.4-.2.6.4 1 .9.9 1.1 1.5 3.1 2.2 4.8 2.4 2.5.4 5.3.3 7.7-.6 2-.8 3.8-2.4 2.8-4.5m-1.3 1.7c-.3.5-1 1-1.6 1.2-1.9.8-4.2.9-6.3.7-1.7-.2-4.4-.7-5.1-2.5 1.1-2 3.6-3 5.7-3.3 2.4-.4 5.5 0 7 2.2.2.3.4.6.4 1 0 .2-.1.5-.1.7m-1.8-73.1c-.8-1.1-2-1.6-3.3-1.7-1.7-.2-3.7 0-5.1.9s-2.2 2.4-2.7 4c-1.1 3.9-1 9.4 3.5 10.9.3.1.6 0 .8-.2 1.9 0 3.6-1.8 4.7-3.2 1.6-2.1 2.8-4.7 3-7.4 0-1.2-.2-2.4-.9-3.3m-2.8 9.1c-.6.9-1.4 1.8-2.3 2.5-.4.3-.8.5-1.1.6-.4.1-.6.1-.9 0-.2-.1-.4 0-.6.1-2.7-1.3-2.6-5.1-2.1-7.7.3-1.4.7-2.9 1.8-3.8 1.1-1 2.8-1.1 4.2-1.1 5.2.3 2.8 6.7 1 9.4m-4.4-61.9c.1 4.4-.3 8.7-1.2 13-.9 4.5-2.1 8.9-2.5 13.4-.1 1-1.6 1-1.5 0 .5-5 1.8-9.8 2.8-14.7 1.8-8.9.9-18.1-.9-26.9-1.7-8.4-5.6-16.6-4.9-25.4.1-1 1.6-1 1.5 0-.4 5.1.8 10 2.2 14.8 2.4 8.5 4.3 17 4.5 25.8M521.5 84.7c-3.4 0-6.6-1-9.5-2.8-5-3.2-8.3-8.2-12.9-11.9-2.7-2.2-5.8-3.8-9.2-4.4-3.3-.6-6.8-.3-10.1.1-1 .1-.9-1.4 0-1.5 3.7-.5 7.4-.7 11 .1 6.4 1.4 10.9 5.9 15.2 10.4 2 2.1 4.1 4.3 6.5 5.9 2.7 1.8 5.7 2.6 8.9 2.7 1-.1 1 1.4.1 1.4M358.3 47c-6.9 2.8-13.8 5.1-21.3 5.6-3 .2-6 .1-9-.4-3.4-.6-6.6-1.8-9.9-2.7-5.9-1.7-11.8-3.6-17.8-5.1-9.3-2.2-20.9-3-27 5.9-.5.8-1.8 0-1.3-.8 3.1-4.6 7.9-7.2 13.3-7.9 4.9-.6 9.9.1 14.7 1.2 6 1.4 12 3.3 18 5.1 3.4 1 6.8 2.3 10.3 2.8 3.3.6 6.6.5 9.9.2 6.8-.6 13.3-2.9 19.5-5.5 1.1-.2 1.5 1.3.6 1.6M88.1 277.4c-6.9-2.1-14.2.3-21.2-.6-.2 0-.5-.1-.7-.1-3.5.2-6.9.5-10.3 1.2-5.8 1.1-12.5 3-16.5 7.7-.6.7-1.7-.3-1.1-1.1 2.2-2.6 5.3-4.3 8.5-5.6 4.4-1.8 9.2-2.7 14-3.3-4.3-1.1-8.5-2.9-12-5.6-.8-.6 0-1.9.8-1.3 4.6 3.5 10.6 5.7 16.4 6.5h.8c4-.2 8-.2 12-.3 3.2 0 6.7-.1 9.8 1.1.8.3.4 1.7-.5 1.4M258.8 411c-1.7 1-2.3 2.9-3.9 4-1.5 1-3.4 1.3-5.1 1.5-1.5.2-3 .4-4.4.1-1.7-.3-3.3-1.1-4.8-2-3.2-1.9-6-4.5-9.4-6-8.5-3.5-17.9-7.2-27.1-4.2-.9.3-1.3-1.2-.4-1.5 4.8-1.5 9.8-1.4 14.6-.3 4.4 1 8.7 2.7 12.9 4.4 3.4 1.4 6.2 3.7 9.2 5.7 1.5 1 3.1 1.9 4.9 2.4 1.6.4 3.3.1 5-.2 1.6-.3 3.5-.6 4.7-1.9 1.1-1.1 1.7-2.5 3.2-3.3.7-.5 1.5.8.6 1.3m287.5-292.2c-1.4-.8-3.1-1.3-4.7-1.1-.1-.1-.3-.2-.5-.2-2.5 0-3.4 2.9-2.9 4.9.2 1.1.9 1.9 1.9 2.4 1.1.5 2.3.7 3.5.8 1.1 0 2.2-.2 3.3-.7.8-.4 1.6-1.1 1.9-2 .4-1.7-1.1-3.2-2.5-4.1m1 3.6v.3c0 .1-.1.1-.1.2l-.3.3-.1.1c-.1.1-.2.1-.3.2l-.6.3c-.2.1-.4.1-.6.2-.1 0-.2 0-.3.1h-.3c-1 .1-1.9 0-2.8-.2-.5-.1-.8-.2-1.2-.5-.1 0-.2-.1-.2-.1l-.1-.1c-.1 0-.1-.1-.1-.1l-.1-.2s0-.1-.1-.1c0 0 0-.1-.1-.1v-.1c0-.1 0-.1-.1-.2 0-.1-.1-.2-.1-.3v-1.3c0-.1 0-.2.1-.3 0 0 0-.1.1-.1v-.1c0-.1.1-.2.1-.2s0-.1.1-.1c.2 0 .4 0 .5-.1 0 0 .1-.1.2-.1s.1-.1.2-.1c.2-.1.4-.1.7-.2h1.5c.2 0 .4.1.7.1.2 0 .4.1.6.2.1 0 .2.1.2.1h.1s.1 0 .1.1c.4.2.7.4 1 .6.1.1.2.1.2.2h.1l.4.4c.1 0 .1.1.2.2l.1.1.1.1c.1.1.1.1.1.2 0 0 .1.1.1.2s0 .1.1.2v.2zM348.9 30.1c-.4-1.8-2.4-2.5-4-2.6-1-.1-2.2 0-3.1.5-.2-.3-.8-.5-1.1-.2-.7.6-1.1 1.5-1 2.4s.6 1.6 1.2 2.2c1.3 1.3 3.4 2 5.2 1.7 1.7-.3 3.2-2.1 2.8-4m-1.4.8v.2c0 .1 0 .2-.1.2v.2c0 .1-.1.2-.1.2s-.1.1-.1.2l-.1.1c0 .1-.1.1-.2.2l-.1.1c-.1 0-.1.1-.2.1h-.1c-.1 0-.2.1-.2.1-.1 0-.2 0-.2.1h-1.4c-.1 0-.2 0-.3-.1-.2 0-.4-.1-.5-.1s-.2 0-.2-.1h-.2c-.3-.2-.7-.3-1-.5 0 0-.1-.1-.2-.1l-.2-.2-.4-.4V31c-.1-.1-.1-.1-.1-.2.1-.1.2-.2.3-.4v-.1c0-.1.1-.1.1-.2V30l.1-.1.1-.1h.1c.1-.1.3-.2.4-.2s.1 0 .2-.1c.2-.1.3-.1.5-.1h1.9c.3.1.6.1 1 .3.1 0 .2.1.2.1.1.1.2.1.3.2h.1l.2.2.1.1.1.1v.5c.2-.2.2-.1.2 0M108.3 95.4c-.1-.8-.2-1.7-.5-2.4-.4-.8-1.3-1.7-2.2-1.9-.5-.1-1.1 0-1.4.5s-.2 1-.1 1.6c-.2.8-.3 1.7-.3 2.5 0 .7 0 1.4.2 2 .1.6.3 1.1.7 1.5.5.5 1.2.5 1.8.2.3-.1.6-.3.8-.6.3-.2.6-.6.8-.9.3-.7.3-1.7.2-2.5m-2.5 2.8q-.15 0 0 0m1-1.4v.1c0 .1-.1.3-.1.4-.1.1-.2.3-.4.4 0 0-.1.1-.2.1-.1.1-.2.1-.3.2h-.1v-.1s0-.1-.1-.1c0-.2-.1-.4-.2-.6v-3.3c0-.3.1-.6.2-.8 0-.1.1-.2.1-.3.1.1.2.1.2.2.1.1.2.2.3.4l.1.1c0 .1.1.1.1.2 0 0 0 .1.1.2 0 .2.1.3.1.5s.1.3.1.5v1.6c.2.1.2.2.1.3m-41.3 43.5c-.8-1.8-2.7-2.8-4.7-2.6-.2 0-.5.1-.6.4-.2.4-.4.7-.6 1.1-1 .8-1.7 1.9-1.9 3.1-.3 1.6.3 3.3 1.9 3.9.9.3 1.9.3 2.9.1.9-.2 1.8-.6 2.4-1.3 1.1-1.4 1.3-3.2.6-4.7m-1.1 2.1v.1c0 .1 0 .2-.1.2 0 .1 0 .2-.1.2v.1l-.1.1c0 .1-.1.2-.1.2l-.1.1-.1.1c-.1.1-.2.2-.4.3l-.1.1c-.1 0-.1.1-.2.1s-.2.1-.2.1-.1 0-.1.1h-.1c-.4.1-.8.2-1.1.3h-1c-.2 0-.3-.1-.5-.1-.1 0-.1-.1-.2-.1h-.1l-.1-.1-.1-.1c0-.1-.1-.1-.1-.2 0 0 0-.1-.1-.1 0-.1-.1-.2-.1-.4v-.9c0-.1 0-.2.1-.3 0-.2.1-.3.2-.5 0-.1.1-.2.1-.2.1-.2.2-.4.3-.5v-.1c.1-.1.1-.2.2-.2l.3-.3c.2-.1.3-.2.4-.3.1 0 .1-.1.2-.1l.6-.3c.2-.1.3-.3.3-.5.2 0 .3.1.5.1.1 0 .1 0 .2.1 0 0 .1 0 .1.1.1.1.3.1.4.2h.1l.2.2.3.3c0 .1.1.2.1.2.1.1.2.3.2.4s.1.2.1.2c0 .2.1.3.1.4v.4c.1.4.1.5.1.6m15.1 113.8c-.4-1.1-1.5-1.7-2.7-1.6q-1.2.15-2.1.9c-.3 0-.6.2-.7.5 0 .1-.1.3-.1.5-.1.2-.2.4-.2.5-.1.3 0 .6.3.8.2.7.5 1.2 1.1 1.7.9.7 2.2.8 3.2.2.6-.4 1-.9 1.2-1.6.1-.5.2-1.2 0-1.9m-1.4.9v.3c0 .1-.1.3-.1.4v.1l-.1.1c0 .1-.1.2-.2.3l-.1.1h-.1s-.1 0-.1.1c0 0-.1 0-.2.1h-.5c-.1 0-.2 0-.3-.1l-.1-.1c-.1 0-.1-.1-.1-.1 0-.1-.2-.2-.2-.2v-.2l-.1-.1v-.1c0-.1-.1-.2-.1-.3v-.4s0-.1.1-.1v.1l.1-.1c.1-.1.1-.2.2-.2l.1-.1c.1-.1.2-.1.3-.2h.1c.1 0 .2-.1.3-.1h.9c.1 0 .1.1.2.1l.1.1s0 .1.1.1c0 .1.1.2.1.3v.2zm-6.6 93.4c-.4-.8-1-1.4-1.7-1.9-.8-.6-1.6-1.2-2.4-1.6-.8-.5-1.7-.9-2.5-1.1-.1 0-.3-.1-.5-.1-.5-.1-.9.3-1.2.7-.4.5-.6 1-.7 1.5-.7 1.5.4 3.3 1.5 4.4.7.7 1.6 1.4 2.5 1.8.8.4 1.8.7 2.8.5.9-.2 1.9-.8 2.3-1.6.4-1 .3-1.9-.1-2.6m-1.1 1.2v.3l-.1.1v.1s-.1.1-.1.2c-.1 0-.1.1-.2.2 0 0-.1 0-.1.1-.2.1-.3.2-.5.3s-.2.1-.4.1h-.7c-.2 0-.3-.1-.5-.1-.1 0-.2-.1-.3-.1h-.1c-.8-.4-1.4-.8-1.9-1.3-.2-.1-.3-.3-.5-.5-.1-.1-.2-.2-.2-.3l-.1-.1c-.1-.2-.2-.3-.3-.5-.1-.1-.1-.2-.2-.3 0 0-.1-.1-.1-.2-.1-.2-.1-.3-.1-.5v-.1c.1-.1.1-.2.1-.3v-.5c.2-.2.2-.4.2-.7.1-.1.2-.2.2-.3.1 0 .2 0 .2.1.1 0 .2.1.4.1.1 0 .1 0 .2.1 0 0 .1 0 .1.1.7.3 1.3.6 1.9 1 .3.2.7.4 1 .6.1.1.2.1.2.2l.1.1c.2.1.3.2.5.4.3.2.5.5.7.7 0 0 0 .1.1.1l.1.1c.1.1.2.3.2.4s0 .1.1.2c0 0 0 .1.1.2 0-.1 0 0 0 0m93.7 42.1c-.8-1.2-2.1-1.9-3.5-1.8-.5-.2-1-.3-1.5-.2-.7.2-1.1.7-1.3 1.4-.4 1.3.1 2.9 1.1 3.8.6.6 1.4.9 2.3 1 .8.1 1.8 0 2.5-.5.6-.4 1-1.1 1-1.8s-.2-1.3-.6-1.9m-.9 1.8v.3l-.1.1s-.1 0-.1.1l-.1.1h-.2c-.1 0-.2 0-.2.1h-1.1c-.1 0-.2 0-.3-.1-.1 0-.2 0-.2-.1h-.1c-.1-.1-.2-.1-.4-.2h-.1s-.1-.1-.1 0c0 0-.1 0-.1-.1l-.3-.3c0-.1-.1-.1-.1-.2s-.1-.2-.1-.3v-.2c0-.1 0-.1-.1-.2 0-.1-.1-.2-.1-.4v-.8c.2.2.5.3.7.2.1 0 .2-.1.4-.1h.1c.3.2.6.1.9-.1.1 0 .1 0 .2.1h.2c.1.1.1.1.1 0 .1.1.2.1.4.2.1 0 .1.1.2.1l.3.3.1.1c.1.1.2.2.2.3s.1.1.1.2.1.2.1.3v.1c-.2.4-.2.4-.2.5m120.5-6.8c-.4-2.1-2.7-3-4.6-3.2-1.6-.2-3.6.1-4.9 1.2-.7.5-1.4 1.3-1.3 2.2 0 .9.6 1.7 1.3 2.2 1.6 1.3 3.8 2 5.8 1.8 1-.1 2-.5 2.7-1.2.8-.8 1.2-2 1-3m-1.4.7s0 .1 0 0c0 .2 0 .3-.1.4-.1.3-.1.3-.2.5 0 .1-.1.2-.1.2l-.1.1-.2.2s-.1 0-.1.1l-.1.1c-.1.1-.3.2-.4.2h-.1c-.1 0-.2.1-.3.1s-.2 0-.3.1h-.9c-.5 0-.7 0-1.2-.1-.9-.2-1.6-.4-2.3-.9-.4-.3-.6-.4-.9-.7l-.2-.2v-.1c0-.1-.1-.1-.1-.2v-.2c.2-.1.3-.2.4-.4v-.1c0-.1.1-.1.1-.2v-.1l.2-.2.1-.1c.1 0 .1-.1.2-.1.2-.1.3-.2.5-.3 0 0 .1-.1.2-.1s.2-.1.3-.1c.2-.1.4-.1.6-.2.2 0 .2 0 .5-.1h.7c.5 0 .8 0 1.2.1.2 0 .4.1.6.1.1 0 .2.1.3.1l.2.1c.2.1.3.1.5.2.1 0 .2.1.2.1l.1.1c.1.1.3.2.4.4v.1c0 .1.1.2.1.2v.1c0 .1 0 .2.1.2v.1c.1.2.1.3.1.5m100-8.1c-.2-1.7-1.3-3.4-2.8-4.3-.7-.5-1.6-.7-2.5-.7-1 .1-2 .6-2.7 1.3-.8.7-1.5 1.8-1.5 2.9.1 1 .7 1.8 1.4 2.3.9.6 2 1 3 1.3.3.1.7.2 1 .2.1.4.5.6.9.5s.7-.2 1-.3h.1c.4 0 .6-.2.7-.5l.6-.6c.7-.5.9-1.3.8-2.1m-1.5.6c0 .2 0 .2-.1.3 0 .1-.1.2-.1.2s0 .1-.1.1c0 0-.1.1-.1.2l-.1.1-.2.2c-.1 0-.1 0-.1.1h-1.3c-.2 0-.5-.1-.7-.1-.4-.1-.9-.2-1.3-.4-.2-.1-.4-.1-.6-.2h-.1c-.1 0-.2-.1-.3-.1-.2-.1-.4-.2-.5-.3-.1 0-.1-.1-.2-.1l-.1-.1-.3-.3s0-.1-.1-.1c0-.1-.1-.2-.1-.2s0-.1-.1-.1 0-.1 0-.1v-.2c0-.1 0-.2.1-.2v-.1c.1-.2.2-.4.4-.6l.1-.1.3-.3.2-.2.1-.1c.2-.1.3-.2.5-.3h.1c.1 0 .2-.1.3-.1h.8c.1 0 .2 0 .2.1.1 0 .2 0 .2.1h.1c.2.1.3.1.5.2.1 0 .1.1.2.1 0 0 .1 0 .1.1.3.2.5.5.8.8.1.1.1.1.1.2.1.2.2.3.3.5 0 .1.1.2.1.3v.1c.1.2.1.3.2.5 0 .1.1.2.1.3v.1c.7-.7.7-.5.7-.3m50.1-24.4c-.8-1.5-2.7-2.2-4.3-2.4-1.5-.2-3.9.1-3.9 2.1 0 .3.2.5.4.6-.3.5-.5 1.1-.4 1.7.1.9.6 1.7 1.4 2.2 1.5 1 3.7 1.1 5.3.3 1.6-.7 2.5-2.9 1.5-4.5m-1.1 1.3v.5c0 .1 0 .2-.1.2 0 0 0 .1-.1.2 0 .1-.1.2-.1.3s-.1.1-.1.2l-.2.2-.1.1c-.1.1-.2.2-.4.2 0 0-.1 0-.1.1-.1 0-.2.1-.2.1-.2 0-.3.1-.5.1h-1.5c-.2 0-.3-.1-.5-.1-.1 0-.2-.1-.3-.1 0 0-.1 0-.2-.1-.2-.1-.3-.2-.5-.2l-.2-.1-.1-.1-.2-.2s0-.1-.1-.1c0 0 0-.1-.1-.1l-.1-.2v-.5c0-.1.1-.2.1-.3v-.1c.1-.1.1-.2.2-.3.2-.3.2-.4.5-.6.3-.4.2-.9-.1-1.1h1.7c.1 0 .2 0 .3.1.3.1.7.2 1 .3.1 0 .2.1.2.1.2.1.3.2.5.3.1 0 .1.1.2.1.1.1.2.2.4.3l.1.1.1.1c0 .1.1.1.1.2 0 0 0 .1.1.1 0 .1 0 .1.1.2.2 0 .2 0 .2.1M536 303.2c-1.5 1.2-3.3 2.1-4.2 4-1.2 2.5-1.6 5.6-2.1 8.3-1.4 8.2.3 17.6-4.2 25.1-2.1 3.5-5.4 6-8.8 8.1-3.6 2.3-7.5 4.1-11.3 6-.9.4-1.6-.9-.8-1.3 4.2-2.1 8.6-4.1 12.5-6.8 3.5-2.3 6.7-5.2 8.2-9.2 1.6-4.1 1.8-8.7 2.1-13 .2-4.4.5-8.7 1.5-13 .5-2 .9-4.3 2.1-6 1-1.3 2.5-2.2 3.7-3.2 1-.7 2 .4 1.3 1m25-17.8s0 .1 0 0m.7-2.1c-.8-.9-2.1-1.5-3.4-1.4-.7 0-1.3.3-1.9.7-.5.4-.8 1.1-1 1.8 0 .2-.1.5-.1.7 0 .1 0 .3.1.4 0 .2-.1.4-.1.6 0 1 .5 1.9 1.3 2.4.8.6 1.8.7 2.7.5 1-.3 1.8-1 2.4-1.8.4-.6.7-1.3.6-2 .1-.8-.2-1.4-.6-1.9m-.7 1.9v.4c0 .1 0 .1-.1.2v.3c0 .1-.1.1-.1.2s-.1.1-.1.2l-.4.4-.2.2c-.1 0-.1.1-.2.1-.1.1-.2.1-.2.1h-.2c-.1 0-.2.1-.2.1h-.7c-.1 0-.2 0-.3-.1h-.1c-.1 0-.2-.1-.2-.1l-.1-.1-.2-.2v-.1c-.1-.1-.1-.2-.2-.3v-.1c0-.1-.1-.2-.1-.2v-.7l.1-.2c.1-.2.2-.4.3-.5l.1-.1.2-.2c.1-.1.2-.2.4-.3.2-.2.3-.5.2-.8h.6c.1 0 .3 0 .4.1.1 0 .2.1.3.1s.1 0 .2.1.2.1.3.2c.1 0 .1.1.2.1.1.1.2.1.3.2l.1.1c.1.1.1.2.2.3v.1c-.4.2-.3.3-.3.5m-2.3-1.8" class="st2"/><path d="M576.4 295c1.2 25-15.1 46.9-31.7 63.8-8 8.2-15.8 17.6-26.7 21.7-13.3 5-27.9 7.8-40 15.5-4.9 3.2-9.7 6.6-15.3 8.5-5.5 1.8-11.4 2.5-17.2 2.6-6.1.1-12.2-.3-18.2-1.1-3.2-.4-6.4-.9-9.7-1-3.2-.1-6.5-.1-9.7-.6-7.2-1.1-13.5-4.2-20.9-3.6-6.7.5-13.1 2.6-19.9 2.3-3.6-.2-7.2-.8-10.8-.9-3.4-.1-6.8.1-10.2.3-6.4.3-12.8.4-19 2.2-6.6 1.9-12.8 5.1-19.5 7-6.2 1.7-12.5 1.7-17.8 5.6-4.3 3.1-7.8 7.3-12.4 10-5 2.9-10.8 4-16.5 4.5-12 1.1-25.9 2.2-37-3.2-5.9-2.9-11-7.2-17.2-9.7-6.7-2.7-13.8-4.7-20.9-5.9-7.6-1.2-15.1-.6-22.8-.1-6.4.4-12.9.4-19.4.1-6.6-.3-13.2-.9-19.7-2-6-1-12.1-2.1-17.4-5.1s-9.6-7.5-14.8-10.7c-3.1-1.9-6.3-3.6-9.4-5.4-2.8-1.6-5.3-3.6-8-5.2-5.8-3.4-12.1-5.9-18-9.2-4.1-2.3-8.2-4.5-12.3-6.8-1.6-.9-3.2-1.9-4.9-2.9-.1 0-.1-.1-.1-.1l-.1-.1c-.4-.6.2-1.5 1-1.1l.1.1c5.3 3.2 10.8 6.1 16.2 9.1 5.6 3.1 11.5 5.6 17.2 8.7 3.1 1.7 5.8 3.9 8.8 5.7 2.8 1.7 5.8 3.2 8.6 4.9 5.4 3.2 9.8 7.5 15.1 10.9s11.4 4.6 17.5 5.6c13.2 2.2 26.7 2.8 40.1 1.9 6.9-.5 13.8-1.1 20.7-.1s13.6 2.9 20.2 5.2c5.8 2 10.8 5.3 16.1 8.5 6.3 3.8 12.7 5.6 20 6 6.2.3 12.6 0 18.8-.4 6.4-.5 13-1.5 18.4-5 4.3-2.8 7.7-6.8 11.9-9.8 5.1-3.5 10.9-3.6 16.7-5.1 6.5-1.7 12.5-4.6 18.8-6.7 5.5-1.8 11.2-2.4 17-2.6 6.8-.3 13.6-.8 20.4-.1 3.5.4 6.8.7 10.3.3 3.3-.3 6.6-1 9.9-1.6 6.3-1 12.2-.5 18.3 1.2 3.8 1.1 7.5 2.1 11.5 2.3 3.3.2 6.7.1 10.1.5 11.9 1.4 24 3 35.9.2 6.1-1.4 11.2-4.5 16.4-7.9 5.4-3.6 10.9-6.4 17.1-8.5 6.7-2.3 13.5-4.5 20.2-6.8 6.4-2.2 11.9-4.5 16.9-9 4.4-3.9 8.5-8.3 12.6-12.4 4.4-4.4 8.6-9 12.5-13.8 8-9.8 15-21 18.4-33.3 1.7-6 2.4-12.2 2-18.4-.5-7.3-2.3-14.5-3.6-21.7-1.2-6.5-2.1-13-1.1-19.6 1-6.8 3.3-13.4 5-20.1 1.7-6.8 2.8-14.5.5-21.3-1.1-3.2-3-6-4.4-9-1.2-2.5-2.1-5.2-2.9-7.9-3.4-12.1-3.8-24.6-3.2-37 .4-7.5.5-14.8-.9-22.1-.7-3.3-1.5-6.6-1.9-10-.3-3.4-.3-6.9-1.1-10.2-.1-.3 0-.6.2-.7.4-.3 1.1-.3 1.2.3.2.6.3 1.2.4 1.9.4 2.4.5 4.9.7 7.4.2 3.4 1 6.7 1.7 10 2.8 14.1-.1 28.3 1.2 42.5.6 6.4 1.6 12.8 3.4 18.9 1.7 5.8 5.5 10.7 7.2 16.5 4.1 13.6-3.5 27.2-5.6 40.4-2 14.4 4.3 28.4 5 42.7" class="st3"/><path d="M517.4 262.8c-1.4 4.5-1.6 9.3-3.9 13.5-2.5 4.6-5 9.1-7.2 13.9-6.1 13.7-10.4 30.7-25.5 37.1-9.3 4-19.4 5-29.4 5.5-10.7.5-21.4.6-32.1 1.1-11 .5-21.9 2.3-32.8 3.8-5.3.8-10.6 1.5-15.8 2.9-5.1 1.4-9.9 3.7-14.9 5.3-9.9 3.2-20.6 3-31 2.8-10.8-.2-21.6-1.4-32.5-1.8-5.4-.2-10.8-.2-16.2.2-5.5.4-11 1.3-16.5 2-11.1 1.4-22 3-32.8 6-10.4 2.8-20.9 4.9-31.3 7.7-5.2 1.4-10.4 3.1-15.7 4.2-4.7 1-9.6 1.5-14.4 1.8-15.8 1-33 1.6-48-4.1q-2.4-.9-4.8-2.1c-.7-.3-.4-1.1.2-1.3q.3-.15.6 0c3.8 1.9 7.9 3.2 12 4.1 8.9 2 18.1 2.6 27.2 2.4 9.9-.2 20.1-.5 29.8-3.1 10.3-2.7 20.6-5.5 31-7.8 10.1-2.2 20-5.6 30.3-7.2 10.5-1.6 21.2-3.3 31.8-4.1 10.9-.9 21.7 0 32.6.7 10.4.7 20.9 1.3 31.4.8 5.3-.2 10.7-.9 15.8-2.5 4.9-1.5 9.6-3.8 14.6-5.2 10-2.9 20.7-3.6 31-5 5.2-.7 10.3-1.5 15.6-1.8s10.6-.5 16-.6c10.2-.2 20.7-.3 30.9-1.6 9.1-1.2 19.3-3.5 25.9-10.3 5.5-5.6 8.7-13.1 11.6-20.2 1.5-3.7 3.1-7.4 4.7-11.1 2.1-4.6 4.5-8.8 6.9-13.2s2.6-9.8 4.2-14.5c1.5-4.6 1.9-9.4 1.9-14.2 0-4.9-.5-9.7-.8-14.5-.3-5-.3-9.9-.1-14.9.2-5.1-.1-10-.9-15.1s.1-10.3-.3-15.4c-.7-10.4-1.7-21-3.9-31.2-2.2-10.1-5.2-20.3-9.8-29.5-1-2-2-4.1-2.7-6.2-.7-2.3-1-4.7-1.6-7.1-1.1-4.6-2.4-9.1-2.9-13.8 0-.1-.1-.1-.1-.2v-.2c0-.2-.1-.3-.1-.4-.1-.7.1-1.1.6-1.4.1-.1.3-.1.5-.2.8-.2 1.2.8.7 1.3-.1.1-.1.1-.2.1.1.7.1 1.3.2 2 .7 4.7 2.1 9.3 3.1 13.9.5 2.5.9 4.9 1.8 7.2.9 2.5 2.2 4.7 3.4 7.1 2.2 4.5 3.6 9.2 5 14 2.9 10 5 19.9 6.1 30.3.6 5.3 1.3 10.6 1.4 15.9.1 2.6-.1 5.3-.2 7.9 0 2.9.4 5.7.8 8.6.7 4.9.6 9.8.3 14.7-.2 5 0 9.8.3 14.8.6 9.6 1.2 18.9-1.8 28.2" class="st0"/><path d="M518.3 246.9c0 4.8-.4 9.6-1.9 14.2-1.6 4.7-1.8 10.1-4.2 14.5s-4.8 8.6-6.9 13.2c-1.6 3.7-3.2 7.4-4.7 11.1-2.9 7.2-6.1 14.6-11.6 20.2-6.7 6.8-16.8 9.1-25.9 10.3-10.2 1.3-20.6 1.3-30.9 1.6-5.3.1-10.7.2-16 .6-5.2.3-10.4 1.1-15.6 1.8-10.3 1.4-20.9 2.2-31 5-5 1.4-9.7 3.6-14.6 5.2-5.1 1.6-10.5 2.3-15.8 2.5-10.4.5-20.9-.1-31.4-.8-10.8-.7-21.7-1.5-32.6-.7-10.6.8-21.3 2.5-31.8 4.1-10.3 1.6-20.1 5-30.3 7.2-10.5 2.3-20.7 5.1-31 7.8-9.6 2.5-19.8 2.8-29.8 3.1-9.1.2-18.3-.3-27.2-2.4-4.1-1-8.2-2.3-12-4.1q-.3-.15-.6 0c-6.2-5-11.8-11.2-16.2-17.6-6.2-8.9-10.9-19.6-10.5-30.7.2-5.1 1.4-10.5 4.5-14.8 2.8-3.8 6.8-6.7 10.9-9 9.9-5.6 21.1-8.3 31.4-12.8 4.9-2.2 9.7-4.5 14.7-6.6 2.7-1.1 7-2.5 8.8-5.2.2-.1.3-.3.3-.5.1-.1.1-.3.2-.4.2-.4.1-.8-.3-1-.4-2.7-2.4-4.5-5.3-5-3.8-.7-7.9-.4-11.7-.5-5.8-.2-11.6-.6-17.3-1.8-5.8-1.2-11.2-3.6-16.5-6-6-2.7-11.9-5.5-18-8-4-3.8-7.5-8.1-10.1-13-3.7-7-5.7-15.4-7.3-23.1-1.7-8.4-2.7-17.3-.8-25.7.9-4.1 2.7-8 4.5-11.8s3.7-7.6 5.8-11.3c4.2-7.5 9.1-14.7 14.8-21.3 5.8-6.8 12.6-12.5 18.6-19.1 2.8-3.1 5.1-6.6 8.6-8.9 3-2 6.4-3 9.8-3.9 17-4.2 34.5-9.7 52.1-9.1 9.3.3 18.6 1.5 28 1.9 9.5.4 19.1.5 28.6.1 9.1-.3 18.2-1.1 27.3-2.5s17.9-3.8 26.9-5.6c9.1-1.8 18.3-2.8 27.4-4.4 9.2-1.5 18-4.2 27-6.7q13.5-3.75 27.3-6.3c8.6-1.6 17.2-2.9 26-2.9 8.2.1 16.6 1.1 24.4 4 7.3 2.7 13 8.2 20.1 11.3 7.2 3.1 14.4 1.5 21.9 1.7 4.8.1 8.7 2 12.9 4.2 3.6 1.9 7.1 4 10.3 6.5 1.2.9 2.3 1.9 3.4 2.9 0 .1 0 .3.1.4v.2c0 .1.1.2.1.2.5 4.7 1.8 9.2 2.9 13.8.6 2.4.9 4.8 1.6 7.1.7 2.1 1.6 4.2 2.7 6.2 4.7 9.2 7.7 19.4 9.8 29.5 2.2 10.2 3.2 20.8 3.9 31.2.3 5.1-.5 10.3.3 15.4s1.1 10 .9 15.1c-.2 5-.2 9.9.1 14.9.4 4.8.8 9.7.9 14.5" class="st0"/><path d="M575.1 232.8c1.7-6.8 2.8-14.5.5-21.3-1.1-3.2-3-6-4.4-9-1.2-2.5-2.1-5.2-2.9-7.9-3.4-12.1-3.8-24.6-3.2-37 .4-7.5.5-14.8-.9-22.1-.7-3.3-1.5-6.6-1.9-10-.3-3.4-.3-6.9-1.1-10.2-.1-.3 0-.6.2-.7-.6-.9-1.3-1.7-2-2.5-4.3-5.1-10.3-8-15.2-12.5-4.5-4.1-6.5-9.9-10-14.7-3.7-5.2-9.6-8.6-15.1-11.7-5.7-3.1-11.7-5.8-17.6-8.4-5.7-2.5-11.5-5.1-17.4-7.1-6.9-2.3-14-4.2-21-6.4-6.3-2.1-12.8-4.4-18.3-8.2-5.6-3.9-10-9-15.4-13.1-6-4.5-12.9-7.6-19.3-11.3-5.9-3.4-11.2-7.6-17.2-10.8-4.8-2.9-10-4.8-15.6-4.9-6.5-.2-12.8 1.5-18.9 3.5-6 2-12 4.1-18.3 5-6.7.9-12.2-.8-18.3-3.2-7.3-2.9-14.9-2.9-22.7-3.2-7.8-.4-15.5-.8-23.2-1.5C269.4 3 262.6 1 256.1 2c-3.1.5-6.2 1.3-9.1 2.5-2.6 1-4.7 1.6-7.5 1.5-5.8.4-11.2 3.9-15.9 7-4.9 3.2-9.5 6.6-14.4 9.8-6.2 4.1-12.4 8.4-18.9 12.2-6.6 3.8-13.6 6.9-20.4 10.3-6.9 3.5-13.9 7.3-21.2 9.9-7 2.5-14.5 3-21.8 3.8-12.6 1.3-26.3 3.4-36.4 11.7-10.9 9-16 22.4-24 33.7-4.3 6-9.4 11.4-14.1 17-5.1 6-9.6 12.3-14.1 18.8-3.8 5.6-8.3 10.8-11.9 16.5-4 6.4-5.8 13.1-7.2 20.5-2.7 14.5-3.3 29.4-6.4 43.9-1.5 7.3-4.2 13.9-6.7 20.9-2.3 6.3-3.6 12.9-4.2 19.5-2.5 27.1 6.2 54.1 19.2 77.6 5.2 9.4 11.6 18.1 18.9 25.9 5.3 3.2 10.8 6.1 16.2 9.1 5.6 3.1 11.5 5.6 17.2 8.7 3.1 1.7 5.8 3.9 8.8 5.7 2.8 1.7 5.8 3.2 8.6 4.9 5.4 3.2 9.8 7.5 15.1 10.9s11.4 4.6 17.5 5.6c13.2 2.2 26.7 2.8 40.1 1.9 6.9-.5 13.8-1.1 20.7-.1s13.6 2.9 20.2 5.2c5.8 2 10.8 5.3 16.1 8.5 6.3 3.8 12.7 5.6 20 6 6.2.3 12.6 0 18.8-.4 6.4-.5 13-1.5 18.4-5 4.3-2.8 7.7-6.8 11.9-9.8 5.1-3.5 10.9-3.6 16.7-5.1 6.5-1.7 12.5-4.6 18.8-6.7 5.5-1.8 11.2-2.4 17-2.6 6.8-.3 13.6-.8 20.4-.1 3.5.4 6.8.7 10.3.3 3.3-.3 6.6-1 9.9-1.6 6.3-1 12.2-.5 18.3 1.2 3.8 1.1 7.5 2.1 11.5 2.3 3.3.2 6.7.1 10.1.5 11.9 1.4 24 3 35.9.2 6.1-1.4 11.2-4.5 16.4-7.9 5.4-3.6 10.9-6.4 17.1-8.5 6.7-2.3 13.5-4.5 20.2-6.8 6.4-2.2 11.9-4.5 16.9-9 4.4-3.9 8.5-8.3 12.6-12.4 4.4-4.4 8.6-9 12.5-13.8 8-9.8 15-21 18.4-33.3 1.7-6 2.4-12.2 2-18.4-.5-7.3-2.3-14.5-3.6-21.7-1.2-6.5-2.1-13-1.1-19.6 1.2-7.2 3.5-13.8 5.2-20.4m-16.5 6.5c1.3.1 2.5.7 3.3 1.7.7.9.9 2.1.8 3.2-.1 2.7-1.4 5.3-3 7.4-1.1 1.4-2.8 3.2-4.7 3.2-.2.2-.4.3-.8.2-4.5-1.5-4.6-7-3.5-10.9.4-1.6 1.3-3.1 2.7-4 1.5-.8 3.5-1 5.2-.8m-3.2 45.7c0-.2 0-.5.1-.7.1-.7.4-1.3 1-1.8.5-.4 1.2-.7 1.9-.7 1.2-.1 2.6.5 3.4 1.4.5.5.8 1.1.8 1.8.1.7-.2 1.4-.6 2-.6.8-1.4 1.5-2.4 1.8-.9.2-1.9.1-2.7-.5s-1.3-1.4-1.3-2.4c0-.2 0-.4.1-.6-.3 0-.3-.2-.3-.3M479.8 64.2c3.7-.5 7.4-.7 11 .1 6.4 1.4 10.9 5.9 15.2 10.4 2 2.1 4.1 4.3 6.5 5.9 2.7 1.8 5.7 2.6 8.9 2.7 1 0 1 1.5 0 1.5-3.4 0-6.6-1-9.5-2.8-5-3.2-8.3-8.2-12.9-11.9-2.7-2.2-5.8-3.8-9.2-4.4-3.3-.6-6.8-.3-10.1.1-.9.1-.9-1.4.1-1.6m-60.2-23.6c.2 0 .4 0 .5.1 1.2-.7 2.6-1 4.1-.7 1.7.3 3.1 1.4 4.1 2.7 2 2.5 2.6 6.2.8 9.1-1.1 1.8-2.8 2.9-4.7 3.6-2 .8-4.2 1.1-6.3.6-3.4-.9-5.6-4.1-5.5-7.5.2-4.1 3.3-7 7-7.9m-79-12.8c.4-.4.9-.2 1.1.2 1-.5 2.1-.6 3.1-.5 1.6.2 3.6.9 4 2.6.4 1.9-1.1 3.7-3 4-1.8.3-3.9-.4-5.2-1.7-.6-.6-1.1-1.3-1.2-2.2q.15-1.5 1.2-2.4m-68.5 21.8c3.1-4.6 7.9-7.2 13.3-7.9 4.9-.6 9.9.1 14.7 1.2 6 1.4 12 3.3 18 5.1 3.4 1 6.8 2.3 10.3 2.8 3.3.6 6.6.5 9.9.2 6.8-.6 13.3-2.9 19.5-5.5.9-.4 1.3 1.1.4 1.5-6.9 2.8-13.8 5.1-21.3 5.6-3 .2-6 .1-9-.4-3.4-.6-6.6-1.8-9.9-2.7-5.9-1.7-11.8-3.6-17.8-5.1-9.3-2.2-20.9-3-27 5.9-.3.9-1.6.1-1.1-.7m-17.9 19c.9-1.9 2.5-3.4 4.5-4.2 1.8-.6 4-.5 5.3 1 .8.8 1.1 1.9 1.2 2.9.1 1.3 0 2.7-.6 3.8-1.1 2.1-3.6 2.4-5.7 1.8-1.9-.5-3.8-1.7-5-3.4-.1-.1-.2-.2-.3-.4-.1-.1-.2-.3-.2-.5-.2-.5.3-1 .8-1m-56.6-11.5c1.7-2.1 4.2-3.6 6.7-4.5 2.3-.8 4.8-1 7.1-.3 3.1 1 5.1 3.6 5.4 6.9s-1.2 6.6-3.6 8.8c-3.3 3-8.5 4-12.2 1.2-3.1-2.3-5.7-7.4-3.4-11-.2-.2-.3-.7 0-1.1m-73.4 20.7c1.9-2.2 5.2-3.1 7.8-1.8 1 .5 1.7 1.3 2.1 2.3.3 1 .2 2-.1 3-.7 2-2.1 3.8-4 4.9-.8.5-1.8.8-2.7.6-.6-.1-1-.4-1.4-.7 0 0-.1 0-.1-.1-1.5-.9-2.7-2.3-2.9-4.1-.2-1.5.4-3 1.3-4.1m-20 13.8c.3-.5.9-.6 1.4-.5.9.2 1.8 1.1 2.2 1.9.4.7.5 1.6.5 2.4.1.8.1 1.8-.3 2.6-.2.4-.5.7-.8.9-.2.2-.5.4-.8.6-.6.3-1.3.2-1.8-.2-.4-.4-.6-1-.7-1.5-.1-.7-.2-1.3-.2-2 0-.8.1-1.7.3-2.5-.1-.7-.1-1.3.2-1.7m-46.6 50.6c.2-1.2 1-2.4 1.9-3.1.2-.4.4-.7.6-1.1.1-.2.4-.4.6-.4 1.9-.2 3.9.8 4.7 2.6.7 1.5.5 3.3-.7 4.6-.6.7-1.5 1.1-2.4 1.3s-2 .3-2.9-.1c-1.5-.5-2.1-2.2-1.8-3.8M40.1 213c.6-1 1.4-1.6 2.4-2.1.1-.1.2-.3.4-.3 2.2-.8 4.6-1.2 6.8-.5s4.1 2.4 5 4.5c.7 1.7.8 3.7-.1 5.4-.7 1.5-2.1 2.6-3.6 3.2-2.4 1-5.2.4-7.4-1-2-1.3-3.7-3.4-4.1-5.8-.1-1.2 0-2.4.6-3.4m12 103.3c-.6.8-1.5 1.4-2.5 1.6-2.6.6-5.2-.9-7.3-2.3-.1-.1-.2-.2-.3-.4-.6-.3-1.2-.8-1.3-1.5-.2-.9.4-1.8 1-2.3 3.1-2.7 9.2-2.5 10.7 1.9.4 1 .3 2.1-.3 3m19.4 36.6c-.5.8-1.4 1.4-2.3 1.6s-1.9-.1-2.8-.5-1.8-1.1-2.5-1.8c-1.1-1.1-2.2-2.9-1.5-4.4.1-.5.4-1 .7-1.5.3-.4.7-.8 1.2-.7.2 0 .3.1.5.1.9.3 1.7.7 2.5 1.1.9.5 1.7 1 2.4 1.6.6.5 1.3 1.2 1.7 1.9.5.9.6 1.8.1 2.6m-4.6-76.1c-.2 0-.5-.1-.7-.1-3.5.2-6.9.5-10.3 1.2-5.8 1.1-12.5 3-16.5 7.7-.6.7-1.7-.3-1.1-1.1 2.2-2.6 5.3-4.3 8.5-5.6 4.4-1.8 9.2-2.7 14-3.3-4.3-1.1-8.5-2.9-12-5.6-.8-.6 0-1.9.8-1.3 4.6 3.5 10.6 5.7 16.4 6.5h.8c4-.2 8-.2 12-.3 3.2 0 6.7-.1 9.8 1.1.9.3.5 1.7-.4 1.4-7-2.1-14.3.3-21.3-.6m6.8-19.7c.1-.2.1-.4.2-.5 0-.1.1-.3.1-.5.1-.3.4-.5.7-.5q.9-.75 2.1-.9c1.2-.1 2.3.5 2.7 1.6.2.6.2 1.3 0 1.9-.2.7-.6 1.2-1.2 1.6-.9.6-2.3.5-3.2-.2-.6-.4-1-1-1.1-1.7-.2-.2-.4-.5-.3-.8m90 140.4c-.7.5-1.7.6-2.5.5-.9-.1-1.7-.4-2.3-1-1-.9-1.5-2.5-1.1-3.8.2-.6.6-1.2 1.3-1.4.5-.1 1.1 0 1.5.2 1.4-.1 2.7.6 3.5 1.8.4.5.6 1.2.6 1.9s-.4 1.4-1 1.8m95.1 13.5c-1.7 1-2.3 2.9-3.9 4-1.5 1-3.4 1.3-5.1 1.5-1.5.2-3 .4-4.4.1-1.7-.3-3.3-1.1-4.8-2-3.2-1.9-6-4.5-9.4-6-8.5-3.5-17.9-7.2-27.1-4.2-.9.3-1.3-1.2-.4-1.5 4.8-1.5 9.8-1.4 14.6-.3 4.4 1 8.7 2.7 12.9 4.4 3.4 1.4 6.2 3.7 9.2 5.7 1.5 1 3.1 1.9 4.9 2.4 1.6.4 3.3.1 5-.2 1.6-.3 3.5-.6 4.7-1.9 1.1-1.1 1.7-2.5 3.2-3.3.7-.5 1.5.8.6 1.3m-36.6-32.4c.6-1.7 2-2.8 3.7-3.4 2.5-.8 5.7-.3 6.9 2.2.9 1.9.1 3.9-1.3 5.3-1.9 2-6 3.9-8.4 2.2-.4.1-1-.1-1-.7v-.6c-.1-.2-.2-.4-.2-.5-.1-.2 0-.5.1-.7-.3-1.2-.3-2.5.2-3.8m60.6 13.2c-.7.8-1.7 1.1-2.7 1.2-2 .2-4.3-.5-5.8-1.8-.7-.5-1.2-1.3-1.3-2.2-.1-1 .6-1.7 1.3-2.2 1.2-1.1 3.3-1.4 4.9-1.2 1.9.2 4.2 1.1 4.6 3.2.1 1-.3 2.2-1 3m51.9-5.9c-2 .3-4.1.6-6 .4-1.7-.2-3.4-.5-5.1-1-1.4-.4-3.2-.8-4.2-1.9-.7-.7-.6-1.5-.2-2.1 1.1-2.3 3.6-4.1 5.6-5.7 2.2-1.7 4.5-3.2 7.3-4 4.4-1.1 11-.9 12 4.6 1 5.9-4.7 9-9.4 9.7m47-2.3c-.2.2-.4.5-.6.6-.1.3-.3.5-.7.5h-.1c-.3.1-.7.2-1 .3-.4.1-.8-.1-.9-.5-.3-.1-.7-.1-1-.2-1.1-.3-2.1-.7-3-1.3-.8-.6-1.4-1.4-1.4-2.3-.1-1.1.7-2.2 1.5-2.9.7-.7 1.7-1.2 2.7-1.3.9-.1 1.8.2 2.5.7 1.5.9 2.6 2.5 2.8 4.3-.1.7-.3 1.5-.8 2.1m47.6-21.4c-1.6.8-3.8.7-5.3-.3-.8-.5-1.3-1.2-1.4-2.2-.1-.6.1-1.2.4-1.7-.2-.1-.4-.3-.4-.6 0-2 2.4-2.3 3.9-2.1 1.6.2 3.5.9 4.3 2.4 1.1 1.5.2 3.7-1.5 4.5m36.8 12.6c-.7 3.9-4.6 6.7-8.1 7.7-1.9.5-4 .7-5.8 0-1.5-.5-2.7-1.7-3.6-3-1.6-2.2-2.5-5.6-.4-7.5 0-.1.2-.2.3-.3 1-.5 1.6-1.4 2.3-2.3.8-1 1.7-1.7 2.8-2.3 2.4-1.2 4.9-1.9 7.5-.8 3.3 1.4 5.6 4.8 5 8.5m18.5-37.9c-6.4 2.1-13.4 2.3-20.1 2-6.9-.3-13.8-1.1-20.7-1.5-8.7-.4-17.4.8-25.8 2.6-9.1 2-18 4.8-27.1 7.2-9.5 2.5-19.2 4.3-28.9 5.8s-19.3 3.2-29.1 2.8c-4.7-.2-9.5-.6-14.2-.2-4.8.5-9.5 1.4-14.2 1.2 0 .4-.3.7-.7.6-15.3-1.5-30.7-1.9-46-.9-15.6 1-30.9 3.8-46.1 7.5-12.7 3.1-25.3 6.6-38.2 9-10.9 2.1-22.2 3.3-33.3 1.7-10.8-1.5-20.5-5.8-28.9-12.8-8.4-7.1-15.9-15.7-21-25.6-4.8-9.3-7.3-20.1-4.8-30.5 2.2-9.1 9.2-15 17.3-19.1 9.4-4.8 19.7-7.4 29.3-11.7 4.3-1.9 8.5-4.1 13-5.9 2.9-1.1 8.2-2.7 10.1-5.5v-.1c-6.6-3.8-14.5 1.5-21.6 1.1-15.8-1.1-30.1-8.5-42.3-18.3-5.9-4.7-11.2-10.3-14.9-17-3.7-6.9-5.7-15-7.4-22.6-1.7-7.9-2.7-16.1-1.6-24.1 1.1-8.2 5.2-16 9-23.3 4-7.7 8.7-15 14.1-21.7 5.6-7.1 12.2-13.1 18.5-19.5 3.1-3.2 5.6-6.9 8.8-9.9 2.4-2.3 5.2-3.9 8.3-5 3.4-1.2 7-1.9 10.5-2.8 4.5-1.1 9-2.3 13.5-3.4 8.9-2.1 17.9-4 27.1-4.4 9.5-.5 19 1 28.5 1.6 19.6 1.1 39.4 1 58.9-1.7 9.6-1.3 18.8-3.8 28.2-5.7 9.3-1.9 18.8-3 28.2-4.5s18.3-4.3 27.4-6.8c9.4-2.6 19-4.8 28.6-6.5 16.3-2.9 33.6-4.6 49.5 1.2 3.5 1.3 6.9 3 10 5.1 3.2 2.1 6.3 4.5 9.8 6.1 4.1 1.9 8.5 2.5 13 2.3 3.9-.1 7.8-.7 11.8-.2s7.4 2.3 10.9 4.2c3.6 2 7.1 4.1 10.4 6.6 1.1.9 2.2 1.8 3.2 2.7.1-.1.3-.1.5-.2.8-.2 1.2.8.7 1.3 4.5 4.5 8.1 9.7 11.4 15.2 4.5 7.5 8.7 15.2 10.9 23.8 2.1 8.4 2.7 17.1 3.6 25.7.9 9.4 3.1 18.6 3.3 28 .2 9.8-.8 19.6-.9 29.4-.1 5 .1 10 .9 15 .6 4.1 1.5 8.1 1.8 12.3.8 9.1-1.1 18.5-3.9 27.1-2.9 9-7.2 17.3-11.3 25.8-4 8.2-7.4 16.8-12.6 24.3-3.9 5.7-8.7 10-15.4 12.2m51.4-33.7c-1.5 1.2-3.3 2.1-4.2 4-1.2 2.5-1.6 5.6-2.1 8.3-1.4 8.2.3 17.6-4.2 25.1-2.1 3.5-5.4 6-8.8 8.1-3.6 2.3-7.5 4.1-11.3 6-.9.4-1.6-.9-.8-1.3 4.2-2.1 8.6-4.1 12.5-6.8 3.5-2.3 6.7-5.2 8.2-9.2 1.6-4.1 1.8-8.7 2.1-13 .2-4.4.5-8.7 1.5-13 .5-2 .9-4.3 2.1-6 1-1.3 2.5-2.2 3.7-3.2 1-.7 2 .4 1.3 1m4.1-178.3c-1-.5-1.7-1.3-1.9-2.4-.5-2 .4-4.9 2.9-4.9.2 0 .4.1.5.2 1.6-.2 3.3.2 4.7 1.1 1.4.8 2.9 2.4 2.4 4.2-.2.9-1 1.6-1.9 2-1 .5-2.1.7-3.3.7-1.1-.2-2.3-.4-3.4-.9m6.3 22.8c.1-1 1.6-1 1.5 0-.4 5.1.8 10 2.2 14.8 2.4 8.4 4.3 16.9 4.6 25.7.1 4.4-.3 8.7-1.2 13-.9 4.5-2.1 8.9-2.5 13.4-.1 1-1.6 1-1.5 0 .5-5 1.8-9.8 2.8-14.7 1.8-8.9.9-18.1-.9-26.9-1.9-8.4-5.8-16.6-5-25.3m15.8 169.2c-2.4.9-5.2 1-7.7.6-1.7-.3-3.8-1-4.8-2.4-.5.1-1.1-.3-.9-.9 1.1-3.5 5.1-5.2 8.5-5.4 2.8-.2 6.4.8 7.7 3.6.9 2.1-.9 3.7-2.8 4.5" class="st3"/><path d="M78.1 257.1v.3c0 .1-.1.3-.1.4v.1l-.1.1c0 .1-.1.2-.2.3l-.1.1h-.1s-.1 0-.1.1c0 0-.1 0-.2.1h-.5c-.1 0-.2 0-.3-.1l-.1-.1c-.1 0-.1-.1-.1-.1 0-.1-.2-.2-.2-.2v-.2l-.1-.1v-.1c0-.1-.1-.2-.1-.3v-.4l.1-.1c.1-.1.1-.2.2-.2l.1-.1c.1-.1.2-.1.3-.2h.1c.1 0 .2-.1.3-.1h.9c.1 0 .1.1.2.1l.1.1s0 .1.1.1c0 .1.1.2.1.3v.2zm-7.7 94.6v.3l-.1.1v.1s-.1.1-.1.2c-.1 0-.1.1-.2.2 0 0-.1 0-.1.1-.2.1-.3.2-.5.3s-.2.1-.4.1h-.7c-.2 0-.3-.1-.5-.1-.1 0-.2-.1-.3-.1h-.1c-.8-.4-1.4-.8-1.9-1.3-.2-.1-.3-.3-.5-.5-.1-.1-.2-.2-.2-.3l-.1-.1c-.1-.2-.2-.3-.3-.5-.1-.1-.1-.2-.2-.3 0 0-.1-.1-.1-.2-.1-.2-.1-.3-.1-.5v-.1c.1-.1.1-.2.1-.3v-.5c.2-.2.2-.4.2-.7.1-.1.2-.2.2-.3.1 0 .2 0 .2.1.1 0 .2.1.4.1.1 0 .1 0 .2.1 0 0 .1 0 .1.1.7.3 1.3.6 1.9 1 .3.2.7.4 1 .6.1.1.2.1.2.2l.1.1c.2.1.3.2.5.4.3.2.5.5.7.7 0 0 0 .1.1.1l.1.1c.1.1.2.3.2.4s0 .1.1.2c0 0 0 .1.1.2 0-.1 0 0 0 0m92.8 43.8v.3l-.1.1s-.1 0-.1.1l-.1.1h-.2c-.1 0-.2 0-.2.1h-1.1c-.1 0-.2 0-.3-.1-.1 0-.2 0-.2-.1h-.1c-.1-.1-.2-.1-.4-.2h-.1s-.1-.1-.1 0c0 0-.1 0-.1-.1l-.3-.3c0-.1-.1-.1-.1-.2s-.1-.2-.1-.3v-.2c0-.1 0-.1-.1-.2 0-.1-.1-.2-.1-.4v-.8c.2.2.5.3.7.2.1 0 .2-.1.4-.1h.1c.3.2.6.1.9-.1.1 0 .1 0 .2.1h.2c.1.1.1.1.1 0 .1.1.2.1.4.2.1 0 .1.1.2.1l.3.3.1.1c.1.1.2.2.2.3s.1.1.1.2c-.2.6-.1.7-.1.9 0-.1 0 0 0 0m119.1-6.1q0 .15 0 0v.1c0 .1 0 .2-.1.3-.1.3-.1.3-.2.5 0 .1-.1.2-.1.2l-.1.1-.2.2s-.1 0-.1.1l-.1.1c-.1.1-.3.2-.4.2h-.1c-.1 0-.2.1-.3.1s-.2 0-.3.1h-.9c-.5 0-.7 0-1.2-.1-.9-.2-1.6-.4-2.3-.9-.4-.3-.6-.4-.9-.7l-.2-.2v-.1c0-.1-.1-.1-.1-.2v-.2c.2-.1.3-.2.4-.4v-.1c0-.1.1-.1.1-.2v-.1l.2-.2.1-.1c.1 0 .1-.1.2-.1.2-.1.3-.2.5-.3 0 0 .1-.1.2-.1s.2-.1.3-.1c.2-.1.4-.1.6-.2.2 0 .2 0 .5-.1h.7c.5 0 .8 0 1.2.1.2 0 .4.1.6.1.1 0 .2.1.3.1l.2.1c.2.1.3.1.5.2.1 0 .2.1.2.1l.1.1c.1.1.3.2.4.4v.1c0 .1.1.2.1.2v.1c0 .1 0 .2.1.2v.1c.1.3.1.4.1.5m147.5-30.5v.5c0 .1 0 .2-.1.2 0 0 0 .1-.1.2 0 .1-.1.2-.1.3s-.1.1-.1.2l-.2.2-.1.1c-.1.1-.2.2-.4.2 0 0-.1 0-.1.1-.1 0-.2.1-.2.1-.2 0-.3.1-.5.1h-1.5c-.2 0-.3-.1-.5-.1-.1 0-.2-.1-.3-.1 0 0-.1 0-.2-.1-.2-.1-.3-.2-.5-.2l-.2-.1-.1-.1-.2-.2s0-.1-.1-.1c0 0 0-.1-.1-.1l-.1-.2v-.5c0-.1.1-.2.1-.3v-.1c.1-.1.1-.2.2-.3.2-.3.2-.4.5-.6.3-.4.2-.9-.1-1.1h1.7c.1 0 .2 0 .3.1.3.1.7.2 1 .3.1 0 .2.1.2.1.2.1.3.2.5.3.1 0 .1.1.2.1.1.1.2.2.4.3l.1.1.1.1c0 .1.1.1.1.2 0 0 0 .1.1.1 0 .1 0 .1.1.2.2 0 .2 0 .2.1m-49 23.1v.1c0 .1 0 .2-.1.2 0 .1-.1.2-.1.2s0 .1-.1.1c0 0-.1.1-.1.2l-.1.1-.2.2c-.1 0-.1 0-.1.1h-1.3c-.2 0-.5-.1-.7-.1-.4-.1-.9-.2-1.3-.4-.2-.1-.4-.1-.6-.2h-.1c-.1 0-.2-.1-.3-.1-.2-.1-.4-.2-.5-.3-.1 0-.1-.1-.2-.1l-.1-.1-.3-.3s0-.1-.1-.1c0-.1-.1-.2-.1-.2s0-.1-.1-.1 0-.1 0-.1v-.2c0-.1 0-.2.1-.2v-.1c.1-.2.2-.4.4-.6l.1-.1.3-.3.2-.2.1-.1c.2-.1.3-.2.5-.3h.1c.1 0 .2-.1.3-.1h.8c.1 0 .2 0 .2.1.1 0 .2 0 .2.1h.1c.2.1.3.1.5.2.1 0 .1.1.2.1 0 0 .1 0 .1.1.3.2.5.5.8.8.1.1.1.1.1.2.1.2.2.3.3.5 0 .1.1.2.1.3v.1c.1.2.1.3.2.5 0 .1.1.2.1.3v.1c.7-.7.7-.5.7-.3M561 285.1q0 .15 0 0v.3s0-.1 0 0v.1c0 .1 0 .1-.1.2v.3c0 .1-.1.1-.1.2s-.1.1-.1.2l-.4.4-.2.2c-.1 0-.1.1-.2.1-.1.1-.2.1-.2.1h-.2c-.1 0-.2.1-.2.1h-.7c-.1 0-.2 0-.3-.1h-.1c-.1 0-.2-.1-.2-.1l-.1-.1-.2-.2v-.1c-.1-.1-.1-.2-.2-.3v-.1c0-.1-.1-.2-.1-.2v-.7l.1-.2c.1-.2.2-.4.3-.5l.1-.1.2-.2c.1-.1.2-.2.4-.3.2-.2.3-.5.2-.8h.6c.1 0 .3 0 .4.1.1 0 .2.1.3.1s.1 0 .2.1.2.1.3.2c.1 0 .1.1.2.1.1.1.2.1.3.2l.1.1c.1.1.1.2.2.3v.1c-.4.3-.3.4-.3.5m-13.7-162.9v.5c0 .1-.1.1-.1.2l-.3.3-.1.1c-.1.1-.2.1-.3.2l-.6.3c-.2.1-.4.1-.6.2-.1 0-.2 0-.3.1h-.3c-1 .1-1.9 0-2.8-.2-.5-.1-.8-.2-1.2-.5-.1 0-.2-.1-.2-.1l-.1-.1c-.1 0-.1-.1-.1-.1l-.1-.2s0-.1-.1-.1c0 0 0-.1-.1-.1v-.1c0-.1 0-.1-.1-.2 0-.1-.1-.2-.1-.3v-1.3c0-.1 0-.2.1-.3 0 0 0-.1.1-.1v-.1c0-.1.1-.2.1-.2s0-.1.1-.1c.2 0 .4 0 .5-.1 0 0 .1-.1.2-.1s.1-.1.2-.1c.2-.1.4-.1.7-.2h1.5c.2 0 .4.1.7.1.2 0 .4.1.6.2.1 0 .2.1.2.1h.1s.1 0 .1.1c.4.2.7.4 1 .6.1.1.2.1.2.2h.1l.4.4c.1 0 .1.1.2.2l.1.1.1.1c.1.1.1.1.1.2 0 0 .1.1.1.2zc0-.1 0 0 0 0M347.5 30.7v.3c0 .1 0 .2-.1.2v.2c0 .1-.1.2-.1.2s-.1.1-.1.2l-.1.1c0 .1-.1.1-.2.2l-.1.1c-.1 0-.1.1-.2.1h-.1c-.1 0-.2.1-.2.1-.1 0-.2 0-.2.1h-1.4c-.1 0-.2 0-.3-.1-.2 0-.4-.1-.5-.1s-.2 0-.2-.1h-.2c-.3-.2-.7-.3-1-.5 0 0-.1-.1-.2-.1l-.2-.2-.4-.4v-.1c-.1-.1-.1-.1-.1-.2.1-.1.2-.2.3-.4v-.1c0-.1.1-.1.1-.2v-.1l.1-.1.1-.1h.1c.1-.1.3-.2.4-.2s.1 0 .2-.1c.2-.1.3-.1.5-.1h1.9c.3.1.6.1 1 .3.1 0 .2.1.2.1.1.1.2.1.3.2h.1l.2.2.1.1.1.1v.3c.2 0 .2.1.2.1M106.9 96.5v.3c0 .1-.1.3-.1.4-.1.1-.2.3-.4.4 0 0-.1.1-.2.1-.1.1-.2.1-.3.2h-.1v-.1s0-.1-.1-.1c0-.2-.1-.4-.2-.6v-3.3c0-.3.1-.6.2-.8 0-.1.1-.2.1-.3.1.1.2.1.2.2.1.1.2.2.3.4l.1.1c0 .1.1.1.1.2 0 0 0 .1.1.2 0 .2.1.3.1.5s.1.3.1.5v.5c.1.5.1.9.1 1.2M64.4 142v.5c0 .1 0 .2-.1.2 0 .1 0 .2-.1.2v.1l-.1.1c0 .1-.1.2-.1.2l-.1.1-.1.1c-.1.1-.2.2-.4.3l-.1.1c-.1 0-.1.1-.2.1s-.2.1-.2.1-.1 0-.1.1h-.1c-.4.1-.8.2-1.1.3h-1c-.2 0-.3-.1-.5-.1-.1 0-.1-.1-.2-.1h-.1l-.1-.1-.1-.1c0-.1-.1-.1-.1-.2 0 0 0-.1-.1-.1 0-.1-.1-.2-.1-.4v-.9c0-.1 0-.2.1-.3 0-.2.1-.3.2-.5 0-.1.1-.2.1-.2.1-.2.2-.4.3-.5v-.1c.1-.1.1-.2.2-.2l.3-.3c.2-.1.3-.2.4-.3.1 0 .1-.1.2-.1l.6-.3c.2-.1.3-.3.3-.5.2 0 .3.1.5.1.1 0 .1 0 .2.1 0 0 .1 0 .1.1.1.1.3.1.4.2h.1l.2.2.3.3c0 .1.1.2.1.2.1.1.2.3.2.4s.1.2.1.2c0 .2.1.3.1.4v.1c.1.4.1.4.1.5" class="st0"/><path d="M263.6 70.8c-.5 1.7-2.1 2.2-3.7 1.8-1.7-.4-3.5-1.4-4.5-2.8.5-1.6 1.7-2.9 3.2-3.7.7-.3 1.5-.6 2.2-.6s1.3.1 1.9.5c.5.4.9 1 1.1 1.7.1 1 0 2.1-.2 3.1m-130.8 8.6v.7c0 .1-.1.2-.1.4-.4 1.5-1.5 3.1-2.8 4-.2.1-.4.3-.6.4-.1.1-.2.1-.3.2 0 0-.1 0-.1.1-.2.1-.4.1-.6.2h-.8c-.1 0-.2-.1-.2-.1l-.1-.1-.2-.2s0-.1-.1-.1c-.1-.1-.1-.2-.2-.4-.2-.4-.6-.5-.9-.3-.6-.5-1.1-1.2-1.2-2-.1-.4 0-.9 0-1.3.1-.5.3-.9.7-1.4 1.2-1.8 3.6-2.8 5.7-2.1.2.1.5.1.7.3.1 0 .2.1.3.2l.1.1c.1.1.3.2.4.4l.1.1c.1.1.1.2.2.3v.2c0 .1 0 .1.1.2s0 .2 0 .2v.1c-.1-.2-.1-.2-.1-.1M53.6 218.5c-.4 1.4-1.4 2.4-2.7 3.1-3.7 2-8.6-1.1-9.8-4.8-.2-.5-.2-.9-.2-1.4 0-.3 0-.4.1-.6 0-.1.1-.2.1-.4 0-.1.1-.2.1-.2.5-1 1.4-1.7 2.4-2.1.1-.1.2-.1.3-.2 1.5-.5 3-.8 4.5-.5 1.7.4 3.3 1.4 4.2 2.9 1 1.2 1.4 2.7 1 4.2m-4.1 97.9c-1.9.6-3.8-.4-5.4-1.4 0-.3-.1-.6-.5-.8-.4-.1-.9-.3-1.2-.5 0 0-.1-.1-.2-.1v-.3c0-.1 0-.1.1-.2v-.1s.1-.1.1-.2c.1-.1.2-.3.4-.4 1-.9 2.4-1.3 3.8-1.4 1.8-.1 3.5.6 4.3 2.2.6 1.5.1 2.8-1.4 3.2m182.1 62.8v.5c-.1.7-.5 1.4-.9 1.9-1 1.3-2.4 2.2-3.9 2.6-.2 0-.4.1-.7.1h-1.2c-.1 0-.2 0-.3-.1-.4-.1-.8-.4-1.1-.8-.1-1.1-.3-2.2-.1-3.3.2-1.3 1-2.3 2.1-2.9 1-.5 2.2-.8 3.4-.6.5.1 1 .2 1.4.5.2.1.4.3.6.5s.2.2.3.4c.2.4.3.5.4.9zm110.5.9c-1.1 2.1-3.3 3.3-5.5 3.9-3.2.9-6.7 1.2-10 .5-1.6-.3-3.2-.7-4.7-1.3-.5-.2-1.1-.4-1.5-.8l-.1-.1c0-.1.1-.1.1-.2.1-.1.2-.2.3-.2.3-.2.4-.5.3-.8.9-1.2 2.1-2.2 3.2-3.1 1.5-1.2 3.1-2.5 4.8-3.5 2.1-1.1 4.5-1.7 6.9-1.8 2.1 0 4.3.3 5.6 2.1 1.4 1.5 1.4 3.6.6 5.3m117.3.2c-2.7 1.3-6.3 1.8-8.6-.4-1.7-1.7-4.1-5.7-1-7.3.2-.1.3-.2.4-.4.9-.8 1.6-1.8 2.4-2.7.7-.6 1.6-1.1 2.4-1.5 1-.5 2.2-.9 3.3-.9 3.1.1 5.9 2.7 6.3 5.7.4 3.5-2.4 6.1-5.2 7.5m104.3-66.8c0 .1 0 .4-.1.6-.3.5-1 1-1.6 1.2-1.9.8-4.2.9-6.3.7-1.7-.2-4.4-.7-5.1-2.5 1.1-2 3.6-3 5.7-3.3 2.4-.4 5.5 0 7 2.2.2.4.3.7.4 1.1m-4.7-63.4c-.6.9-1.4 1.8-2.3 2.5-.4.3-.8.5-1.1.6-.4.1-.6.1-.9 0-.2-.1-.4 0-.6.1-2.7-1.3-2.6-5.1-2.1-7.7.3-1.4.7-2.9 1.8-3.8 1.1-1 2.8-1.1 4.2-1.1 5.2.3 2.8 6.7 1 9.4m-130.7-200c-1.3 3.2-5.5 4.8-8.7 4.5-2.8-.2-5-2.4-5.4-5.2-.2-1.6.2-3.1 1.1-4.4s2.2-2.1 3.6-2.6c.3.3.7.4 1.1.1 4.7-3.9 10.3 2.8 8.3 7.6m-224.1 19c-2.2-.6-3.9-2.4-4.9-4.4-1-1.9-1.5-4.4 0-6.2.3-.3.2-.8 0-1 2.5-2.6 6.6-4.4 10.2-4 2.7.3 5 1.9 5.7 4.6 1.6 6.1-4.8 12.7-11 11" style="fill:#c19170"/><path d="M156.7 264c0 .3-.2.5-.3.6-.4.3-1.2.1-1.2-.6v-.4c0-.7-.1-1.3-.4-1.9-.4-.9-1-1.6-2.1-2-1.6-.7-3.5-.8-5.3-.8-9.8-.2-19.8-.2-29.3-2.9-5.2-1.5-10.2-3.9-15.2-6.1-3.9-1.8-7.8-3.6-11.8-5.4-1.3-.6-2.6-1.1-3.9-1.7-.9-.4-.5-1.8.4-1.4 6.1 2.5 12 5.4 18 8 5.4 2.4 10.7 4.8 16.5 6 5.7 1.2 11.5 1.6 17.3 1.8 3.9.1 7.9-.2 11.7.5 2.9.6 4.9 2.3 5.3 5 .3.4.3.8.3 1.3" class="st0"/><path d="M503.4 188.8c-1.1-9.5-4.1-18.6-8.3-27.2-1.7-3.3-3.7-6.1-6.5-8.6-2.6-2.3-5.4-4.2-8-6.5s-4.8-5-5.5-8.5c-.7-3.3.1-6.3.7-9.5 1.2-7.3-4.4-13.1-9.4-17.7-27.3-25.2-67.9-24.8-101.9-16.9-9.4 2.2-18.6 5-27.8 7.9-8.9 2.9-17.8 6-26.9 8.5-18.5 4.9-37.6 7.7-56.7 9.2-9.4.7-18.8 1.1-28.2 1.1-9.1 0-18.2-.2-27.4 0-17.8.3-36 1.8-52.8 8.3-14.4 5.5-27.3 14.8-37.4 26.5-7.8 9-14.8 20.5-14 32.8.5 6.5 3.1 12.1 7.1 16.7.4.5.8 1 1.2 1.4 3.2 3.4 7 6.3 11 8.7.5.3 1 .6 1.5.8q2.1 1.2 4.2 2.1l2.1.9c.5.2 1.1.4 1.6.7 4 1.6 8.2 2.9 12.5 3.9.5.1 1 .2 1.6.3 2 .5 4.1.8 6.1 1.2.5.1 1 .2 1.6.2 3.4.5 6.9.9 10.4 1.2.5 0 1 .1 1.5.1 2.1.1 4.2.3 6.2.3.5 0 1 0 1.5.1.6 0 1.2 0 1.8.1 3.1.1 6.2.2 9.3.2h6.7c3.9 0 7.9-.2 11.8-.3.5 0 1 0 1.6-.1.9 0 1.9-.1 2.8-.1.5 0 1 0 1.5-.1 3.9-.2 7.8-.4 11.7-.7.5 0 1-.1 1.5-.1.3 0 .7 0 1-.1 1.6-.1 3.1-.2 4.7-.4.5 0 1-.1 1.5-.1 4-.4 8-.8 12-1.3.5-.1 1-.1 1.5-.2l2.7-.3c.5 0 1-.1 1.5-.2 3.1-.3 6.1-.7 9.2-.9.5 0 1-.1 1.5-.1 2.4-.2 4.9-.4 7.3-.5 13.5-.6 28.8-.4 40.5 7.1 3.1 2 5.8 4.5 7.8 7.6 2.1 3.3 3.6 7 5.5 10.4.3.6.7 1.2 1.1 1.8.5.8 1.1 1.7 1.8 2.5 4.4 5.6 10.6 9.6 16.9 12.9 8.2 4.3 17 7.5 25.9 10.3 9.4 3 18.9 5.8 28.4 8.2 19.4 4.8 39.7 4.8 59.5 3 9.5-.8 18.9-2.1 28.3-3.4 1.7-.2 1.3-2.5-.1-2.9 3.1-2.7 4.9-6.7 6.5-10.6.6-1.4 1.1-2.7 1.7-4 .2-.5.4-.9.6-1.3 2-4.1 4.7-7.8 7-11.7 2.3-4 4.5-8 6.6-12.1 7.2-15.7 12.4-33 10.4-50.6m-4.3 24c-1.9 8.6-5.1 16.9-9 24.8-2.1 4.2-4.3 8.4-6.7 12.4-2.2 3.8-4.8 7.4-6.8 11.3-.2.4-.4.9-.6 1.3-.3.6-.6 1.3-.9 2-.8 2-1.7 4-2.6 5.9-1.4 2.9-3 6-5.9 7.6-.7.4-.8 1.1-.7 1.6-18.3 2.5-36.7 4.5-55.2 3.7-19.4-.9-38.1-6.2-56.5-12.2-8.8-2.8-17.5-6-25.6-10.4-4-2.2-7.9-4.7-11.3-7.7-3.2-2.9-5.4-6.1-7.3-9.9-1.8-3.6-3.4-7.2-5.9-10.4-2-2.6-4.5-4.7-7.3-6.5-5.3-3.4-11.4-5.3-17.6-6.4-14.2-2.5-28.8-1.2-43 .3-6.5.7-13.1 1.5-19.6 2.1-6.9.6-13.9.9-20.9 1.2-16.2.7-32.6 1.1-48.7-1-15.1-2-31.3-6.3-42.4-17.4-20.7-20.6 1.9-48 19.5-61.5 13.8-10.6 30.4-16.1 47.5-18.4 17.9-2.4 35.9-1.6 53.9-1.7 18.4-.1 36.8-1.4 55-4.2 9.1-1.4 18.1-3.1 27-5.4 9-2.3 17.7-5.2 26.4-8.1 17.5-5.8 35.4-11.1 53.9-12.9 17.8-1.8 36.6-1.1 53.3 5.7 7.7 3.1 15.1 7.4 21.4 12.8 3.1 2.7 6.2 5.7 8.5 9.2 1.8 2.8 2.2 5.4 1.5 8.6-1.4 6.5-.7 12.5 3.9 17.6 4.5 4.9 11.1 7.9 14.6 13.7 4.9 8 7.9 17.8 9.2 27 1.2 8.3.7 16.9-1.1 25.3" class="st5"/><path d="M447.1 316.2c-4.9 2.4-10 4.5-15.1 6.4-5.2 1.9-10.6 3.9-16.1 5.1-7.4 1.7-15 1.8-22.5 1.1-8.3-.7-16.4-2.1-24.8-1.1-8.2 1-16.1 3.3-24.3 4.6-8.4 1.4-16.8 1.1-25.3.1-8.6-1-17.1-2.7-25.7-3.9-7.9-1.1-15.7-.1-23.2 2.5s-14.3 6.7-21.8 9.2c-7.5 2.4-15.4 3.5-23.2 4.4-17.4 2.1-34.6 5.8-52.1 6-15 .2-30.9.9-44.9-5.6-5.5-2.6-10.7-5.9-15.1-10.1-3.8-3.7-7-8.4-7.1-13.9 0-.7.5-1.2 1.1-1.4 2.2-.7 4.4-1.3 6.6-1.9.5-.1 1-.3 1.5-.4 3.2-.8 6.3-1.6 9.5-2.4.6-.1 1.2-.3 1.9-.4l5.1-1.2 1.5-.3c3.9-.9 7.9-1.8 11.8-2.7.5-.1 1-.2 1.5-.4 1.7-.4 3.3-.8 5-1.2.5-.1 1-.2 1.5-.4 1.7-.4 3.3-.9 4.9-1.3 1-.3 2-.6 2.9-.8.5-.1 1-.3 1.5-.4 2-.6 4.1-1.2 6.1-1.8.5-.1 1-.3 1.5-.5 3.4-1.1 6.7-2.2 10-3.3.5-.2 1-.3 1.5-.5 2.2-.7 4.3-1.5 6.5-2.2.5-.2 1-.3 1.4-.5 3.7-1.3 7.3-2.6 11-3.9.1 0 .2-.1.3-.1.4-.1.8-.3 1.2-.4 1.8-.6 3.6-1.3 5.4-1.9.5-.2 1-.3 1.4-.5 2.9-1 5.7-2 8.6-2.9.5-.2 1-.3 1.5-.5 1-.3 2-.7 3.1-1 1-.3 2-.6 2.9-.9.5-.2 1-.3 1.4-.4 2.6-.8 5.1-1.6 7.7-2.3.5-.1 1-.3 1.5-.4 1.5-.4 2.9-.9 4.3-1.3.5-.2 1-.3 1.4-.5l1.8-.6c2-.7 4.1-1.4 6.1-2.1.5-.2 1-.4 1.5-.5l6.3-2.4c.5-.2 1-.4 1.4-.6 1.9-.8 3.7-1.6 5.6-2.4.1 0 .1-.1.2-.1.5-.2.9-.4 1.4-.6 3.1-1.4 6.1-2.9 9.1-4.3.5-.2.9-.4 1.4-.7 1.4-.6 2.9-1.2 4.4-1.8.2-.1.5-.2.7-.3.5-.2.9-.3 1.4-.5 9.4-3.4 20.2-6.2 27.1-13.7.1-.1.2-.2.3-.2 1.3-.9 3 1 1.8 2.4l-.1.1c-4 4.4-9.5 7.2-14.9 9.4-5.9 2.4-11.9 4.3-17.8 6.7-6.1 2.5-11.9 5.7-17.9 8.3-6.8 2.9-13.8 5.4-20.8 7.6-7.2 2.3-14.4 4.3-21.5 6.7-7.2 2.4-14.3 4.9-21.4 7.4-14.4 5.1-28.8 10.2-43.6 13.9-14.8 3.8-29.8 6.4-44.4 10.8.2 2 1 4 2.1 5.8 3 4.9 8 8.6 12.8 11.5 4.7 2.8 9.8 5.1 15.2 6.3 8.4 1.9 17 2.1 25.5 2 8.5 0 16.9-.2 25.3-1.1 8.7-1 17.2-2.6 25.9-3.7 7.6-1 15.2-1.7 22.7-3.2 3.8-.8 7.6-1.7 11.2-3.1 3.7-1.4 7.3-3.3 10.9-4.9 6.4-2.9 13-5.3 20-6.2 8.1-1 16 .6 23.9 1.9 8.5 1.4 17.1 2.8 25.8 3 15.9.4 30.9-6.5 46.8-6 7.7.2 15.3 1.8 23 1.9 7.3.2 14.3-1.1 21.2-3.3 9.8-3.1 19.4-6.8 28.5-11.6 8.9-4.7 17.9-10.7 23.5-19.2 4.8-7.3 5.6-15.6 3-23.5-.4-1.3-.9-2.6-1.5-3.8 0-.1 0-.1-.1-.2-.3-.9.2-1.6.9-2 .6-.3 1.4-.2 1.8.6.2.5.4.9.6 1.4.9 2.1 1.7 4.3 2.2 6.6 5.2 21.4-15.9 36.2-33.1 44.5" class="st5"/><path d="M112.7 214.9c0 .4 0 .9-.1 1.3-.1 1.2-.2 2.5-.3 3.7-.2 1.6-.5 3.2-.9 4.7-.3 1.3-.6 2.6-.9 3.8-.3 1-.5 2.5-1.2 3.4 0 .1-.1.1-.1.1-.2 0-.4 0-.6-.1-.5-.2-.9-.8-1.2-1.2-.8-1.1-1.4-2.3-2-3.6-1.3-2.9-2.6-5.8-3.3-8.8-.9-3.9-1.1-8-.4-12 3.1 3.4 6.9 6.3 11 8.7" class="st6"/><path d="M114.1 215.7v.2c-.1 1.5-.2 2.9-.4 4.4-.2 2-.7 3.9-1.1 5.8-.4 1.6-.8 3.2-1.3 4.7-.3.9-.7 2.2-1.6 2.5-2.6 1-4.7-3.5-5.5-5.2-1.5-3.3-3-6.8-3.8-10.4-.9-4.3-1-8.7 0-13 .1-.5.2-.9.3-1.4.2-.9 1.7-.5 1.4.4-.2.8-.4 1.6-.5 2.4-.7 4-.5 8.1.4 12 .7 3 2 6 3.3 8.8.6 1.2 1.2 2.5 2 3.6.3.4.7 1 1.2 1.2.2.1.4.2.6.1l.1-.1c.7-.9.9-2.3 1.2-3.4.3-1.3.6-2.5.9-3.8.4-1.6.7-3.1.9-4.7.1-1.2.2-2.5.3-3.7 0-.4 0-.9.1-1.3v-.3c0-.1 0-.4.1-.6-.3-.2-.5-.6-.2-1 .2-.2.1-.5.3-.7.3-.3.7-.3 1.1 0 .7.8.3 2.5.2 3.5" class="st5"/><path d="M134.6 226.2q-.15 2.4-.6 4.8c-.3 2.3-.4 4.6-.8 6.8-.2.9-.3 2.2-1 2.9-.7.8-1.6-.1-2.1-.7-2.4-2.4-3.4-6.1-4.5-9.3l-2.1-6c-.6-1.7-1.2-3.4-1.5-5.2 4 1.6 8.2 2.9 12.5 3.9.2.9.1 1.9.1 2.8" class="st6"/><path d="M136 226.5c-.2 2-.5 4-.8 6.1-.3 2.5-.2 5.2-1.1 7.7-.3.9-.8 1.9-1.8 2.2-1.2.4-2.3-.5-3.2-1.2-2.7-2.7-3.9-6.8-5-10.3-1.3-3.9-3.3-7.9-3.7-12 0-.4-.1-.8-.1-1.2 0-1 1.5-1 1.5 0 0 .6.1 1.2.2 1.8.3 1.8.9 3.5 1.5 5.2q1.2 3 2.1 6c1 3.1 2.1 6.9 4.5 9.3.5.5 1.4 1.4 2.1.7.6-.7.8-2 1-2.9.4-2.2.5-4.6.8-6.8.2-1.6.5-3.2.6-4.8.1-.9.2-1.9 0-2.8-.1-.3-.2-.7-.4-1-.5-.8.8-1.6 1.3-.8q.6.9.6 2.1c.1.8 0 1.8-.1 2.7" class="st5"/><path d="M154.1 226.3c-.1 1.2-.2 2.4-.3 3.5-.2 2.8-.5 5.6-1 8.4-.4 2-.7 4.7-2.1 6.3-.4.4-.7.6-1.2.5-1.5-.6-1.4-3.4-1.7-4.7-.5-2.7-2.2-4.9-2.9-7.5-.7-2.5-.9-5-1.3-7.5 3.6.3 7.1.7 10.5 1" class="st6"/><path d="M155.8 224.9c-.1.5-.2 1-.2 1.5-.2 1.8-.3 3.9-.5 5.7-.3 3-.7 6-1.4 8.9-.4 1.8-1.1 4.6-3.1 5.3-1 .3-2-.1-2.7-.8-1.3-1.4-1.1-3.4-1.5-5.1-.6-2.6-2.2-4.8-2.8-7.3-.7-2.7-.9-5.5-1.4-8.2 0-.2-.1-.4-.1-.7-.2-.9 1.2-1.3 1.5-.4.1.4.2.9.2 1.3.4 2.5.6 5.1 1.3 7.5.7 2.6 2.3 4.9 2.9 7.5.3 1.3.1 4.1 1.7 4.7.5.2.8 0 1.2-.5 1.4-1.6 1.7-4.3 2.1-6.3.5-2.8.8-5.6 1-8.4.1-1.1.2-2.3.3-3.5.1-.6.1-1.2.3-1.8 0-.8 1.4-.4 1.2.6" class="st5"/><path d="M174.3 234.1c-.1 1.7-.3 3.3-.8 4.9-.3 1-.7 2.2-1.5 3-2.8-1.2-4.7-4.3-6-7-1.2-2.6-2.2-5.4-2.7-8.2.6 0 1.2 0 1.8.1 3.1.1 6.2.2 9.3.2 0 2.3.1 4.7-.1 7" class="st6"/><path d="M175.8 233.5c-.1 2.6-.4 5.4-1.5 7.8-.4.8-1.1 2.1-2 2.3-.5.1-1.3-.4-1.8-.6-.6-.3-1.1-.7-1.6-1.2-2.2-2-3.7-4.8-4.9-7.5-1-2.4-1.8-5-2.3-7.6 0-.2-.1-.4-.1-.5-.1-1 1.3-1.4 1.4-.4.1.3.1.7.2 1 .5 2.8 1.5 5.7 2.7 8.2 1.3 2.7 3.1 5.8 6 7 .8-.7 1.3-1.9 1.5-3 .5-1.6.6-3.3.8-4.9.2-2.4.1-4.7.1-7.1v-2.1c0-1 1.5-1 1.5 0v2.1c.1 2.2.2 4.3 0 6.5" class="st5"/><path d="M193 228.7c-.1 1.7-.2 3.4-.5 5.2-.5 3.7-1 7.5-2.2 11.1-.2.6-.4 1.2-.7 1.7-.1.2-.2.3-.3.4s-.1.1-.1.2c-.9.3-1.8-.8-2.2-1.5-2.1-3-3-6.8-3.9-10.2-.7-2.8-1.2-5.7-1.9-8.5 3.9 0 7.9-.2 11.8-.3z" class="st6"/><path d="M194.5 229c-.1 2.2-.4 4.5-.7 6.7-.5 3.7-1.1 7.8-2.7 11.2-.5 1-1.1 1.8-2.2 1.8-1.3 0-2.3-1-3.1-2-2.3-3.2-3.3-7.4-4.3-11.2-.7-2.8-1.2-5.7-1.9-8.5-.1-.3-.1-.6-.2-.8-.2-.9 1.2-1.3 1.5-.4l.3 1.2c.7 2.8 1.2 5.7 1.9 8.5.9 3.5 1.8 7.3 3.9 10.2.4.6 1.3 1.8 2.2 1.5 0 0 .1-.1.1-.2.1-.1.2-.3.3-.4.3-.5.5-1.1.7-1.7 1.2-3.6 1.8-7.4 2.2-11.1.2-1.7.4-3.4.5-5.2v-2c0-.2 0-.3-.1-.5 0-.2 0-.1-.1-.2-.5-.8.8-1.6 1.3-.8.2.4.4.9.4 1.4.1 1 0 1.9 0 2.5" class="st5"/><path d="M209.9 233.7c-.3 3.8-.4 7.7-1.2 11.5-.3 1.3-.5 3.6-1.8 4.3-.9.6-1.9-.4-2.5-1.1-1.1-1.4-1.7-3.2-2.2-4.8-.6-1.8-1-3.7-1.3-5.5-.7-3.9-1.2-7.8-2-11.6 3.9-.2 7.8-.4 11.7-.7 0 2.6-.5 5.4-.7 7.9" class="st6"/><path d="M211.2 235.9c-.1 2.3-.3 4.6-.6 6.8-.3 2.1-.6 4.4-1.5 6.3-.5 1.1-1.4 2.1-2.6 2.2s-2.2-.7-3-1.5c-2.5-2.9-3.3-7.4-4-11.1-.8-4-1.2-8.1-2.2-12.1-.1-.3-.1-.7-.2-1-.2-.9 1.2-1.3 1.5-.4.1.4.2.9.3 1.3.9 3.8 1.3 7.7 2 11.6.3 1.9.8 3.7 1.3 5.5.5 1.7 1.1 3.5 2.2 4.8.5.7 1.5 1.7 2.5 1.1 1.3-.8 1.6-3 1.8-4.3.8-3.8.8-7.7 1.2-11.5.2-2.6.8-5.3.7-7.9 0-.4-.1-.8-.1-1.3-.1-.9 1.3-1.3 1.5-.4.1.5.1 1 .1 1.6.1 3.5-.7 6.9-.9 10.3" class="st5"/><path d="M231.2 224.2c0 1.4 0 2.7-.1 4.1-.2 3.4-.6 6.8-1.3 10.2-.3 1.4-.6 2.8-1 4.1-.2.5-.6 1.7-1 1.8-1.1.3-2.4-1.5-3-2.2-1.2-1.4-2.2-2.9-3.1-4.5-.9-1.5-1.7-3-2.1-4.7-.7-2.6-.7-5.4-.3-8 4-.4 8-.8 12-1.3-.1.3-.1.4-.1.5" class="st6"/><path d="M232.5 229.5c-.3 3.8-.8 7.7-1.7 11.5-.4 1.8-1.2 5.7-3.9 5-1.6-.4-2.9-2-3.8-3.2-1.3-1.6-2.4-3.4-3.3-5.2-2.1-3.8-2.7-8.1-2.1-12.3.1-.7.2-1.4.4-2.1.2-.9 1.7-.5 1.5.4-.1.5-.2 1.1-.3 1.6-.4 2.6-.4 5.4.3 8 .4 1.7 1.3 3.2 2.1 4.7.9 1.6 1.9 3.1 3.1 4.5.6.7 1.9 2.4 3 2.2.4-.1.8-1.3 1-1.8.4-1.3.8-2.7 1-4.1.7-3.4 1.1-6.8 1.3-10.2.1-1.4.2-2.7.1-4.1v-.4c0-.3 0-.6-.1-.9 0-.1-.1-.3-.1-.4-.7-.5.1-1.7.9-1.2.7.4.8 1.5.8 2.4v.4c0 1.6-.1 3.4-.2 5.2" class="st5"/><path d="M246.3 225.4c0 2.3-.2 4.6-.4 6.9q-.45 3.45-1.2 6.9c-.2.9-.4 2.1-.9 3.1-1.5-2.9-3.7-5.3-5.1-8.3-1.5-3.3-1.7-7.1-1.7-10.7 3.1-.3 6.1-.7 9.2-.9.1.9.1 2.2.1 3" class="st6"/><path d="M246.9 235.8q-.45 2.7-1.2 5.4c-.3 1-.7 2.3-1.6 3-.5.4-1 .2-1.3-.3-1.4-3.6-4.4-6.4-5.9-10-1.3-3.3-1.5-6.9-1.6-10.4v-1.7c0-1 1.5-1 1.5 0v1.6c0 3.6.2 7.4 1.7 10.7 1.4 3 3.6 5.4 5.1 8.3.5-.9.7-2.2.9-3.1q.9-3.45 1.2-6.9c.3-2.3.5-4.6.4-6.9 0-.7 0-2.1-.2-3-.1-.3-.2-.6-.5-.8-.8-.6.3-1.7 1.1-1.1.5.4.7 1.1.9 1.8.1.6.2 1.2.2 1.8.4 3.7-.1 7.7-.7 11.6" class="st5"/><path d="M280.9 263.2c-.2.1-.5.2-.7.3-1.5.6-2.9 1.2-4.4 1.8-1.5-1.8-2-4.3-2.2-6.5-.2-2.3-.2-4.6-.1-6.9 0 0 .1 0 .1.1.5.4.9.8 1.2 1.3 1 1.2 1.8 2.5 2.6 3.8 1.3 1.9 2.5 3.9 3.5 6.1" class="st6"/><path d="M281.1 263.7c-.1-.2-.2-.3-.2-.5-1-2.1-2.2-4.2-3.4-6.2-.8-1.3-1.6-2.7-2.6-3.8-.4-.4-.8-.9-1.2-1.3 0 0-.1 0-.1-.1-.1 2.3-.1 4.6.1 6.9.2 2.2.7 4.8 2.2 6.5.1.2.3.4.5.5.7.7-.3 1.7-1.1 1.1l-.9-.9c-1.4-1.8-1.9-4.3-2.2-6.5-.3-2.9-.2-5.8-.1-8.7 0-.4.3-.7.8-.8 1.1 0 2 .9 2.7 1.7 1.1 1.2 2 2.6 2.9 4 1.4 2.3 2.8 4.6 3.9 7 0 .1.1.2.1.3.3.9-1 1.7-1.4.8" class="st5"/><path d="M263.9 270.9c-.1 0-.1.1-.2.1-1.8.8-3.7 1.6-5.6 2.4-1.7-2.4-2.3-5.5-3-8.3-.4-1.3-.8-2.7-.8-4.1 0-.3.1-.8.2-1 .2-.2.2-.2.4-.3h.1c.1 0 .3.1.3.1.3.1.6.3.8.5.7.6 1.4 1.3 2 2 1.4 1.7 2.6 3.6 3.8 5.5.5.9 1.1 1.7 1.6 2.6.2.2.3.3.4.5" class="st6"/><path d="M264.6 271.8c-.3-.3-.5-.6-.7-1-.1-.2-.2-.3-.3-.4-.5-.9-1.1-1.7-1.6-2.6-1.2-1.9-2.4-3.8-3.8-5.5-.6-.7-1.2-1.5-2-2-.3-.2-.5-.4-.8-.5 0 0-.2-.1-.3-.1h-.1c-.2 0-.2 0-.4.3-.1.2-.2.6-.2 1 0 1.4.4 2.8.8 4.1.8 2.8 1.3 5.9 3 8.3.2.3.4.5.6.8.6.7-.4 1.8-1.1 1.1-.3-.4-.7-.8-.9-1.2-1-1.6-1.6-3.3-2.1-5.1-.4-1.6-.9-3.1-1.3-4.7-.4-1.7-1.2-5.3 1.3-5.8 1.8-.4 3.4 1.5 4.4 2.7 1.6 1.9 3 4 4.3 6.1.5.8 1 1.7 1.6 2.5.1.2.3.5.4.7 0 .1.1.1.1.2.1.1.1.2.2.3.6.5-.4 1.6-1.1.8" class="st5"/><path d="M248.9 276.9c-2 .7-4.1 1.5-6.1 2.1l-1.8.6c-.5-2-1-4.1-1.4-6.2-.4-2.8-.7-6 .2-8.7.2-.5.6-1.8 1.2-1.7s1.1 1.1 1.4 1.6c1 1.6 1.6 3.3 2.4 4.9 1.2 2.5 2.4 5.2 4.1 7.4" class="st6"/><path d="M249.9 278.2c-.4-.4-.7-.8-1.1-1.3-1.7-2.2-2.8-5-4.1-7.4-.8-1.6-1.5-3.4-2.4-4.9-.3-.5-.8-1.5-1.4-1.6s-1 1.3-1.2 1.7c-.9 2.8-.6 5.9-.2 8.7.3 2.1.8 4.2 1.4 6.2l.6 2.1c.3.9-1.2 1.3-1.5.4l-.6-2.1c-.8-2.8-1.4-5.7-1.7-8.6-.3-2.8-.3-6.3 1.2-8.8.5-.8 1.2-1.4 2.1-1.2.8.2 1.4.8 1.9 1.5 1.2 1.7 2 3.7 2.9 5.5 1.3 2.6 2.5 5.6 4.4 7.9.2.3.4.5.6.7.9.8-.2 1.9-.9 1.2" class="st5"/><path d="M233.7 281.9c-2.6.8-5.1 1.5-7.7 2.3-.4-.7-.6-1.6-.8-2.3-.5-1.7-.7-3.5-.8-5.3-.1-1.7-.1-3.4.2-5 .1-.7.4-1.8.9-2.4 1.7 2.1 3.3 4.4 4.8 6.7.9 1.4 1.8 2.9 2.6 4.4.4.6.6 1.1.8 1.6" class="st6"/><path d="M235.1 283.4c-.6.8-1.9 0-1.3-.8.1-.1.1.1 0-.2 0 0-.1-.4-.1-.5v-.1l-.6-1.5c-.8-1.5-1.7-3-2.6-4.4-1.5-2.3-3.1-4.6-4.8-6.7-.6.5-.8 1.7-.9 2.4-.3 1.6-.3 3.3-.2 5 .1 1.8.3 3.5.8 5.3.2.7.4 1.6.8 2.3.2.3.4.6.7.9.7.6-.4 1.7-1.1 1.1-.5-.4-.8-.9-1-1.5q-.45-.9-.6-1.8c-.9-2.9-1.2-6.2-1-9.2.1-2 .4-5.3 2.7-6 .2-.1.6 0 .7.2 2.1 2.5 3.9 5.2 5.7 7.9.9 1.5 1.9 3 2.6 4.5.2.3.4.7.5 1.2 0 .6.1 1.4-.3 1.9" class="st5"/><path d="M217.1 287.1c-2.9.9-5.7 1.9-8.6 2.9-.8-1.9-.8-4.1-1.1-6-.3-2.3-.7-4.5-.7-6.8 0-.9 0-1.9.6-2.6.5-.6 1.1-.9 1.8-.4 1.5 1.1 2.3 3.3 3.2 4.9 1.5 2.7 3.1 5.4 4.8 8" class="st6"/><path d="M218.1 288.7c-.3-.5-.7-1-1-1.6q-2.55-3.9-4.8-8.1c-.8-1.6-1.7-3.8-3.2-4.9-.7-.5-1.3-.2-1.8.4-.6.8-.6 1.7-.6 2.6 0 2.3.4 4.5.7 6.8.2 1.9.3 4.2 1.1 6 .2.6.5 1.1.9 1.6.6.8-.7 1.5-1.3.8-.4-.6-.8-1.2-1-1.8-.9-2.3-.9-5.1-1.3-7.4-.3-2.5-.9-5.2-.5-7.8.4-2 2.5-3.7 4.4-2.5 1.9 1.1 2.8 3.6 3.8 5.4 1.5 2.9 3.2 5.7 5 8.4.3.4.6.9.9 1.3.6.8-.7 1.6-1.3.8" class="st5"/><path d="M200.3 292.9c-3.7 1.3-7.3 2.6-11 3.9-.5-1.3-.4-2.8-.3-4.2.2-1.7.6-3.4.7-5.1.3-2.9-.1-5.8.3-8.8.1-1.2.3-2.9 1.2-3.8.8-.8 1.3-.4 1.8.4 1.3 2.1 1.5 4.8 2.1 7.2.9 3.8 3 7.3 5.2 10.4" class="st6"/><path d="M200.8 293.7c-.2-.2-.3-.5-.5-.8-2.2-3.1-4.3-6.6-5.1-10.3-.5-2.4-.8-5.1-2.1-7.2-.5-.8-1.1-1.2-1.8-.4-.9.9-1.1 2.6-1.2 3.8-.3 2.9 0 5.8-.3 8.8-.2 1.7-.5 3.4-.7 5.1-.1 1.4-.3 2.9.3 4.2.1.3.3.5.4.8.6.8-.7 1.5-1.3.8-.2-.3-.4-.7-.6-1.1-1.4-3.3.4-7.6.5-11s-.3-6.9.7-10.2c.6-2.1 2.9-4.4 4.9-2.2 1.8 2 2.1 5.4 2.6 7.9.8 3.9 3 7.4 5.2 10.7.1.2.2.3.4.5.5.6-.8 1.4-1.4.6" class="st5"/><path d="M179.9 300.1c-3.3 1.1-6.7 2.2-10 3.3-.1-3.3-.3-6.6-.4-9.8 0-3.7.1-7.8 1.7-11.2.2-.5.8-2 1.6-1.6.7.4 1.1 1.8 1.4 2.5.8 2.4 1.1 4.8 1.5 7.2.5 3.6 1.7 6.8 4.2 9.6" class="st6"/><path d="M180.6 300.8c-.2-.2-.5-.5-.7-.8-2.5-2.7-3.7-5.9-4.2-9.6-.4-2.5-.6-4.9-1.5-7.2-.2-.7-.6-2.1-1.4-2.5s-1.3 1.1-1.6 1.6c-1.6 3.4-1.7 7.5-1.7 11.2 0 3.3.3 6.6.4 9.8v1.6c0 1-1.5 1-1.5 0v-1.2c-.1-4.4-.5-8.9-.3-13.3.1-2 .3-4 .8-6 .4-1.6 1-3.4 2-4.6 1.8-2 3.5-.1 4.3 1.7 1 2.2 1.5 4.6 1.8 7 .2 2 .5 4.1 1.3 6 .7 1.9 1.9 3.5 3.2 4.9.1.1.2.1.2.2.6.9-.4 1.9-1.1 1.2" class="st5"/><path d="M160.8 306.1c-1 .3-2 .6-2.9.8-1.6.4-3.3.9-4.9 1.3 0-2.5-.1-5-.1-7.5.1-3.1.2-6.7 1.8-9.5.3-.5 1.3-2.2 2-1.9.7.2.8 2 .9 2.5.4 2.4.5 4.8.9 7.2.3 1.8.8 3.5 1.4 5.2.2.7.5 1.3.9 1.9" class="st6"/><path d="M162.3 307.4c-.6-.2-1.1-.7-1.5-1.3q-.6-.9-.9-1.8c-.7-1.7-1.1-3.5-1.4-5.2-.5-2.4-.5-4.8-.9-7.2-.1-.6-.3-2.3-.9-2.5-.7-.3-1.8 1.4-2 1.9-1.6 2.8-1.7 6.4-1.8 9.5-.1 2.5 0 5 .1 7.5v1.8c0 1-1.5 1-1.5 0v-1.4c0-3.3-.2-6.7 0-10 .2-3 .5-6.6 2.6-9.1.7-.8 1.7-1.9 2.9-1.6 1 .2 1.5 1.3 1.7 2.1.7 2.4.6 4.9 1 7.3.3 1.7.6 3.4 1.2 5.1.2.8.6 2.6 1.5 3.3.1.1.3.2.4.2.7.3.4 1.7-.5 1.4" class="st5"/><path d="M145 310.2c-3.9.9-7.8 1.8-11.8 2.7-.6-3.6-.3-7.3-.3-10.9-.1-3.5-.3-7.7 1.7-10.7.4-.5 1-1.6 1.7-1 .6.6.9 1.9 1.1 2.7.6 2.3.7 4.7 1.6 6.9 1.4 3.6 4.7 6.5 6 10.3" class="st6"/><path d="M145.1 310.5c0-.1-.1-.2-.1-.3-1.2-3.8-4.6-6.7-6.1-10.4-.9-2.2-1-4.6-1.6-6.9-.2-.8-.4-2.1-1.1-2.7-.6-.6-1.3.5-1.7 1-2.1 3-1.8 7.2-1.7 10.7.1 3.6-.3 7.3.3 10.9.1.5.2 1.1.3 1.6.2.9-1.2 1.3-1.5.4-.1-.6-.3-1.1-.3-1.7-.4-2.1-.4-4.3-.3-6.5 0-2.4-.1-4.8 0-7.2 0-3.4.3-7.9 3.1-10.3 2-1.7 3.5.5 4 2.3.8 2.5.8 5.3 1.8 7.7 1.5 3.8 4.9 6.7 6.1 10.6 0 .1.1.2.1.3.4 1-1.1 1.4-1.3.5" class="st5"/><path d="M124.7 314.8c-3.2.8-6.4 1.5-9.5 2.4 0-5.2-.8-10.6.3-15.8.2-1.1.6-2.2 1.3-3.1.5-.6 1.6-1 2.2-.3.8.9.8 2.6.9 3.7.1 1.3.1 2.5.2 3.8.2 1.9 1.1 3.9 2 5.6.7 1.3 1.6 2.6 2.6 3.7" class="st6"/><path d="M126.4 316c-.6-.3-1.2-.7-1.7-1.2-1.1-1-1.9-2.4-2.6-3.7-.9-1.7-1.7-3.7-2-5.6-.2-1.2-.1-2.5-.2-3.8-.1-1.1-.1-2.8-.9-3.7-.7-.7-1.7-.3-2.2.3-.7.8-1 2-1.3 3.1-1.2 5.2-.4 10.5-.3 15.8v.9c0 1-1.5 1-1.5 0v-.5c0-2.9-.3-5.9-.3-8.8 0-3.1 0-6.5 1.2-9.4.7-1.9 3-4.4 5.2-2.7 1 .8 1.3 2.2 1.5 3.4.2 1.5.2 3 .3 4.5.1 1.7.8 3.4 1.5 5 .8 1.8 1.9 3.7 3.5 4.8l.6.3c.8.4.1 1.7-.8 1.3m47-166.3c-.4-1.9-2.4-2.5-4.1-2.7-6.2-.6-11.9 1.7-17.7 3.7-2.8 1-5.7 2-8.3 3.5-2.7 1.7-5.4 3.5-8 5.4-5 3.5-9.5 7.8-13 12.8-3.2 4.5-5.8 10.2-4.2 15.8.1.4.4.5.7.5 2.4 2.1 5.8 2.1 8.8 1.5 4.2-.8 8.2-2.7 11.9-4.8 3-1.7 5.9-3.6 8.5-5.8 2.3-1.9 4.6-3.7 6.8-5.8 2.1-2.1 3.6-4.4 5.1-6.9 1.6-2.8 3.3-5.5 5.4-8 .8-1 1.7-2 2.7-2.8.9-.7 2-1.2 3-1.8 1.6-1 2.9-2.6 2.4-4.6m-1.5 1.6c-.3 1-1.3 1.6-2.2 2.1-1.9 1.2-3.4 2.2-4.9 4-1.8 2-3.3 4.3-4.7 6.6s-2.7 4.8-4.4 6.9-3.8 3.8-5.9 5.5c-2.7 2.2-5.4 4.4-8.3 6.2-3.7 2.3-7.7 4.4-12 5.7-3.2 1-7.5 1.7-10.1-1-.1-.2-.1-.4-.1-.6-.1-.7-.2-1.4-.2-2 0-3.8 1.8-7.4 3.9-10.5 2.7-4 6-7.6 9.8-10.7 2.3-1.9 4.9-3.6 7.4-5.3 2.3-1.5 4.6-3.1 7.1-4.2 2.6-1.1 5.3-2 8-2.9 2.7-1 5.4-1.9 8.2-2.3 1.3-.2 2.9-.4 4.4-.4.7 0 1.3.1 2 .2.4.1.7.2 1.1.3.9.4 1.3 1.4.9 2.4m62.3 25.6c-2.7-3.3-6.2-5.7-7.7-9.8-1.5-4-1.8-8.4-5.1-11.5-1.3-1.2-2.8-2.1-4.2-3q-2.1-1.35-4.2-2.4c-2.4-1.1-5.4-2-7.9-.6-3.1 1.8-3.9 6.2-4.1 9.5-.3 4.1.6 8.2 2.2 12 3.6 8.5 11.2 15.8 20.1 18.3.3.1.6 0 .8-.3 3.3.1 7.1-.7 9.7-2.7 1.4-1.1 2.5-2.7 2.6-4.6 0-1.8-1-3.5-2.2-4.9m-.5 7.5c-1.2 1.4-3.2 2.2-4.9 2.6-1.8.5-3.8.7-5.6.5-.1 0-.3 0-.4.1-2-.7-4-1.6-5.8-2.7-1.1-.7-2.2-1.5-3.3-2.3-2.9-2.4-5.4-5.3-7.3-8.4-2-3.3-3.4-7-3.9-10.9-.4-3.5-.2-7.7 1.7-10.8l.1-.1c.7-1 1.5-1.6 2.4-1.9 3.7-1.1 8.8 2.7 11.5 4.5 1.6 1.1 3 2.2 4 4 1 1.7 1.5 3.6 2 5.5.9 3.4 2.2 6.2 4.5 8.8 2.6 2.8 8.4 6.9 5 11.1m89.5 45.3c-.2 3.4-6.2-.8-7.2-1.4-6.5-4.3-11.1-10.7-16.5-16.2-6-6.2-13.6-12.1-22.8-10.3-1 .2-1.4-1.3-.4-1.4 4.5-.9 9-.2 13 1.9 7.5 3.7 13 10.7 18.5 16.7 2.2 2.4 4.5 4.9 7.1 6.8q1.95 1.5 4.2 2.7c.6.4 1.3.7 2 .9.2.1.4.1.6.2.2-.9 1.5-.9 1.5.1" class="st5"/><path d="M476.7 268.6c-1.6 3.9-3.4 8-6.5 10.6 1.4.4 1.8 2.6.1 2.9-9.4 1.3-18.8 2.6-28.3 3.4-19.8 1.8-40.1 1.8-59.5-3-9.5-2.4-19-5.2-28.4-8.2-8.8-2.8-17.6-6-25.9-10.3-6.3-3.3-12.5-7.3-16.9-12.9-4 4.4-9.5 7.2-14.9 9.4-5.9 2.4-11.9 4.3-17.8 6.7-6.1 2.5-11.9 5.7-17.9 8.3-6.8 2.9-13.8 5.4-20.8 7.6-7.2 2.3-14.4 4.3-21.5 6.7-7.2 2.4-14.3 4.9-21.4 7.4-14.4 5.1-28.8 10.2-43.6 13.9-14.8 3.8-29.8 6.4-44.4 10.8.2 2 1 4 2.1 5.8 3 4.9 8 8.6 12.8 11.5 4.7 2.8 9.8 5.1 15.2 6.3 8.4 1.9 17 2.1 25.5 2 8.5 0 16.9-.2 25.3-1.1 8.7-1 17.2-2.6 25.9-3.7 7.6-1 15.2-1.7 22.7-3.2 3.8-.8 7.6-1.7 11.2-3.1 3.7-1.4 7.3-3.3 10.9-4.9 6.4-2.9 13-5.3 20-6.2 8.1-1 16 .6 23.9 1.9 8.5 1.4 17.1 2.8 25.8 3 15.9.4 30.9-6.5 46.8-6 7.7.2 15.3 1.8 23 1.9 7.3.2 14.3-1.1 21.2-3.3 9.8-3.1 19.4-6.8 28.5-11.6 8.9-4.7 17.9-10.7 23.5-19.2 5.2-7.2 6-15.4 3.4-23.4m-124.9 34c-3.7 1.6-7.9 1.5-11.8 1-8.1-1-16.2-2.7-24.4-2.2-3.2.2-6.3.9-9.3 1.9-2.8 1-5.7 2.5-7.5 5-.6.8-1.9 0-1.3-.8 2-2.7 5-4.4 8.1-5.5 6.8-2.5 13.8-2.4 20.9-1.7 4.3.4 8.6 1.1 12.9 1.7 3.8.5 8.1.8 11.7-.7.9-.3 1.6 1 .7 1.3" class="st6"/><path d="M351.8 302.6c-3.7 1.6-7.9 1.5-11.8 1-8.1-1-16.2-2.7-24.4-2.2-3.2.2-6.3.9-9.3 1.9-2.8 1-5.7 2.5-7.5 5-.6.8-1.9 0-1.3-.8 2-2.7 5-4.4 8.1-5.5 6.8-2.5 13.8-2.4 20.9-1.7 4.3.4 8.6 1.1 12.9 1.7 3.8.5 8.1.8 11.7-.7.9-.3 1.6 1 .7 1.3m94.4-169.3c.1 1-1.4 1-1.5 0-.6-5.5-6-9.5-10.7-11.5-2.6-1.1-5-2.2-7.1-4.1s-3.8-4.1-5.6-6.2c-.6-.7.4-1.8 1.1-1.1 1.9 2.2 3.7 4.6 6 6.5 2.3 2 5.2 2.8 7.9 4.2 4.6 2.5 9.3 6.6 9.9 12.2m-59.2-2.9c-6.2-2-13-1-19.1.6-6.6 1.7-13.5 4.2-18.9 8.3-3.2 2.5-6 5.4-8.6 8.6-2.5 3-4.8 6.2-6.8 9.6-2 3.3-3.4 6.9-4.4 10.7-1.1 4.2-.9 8.5.1 12.8 1 4.2 2.3 8.5 3.8 12.6 1.3 3.6 2.9 7.1 5.3 10 1 1.2 2.2 2.3 3.4 3.2 0 .2.2.5.5.6 4.1 1.4 8.5 2.1 12.8 1.7 4.2-.3 8.3-1.6 12.2-3.2 7.2-3.1 12.9-8.1 16.7-15 4.3-8 5.2-17.3 6.7-26.1.4-2.2.7-4.4 1.4-6.5.5-1.7 1.4-3.3 2.3-4.9 1.6-2.9 3.6-5.9 4-9.3.8-6.6-5.8-11.9-11.4-13.7m7.5 19.6c-1.5 2.8-3.3 5.5-4.1 8.6-2.1 8.6-2.5 17.6-5.4 26-2.3 6.9-6.8 13.2-13 17.1-.5.3-1 .7-1.6.9-1.1.6-2.2 1.1-3.3 1.6-2 .9-4.1 1.6-6.2 2.2-4 1.1-8.1 1.5-12.2.9-1.8-.3-3.6-.7-5.4-1.3l-.1-.1c-6.5-4.6-8.6-12.4-10.8-19.6-1.2-4-2.5-8-2.5-12.2 0-4.1 1.2-8.2 2.8-11.9 1.5-3.3 3.5-6.3 5.6-9.2 2.3-3.2 4.7-6.3 7.5-9 2.7-2.7 5.8-5.1 9.3-6.8 2.7-1.3 5.6-2.4 8.5-3.4 3-1 6.1-1.9 9.3-2.5 2.7-.5 5.5-.7 8.3-.5h.6c3 .2 5.9 1 8.5 2.6 2.7 1.6 5.5 4.3 6.4 7.4.8 3.3-.7 6.5-2.2 9.2" class="st5"/><path d="M500.2 187.3c-1.3-9.3-4.4-19-9.2-27-3.5-5.8-10.1-8.8-14.6-13.7-4.6-5.1-5.2-11.1-3.9-17.6.7-3.2.3-5.8-1.5-8.6-2.3-3.5-5.4-6.5-8.5-9.2-6.3-5.4-13.7-9.7-21.4-12.8-16.7-6.8-35.6-7.5-53.3-5.7-18.5 1.9-36.3 7.2-53.9 12.9-8.8 2.9-17.5 5.9-26.4 8.1q-13.35 3.3-27 5.4c-18.2 2.8-36.6 4.1-55 4.2-18 .1-36-.7-53.9 1.7-17.1 2.3-33.7 7.8-47.5 18.4-17.6 13.5-40.2 40.8-19.5 61.5 11.1 11.1 27.3 15.4 42.4 17.4 16.1 2.1 32.5 1.8 48.7 1 7-.3 13.9-.6 20.9-1.2 6.6-.6 13.1-1.4 19.6-2.1 14.2-1.5 28.8-2.8 43-.3 6.1 1.1 12.3 3 17.6 6.4 2.8 1.8 5.3 3.9 7.3 6.5 2.5 3.2 4.1 6.8 5.9 10.4 1.9 3.8 4.1 7.1 7.3 9.9 3.4 3.1 7.3 5.6 11.3 7.7 8.1 4.4 16.9 7.6 25.6 10.4 18.4 6 37.1 11.3 56.5 12.2 18.5.8 36.9-1.2 55.2-3.7-.2-.6 0-1.2.7-1.6 2.9-1.6 4.5-4.7 5.9-7.6.9-1.9 1.7-3.9 2.6-5.9-.3-.9.2-1.6.9-2 .2-.4.4-.9.6-1.3 2-3.9 4.6-7.5 6.8-11.3 2.4-4.1 4.6-8.2 6.7-12.4 3.9-7.9 7.1-16.2 9-24.8 1.8-8.2 2.3-16.8 1.1-25.3M171 154.4c-1 .6-2.1 1.1-3 1.8-1 .8-1.9 1.9-2.7 2.8-2 2.5-3.8 5.2-5.4 8-1.5 2.5-3 4.9-5.1 6.9-2.1 2.1-4.5 3.9-6.8 5.8-2.6 2.2-5.6 4.1-8.5 5.8-3.7 2.1-7.7 4-11.9 4.8-3 .6-6.4.6-8.8-1.5-.3 0-.6-.1-.7-.5-1.6-5.6 1-11.3 4.2-15.8 3.5-5 8-9.3 13-12.8 2.6-1.9 5.3-3.7 8-5.4 2.6-1.6 5.4-2.6 8.3-3.5 5.8-2 11.5-4.3 17.7-3.7 1.8.2 3.7.8 4.1 2.7.5 1.9-.8 3.5-2.4 4.6m62.7 32c-2.6 1.9-6.4 2.8-9.7 2.7-.2.2-.4.3-.8.3-9-2.5-16.5-9.8-20.1-18.3-1.6-3.8-2.5-7.9-2.2-12 .2-3.3 1-7.7 4.1-9.5 2.5-1.4 5.5-.5 7.9.6q2.25 1.05 4.2 2.4c1.4.9 3 1.8 4.2 3 3.3 3.1 3.6 7.5 5.1 11.5 1.5 4.1 5.1 6.5 7.7 9.8 1.1 1.4 2.1 3.1 2 5 0 1.8-1 3.5-2.4 4.5m188.6-75.9c1.9 2.2 3.7 4.6 6 6.5 2.3 2 5.2 2.8 7.9 4.2 4.8 2.4 9.5 6.5 10 12.2.1 1-1.4 1-1.5 0-.6-5.5-6-9.5-10.7-11.5-2.6-1.1-5-2.2-7.1-4.1s-3.8-4.1-5.6-6.2c-.7-.8.4-1.9 1-1.1M316 228.2c-6.5-4.3-11.1-10.7-16.5-16.2-6-6.2-13.6-12.1-22.8-10.3-1 .2-1.4-1.3-.4-1.4 4.5-.9 9-.2 13 1.9 7.5 3.7 13 10.7 18.5 16.7 2.2 2.4 4.5 4.9 7.1 6.8q1.95 1.5 4.2 2.7c.6.4 1.3.7 2 .9.2.1.4.1.6.2.2-.8 1.5-.7 1.5.2-.1 3.4-6.2-.8-7.2-1.5m74.7-63.4c-1.6 8.8-2.4 18.1-6.7 26.1-3.7 6.9-9.5 12-16.7 15-3.9 1.6-8 2.9-12.2 3.2-4.4.4-8.7-.4-12.8-1.7-.3-.1-.5-.3-.5-.6-1.3-.9-2.4-2-3.4-3.2-2.4-2.9-4-6.4-5.3-10-1.5-4.1-2.8-8.4-3.8-12.6s-1.1-8.5-.1-12.8c.9-3.8 2.4-7.3 4.4-10.7s4.4-6.6 6.8-9.6c2.5-3.2 5.4-6.1 8.6-8.6 5.5-4.1 12.3-6.6 18.9-8.3 6.1-1.6 13-2.6 19.1-.6 5.7 1.8 12.2 7.1 11.4 13.7-.4 3.4-2.4 6.4-4 9.3-.9 1.6-1.7 3.2-2.3 4.9-.7 2.1-1 4.3-1.4 6.5m62.2 64.5c-2.3 3.3-5.7 6-9 8.3-1.9 1.3-3.8 2.7-5.9 3.6-1.7.7-3.5 1.1-5.2 1.6-1.3.8-2.7 1.2-4.2 1.4-3.8.5-7.5-.2-11.3-.5-3.1-.2-6.2-.1-9.3-.6-6.6-.9-14.1-3.8-15.2-11.3-1.2-8.2 7.7-13.7 13.2-18 3.4-2.7 6.8-5.5 9.2-9 1.3-1.9 2.3-4.1 3.4-6.1 1.2-2.1 2.6-4.2 4.1-6.2 2.7-3.8 5.6-7.5 8.3-11.3 2.1-2.9 4.2-5.9 6.8-8.4s5.8-4.2 9.3-4.8c2.4-.4 5.6-.6 7.3 1.6 1.4 1.8 1.1 4.4.7 6.4-.5 2.5-1.4 4.8-2.3 7.1-1.5 3.9-1.9 7.7-.9 11.8 1 4.2 2.6 8.2 3.4 12.4 1.5 7 2 15.6-2.4 22" class="st6"/><path d="M233.7 184.4c-1.2 1.4-3.2 2.2-4.9 2.6-1.8.5-3.8.7-5.6.5-.1 0-.3 0-.4.1-2-.7-4-1.6-5.8-2.7 2.9.2 6.1-.7 8.6-1.4 1.6-.4 3.5-1.1 4.1-2.8.5-1.6-.3-3.2-1.2-4.4-1.3-1.7-3.1-2.9-4.5-4.5-1.3-1.6-2-3.6-2.5-5.6-1.1-4.1-2.7-7.6-5.6-10.8-2.3-2.5-5.6-4.9-9.1-4.9 3.7-1.1 8.8 2.7 11.5 4.5 1.6 1.1 3 2.2 4 4 1 1.7 1.5 3.6 2 5.5.9 3.4 2.2 6.2 4.5 8.8 2.5 2.8 8.3 6.9 4.9 11.1M357 203.1c3.2 1 6.7 1.4 10.1 1.3-2 .9-4.1 1.6-6.2 2.2-4 1.1-8.1 1.5-12.2.9-1.8-.3-3.6-.7-5.4-1.3l-.1-.1c-6.5-4.6-8.6-12.4-10.8-19.6-1.2-4-2.5-8-2.5-12.2 0-4.1 1.2-8.2 2.8-11.9 1.5-3.3 3.5-6.3 5.6-9.2 2.3-3.2 4.7-6.3 7.5-9 2.7-2.7 5.8-5.1 9.3-6.8 2.7-1.3 5.6-2.4 8.5-3.4 3-1 6.1-1.9 9.3-2.5-2.3 1-4.6 2.2-6.8 3.5-2.3 1.3-4.6 2.7-6.8 4.2-3.7 2.4-6.9 5.5-9.8 8.8q-2.4 2.7-4.5 5.7c-1.3 1.8-2.8 3.7-3.8 5.7-2 4-2.5 8.6-2.2 13.1.5 8.3 3.5 16.6 8.4 23.4 2.4 3.3 5.4 5.9 9.6 7.2m-185.1-51.8c-.3 1-1.3 1.6-2.2 2.1-1.9 1.2-3.4 2.2-4.9 4-1.8 2-3.3 4.3-4.7 6.6s-2.7 4.8-4.4 6.9-3.8 3.8-5.9 5.5c-2.7 2.2-5.4 4.4-8.3 6.2-3.7 2.3-7.7 4.4-12 5.7-3.2 1-7.5 1.7-10.1-1-.1-.2-.1-.4-.1-.6 2.4 1.5 5.4 1.2 8.1.5 3.8-1.1 7.4-3.1 10.6-5.4 8.5-5.9 14.1-14.7 20.6-22.5 1.6-1.9 3.2-3.8 5-5.6 1.6-1.6 3.5-3.6 5.8-4.1.5-.1.6-.5.5-.9.4.1.7.2 1.1.3.9.3 1.3 1.3.9 2.3" class="st7"/><path d="M455.4 207.1c-.8-4.2-2.4-8.2-3.4-12.4-1-4.1-.6-7.9.9-11.8.9-2.3 1.8-4.6 2.3-7.1.4-2.1.7-4.6-.7-6.4-1.7-2.2-4.9-2.1-7.3-1.6-3.6.6-6.7 2.4-9.3 4.8-2.6 2.5-4.7 5.5-6.8 8.4-2.7 3.8-5.6 7.5-8.3 11.3-1.4 2-2.8 4.1-4.1 6.2-1.2 2-2.1 4.2-3.4 6.1-2.5 3.6-5.9 6.4-9.2 9-5.5 4.3-14.3 9.9-13.2 18 1.1 7.5 8.6 10.3 15.2 11.3 3.1.4 6.2.3 9.3.6 3.7.3 7.5 1 11.3.5 1.5-.2 2.9-.5 4.2-1.4 1.8-.5 3.5-.9 5.2-1.6 2.1-.9 4-2.2 5.9-3.6 3.3-2.3 6.7-4.9 9-8.3 4.3-6.2 3.8-14.8 2.4-22m-1.4 16.2c-1.1 3.9-3.3 6.8-6.3 9.4-1.5 1.4-3.2 2.6-4.9 3.8-1.1.8-2.2 1.5-3.4 2.2q-1.2.75-2.4 1.2c-.2.1-.4.2-.7.2-1.3.4-2.7.8-4 1.1h-.1c-.4.1-.9.2-1.3.3-.3.1-.5.3-.5.5-2.5.9-5.5.5-8 .3-3.1-.3-6.2-.5-9.4-.6-5.7-.2-13.7-1.1-17.1-6.4-5.1-7.8 3-14.3 8.5-18.7 3.1-2.5 6.3-4.8 9-7.7 1.3-1.4 2.5-2.8 3.5-4.4 1.2-1.8 2-3.8 3.1-5.6 2.3-3.9 5.1-7.6 7.8-11.3l6.9-9.3c2.1-2.8 4.4-5.5 7.4-7.3 2.6-1.6 6.6-2.9 9.6-1.9q.9.3 1.5.9c.4.4.6.9.7 1.5.7 2.8-1.1 7.2-1.9 9.2-1.1 2.8-2.1 5.5-2.2 8.6-.1 4 1.3 7.9 2.5 11.7 2.2 7.1 3.6 15.1 1.7 22.3" class="st5"/><path d="M453.3 170.2c-1.2 1.5-2.4 3-3.7 4.4-1.5 1.6-3.3 3-5 4.4s-3.4 2.9-4.8 4.6c-1.3 1.5-2.3 3.2-3.4 4.9-2.2 3.5-4.3 7-6.8 10.3-2.5 3.4-5.6 6.2-8.8 8.9-5.7 4.6-12.7 9.6-14 17.3-.2 1.5-.4 3 .2 4.5.5 1.3 1.6 2.4 2.8 3.2 2.7 2 6 3.3 9.2 4.4 3.9 1.4 8.1 2.5 12.2 2.8 1.7.1 3.3.2 5 .2h.3c-1.3.4-2.7.8-4 1.1h-.1c-.4.1-.9.2-1.3.3-.3.1-.5.3-.5.5-2.5.9-5.5.5-8 .3-3.1-.3-6.2-.5-9.4-.6-5.7-.2-13.7-1.1-17.1-6.4-5.1-7.8 3-14.3 8.5-18.7 3.1-2.5 6.3-4.8 9-7.7 1.3-1.4 2.5-2.8 3.5-4.4 1.2-1.8 2-3.8 3.1-5.6 2.3-3.9 5.1-7.6 7.8-11.3l6.9-9.3c2.1-2.8 4.4-5.5 7.4-7.3 2.6-1.6 6.6-2.9 9.6-1.9.5.4 1 .7 1.4 1.1" class="st7"/><path d="M381.1 130.9c-.1.4-.6.7-1.1.4-.7-.5-1.8-.2-2.6 0-1.4.3-2.7.9-4 1.5q-4.65 2.1-9 4.8c-2 1.2-4.1 2.4-6 3.8-3.7 2.7-6.8 6-9.7 9.5-2.7 3.4-5.9 7.1-7.3 11.3-1.4 4.1-1.4 8.5-.9 12.8.9 7.6 4.1 15.5 9 21.4 2.4 2.9 5.3 4.7 9 5.6 3.6.9 7.6 1.2 11.3.7.2 0 .4 0 .6.1.5.3.6 1.2-.2 1.3-1 .2-2.1.3-3.1.3-3.4.1-6.9-.3-10.1-1.3-4.2-1.3-7.2-3.8-9.8-7.3-4.9-6.8-7.9-15-8.4-23.4-.3-4.4.2-9 2.2-13.1 1-2 2.4-3.9 3.8-5.7 1.4-1.9 2.9-3.9 4.5-5.7 2.9-3.3 6.1-6.4 9.8-8.8 2.2-1.5 4.5-2.9 6.8-4.2 2.2-1.2 4.5-2.5 6.8-3.5.6-.3 1.3-.5 1.9-.8 1.7-.6 4.3-1.7 6-.6.6.2.6.6.5.9m73.6 39.9c-.2.3-.4.5-.6.8-1.2 1.5-2.3 2.9-3.6 4.3-1.6 1.7-3.5 3-5.2 4.5-1.8 1.5-3.6 3.1-5 5-1.2 1.6-2.2 3.3-3.3 5-2.1 3.3-4.1 6.6-6.4 9.7-2.3 3-4.9 5.5-7.8 7.9-5.4 4.4-12.5 9.1-14.2 16.3-.3 1.5-.6 3.3 0 4.7s2.1 2.4 3.3 3.2c2.9 1.8 6.1 3 9.3 4 3.3 1.1 6.7 1.9 10.2 2.2 1.4.1 2.7.2 4.1.2.7 0 1.3 0 2-.1.2 0 .5 0 .7-.1.1 0 .4-.1.3-.1.4-.3 1-.1 1.2.3.2.3.2.6-.2.8-.8.6-2 .6-3 .6h-.3c-1.7 0-3.3-.1-5-.2-4.2-.3-8.3-1.4-12.2-2.8-3.2-1.1-6.5-2.4-9.2-4.4-1.1-.8-2.2-1.9-2.8-3.2-.5-1.4-.4-3-.2-4.5 1.3-7.7 8.3-12.7 14-17.3 3.3-2.7 6.3-5.5 8.8-8.9 2.5-3.3 4.6-6.9 6.8-10.3 1.1-1.7 2.1-3.3 3.4-4.9 1.4-1.7 3.1-3.2 4.8-4.6s3.5-2.8 5-4.4c1.3-1.4 2.5-2.9 3.7-4.4.1-.1.2-.3.3-.4.6-.7 1.6.4 1.1 1.1m-225.2 9.9c-.6 1.7-2.5 2.4-4.1 2.8-2.5.7-5.7 1.6-8.6 1.4-1.3-.1-2.5-.4-3.5-1-.7-.4-.3-1.3.3-1.4.1 0 .3 0 .5.1 1.9 1 4.4.7 6.4.4 1.9-.3 4-.7 5.8-1.4 4.4-1.8-.5-5.8-2.3-7.5-2.7-2.5-3.6-5.6-4.6-9-1-3.6-2.8-6.7-5.5-9.3-2.5-2.5-6-4.6-9.7-3.4h-.1c-.9.2-1.2-1.2-.3-1.5s1.8-.4 2.7-.4c3.5.1 6.8 2.4 9.1 4.9 2.9 3.2 4.4 6.7 5.6 10.8.6 2 1.2 4 2.5 5.6s3.1 2.8 4.5 4.5c1 1.2 1.9 2.8 1.3 4.4m-60.2-31.3c-2.3.5-4.2 2.6-5.8 4.1-1.8 1.8-3.4 3.7-5 5.6-6.5 7.9-12.1 16.6-20.6 22.5-3.2 2.2-6.8 4.3-10.6 5.4-2.7.8-5.7 1-8.1-.5-.5-.3-.9-.6-1.3-1.1-.7-.7.4-1.8 1.1-1.1l.1.1c3 3 8 1.3 11.3-.2 8.2-3.7 14.4-10 19.8-16.9 3.2-4 6.2-8.1 9.6-12 1.5-1.7 3-3.3 4.7-4.8 1-.9 2.2-1.8 3.5-2.4.3-.1.7-.3 1-.3.5-.1.8.2.9.6 0 .4-.1.9-.6 1" class="st5"/></svg>