<svg xmlns="http://www.w3.org/2000/svg" xml:space="preserve" id="Calque_1" x="0px" y="0px" version="1.1" viewBox="0 0 219.3 244.1"><style>.st1{fill:#83504a}.st2{fill:#674541}.st4{fill:#fdf08f}.st5{fill:#fff}.st6{fill:#ecd800}.st7{fill:#2c2c2c}</style><path d="M212.8 64.3c.9 4.2 1.2 8.6 1.1 12.9-.1 1.6-.3 3.1-.6 4.7-.4 2.4-.9 4.8-1.8 7.1-1.1 3.1-2.3 6.1-3.7 9-1.6 3.8-3.5 7.6-6.5 10.6-1.2 1.2-2.4 2.4-3.7 3.4-.9.7-1.9 1.3-2.7 2.1-3 3.1-7 5-10.6 7.3-.2.1-.3.2-.5.3.3.4.6.8 1 1.2 2.9 3.5 5.8 7.2 8 11.3 1.7 3.3 2.8 6.8 3.6 10.4.6 2.7 1.2 5.5 1.2 8.3.1 2.7.2 5.5-.1 8.2-.4 3.7-.9 7.4-2 10.9-.6 2.1-1.6 4-2.5 5.9l-1.2 2.4v.5c.5 6.1-.3 12.1-.8 18.1-.1 2.2-.4 4.4-.4 6.7.3 1.6 2.2 2.5 3.3 3.5 3.2 2.6 6.2 5.4 9.8 7.4 1.4.8 2.8 1.7 4.1 2.8 1.1 1 2.4 1.9 3.7 2.8 5 3.9 14 9.8 1.7 10.9-2.3.2-4.6.3-6.8.8-1.2.2-2.4.3-3.7.4-1.6.1-3.2.4-4.8.6-2.3.2-4.7.1-7 .1-.7 0-1.4.1-2.1.1-.8.1-1.5.1-2.3.1-2.6-.1-4.8-1.5-7.4-1.5-2.3 2-4.9 3.7-7.8 4.4-1.6.4-3.2.8-4.8 1.1-1.7.3-3.4.3-5.1.4-1.7 0-3.5.1-5.2.5-.9.2-1.7.5-2.5.8-2.4.8-4.8 1.2-7.2 1.8-2.7.6-5.4 1.6-8.1 1.6-.6 0-1.1 0-1.7-.1-3.1-.5-5-2.7-6.4-5.3-.1-.1-.1-.3-.2-.4 0-.1-.1-.1-.1-.2 0 0 0-.1-.1-.1 0-.1-.1-.2-.1-.3s-.1-.2-.1-.3l-.3-.6c0-.1-.1-.2-.1-.3-.1-.2-.2-.4-.2-.6-.1-.3-.2-.6-.3-.8-.1-.1-.1-.3-.2-.4-.1-.3-.3-.7-.4-1-.6-1.3-1.1-2.7-1.7-4-1.6-3-3.1-6.1-4.7-9.2-.8-1.5-1.7-3-2.3-4.6-1.2-3.2-2.3-6.4-3.5-9.6-1.1-3.1-2.4-6.3-2.7-9.6v-.2c0-1 .5-1.9 1.5-1.9.3 0 .5.1.9.2 5.6 2.1 6.6 4.5 10.2 8.8-.8-2.2-1.3-4.5-1.8-6.7-.3-1.6-1.2-5.6 1.1-6.1 1 .1 1.9.6 2.9 1 4.7 2.2 7.5 6.7 10.2 10.8 0-2.7.1-5.3.5-8l-.1-.1c-1.2-1.2-1.6-3.1-2.8-4.3-.9-.8-2.1-1.1-3.1-1.7-.3-.2-.5-.6-.5-.9 0-.8.8-1.1 1.3-1.4.4-.3.8-.6 1.2-1 1.8-2.2 2.8-5.1 2.6-7.9-.1-1.7-.5-3.5-1.7-4.8-1.6-1.9-4.2-2.3-6.4-3.2-1.3-.5-2.6-1-3.9-1.4-.2-.1-.5-.1-.7-.2 0 .3-.3.5-.7.4-1.4-.4-2.9-.6-4.4-.8-5.1-.9-10.2-.7-15.3-.7-2.7 0-5.5-.1-8.2-.1-2 0-3.8.1-5.7.3-3.6.3-7.2.5-10.8.8-2.4.2-4.8.7-7.1 1.2-2 .3-3.9.8-5.7 1.7-2.5 1-4.2 2.6-4.7 5.3-.5 3-.6 6.6 1.6 9 .9 1.1 1.9 2.1 2.8 3.1.6.7 1.3 1.6.7 2.5-.2.4-.5.6-.9.8-1.2.6-2.4 1-3.6 1.7-1.8 1.2-3 3.1-4.2 4.9-1.6 2.5-2.6 5.3-3.6 8-1.2 3.7-1.6 7.7-1.4 11.6.1 1.9.3 3.9.7 5.8.2 1.2.5 2.4 1.2 3.5.6 1 1.5 1.8 2.3 2.6 0 0 .1 0 .1.1l.1.1c.4.4.8.8 1.1 1.2 1.3 1.5 2.6 3.2 4.3 4.3 3.2 2.1 6.9 2.6 10.4 3.5 2.8.6 5.7 1 8.6 1.4h2.1c1.1 0 2.3-.1 3.4-.2h4c3.9-.1 7.7.4 11.6.6 2.5.1 5 0 7.5-.2 1.6-.1 3.2-.3 4.9-.1 2.5.1 5 .4 7.5.2h.4c.2 0 .3 0 .5-.1h.2c1.2-.2 2.3-.4 3.5-.6.1 0 .2 0 .3-.1.2 0 .4-.1.6-.1h.6c.3 0 .6.4.7.7.3 1.5-1.6 1.5-2.6 1.7-2.3.4-4.6.8-6.9.6-2.4-.1-4.8-.4-7.3-.3-1.6.1-3.3.2-4.9.3-4.1.2-8.1-.2-12.2-.5-4-.2-8.1.1-12.1.3-1.6 0-3.2-.2-4.8-.5-2.5-.4-5-.7-7.4-1.4-4-.9-8.2-1.9-11.3-4.8-1.2-1.1-2.2-2.5-3.3-3.7l-.6-.6c-2.9.5-5.7 1.3-8.4 2.3-1.5.4-3 .8-4.4 1.1-1.6.4-3.1.9-4.8 1.2-3.3.5-6.6.7-9.9 1.3-2.5.5-5.1.9-7.6.6-3.2-.3-6.6-1.3-8.7-3.8-1-1.3-1.6-2.9-2.3-4.4-1.6-3.8-2.2-7.9-3-11.9-1.2-4.5-2.2-9-3.5-13.5-.7-2.9-1.8-5.7-2.6-8.7-.4-1.7-.8-3.3-1-5s-.3-5.1 1.5-6c1-.4 2.3.6 3.1 1.1 2 1.4 2.9 3.7 4.2 5.6.9 1.4 1.9 2.6 2.9 3.9q2.1 2.85 3.9 6c-.3-2.8-.9-5.5-1.7-8.2-.8-3.1-1.9-6.3-1.8-9.6.3-5.4 3.5-3.8 5.8-.6 1.3 2.1 2.5 4.2 3.7 6.3 1 1.9 2.3 3.4 3.3 5.2q1.35 2.4 2.4 4.8c0-4.3-.9-8.5-.9-12.8 0-1.5 0-3 .2-4.4.1-.6.2-1.4.9-1.6 1.1-.4 2.8 2 3.7 2.7 1.1 1.1 2.3 2.1 3.4 3.2 3.1 3.1 4.4 7.3 5.6 11.4.2.7.4 1.3.6 2 .3-.5.5-1 .8-1.5 1.6-2.8 4.3-4.7 6.9-6.5 1.3-.9 2.4-1.9 3.8-2.7s2.9-1.2 4.5-1.7c1.5-.4 2.9-.9 4.4-1.3-.7-.9-1.2-1.9-1.4-3.1-.7-3.4-.4-8.6 2.1-11.3 1-1.1 2.2-1.8 3.5-2.4-1.8-.1-3.7-.2-5.4-.7-.5-.1-1-.2-1.5-.5-.1.8-.1 1.5-.3 2.3-.4 2.3-.3 5.1-2.2 6.7-4.2 2.9-10.9 2.7-15.8 2.8-3.3.2-6.6.7-9.9.3-2.4-.4-4.8-1.4-7-2.4-2.3-1-4-3.2-4.7-5.6-.3-.9-1.2-5.4-.6-7-.2-.9-.2-1.8.2-2.6 0-.1-.1-.1-.1-.2-1-1.3-1.7-2.4-2.4-3.8-.7-1.2-1.2-2.4-1.5-3.7-.7-3.9.2-8.2 2.3-11.5.9-1.5 2.2-2.7 3.7-3.7 2.2-1.5 4.5-2.9 7.1-3.6 4-1.2 8.8.3 11.5 3.6.8.2 1.1 1.1 1.3 1.8h.3c1.5-.1 3 .1 4.5.2 3.5.2 7 .4 10.3 1.4 1.7.4 2.8.8 3.4 2 .4-.2.9-.2 1.3-.2.8 0 1.5.1 2.3.1 2.9.2 5.8.4 8.7.4q4.8 0 9.6.3c1.9.1 3.7.4 5.6.6v-.2c.1-.3.1-.8.1-1.2-2.1-.1-4.3-.2-6.4-.5-3.1-.3-6.2-1.3-9.1-2.4-3.1-.9-6-2.2-8.7-4-5.1-3.2-9.5-7-10.5-13.2-.8-.2-1.6-.3-2.4-.5-3.8-.7-7.7-1.5-11.3-3.2-1.2-.5-2.4-1.2-3.6-1.9s-2.4-1.4-3.3-2.4c-2.8-3-4.9-6.7-5.9-10.7-.8-2.7-1.2-5.4-1-8.2.1-6.1 1.3-13.6 6.8-17.2 2.3-1.6 4.7-3.1 7.1-4.4 1.7-1 3.5-1.9 5.3-2.5 2-.7 4-1.3 6.1-1.6.2 0 .4-.1.6-.1-.4-.3-.9-.6-1.3-1-1.3-1-6.1-5-5.8-6.8-2.8-1-5-2.8-4.9-6.1.4-3.4 1.6-5.8 3.5-7.6-.2-.9.4-2.5.6-3.3 1-2.7 3-5 5.3-6.7-.1-.1-.2-.3-.2-.5.1-.9.7-1.6 1.2-2.3.8-1.2 1.6-2.5 2.6-3.5 1.2-.9 2.7-1.5 4.1-2.2 1.2-.6 2.5-.9 3.7-1.2.2-1.8 1.6-4.4 2.1-5.7 1.7-4.2 4.1-8.1 7.2-11.5 2.3-2.5 4.6-4.9 7.3-7 2.8-2.1 6.3-2.9 9.6-3.7 2.5-.6 5.1-.2 7.6.1 1.7.3 3.4.6 5 1.3 2.2 1.1 4.2 2.7 6.1 4.2 2 1.6 3.5 3.6 4.8 5.7.2.4.6 1 .9 1.6 2.6-2.9 5.3-4.2 9.4-5.2 3.6-.8 7.3-1.3 11-1.3 1.1.1 2.2.1 3.3.4.3-.3.6-.6.9-.8 2-1.6 4.3-2.8 6.6-4 1.5-.8 3-1.6 4.5-2.3 3.2-1.3 6.5-2.2 10-2.4 5.9-.6 11.8.9 17.2 3.2 2.2.9 4.4 1.7 6.5 2.9s4.1 2.8 5.9 4.4c3 2.4 5.3 5.6 7 9 1.5 3.1 2.2 6.5 2.8 9.9.5 2.9 1 5.9.5 8.9.4.2.9.4 1.3.6 1.5.7 3 1.5 4.4 2.4 2.2 1.3 3.8 3.3 5 5.5 1.8 3.1 3.4 6.3 4.8 9.7.6 2.6 1.5 5.2 1.9 7.9m-55.4 85.3c.2-1.3-.7-1.4-1.7-1.5-1.5-.2-3.2-.7-4.7-.1-1.2.6-2.5 1.2-3.5 2.2-.5.5-1 .9-1.5 1.4-1.4 1.1-2.9 1.9-4.5 2.9-.4.3-.8.5-1.2.7.1-.1.2-.1.3-.2 1.1-.9 2.2-2 3.3-3 .9-.8 2-1.4 2.9-2.1.6-.4 1.3-1 .9-1.8-.2-.4-.7-.5-1.1-.4l-4.2.3c-3.2.1-6.5.1-9.7.3-8.2.5-16.5-.7-24.7-.7-3.6 0-7.3.1-10.9-.3-2.7-.2-5.3-.6-8-.7-1.7-.1-3.4.1-5.1 0-3.6 0-7.2-.4-10.9-.8-1.2-.1-2.5-.5-3.7-.5-1 0-1.9.1-2.9.2-1.8.1-3.7.3-5.5.5h-.8c0-.4-.2-.8-.7-.9-.6.1-.8.6-.9 1.3-.1.1-.1.2-.1.4 0 .1 0 .3.1.4 0 .7.1 1.4.1 1.8 0 1 .1 2 .1 2.9v1c-.2 0-.3 0-.5.1 0-1.5 0-3.1-.1-4.6 0-.8-.1-1.7-.4-2.5-.5-1.7-2.2-2.3-3.7-3s-3.1-.4-4.7-.4c-2.3 0-4.5-.6-6.8-1-2.1-.3-3 .9-1.9 2.8.4 1 .7 2 1.2 2.9.2.3.4.6.6 1 0 .1.1.1.1.2.1.1.2.2.2.3.1.1.1.2.2.2l.2.2c0 .1.1.1.1.2.1.2.2.3.3.5.7 1.3 1.2 2.8 1.6 4.3.3.9.6 2.1.6 3.1 0 .6 0 1.5-.8 1.4-1 0-2-.2-2.9-.6-1.3-.8-2.2-2.2-3.6-3-1.6-1.1-2.6.5-1.5 1.9 1.3 1.7 2.6 3.5 2.6 5.7 0 .6 0 1.4-.4 1.9-.3.1-.6 0-1 0-1.6-.2-3.3-.4-4.7-1.2-1.1-.6-2-1.5-2.9-2.4-.4-.4-.6-1-1.2-1.1s-1 .6-.9 1.1c.2.6.5 1.2.7 1.9.5 1.9.8 4-.1 5.8-.6-.1-1.2-.3-1.7-.5-.1 0-.2-.1-.3-.1s-.2-.1-.3-.1-.2-.1-.3-.1-.2-.1-.3-.1-.2-.1-.3-.1c-.1-.1-.2-.1-.3-.2s-.2-.1-.3-.2l-.6-.3c-.1 0-.2-.1-.3-.2l-.1-.1-.1-.1c-.4-.2-.7-.5-1.1-.7-.1-.1-.2-.1-.3-.2-1-.6-2-1.1-3-1.7.1-.5-.4-1.1-.9-.9-.4.2-.5.6-.5 1v.7c-.1 2.5.3 5.1 1.5 7.3.9 1.5 2.2 2.6 3.6 3.5 1.1.8 2.4 1.5 3.7 1.9.1.2.2.4.4.5 1 .6 2.1.6 3.2.6 2.2.1 4.4.4 6.6.4 1.5.1 3 0 4.5-.4 1.6-.2 3.1-.5 4.6-.9 2.6-.5 5.4-.9 7.8-2.2.9-.7 1.5-1.8 1.9-2.8.6-2 .8-4.1.9-6.2.3-4.1.7-8.2 1-12.2.1 0 .1.1.2.1.5.1 1.1.2 1.6.3 2.2.3 4.5.7 6.7 1.1 2.4.5 4.8.4 7.3.5l3.6.3c3.7.2 7.4.9 11.1.9 4.5-.1 9.1.4 13.6.4 2.8 0 5.5.1 8.3.2 3.2.1 6.3.5 9.5.6 2.3 0 4.7 0 7-.1 3-.3 5.9-.8 9-.6h.2c.5.2 1.2-.4 1.6-.7s.8-.6 1.2-.8l-.1.1c-.5.6.1 1.6.8 1 .4.4 1 .3 1.6.3 1.2.1 2.3.1 3.5.1q.45 1.5.6 3c.1.7.2 1.7 1 2 .5.1.9-.2 1.3-.4.5-.3 1.1-.5 1.7-.7 2.2-.7 5.3-1.4 6.6-3.4.6-1 .5-2.3.6-3.4.3-2 .4-3.7.8-5.4" style="fill:#8664c2"/><path d="M127.7 240.4c-.2-.3-.2-.7 0-1s.6-.3.9-.3c.5 0 1 0 1.5-.2.8-.6 1.7-.2 1.5.9-.3.9-1.5 1.1-2.3 1.2-.4-.2-1.2-.1-1.6-.6"/><path d="M80.6 168.2H68.5l-.8 1.1-.1.1-.1.1-.1.1-.1.1-.1.1-.1.1-.1.1-.1.1-.1.1-.1.1-.1.1-.1.1-.1.1-.1.1-.1.1-.1.1-.1.1-.1.1-.1.1-.1.1-.1.1-.1.1v6.3l.1.1.1.1.1.1.1.1.1.1.1.1.1.1.1.1.1.1.1.1.1.1.1.1.1.1.1.1.1.1.1.1.1.1.1.1.1.1.1.1.1.1.1.1.1.1.1.1.1.1.1.1.1.1.1.1.1.1.1.1.1.1.1.1.1.1.1.1.1.1.1.1.1.1.1.1.1.1.1.1.1.1.1.1.1.1.1.1.1.1.1.1.1.1.1.1.1.1.1.1.1.1.1.1.1.1h1.5l.1.1.1.1.1.1.1.1.1.1.1.1.1.1.1.1.1.1.1.1h1.3l.1.1.1.1.1.1.1.1.1.1.1.1.2.1.2.1.2.1h55.8l.1-.1.1-.1.1-.1.1-.1.1-.1.1-.1.1-.1.1-.1.1-.1.1-.1.1-.1.1-.1.1-.1.1-.1.1-.1.1-.1.1-.1.1-.1.1-.1.1-.1.1-.1.1-.1.1-.1.1-.1.1-.1.1-.1.1-.1.1-.1.1-.1.1-.1.1-.1.1-.1.1-.1.1-.1.1-.1.1-.1.1-.1.1-.1.1-.1.1-.1.1-.1.1-.1.1-.1.1-.1.1-.1.1-.1.1-.1v-6.7l-.1-.1-.1-.1h-3.7l-.1-.1-.1-.1-.1-.1-.1-.1-.1-.1-.1-.1-.1-.1-.7-.7-.1-.1h-1.6l-.1-.1-.1-.1-.1-.1-.1-.1-.1-.1-.1-.1-.1-.1h-45zm22.4 71.9c-3.8-.2-7.7-.7-11.6-.6-.9 0-1.7 0-2.6.1-.5 0-1 .1-1.5.1-.6 0-1.3.1-1.9.1h-3.6c-2.9-.4-5.8-.8-8.6-1.4-3.6-.9-7.3-1.5-10.4-3.5-1.7-1.1-3-2.7-4.3-4.3-.4-.4-.8-.8-1.1-1.2l-.1-.1-.1-.1c-.8-.8-1.6-1.6-2.3-2.6s-.9-2.3-1.2-3.5c-.4-1.9-.6-3.8-.7-5.8-.2-3.9.2-7.8 1.4-11.6.9-2.8 2-5.6 3.6-8 1.2-1.8 2.4-3.6 4.2-4.9 1.1-.7 2.4-1 3.6-1.7.3-.2.7-.4.9-.8.5-.9-.1-1.8-.7-2.5-.9-1-1.9-2.1-2.8-3.1-2.3-2.4-2.1-5.9-1.6-9 .4-2.7 2.2-4.3 4.7-5.3 1.8-.8 3.7-1.3 5.7-1.7 2.3-.5 4.7-1 7.1-1.2 3.6-.3 7.2-.6 10.8-.8 1.9-.2 3.7-.3 5.7-.3 2.7 0 5.5.1 8.2.1 5.1.1 10.3-.2 15.3.7 1.5.2 3 .3 4.4.8.4.1.6-.1.7-.4.2 0 .5.1.7.2 1.3.4 2.6 1 3.9 1.4 2.2.8 4.8 1.3 6.4 3.2 1.2 1.3 1.7 3.1 1.7 4.8.2 2.9-.8 5.7-2.6 7.9-.3.4-.7.7-1.2 1-.5.4-1.3.6-1.3 1.4 0 .4.2.7.5.9 1 .6 2.2 1 3.1 1.7 1.2 1.2 1.6 3.1 2.8 4.3l.1.1c-.3 2.6-.5 5.3-.5 8-2.7-4.2-5.5-8.7-10.2-10.8-.9-.4-1.8-1-2.9-1-2.3.4-1.4 4.4-1.1 6.1.4 2.3 1 4.5 1.8 6.7-3.6-4.3-4.6-6.7-10.2-8.8-1.4-.7-2.3.4-2.3 1.7v.2c.3 3.3 1.6 6.5 2.7 9.6 1.2 3.2 2.3 6.4 3.5 9.6.6 1.6 1.5 3.1 2.3 4.6 1.5 3.1 3.1 6.2 4.7 9.2.6 1.3 1.1 2.7 1.7 4 0 .1.1.2.1.3s.1.2.1.3c.2.4.3.9.5 1.3 0 .1.1.2.1.2v.1c.1.2.2.4.2.6 0 .1.1.2.1.3s.1.2.1.3.1.2.1.3c.1.2.2.3.2.5 0 0 0 .1.1.1 0 .1.1.1.1.2.1.1.1.3.2.4-.5.3-1 .4-1.5.5-.2 0-.4 0-.5.1-.1 0-.1 0-.2.1-.1 0-.2 0-.3.1-.2 0-.3.1-.5.1-.1 0-.2 0-.3.1s-.2 0-.3.1c-.1 0-.2 0-.3.1-.5.1-.9.2-1.4.2h-.6c-.1 0-.3 0-.4.1h-.2c-.2 0-.3 0-.5.1-2.5.2-5-.1-7.5-.2-1.6-.1-3.2 0-4.9.1s-3.3.2-5 .2c-.7-.1-1.5-.1-2.3-.1" class="st1"/><path d="M77.6 170.8c.4.3.5 1.1 0 1.5 0 0-.1 0-.1.1-.2.1-.4.2-.5.2-.4 0-.8.1-1.2.2-.1 0-.2.1-.4.1v.1c0 .3-.2.6-.5.8-.2.1-.4.2-.7.3.1.4-.1.9-.4 1.1-.6.3-1.1-.4-1.6-.5-1.2-.3-2.4 0-3.5.4-1.1.2-2 .6-2.7 1.3-.1 0-.2-.1-.3-.2-.7-.8.2-1.6.8-2.1-.1-.2-.1-.3-.1-.4-.1-.7.7-1 1.4-1.2.2-.2.5-.4.8-.5.5-.2 1.1-.2 1.6-.2.7 0 1.5-.1 2.2-.1 1.6-.1 3-.9 4.6-.9.2-.3.5-.2.6 0" class="st2"/><path d="M99 170c.9.2 1 1.4.3 1.9 0 0-.1 0-.1.1-1.1.9-2.3 2-3.8 1.6l-1.5-.3c-.5-.1-.9-.6-.8-1.1-.8-.5-1.6-.2-2.5-.1h-.3c-1 0-2.1.2-3 .5-.3 0-.6.1-.9.1-.3.6-1 .5-1.5.3-.4-.1-.8-.3-.9-.8-1.5 0-2.9.1-4.4.2h-2c-.6 0-1.1.1-1.7.3-.1.1-.2.2-.4.2-.1 0-.3-.1-.4-.2-.4-.5 0-1.1.5-1.3.6-.3 1.3-.5 2-.6s1.5-.1 2.2-.2c1.8-.2 3.6-.4 5.5-.2 1.1-.7 2.4-.4 3.6-.7h.1c1.5-.2 3-.5 4.5-.2.1 0 .2 0 .3.1.6.1 1.3.1 1.5.7v.1c1.3-.1 2.4-.7 3.7-.4" class="st2"/><path d="M111.8 170.5c.2.3.2.6.1.9-.1.2-.2.3-.4.4h-.1c-.2 0-.3.1-.5.1-.8.1-1.2.5-1.4.8-.1 0-.1.1-.2.2-.3.4-.6.7-.9 1h-.2c-.8-.1-1.4-.7-2-1.2-.2-.3-.4-.5-.7-.7-.6-.3-1.4-.4-2.1-.4-1.1-.4-2.4-.4-3.5 0 0 0-.1 0-.1.1-.1 0-.2 0-.3.1-.6.1-1.1.3-1.7.3-.4-.1-.6-.6-.5-.9-.4 0-.9.1-1.3.2-.2.1-.5.1-.7-.1-.4-.4-.1-.9.2-1.1l.6-.3c2.4-.7 5-.5 7.5-.5.7 0 1.5.2 2.2.3h.3c.3 0 .7.1.8.4 1.2-.1 2.5-.2 3.7-.1.4.1.9.1 1.2.5" class="st2"/><path d="M118.3 172.2c.2.3.2.6.1.9-.2.5-.6.9-1.2.5-.2-.1-.3-.3-.3-.5-.6-.4-1.3-.5-2-.6-.1 0-.1-.1-.2-.1s-.3 0-.4-.1-.2-.1-.2-.2c-.7-.2-1.5-.4-2.2-.5-1.8-.4-3.6-.7-5.4-.4-.6.8-1.5-.6-.4-1.2.2-.1.5-.2.9-.2 2.5-.4 4.9.2 7.3.7.6.1 1.1.2 1.7.4.4.1.9.3 1.3.5.5-.2 1.1.1 1 .8" class="st2"/><path d="M132.3 175.8c.2.8.4 2.1-.2 2.7-.3.3-.7.3-.9 0-.2-.2-.3-.4-.4-.6-.4-.5-1-.7-1.5-.9-.3-.2-.6-.3-.9-.4-.1-.1-.2-.1-.3-.2-1-.6-1.5-1.9-2.6-2.3-.8-.4-1.7-.4-2.5-.7-1.2-.3-2.4-.5-3.6-.5h-1c-.3 0-.7 0-1-.1-.4-.2-.5-.6-.4-1-.3-.1-.7-.1-1-.2-.4-.2-.4-.9 0-1.2.1-.1.2-.1.3-.1 2 0 4 .1 5.9.5 1.8.2 3.5.5 5.2 1 .3.1.5.2.8.2.7.2 1.3.4 1.9.8.1.1.2.1.2.2.7 1 1.7 1.7 2 2.8" class="st2"/><path d="M91.7 186.1c.5.1.6.7.4 1.1-.1.2-.2.3-.5.4H91c-1.5 0-3.1-.2-4.6-.3H86v.1c0 .3 0 .5-.2.7q-.3.3-.9.3c-4.4-.2-8.9-.2-13.2-1.3-.8-.2-1.7-.5-1.2-1.5-1.2-.6-2.5-1-3.6-1.7-.5.9-1.1.1-1.7-.3-.7-.6-1.3-1.5-1.6-2.4-.7 0-.9-.8-.9-1.4-.5-1.1-.3-2.3-.2-3.5.1-.5.2-.9.3-1.4.1-.3.2-.6.4-1s.5-1 1-.8c.3.1.4.4.4.7 0 .4-.1.9-.2 1.3l-.3 1.8c.2.9.4 1.7.4 2.6l.6.6c.1.2.1.4.3.6s.3.2.5.2l.2.2c1.1 1.2 2.7 1.9 4.3 2.3.5.2 1.1.4 1.6.6 1.1 0 2.2.4 3.3.5q3 .45 6 .6c.7 0 1.5-.1 2.2-.1 1.6.2 3.2.2 4.7.2H90c.1 0 .1.1.1.2.1.1.1.3.1.6.7 0 1.1.1 1.5.1" class="st1"/><path d="M136 176.2c.8 1.3.5 2.9-.3 4.2-.3.5-.7 1.5-1.4 1.1-.4.5-.9 1-1.4 1.4-.8.6-1.5 1.3-2.5 1.6-.2.3-.6.3-.9.3-.6.1-1.1.2-1.7.3-2.9.5-5.8 1-8.8 1.3-1.5.1-3.2.6-4.7.8-.8.2-1.6.3-2.4.2-.8.3-1.7.4-2.6.5-1.9.3-3.8.7-5.8.6-1.2-.1-2.3-.3-3.4-.5h-1.9c-2.3-.1-4.5-.4-6.8-.5h-.3c-1.7.3-3.3.5-5 .4H86c-.6 0-1.2-.1-1.8-.1-.4 0-.9.1-1.3-.1l-.2-.2c-.1-.3 0-.8.4-.8 1.5.1 3-.4 4.5-.5.2-.3.6-.4 1-.4.6-.1 1.1-.2 1.7-.3.5-.1 1-.1 1.5-.2 1.1 0 2.3-.1 3.4-.1.6 0 1.1.1 1.7.1.9-.1 1.9-.2 2.9-.2h4.4c1.1.1 2.3.3 3.4.4.8-.2 1.5-.4 2.3-.7 2-.1 4-.2 6-.4 2.2-.2 4.4-.8 6.6-1.1 1.8-.3 3.6-.5 5.3-1.1.7-.2 1.4-.6 1.9-1.1.3-.2.6-.5.8-.8.2-.1.3-.2.4-.4.5-.3 1-.7 1.4-1.2 1.3-1.1.4-2.7-.4-3.8-.5-.6-1.1-1.2-1.8-1.6-.2-.1-.3-.2-.5-.2-.5-.3-1.1-.6-1.6-.8-2-.8-4.1-1.3-6.1-1.6-1.5-.2-2.9-.5-4.3-.7-1.7-.2-3.6-.2-5.2-.4-1.3-.2-2.5-.4-3.7-.7-.7 0-1.6 0-2.3.1-2.2.1-4.4.3-6.5.4s-4 0-6 .2c-.4 0-.9.1-1.3.2-.8.1-1.7.2-2.5.2-.4.1-.8 0-.9-.3-.1-.1-.1-.2-.1-.4-2.4.4-4.8.1-7.3.4-1.1.1-2.2.3-3.4.4-.7.1-1.4.2-2.1.2-.3 0-.7 0-.9-.3-1.7 0-3.3.3-4.9.8-.3.3-.7.3-1 .5s-.6.4-.8.6c-.4.3-.9.6-1.3 1-.3.2-.6.5-.9.8l-1 1c-.2.2-.5.4-.7.6-.3.2-.6.3-.9 0-.1.1-.2.1-.4.1s-.3-.2-.4-.3c-.1-.3-.1-.5-.1-.8-.1-.3-.1-.7.3-.8.2-.1.3 0 .4.1.6-1 1.3-1.9 2.1-2.6 1.1-1 2.4-1.6 4-1.5 1-.3 2.1-.6 3.1-.8.9-.2 1.9-.3 2.8-.4h1.1c1.2-.1 2.3-.1 3.5-.2.7 0 1.3-.1 2-.2.8-.1 1.9-.7 2.4.1.9-.1 1.8-.1 2.7-.2 1.5-.1 3-.5 4.5-.8.7-.1 1.5-.3 2.2-.3 1.9-.2 3.9-.2 5.8-.1.7 0 1.3.1 2 .1 1.4.1 2.8.2 4.1.2.8.1 1.7.2 2.5.3 1 .1 2.1.2 3.1.3.5.1 1.3 0 1.5.6 1.6.2 3.2.1 4.7.3.4-.3.9-.2 1.3-.2 1.6-.1 3.2.1 4.7.4 3 .6 6.1 1.5 8.6 3.4.6-.3.8.3 1.1.7.9 1 1.8 2.2 2.5 3.5" class="st1"/><path d="M130.7 178.3c.5.3.6 1.1.3 1.6-.1.2-.2.3-.4.4-.2.3-.5.6-.8.8-.6.5-1.2.9-1.9 1.1-1.7.6-3.5.8-5.3 1.1-2.2.3-4.4.8-6.6 1.1-2 .3-4 .4-6 .4-.7 0-1.5.1-2.2.1-1.2.1-2.3.1-3.5.2h-4.4c-1.5 0-3 .1-4.5.1-1.1 0-2.3.1-3.4.1h-3.4c-1.6 0-3.2-.1-4.7-.2-.4-.1-.8-.1-1.3-.2-1.4-.1-2.7-.1-4.1-.3-1.4-.1-2.7-.5-4.1-.7-1.2-.1-2.4-.2-3.7-.5-1.7-.4-3.3-1-4.3-2.3l-.2-.2c-.2 0-.3 0-.5-.2l-.3-.6c-.2-.7 0-1.4 0-2.1.1-.7.3-1.3.7-1.8.6-.7 1.6-1.2 2.7-1.3 1.7-.4 3.5.1 5.1.6 1.4-2.2 4.2-2.9 6.6-2.6.8 0 1.6-.1 2.5-.1.9.1 1.8.3 2.6.9.5-.6 1.1-.9 1.8-1.2 1-.3 2.1-.5 3-.5h.3c1.2.1 2.2.9 3 1.6.2.2.4.3.5.5.8-.4 2.4 0 3.2 0 .4-1 1.2-1.8 2.2-2.3l.1-.1c1.1-.4 2.4-.5 3.5 0 .3.1.6.3.9.5l.1.1c.3 0 .6.1.9.2 1 .4 1.8 1.2 2.3 2.1.3-.2.6-.4.8-.6.3-.3.6-.6.9-1l.2-.2c.4-.4.9-.7 1.4-.8.2-.1.3-.1.5-.1h.1c.9-.1 1.9.2 2.8.3.1 0 .3.1.4.1s.1 0 .2.1c.6.3 1.5 1 2.2 1.9 1.6-.9 3.7-.8 5.4-.4.8.1 1.6.4 2.3.9.8 0 1.7 1 2 1.7h.8c.2 0 .5 0 .7.1.3.1.6.2.9.4.8.3 1.3.8 1.7 1.3" style="fill:#ecd002"/><path d="M73.7 183.1c-.3-.3-.4-.7-.5-1.1-.4-1.1-.9-2.3-1.1-3.5-.1-.9-1-2.4.1-2.9 1.1-.2.9 1.4 1.2 2.1.2 1.4.8 2.7 1.3 4 .5.7 0 2-1 1.4m2.4-.4c-.2-.2-.4-.5-.4-.7l-.6-2.1c-.1-.7-.6-1.4-.2-2.1.5-.7 1.2-.2 1.3.5.3.9.6 1.7.8 2.6.2.5.3.9.2 1.4s-.7.7-1.1.4m2.9-3.9c-.6-.2-.6-.9-.7-1.4-.2-.9-.4-1.7-.7-2.5-.2-.5-.5-1-.5-1.6 0-.5.6-.9 1-.5 1 1.4 1.4 3 1.9 4.7.1.5-.3 1.5-1 1.3m2.5-1c-.7-.3-.6-1.2-.8-1.8-.3-1.1-.8-2.2-1-3.3-.1-.5.3-1 .8-.9.3.1.5.4.6.7.4 1.1.8 2.2 1.2 3.2.1.4.3.7.3 1.1-.1.7-.6 1.3-1.1 1" class="st4"/><path d="M84.7 184c-.6-.6-.5-1.5-.7-2.2-.2-.8-.5-1.5-.8-2.3s-1.1-2-.7-2.8c.3-.4.9-.3 1 .1.8 1.6 1.7 3.2 2.1 5 .1.6.4 1.2.3 1.7-.2.6-.8.9-1.2.5m3 .2c-.7-.3-.7-1.2-1-1.8-.6-1.6-1.2-3.1-1.8-4.7-.1-.4-.3-.9-.1-1.3.4-.7 1.1-.4 1.3.2.6 1.3 1 2.7 1.6 4 .3 1 1.1 1.9 1 3-.1.4-.6.8-1 .6" class="st4"/><path d="M88.1 183.9c-.5-.9-.4-1.9-.8-2.8-.4-1.2-1-2.3-1.4-3.5-.2-.5-.4-1.6.4-1.7.6.1.6.8.9 1.2 1 1.9 1.9 4 2.1 6.2.1.8-.8 1.3-1.2.6m6.3-3.2c-.5-.3-.6-.9-.8-1.4s-.4-1.1-.5-1.5c-.3-.7-.6-1.4-.9-2-.2-.4-.4-.8-.1-1.2.2-.2.4-.4.7-.3s.4.4.6.7c.4.7.8 1.4 1.1 2.2.3.7.6 1.4.8 2.1.1.3.1.7 0 .9-.2.4-.6.7-.9.5m2.3-.8c-.5-1.1-.9-2.1-1.4-3.2-.2-.8-.7-1.6-.7-2.5 0-.4.6-.7.9-.4.5.8.8 1.7 1.2 2.5.4 1 1 2 1.3 3 .3 1.1-.8 1.6-1.3.6" class="st4"/><path d="M98.3 181.1c-.4-.4-.5-.9-.6-1.4s-.2-.9-.4-1.4c-.3-1.1-.7-2.1-1.1-3.1-.2-.4-.4-.9-.3-1.3.1-.5.7-.8 1-.3 1 1.8 1.6 3.9 2.3 5.9.1.3.3.6.2 1 0 .5-.7 1.1-1.1.6m-8.5-4.8c-.5-.9-.8-1.9-1.2-2.9-.2-.5-.4-1.2.2-1.5.2-.1.4 0 .6.1.4.6.6 1.3.9 1.9s.6 1.2.7 1.8-.7 1.2-1.2.6" class="st4"/><path d="M100.3 185.6c-.3-.1-.4-.4-.5-.7-.2-.6-.4-1.1-.6-1.7-.2-.8-1.1-2-.6-2.8.5-.6 1 0 1.2.5.4.9.9 1.8 1.2 2.8.1.4.3.9.2 1.4 0 .4-.5.7-.9.5m-2.5-.1c-.6-.4-.6-1.3-.9-1.9-.2-.5-.3-1-.5-1.5-.1-.3-.1-.5-.1-.8.1-.3.5-.6.8-.4s.4.6.5.9c.4.8 2 3.9.2 3.7m8.1-4.7c-.4-1.2-.6-2.4-1.1-3.6-.2-.8-.7-1.6-.6-2.4.1-.2.3-.4.5-.5.2 0 .5.1.6.3.3.6.5 1.2.7 1.8.4 1.1.8 2.3 1.1 3.4.1.6.6 1.2.3 1.8-.1.2-.3.4-.6.4-.5.1-.7-.7-.9-1.2m3.6 1.5c-.7-.2-.8-1.2-1.1-1.8-.6-1.8-1.3-3.5-1.7-5.3-.1-.5-.1-1.4.6-1.3.3.1.4.3.5.6.2.5.3.9.5 1.4.4 1.3.9 2.5 1.3 3.8.2.6.6 1.2.6 1.9.1.4-.2.8-.7.7" class="st4"/><path d="M110 182c-.3-.3-.3-.8-.4-1.2-.2-.8-.5-1.5-.8-2.3-.4-.9-.9-1.8-1.2-2.7-.2-.4-.3-.9-.1-1.3.2-.3.6-.4.9-.1.2.2.2.5.4.7.8 1.7 1.8 3.3 2.2 5.1.1.5.4 1 .2 1.5s-.9.8-1.2.3m-7.2-6.1c-.6-.9-1-1.8-1.5-2.8-.6-.9.5-2.1 1.1-.9.4.7.8 1.3 1.1 2 .2.5.7 1.3.1 1.8-.3.3-.6.2-.8-.1m11.5 3.6c-.3-.3-.4-.7-.6-1.1-.3-.9-.4-1.6-.7-2.4-.5-1.1-1.1-2.2-1.6-3.3-.2-.4 0-.9.4-1s.7.4.9.8c.9 1.4 1.7 2.9 2.2 4.5.2.6.5 1.1.6 1.7 0 .7-.7 1.3-1.2.8m5.7.2c-.5-.6-.4-1.5-.7-2.1-.3-1-.8-1.9-1.2-2.9-.1-.3-.2-.7-.1-1 .1-.4.6-.6.9-.4.2.3.3.6.6.9.7 1.1 1.1 2.3 1.5 3.5.1.5.3 1 .3 1.5-.1.6-.8.9-1.3.5m2.9.1c-.5-.1-.7-.7-.8-1.2-.2-.7-.4-1.5-.7-2.2-.2-.8-1.7-3.1-.1-3.2.5.1.6.8.9 1.1q.75 1.35 1.2 2.7c.2.5.3.9.4 1.4.2.7-.3 1.5-.9 1.4" class="st4"/><path d="M123.3 179.8c-.3-.4-.4-.9-.5-1.3q-.45-1.8-1.2-3.6c-.1-.4-.3-.8-.2-1.2s.7-.7 1-.3.5.8.7 1.3c.4 1 .8 2 1.1 3 .2.7.7 1.8-.1 2.4-.3 0-.6 0-.8-.3m-7 5.3c-.6-.3-.6-.9-.8-1.4-.4-1-1.1-1.9-1.4-2.9-.2-.5-.4-1.1 0-1.5.6-.5 1 .3 1.2.7.5 1.2 2.4 3.4 1.9 4.7-.2.3-.6.6-.9.4m10.8-2.9c-.5-.5-.6-1.2-.9-1.8-.2-.6-.6-1.2-.3-1.8.1-.2.3-.4.6-.4s.5.3.6.5c.2.3.4.7.5.9.3.6.8 1.2.7 1.8-.1.7-.7 1.3-1.2.8m-8.6 1.9c-.7-1.1-1.2-2.4-1.7-3.6-.1-.4-.4-.8-.3-1.2.2-.8 1-.7 1.2 0q.6 1.35 1.5 2.7c.3.4.5.9.6 1.4 0 .6-.8 1.2-1.3.7" class="st4"/><path d="M64.6 178.9c-.2-.3-.2-.8.1-1 .8-.8 1.6-1.5 2.5-2.1 1.1-.7 2.5-1.2 3.8-1.4.9.1 1 1.4.3 1.8-.2.1-.5.2-.7.2-1.7.3-3.3 1.2-4.6 2.3-.4.3-1 .8-1.4.2m4.8-.2c-.2-.1-.3-.4-.3-.6 0-.8.9-1.1 1.5-1.4.9-.4 2.8-1.3 3.7-.5.3.3.3.9 0 1.2-.3.4-.9.4-1.4.4-.4 0-.7.1-1 .2-.5.1-1.1.3-1.6.6-.3.1-.6.3-.9.1" class="st5"/><path d="M74.2 176.3c-1.7-1.3 2.2-3.2 3.3-3.4 2.1-.4 4.3-.9 6.4-.5 1 .2 2.7.7 2.2 2-.5 1.1-1.4 0-2.2-.2-.9-.2-1.8-.2-2.7-.1-1.9.3-3.9.3-5.5 1.4-.3.2-.5.3-.7.6-.2.1-.5.3-.8.2m5.6 5.1c-.7-.6.1-1.5.4-2.1.5-.8 1.1-1.5 1.9-2 .8-.4 1.6-.8 2.5-1 1.3-.3 2.6-.2 3.9.1.8.1 1.9.5 1.6 1.5s-1.1.6-1.8.3c-1.2-.3-2.4-.4-3.6-.1-.6.2-1.3.4-1.9.7-.6.4-1.2.9-1.6 1.5-.4.5-.7 1.4-1.4 1.1" class="st5"/><path d="M86.3 174.5c-.4-.1-.6-.7-.3-1 .2-.3.4-.4.7-.6 1.1-.6 2.3-1 3.5-.9.8 0 1.8-.2 2.5.4.4.5.3 1.4-.4 1.6-.4.1-.9-.1-1.3-.2-.7-.1-1.4-.1-2.1-.1-.5 0-1.1.2-1.6.4-.3.2-.7.5-1 .4m3.7 3.6c-.8-.3-.3-1.2 0-1.6.5-.6.9-1.3 1.6-1.7 1-.6 2.1-.6 3.2-.8.6-.1 1.2-.2 1.8-.2.7 0 1.7.5 1.5 1.4s-1 .8-1.6.6c-.9 0-1.6.1-2.4.2-1.6.1-2.3.6-3.3 1.8-.2.1-.5.4-.8.3m9.8-1.1c-1.8-.5-.7-3.5 1-2.6 1.3.7.6 3-1 2.6m-.5-3.1c-.4-.2-.5-.7-.3-1.1.5-.6 1.3-.8 2-1.2.8-.3 1.7-.3 2.5-.4 1 0 2.4.8 1.9 1.9-.2.4-.6.7-1 .5s-.7-.4-1-.5c-.9-.2-2-.1-2.9.3-.3.1-.6.2-.9.4.1.1-.1.1-.3.1m9.4 3.3c-.5-.1-.7-.6-1.1-.8-1.5-.4-3.1.2-4.6.5-.1 0-.3.1-.4 0-.3-.1-.5-.4-.4-.7.1-.7 1.2-.9 1.8-1.2.7-.2 1.3-.5 1.9-.7.6-.1 1.3-.1 1.9 0s1.1.5 1.5.9c.2.2.5.4.6.7.2.7-.5 1.5-1.2 1.3m1.5.3c-.2-.7.4-2.3 1.3-1.7.9 0 1.1 1.2.6 1.8-.6.6-1.6.9-1.9-.1m-14 6.8c-.7-.2-.9-1.1-.9-1.7 0-.7-.2-1.8.7-1.9.9.1.6 1.3.8 1.9.2.4.4.8.2 1.2-.1.4-.4.6-.8.5m20.6-6.8c-1.1-.3-.6-1.9-.1-2.5.4-.5 1.1-.8 1.7-1.1.5-.3 1.1-.5 1.7-.4.7.2 1 1.1.5 1.7-.2.3-.7.4-1 .4-.9.1-2 .4-2.1 1.5-.1.3-.4.5-.7.4m7.2-1.3c-.4-.2-.9-.3-1.3-.6s-.4-.9-.1-1.3.9-.3 1.3-.3c.6.1 1.2.3 1.3 1 .1.6-.5 1.5-1.2 1.2m-9.2 5.3c-.4 0-.7-.1-1.1-.2-.3 0-.6 0-.8-.3-.3-.4-.2-1.1.2-1.3.8-.3 1.6 0 2.5-.2.8-.1 1.4-1.1 2.2-.7.3.2.4.6.4 1 0 .5-.5.8-.9 1-.8.6-1.7.8-2.5.7m-1.4-7.2c-.2-.2-.5-.1-.7-.1-.8 0-1.1-1.2-.5-1.7.2-.3.6-.4.9-.2q.6 0 1.2.3c.9.6.2 2.2-.9 1.7M124 183c-.5-.5-.5-1.3-.5-1.9 0-.4 0-.9.3-1.3.2-.3.6-.3.9 0 .3.5.3 1.1.5 1.6.1.4.3.9.1 1.3-.3.4-.9.7-1.3.3" class="st5"/><path d="M29.3 160c-.1.1-.2.2-.2.3-.3.6.1 1.2.3 1.8-.1-.4-.3-.7-.4-1.1s0-.8.3-1m.7 8.4h-.3l.3-.9zm1-7.4c.3.4.7.7 1 1-.4-.1-.7-.3-1.1-.3-.2-.3-.3-.9-.4-1.3.2.2.3.4.5.6m7.9-6c.9.5 1.6 1.3 2.3 2-1-.7-1.9-1.5-2.8-2.3.2.1.3.2.5.3m.5 9.6v.6c-1.2-.1-2.3-.4-3.5-.7v-.4c.9.2 1.8.3 2.6.5zm6.9-7.7c.2.7.1 1.1-.2 1.3.1-.3.1-.7.1-.9q0-1.05-.3-2.1c.2.5.4 1.1.4 1.7" class="st6"/><path d="M51.2 155.7c.1 1.9.3 3.8 0 5.7 0 .3-.3.7-.7.7-.2 0-.3-.1-.4-.2-.1 2-.2 4-.5 6-.3 4.3-3.4 6.2-7.4 6.4-2.6.3-5.3.5-7.9.4-2.2-.2-4.5-.5-6-2.3-1-.8-2.8-3.9-.6-4.2l.1-.1s.1-.1.2-.1c.3-.2.7 0 .8.3H30c0-.3 0-.6-.1-.9-.1-1.7-.4-3.3-.5-5 0-.1 0-.2-.1-.3-.2-.6-.5-1.2-.3-1.8 0-.1.1-.2.2-.3s.2-.2.4-.2c.5 0 .7.2.8.6.2.4.2 1 .4 1.3.4.1.7.2 1.1.3.6.2 1.2.5 1.7.7.7.3 2.1.5 2.2 1.4v.4c1.2.2 2.3.6 3.5.7v-.6c-.3-3.4-2-6.5-2.9-9.7 0-.9.9-1.1 1.5-.5.1.1.3.2.4.3.9.8 1.8 1.6 2.8 2.3.2.1.4.3.6.4 1 .4 3.4 1.4 4.2.7.3-.2.3-.6.2-1.3 0-.5-.1-1.1-.4-1.8-.8-2.1-2.5-4.4-2.2-5.8 0-.2.1-.3.2-.5.8-.9 2.1-.3 3.1-.2.3 0 .7.1 1 .3.5-.2 1 .2 1.5.4.9.5 1.5 1.3 1.7 2.3.4 1.5.2 2.9.2 4.2" class="st7"/><path d="M58.6 148.4c.1 1.5.1 3.1.1 4.6-.1 0-.1.1-.2.1-.3.3-.2.8.1 1-.4 4.1-.7 8.1-1 12.2-.1 2.1-.3 4.2-.9 6.2-.4 1.1-1 2.1-1.9 2.8-2.4 1.3-5.2 1.7-7.8 2.2-1.5.4-3 .8-4.6.9-1.5.3-3 .5-4.5.4-2.2 0-4.4-.4-6.6-.4-1.1 0-2.2 0-3.2-.6-.2-.1-.3-.3-.4-.5-1.4-.4-2.6-1-3.7-1.9-1.4-.9-2.7-2-3.6-3.5-1.2-2.2-1.6-4.8-1.5-7.3v-.7c0-.4.2-.8.5-1 .5-.3 1 .4.9.9 1 .6 2 1.1 3 1.7.1.1.2.1.3.2.4.2.7.5 1.1.7l.1.1.1.1c.1.1.2.1.3.2l.6.3c.1.1.2.1.3.2s.2.1.3.2c.1 0 .2.1.3.1s.2.1.3.1.2.1.3.1c.1.1.2.1.3.1s.2.1.3.1l-.1.1c-2.2.3-.4 3.4.6 4.2 1.5 1.8 3.8 2.2 6 2.3 2.6.1 5.3-.2 7.9-.4 4-.2 7.1-2.1 7.4-6.4.3-2 .4-4 .5-6 .1.1.2.2.4.2.4 0 .7-.3.7-.7.3-1.9.1-3.8 0-5.7 0-1.3.2-2.7-.1-4.1-.2-1-.8-1.8-1.7-2.3-.4-.2-1-.6-1.5-.4-.3-.1-.7-.2-1-.3-1-.1-2.3-.7-3.1.2-.1.1-.2.3-.2.5 0-.1-.1-.1-.1-.2s-.1-.1-.2-.2-.1-.2-.2-.2c-.1-.1-.2-.2-.2-.3s-.1-.1-.1-.2c-.2-.3-.4-.6-.6-1-.5-.9-.8-1.9-1.2-2.9-1.1-1.8-.2-3.1 1.9-2.8 2.3.3 4.5 1 6.8 1 1.6 0 3.2-.3 4.7.4 1.5.6 3.2 1.3 3.7 3 .2.9.3 1.7.4 2.6" style="fill:#7b7a6c"/><path d="M148 148c.4.8-.3 1.4-.9 1.8-1 .7-2 1.3-2.9 2.1-1.2.9-2.2 2-3.3 3-.1.1-.2.2-.3.2l-1.2.9c-.4.3-.8.6-1.2.8-.4.3-1.1.9-1.6.7h-.2c-3-.1-6 .3-9 .6-2.3.1-4.7.1-7 .1-3.2 0-6.3-.4-9.5-.6-2.8-.1-5.5-.1-8.3-.2-4.5.1-9.1-.4-13.6-.4-3.7.1-7.4-.6-11.1-.9-1.2 0-2.4-.2-3.6-.3-2.4-.1-4.9 0-7.3-.5-2.2-.5-4.5-.8-6.7-1.1-.5-.1-1.1-.1-1.6-.3-.1 0-.1-.1-.2-.1-.3-.3-.3-.7-.1-1 0-.1.1-.1.2-.1.1-.1.3-.1.5-.1v-1c0-1-.1-2-.1-2.9.1-.4-.1-1.1-.1-1.8-.1-.1-.1-.3-.1-.4 0-.2 0-.3.1-.4 0-.7.2-1.2.9-1.3.5.1.7.4.7.9h.8c1.8-.1 3.7-.3 5.5-.5 1-.1 1.9-.2 2.9-.2 1.3 0 2.5.4 3.7.5 3.6.4 7.2.8 10.9.8 1.7 0 3.4-.2 5.1 0 2.7.1 5.4.5 8 .7 3.6.4 7.3.4 10.9.3 8.2 0 16.5 1.1 24.7.7 3.2-.2 6.5-.2 9.7-.3l4.2-.3c.4.2.9.2 1.1.6" class="st6"/><path d="M155.7 148.1c1 .1 1.9.2 1.7 1.5-.4 1.7-.6 3.4-.7 5.1-.1 1.1 0 2.4-.6 3.4-1.3 2-4.4 2.7-6.6 3.4-.6.2-1.2.4-1.7.7-.4.2-.8.5-1.3.4-.8-.2-.9-1.3-1-2-.1-1-.2-2-.6-3-1.2-.1-2.3-.1-3.5-.1-.5 0-1.2.1-1.6-.3-.8.6-1.4-.4-.8-1l.1-.1 1.2-.9c.4-.2.8-.5 1.2-.7 1.5-1.1 3-1.8 4.5-2.9.5-.4 1-.9 1.5-1.4 1-.9 2.2-1.6 3.5-2.2 1.6-.5 3.2-.1 4.7.1" class="st7"/><path d="M204.3 74s0-.1.1-.1h-.1c-.1 0-.1 0 0 .1-.1 0 0 0 0 0m-.6 3.3c-1-.8-1.4-2.1-1.8-3.3s-.5-2.4-.7-3.6c-.4-2.3-.3-5 1-7.1 1.6-2.4 4.1-1 5.1 1.1 1 2 1.1 4.3 1.1 6.4-.2 2.2-.5 4.7-2.1 6.4-.7.7-1.9.8-2.6.1m-3.5-19.7c-.7-.4-.9-1.4-1-2.2-.6-.8-.4-2.5-.1-3.4s1.4-1.4 2.1-.6c.7.9.8 2.1.9 3.2s-.3 3.7-1.9 3M9.9 194.2c.2.5.5 1 .3 1.5-.4 1.2-1.9.8-2.8 1-1.1.1-2.3.6-3.4.5q-.45-.15-.6-.6c-1.2-.6-1.3-5.2-1.5-6.6 0-1.2-.4-5 1.8-3.8 1.5 1.2 2.5 2.8 3.9 4.1.9 1.1 1.6 2.5 2.3 3.9m10.1-5.8c1.2 1.8 2.3 3.2-.6 3.9-.6.2-1.2.3-1.8.5-.5.1-1.1.2-1.4-.3-1.3.7-1.8-3.4-2.1-4.2-.4-1.6-.6-3.2-.5-4.8.1-.9.2-2.5 1.3-2.5 1.3 0 3.1 4.5 3.9 5.6q.6.75 1.2 1.8m14.5-1.9c4.4 3.4 1.2 4.4-2.6 4.9-.9.1-1.8.5-2.7.3-.6 0-.7-.7-.8-1.2-.1-1.1-.2-2.2-.2-3.3-.1-1.3 0-2.6-.1-3.8 0-.4-.1-.9.3-1.3.5-.5 1.2 0 1.5.4.5.5.9 1 1.4 1.5.9.9 2.1 1.7 3.2 2.5m100.4-20.1c.1.9.1 1.9.1 2.8 0 .4 0 .8-.2 1.1-.1.2-.4.4-.7.4-.2.2-.5.2-.8.1h.1c-1.2-.6-2.5-1-3.8-1.5-1.2-.4-2.3-1-3.5-1.4-1-.3-2.1-.6-3.1-.8-1.3-.3-2.8-.5-4.1-.7-5.3-.8-10.8-1-16.2-1-3.7 0-7.4.1-11.1.1-2 .2-3.9.7-5.9.7-.2 0-.4.1-.6.1-.1.1-.3.2-.5 0-.7-.5.3-2.4.4-3.2.4-1.6 1.4-5.3 3.1-5.8.8-.2 1.5 0 2.3.1 2.2.2 4.4.5 6.6.6 2.2.2 4.4 0 6.7.1 1.5 0 2.9 0 4.4.2 1.1.1 2.3.1 3.4.1 4 .3 8.1.4 12.2.2 2.1-.1 4.3 0 6.4 0 1 0 2.1 0 3.1.4 1 .6 1.1 2 1.3 3.1.1 1.4.3 2.9.4 4.3m-12.5 35.9c0 1.2-.9 1.3-1.9 1.4s-1.9.3-2.9.5c-.5.1-1.2.4-1.6-.2-.4-.4-.6-.9-.8-1.4-.6-1.3-1.1-2.7-1.4-4.1-.1-1-.7-3.3.8-3.4.4 0 .7.2 1 .4.7.5 1.3 1 1.9 1.5 1.3 1 2.4 2.3 3.5 3.4.4.4.7.8 1 1.2.2.2.3.4.4.7m11.8-3.2c.5.9-.2 1.8-1.2 1.8-.8.2-1.6.3-2.5.4-.8.1-1.7.2-2.5.5-.7.2-1.7.8-2.1-.2-.7-2.8-1.4-5.6-1.4-8.5 0-1.2 1-1.6 1.9-.9 2.9 2.1 5.8 4.1 7.8 6.9m13.2-.9c.2 1.2-.8 1.5-1.8 1.4-.8 0-1.5 0-2.3.2-1 .1-2 .5-3 .6-.3.1-.6-.2-.8-.4-1.1.2-.9-1.3-.8-2 .2-1.6.5-3.2.7-4.9.2-1-.2-2.9 1.1-3.3.9-.2 3.3 3.1 3.7 3.8.6 1.2 1.3 2.3 2.2 3.3.4.5.9.7 1 1.3" style="fill:#c3a3fc"/><path d="M86.6 55.1c1.9 1.7 4.2 2.9 6.5 4-6.6 3.1-7.1 4-14.3 4.4 0-3.9-1.4-7.9-4.1-10.8-3-3.1-7.6-3.7-11.7-3.4-2.9.2-5.8 1.2-8.4 2.6-4.1 2.2-5.5 7.1-5.7 11.5-1.5-.1-3-.4-4.5-.8-2.7-.7-5.4-2.1-4.7-5.3.7-3.6 2.6-5.8 5.8-7.5 2.2-1.1 4.2-2 6.5-2.8 3.9-.9 8-.3 11.9-.4 2.6 0 5.2 0 7.8.5 1.4.3 2.7.8 4 1.4 2.8 1.3 5.5 2.7 8 4.3.9.6 2 1.5 2.9 2.3" class="st5"/><path d="M60.7 58.4c1 1.4-.9 2.8-2.2 2.9-1.4.1-1.5-1-1.5-2 .4-.1.5-.6.7-.9.1-.2.4-.4.6-.5.8-.4 1.8-.1 2.4.5m69.8 2.2c.9 1.2-.2 2.8-1.6 2.9-2.8.2-2.3-3.1-.5-4.1 1 .1 1.6.4 2.1 1.2" class="st5"/><path d="M166.4 52.6c2 .9 3.8 2.1 5.8 3-3.7 3.6-6.8 5.5-11.8 6.8-2 .7-4.1 1.2-6.2 1.7.6-.4.3-1.3.1-2-.7-2.5-2.1-4.7-3.7-6.6-.5-.7-1.1-1.3-1.7-1.8-1.4-1.4-2.9-3-4.9-3.7s-4.2-.7-6.3-.7c-2.5.1-5 .6-7.3 1.7-2.8 1.3-6.7 2.7-8.5 5.3-1.1 1.4-2.8 6.4-2.1 8.7-.8-.1-1.5-.2-2.3-.4-2.5-.5-5.7-1.2-7.6-3.2-1.2-1.5-1.2-3.5-.3-5.1 2.4-4.6 5.3-5.7 10-7.1 3.5-1 7.1-2.1 10.8-2.4 1.4-.1 2.9-.2 4.3-.1 2.1.1 4.1.4 6.2.6 1.7.2 3.5.2 5.2.5 2.4.4 4.8.6 7.2 1 2.5.5 4.9 1.3 7.4 1.8 2.1.5 3.9 1.1 5.7 2M78 126.3c-.2.2-.3.4-.5.6l-2.4 2.7c-1.2 1.2-2.1 2.9-3.8 3.5-1.2.4-3.4-2-4.4-2.7-.9-.8-1.8-1.6-2.6-2.5-.4-.5-.9-.9-1.3-1.4l-.6-.6c2 .1 3.9 0 5.9.1 3.3-.1 6.5.1 9.7.3m25.4 0c-.3.4-.6.8-.9 1.1-1.4 1.6-4.4 5.9-6.5 5.9-.6-.1-1.2-.4-1.7-.7-1.5-1-2.8-2.2-4.1-3.5-.8-.9-1.6-1.8-2.3-2.7 5.1 0 10.3 0 15.5-.1m29.5-8.3c0 .6-.1 1.2-.2 1.8-.5 2.1-1.3 4.2-2.4 6-.8 1.2-2 2.4-3.5 2.5-2.3.1-4.5-.8-6.5-1.9-1.5-.7-3-1.3-4.6-1.9.3-.1.5-.1.8-.2 2.6-.4 5-1.3 7.3-2.4 3.1-1.1 6.1-2.5 9.1-3.9" class="st5"/><path d="M153 94.4c1.4 4.8 1.7 10.4-.3 15.1-1.2 2.3-3.2 4.2-5.5 5.3v-.2c.2-1 .3-1.9.5-2.8.4-3 .1-6.1-.1-9.2-.1-1.1-.2-2.2-.4-3.4-.1-.4-.1-1-.5-1.2-.3-.2-.8.1-.8.4-.1.7.1 1.4.2 2q.3 2.85.3 5.7c.1 2.7-.1 5.3-.7 7.9 0 .4-.2.8-.3 1.3-1.4.3-2.8.4-4.2.4-1.1 0-2.3 0-3.4-.3 2.1-1.3 2-4.1 2.1-6.3.1-2.6.1-5.2.1-7.8 0-2.5-.1-5.1.6-7.5.4-1.4 1.2-2.6 2.2-3.7.9-.9 1.7-2 3-2.4 1.6-.4 3.1.6 4.2 1.6 1.5 1.4 2.4 3.2 3 5.1" style="fill:#de8ee1"/><path d="M103.2 99.5c2.7 0 3.1 2.4 1.7 4.3-1.1 1.6-2.8 2.6-4 4-1 .9-2 2.5-3.6 2.2-1.3-.5-1.1-2.2-.8-3.3.7-2.5 2.2-4.7 4.1-6.3.3-.2.8-.5 1.2-.4.4-.3.9-.4 1.4-.5m-52.7.4c.9 1.1 1.5 2.6 1.4 4-.1 1.3-1.2 2.8-2.6 2.4q-1.35-.45-2.7-1.2c-2.5-1.3-5.4-2.5-6.5-5.3-.5-1.4-.2-3 .9-4 .5-.5 1.5-.8 2-.2 2.7.8 5.6 2 7.5 4.3"/><path d="M212.8 64.3c.9 4.2 1.2 8.6 1.1 12.9-.1 1.6-.3 3.1-.6 4.7-.4 2.4-.9 4.8-1.8 7.1-1.1 3.1-2.3 6.1-3.7 9-1.6 3.8-3.5 7.6-6.5 10.6-1.2 1.2-2.4 2.4-3.7 3.4-.9.7-1.9 1.3-2.7 2.1-3 3.1-7 5-10.6 7.3-2.8 1.9-5.8 3.4-8.8 4.9-1.5.8-3.1 1.5-4.6 2.3-2 1.1-3.9 2.3-6.1 3-1.7.6-3.4 1.1-5 1.7-1 .4-2 .8-3 1.1-3 .8-6 1.6-9 2.3-3.1.9-6.1 1.9-9.2 2.7-4.5 1.2-9 2-13.5 3.1-2.9.7-5.8 1.6-8.7 2.2-4.5.8-8.8 1-13.4.8-4.5-.2-9-.7-13.5-.9-3.2-.2-6.5-.2-9.7-.6-3.1-.3-6.2-1.3-9.1-2.4-3.1-.9-6-2.2-8.7-4-5.1-3.2-9.5-7-10.5-13.2-.8-.2-1.6-.3-2.4-.5-3.8-.7-7.7-1.5-11.3-3.2-1.2-.5-2.4-1.2-3.6-1.9s-2.4-1.4-3.3-2.4c-2.8-3-4.9-6.7-5.9-10.7-.8-2.7-1.2-5.4-1-8.2.1-6.1 1.3-13.6 6.8-17.2 2.3-1.6 4.7-3.1 7.1-4.4 1.7-1 3.5-1.9 5.3-2.5 2-.7 4-1.3 6.1-1.6.2 0 .4-.1.6-.1-.4-.3-.9-.6-1.3-1-1.3-1-6.1-5-5.8-6.8-2.8-1-5-2.8-4.9-6.1.4-3.4 1.6-5.8 3.5-7.6-.2-.9.4-2.5.6-3.3 1-2.7 3-5 5.3-6.7-.1-.1-.2-.3-.2-.5.1-.9.7-1.6 1.2-2.3.8-1.2 1.6-2.5 2.6-3.5 1.2-.9 2.7-1.5 4.1-2.2 1.2-.6 2.5-.9 3.7-1.2.2-1.8 1.6-4.4 2.1-5.7 1.7-4.2 4.1-8.1 7.2-11.5 2.3-2.5 4.6-4.9 7.3-7 2.8-2.1 6.3-2.9 9.6-3.7 2.5-.6 5.1-.2 7.6.1 1.7.3 3.4.6 5 1.3 2.2 1.1 4.2 2.7 6.1 4.2 2 1.6 3.5 3.6 4.8 5.7.2.4.6 1 .9 1.6 2.6-2.9 5.3-4.2 9.4-5.2 3.6-.8 7.3-1.3 11-1.3 1.1.1 2.2.1 3.3.4.3-.3.6-.6.9-.8 2-1.6 4.3-2.8 6.6-4 1.5-.8 3-1.6 4.5-2.3 3.2-1.3 6.5-2.2 10-2.4 5.9-.6 11.8.9 17.2 3.2 2.2.9 4.4 1.7 6.5 2.9s4.1 2.8 5.9 4.4c3 2.4 5.3 5.6 7 9 1.5 3.1 2.2 6.5 2.8 9.9.5 2.9 1 5.9.5 8.9.4.2.9.4 1.3.6 1.5.7 3 1.5 4.4 2.4 2.2 1.3 3.8 3.3 5 5.5 1.8 3.1 3.4 6.3 4.8 9.7 1.1 2.6 2 5.2 2.4 7.9m-.6 13c.2-6.8-.7-13.7-3.4-19.9-1-2.5-2-4.6-3.2-7-1-1.9-2-3.7-3.4-5.4-2.2-2.4-5.3-3.9-8.2-5.3-.1-.1-.2-.1-.3-.1-.6-.2-.6-1-.2-1.3-.2-2.2-.2-4.4-.5-6.5q-.6-4.2-1.8-8.4c-1.2-3.6-3.2-6.9-5.8-9.6-2.9-2.7-5.9-5.4-9.6-6.9-2.3-1-4.6-1.9-6.9-2.8-3-1.1-6.1-1.8-9.2-2.1-4.9-.3-9.9.6-14.4 2.6-3 1.5-6.1 2.9-8.9 4.7-2.7 1.7-4.5 4.3-6.4 6.8-2.3 3-4.4 6.2-5.7 9.8-.6 1.7-1.2 3.3-1.6 5.1-.1.2-.1.5-.1.8 2-1.1 4.3-1.7 6.5-2.3 2.3-.7 4.6-1.1 7-1.2 3.2-.2 6.4.1 9.6.4 3.8.4 7.6.6 11.3 1.7 2.3.8 4.2 1.8 6.3 3q2.1 1.2 3.9 2.7c1.5 1.2 2.7 2.7 4 4.1.9.9 1.6 1.7 2.3 2.6.5.7-.2 1.8-1 1.2-2.2-2-4-4.4-6.1-6.4-1.5-1.3-3.1-2.3-4.8-3.2-2-1-3.8-1.9-5.9-2.5-3.9-.9-8-1.1-12-1.5-4.5-.5-9.2-.4-13.6.7-5.8 1.5-10 3.3-13.4 8.6-.1.2-.2.4-.4.6.1-.1.2-.1.3-.2 2.8-1.8 5.6-3.5 8.7-4.7 1.8-.7 3.8-1.2 5.6-1.7 2.8-.7 5.6-.8 8.4-.9 2.1-.1 3.9 0 5.9.4 2.2.3 4.4.6 6.6 1.2q2.7.6 5.1 1.8c1.4.7 2.8 1.6 4.2 2.3 2.2 1.1 4.5 2.1 6.6 3.4 1.9 1.2 3.3 2.9 4.9 4.3 1 .9 1.9 1.8 2.8 2.7.5.5.3 1.4-.4 1.6-.2 0-.4-.1-.6-.2-1-.9-1.9-1.8-2.8-2.7-1.5-1.4-2.9-2.9-4.6-4-2.1-1.3-4.3-2.3-6.5-3.4-2.4-1.1-4.5-2.7-7.1-3.4-2.1-.6-4.2-1.2-6.4-1.5-2.5-.4-5.1-.8-7.6-.7-2.7.1-5.4.2-8 .9-3.7 1-7.4 2.2-10.6 4.2-2.7 1.6-5.5 3-7.2 5.6-.8 1.3-1.3 2.9-1.6 4.4-.1.4-.1.9-.2 1.3 1.1-1 2.3-1.7 3.7-2.2 2.2-.9 4.5-1.5 6.8-2.2 3.9-1.2 7.9-1.9 11.9-1.9 3.4 0 6.8.7 10.2.8 1.6.1 3.1.4 4.7.6 3.1.4 6.1.8 9.1 1.7 4.4.9 8.5 2.3 12.3 4.6.9.5 1.9 1.1 2.8 1.6.3.2.8.3 1.1.7s.2.9-.2 1.1c0 .2-.1.3-.2.4-.5.5-1 .9-1.5 1.3-1.6 1.5-3.4 3-5.4 4.1-3.5 1.8-7.4 2.8-11.2 3.9-4.5 1-9 1.4-13.6 1.5-4 .2-8 .7-12 .6-2.5 0-4.9-.2-7.4-.5-2.8-.4-6.6-.8-9.7-1.9.6.7 1.2 1.3 1.9 1.9 2.7 2.2 5.7 4.1 9.1 5 3.9 1 7.9 1.8 12 1.7 2.1 0 4.1-.4 6.1-.7 2.4-.4 4.9-.4 7.3-.9 2-.3 4-.8 5.8-1.6 2.4-1.1 4.9-2.2 7.2-3.5 1.7-.9 3.4-1.9 5-3.1.8-.5 1.4.8.7 1.3-2.2 2.2-5.1 3.4-7.9 4.8-2.1.9-4.2 2.1-6.4 2.9-2.9 1-6 1.3-9 1.6-3.1.3-6.1 1.2-9.2 1.1-3.1 0-6.1-.5-9.1-1.2-2.3-.5-4.7-1-6.8-2.2-2.4-1.2-4.6-2.7-6.5-4.6-.6-.7-2.5-2.4-1.8-3.3q-1.35-.75-2.4-1.8c-2.4-3-1.6-6.7.6-9.6.2-.3.5-.7.7-1-.4-1.4 0-2.9.3-4.3.5-2.2 1.6-4.2 3.2-5.8 0-.6.5-1.4.7-1.9 1.3-2.8 3.4-5.3 5.9-7.2l.9-.6c-.3-1.2.4-3.5.6-4.3 1.4-5 3.9-9.6 7.1-13.6.8-1.1 1.6-2.1 2.4-3.2-.3 0-.6-.1-.9-.1-2.2-.2-4.2.1-6.3.3-4.5.6-9.4 1.3-12.8 4.6-.9.9-1.8 1.8-2.7 2.8-.3.3-.7 1-1.2.6-.7-.7.1-1.6.6-2.3-.5-.9-.9-1.8-1.5-2.6-1.4-2.4-3.4-4.2-5.6-5.8-4.3-3.5-6.8-3.8-12.2-4.3-1.6-.2-3.2.1-4.7.5-1.9.5-3.8 1-5.6 1.8-1.6.7-3 1.9-4.3 3.1-2.7 2.5-5.4 5.1-7.6 8.1-2.2 2.8-3.5 6-5 9.2-.5 1-.9 2.1-1.3 3.1 1.3-.3 2.6-.7 3.9-.8 1-.1 1.9-.1 2.8-.1 3.1 0 6.2-.1 9.2.8 1.5.5 3 1 4.4 1.6 2.3 1.1 4.4 2.6 6.1 4.5 1 1.2 2.1 2.4 3.1 3.5.6.6 0 1.9-.9 1.3-1.8-1.4-2.9-3.3-4.6-4.8-2.5-2.3-5.8-3.5-9-4.5-3.5-.8-7.1-.6-10.6-.5-1.7.1-3.4.7-5.1 1h-.1s-.1 0-.1.1h-.2c-2.6.5-5 1.6-7.2 2.9-.9.7-1.5 1.8-2.2 2.7-.3.4-.6.9-1 1.3.1-.1.2-.1.3-.2 1.3-.9 2.6-1.8 4.1-2.4s3-.9 4.6-1.2c3.1-.5 6.3-1.1 9.5-1.1 1.5 0 3.1.1 4.6.3 1.8.3 3.4 1.3 5 2.1 2.2 1.3 4.7 2 6.9 3.4.7.4 1.3.9 2 1.3 1.5.9 2.9 2 4.2 3.2 1.7 1.3 3.3 2.5 4.5 4.2.2.3.2.8 0 1.1s-.7.4-1 .1c-.7-.7-1.4-1.4-2.2-2.1-3.2-2.6-6.4-5.4-10.2-7.2-1.3-.6-2.6-1.1-3.8-1.7-1.6-.8-3.2-1.8-4.9-2.3-3.1-.7-6.3-.5-9.5-.1-2.4.3-4.8.6-7.1 1.2-2.5.5-4.6 1.9-6.6 3.3-.8.5-1.6 1-2.3 1.7-1 .9-1.8 1.9-2.5 3-.7 1-1.1 2.1-1.4 3.3 1.5-1.1 3.4-2 5.5-2.8 1.5-.7 3.1-1.4 4.7-1.6 1.7-.2 3.3-.2 5-.2 3.3.1 6.6 0 9.9.2 1.3.1 2.6.2 3.9.5 2.4.5 4.3 1.5 6.4 2.5 2.1 1.1 4.3 2.2 6.3 3.6 1.9 1.3 3.4 3 5.4 4.3 1.5 1 3.1 1.7 4.5 2.7 1-.7 1.7.9.9 1.5-1.2.9-2.6 1.4-3.9 2-1.4.6-2.7 1.4-4.1 2-2 .9-4.1 1.2-6.3 1.4-3.2.2-6.4.4-9.7.4-6.5 0-13 .1-19.5 0-2.5 0-4.9-.2-7.3-.9-.1 0-.2 0-.3-.1.2.3.4.5.6.7 1.7 1.9 3.7 3.6 5.8 5 1.5 1.1 3.4 1.7 5.3 1.9 3.6.5 7.3 1 11 1 2.1 0 4.3.2 6.4-.3 2.9-.9 5.6-2.3 8.6-3.1 1.6-.4 3.1-.8 4.4-1.7 1.1-.7 2.1-1.6 3.2-2.4.8-.5 1.4.7.8 1.2-.3.3-.6.7-.9.9-1.5 1.3-3.2 2.4-5.1 3.1-2.2.6-4.4 1.3-6.6 2.2-3.3 1.5-5.3 2.1-9 2-3.9 0-7.9-.2-11.8-.9-2-.2-3.6-.6-5.1-1.2l-.3.3c-3.5.3-7 1.5-10.2 2.9-3.2 1.6-6.4 3.3-9.3 5.4-1.4 1-2.8 2-3.7 3.6-1.8 3-2.5 6.7-2.8 10-.1 1.7-.1 3.3-.1 5 .2 2.3.8 4.5 1.4 6.6.7 2.1 1.8 4 3.1 5.7.8 1.1 1.6 2.2 2.7 3 4.3 3 9.3 4.9 14.5 5.8 3.9.7 7.7 1.8 11.7 2.1s7.9.2 11.9.3c2.7.1 5.4.4 8.1.5 5.3.2 10.7.1 16 .2 2.7 0 5.3 0 8-.1 3.2 0 6.5-.4 9.6-1.1 2.7-.6 5.5-.9 8.1-2 4.9-1.9 9.6-4.1 14.3-6.4 3.2-1.4 2.9-1.7 3.3-5.2.2-3.9.1-7.8.3-11.6.1-2.7.5-5.4 2-7.7 1.2-1.6 2.5-3.5 4.3-4.3 2.2-.9 4.5.4 6.1 1.9 2 1.8 3.2 4.4 3.9 7.1.5 2 .8 4 .8 6.1 1.1-1 2.1-2 3-3.1 1.1-1.2 2.1-2.4 3.2-3.6 1.6-1.6 3.4-3.1 4.8-4.9.5-.6 1.1-1.3 1.5-2l.9-1.5c.1-.2.3-.3.5-.4.9-.3 1.4.9 1 1.5-1.4 3-3.9 5.2-6.3 7.5-2.4 2.2-4.4 4.8-6.8 7-.5.5-1.1 1-1.7 1.4-.1.1-.2.1-.3.2-.1 2.6-.7 5.1-1.7 7.4-1.2 2.4-3.2 4.3-5.6 5.7-2.2 1.3-4.9 1.6-7.4 1.5-1.9 0-3.8-.2-5.5-1-.4.2-.7.4-1.1.5.1 3-1 5.9-2.2 8.6-1.3 2.9-3.7 5.1-7.1 4.5-2.4-.2-4.4-1.4-6.5-2.4l-4.2-1.8c-.5-.2-1.1-.3-1.2-.9v-.1c-2.6.5-5.1 1.1-7.8 1.2-.2.4-.5.7-.7 1-.7.8-1.4 1.7-2.1 2.6-1.6 1.9-4.3 5.7-7 5.5-2.4-.1-6.2-4.4-7.8-6.2-.5-.7-1.6-1.7-1.7-2.7H80c-.2.4-.6.8-.9 1.1-.8 1-1.7 1.9-2.6 2.9-1.8 1.9-3.8 5.7-6.8 4.4-1.3-.7-2.5-1.8-3.6-2.7-1.5-1.3-2.9-2.8-4.2-4.3-.4-.6-1.3-1.3-1.2-2.1-1.4-.1-2.8-.2-4.2-.4q-1.65-.15-3.3-.6c.3 1.5.8 2.9 1.6 4.1 2.3 3.4 5.7 5.7 9.2 7.7 3.5 2.1 7.4 3.2 11.2 4.4 5.3 1.5 10.8 1.2 16.2 1.6 4.2.2 8.4.7 12.6.8 4 .1 7.9-.1 11.9-.8 3.2-.6 6.3-1.6 9.4-2.4 3-.7 6-1.2 8.9-1.9 3.6-.8 7-1.8 10.5-2.9 1.9-.7 3.9-1.1 5.9-1.6 1.5-.4 2.9-.8 4.4-1.2 1.8-.5 3.5-1.2 5.3-1.9 1.8-.6 3.7-1.1 5.4-1.9 1.3-.6 2.6-1.4 3.9-2.1 3.3-1.8 6.9-3.3 10.2-5.1 2-1.1 3.8-2.5 5.8-3.6 2.4-1.5 4.7-2.7 6.8-4.5 1.3-1.3 2.8-2.5 4.3-3.5 1.6-1.2 3-2.7 4.4-4.2 3-3.6 4.6-8 6.5-12.2 1.2-2.8 2.3-5.7 3.1-8.7.8-2.4 1.2-5 1.5-7.6m-40-21.7c-1.9-1-3.8-2.2-5.8-3-1.8-.8-3.7-1.5-5.6-2-2.5-.5-4.9-1.3-7.4-1.8-2.4-.4-4.8-.6-7.2-1-1.7-.2-3.5-.3-5.2-.5-2.1-.2-4.1-.5-6.2-.6-1.4 0-2.9 0-4.3.1-3.7.4-7.3 1.4-10.8 2.4-4.7 1.4-7.7 2.5-10 7.1-.8 1.7-.9 3.7.3 5.1 1.9 1.9 5.1 2.6 7.6 3.2.8.1 1.5.2 2.3.4-.7-2.3 1-7.2 2.1-8.7 1.8-2.7 5.6-4 8.5-5.3 2.3-1 4.8-1.6 7.3-1.7 2.1 0 4.3 0 6.3.7s3.4 2.2 4.9 3.7c.6.6 1.2 1.2 1.7 1.8 1.6 2 3 4.2 3.7 6.6.2.6.4 1.5-.1 2 2.1-.4 4.2-1 6.2-1.7 4.9-1.3 8-3.3 11.7-6.8m-19.5 53.9c2-4.7 1.8-10.3.3-15.1-.6-1.8-1.5-3.7-3-5-1.2-1-2.6-2-4.2-1.6-1.3.4-2.1 1.5-3 2.4-.9 1.1-1.7 2.3-2.2 3.7-.7 2.4-.6 5-.6 7.5 0 2.6 0 5.2-.1 7.8-.2 2.2 0 5-2.1 6.3 1.1.3 2.2.3 3.4.3 1.4 0 2.8 0 4.2-.4.1-.5.2-1 .3-1.3.6-2.6.7-5.3.7-7.9q0-2.85-.3-5.7c0-.7-.3-1.4-.2-2 .1-.4.5-.6.8-.4.4.3.4.8.5 1.2.2 1.1.3 2.2.4 3.4.2 3 .5 6.1.1 9.2-.1 1-.3 1.9-.5 2.8v.2c2.3-1.2 4.3-3.1 5.5-5.4m-20 10.3c.1-.6.2-1.2.2-1.8-3 1.4-6 2.8-9 4-2.4 1-4.8 1.9-7.3 2.4-.3.1-.5.1-.8.2 1.6.5 3.1 1.2 4.6 1.9 2 1.1 4.2 2 6.5 1.9 1.5-.1 2.7-1.2 3.5-2.5 1-1.9 1.8-4 2.3-6.1M129 63.5c1.4-.1 2.5-1.6 1.6-2.9-.5-.8-1.1-1.1-2.1-1.2-1.8 1.1-2.3 4.3.5 4.1m-26.5 63.9c.3-.4.6-.7.9-1.1-5.2.2-10.4.2-15.5.2.7.9 1.5 1.8 2.3 2.7 1.3 1.3 2.6 2.5 4.1 3.5.5.3 1.1.6 1.7.7 2.1-.1 5.1-4.4 6.5-6m-9.4-68.3c-2.3-1.1-4.5-2.3-6.5-4-.9-.8-2-1.7-2.9-2.3-2.6-1.6-5.3-3-8-4.3-1.3-.6-2.6-1.1-4-1.4-2.5-.6-5.2-.5-7.8-.5-4 .1-8-.5-11.9.4-2.3.8-4.3 1.8-6.5 2.8-3.2 1.7-5 3.9-5.8 7.5-.7 3.2 2 4.6 4.7 5.3 1.5.4 3 .7 4.5.8.2-4.4 1.6-9.3 5.7-11.5 2.5-1.4 5.5-2.5 8.4-2.6 4.1-.3 8.7.3 11.7 3.4 2.7 2.9 4.1 6.9 4.1 10.8 7.1-.4 7.7-1.3 14.3-4.4m-15.6 67.8c.2-.2.4-.4.5-.6-3.2-.2-6.5-.4-9.7-.4-2 0-3.9 0-5.9-.1l.6.6c.4.5.9.9 1.3 1.4.8.9 1.7 1.7 2.6 2.5.9.7 3.2 3.1 4.4 2.7 1.7-.6 2.6-2.3 3.8-3.5.8-.8 1.6-1.7 2.4-2.6m-19-65.6c1.3-.1 3.2-1.5 2.2-2.9-.6-.6-1.6-.9-2.3-.5-.2.1-.5.2-.6.5-.2.3-.3.7-.7.9 0 1 .1 2.1 1.4 2M27.2 166.5c.5.3 1.1.7 1.7 1 .1-2.9-.8-5.7-1.6-8.4-.2-.9-1.2-2.2-.3-3 .7-.5 1.3.4 1.6.9.6.9 1.2 1.7 1.9 2.6 2 2.3 5 3.4 7.8 4.3.2-.8 0-1.6-.1-2.5-.4-2.4-1.3-4.7-2.3-6.9-.3-.7-.7-1.3-.8-2-.1-.6.3-1.3 1-1.2.5.1.9.5 1.3.8 2.3 2.2 4.4 5 7.8 5.3 0-1.6-.6-3.1-1.3-4.6-.7-1.4-1.4-2.8-2.2-4.2s-1.7-2.7-2.3-4.2c-.3-.8-.5-1.6-.8-2.4-.1-.4-.3-.8-.6-1.1-.1-.1-.1-.2-.2-.3-.4-.5-1-1-1.5-1.4-2.4-1.6-5.5-2.3-8.3-1.6-3.1.8-5.9 2.6-8.4 4.6-3.1 2.9-4.5 7.6-3.8 11.8.4 2 1.5 3.7 2.5 5.3 1.1 1.8 2.6 3.1 4.3 4.3 1.6 1 3.1 2 4.6 2.9m1.8 3.1c-.9-.2-1.6-.7-2.3-1.1-1.5-.8-2.9-1.8-4.3-2.8-1.5-1.1-3.1-2.2-4.3-3.7-1-1.3-1.7-2.4-2.4-3.8-.7-1.2-1.2-2.4-1.5-3.7-.7-3.9.2-8.2 2.3-11.5.9-1.5 2.2-2.7 3.7-3.7 2.2-1.5 4.5-2.9 7.1-3.6 4-1.2 8.8.3 11.5 3.6.8.2 1.1 1.2 1.4 1.9.3 1.1.6 2.1 1.1 3.1 1.5 2.8 3.3 5.4 4.5 8.4.8 1.9 2.6 7.4-1.3 6.5-2.6-.5-4.7-2.1-6.4-4 .9 1.9 4.4 11.9-.4 10.4-3-.9-5.9-2-8-4.4.2 1.6 2.2 8.4-.7 8.4"/><path d="M30.3 179.8c-2.4-.4-4.8-1.4-7-2.4-2.3-1-4-3.2-4.7-5.6-.3-1.1-1.7-7.6 0-7.6 1.2.1.6 2.1.8 3 .3 3.7 1.1 7.2 5 8.6 2.2 1 4.5 1.9 6.9 2.1 3.3.2 6.5-.3 9.8-.5 3.9-.1 11.2-.1 14.2-2.7.5-.5.7-1.3.8-2 .4-2.1.6-4.2.8-6.3.1-3.3.1-6.6.3-9.9.3-2.7.5-5.4.3-8.1-.1-1.1-.1-2.2-.6-3.2-.6-.6-1.7-.8-2.4-1-3.6-.9-7.3-1.2-11-1.5-1-.1-2.1-.2-3.1-.2-.4 0-1 .2-1.2-.3-.4-.7.3-1.3 1.1-1.3 1.5-.1 3 .1 4.5.2 3.5.2 7 .4 10.3 1.4 2.4.6 3.5 1.1 3.8 3.7.5 3.8.2 7.7-.2 11.5-.3 4.1 0 8.2-.6 12.2-.4 2.3-.3 5.1-2.2 6.7-4.2 2.9-10.9 2.7-15.8 2.8-3.2.3-6.5.8-9.8.4"/><path d="M18.3 166.2c-.4-1.3-.8-2.8-.1-4.1.6-.8 1.6.1 1.2.9-.1 1-.2 2-.1 3 .1.6-.8.9-1 .2m16.3 9c-1.2-.2-2.5-.4-3.7-.7-.8-.2-1.6-.4-2.3-.9-1.9-1.3-2.5-3.8-3-5.9-.1-.5-.1-1 .2-1.4.3-.3.8-.2.9.2.2 1.3.6 2.3 1.1 3.5.5 1.1 1.3 2.1 2.6 2.4 3.7.8 7.6 1.7 11.4.9 4-1 6.4-1 7.5-5.5.7-3.2.9-6.6 1-9.8.1-2.1 0-4.2-.4-6.3-.1-.7-.3-1.4-1.1-1.6-1.2-.5-2.6-.4-3.9-.4-.7 0-1.5.1-2.2.1-1.1 0-1.1-2 0-2 2.2 0 4.5-.3 6.5.5 2.3.8 2.2 3.6 2.4 5.6.2 2.1.2 4.4 0 6.4-.3 3.7-.3 7.6-2 11-1.1 2.1-3 2.9-5.2 3.4-3.1.9-6.5 1.1-9.8.5m109-16.5c-.2-.4-.2-.9.1-1.2.7-.7 1.6-1.3 2.3-2 .8-.6 1.5-1.3 2.3-2 2.3-2 5.4-3 7.6-5.1q-5.1-.15-10.2 0c-3.1.1-6.2.3-9.3.3-5.2-.1-10.4-.1-15.6-.3-4.2-.1-8.4 0-12.6 0s-8.3-.1-12.5-.3c-5.2 0-10.3-.6-15.4-1.2-3.2-.2-6.4-.3-9.5-.4-2.9-.1-6-.3-8.9-.6l-3-.3c-.2 0-.4 0-.5-.1-.4-.1-.5-.6-.4-.9.3-.7 1.1-.6 1.7-.6.8 0 1.5.1 2.3.1 2.9.2 5.8.4 8.7.4q4.8 0 9.6.3c2.6.2 5.1.6 7.7.9 5.1.4 10.3.4 15.4.6 5.3.2 10.6 0 15.8.1 6.2.1 12.4.3 18.7.3 4.1-.2 8.1-.4 12.2-.4h5c1.1.1 2.3-.2 3.2.4.5.4.5 1.1.1 1.6-.5.5-1 1.1-1.6 1.6-1.6 1.5-3.7 2.3-5.5 3.5-1.8 1.1-3.3 2.7-4.9 4-.6.5-1.2 1-1.9 1.4-.3.5-.7.3-.9-.1"/><path d="M136.3 159.4c-5.1 0-10.1-.1-15.2-.3-8.9 0-17.8 0-26.6-.8-1.9-.2-3.8-.5-5.7-.7-1.8-.1-3.5-.1-5.3 0-3.9.3-7.7.1-11.6-.6-1.6-.3-3.1-.3-4.7-.5-2.5-.3-5-.8-7.5-1.2-.3 0-.6 0-.8-.2-.3-.2-.3-.7-.1-1s.7-.4 1-.4c2.6.2 5.2.8 7.8 1 1.4.1 2.7.2 4.1.4 1.5.2 3 .5 4.5.6 3.5.4 7.1-.1 10.6-.1 2.7 0 5.4.5 8.1.8 7 .6 14.1.9 21.2.8 5.2-.1 10.4.4 15.6.4h7.1c1.6 0 3.1-.3 4.7-.3.5 0 1 .2 1 .8 0 .3-.1.7-.4.9-.6.3-1.6.2-2.2.3-1.9 0-3.7.1-5.6.1"/><path d="M145.7 164c-1.2-1.3-1.4-3.3-1.5-5-2.1 0-4.3-.2-6.3-.8-.5-.1-.8-.6-.7-1 .2-1.3 1.4-2.1 2.3-2.9 1.8-1.5 3.9-2.5 5.9-3.7 1.6-1 3-2.4 4.6-3.5.2-.1.5-.3.8-.2.5.2.7.9.2 1.3-.9.4-1.6 1.2-2.3 1.8-2.9 2.7-6.8 3.9-9.6 6.8 1.9.4 3.9.6 5.9.5.4 0 .7.4.8.8.2 1.5 0 3.1.9 4.4.3.3.7-.1 1.1-.2 2-1 3.8-2.3 5.6-3.4 2.2-1.4 3.3-2.7 3.4-5.5 0-.8.1-1.5 0-2.3 0-.8-.5-2.3.6-2.6 1.3-.1 1 2 1.1 2.8 0 4.3-.2 6.7-4.1 9.2-1.2.8-2.4 1.5-3.7 2.3-1.4.6-3.6 2.5-5 1.2m9.6 44.3c-.1-.5.2-1.1.7-1.2.3 0 .7-.1 1-.1.6-.1 1.3-.1 1.9-.2 3.5-.5 6.5-2.6 9.6-3.9 3.2-1.4 5.9-3.7 8.4-6.1 2-1.6 3.9-3.3 5.5-5.3 1.7-2.1 3-4.5 4.4-6.8 2.6-4.3 5.3-8.7 7-13.5 1.6-5 2.2-10.4 2.2-15.6 0-1.9-.1-3.9-.3-5.8s-.7-3.8-1.1-5.7c-1.4-6.3-4.2-11.5-8.1-16.6-1.1-1.5-2.2-2.9-3.3-4.4-.4-.6-1-1-1-1.8 0-.4.3-.8.7-.7.8.5 1.3 1.4 1.9 2 2.9 3.5 5.8 7.2 8 11.3 1.7 3.3 2.8 6.8 3.6 10.4.6 2.7 1.2 5.5 1.2 8.3.1 2.7.2 5.5-.1 8.2-.4 3.7-.9 7.4-2 10.9-.6 2.1-1.6 4-2.5 5.9-1.2 2.4-2.6 4.7-4 7.1-1.9 3.1-3.5 6.4-6 9.1-1.6 1.9-3.7 3.5-5.5 5-.8.7-1.6 1.5-2.4 2.1-1.6 1.2-3.1 2.3-4.9 3.2-.7.4-1.4.7-2.2 1-1.2.5-2.5 1.3-3.7 1.8-2.6 1.2-5.3 1.9-8.2 2-.4.3-.8-.1-.8-.6"/><path d="M136.4 243.9c-5-.8-7-6.2-8.6-10.3-.6-1.3-1.1-2.7-1.7-4-1.6-3-3.1-6.1-4.7-9.2-.8-1.5-1.7-3-2.3-4.6-1.2-3.2-2.3-6.4-3.5-9.6-1.1-3.1-2.4-6.3-2.7-9.6-.1-1.4.8-2.7 2.3-1.9 5.6 2.1 6.6 4.5 10.2 8.8-.8-2.2-1.3-4.5-1.8-6.7-.3-1.6-1.2-5.6 1.1-6.1 1 .1 1.9.6 2.9 1 4.7 2.2 7.5 6.7 10.2 10.8 0-3 .2-6 .6-8.9.3-1.4.4-5.2 1.9-5.6 1-.2 1.7 1 2.3 1.6l3.6 4.5c1 1.2 2.2 2.2 3.3 3.4 1.2 1.2 2.1 2.6 2.8 4.1.8 1.4 1.5 2.9 2.2 4.4.8 1.5 1.6 3 2.1 4.5.6 1.7 1.2 3.3 1.5 5.1.7 3.5.9 7.1 1 10.8 0 .5.2.8-.1 1.1-.2.2-.4.2-.6.1-.4-.2-.5-.7-.5-1.1-.3-4.2-.5-8.5-1.8-12.5-.7-2.3-1.6-4.7-2.8-6.8-1.2-2.3-2.2-4.7-3.6-6.8-1.1-1.6-2.6-2.8-3.9-4.2-1.8-1.9-3.2-4.1-4.9-6-.4 1.4-.5 3-.7 4.4-.4 3.7-.6 7.5-.2 11.2 0 .3.1.6.1.9 0 .5-.6 1-1.1.8s-.6-.7-.8-1.1c-1.6-3.2-3.6-6.1-5.8-8.8-1.9-2.3-4.4-3.9-7.1-4.8-.1.9.1 2.1.2 2.8.4 2.2.9 4.3 1.6 6.4.5 1.4 1 2.9 1.4 4.3.2.6.5 1.3.3 1.9-.1.4-.5.8-.9.7-.4 0-.6-.4-.9-.7-.4-.5-.7-1-1.1-1.5-1-1.4-2-2.7-3.1-4-.9-1.2-1.8-2.4-2.9-3.4-1.5-1.3-3.3-2.2-5-2.9.1 1.6.6 3.1 1.1 4.6 1.1 3.2 2.3 6.3 3.5 9.5.7 1.8 1.3 3.7 2.1 5.5.7 1.5 1.6 2.9 2.3 4.3 1.2 2.6 2.6 5.2 3.9 7.7.7 1.4 1.3 2.9 1.9 4.4 1.5 3.8 3.1 9.1 8 9.5 2.2.2 4.3-.5 6.4-1l4.8-1.2c1.6-.4 3.1-.7 4.6-1.2s2.8-.9 4.3-1.1c2.3-.3 4.6-.2 6.9-.3 2-.2 4-.8 6-1.2 1.8-.4 3.5-1.2 5-2.2 3.3-2.2 6.1-5.2 7.3-9 .8-2.7 1-5.5.8-8.3-.2-3-1.3-5.9-3.1-8.3-.6-.9-1.1-1.8-1.7-2.7-.2-.4-.2-.9.1-1.2s.9-.3 1.1.1c1.9 2.7 4 5.5 4.7 8.9.8 3.2.6 6.6.1 9.9-.5 3.4-2.2 6.5-4.5 9-2.6 2.6-5.7 4.9-9.3 5.8-1.6.4-3.2.8-4.8 1.1-1.7.3-3.4.3-5.1.4-1.7 0-3.5.1-5.2.5-.9.2-1.7.5-2.5.8-2.4.8-4.8 1.2-7.2 1.8-3.4.7-6.7 2-10 1.4"/><path d="M186.3 235c-2.7-.1-5.1-1.6-7.8-1.5-.8 0-1.1-1-.7-1.6.8-1.6 6.6 1 8.3 1 .8 0 1.5 0 2.2-.1 1.6-.2 3.1-.2 4.7-.1 2.6.1 5.2-.1 7.8-.5 2.5-.3 4.8-.4 7.2-.9 3.2-.5 6.5-.1 9.5-1.5-1.4-2.1-3.7-3.5-5.6-5.1-1.2-1-2.6-1.9-3.8-2.9-1-.9-2-1.8-3.2-2.5-1.4-.9-2.8-1.6-4.1-2.5-2.8-1.8-5.3-4.1-7.9-6.2-1.4-1-2.9-2-3.6-3.6-.5-.9-.4-2-.3-3 0-.9.1-1.8.2-2.7.3-4.8 1-9.6 1.4-14.5.1-1.8.1-3.7.1-5.5 0-.6-.1-1.3.1-1.9.2-.5.9-.6 1.1 0 .1.4.1.8.1 1.2.5 6.1-.3 12.1-.8 18.1-.1 2.2-.4 4.4-.4 6.7.3 1.6 2.2 2.5 3.3 3.5 3.2 2.6 6.2 5.4 9.8 7.4 1.4.8 2.8 1.7 4.1 2.8 1.1 1 2.4 1.9 3.7 2.8 5 3.9 14 9.8 1.7 10.9-2.3.2-4.6.3-6.8.8-1.2.2-2.4.3-3.7.4-1.6.1-3.2.4-4.8.6-2.3.2-4.7.1-7 .1-1.9 0-3.3.3-4.8.3m-66.2 7.1c-2.4-.1-4.8-.4-7.3-.3-1.6.1-3.3.2-4.9.3-4.1.2-8.1-.2-12.2-.5-4-.2-8.1.1-12.1.3-1.6 0-3.2-.2-4.8-.5-2.5-.4-5-.7-7.4-1.4-4-.9-8.2-1.9-11.3-4.8-1.2-1.1-2.2-2.5-3.3-3.7-.6-.6-1.2-1.1-1.7-1.7-1.9-1.8-2.8-4.2-3.2-6.8-.4-2.5-.7-5-.7-7.5 0-6.7 1.9-13.4 5.5-19.2 2.5-3.8 3.8-5.2 8.1-6.9-1.9-2.2-4.3-4.2-5-7.1-.7-3.4-.4-8.6 2.1-11.3 1-1.1 2.4-1.9 3.7-2.5 2.9-1.3 6.2-1.8 9.3-2.4 2.4-.5 4.9-.6 7.3-.8s4.9-.4 7.2-.5c5.2-.7 10.4-.2 15.5-.2 5 0 10-.1 14.9 1 1.4.3 3.1.3 4.2 1.4.3.4 0 1.1-.6.9-1.4-.4-2.9-.6-4.4-.8-5.1-.9-10.2-.7-15.3-.7-2.7 0-5.5-.1-8.2-.1-2 0-3.8.1-5.7.3-3.6.3-7.2.5-10.8.8-2.4.2-4.8.7-7.1 1.2-2 .3-3.9.8-5.7 1.7-2.5 1-4.2 2.6-4.7 5.3-.5 3-.6 6.6 1.6 9 .9 1.1 1.9 2.1 2.8 3.1.6.7 1.3 1.6.7 2.5-.2.4-.5.6-.9.8-1.2.6-2.4 1-3.6 1.7-1.8 1.2-3 3.1-4.2 4.9v-.1c-1.6 2.5-2.7 5.3-3.6 8.1-1.2 3.7-1.6 7.7-1.4 11.6.1 1.9.3 3.9.7 5.8.2 1.2.5 2.4 1.2 3.5 1 1.5 2.4 2.6 3.6 3.9 1.3 1.5 2.6 3.2 4.3 4.3 3.2 2.1 6.9 2.6 10.4 3.5 2.8.6 5.7 1 8.6 1.4 3.2.2 6.4-.3 9.5-.3 3.9-.1 7.7.4 11.6.6 2.5.1 5 0 7.5-.2 1.6-.1 3.2-.3 4.9-.1 2.5.1 5 .4 7.5.2 1.9-.2 3.7-.5 5.6-.8h.6c.3 0 .6.4.7.7.3 1.5-1.6 1.5-2.6 1.7-2.3.5-4.6.9-6.9.7"/><path d="M138.2 194.5c-1.2-1.2-1.6-3.1-2.8-4.3-.9-.8-2.1-1.1-3.1-1.7-.3-.2-.5-.6-.5-.9 0-.8.8-1.1 1.3-1.4.4-.3.8-.6 1.2-1 1.8-2.2 2.8-5.1 2.6-7.9-.1-1.7-.5-3.5-1.7-4.8-1.6-1.9-4.2-2.3-6.4-3.2-1.3-.5-2.6-1-3.9-1.4-2-.5-4-.4-6-.7-.8-.1-1.7-.3-2.1-1-.1-.2-.2-.4-.1-.6.2-.4.7-.3 1-.2 2.1.4 4.2.2 6.4.6 2.3.3 4.3 1.3 6.5 2 2.1.7 4.3 1.4 5.8 3.1 3.9 4.6 2.6 12.8-1.8 16.6 2.4 1.1 2.9 2.4 4 4.5.3.5.7.9.9 1.4.3.6-.5 1.6-1.3.9m4.1-2.3c-.2-.2-.3-.6-.1-.9.2-.4.8-.4 1.2-.6 1.4-.4 2.8-.8 4.1-1.4 1.4-.6 2.6-1.4 3.8-2.2s2.4-1.5 3.6-2.3c2.9-1.8 5.5-4 7.7-6.5 1-1.2 1.9-2.6 2.8-3.9.3-.5.7-1.1 1-1.6.3-.6.6-1.2.9-1.7.1-.2.2-.3.4-.4.7-.2 1.2.7 1 1.3-.2.4-.4.9-.6 1.3-.6 1.1-1.3 2.2-2.1 3.2-1 1.3-1.9 2.7-3 3.9-3.2 3.5-7.1 6-11.1 8.4-2.1 1.4-4.3 2.6-6.8 3.2-.8.2-1.6.4-2.4.5-.1-.1-.3-.1-.4-.3m7.6 9.3c-1.1-1 1.1-3.1 1.5-4.1-1.4-.1-2.8 0-4.2-.1-1.2-.1-1.2-1.4 0-1.5 1.5-.1 3-.2 4.5-.1 1.4-.1 2.1 1.1 1.2 2.2l-1.2 2.1c-.3.6-.9 2-1.8 1.5m3.7 4.8c-.8-.7.2-1.8.6-2.5-.6 0-1.2.2-1.8.1-.5-.1-.7-.8-.4-1.3q.15-.3.6-.3c.6-.2 1.3-.2 2-.2.6 0 1.5-.3 1.9.4.4.8-.4 1.5-.9 2.1-.6.6-1.1 2.3-2 1.7m-113.2-4.1c-.4-.2-.5-.8-.4-1.2.4-1.1 1-2.3 1.6-3.3 1.6-2.8 4.3-4.7 6.9-6.5 1.3-.9 2.4-1.9 3.8-2.7s2.9-1.2 4.5-1.7c1.5-.5 3-1 4.6-1.4 1.1-.3 1.4 1.3.4 1.6-.1.1-.2.1-.3.1-2.8 1-5.7 1.7-8.4 3-1.5.8-2.7 1.9-4.1 2.9-1.7 1.3-3.5 2.4-4.9 4.1-.9 1.1-1.6 2.3-2.2 3.5-.3.6-.5 2-1.5 1.6"/><path d="M21.2 237.5c-3.2-.3-6.6-1.3-8.7-3.8-1-1.3-1.6-2.9-2.3-4.4-1.6-3.8-2.2-7.9-3-11.9-1.2-4.5-2.2-9-3.5-13.5-.7-2.9-1.8-5.7-2.6-8.7-.4-1.7-.8-3.3-1-5s-.3-5.1 1.5-6c1-.4 2.3.6 3.1 1.1 2 1.4 2.9 3.7 4.2 5.6.9 1.4 1.9 2.6 2.9 3.9q2.1 2.85 3.9 6c-.3-2.8-.9-5.5-1.7-8.2-.8-3.1-1.9-6.3-1.8-9.6.3-5.4 3.5-3.8 5.8-.6 1.3 2.1 2.5 4.2 3.7 6.3 1 1.9 2.3 3.4 3.3 5.2q1.35 2.4 2.4 4.8c0-4.3-.9-8.5-.9-12.8 0-1.5 0-3 .2-4.4.1-.6.2-1.4.9-1.6 1.1-.4 2.8 2 3.7 2.7 1.1 1.1 2.3 2.1 3.4 3.2 3.1 3.1 4.4 7.3 5.6 11.4 1.3 3.9 2.3 8 2.7 12.1 0 .6.4 1.3-.1 1.7-.3.2-.7 0-.9-.3-.3-.7-.4-1.5-.6-2.3-.3-1.7-.6-3.5-1-5.2-.6-2.4-1.4-4.8-2.1-7.1-.7-2.2-1.4-4.4-2.7-6.4-1.2-1.9-2.8-3.4-4.5-4.9l-2.7-2.7c-.3 2.9-.2 5.9.1 8.9.3 2.4.6 4.9.6 7.4v3c0 .6 0 1.3-.5 1.5-1.2.5-1.6-1.6-2-2.3-1-2.2-2-4.5-3.3-6.6-1.9-2.7-3.6-5.5-5.2-8.4-.9-1.6-2-3.4-3.7-4.3-1.5 3.7 1.8 10.9 2.4 14.9.3 1.5.5 3 .7 4.5.1 1 .2 2.1.3 3.1.1.5.2 1 0 1.4s-.6.7-1 .5c-.4-.1-.6-.7-.8-1s-.3-.7-.5-1q-2.1-3.75-4.5-7.2c-1-1.4-2.1-2.6-3-4-1.6-2.4-2.7-5.5-5.7-6.5-.8 1.8-.4 3.9 0 5.8.6 3.5 1.9 6.8 2.9 10.1 1.3 4.8 2.5 9.6 3.8 14.4 1.1 4.7 1.7 9.6 3.9 14 .5 1 1 2 1.9 2.7 2.4 1.9 5.7 2.4 8.7 2.5 2.1 0 4.2-.5 6.3-.8 2.7-.4 5.4-.6 8.1-1 2-.3 3.9-.9 5.8-1.4 2.6-.6 4.9-1.3 7.4-2.1 1.5-.4 3.1-.8 4.7-1.1.4-.1.9-.2 1.3-.2.2 0 .4.1.5.2.5.5.3 1.4-.4 1.6-3.1.5-6.1 1.4-9.1 2.4-1.5.4-3 .8-4.4 1.1-1.6.4-3.1.9-4.8 1.2-3.3.5-6.6.7-9.8 1.3-2.8.7-5.4 1.2-7.9.8"/><path d="M3.5 198.2c-1-.2-.7-1.8.3-1.6h.1c2-.6 4-1.1 6-1.3.6 0 1.4-.1 1.5.6 0 .3-.1.7-.4.8-1.1.2-2.3.2-3.4.5-1 .2-1.9.4-2.8.7-.5.2-.9.3-1.3.3m12-4.2c-.4-.1-.5-.7-.3-1.1.5-.7 1.3-.9 2-1.2.8-.3 1.7-.6 2.5-.8.7-.2 1.5-.5 2.3-.3.5.2.5.9.2 1.2-.2.2-.5.2-.8.3-.7.1-1.4.2-2 .4-1.1.3-2.2.7-3.2 1.2-.3.2-.5.4-.7.3m12.6-1.3c-.4-.1-.5-.6-.4-1s.6-.6 1-.7c2.4-1 5-1.6 7.6-1.8.3 0 .5.3.6.5.2 1.3-1.7 1.2-2.5 1.3-1.4.1-2.8.5-4.1 1l-1.5.6c-.3.1-.5.2-.7.1m88.4 12.2c-.2-.3-.2-.9.2-1.1l.9-.3c1.5-.5 2.9-1.1 4.4-1.5.7-.1 2.2-.8 2.4.3 0 .3-.1.7-.4.8-1.4.3-2.8.8-4.1 1.3-.8.2-3 1.3-3.4.5m10.8-1.9c-.4 0-.6-.5-.5-.9s.6-.6 1-.8c1.5-.5 3-1.1 4.6-1.4.7 0 2.4-.7 2.6.4 0 .3-.1.6-.3.7-.9.3-1.9.2-2.8.5-1.7.5-3.1 1.1-4.6 1.5m11.7-1.8c-.4-.1-.6-.6-.5-1 .2-.4.6-.5 1-.6l.9-.3c1.7-.5 3.6-.6 5.4-.7.4 0 .7-.1 1.1-.2.2-.1.5-.2.7-.2.7 0 .9 1.1.4 1.5-1.1.6-2.4.4-3.6.6-1.4.1-2.7.4-4.1.7-.3 0-.8.2-1.3.2m-55.9-45.6c.6 0 1.2-.1 1.8-.1l-2.1 4.5c-.9 1.8-1.6 3.9-2.4 5.6-.2.5-.6 1.4-1.3 1-.4-.2-.6-.8-.4-1.2s.3-.7.5-1c.6-1.2 1.1-2.5 1.6-3.7.7-1.7 1.6-3.4 2.3-5.1m3.8-12.2c.9.1.6 1.3.6 1.9-.1.9-.2 1.7-.3 2.6-.5 0-1-.1-1.5-.2.1-.7.3-1.4.3-2.1.2-.7-.1-2.1.9-2.2M69.6 169c-3.2-.3-6.5-.1-9.7-.9-.7-.2-1.6-.3-2.1-.9-.3-.4-.2-1 .2-1.2.5-.2 1 0 1.5.1 1.2.3 2.5.5 3.7.6 2.4.2 4.9.1 7.3.4.6.2.7 1.1.2 1.5-.3.4-.7.4-1.1.4m56.3 71.5c0-.4.2-.8.6-.9.5 0 1-.3 1.5-.4.7-.2 1.5-.3 2.1-.7.3-.2.5-.4.8-.4.7 0 1 1 .7 1.6-.3.4-.8.6-1.3.8-.9.3-1.8.3-2.7.6-.6.1-1.6.3-1.7-.6m-15.3-56.4c3.4-.3 6.9-.6 10.3-1.4 2.3-.4 4.5-.9 6.7-1.4 1.7-.4 4.3-1.8 4.7-3.7 0-1.8-1.5-3.2-2.9-4.2-1.4-.8-3-1-4.5-1.4-2.2-.5-4.4-.8-6.5-1.1-1.3-.1-2.7-.2-4-.3-7.4-.6-14.9-.7-22.3-.3-2.1 0-4.2 0-6.3.3-2.1.2-4.4.3-6.5.4-1.4.1-2.8.5-4.2.6-1.7.2-3.4.3-5.1.7-.7.3-1.4.6-2.2.7-.9 1.1-1.7 2.3-2.1 3.7-.2 1.4.2 2.8 1.1 3.9 1.1 1.1 2.8 1.4 4.3 1.9 1.4.4 2.9.5 4.3.6 1.5.2 2.9.6 4.4.7 2.3.2 4.7.4 7.1.3 3.9 0 7.7.3 11.6.2 3.9 0 8 .2 12.1-.2m-6.9 1.9H92.2c-1.6 0-3.1-.1-4.7-.1s-3.1.1-4.7 0c-2.4-.1-4.7-.3-7-.8-1.5-.3-3.1-.3-4.6-.6-1.1-.3-2.2-.6-3.3-1-1.2-.4-2.3-1.2-2.9-2.3-.8-1.5-1.2-3.3-.9-5 .2-.8.6-1.6 1.1-2.3s1-1.4 1.6-2c.1-.4.5-.7.9-.7.6 0 1.1-.4 1.7-.6 1.6-.5 3.3-.6 5-.8 1.4-.1 2.8-.4 4.2-.6 2-.2 4-.2 6-.4 2.3-.3 4.7-.4 7-.4 2.2 0 4.5-.3 6.7-.3 5.2 0 10.5 0 15.7.5 3.6.3 7.3.5 10.8 1.4 3.3.8 5.5 1 7.6 3.9 2.9 3.8.3 7.1-3.6 8.6-1.4.5-3 .7-4.5 1.1-2.3.4-4.5.9-6.8 1.3-4.3.6-8.7 1-13 1-.2.1-.5.1-.8.1"/><path d="m91.5 175.1-.3.3s-.1 0-.1.1c-3.3 4.9 4.3 4.9 7.4 4.8 1.5-.1 2.3-.5 3.1-1.7.8-1.5.6-2.3-.9-3.2-.8-.5-1.7-.6-2.6-.7s-1.8-.1-2.7-.1h-1.7c-.9 0-1.6.1-2.2.5m-2.4 3c-.2-1.4.4-2.8 1.3-3.8.6-1.2 2.2-1.2 3.4-1.3 1.3 0 2.6 0 3.9.1 1.5.1 3.1.4 4.2 1.5 2.3 1.7 1.2 4.9-.8 6.3-1.3.9-3.1.8-4.7.8-2.6-.1-6.8-.3-7.3-3.6"/><path d="M84.4 184.8c-1.2-.1-2.5-.4-3.5-1.2-.9-.7-1.7-1.7-1.8-2.9 0-1.7 1-3.4 2.3-4.4.8-.6 1.8-.7 2.8-.9l1.8-.3c1-.1 2 .2 2.9.4.3.1.6.2.8.4.4.6-.1 1.3-.8 1.1-1.4-.3-2.8-.5-4.2-.1-1 .2-2.2.3-3 1-.7.8-1.7 2-1.3 3.1.8 1.5 2.5 2.1 4.1 2.2q2.55.15 5.1-.3c.7-.1 1-.8 1.3-1.4.2-.4.2-.8.3-1.2.3-.7 1.1-.5 1.2.2 0 1-.8 2.9-1.7 3.5-1 .7-2.5.6-3.6.7-.6.1-1.3.1-1.9.1zm22.4-1.6c-1.1-.1-2.2-.5-3.2-1.1-.8-.5-1.9-1-2.2-2-.2-.8.8-1.4 1.2-.5 0 .2.2.3.4.4.6.4 1.2.7 1.8 1 1.2.7 2.7.7 4 .6 1 0 1.9-.5 2.8-1.1.9-.5 1.9-1.5 1.5-2.6-.3-.5-.8-.8-1.2-1.1-.9-.5-1.6-1.2-2.6-1.4-2.1-.5-4.3-.5-6.2.5-.5.4-1.1 0-1.1-.6.2-.6.9-.9 1.4-1.1 1-.5 2.2-.7 3.4-.7 1.6.1 3.3.2 4.7 1.2 1.3.9 3.2 1.7 3.1 3.5.1 2.2-2 3.6-3.8 4.5-.9.4-1.8.5-2.8.5zm10.5-8.4c-.1.2-.2.2-.4.3-.4.5-.4 1.3-.2 1.9.7 1.8 4.1 1.9 5.7 2 1 0 2.1.1 2.9-.4.7-.6 1.5-1.6.9-2.5-1.6-1.9-4.5-1.9-6.8-1.9-.7.1-1.4.4-2.1.6m5.1 5.8c-2.3-.1-5.4-.3-6.7-2.5-.6-1.1-.6-2.6.1-3.7-.2-1.3 1.7-1.3 2.5-1.6.9-.4 1.8-.3 2.7-.2 1.9.1 3.9.5 5.5 1.7 1.9 1.5 1.5 4.1-.2 5.5-.9.7-2 .9-3.1.9-.3 0-.5 0-.8-.1"/><path d="M108.2 174.4c-1.2-.8.7-1.9 1.3-2.4 1.1-.7 2.5-.7 3.8-.7 1.1 0 2.2.2 3.1.9.6.4 1.5 1.1.9 1.8-.4.5-.9.1-1.3-.2-.5-.4-1-.7-1.6-.9-.9-.2-1.8-.1-2.7-.1-.7.1-1.3.2-1.9.6-.4.3-.8.5-1.2.8-.1.1-.3.2-.5.2zm6.2 6c-.4 0-.8 0-1-.4-.2-.3-.1-.7.2-.9.2-.1.5-.1.7-.1h.5c.7-.1 1.4-.4 2-.7.8-.4 1.3.8.7 1.3-.3.3-.6.4-1 .5q-.9.3-1.8.3zm-36.1-.7c-1.7-.2-3.4-.8-4.6-1.9-1.2-1.2-.9-3.1.4-4.1 1.5-1.4 3.5-2 5.6-2.1 3-.1 7-.5 7.5 3.4.1.5 0 1-.5 1.3-.6.3-1-.4-.9-.9.3-2.4-3-2.3-4.7-2.2-1.5.1-3 .1-4.4.6-.9.5-2 1-2.5 2-.4 1.5 4 2.7 5.1 2.6.1-.1.3-.1.4 0h.3c.5.3.4 1.1-.1 1.3-.2.1-.5.1-.8.1-.2-.1-.5-.1-.8-.1"/><path d="M76.7 183.8c-1.8-.2-3.9-.2-5.5-1.3-1-.8-2.1-1.6-2.7-2.8-.8-1.8.3-3.9 2-4.5.7-.3 2.7-1.1 2.7.3 0 .4-.3.7-.6.7l-1.2.3c-1.3.3-2.6 1.8-1.5 3 .9 1 2 2 3.3 2.3 1.1.3 2.2.4 3.3.5 1.1.2 2.3 0 3.2-.8.3-.2.6 0 .8.2.8 1.5-1.9 2.2-3.4 2.2 0 0-.2-.1-.4-.1m17.4-9.4c-.3-.4-.7-.9-1.3-1.1-1.1-.5-2.4-.8-3.7-.7-.7.1-1.4.2-2.1.5-.4.1-.7.5-1.1.4-.3-.1-.4-.3-.4-.6.1-1.2 2.3-1.6 3.3-1.7 1.4-.2 2.9 0 4.2.6.7.3 1.4.8 1.9 1.5.4.5 0 1.3-.5 1.3.1 0-.1-.1-.3-.2m12.9.2c-.6-.5-1-1.2-1.7-1.7-1.1-.6-2.4-.7-3.6-.6-.9 0-1.7.5-2.5.9-.4.2-.8.5-1.2.5-.4-.1-.5-.6-.3-.9.1-.2.3-.4.5-.5.8-.5 1.6-1 2.5-1.2 1.6-.3 3.4-.3 4.9.4.7.4 1.3 1 1.9 1.5.4.3.7.9.4 1.4-.1.2-.3.3-.5.3-.2-.1-.3-.1-.4-.1m-12.1 10c-.5-1-1-3.2 0-4q.3-.15.6 0c.3.4.1.9.1 1.3.1.6.1 1.2.4 1.8.2.2.4.4.4.7.1.4-.1.9-.6.9-.4.1-.7-.3-.9-.7m10.1.7c-.7-.4-.2-1.3-.2-1.9v-.9c0-.2 0-.5.2-.6 1.1-.5 1 1.3 1 2 0 .5-.2 1.5-.8 1.5 0 0-.1 0-.2-.1m7.6-.2c-1.2-.2-2.7-2.5-1.7-3.5.4-.2.7.2.8.6.2.7.8 1.1 1.4 1.5.5.4.3 1.5-.4 1.5 0-.1 0-.1-.1-.1m8.1-1.5c-.7-.4-.3-1.2-.2-1.8.1-.4-.1-.8-.2-1.1-.5-.9.3-1.8 1-.8.4.7.7 1.5.6 2.2 0 .6-.3 1.6-.9 1.6-.1 0-.2-.1-.3-.1m10-4.2c-.3-.4-.6-.8-1-1.2-.8-.8-1.9-.9-2.8-1.4-.2-.2-.3-.5-.2-.7.3-.6 1-.4 1.5-.3.6.1 1.1.3 1.6.6s.9.8 1.4 1.2c.4.4.8.9 1 1.4s-.1 1.2-.7 1.3c-.5 0-.7-.5-.8-.9m-7.6 3.4c-.6-.7-.7-2.1-.3-2.9.2-.5.9-.5 1.1-.1.1.2.1.4 0 .7 0 .3 0 .5.1.8s.1.6.1 1-.3.7-.6.7c-.2 0-.3-.1-.4-.2"/><path d="M65 179.1c-1-.7.3-2.7 1-3.3 1.4-1.3 3.5-2.1 5.4-2 .9.1 1.8.5 2.5 1 .5.3.4 1.2-.2 1.4-.4.1-.6-.2-.9-.3-.7-.5-1.5-.8-2.4-.6-1.6.2-3.4.8-4.4 2.3-.2.4-.4.8-.5 1.2 0 .2-.2.5-.5.5.1-.2 0-.2 0-.2"/><path d="M78.1 181.8c-2.5-.1-4.7-.2-6.7-2-.9-.7-.8-2.1.1-2.7.5-.4 1.2-.4 1.8-.3.5 0 .5.8 0 .8-.7-.2-1.8 0-1.8.9-.1.3.3.6.4.7l1.2.9c.9.6 2.1.7 3.2.9h.6c.5 0 1 .1 1.5-.1.1-.1.3-.1.4-.1.4 0 .5.7.2.9-.2.1-.3.1-.5.1 0-.1-.1 0-.4 0 .1 0 0 0 0 0m1.8-3.8h-.2c-.4 0-.8 0-1.2-.1-.8-.1-1.4-.6-2.1-.9-.4-.2-.8-.4-1-.7-.5-1.5 1.4-2 2.5-2.2l2.7-.3c1.3-.3 2.8-.2 4 .6.3.2.5.5.6.8.1.7-.6.9-.9.2-.9-1.1-2.5-.9-3.8-.8-1.1.2-3.9 0-4.5 1.1.7.5 1.6.8 2.4 1.1.7.2 1.3.1 1.9.2.2 0 .4.2.4.4-.1.4-.4.4-.7.4 0 .2-.1.2-.1.2m7.8 4.7c-1.6-.1-3.4-.1-4.9-.8-1-.5-2.5-1.5-1.5-2.7.9-1 2.3-1.5 3.6-1.7.9-.2 1.8-.4 2.8-.3.5.1 2.2.1 1.7.9-.1.1-.2.1-.3.1-.3-.1-.8-.1-1.1-.1-.9-.1-1.8 0-2.7.2-1 .1-2 .4-2.7 1-.3.2-.8.4-.7.8.4.5 1 .8 1.6 1 .7.3 1.4.3 2.1.5.9.1 1.7.3 2.6.2.6-.1 1-.5 1.4-.9.4-.3.6-.6.8-1.1.1-.2.3-.3.5-.2.9.8-1.4 2.2-1.9 2.6-.3.2-.7.2-1 .2-.2.3-.3.3-.3.3m-21.8-2.2c-.8-.4.8-2.7 1.3-3.1.3-.3.8-.5 1.3-.5.3-.1.8-.1.8.3.1.5-.4.5-.8.5s-.8.3-1.1.6c-.4.5-.8 1.1-1 1.7-.1.2-.2.5-.5.5q.15 0 0 0m20.6-5.6c-.4-.5.2-.7.6-.9.7-.3 1.5-.7 2.3-.7.6-.1 2.5.2 2.1 1.1 0 .1-.1.1-.2.2H91c-.8-.6-1.8-.6-2.6-.2-.5.2-.9.4-1.4.6-.1 0-.2.1-.2.1-.2-.2-.2-.2-.3-.2m10.2 4c.6.1 1.2.2 1.8.1.5-.1.9-.5 1.1-1 .4-.9-.4-1.7-1.2-1.9-1.2-.3-2.5-.5-3.8-.5-.4 0-.7.1-1.1.2s-.7.2-1.1.2c-.8.4-1.2 1.3-.3 1.9.4.3 1 .4 1.5.6 1.1.3 2.1.3 3.1.4m.5.9c-1.7-.3-4.5-.1-5.8-1.4-1-1.1-.4-2.6.9-3.1.2-.3.6-.3.9-.3.5-.1 1-.2 1.6-.2.8 0 1.7.2 2.5.3.7.1 1.5.2 2.1.6 1.5.9 1.2 3.1-.2 4-.3.2-.6.2-.9.2-.4 0-.7-.1-1.1-.1m2.1 5.3c-1.1-.4-2.2-1.1-2.8-2.3-.2-.4-.4-1-.1-1.3.3-.2.5.1.5.4.3 1.2 1.5 1.9 2.6 2.3.5.3.5.9-.1.9zm3.7-.3c-.4-.4.2-.9.3-1.3.2-.6.1-1.3-.1-1.9-.1-.2-.1-.4.1-.6.4-.3.6.3.7.6.1.7.2 1.3 0 2-.1.4-.3 1.2-.7 1.2q-.15.15-.3 0m2.6-4.3c-1.2-.2-3.1-1-3.4-2.2-.1-.4.4-.7.7-.4 1.1 2.1 4.9 2 6.9 1.5.4-.1 1.1-.3.7-.8-.2-.6-.8-.9-1.3-1.2-1.7-1-4.5-.7-6.3.1-.2.1-.4.2-.5.1-.3-.1-.3-.5-.1-.7.8-.4 1.7-.7 2.6-.9 1.5-.2 3.1-.3 4.5.4.9.5 1.8 1.2 2 2.3.1 1.2-1.3 1.6-2.3 1.7-.7.1-1.4.1-2.1.1-.5.1-.9 0-1.4 0m-1.1-6.1c-.8-.6-1.7-.9-2.6-.7-.5.1-1 .4-1.6.4-.2-.1-.3-.4-.1-.5l.6-.3c.8-.3 1.8-.6 2.7-.3.6.2 1.8.5 1.5 1.3-.1.1-.2.2-.3.2-.2 0-.2-.1-.2-.1m10.6.4c-.7-.6-1.7-.6-2.6-.4-.3.1-.7.3-1 .4-.2.1-.4.3-.7.2-.2 0-.3-.3-.2-.5.4-.5 1.1-.7 1.7-.9 1.2-.4 2.9-.2 3.6.9.1.2 0 .6-.3.6-.1 0-.3-.2-.5-.3m-1.2 2.7c.1-.1.3-.2.4 0 .5 0 .9-.2 1.4-.3.2 0 .3.2.3.3.1.7-1.3.6-1.7.6-.4.1-.6-.3-.4-.6m5-2c-.8.4-1.2.8-.3 1.4.5.4 1.2.4 1.8.5.7.1 1.5.3 2.2.2.6 0 2.1 0 2.1-.8-.2-.6-.8-.9-1.4-1-.8-.3-1.6-.3-2.4-.3h-.3c-.2 0-.3.1-.4-.1h-.7c-.1.1-.4.1-.6.1m3.4 2.8h-.3c-1.3-.1-2.8-.1-3.9-.8-.6-.4-1-1.2-.6-1.9.3-.5.8-.7 1.2-.9.3-.1.7-.1 1 0h.5c.1-.1.2 0 .3 0h.2c.4 0 .7.1 1.1.1.9.1 1.8.2 2.5.7.8.4 1.2 1.5.5 2.2-.7.6-1.5.6-2.4.6zm-6.7 6c-1.3-.3-3.2-1.4-3.4-2.8-.1-.3.3-.8.5-.4.2.6.7 1.1 1.2 1.5.3.2.7.5 1.1.6.4.2.9.2 1.3.3s.3.7-.1.8h-.1c-.2.1-.3.1-.5 0m3-.4c-.4-.2-.2-.7-.1-1.1.3-1.1.4-2.2-.4-3-.2-.3.1-.7.4-.5.3.3.5.7.6 1 .3.7.3 1.5.1 2.3-.1.4-.1 1.3-.6 1.3.1 0 0 0 0 0m7-1.5c-.8-.1-1.2-2.4-.7-2.8.3-.1.5.2.4.4 0 .3 0 .7.1 1s.3.4.5.7.1.7-.3.7c.1 0 0 0 0 0m3.6-1.4c-.1-.8-.6-1.5-1.2-2-.2-.2-.4-.4-.6-.5-.3-.2-.6-.4-.4-.8.3-.4.8.1 1.1.3.6.4 1.2.9 1.6 1.5.2.4.4.9.4 1.3 0 .3-.2.4-.4.4-.3 0-.5 0-.5-.2m-19.7 3.2c.1-.7-.4-1.3-.3-1.9.1-.4.7-.2.6.2.1.6.4 1.2.4 1.8 0 .3-.2.4-.4.4-.1 0-.3-.2-.3-.5m-17.5.5c-.3-.5.3-.7.6-1 .5-.8.6-1.8.7-2.7 0-.2.1-.4.3-.5.3-.1.5.3.4.5-.2 1-.1 2.2-.7 3.1-.2.3-.6.8-.9.8-.2 0-.3-.1-.4-.2"/></svg>