<svg xmlns="http://www.w3.org/2000/svg" xml:space="preserve" id="Calque_1" x="0px" y="0px" version="1.1" viewBox="0 0 235.3 218.8"><style>.st0{fill:#8664c2}.st2{fill:#c3a3fc}.st3{fill:#fff}</style><path d="M197.8 130.6c.3 4.5.1 8.9-.1 13.4-.1.8.1 3-.9 3-.5 0-.7-.5-.7-.9 0-3.2.3-6.4.3-9.6.1-5.4-.6-10.8-1-16.3-.2-3.2-.3-6.4-.4-9.7-.1-2.1-.4-4.1-.5-6.2 0-.6.1-1.5.8-1.6.5 0 .8.6.5 1 0 1.7.4 3.5.5 5.2.3 3.8.4 7.7.7 11.5.2 3.6.6 6.9.8 10.2m27.5-55.7c.3.2.4.6.2 1-.1.2-.3.4-.5.5-.5.4-1 .7-1.5 1.1-2.9 2.3-6.2 3.9-9.4 5.7-2.3 1.3-4.5 2.8-6.7 4.4-2.3 1.6-4.4 3.5-6.2 5.6-1.3 1.5-2.4 2.8-3.6 4.3-1 1.1-1.8 2.9-3.5 2.7-1.9-.2-3.7-1-5.6-1.5-3.1-.7-6.2-1.3-9.3-1.9-3.1-.5-6.4-.5-9.4-1.6-.6-.2-1.1-.4-1.7-.6-.4-.1-.5-.5-.5-.9s.4-.8.8-.7c1.2.2 2.3.5 3.5.8 2.2.6 4.5.7 6.8 1 2.4.3 4.7.9 7.1 1.3 1.6.3 3.1.6 4.6 1 1.3.3 2.7 1 4.1.9 1-.8 1.7-1.9 2.6-2.9 1.5-1.7 2.8-3.6 4.4-5.2 1.7-1.7 3.5-3.1 5.5-4.5s4.1-2.7 6.2-4c3.2-1.7 6.6-3.3 9.5-5.5.7-.2 1.9-1.5 2.6-1" class="st0"/><path d="M235.3 107.1c.1 1.6.1 3.3-.1 4.9-.4 3.2-1.6 6.3-3 9.2-.3.6-.6 1.1-.9 1.7-.4.6-1 2.3-1.8 2.3 0 2.8-.1 5.7.1 8.5.1 1.4.2 2.9-.3 4.3-.2.5-.4 1-.7 1.5-.1.2-.3.3-.5.4-.4.1-.7-.1-1-.2-.6 1.4-.4 7.1-3 5.7-.9-.7-1.5-1.7-2.3-2.5-.4 1.2-.6 2.5-1 3.8-.2.8-.5 1.9-1.5 1.9-1-.1-1.5-1.2-2.2-1.8-.6 1.3-1 2.6-1.3 3.9-.3 1.1-.8 3.8-2.5 2.8-1-.9-1.6-2.1-2.6-3-1.1 1.8-1.3 4-2.1 6-.2.7-1.1 1.5-1.8.9-.6-.5-.9-1.4-1.3-2.1-.6 1.6-2.2 7.8-4.7 5.4-.3-.3-.5-.6-.8-.9-.4-.5-.9-1-1.3-1.5-.3.4-.5.9-.7 1.4.1.2.2.5.1.8-.2 1-.9 2.2-2 1.4-.7-.3-1.9-3.6-2.6-3.1-.8.6-1.7 1.4-2.7.9-.9-.3-1.6-1.5-2.6-1.5-.9.3-1.7 1.2-2.7 1.2-1.5-.1-2.1-2.2-3-3.1-.4.3-.7.8-1.1 1.1-.5.5-1 1.2-1.7 1.1-.9-.1-1.5-.8-2.2-1.3-.9-.8-1.7-1.6-2.7-2.3-1 .7-1.5 1.9-2.5 2.5-1.3.6-2.2-1.5-2.9-2.3-.6-.8-1.1-1.7-1.9-2.3-.4-.1-.8.1-1.2.3-.9.4-1.8 1-2.7 1.5-.8.4-1.2-.6-1.5-1.2-.8-1.9-.8-4-.9-6-.1-.9-.1-1.9-.2-2.8l-2.1.9c-2.2.8-4.4 1.6-6.7 2.4-1.6.4-3.1.6-4.7 1-1.4.3-2.7.6-4.1 1h-.2c1.1 1.7 2.3 3.3 3.1 5.2 1.4 3 2.6 6.1 3.7 9.2 1.9 4.7 2.9 9.7 3 14.8.1 2.4-.2 4.8-.7 7.1-.1.3-.2.8-.3 1.3 1 .2 2 .3 3 .4.4-1.5.4-3.1.7-4.6.2-1.5.4-3 .5-4.5.2-2.3 0-4.6.2-6.9.1-1.3.9-8 3.2-5.5.5.7.7 1.6 1.1 2.4.8 2.3 1.8 4.6 2.6 6.9.8-4.2 2.8-8 4.7-11.8.3-.6.7-1.8 1.6-1.3.4.2.6.7.7 1.2l.6 2.4c.4 1.9.9 3.9 1.4 5.8.1.1.2.3.2.5v.2c.2 1 .4 1.9.6 2.9 1.5-3.8 3.5-7.6 6.3-10.7.5-.5.9-1.4 1.7-1.3 1.3.2 1.3 2.6 1.5 3.7.6 4.9.8 9.9.4 14.9-.6 6.6-1.3 13.1-2.3 19.7-.6 3.1-.7 6.4-1.6 9.5-.7 2.9-3.4 3-5.9 3.5s-5 .9-7.5.8c-1.7 0-3.5-.1-5.2-.3-1.6-.1-3.1-.6-4.6-.7s-2.9.1-4.4.3q-3.6.45-7.2 0c-1.1-.2-2.2-.3-3.3-.4-1.4-.1-2.9 0-4.1-.7-.3-.1-.4-.4-.4-.7-.2.3-.3.7-.5 1-1.5 2.6-3.9 3.4-6.7 3.7-4.1.7-8.3.7-12.5.5-2.5 0-5.1-.5-7.6-.7-3.1-.2-6.2-.2-9.4-.2h-5.1c-1.7 0-3.3-.5-4.9-.9-1.8-.4-3.6-.7-5.4-1-1-.1-1.9.1-2.8.3-1.2.2-2.2.3-3.4.3-.2 0-.3-.1-.4-.2-2.6.7-5.2 1-7.8 1.4-6.4 1.1-12.9 1.3-19.4 1.2h-8.3c-1.8.1-3.6.1-5.4.1-1 0-2 0-3-.1-2-.1-4-.1-6-.1H17.3c-4.3 0-10.4.6-12.3-3.5-.9-1.9.3-3.4 1.6-4.7 2.9-3.2 6.8-5.4 10.1-8.2 2.3-2.3 5.3-3.8 7.9-5.7 1.1-.9 2.1-1.8 3.2-2.7 1.7-1.5 3.6-2.8 5.3-4.2 1.1-.9 1.7-1.8 2.1-2.9-.2.1-.5.1-.8-.1-2.2-2.1-7.7-5-7-8.5.4-1.1 1.3-1.8 2.1-2.6.6-.6 1.2-1.2 1.9-1.7 2.1-1.7 4.3-3.4 6.4-5.2v-.3c0-.2 0-.3.1-.5-.4-.6-1-1-1.4-1.6-1.1-1.3-2.1-2.6-3.4-3.7-1.2-1.1-3.8-2.5-2.6-4.5.5-.6 1.2-1.1 1.8-1.7 1.2-1.1 2.3-2.3 3.4-3.5 1.3-1.5 2.8-2.7 4.3-4.1-1.9-2.7-3.9-5.3-5.3-8.2-.5-.9-.8-2.1-.3-3s1.1-1.7 1.9-2.4c1.9-1.8 4.6-2.1 6.7-3.5.1-.4.2-.8.3-1.1-3.6-.2-7.2 0-10.7-.6-4.8-.8-9-3.3-13.2-5.6-2.1-1-4.4-1.9-6.3-3.3-2.6-1.8-4.8-4.1-6.6-6.6C2.8 108.9.7 102.5.1 96c-.2-3.9.3-7.8 1.1-11.6.7-3.9 2-7.7 4.4-11 1.3-1.9 2.9-3.6 4.3-5.4 1-1.2 1.7-2.6 2.8-3.8.4-.4 1.4-1.4 2.2-1.9-.1-.7-.1-1.5-.2-2.3-.1-1.3-.1-2.6-.2-3.9v.1q-.6-7.65 0-15.3c.2-3.4.8-6.8 1.7-10.2.4-1.7.9-3.3 1.5-4.9.9-2.4 2.2-4.6 3.6-6.7 1.5-2 3-4.1 4.9-5.9 1.3-1.2 2.7-2.1 4.1-3s2.8-1.9 4.2-2.7c2.2-1.3 4.6-2 6.9-2.8s4.7-1.6 7.2-2c1.6-.3 3.3-.5 4.9-.5 2.5.1 4.9.5 7.3 1 3.2.9 6.4 1.9 9.3 3.4 2.4 1.5 4.1 4 5.6 6.5.9-.5 2.4-.7 3-1 .9-.2 1.9-.5 2.8-.8 1.6-.4 3.2-.5 4.8-.7s3.3-.4 4.9-.3c1.2.1 2.3.1 3.5.3.1-.1.2-.2.2-.3 1.3-1.7 2.8-3.2 4.2-4.7 1.8-1.8 4.2-2.8 6.6-3.6 1.6-.6 3.1-1.2 4.8-1.5 3.3-.6 6.8.3 9.8 1.8 2.1 1.2 4.4 2.1 6.3 3.6 1.9 1.6 2.8 4 3.9 6.2 1.2 2.5 1.9 4.8 2.6 7.3.3.9.6 1.9.8 2.8v.2c1 .3 2.1.7 3 1.4.8.5 2.9 2.4 3.1 3.7 1.5.9 3 2.1 4.2 3.4 1 1.2 1.8 2.6 2.3 4 .2.8 1.1 3 .8 4 .7.7 1.3 1.6 1.6 2.6.6 2.4.9 5.2 0 7.5 0 1.2.1 2.3 0 3.4.4-.2.9-.4 1.3-.5 3-1 5.9-1.7 9.1-2 2.1-.2 4.3-.4 6.4.1 5.2 1.3 9.8 5.2 11.6 10.3.8 2 1 4.1 1.2 6.2q.3 3.15.3 6.3c0 2.5.2 5.3-1.2 7.6-.9 1.4-2.4 2.2-3.8 2.9.1.2.1.3.1.5.1.5.3 1 .4 1.5 2.1-1.2 4.1-2.5 6.2-3.7 1.7-.9 3.4-2 4.8-3.3 2.4-2.2 4.6-4.6 6.9-6.8 1.4-1.4 3-2.8 4.3-4.3s2.3-3.2 3.4-4.9c.7-1 1.3-2.2 2.4-2.8 1.4-.8 3-.3 4.4.1 2.8.9 5 2.9 7.4 4.5 1.9 1.2 4 2 6.1 2.9 1.9.8 3.6 1.9 5.5 2.8.9.4 1.9.8 2.8 1.2.7.2 1.5.7 1.3 1.6 0 .1 0 .1-.1.2.1.2.1.4.1.7.3 4.2.3 8.6.7 12.7.2 3.1.3 6.1.3 9.2 0 .3 0 .6-.1.8 1.1 1.2 2 2.4 2.8 3.8 1.4 2 1.6 4.6 1.8 7.1m-6.2-12.8v-.7c0-2.3-.1-4.5-.3-6.8-.2-3.4-.4-6.7-.5-10.1 0-1.2-.2-2.5-.1-3.7v-.2c-.1-.1-.3-.1-.4-.2-1.1-.5-2.2-.9-3.3-1.4-1.8-.8-3.4-1.8-5.2-2.6-1.5-.6-3-1.2-4.4-2-2.7-1.3-4.8-3.6-7.5-4.8-1-.4-2.1-.8-3.2-1-.8-.1-1.4.2-1.9.8-1.6 1.9-2.6 4.2-4.2 6.1-1.5 1.9-3.3 3.6-5.1 5.3s-3.4 3.5-5.2 5.2q-1.8 1.8-3.9 3.3c-1.4 1-2.8 1.7-4.3 2.5-1.7 1-3.4 2-5.1 3.1-.1.4-.6.7-.9.6-.1.1-.3.2-.4.2-3.4 2-7.3 3.2-10.9 4.6-.3.1-.6.3-.8.5s-.2.5-.3.8c-.1.8-.2 1.5-.3 2.3-.1 1.2-.1 2.3-.1 3.5 1.2-.8 2.4-1.6 3.7-2.1 1.9-.5 2.2 1.8 1.7 3.1-.7 2.7-2.1 5-3.5 7.4 2.4-1.1 4.7-2.2 7.1-3.2.7-.3 1.5-.6 2.2-.9.5-.2 1.1-.5 1.7-.2 2.5 1.2-1.4 7.6-2.4 9.2 1.3-.9 4-3.4 5.4-1.7.6.8.6 1.9.5 2.9-.3 2.2-1.4 4.2-2.6 6-1.9 3-4.7 5.2-7.5 7.3l-5.4 4.2c.1.1.1.3.1.5.1 3 .3 5.9.4 8.9 0 .8.1 1.6.1 2.4v.3l.3 4.2c.1 1.7.1 3.5.8 5.1 1.3-.6 2.8-1.9 4.4-1.5.6.2 1 .7 1.4 1.2.9 1.1 1.6 2.3 2.5 3.4.7-.7 1.2-1.5 1.9-2.1.3-.2.5-.4.9-.5.9-.1 1.6.8 2.2 1.2 1 .8 1.8 1.8 3 2.3 2.3-2.4 2.9-3.7 5-.2.2.3.4.6.7.9.1.1.1.2.2.1 1.8-.9 2.6-2 4.6-.5.3.3.7.5 1 .8.1.1.3.2.5.1.4-.2.8-.6 1.2-.9 1.7-1 2.8 1.1 3.6 2.3.3-.7.5-1.3.8-2 1.4-3 3.3.6 4.7 1.7 1.1-1.5 1.6-3.4 2.1-5.1.2-.7.4-1.9 1.4-1.8.6.1.8.7 1.1 1.1.3.5.6 1 .8 1.6.6-1.6 1.3-6.3 3.1-6.7 1.3-.1 2.6 2.2 3.4 3.1.8-2 1.1-4.2 2.2-6.1 1.1-1.7 2.3.2 3.2 1.1.5-1.5.8-3 1.2-4.5.2-.8.8-1.6 1.7-1.1 1.1.6 1.7 1.7 2.6 2.5.4-1.5.4-3 .9-4.5.3-.9 1-1.4 1.9-1.1.7-1.2.5-2.7.5-4 0-.9-.1-1.7-.1-2.6-.1-2-.1-4.1 0-6.1-.1-.1-.3-.2-.4-.2-4.4-2.9-7.2-4.9-9.8-9.6-.8-1.4-2.3-3.7 0-4.5 2-.6 4.2-.5 6.2-.5-2.5-2.3-5.1-4.5-6.6-7.5-1.9-3.8 4.2-2.7 6.2-2.7-1.3-1.2-2.5-2.4-3.5-3.9-1.5-2.3-2.1-4.8 1.6-4.4 2.5.2 5.1.8 7.1 2.4.1 0 .2 0 .3.1" class="st0"/><path d="M229.1 93.6v.7c-.1-.1-.2-.2-.4-.3-2-1.6-4.6-2.1-7.1-2.4-3.7-.3-3.1 2.1-1.6 4.4 1 1.5 2.2 2.7 3.5 3.9-2-.1-8-1.1-6.2 2.7 1.5 3 4.2 5.3 6.6 7.5-2.1.1-4.2 0-6.2.5-2.3.8-.8 3.1 0 4.5 2.6 4.8 5.3 6.7 9.8 9.6.1.1.2.2.4.2v6.1c0 .9.1 1.7.1 2.6 0 1.3.2 2.8-.5 4-.9-.4-1.7.1-1.9 1.1-.5 1.4-.5 3-.9 4.5-.9-.8-1.5-2-2.6-2.5-.8-.4-1.5.4-1.7 1.1-.4 1.5-.7 3.1-1.2 4.5-.9-.9-2.1-2.8-3.2-1.1-1 1.9-1.4 4.1-2.2 6.1-.8-.9-2.1-3.2-3.4-3.1-1.7.4-2.4 5.2-3.1 6.7-.3-.5-.5-1.1-.8-1.6-.3-.4-.5-1-1.1-1.1-1-.1-1.2 1.1-1.4 1.8-.5 1.7-1 3.6-2.1 5.1-1.4-1.1-3.2-4.7-4.7-1.7-.3.7-.6 1.3-.8 2-.8-1.3-1.9-3.4-3.6-2.3l-1.2.9c-.2.1-.3 0-.5-.1-.4-.2-.7-.5-1-.8-2-1.5-2.8-.4-4.6.5-.1 0-.2-.1-.2-.1-.2-.3-.5-.6-.7-.9-2.1-3.6-2.7-2.2-5 .2-1.1-.5-2-1.6-3-2.3-.6-.5-1.3-1.4-2.2-1.2-.3.1-.6.2-.9.5-.7.7-1.2 1.4-1.9 2.1-.9-1.1-1.6-2.3-2.5-3.4-.4-.5-.8-1-1.4-1.2-1.6-.4-3.1.9-4.4 1.5-.6-1.6-.6-3.4-.8-5.1q-.15-1.95-.3-4.2v-.3c0-.8-.1-1.6-.1-2.4-.1-2.9-.3-5.9-.4-8.9 0-.2 0-.3-.1-.5l5.4-4.2c2.8-2.1 5.6-4.4 7.5-7.3 1.2-1.8 2.3-3.8 2.6-6 .1-1 .1-2.1-.5-2.9-1.4-1.7-4 .8-5.4 1.7 1-1.6 4.9-8 2.4-9.2-.6-.2-1.2 0-1.7.2-.7.3-1.5.6-2.2.9-2.4 1-4.7 2.1-7.1 3.2 1.4-2.3 2.8-4.7 3.5-7.4.4-1.3.2-3.6-1.7-3.1-1.3.6-2.6 1.3-3.7 2.1 0-1.2 0-2.3.1-3.5.1-.8.1-1.5.3-2.3.1-.3.1-.6.3-.8s.5-.4.8-.5c3.7-1.4 7.5-2.6 10.9-4.6.1-.1.3-.2.4-.2.4.1.8-.1.9-.6 1.7-1 3.4-2.1 5.1-3.1 1.4-.8 2.9-1.6 4.3-2.5 1.4-1 2.6-2.1 3.9-3.3 1.8-1.7 3.4-3.5 5.2-5.2s3.6-3.3 5.1-5.3c1.6-1.9 2.7-4.2 4.2-6.1.4-.6 1.1-.9 1.9-.8 1.1.1 2.2.5 3.2 1 2.7 1.3 4.8 3.5 7.5 4.8 1.4.8 3 1.3 4.4 2 1.8.8 3.5 1.8 5.2 2.6 1.1.5 2.2.9 3.3 1.4.1.1.3.1.4.2v.2c-.1 1.2.1 2.5.1 3.7.1 3.4.2 6.7.5 10.1.3 2.5.4 4.8.4 7m-3.5-17.7c.1-.4 0-.7-.2-1-.7-.5-2 .8-2.6 1.2-2.9 2.2-6.2 3.8-9.5 5.5-2.1 1.2-4.2 2.6-6.2 4-1.9 1.3-3.8 2.8-5.5 4.5-1.6 1.6-2.9 3.5-4.4 5.2-.9.9-1.6 2.1-2.6 2.9-1.4.1-2.8-.6-4.1-.9-1.5-.4-3.1-.8-4.6-1-2.4-.4-4.7-1-7.1-1.3-2.3-.3-4.6-.4-6.8-1-1.1-.4-2.3-.7-3.5-.8-.4-.1-.7.3-.8.7 0 .4.1.8.5.9.6.2 1.1.4 1.7.6 3 1.1 6.2 1.1 9.4 1.6 3.1.6 6.2 1.2 9.3 1.9 1.9.5 3.7 1.3 5.6 1.5 1.7.2 2.6-1.6 3.5-2.7 1.3-1.5 2.4-2.8 3.6-4.3 1.8-2.1 3.9-4 6.2-5.6 2.2-1.6 4.4-3 6.7-4.4 3.2-1.8 6.5-3.4 9.4-5.7.5-.4 1-.7 1.5-1.1.2-.3.4-.5.5-.7M197.7 144c.2-4.5.4-8.9.1-13.4-.2-3.3-.6-6.7-.8-10-.2-3.8-.4-7.7-.7-11.5-.1-1.7-.5-3.5-.5-5.2.3-.4 0-1-.5-1-.7.1-.8 1-.8 1.6.1 2.1.4 4.1.5 6.2.1 3.2.2 6.4.4 9.7.4 5.4 1.1 10.8 1 16.3 0 3.2-.3 6.4-.3 9.6 0 .4.3.9.7.9 1-.3.8-2.4.9-3.2" style="fill:#ad936d"/><path d="M10.1 91.2c-.1.8-.3 1.6-.5 2.4-.1.4-.2.7-.3 1.1.5-1.2.7-2.5.7-3.7.1.1.1.2.1.2m-2.4 7.4c-1.6-.5-2.2-3.7-2.2-5.1 0-2.1.3-6.6 2.3-7.7 1.1-1.4 3-.7 3.7.7 1.7 2.6.3 12.4-3.8 12.1M14 80c.2 0 .3-.1.4-.2-.2-.1-.4-.4-.5-.6l-.1-.1c.1.3.1.6.2.9m-.5 1.7c-.7-.2-1.2-.9-1.3-1.6-.4-1.6.2-3.2 1.2-4.5.8-1.1 2.6-2 3.7-.9.9 1 .6 2.5.4 3.7-.2 1-.6 2.1-1.3 2.9-.7.7-1.9 1.1-2.7.4" class="st2"/><path d="M13.8 80.6c-.7-.4-.9-2 0-2.3.5-.1.9.6.6 1 0 .1.1.2.1.3.3.5-.1 1.2-.7 1M9.3 94.4c-.6-.4-.6-1.2-.6-1.9 0-.8-.1-1.7.2-2.5.2-.6 1-.4 1.1.2v1.3c.3-.1.7.1.8.4.3.5.1 1-.2 1.5-.1.5-.6 1.3-1.3 1m149.2 77.9.1-.1s0-.1-.1-.1c.1.1 0 .1 0 .2m-1.4 4.5c-.5-.8-.2-1.9-.2-2.8.1-.9.2-1.8.3-2.6.1-.7 0-1.4.2-2 .3-.9 1.3-.8 1.7 0 .8 1.4 1.3 2.9 2 4.3.4.7.6 1.7-.1 2.2-.5.3-1.1.3-1.6.4s-1.2-.1-1.3-.6c-.1.3 0 .6-.1.9-.3.3-.7.5-.9.2m8.9-4c-1.4-.6 1-3.6 1.3-4.6.3-.6.5-1.3.7-2 .1-.3.2-.7.5-.8 1.1-.5 1.4 1.1 1.6 1.8.2 1.2.4 2.3.6 3.5.1.9-.4 1.7-1.3 1.8-.9.2-1.9.3-2.9.2-.2.1-.3.1-.5.1m14.4.9c-.9-.2-1.7-.4-2.5-.7-.6-.2-1.4-.3-1.5-1-.7-.6-.1-1.4.3-2 .8-1.1 1.4-2.3 2.2-3.4.2-.3.5-.5.9-.5.6.1.8.7 1 1.3.3.8.5 1.6.7 2.4s.4 1.5.5 2.3c.2 1-.5 1.9-1.6 1.6M49.7 150.8c.2-.1.5-.2.8-.1-.2-.6-.6-.4-.9 0 0 .1 0 .1.1.1m-.7 8.1c.1 0 .2 0 .2-.1-.1.1-.2.1-.2.1m-.3 1.6c-2-.5-2.1-3.2-1.8-4.9 0-1.6.2-3.2.8-4.6.4-1.1 1.5-2.7 2.9-2.2 1.1.5 1.2 2 1.3 3 .3 2.4.2 8.7-3.2 8.7m-4.1 10.6c-.7-.3-.9-1.1-1.2-1.8-.2-.4-.1-.9 0-1.3 0-.6.1-1.2.2-1.7.2-1.1.6-2.4 1.7-2.9 1.6-.4 2.2 1.7 2.1 2.9-.2 1.5-.7 5.3-2.8 4.8m-2.2 8.8c-.4-.1-.6-.6-.7-1v-.4c-.5-.9-.1-2.6.7-3.3.8-.6 1.7.1 1.8 1 0 .9-.5 4.1-1.8 3.7" class="st2"/><path d="M49.1 152.2v-.6c0-.4.3-.6.4-.9.8-1.3 2.2.2 1.2 1.1-.2.2-.4.5-.7.6-.2.6-.9.4-.9-.2m97.3 12.9c.6 3.9 1.1 7.8 1 11.8 0 2.2 0 4.5-.1 6.7-.2 2.5-.6 4.9-1.1 7.3-.8 3.6-1.9 7.3-4.1 10.2-.5.8-1 1.5-1.4 2.4-.2.5-.5 1.3-1.2 1.2-1.3-.4-.2-2.4 0-3.3.7-2.4 1.3-4.8 1.9-7.2.7-3.5 1-7 1.5-10.5.6-3.5 1.2-7 1.2-10.6-1.9.1-3.9-.2-5.7-1-.2.7-.4 1.5-.5 2.2-.1.5-.6 1.1-1.2.8-.7-.4-.5-1.3-.7-2-.1-.8-.2-1.7-.4-2.4-1.2-.5-2.5-.2-3.7-.2-.9 0-1.8-.4-2.7-.7-.4 1.3-.8 2.6-1.4 3.8-.2.4-.8.6-1.2.2-.4-.3-.4-.8-.7-1.1-2.7.4-5.4.3-8.1.4-.4.9-.6 1.9-.8 2.9-.3 1.4-.6 2.9-.8 4.3-.3 1.8-.9 3.9-1.3 5.6-.3 1.4-.6 2.8-.7 4.2-.2 1.5-.2 3-.7 4.4-.5.8-1.2.6-1.8 0-.7-.7-1.5-1.4-2.3-2-1.3-1.1-2.5-2.4-3.8-3.6-.9-.8-1.9-1.5-2.8-2.3-.9-.7-1.7-1.5-2.6-2.3-.5-.5-1.1-.8-1.6-1.3-.1-.2-.2-.4-.2-.6h-.1c-.2.2-.3.6-.7.6-.3 0-.4-.2-.5-.5-.3-1.2 1.6-2.2 2.2-3.1q1.05-1.35 1.8-3c.7-1.4 1.1-3 1.7-4.4.8-1.9 1.7-3.7 2.3-5.6.9-3 1.5-6 2.2-9 .1-.4.1-.9.3-1.3.4-.8 1.2-.6 1.4.1l.6-.3c1.9-.6 3.9-1.1 5.8-1.9 2.6-1 5.2-2.1 7.6-3.6 1-.7 2.1-1.2 3.2-1.6 1.8-.7 3.6-1.3 5.4-2.1q1.5-.6 3-.9.45-.15.9 0c.5.2.8.7 1.1 1.1.8 1 1.6 2 2.3 3.1 1.1 1.7 2 3.5 3.1 5.2 2.7 3.6 4 5.6 4.4 9.9m-106.5-14c.9.6.2 3.1.3 4.1-.1 1.3-.2 2.7-.4 4-.1 1-.2 2.1-.3 3.1-.1.6 0 1.6-.8 1.8.7.6.1 1.7-.8 1.4-.6-.3-1.1-.8-1.6-1.3-.7-.8-1.3-1.6-1.9-2.4-.9-1.2-2.9-2.4-1.9-4.1.8-1.3 2.2-2 3.1-3.3.8-1 3-4.1 4.3-3.3m-2.7 19.6c1.2.4.8 2 .7 2.9-.2 1.5-.5 3.1-.6 4.6-.1 1.3-.4 2.6-.5 3.9-.1.6 0 1.4-.6 1.8.5.5.1 1.5-.6 1.3-1.3-.4-2.5-1.6-3.5-2.4-.9-.8-2-1.5-2.6-2.6-1.2-2 .5-4 2-5.2 1-.9 2.2-1.6 3.2-2.5l1.5-1.5c.2-.2.6-.4 1-.3m5.2-37.4c1.3.4.2 3.7.1 4.7-.3 1.6-.6 3.2-.8 4.7-.2.6 0 1.6-.5 2.1v.5c.3.2.6.5.5.9-.1.7-.7.7-1.2.4-.1.1-.3.1-.4 0q-.3-.3-.3-.6c-1.9-2-4.4-5.2-4.4-7.9.3-1.8 2.3-2.5 3.8-3.2.8-.4 1.6-.9 2.3-1.4.3-.2.6-.3.9-.2" class="st2"/><path d="M90.5 42.1c.8 1.2 1.2 2.7 1.1 4.2-.2-.3-.3-.5-.4-.7-1-1.7-2.2-3.3-3.8-4.5-5.5-4-7.3-4.8-13.9-2.6-2.6.8-4.8 2.3-6.9 3.9-2 1.8-3.4 4.3-4 6.9-.1.6-.5 2.3-.5 3.6-2.3-.1-4.4-.3-6.7-.5-2 0-3.9-.4-5.9-.9-1.8-.5-3.5-1-5.1-1.9-.5-.3-.6-1-1-1.3.1-.1.1-.2.1-.3 2.7-2.3 6.1-3.4 9.2-5.2 1.8-1.2 3.7-2.4 5.7-3.4s3.9-2.1 6.1-2.7c2.7-.7 5.7-.8 8.5-1.2 1.1-.1 2.2-.1 3.3-.2 2 0 4.1-.1 5.9.8s3.5 1.9 5.2 3c1.1.8 2.4 1.8 3.1 3m5 53.3c-.2.3-.3.6-.5.9-1.4 2.7-3.4 5.5-6.8 3.9-2.1-.9-3.6-2.7-5.4-3.9.9-.2 1.8-.3 2.7-.4 2.2-.4 4.4-.4 6.6-.4 1.1-.1 2.2-.1 3.4-.1m18.6-2.1c-.7.9-1.4 1.8-2.1 2.6-2.1 2.3-4.9 4.5-7.9 2.3-1.4-1-2.9-2-4.2-3 .6 0 1.2-.1 1.9-.2 2.3-.3 4.7-.4 7-.7 1.7-.2 3.5-.5 5.3-1m19.6-3.8c-1 1.3-1.8 2.6-2.7 3.9-.9 1.5-2.3 3.4-4.3 2.6-1.5-.4-2.8-1.1-4.1-1.9-.8-.5-2.1-1.5-3.4-2.3 3.6-.8 7.2-1 10.8-1.7 1.3-.2 2.5-.4 3.7-.6m20.1-2.3c-.4.5-.7 1.1-.9 1.4-.5.7-1.1 1.5-1.7 2.1-.8.8-1.5 2.1-2.5 2.8-.8.2-1.5-.1-2.3-.2-2.1-.5-3.9-1.8-5.7-3-.8-.5-1.7-.9-2.5-1.4 4.6-.6 9.2-1 13.7-1.5.6-.1 1.3-.2 1.9-.2m12.6-1.9c.2 0 .4-.1.7-.1-.2.3-.3.6-.5 1-.4.8-.9 1.6-1.4 2.3-.2.4-.6.7-.8 1.1-1.7.6-2.9.9-3.8 1.7-1.3-1.2-2.8-2.2-4.2-3.4-.2-.2-.6-.5-.9-.7v-.1c1.6-.1 3.1-.3 4.6-.6 2.2-.4 4.2-.9 6.3-1.2" class="st3"/><path d="M85.5 44.7c1 1.1 1 3.4-.8 3.5-1.2 0-2.8-.8-3.1-2-.1-1.1 1.4-2 2.1-2.7.2.4.7.4 1.1.5.2.3.5.5.7.7m61.8-2.8c.3 1.1.5 2.4.5 3.7-.2-.5-.5-1-.6-1.4-.7-1.4-1.7-2.6-2.9-3.6-1.9-1.5-4.3-2.6-6.7-2.9-2.6-.2-5.2.4-7.5 1.6-1.5.8-2.8 1.7-4.1 2.8-2.1 1.6-3.7 3.7-4.7 6.1-.3.8-.6 1.6-.8 2.4-.1.4-.2.7-.2 1.1-1.4-.2-2.7-.5-4.1-.7-1.9-.4-3.8-.6-5.7-1.3-1.1-.5-2.1-1.4-2.8-2.4 2.8-2.5 6.2-3.9 9.4-5.6 1.4-.8 2.5-1.7 3.9-2.4q2.7-1.5 5.7-2.4c2-.5 4-.6 6.1-.7 2.8 0 5.5.5 8.2 1.2 2.4.6 5.4 1.9 6.3 4.5" class="st3"/><path d="M141.3 44.9c1.3 1.4-.2 3.6-1.9 3.6-1.3.1-2.7-.9-2.8-2.2 0-1.5 1.7-2.2 2.9-2.5.1.2.3.4.5.4.5.1 1 .2 1.3.7" class="st3"/><path d="M143.6 73.1c.3.5 0 1.3-.5 1.4-.3.2-.7.3-1 .3-1.2-.2-2.4-.5-3.7-.7-1.6-.3-3.8-.7-4.2-2.5-.2-.7.1-1.8 1-1.8 1.3-1.1 5.5.4 6.8 1.3.8.5 1.2 1.2 1.6 2m24.9-10.5c.7 1.5-.4 3-1.1 4.3-1 1.4-2.4 3.6-4.4 3.2-1.9-.7-1-3.3-.3-4.6s2.2-4.9 4.1-3.7c.6-.2 1.4.1 1.7.8m25.6 37.6c-1.9-.2-3.7-1-5.6-1.5-3.1-.7-6.2-1.3-9.3-1.9-3.1-.5-6.4-.5-9.4-1.6-.6-.2-1.1-.4-1.7-.6-.4-.1-.5-.5-.5-.9s.4-.8.8-.7c1.2.2 2.3.5 3.5.8 2.2.6 4.5.7 6.8 1 2.4.3 4.7.9 7.1 1.3 1.6.3 3.1.6 4.6 1 1.3.3 2.7 1 4.1.9 1-.8 1.7-1.9 2.6-2.9 1.5-1.7 2.8-3.6 4.4-5.2 1.7-1.7 3.5-3.1 5.5-4.5s4.1-2.7 6.2-4c3.2-1.7 6.6-3.3 9.5-5.5.7-.4 1.9-1.7 2.6-1.2.3.2.4.6.2 1-.1.2-.3.4-.5.5-.5.4-1 .7-1.5 1.1-2.9 2.3-6.2 3.9-9.4 5.7-2.3 1.3-4.5 2.8-6.7 4.4-2.3 1.6-4.4 3.5-6.2 5.6-1.3 1.5-2.4 2.8-3.6 4.3-.9 1.3-1.8 3.1-3.5 2.9m1.9 45.9c0-3.2.3-6.4.3-9.6.1-5.4-.6-10.8-1-16.3-.2-3.2-.3-6.4-.4-9.7-.1-2.1-.4-4.1-.5-6.2 0-.6.1-1.5.8-1.6.5 0 .8.6.5 1 0 1.7.4 3.5.5 5.2.3 3.8.4 7.7.7 11.5.3 3.3.7 6.6.8 10 .3 4.5.1 8.9-.1 13.4-.1.8.1 3-.9 3-.4.2-.7-.3-.7-.7m-1.8 26.9c.9-.2 1.2-1.5.9-2.3-.1-.6-.8-.9-.9-1.5-.7.5-1.6 1.3-1.5 2.2.2.8.7 1.6 1.5 1.6m-.7 1.7c-1.6-.6-2.7-2.5-2.3-4.1.1-1 2.6-4.1 3.4-2.3.6-.4 1.3.4 1.6.9.5.9.7 2.1.4 3.2-.4 1.3-1.6 2.8-3.1 2.3m13.9-9.5c.7 0 1.2-.8.5-1.3-.3-.3-.8-.4-1.2-.7-.3.3-.7.6-.8 1 .2.6.9 1 1.5 1m-3-1.3c0-1.1 1.7-3 2.8-2.5 1.8 0 3.2 2.4 2.4 4-1.4 2.9-5.3 1.4-5.2-1.5m14.7-3c.1 0 .2 0 .3-.1h-.2c1.4-.5.4-1.6-.6-1.8 0 .2-.1.4-.3.4h-.1c-.3.9 0 1.5.9 1.5m-1 1.8c-1.8-.6-2.1-3-1.2-4.5 0-.5.4-.9.9-1 1.4-.5 3 .7 3.6 2 .9 1.9-1.2 4.2-3.3 3.5m-7.9 14.6c-1.8-.4-2.4-2.8-1.4-4.2.4-.6 1.1-1.1 1.8-.9 1.5.2 2.8 1.8 2.3 3.4-.2 1.1-1.5 2-2.7 1.7m-17.6 7.3c-2.2-.6-.9-4 1.1-3 .7.4.9 1.4.5 2.1-.2.3-.4.6-.8.7-.1.2-.5.3-.8.2m6.1-4.7c0-1.2 1.6-1.2 1.6 0 .1 1.2-1.6 1.2-1.6 0m-14-16.9c0-1.3 1.7-1.3 1.7 0 0 1.2-1.8 1.2-1.7 0m-11.5-1c-.4-.5-.4-1.3.1-1.6.2-.3.7-.4 1-.2 1.2.7.1 2.9-1.1 1.8m20.3 32c-1-.1-1.2-1.5-.5-2.1l.3-.3c.7-.5 1.4.3 1.4 1.1 0 .7-.5 1.4-1.2 1.3m31.2-39.4c-1.2-.7-.9-2.5-.2-3.4.2-.2.4-.5.8-.6.3 0 .7 0 1 .1 2.1.8.5 4.9-1.6 3.9"/><path d="M193.6 174.6c-1.9-.8-2-3.9-.8-5.3.6-.6 1.5 0 1.3.8 3.2-.5 2.3 5.2-.5 4.5m12.4-8.9c-.7-.7-.9-1.9-.4-2.8.3-.7 1.2-.9 1.6-.2 1.2-.3 2 1 1.7 2.1-.3 1.2-2.1 2-2.9.9"/><path d="M192.6 172.1c-.8-1 .3-2.5 1.5-2.2.6-1.4 2.1-.5 1.8.7-.1.5-.6 1.2-1.2 1.2-.4.1-.7-.1-1-.1.1.6-.7.8-1.1.4"/><path d="M235.3 107.1c.1 1.6.1 3.3-.1 4.9-.4 3.2-1.6 6.3-3 9.2-.3.6-.6 1.1-.9 1.7-.4.6-1 2.3-1.8 2.3 0 2.8-.1 5.7.1 8.5.1 1.4.2 2.9-.3 4.3-.2.5-.4 1-.7 1.5-.1.2-.3.3-.5.4-.4.1-.7-.1-1-.2-.6 1.4-.4 7.1-3 5.7-.9-.7-1.5-1.7-2.3-2.5-.4 1.2-.6 2.5-1 3.8-.2.8-.5 1.9-1.5 1.9-1-.1-1.5-1.2-2.2-1.8-.6 1.3-1 2.6-1.3 3.9-.3 1.1-.8 3.8-2.5 2.8-1-.9-1.6-2.1-2.6-3-1.1 1.8-1.3 4-2.1 6-.2.7-1.1 1.5-1.8.9-.6-.5-.9-1.4-1.3-2.1-.6 1.6-2.2 7.8-4.7 5.4-.3-.3-.5-.6-.8-.9-.4-.5-.9-1-1.3-1.5-.3.4-.5.9-.7 1.4.1.2.2.5.1.8-.2 1-.9 2.2-2 1.4-.7-.3-1.9-3.6-2.6-3.1-.8.6-1.7 1.4-2.7.9-.9-.3-1.6-1.5-2.6-1.5-.9.3-1.7 1.2-2.7 1.2-1.5-.1-2.1-2.2-3-3.1-.4.3-.7.8-1.1 1.1-.5.5-1 1.2-1.7 1.1-.9-.1-1.5-.8-2.2-1.3-.9-.8-1.7-1.6-2.7-2.3-1 .7-1.5 1.9-2.5 2.5-1.3.6-2.2-1.5-2.9-2.3-.6-.8-1.1-1.7-1.9-2.3-.4-.1-.8.1-1.2.3-.9.4-1.8 1-2.7 1.5-.8.4-1.2-.6-1.5-1.2-.8-1.9-.8-4-.9-6-.1-.9-.1-1.9-.2-2.8l-2.1.9c-2.2.8-4.4 1.6-6.7 2.4-1.6.4-3.1.6-4.7 1-1.4.3-2.7.6-4.1 1h-.2c1.1 1.7 2.3 3.3 3.1 5.2 1.4 3 2.6 6.1 3.7 9.2 1.9 4.7 2.9 9.7 3 14.8.1 2.4-.2 4.8-.7 7.1-.1.3-.2.8-.3 1.3 1 .2 2 .3 3 .4.4-1.5.4-3.1.7-4.6.2-1.5.4-3 .5-4.5.2-2.3 0-4.6.2-6.9.1-1.3.9-8 3.2-5.5.5.7.7 1.6 1.1 2.4.8 2.3 1.8 4.6 2.6 6.9.8-4.2 2.8-8 4.7-11.8.3-.6.7-1.8 1.6-1.3.4.2.6.7.7 1.2l.6 2.4c.4 1.9.9 3.9 1.4 5.8.1.1.2.3.2.5v.2c.2 1 .4 1.9.6 2.9 1.5-3.8 3.5-7.6 6.3-10.7.5-.5.9-1.4 1.7-1.3 1.3.2 1.3 2.6 1.5 3.7.6 4.9.8 9.9.4 14.9-.6 6.6-1.3 13.1-2.3 19.7-.6 3.1-.7 6.4-1.6 9.5-.7 2.9-3.4 3-5.9 3.5s-5 .9-7.5.8c-1.7 0-3.5-.1-5.2-.3-1.6-.1-3.1-.6-4.6-.7s-2.9.1-4.4.3q-3.6.45-7.2 0c-1.1-.2-2.2-.3-3.3-.4-1.4-.1-2.9 0-4.1-.7-.3-.1-.4-.4-.4-.7-.2.3-.3.7-.5 1-1.5 2.6-3.9 3.4-6.7 3.7-4.1.7-8.3.7-12.5.5-2.5 0-5.1-.5-7.6-.7-4.8-.4-9.6-.1-14.5-.2-1.7 0-3.3-.5-4.9-.9-1.8-.4-3.6-.7-5.4-1-1-.1-1.9.1-2.8.3-1.2.2-2.2.3-3.4.3-.2 0-.3-.1-.4-.2-2.6.7-5.2 1-7.8 1.4-6.4 1.1-12.9 1.3-19.4 1.2h-8.3c-2.8.1-5.5.2-8.3.1-5.6-.3-11.1 0-16.7-.1-4.3-.1-10.4.5-12.3-3.6-.9-1.9.3-3.4 1.6-4.7 2.9-3.2 6.8-5.4 10.1-8.2 2.3-2.3 5.3-3.8 7.9-5.7 1.1-.9 2.1-1.8 3.2-2.7 1.7-1.5 3.6-2.8 5.3-4.2 1.1-.9 1.7-1.8 2.1-2.9-.2.1-.5.1-.8-.1-2.2-2.1-7.7-5-7-8.5.4-1.1 1.3-1.8 2.1-2.6.6-.6 1.2-1.2 1.9-1.7 2.1-1.7 4.3-3.4 6.4-5.2v-.3c0-.2 0-.3.1-.5-.4-.6-1-1-1.4-1.6-1.1-1.3-2.1-2.6-3.4-3.7-1.2-1.1-3.8-2.5-2.6-4.5.5-.6 1.2-1.1 1.8-1.7 1.2-1.1 2.3-2.3 3.4-3.5 1.3-1.5 2.8-2.7 4.3-4.1-1.9-2.7-3.9-5.3-5.3-8.2-.5-.9-.8-2.1-.3-3s1.1-1.7 1.9-2.4c1.9-1.8 4.6-2.1 6.7-3.5.1-.4.2-.8.3-1.1-3.6-.2-7.2 0-10.7-.6-4.8-.8-9-3.3-13.2-5.6-2.1-1-4.4-1.9-6.3-3.3-2.6-1.8-4.8-4.1-6.6-6.6C2.8 108.9.7 102.5.1 96c-.2-3.9.3-7.8 1.1-11.6.7-3.9 2-7.7 4.4-11 1.3-1.9 2.9-3.6 4.3-5.4 1-1.2 1.7-2.6 2.8-3.8.4-.4 1.4-1.4 2.2-1.9-.1-.7-.1-1.5-.2-2.3-.1-1.3-.1-2.6-.2-3.9v.1q-.6-7.65 0-15.3c.2-3.4.8-6.8 1.7-10.2.4-1.7.9-3.3 1.5-4.9.9-2.4 2.2-4.6 3.6-6.7 1.5-2 3-4.1 4.9-5.9 1.3-1.2 2.7-2.1 4.1-3s2.8-1.9 4.2-2.7c2.2-1.3 4.6-2 6.9-2.8s4.7-1.6 7.2-2c1.6-.3 3.3-.5 4.9-.5 2.5.1 4.9.5 7.3 1 3.2.9 6.4 1.9 9.3 3.4 2.4 1.5 4.1 4 5.6 6.5.9-.5 2.4-.7 3-1 .9-.2 1.9-.5 2.8-.8 1.6-.4 3.2-.5 4.8-.7s3.3-.4 4.9-.3c1.2.1 2.3.1 3.5.3.1-.1.2-.2.2-.3 1.3-1.7 2.8-3.2 4.2-4.7 1.8-1.8 4.2-2.8 6.6-3.6 1.6-.6 3.1-1.2 4.8-1.5 3.3-.6 6.8.3 9.8 1.8 2.1 1.2 4.4 2.1 6.3 3.6 1.9 1.6 2.8 4 3.9 6.2 1.2 2.5 1.9 4.8 2.6 7.3.3.9.6 1.9.8 2.8v.2c1 .3 2.1.7 3 1.4.8.5 2.9 2.4 3.1 3.7 1.5.9 3 2.1 4.2 3.4 1 1.2 1.8 2.6 2.3 4 .2.8 1.1 3 .8 4 .7.7 1.3 1.6 1.6 2.6.6 2.4.9 5.2 0 7.5 0 1.2.1 2.3 0 3.4.4-.2.9-.4 1.3-.5 3-1 5.9-1.7 9.1-2 2.1-.2 4.3-.4 6.4.1 5.2 1.3 9.8 5.2 11.6 10.3.8 2 1 4.1 1.2 6.2q.3 3.15.3 6.3c0 2.5.2 5.3-1.2 7.6-.9 1.4-2.4 2.2-3.8 2.9.1.2.1.3.1.5.1.5.3 1 .4 1.5 2.1-1.2 4.1-2.5 6.2-3.7 1.7-.9 3.4-2 4.8-3.3 2.4-2.2 4.6-4.6 6.9-6.8 1.4-1.4 3-2.8 4.3-4.3s2.3-3.2 3.4-4.9c.7-1 1.3-2.2 2.4-2.8 1.4-.8 3-.3 4.4.1 2.8.9 5 2.9 7.4 4.5 1.9 1.2 4 2 6.1 2.9 1.9.8 3.6 1.9 5.5 2.8.9.4 1.9.8 2.8 1.2.7.2 1.5.7 1.3 1.6 0 .1 0 .1-.1.2.1.2.1.4.1.7.3 4.2.3 8.6.7 12.7.2 3.1.3 6.1.3 9.2 0 .3 0 .6-.1.8 1.1 1.2 2 2.4 2.8 3.8 1.4 2 1.6 4.6 1.8 7.1m-1.8 3.8c.1-2.8 0-5.7-.7-8.5-.9-2.6-3.3-5.4-5.5-7-2-1.2-4.4-1.7-6.7-1.8.8 2.2 2.7 3.7 4.4 5.3.8.7 2.3 1.8 1.3 2.9-.4.4-.9.3-1.3.2-2-.1-4.1-.4-6.1-.2 1.3 2.5 3.6 4.4 5.6 6.3.7.6 1.4 1.1 1.9 1.9.4.6.4 1.5-.3 1.9-.4.3-1 .2-1.5.2-2.1 0-4.3 0-6.4.4.9 1.8 2 3.6 3.2 5.2 2.1 2.3 4.6 3.9 7.1 5.6h.3c1.5-2.4 2.7-5.1 3.6-7.7.6-1.4 1-3 1.1-4.7m-4.4-16.6v-.7c0-2.3-.1-4.5-.3-6.8-.2-3.4-.4-6.7-.5-10.1 0-1.2-.2-2.5-.1-3.7v-.2c-.1-.1-.3-.1-.4-.2-1.1-.5-2.2-.9-3.3-1.4-1.8-.8-3.4-1.8-5.2-2.6-1.5-.6-3-1.2-4.4-2-2.7-1.3-4.8-3.6-7.5-4.8-1-.4-2.1-.8-3.2-1-.8-.1-1.4.2-1.9.8-1.6 1.9-2.6 4.2-4.2 6.1-1.5 1.9-3.3 3.6-5.1 5.3s-3.4 3.5-5.2 5.2q-1.8 1.8-3.9 3.3c-1.4 1-2.8 1.7-4.3 2.5-1.7 1-3.4 2-5.1 3.1-.1.4-.6.7-.9.6-.1.1-.3.2-.4.2-3.4 2-7.3 3.2-10.9 4.6-.3.1-.6.3-.8.5s-.2.5-.3.8c-.1.8-.2 1.5-.3 2.3-.1 1.2-.1 2.3-.1 3.5 1.2-.8 2.4-1.6 3.7-2.1 1.9-.5 2.2 1.8 1.7 3.1-.7 2.7-2.1 5-3.5 7.4 2.4-1.1 4.7-2.2 7.1-3.2.7-.3 1.5-.6 2.2-.9.5-.2 1.1-.5 1.7-.2 2.5 1.2-1.4 7.6-2.4 9.2 1.3-.9 4-3.4 5.4-1.7.6.8.6 1.9.5 2.9-.3 2.2-1.4 4.2-2.6 6-1.9 3-4.7 5.2-7.5 7.3l-5.4 4.2c.1.1.1.3.1.5.1 3 .3 5.9.4 8.9 0 .8.1 1.6.1 2.4v.3l.3 4.2c.1 1.7.1 3.5.8 5.1 1.3-.6 2.8-1.9 4.4-1.5.6.2 1 .7 1.4 1.2.9 1.1 1.6 2.3 2.5 3.4.7-.7 1.2-1.5 1.9-2.1.3-.2.5-.4.9-.5.9-.1 1.6.8 2.2 1.2 1 .8 1.8 1.8 3 2.3 2.3-2.4 2.9-3.7 5-.2.2.3.4.6.7.9.1.1.1.2.2.1 1.8-.9 2.6-2 4.6-.5.3.3.7.5 1 .8.1.1.3.2.5.1.4-.2.8-.6 1.2-.9 1.7-1 2.8 1.1 3.6 2.3.3-.7.5-1.3.8-2 1.4-3 3.3.6 4.7 1.7 1.1-1.5 1.6-3.4 2.1-5.1.2-.7.4-1.9 1.4-1.8.6.1.8.7 1.1 1.1.3.5.6 1 .8 1.6.6-1.6 1.3-6.3 3.1-6.7 1.3-.1 2.6 2.2 3.4 3.1.8-2 1.1-4.2 2.2-6.1 1.1-1.7 2.3.2 3.2 1.1.5-1.5.8-3 1.2-4.5.2-.8.8-1.6 1.7-1.1 1.1.6 1.7 1.7 2.6 2.5.4-1.5.4-3 .9-4.5.3-.9 1-1.4 1.9-1.1.7-1.2.5-2.7.5-4 0-.9-.1-1.7-.1-2.6-.1-2-.1-4.1 0-6.1-.1-.1-.3-.2-.4-.2-4.4-2.9-7.2-4.9-9.8-9.6-.8-1.4-2.3-3.7 0-4.5 2-.6 4.2-.5 6.2-.5-2.5-2.3-5.1-4.5-6.6-7.5-1.9-3.8 4.2-2.7 6.2-2.7-1.3-1.2-2.5-2.4-3.5-3.9-1.5-2.3-2.1-4.8 1.6-4.4 2.5.2 5.1.8 7.1 2.4.1 0 .2 0 .3.1m-48 86.5c.1-2 .1-4 .1-6-.5-.1-1-.4-1.5-.5-1-.3-2.1-.6-3.1-1-.4-.1-.7-.4-.9-.7-.1.2-.2.5-.3.7-.6 1.3-1.1 2.6-1.7 3.9-.2.6-.9 1.3-1.5.8-.4-.3-.5-.8-.6-1.2-.3-1.1-.5-2.3-.7-3.4h-1.7c-1 0-2 .1-2.9.2-.4 0-.8.1-1.2.1-.2.7-.4 1.5-.6 2.3-.2 1-.3 1.9-.3 2.9 0 .7.1 2.3-1.1 2-.5-.2-.6-.8-.7-1.2-.2-.8-.4-1.6-.6-2.5-1 .2-2.2.1-3.2.3-.3 0-.7.1-1.1.1 0 1.5-.2 2.9-.4 4.4l-.6 4.8c-.2 1.2-.3 3.3-1.9 3.1-1.2-.1-2.4-.2-3.5-.6-.2 1-.6 2.1-.8 2.7-.6 1.5-1.2 2.9-2 4.2-1.2 2.1-2.9 3.9-4.5 5.7-1.5 1.7-2.6 3.8-4 5.6-.5.5-1.5 2.2-2.4 2.4v.1l-.9 2.4c.2-.1.3-.1.6 0 .5.2 1 .5 1.5.5 1.1 0 2.1 0 3.2.2 2.1.2 3.9.6 5.9.5 2.4 0 4.7-.5 7.1-.6 1.6 0 3.3.4 4.9.6 1.4.1 2.9.2 4.3.2 2.6.2 5.3 0 7.9-.6 1.4-.3 2.8-.4 4.2-.9 1.1-.5 1.2-1.9 1.4-2.9.3-1.5.4-3 .6-4.5.5-3.2 1-6.5 1.4-9.7.7-5 1.3-9.7 1.6-14.4m0-7.8c-.1-2.4-.3-4.7-.8-7-1.6 1.7-3 3.5-4.1 5.6h.1c.5.2 1.2.3 1.7.5.7.2 1.3.4 1.9.5.3.1.8.2 1.2.4m-4.3-95.7c.3-1.7.3-3.5.2-5.2-.2-4.7 0-9.7-2.6-13.8-2.4-3.6-6.2-6.3-10.5-6.8-4.8-.2-9.7.7-14.3 2.2-.3.1-.7.2-1 .4-.4 1.4-1.3 2.6-3 3.6-2.1 1.3-4.5 2.2-6.8 3.1-2.9 1-6.1 1.1-9.1 1-3-.3-5.9-1.1-8.9-1.7-2.9-.5-5.9-.8-8.4-2.5-.7-.4-.4-1.8.5-1.5 1.3.4 2.5 1 3.8 1.4 2.9.6 5.8 1 8.7 1.7 1.4.2 2.7.5 4.1.7 2.7.2 5.4 0 8-.6 1.6-.5 3.3-1.3 4.8-1.9 1.4-.6 2.7-1.3 3.8-2.3 1.2-.9 1.5-2.6 1.5-3.9-2 1.9-5.8 2.4-8.3 3-3.1.6-6.4.7-9.6.6-2.9-.2-5.9-.6-8.8-.9-1.6-.3-3.2-.6-4.7-.8-2.3-.5-4.8-.6-6.9-1.8-1-.7-4.3-3-2.6-4.3.2-.9 1.1-1.4 1.7-1.9 2.6-2.2 5.8-3.5 8.7-5.2 4-2.8 8.6-5.2 13.7-5.4 3.2-.3 6.5.1 9.6.9 1.6.4 3.2.8 4.6 1.6l.9.6c-.4-1.7-1-4.3-3.4-6.3-3.7-3.4-7.3-4.3-12.3-3.4-2.9.6-5.6 1.5-8.4 2.7-1.8.7-3.6 1.4-5.3 2.4-2.7 1.6-5.2 3.4-7.6 5.4-1 .9-4 3.7-5.2 3.5-.3-.1-.4-.6-.3-.9 0-.1.1-.2.2-.3 2.4-1.4 4.3-3.6 6.4-5.4 2.5-2 5.2-3.9 8.1-5.2 6-2.5 12.7-5.8 19.2-4-.6-.6-1.4-1.1-2.2-1.5-2.7-1.1-5.7-1-8.5-.4-1.8.4-3.7.8-5.4 1.5-2.8 1.3-5.3 3.2-8.1 4.6-1.8 1-3.4 2.1-5 3.3-.8.6-1.7 1.3-2.5 1.9-.2.2-.5.3-.7.1-1-.9 1.2-2.1 1.7-2.7 1.8-1.5 3.7-3 5.8-4.1 1.4-.8 2.8-1.5 4.1-2.4 1.7-1.2 3.6-2.3 5.6-3 3.2-1 6.8-1.9 10.1-1.5-1-3.2-1.9-6.5-3.3-9.4-.9-1.8-1.6-3.7-3.1-5.1-1.1-.9-2.5-1.6-3.7-2.3-2.6-1.5-5.3-2.7-8.3-2.9-2.4-.2-4.8.6-7 1.4-1 .4-2.1.7-3.1 1.1-1.1.5-2.1 1.1-3 1.9-1.1.7-1.9 1.6-2.7 2.4-.5.5-1 1.1-1.5 1.6 1.5.3 3 .8 4.3 1.5 2.3 1.2 4.6 2.2 6.9 3.4.7.4.4 1.8-.5 1.5-2.7-.9-5.3-2.3-7.9-3.5-2.9-1.2-6.1-1.6-9.2-1.6-2.5.1-4.8.3-7.2.6-2.1.4-4.2.9-6.3 1.3h-.1c1 2 2.1 4 2.9 6.1.2.5.4 1.3-.1 1.7.6.2 1.2.5 1.8.8 1 .7 1.7 1.6 2.5 2.4.4.6 1.2 1.3 1.3 2.1q1.5.9 2.7 2.1c1.2 1.1 2.2 2.4 2.8 3.9.5 1.2.8 2.5 1 3.8.1 1.3.5 2.5.4 3.8 1.1 1.7 1.7 3.7 1.4 5.8-.2 1.3-.5 2.5-1.1 3.7 0 1.4-.1 2.8-.7 4.1-.4.8-.7 1.7-1.2 2.4s-1.2 1.3-1.9 1.8c-1.2.9-2.5 1.6-3.9 2.3-1.3.7-2.7 1.4-4.2 1.8-2.3.5-4.7.6-7.1.7-1.9 0-3.8-.1-5.7-.1-.2.7-1.3 1.1-1.8 1.6l-1.5 1.2c-1.1 1-2.2 2-3.5 2.8-1.5.9-3.2 1.7-4.7 2.4-.6.3-1.2.5-1.8.8-.2.2-.4.3-.7.1-.7-.7.2-1.4.8-1.7.7-.4 1.4-.7 2.1-1.1 1.1-.6 2.2-1.2 3.2-1.8 1.9-1.3 3.5-3 5.3-4.4-1.2 0-2.5 0-3.7-.1-3.4-.4-6.8-1.1-10-2.3-.7-.2-1.2-.9-.5-1.4.2-.2.6 0 .8 0 1 .2 1.8.5 2.7.7 2.3.6 4.6 1.1 7 1.3 3.1.1 6.2-.1 9.3-.1 4 0 8.3.3 12-1.6 2.2-1.1 4.6-2.1 6.3-4 .7-1.1 1.3-2.3 1.7-3.6v-.2c-1.7 1.1-4.2 1.2-6.1 1.7-2.5.3-5.1.8-7.6 1-3.2.3-6.4.3-9.7.3-2.5 0-5.1-.3-7.6-.4l-3.3-.3c-1.6-.1-3.2-.2-4.8-.5-2.1-.4-10.6-2.4-9-5.4-1.1-1 1.1-2.2 1.8-2.8 2-1.5 4.2-2.4 6.4-3.5 2.1-1 3.9-2.6 6-3.6 2.2-1.1 4.3-2.4 6.7-3.2 1.6-.5 3.2-.8 4.9-1s3.3-.4 5-.6c2.4-.1 4.9-.3 7.3.1 1.6.3 3.1 1.2 4.5 1.9 1.4.8 2.8 1.6 4.2 2.6.3.2.5.4.7.6-.3-2.1-.5-4.2-1.7-5.9-4.9-6.8-14.9-8.2-22.5-6.1-4.5 1-8.6 3.4-12.7 5.4-2.2 1.3-4.6 2.4-6.8 3.7-2.3 1.5-4.2 3.3-6.2 5.1-.1.4-.7.5-.9.1-.5-1 1-2 1.6-2.6 1.8-1.7 3.6-3.5 5.7-4.7 4.4-2.4 8.7-4.8 13.2-6.9 3-1.3 6.3-2.3 9.6-2.8 4.2-.5 8.7-.1 12.6 1.5-.9-1-2-1.9-3.3-2.1-2.6-.6-5.2-.7-7.8-1-2.1-.2-4.3-.1-6.4.4-1.2.3-2.3.9-3.4 1.4-1.2.5-2.4.9-3.6 1.3-2.5.9-4.9 2.1-7.2 3.4-1.2.6-2.5 1.3-3.6 2.1-1.2.8-2.5 1.6-3.6 2.6-.2.2-.4.4-.6.4s-.4-.1-.5-.3c-.2-.7.5-1.3.9-1.7 1.1-1 2.4-1.9 3.6-2.7 2-1.3 4-2.4 6.1-3.5q2.55-1.2 5.1-2.1c1.7-.5 3.3-1.3 4.9-2 2.2-.9 4.5-1.1 6.8-1.1 1.9.1 3.8.3 5.8.5 1 .1 2.1.2 3.1.4-.2-.4-.4-1.1-.5-1.5-.5-1.3-1.2-2.6-1.8-3.9-1.4-2.6-3-5.2-5.2-7.2C69 7.5 66.9 7 65 6.3c-1.2-.4-2.4-.8-3.6-1.1C54.2 3.3 48.9 4 42 6.5c-2.2.7-4.5 1.4-6.5 2.6-1.8 1.1-3.3 2.1-5.1 3.3-1.3.9-2.5 1.8-3.6 2.9-1 1.1-1.9 2.2-2.8 3.4-1.6 2-3 4.2-4.1 6.6-1.4 3.3-2.3 6.8-3 10.3-.8 4.4-1 8.9-1.1 13.3 0 3.1.2 6.2.3 9.4 0 1.1.1 2.3.1 3.4v.7c.1.2.1.4 0 .5-.2.4-.8.7-1.2 1.1-.5.5-1.1 1-1.5 1.6-1.2 1.5-2.2 3.2-3.4 4.7-4.7 5.5-6.3 8.6-7.5 15.7-.6 3.2-1 6.3-.8 9.6.2 2 .6 3.9 1 5.8 2 8.2 7.1 16.2 15 19.6h-.2c2.6 1 4.8 2.6 7.3 3.7 6.8 3.5 10.7 3.3 18.1 3.6 2.5.1 5 .6 7.5 1.1 1.5.3 3 .4 4.5.6s3 .5 4.5.6c2.4.2 4.9.2 7.3.2 5 0 10 0 15.1-.1 2.5-.1 4.9-.4 7.4-.4 2.5-.1 5.1-.2 7.6-.5 3.4-.2 6.7-.6 10.1-1.2 3.3-.4 6.5-1 9.7-1.7 1.7-.3 3.4-.5 5.1-.9.7-.1 1.5-.4 2.2-.5h.3c2.5-1.7 5.1-3.2 7.7-4.8 2.9-1.9 5.3-4.4 8.1-6.4 2.9-1.9 5.6-4 8.4-6.2 2.8-2.1 5.7-4 8.6-6 .8-.5 1.5-1.1 2.3-1.6v-1c0-1.6-.1-3.3.1-4.9 0-.8.2-1.5.3-2l-.2-.2c-1.1-1-2.4-2-3.5-3-.3-.3-.6-.5-.9-.7 0 0-.1 0-.1-.1-.2.2-.3.4-.5.6-.3.4-.5.7-.8 1.1-1.1 1.4-2.2 2.9-3.5 4.2-.7.8-1.8 1-2.8.8-1.6-.2-3.2-.8-4.6-1.6-1.3-.8-2.5-1.7-3.9-2.4-1-.5-1.9-1.1-2.9-1.4-.2-.1-.3.1-.5.2-.3.3-.6.7-.9 1-1.4 1.7-2.2 3.7-3.7 5.4-1.2 1.4-2.9 1.9-4.6 1.3q-2.4-.75-4.5-2.1c-.8-.5-1.6-1.1-2.4-1.7-.7-.4-1.5-1-2.3-1-2 1.2-3.1 3.4-4.7 5-1.6 1.5-3.5 3-5.8 2.9-1.7-.1-3.1-1.1-4.5-2.1-1.6-1.1-3.1-2.3-4.6-3.5-1 1.4-1.6 3.1-2.7 4.5-1.6 2.2-4.1 3.3-6.7 2.2-1.5-.6-2.8-1.6-4-2.7-.6-.5-1.3-1.1-1.9-1.6-.5-.4-1-.7-1.4-1.2-.3.1-.7.1-1 .2-1 .2-2 .4-3.1.6-.4.1-.7-.2-.8-.6s.1-.9.5-1c2-.8 4.1-1 6.2-1.4 2-.4 4.1-.7 6.1-.9 1.9-.1 3.8 0 5.7-.1h2.7q.3-.15.6 0c2.1-.1 4.1-.3 6.1-.6 2.2-.3 4.5-.3 6.7-.7s4.3-1 6.4-1.7c3.1-.9 6.3-1.3 9.5-1.7 3.1-.4 6.2-1.2 9.3-1.5 5.2-.8 10.5-1.3 15.7-1.9 3.7-.3 7.5-.5 11.2-1.3 2.2-.5 4.4-.8 6.5-1.4 2.1-.5 4-1.4 5.8-2.5.8-.4 1.6-1.5 1.8-2.7m-1.5 37.4c.2-.7.4-1.5.2-2.2-1.8.3-5.8 4.4-7.1 4-.9-.4-.7-1.5-.2-2.1.6-.9 1.2-1.8 1.7-2.6 1.2-1.9 2.3-3.8 2.8-6-2.2.8-4.4 1.8-6.6 2.7-1.2.5-2.3 1.1-3.4 1.6-.6.2-1.4.7-2 .4-1.2-.7-.3-2.1.2-2.9 1.5-2.5 3.1-5 3.7-7.9-1.4.7-2.7 1.5-4 2.4-.1.3-.3.6-.7.6h-.1c-.8.5-1.5 1.1-2.3 1.6-2.8 2-5.8 3.9-8.6 6-2.7 2.2-5.6 4.1-8.4 6.1-2.1 1.6-4 3.4-6.1 5s-4.4 2.9-6.6 4.3c-3.4 1.9-6.2 4.8-9.7 6.6-2.3 1.2-4.7 2.3-7.1 3.3-2.9 1.2-5.8 2.5-8.8 3.4-.6.1-.9-.8-.5-1.2.8-.5 1.7-.8 2.5-1.2 2.3-1 4.8-2 7.1-3.1 2-.9 4-1.8 5.9-2.8 1.4-.8 2.7-1.7 4-2.7l-3.6.6c-2.4.4-4.7.9-7.1 1.2-2.3.3-4.5.7-6.8 1-3.3.5-6.6.6-9.9.9-3.4.2-6.7.3-10.1.6-4.3.3-8.7.2-13.1.3-2.5.1-5 .1-7.5.1-1.9 0-3.7-.1-5.6-.3-2.6-.4-5.2-.7-7.8-1.1-1.8-.3-3.6-.7-5.4-.9-.1.4-.2.7-.2 1.1 0 .2 0 .4-.1.5-.8 3.6-1.5 7.3-1.9 11q-.15 2.85-.6 5.7c-.5 4.7-1.3 9.3-1.7 14-.2 1.4-.4 2.9-.5 4.3.1.2.2.4.2.6.2.7-.1 1.3-.5 1.8-.1.6-.1 1.3-.2 1.9-.2 3.7-.8 7.3-1.4 10.9-.5 2.7-.6 5.9-2.7 8-1.4 1.4-3 2.5-4.5 3.7-1.9 1.4-3.6 3.2-5.5 4.6-2.2 1.6-4.6 2.8-6.5 4.6-1.6 1.6-3.3 2.7-5.1 4-1.4 1.1-2.8 2.1-4.1 3.2l-2.1 2.1c-.3.4-.7.8-.8 1.3.4 2.2 3.4 2.5 5.2 2.7 5.5.4 11.1.1 16.6.2 2.8 0 5.6.2 8.3.3 1.8.1 3.7-.1 5.5-.1 5.7 0 11.5.4 17.2 0 4.8-.2 9.6-1.1 14.4-1.8 1.3-.3 2.5-.6 3.8-.6h.2c.7-.2 1.4-.2 2.1-.2.8-.1 1.5-.2 2.3-.3 2.4-.3 4.8.4 7.2.8 1.3.3 2.6.7 4 .9.8.1 1.5 0 2.3 0 4 0 8.1-.1 12.1.1 2.2.1 4.4.5 6.6.7 3.6.2 7.2.4 10.8.1.9-.1 1.8-.2 2.6-.3 2-.3 4.3-.5 5.7-2.2 1.3-1.5 1.8-3.5 2.5-5.3q1.8-4.2 2.7-8.7c.8-3.4 1.4-6.8 2-10.2.9-4.9 1.7-9.8 2.6-14.7.1-.3.1-.7.2-1-.1.1-.3.2-.5.1-1.1-.3-2.3-.7-3.4-1.1-.2 0-.3-.2-.4-.3-.8 2.1-1.6 4.3-2.3 6.4-.3.9-.5 1.9-.9 2.8-.4.7-1.3.5-1.5-.3-.1-.9 0-1.8 0-2.6.1-2.5.2-5.1.3-7.6v-.3h-.5c-1-.1-2.1-.4-3.1-.6-.4-.1-.9-.1-1.3-.3-.5 1.4-1 2.9-1.4 4.4l-.9 4.2c-.2.7-.2 1.6-.8 2-.9.4-1.3-.7-1.3-1.4l-.3-5.7c-.4-.1-.8-.1-1.2-.2-.9-.1-1.7-.1-2.6-.1-.7 0-1.3 0-2-.1-.2 0-.3-.1-.4-.2-.8 2.4-1.7 4.7-2.2 7.2-.6 2.7-1 5.1-1.3 7.8-.3 2.1-.8 4.1-1.3 6.2-.1.2-.1.5-.1.7.1.2.2.3.2.5.1.4-.1.8-.4 1-.1.2-.4.4-.6.3-.3 0-.5-.3-.6-.6-.4-.3-.6-.7-.9-1.1-2.9-3.2-6.6-5.5-9.8-8.4-1.7-1.6-3.7-2.7-5.7-3.9-1.1-.7-2.1-1.4-3.3-1.9s-2.4-.9-3.7-1.3c-3.7-1.1-7.4-2.4-11.3-2.4-3.1 0-6.2 0-9.1 1-1.5.5-2.9 1-4.4 1.6-.3.2-.7.3-.9.6-.6.6-1.2-.4-.8-.9.8-1.4 3.4-2 4.8-2.6 2.7-1.1 5.6-1.6 8.5-1.6 1.8-.1 3.5-.1 5.3.1 1.5.2 3.2.7 4.5 1 2.5.7 4.9 1.4 7.3 2.3 1.6.6 3 1.6 4.4 2.5 1.5.8 2.9 1.7 4.2 2.8 3.2 2.9 6.8 5.2 9.9 8.2l1.1 1.1c.3-1.9.8-3.8 1.1-5.7.5-4.8 1.5-9.5 3.2-14 .7-2.4 1.6-4.8 2.5-7.1.6-1.6 1.2-3.1 2.1-4.5.3-.4.6-.9 1-1.2 2.4-1.4 3.5 5 3.8 6.5.3 1.6.3 3.2.4 4.8.2 0 .4.1.5.1.5-1.8 1.2-3.6 1.9-5.3.7-2 1.6-3.9 3-5.5 2.5-2.9 4.2 1.1 4.3 3.4.2 3.6-.2 7.3-.3 10.9 1.2-3.4 2.4-6.7 4.1-9.9q1.2-2.1 3-3.6c1.3-1.1 2.4-.1 2.6 1.4.4 2.2 0 4.4-.4 6.5-.6 4.1-1.3 8.2-2 12.3-1.3 7.5-2.4 15-4.4 22.4 0 .1 0 .1-.1.2.8-1.3 1.6-2.6 2.5-3.8 1.7-2.2 3.7-4.1 5.2-6.5.9-1.5 1.6-3.1 2.3-4.7.2-.6.5-1.3.7-1.9 0-.3.1-.7.2-.9.3-1 .6-2.1.8-3.1.5-2.3.5-4.7.3-7.1-.3-4.7-1.6-9.3-3.3-13.6s-3.2-8.7-6-12.4c-1.4-2-2.5-4.2-3.5-6.4-3.8 1.9-7.8 3.5-11.8 5.1-1.6.7-3 1.6-4.5 2.5s-3.2 1.5-4.8 2.1-3.2 1.2-4.9 1.6c-2.8.8-5.6 1.6-8.6 1.8-.6.1-1.1.1-1.6.2-.4.1-.7-.2-.8-.6-.2-1.2.9-1.1 1.7-1.4 1.8-.5 3.7-.6 5.6-1.1 3.8-.9 7.5-2 11-3.6 1.9-.9 3.7-2.1 5.6-3.1 2.5-1.2 5.2-2 7.7-3.1 1.5-.7 3.1-1.5 4.6-2.2 4.6-2.2 8.8-5.4 13.4-7.7 2.5-1.2 5.1-2.2 7.4-3.8 1.4-.9 2.7-2 4.1-3 3.9-3.2 8.6-5.9 11.3-10.2 1-1 1.6-2.2 2.1-3.5m-2.4-28.8c0-.3-.1-.6-.2-1s-.2-.9-.3-1.3c-1.2.5-2.5.9-3.8 1.2 0 .2 0 .5-.1.6-.4 1.1-.9 2.1-1.5 3.1 2-.7 4-1.6 5.9-2.6m-3 85.9h.5c-.5-2.1-1.1-4.3-1.6-6.4-1.2 2.3-2.3 4.5-3.2 6.8.2 0 .4-.1.6-.1 1.2-.2 2.5-.3 3.7-.3m-2.8-86.7c-.2 0-.4.1-.7.1-2.1.4-4.2.8-6.2 1.2-1.5.3-3.1.4-4.6.6v.1c.4.2.7.5.9.7 1.4 1.1 2.9 2.1 4.2 3.4.9-.7 2.1-1 3.8-1.7.2-.4.6-.8.8-1.1.5-.8.9-1.5 1.4-2.3 0-.3.2-.6.4-1m-5.8 90.6c-.9-2.5-2-4.9-2.9-7.4-.7 2-.9 4.2-.8 6.3v1.4c.2 0 .5 0 .7-.1 1-.1 2-.1 3-.2m-.6-33c-.1-1.7-.1-3.3-.2-5 0-1.8-.2-3.6-.1-5.3-1.9 1.3-3.9 2.5-6.1 3.4-4.8 2-8.9 5-13.4 7.5-.4.3-.9.5-1.3.7.3.6.5 1.2.9 1.7.5 1 1 1.9 1.6 2.9.2-.2.5-.2.8-.3 1.2-.4 2.4-.6 3.5-.9 1.5-.4 3-.7 4.4-1 1.5-.4 2.9-1 4.4-1.6 1.5-.5 2.9-1 4.3-1.6.5-.2.9-.3 1.2-.5m-7.8-54.2c.3-.3.6-.9.9-1.4-.6.1-1.2.1-1.9.2-4.6.5-9.2.9-13.7 1.5.9.4 1.7.9 2.5 1.4 1.8 1.2 3.5 2.5 5.7 3 .7.1 1.5.4 2.3.2 1-.7 1.8-1.9 2.5-2.8.6-.6 1.1-1.3 1.7-2.1m-5.1-42.9c0-1.3-.2-2.6-.5-3.7-.9-2.5-3.9-3.8-6.3-4.5-2.7-.7-5.4-1.3-8.2-1.2-2 0-4.1.2-6.1.7q-3 .9-5.7 2.4c-1.4.8-2.6 1.6-3.9 2.4-3.2 1.7-6.7 3.2-9.4 5.6.7 1 1.7 1.9 2.8 2.4 1.9.7 3.8.9 5.7 1.3 1.4.2 2.7.5 4.1.7 0-.4.1-.7.2-1.1.2-.8.5-1.6.8-2.4 1-2.4 2.6-4.5 4.7-6.1 1.2-1.1 2.6-2 4.1-2.8 2.3-1.2 4.9-1.8 7.5-1.6 2.4.3 4.8 1.4 6.7 2.9 1.2 1 2.2 2.2 2.9 3.6.2.4.4.8.6 1.4m-4 125.4c.3-2.2.9-4.5.4-6.7-1.5 1.2-2.6 2.7-3.4 4.5-.4.9-.9 1.9-1.3 2.9.5-.2 1.2.2 1.7.3.7.2 1.3.4 2 .6.2.1.3.2.4.3 0-.7.1-1.3.2-1.9m-4.4-122.5c1.7 0 3.2-2.2 1.9-3.6-.4-.4-.9-.6-1.4-.7-.2-.1-.4-.2-.5-.4-1.2.4-2.8 1.1-2.9 2.5.2 1.3 1.6 2.2 2.9 2.2m-4.7 121.2c.1-2.4.4-5.7-.9-7.1-1.9 1.5-2.6 4-3.6 6.2.3 0 .6.1.9.1 1.2.3 2.4.4 3.6.8m-1-80.1q0-.15 0 0-1.8.15-3.6.6c-3.6.8-7.3.9-10.8 1.7 1.3.7 2.6 1.8 3.4 2.3 1.3.8 2.7 1.5 4.1 1.9 2 .8 3.4-1.1 4.3-2.6.8-1.4 1.6-2.7 2.6-3.9m-6.9 84.7c0-.1 0-.2.1-.2h-.1zM125 172c0-.6-.1-1.3-.1-1.9-.2-2.4-.6-4.9-1.7-7.1-1.3 1.7-1.8 3.7-2.6 5.6-.4 1.1-.8 2.1-1.2 3.2h.1c1.8 0 3.7 0 5.5.2m-13.1-76c.7-.9 1.4-1.8 2.1-2.6-1.8.5-3.6.8-5.4 1-2.3.3-4.7.4-7 .7-.6.1-1.2.1-1.9.2q2.1 1.65 4.2 3c3.2 2.1 6 0 8-2.3m-16.9.3c.2-.3.3-.6.5-.9h-3.3c-2.2 0-4.5 0-6.6.4-.9.1-1.8.3-2.7.4 1.9 1.2 3.4 3 5.4 3.9 3.2 1.8 5.3-1.1 6.7-3.8m-3.4-50c.1-1.5-.3-3-1.1-4.2s-2-2.2-3.2-2.9c-1.7-1.1-3.4-2.1-5.2-3s-3.9-.8-5.9-.8c-1.1 0-2.2.1-3.3.2-2.8.4-5.8.5-8.5 1.2-2.1.6-4.1 1.7-6.1 2.7-2 .9-3.8 2.2-5.7 3.4-3.1 1.7-6.5 2.9-9.2 5.2 0 .1-.1.2-.1.3.5.3.5 1 1 1.3 1.6.9 3.4 1.5 5.1 1.9 1.9.5 3.9.9 5.9.9 2.3.2 4.5.3 6.7.5 0-1.3.4-2.9.5-3.6.6-2.6 1.9-5.1 4-6.9 2.1-1.7 4.3-3.1 6.9-3.9 6.6-2.2 8.4-1.4 13.9 2.6 1.5 1.2 2.7 2.8 3.8 4.5.2.1.4.3.5.6m-6.9 2c1.8-.1 1.8-2.5.8-3.5-.2-.2-.5-.5-.8-.6-.4-.2-.8-.2-1.1-.5-.7.7-2.2 1.6-2.1 2.7.4 1.1 2 1.9 3.2 1.9m-42.2 85.2c-.2.1-.3.2-.4.2-2.3 1.2-4.5 1.4-5.9 3.8-.5.8-.6.9-.2 1.8.5 1 1.1 2 1.7 3 .9 1.3 1.7 2.7 2.7 3.9v.1c0-.3.1-.6.1-.8.2-1.9.3-3.8.6-5.7.4-2.1.9-4.2 1.4-6.3m-2.6 17.6s0-.1 0 0c-1.3 1.1-2.6 2.3-3.9 3.7s-2.8 2.6-4.1 4c.8.8 1.7 1.4 2.5 2.2 1.1 1 2 2.1 2.9 3.2.3.4.6.7.9 1 .2-1.8.4-3.7.6-5.5.4-3 .8-5.8 1.1-8.6m-2.4 19.8-.1.1c-2.7 2.4-6 4.3-8.3 7.2-.6 1.9 5.1 5 6.3 6.5l.1.1c0-.1 0-.3.1-.4l.9-5.4c.5-2.6.8-5.4 1-8.1"/></svg>