<svg xmlns="http://www.w3.org/2000/svg" xml:space="preserve" id="Calque_1" x="0px" y="0px" version="1.1" viewBox="0 0 222.6 254"><style>.st1{fill:#fdd104}.st2{fill:#fd2202}.st3{fill:#c3a3fc}</style><path d="M161.1 208c2.6.3 5.1.9 7.7 1 .5-3.7.2-7.3.2-11 .1-2.4.2-5.1 1.9-6.9 1.7-1.4 4.1 4.3 5.4 7.9h.1c.4.2.5.7.3 1.1.2.6.4 1.1.5 1.3 0-2.4-.1-4.9.4-7.3.1-.4.1-.7.2-1.1-.5-.5-.9-1.1-1.2-1.7-.5-.8-.9-1.7-1.2-2.6-.6.2-1.2.3-1.8.4-2.3.4-4.6.4-6.9.5-2.6 0-5.2.2-7.8.2-3-.1-6.1-.3-9.1-.7-1.9-.1-3.8-.3-5.6-.7.7.9 1.4 1.8 2 2.7 1.1 1.4 2.2 2.9 3 4.5 2.1 3.8 2.9 8.1 3.5 12.3.2-.2.6-.1.9-.1 1.1.1 2.3 0 3.4 0h1.5c.9 0 1.7.1 2.6.2m39.8-38.3c1.3.5 2.3 1.5 3 2.8 2 4.1 1.8 9.5-1.4 12.9-.7 3.1-3.4 5.6-5.6 7.8-1 .9-2.1 1.5-3.4 1.9 0 .2.1.3.1.5.2 1.2.3 2.4.4 3.6.6 3.2 1 6.5 1 9.7.5 10.4-.7 21.1-4.2 30.9-.1.2-.1.3-.2.5.1-.1.2-.2.3-.2.7-.5 1.4-1 2-1.4 1.7-1 3.3-2.1 4.8-3.4 1.2-1 2.6-1.8 3.7-2.8 2.1-1.9 3.6-4.5 4.9-7 1.9-4 2.4-8.4 3.4-12.6.8-3.2 2-6.2 3.2-9.2.9-2.3 1.8-4.5 2.9-6.7 1.3-2.6 2.7-5.3 3.5-8.1 1-3 1.4-6 1.6-9.1.2-3.2.1-6.4-.5-9.5-.5-3-1.9-5.7-2.6-8.7-.9 1.7-1.3 3.6-1.2 5.6.1 1.4.4 2.9-.1 4.3-.8 2.6-4.3 3.1-6.3 1.6-2.9-2-2.2-5.9-1.8-8.9.4-2.1 1-4.1 1.5-6.1.6-2.1 1-4.2 1.3-6.4.6-3.9.6-7.9 1.5-11.8-2.9 3.8-8.4 4.2-11-.1-2-3.7-.2-8.5 1.8-11.8 4.1-6.6 6.5-13.2 6-21.1 0-5-.6-10-1.8-14.8-2.1-7.7-5.6-14.9-8.3-22.3.1 3.9-1.3 10-6.4 8.6-2.8-.8-4.6-3.2-5.2-6-1.1-4.6-.1-9.4-.7-14.1-1.7 2.9-5 5.6-8.1 2.9-2.2-1.8-3.2-4.6-3.3-7.3-.1-1.7.1-3.4.2-5.1.2-2.4.5-5-.3-7.4-.7-2.1-1.7-3.9-2.8-5.7-2-3.2-4.2-6.4-7.2-8.6 1.9 4 3.1 8.5 2.6 12.9-.2 2.4-1.7 6-4.7 5.4-2.6-.8-3.9-3.6-4.6-6.1-.5-2-.7-4.1-1.1-6.1-.9-4-2.8-9.3-5.3-12.5-2.5-2.7-6.3-3.5-9.7-4.5-4-1.1-8.3-1.9-11.9-4-3.2-2.2-4.7-6-5.6-9.6 0-.2-.1-.4-.1-.5-.4.8-.8 1.5-1.1 2.3-.4 1.1-.3 2.2-.3 3.3 0 1.7-.2 3.5-1 5.1-.8 1.5-1.8 3.1-3.3 4-4.3 2.9-10.1 1.6-13.8-1.7-2.1-1.8-3.3-4.3-4.7-6.6-.1 2.7-.2 5.5-1 8.1-1.1 3.2-3.5 5.8-6.8 6.8-2.3.8-4.9.4-6.9-.9-1.4-1-2.5-2.4-3.4-3.8-1.2-1.9-2.2-3.8-3.5-5.5-1-1.5-2.3-2.7-3.5-4-1.7-1.8-3.4-3.7-5.7-4.8 1.7 4.3.2 12.2-3.9 14.9-1.9 1.3-4.4 2.4-6.6 1.3-1.5-.8-2.4-2.3-3.4-3.6-1.1-1.4-2.1-3-3.4-4.3-.2 2-.8 4-1.7 5.8-1.5 3.1-3.3 6.1-5.5 8.8-2.3 2.8-5.6 4.4-8.8 6-2.6 1.5-5.3 2.9-7.1 5.4-2.7 4.4-1.9 10-3.9 14.7-.9 2.4-3 5.8-6 4.6-2-1.1-3.1-3.4-4.8-4.8.4 3.1 1.1 6.1 1.2 9.3.1 4.7-.1 9.5-1.2 14-.6 2.4-1.1 4.9-2.1 7.2-1.4 3.6-3.9 6.5-6.1 9.6-4.2 6.5-5.3 14.5-5.4 22.1 0 4.3.4 8.6 1.8 12.7 1.4 4.6 3.6 8.7 6.9 12.2 1.9 2.1 4.1 6.5.9 8.4-2.5.9-5.8-1.5-7.4-3.2-1.1 7.1 1.2 13.9 5.6 19.4 2 2.7 4.4 5 6.4 7.7 2.1 2.8 2.4 6.4 1.8 9.7-.5 2.7-2.2 9.3-5.9 7.8-2.4-1.2-3.8-3.8-4-6.4-2.6 2.1-4 5.3-4.3 8.6-.4 3-.3 6.1.6 9 .8 2.6 2.5 4.9 4.6 6.5 1.2.9 2.5 1.5 3.7 2.4 2.1 1.4 2.9 3.7 3.1 6.2.3 2.4.3 4.7.1 7.1-.2 3.4-.9 6.7-2.1 9.8-.2.4-.4.9-.6 1.3 1.4-1.3 2.8-2.7 4.3-3.9 2.1-1.5 4-3.1 6-4.8 1.2-.9 2.4-2 3.7-2.9 1.4-.9 2.9-1.6 4.3-2.5 1.7-1.1 3.2-2.3 4.6-3.7 1-1 2.1-1.9 3-2.9-.9-.8-1.5-2-2.3-3-.9-1.4-1.8-2.7-2.8-4-.5-.7-.9-1.3-1.4-2-.4-.7-1-1.4-1.1-2.3-.2-3.4 6.1-6 8.7-7.1.4-.2 1.1-.6 1.7-.8 0-.4.1-.8.1-1.2 0-.2 0-.5.1-.7-.3-.2-.6-.5-.9-.8-1.9-1.7-3.3-3.7-4.5-5.9-.8-1.4-1.8-2.7-2.3-4.2-.6-1.4-.5-3 .4-4.2 2.3-2.9 7.2-3.1 10.6-4.4l.3-1.2c-.8-2.1-2.1-4-3.3-5.9-1.1-1.8-2.7-3.4-2.9-5.6 0-3.9 9.5-5.2 12.5-5.9.2-.1.5-.1.7-.1.4-.6.8-1.3 1.2-1.9 0 0 .1-.1.1-.2-.9-.2-1.9-.4-2.8-.7-3.6-.9-7.3-1.4-10.9-2.4-2.5-.5-5.1-1-7.5-1.8-.8-.3-1.6-.7-2.4-1.1-1.6-.8-3.3-1.6-4.9-2.3-3.2-1.6-6.2-3.8-8.6-6.4-2.6-2.6-4.8-5.5-6.6-8.6-1.6-3.2-2.1-6.8-2.4-10.3-.5-7.9.4-16.3 3.9-23.5 1.1-2.3 3-4.2 5-5.9 1.3-1.1 2.6-2.2 4.1-3.1 1.4-.9 2.8-1.8 4.2-2.5l2.1-1.2c.1-.1.3-.2.5-.2-.2-1.4.2-3.7.3-4.7.4-3.1 1.1-6.1 1.8-9.1.3-1.5.4-3 .6-4.6.2-1.9.7-3.6 1.3-5.4 1-3.2 2.3-6.2 4.2-9 3.5-6 5.4-8.2 11.3-11.8 2.1-1.5 4.4-2.4 6.9-3 3.8-1.3 7.9-1.7 11.9-2 5.3-.3 9.4.9 14 3.2 1.4.8 2.8 1.7 4 2.8 1.3 1.1 2.3 2.6 3.3 4 0-.1.1-.1.2-.2.4-.2.8-.2 1.2-.3 1.9-.4 3.8-.9 5.8-1.1q3.9-.45 7.8-.6c2 .1 4 .2 6 .7.6.1 1.2.3 1.7.5.5-1.1 1.7-2.4 2.1-2.9 1.1-1.2 2.4-2.3 3.8-3.2s2.8-1.7 4.2-2.5c1.5-.9 3-1.5 4.7-1.9 3.2-.8 6.6-.8 9.9-.3 2.4.3 4.8.7 7 1.5 1.5.5 3.1 1 4.5 1.8 1.6.8 2.6 2.2 3.5 3.6 1.3 1.9 2.7 3.7 4 5.6 1.5 2.4 2.7 5.1 2.9 7.9v.3c1.5.7 2.8 1.9 4.1 3 1 1 2 2 2.8 3.3 0 .1.1.2.1.3.4.2.8.4 1.1.7 3.3 2.3 6.4 5.8 6 10.1 0 .4-.1.9-.2 1.4 1.2 1.2 2.2 2.7 2.4 4.4.1 1.4-.3 2.9-1 4.1.5.8-.3 4-.7 4.8l.9-.3c2.7-.8 5.5-1 8.2-.9 5.5.1 11.3 3.1 14.2 7.8 2.6 4.5 2.7 9.8 2.9 14.8.1 2.6.1 5.2-.1 7.8-.1 2.5-.8 4.9-2.3 7-.7 1.1-1.7 2-2.7 2.9-1.5 1.2-3 2.5-4.8 3.2-.1 0-.1 0-.2.1 0 1.1-.1 2.1 0 3.2 0 3.3-.2 6.7-1.3 9.9-1.7 4.8-4.3 9.4-8.1 12.9-2.4 2.4-5.7 3.3-8.8 4.4-3.3 1.1-6.7 2.1-10.1 2.6-3.5.5-7 1-10.5 1.2s-7.1.3-10.6.4c-2.6.1-5.2.2-7.9.3v.3c.8.2 1.5.6 2.3.9 2.7 1.3 5.1 3.1 8 4.1 1.7.6 3.4.8 5.1 1.2 2.8.8 5.6 1.4 8.4 2.3 2.2.8 4.5 1.5 6.8 1.9 4.7 1.2 9.4 2.1 14.2 2.4.7.1 1.4.1 2.1.2-.1-.4-.1-.9-.1-1.3-.2-2.6.1-5.1.4-7.7.3-2.5.7-5.1 1.9-7.4.5-1.1 1.2-2.1 2-3 1.8-2.5 2.9.1 3.3 2 .6 2.6 1.3 5.2 1.9 7.8 1-3.9 2.1-6.4 5.1-9.2l1.7-1.7c.5-.4 1-1.1 1.7-1.2 1.3.2 1.1 1.9 1.1 2.8-.3 4.8-1.5 9.5-2 14.3 1.4-.9 3.1-1.3 4.8-1.3.9.7 1.8.9 2.7 1.1m-83.1 82.7c-1.9-.4-3.7-1-5.5-1.4-1.9-.3-3.9-.3-5.9-.4-1.1 0-2.2-.1-3.3-.1h-.7c-.9.1-1.8.3-2.6.4q-.45 0-.6-.3c-1.1.3-2.3.6-3.4.6-2.5 0-5.1.1-7.6.2-9 .5-18 .6-27 .6-2.7-.2-5.4-.1-8.1-.3-1.7-.1-3.3-.3-5-.5-3.1-.1-6.3-.6-9.4-.9-3-.2-5.9-.5-8.9-.6-2.1 0-4.2 0-6.2-.1-3.1-.1-6.3 0-9.4-.4-1.1-.1-2.1-.4-3.1-.6-1.7-.5-3.5-.9-5-1.9-1.4-.9-2.5-2.6-1.7-4.2.9-1.6 2.5-2.5 3.8-3.7.5-.5 1-.9 1.5-1.4.1-.2.2-.3.3-.5.5-.7.9-1.5 1.3-2.3 1.6-3.5 2.5-7.2 2.7-11 .2-2.8.1-5.7-.3-8.5-.1-.7-.3-1.3-.7-1.9-1.1-1.7-3.1-2.4-4.7-3.6-2.7-1.9-4.8-4.6-5.7-7.7-1-3.3-1-6.8-.6-10.3.4-3.9 2.2-7.5 5.3-9.9.7-.7 1.8-.9 2 .3.1 1-.1 1.9.3 2.8.4 1.3 1.3 2.6 2.6 3.3.6.4 1.2 0 1.6-.4.8-1 1.3-2.2 1.7-3.4.5-1.7.9-3.4.9-5.2.2-2.6-1.2-5.1-2.9-7-1.5-1.7-3-3.4-4.4-5.2-2.9-3.6-5.3-7.8-6.4-12.4-.7-3-.8-6-.5-9.1.2-.9-.1-3.1 1.3-3 .4.1.7.4 1 .7l1.2 1.2c1.1.9 2.3 1.7 3.6 2.1 2.6.8 2-1.9 1.2-3.3-1-1.7-2.4-3-3.6-4.6-1.3-1.7-2.4-3.6-3.3-5.6-1.9-4.3-3.2-8.9-3.4-13.6-.5-6.1 0-12.3 1.4-18.2 1.1-4.5 3.3-8.7 6.2-12.4 1.9-2.4 3.5-5.1 4.4-8.1 1.1-3.8 2.1-7.8 2.3-11.8.3-4 .3-8-.4-12-.2-1.5-.5-3-.7-4.5-.1-1 .4-2.2 1.6-1.9 1.5.6 2.4 2 3.4 3.2.6.7 1.3 1.6 2.1 2 1.2.5 2.3-.8 2.9-1.7 2.9-4.6 2-10.5 4.2-15.4 1.3-3.2 4.4-5.2 7.3-6.9 3.1-1.8 6.5-3.1 9-5.7 1.8-1.9 3.2-4.1 4.5-6.4 1.4-2.4 2.6-5 2.8-7.8.1-1.6 1.2-2.7 2.6-1.3 1.2 1.1 2.1 2.5 3.1 3.8s1.9 2.8 3.2 3.8c2 1.1 4.6-.5 6.2-1.8 2.6-2.5 3.8-8.8 2.2-12-.8-1.3-.6-3.1 1.3-2.6 2.4.7 4.3 2.4 6 4.2 1.8 2 3.7 3.8 5.2 6 1.8 2.5 3 5.6 5.3 7.8 2.5 2.3 6.2 1.8 8.8 0 1.6-1.1 2.7-2.8 3.3-4.6.5-1.6.7-3.3.8-4.9.1-1.5 0-2.9.1-4.4 0-.5.3-1 .8-1 .2 0 .5 0 .6.2.6.5 1 1.3 1.5 1.9.6 1 1.2 2 1.8 2.9.8 1.3 1.8 2.6 3.1 3.5 5.7 4.4 13.9 3 14.9-5 .1-2.2-.1-4.4.9-6.5.3-.7.6-1.4 1.1-2 .1-.2.3-.3.5-.3.4-.1.7.2.8.6.5-.5 1.3-.1 1 .6.3 1.6 1.1 3.2 1.7 4.7.8 1.7 1.9 3.3 3.5 4.3 3 1.7 6.5 2.4 9.7 3.3 3.6 1 7.5 1.8 10.6 4 3.4 2.6 4.9 7 6.3 10.9 1 2.9 1.4 5.9 1.9 8.9.5 2.3 1.3 5.1 3.7 6h.6c.1 0 .2-.1.2-.1 1.1-.6 1.4-2 1.7-3.2.5-3.1-.1-6.2-1-9.2-.2-.7-.5-1.4-.8-2-.4-1.1-1.4-2-1.1-3.3.1-.5.6-1 1.2-1 .4 0 .8.2 1.2.4 1.3.8 2.3 1.9 3.4 2.9 1.5 1.5 2.7 3.4 3.9 5.2s2.3 3.6 3.2 5.6c1.8 3.7 1.5 6.7 1.1 10.6-.1 2.9-.5 6 1.1 8.5.8 1.3 2.3 2.7 3.9 2.3 1.8-.6 3-2.3 3.7-3.9.6-1.1 1.7-1.2 2.2.1.4 1.1.5 2.3.5 3.5.1 3-.1 6 .1 8.9.2 2.5.7 5.3 2.9 6.8 3.2 2 5.2 0 5.8-3.2.2-1.4.3-2.7.2-4.1 0-.7-.1-1.5-.2-2.2 0-.4.1-.7.3-1 .3-.3.9-.3 1.2 0 1.2 1.8 1.9 4 2.7 6.1.7 2 1.6 3.9 2.4 5.8 2.3 5.8 4.8 11.6 6 17.8.9 4.5 1.1 9 1.1 13.5.1 4.1-.7 8.1-2.1 11.9-.7 1.9-1.5 3.6-2.4 5.4-1.3 2.4-2.9 4.6-3.8 7.2-.6 2-1 4.3.2 6.1 2.1 3.2 6.3 2.4 8.4-.4 1.2-1.4 1.9-3.1 2.8-4.7.3-.5 1.1-.4 1.3.1.3.5.1 1-.1 1.5-1.1 3.5-1.8 7-2 10.7-.4 4.2-1 8.3-2 12.4-.7 3-3.3 10.3-.7 12.6 1.1 1 3 1.2 3.9.1.6-.8.4-1.8.4-2.6-.1-1.5-.2-3.1.1-4.5.3-1.6 1-3 1.8-4.5.2-.4.3-.7.5-1.1.2-.3.3-.7.7-.8.4-.2.9.2 1 .6.1.6 0 1.2 0 1.9.1 1.6.8 3.2 1.3 4.7.6 1.8 1.2 3.6 1.5 5.4.6 4.1.6 8.3.3 12.4-.3 3.5-1.3 6.8-2.6 10-.9 2.2-2 4.2-3 6.3-.9 2.1-1.8 4.2-2.6 6.3-.7 1.9-1.5 3.7-2.1 5.6-.7 2.2-1.1 4.5-1.6 6.8-.6 3.3-1.5 6.6-3 9.5-1.1 2.1-2.4 4.2-4 5.9-1.3 1.4-2.9 2.4-4.5 3.6-1.5 1.3-3.3 2.5-5 3.5-.8.5-1.6 1.1-2.4 1.7-.7.5-1.3 1.1-2.2 1.1h-.1q-.6.75-1.5 1.2c-1.3.7-2.9.9-4.3 1-2.4.2-4.7.2-7.1.2-3.2 0-6.5 0-9.7-.4-2.3-.2-4.6-.8-6.9-1.2-1.4-.2-2.8-.3-4.2-.5-1.2-.2-2.5-.4-3.7-.6-.4-.1-.6-.4-.7-.7-.9 2.1-2.4 3.8-4.2 5.3-.4.4-.8.8-1.2 1.1-.6.6-1.5 1.9-2.3.9-2.7 4.1-10.3 4.7-14.7 4.7-3.7.6-7.3-.1-10.9-.8" style="fill:#8664c2"/><path d="M191.5 177.2c-.6.8-1.9 1.1-2.4 2-.2.3-.3.7-.4 1.1-.2.8-.3 1.6-.4 2.4-.1.9-.2 1.7-.1 2.6s.6 1.7 1.3 2.2c.8.5 1.8.5 2.8.5 1.3-.1 2.6-.1 3.9-.2 1-.1 2-.1 2.9-.7 1.1-.7 1.7-2 1.9-3.2.2-1.3.1-2.7-.6-3.7-.7-1.1-2-1.7-3.3-2s-2.6-.7-3.9-.7z" class="st1"/><path d="M190.8 239.7c3.5-9.9 4.7-20.5 4.2-30.9 0-3.3-.4-6.5-1-9.7-.2-1.2-.3-2.4-.4-3.6 0-.2 0-.3-.1-.5 1.2-.4 2.4-1 3.4-1.9 2.2-2.1 4.9-4.7 5.6-7.8 3.2-3.4 3.4-8.8 1.4-12.9-.6-1.2-1.6-2.3-3-2.8-2.5-.7-5.3-.4-7.5.9.6-4.8 1.7-9.5 2-14.3 0-1 .2-2.6-1.1-2.8-.7.1-1.2.8-1.7 1.2l-1.7 1.7c-3 2.8-4.2 5.2-5.1 9.2-.6-2.6-1.3-5.2-1.9-7.8-.4-1.8-1.4-4.5-3.3-2-.8.9-1.5 1.9-2 3-1.2 2.3-1.6 4.9-1.9 7.4s-.6 5.1-.4 7.7c.1.4.1.8.1 1.3-.7-.1-1.4-.1-2.1-.2-4.8-.3-9.6-1.3-14.2-2.4-2.3-.5-4.6-1.2-6.8-1.9-2.8-.9-5.6-1.5-8.4-2.3-1.7-.4-3.5-.6-5.1-1.2-2.8-1-5.3-2.8-8-4.1-.7-.4-1.5-.7-2.3-.9v-.3c2.6-.1 5.2-.1 7.9-.3 3.5-.1 7.1-.2 10.6-.4s7-.7 10.5-1.2c3.5-.4 6.8-1.4 10.1-2.6 3.1-1.1 6.4-2 8.8-4.4 3.8-3.5 6.4-8.1 8.1-12.9 1.1-3.2 1.3-6.6 1.3-9.9 0-1.1.1-2.1 0-3.2.1 0 .1 0 .2-.1 1.8-.8 3.3-2 4.8-3.2 1-.9 1.9-1.8 2.7-2.9 1.5-2 2.2-4.5 2.3-7 .2-2.6.2-5.2.1-7.8-.2-5-.3-10.3-2.9-14.8-2.9-4.8-8.6-7.8-14.2-7.8-2.8-.1-5.6.1-8.2.9l-.9.3c.4-.7 1.2-4 .7-4.8.7-1.2 1.1-2.7 1-4.1-.2-1.7-1.2-3.2-2.4-4.4.1-.5.2-1 .2-1.4.5-4.3-2.7-7.8-6-10.1-.4-.3-.8-.5-1.1-.7 0-.1-.1-.2-.1-.3-.8-1.2-1.7-2.3-2.8-3.3-1.3-1.1-2.6-2.2-4.1-3v-.3c-.2-2.8-1.4-5.5-2.9-7.9-1.3-1.9-2.7-3.7-4-5.6-.9-1.4-1.9-2.9-3.5-3.6-1.4-.8-3-1.3-4.5-1.8-2.3-.8-4.7-1.2-7-1.5-3.3-.5-6.7-.5-9.9.3-1.7.3-3.3 1-4.7 1.9-1.4.8-2.9 1.6-4.2 2.5-1.4.9-2.7 2-3.8 3.2-.4.6-1.6 1.8-2.1 2.9-.6-.2-1.1-.3-1.7-.5-2-.5-3.9-.6-6-.7-2.6 0-5.2.3-7.8.6-1.9.2-3.9.7-5.8 1.1-.4.1-.8.1-1.2.3-.1 0-.1.1-.2.2-1-1.4-2-2.9-3.3-4-1.3-1-2.6-2-4-2.8-4.7-2.3-8.8-3.6-14-3.2-4 .2-8.1.6-11.9 2-2.4.6-4.8 1.6-6.9 3-6 3.6-7.9 5.8-11.3 11.8-1.9 2.8-3.2 5.8-4.2 9-.6 1.7-1.1 3.5-1.3 5.4-.1 1.5-.3 3.1-.6 4.6-.7 3-1.4 6-1.8 9.1-.1 1-.5 3.3-.3 4.7-.2.1-.3.1-.5.2l-2.1 1.2c-1.4.8-2.8 1.6-4.2 2.5s-2.8 2-4.1 3.1c-2 1.7-3.8 3.5-5 5.9-3.6 7.2-4.5 15.6-3.9 23.5.3 3.5.8 7.1 2.4 10.3 1.8 3.1 4 6.1 6.6 8.6 2.5 2.6 5.4 4.8 8.6 6.4 1.6.8 3.3 1.5 4.9 2.3.8.4 1.5.8 2.4 1.1q3.75 1.05 7.5 1.8c3.6.9 7.3 1.5 10.9 2.4.9.2 1.9.4 2.8.7 0 .1-.1.1-.1.2-.5.6-.9 1.2-1.2 1.9-.2 0-.5.1-.7.1-3 .7-12.5 2-12.5 5.9.2 2.1 1.9 3.8 2.9 5.6 1.2 1.9 2.4 3.8 3.3 5.9l-.3 1.2c-3.4 1.3-8.4 1.5-10.6 4.4-.9 1.2-1 2.8-.4 4.2.6 1.5 1.5 2.8 2.3 4.2 1.2 2.2 2.6 4.2 4.5 5.9.3.3.6.5.9.8 0 .2 0 .5-.1.7 0 .4-.1.8-.1 1.2-.6.2-1.3.6-1.7.8-2.6 1.1-8.9 3.7-8.7 7.1.1.9.6 1.5 1.1 2.3.4.7.9 1.4 1.4 2 1 1.3 1.9 2.7 2.8 4 .7 1 1.3 2.1 2.3 3-1 1-2 1.9-3 2.9-1.4 1.4-2.9 2.6-4.6 3.7-1.4.9-2.9 1.6-4.3 2.5-1.3.8-2.4 1.9-3.7 2.9-2 1.6-3.9 3.3-6 4.8-1.5 1.2-2.9 2.6-4.3 3.9.2-.4.4-.9.6-1.3 1.2-3.1 1.9-6.5 2.1-9.8.2-2.4.2-4.8-.1-7.1-.2-2.5-.9-4.7-3.1-6.2-1.2-.9-2.5-1.5-3.7-2.4-2.1-1.6-3.9-3.9-4.6-6.5-.8-2.9-.9-6-.6-9 .3-3.3 1.7-6.5 4.3-8.6.2 2.6 1.6 5.2 4 6.4 3.8 1.5 5.4-5.1 5.9-7.8.7-3.4.4-6.9-1.8-9.7-2-2.7-4.4-5-6.4-7.7-4.4-5.5-6.7-12.3-5.6-19.4 1.6 1.7 5 4.2 7.4 3.2 3.2-1.9 1-6.3-.9-8.4-3.3-3.5-5.5-7.6-6.9-12.2-1.4-4.1-1.8-8.4-1.8-12.7 0-7.6 1.1-15.6 5.4-22.1 2.2-3.1 4.7-6 6.1-9.6.9-2.3 1.5-4.8 2.1-7.2 1.1-4.6 1.3-9.3 1.2-14-.1-3.1-.8-6.2-1.2-9.3 1.7 1.5 2.8 3.7 4.8 4.8 3 1.2 5.1-2.3 6-4.6 2-4.7 1.1-10.3 3.9-14.7 1.8-2.5 4.5-3.8 7.1-5.4 3.1-1.7 6.5-3.3 8.8-6 2.2-2.7 4.1-5.7 5.5-8.8.9-1.8 1.5-3.8 1.7-5.8 1.3 1.3 2.3 2.8 3.4 4.3 1 1.3 1.9 2.8 3.4 3.6 2.2 1.1 4.7 0 6.6-1.3 4.1-2.6 5.6-10.5 3.9-14.9 2.3 1 4 2.9 5.7 4.8 1.2 1.3 2.5 2.6 3.5 4 1.3 1.7 2.3 3.7 3.5 5.5.9 1.4 2 2.8 3.4 3.8 2 1.3 4.6 1.6 6.9.9 3.3-1 5.7-3.6 6.8-6.8.8-2.6.9-5.4 1-8.1 1.4 2.3 2.7 4.8 4.7 6.6 3.7 3.3 9.6 4.6 13.8 1.7 1.5-1 2.5-2.5 3.3-4 .8-1.6 1-3.4 1-5.1 0-1.1 0-2.3.3-3.3.3-.8.7-1.6 1.1-2.3 0 .2 0 .3.1.5 1 3.6 2.4 7.4 5.6 9.6 3.6 2.2 7.9 2.9 11.9 4 3.3 1 7.2 1.8 9.7 4.5 2.6 3.2 4.5 8.5 5.3 12.5.4 2 .5 4.1 1.1 6.1.7 2.4 2 5.2 4.6 6.1 3 .7 4.5-2.9 4.7-5.4.5-4.4-.7-9-2.6-12.9 3 2.3 5.2 5.5 7.2 8.6 1.2 1.8 2.1 3.6 2.8 5.7.8 2.4.5 4.9.3 7.4-.1 1.7-.3 3.4-.2 5.1.1 2.7 1.1 5.6 3.3 7.3 3.2 2.7 6.4.1 8.1-2.9.6 4.7-.4 9.5.7 14.1.6 2.7 2.5 5.2 5.2 6 5.1 1.3 6.5-4.8 6.4-8.6 2.8 7.5 6.2 14.6 8.3 22.3 1.3 4.8 1.8 9.8 1.8 14.8.5 7.9-1.9 14.5-6 21.1-2 3.4-3.8 8.1-1.8 11.8 2.6 4.4 8.1 3.9 11 .1-.8 3.9-.8 7.9-1.5 11.8-.3 2.1-.7 4.3-1.3 6.4-.5 2-1.2 4-1.5 6.1-.5 3-1.1 6.9 1.8 8.9 2 1.5 5.5 1 6.3-1.6.4-1.4.2-2.9.1-4.3-.2-1.9.3-3.8 1.2-5.6.7 2.9 2.1 5.7 2.6 8.7.5 3.1.6 6.3.5 9.5-.2 3.1-.5 6.1-1.6 9.1-.9 2.8-2.2 5.5-3.5 8.1-1.1 2.2-2 4.4-2.9 6.7-1.2 3-2.4 6-3.2 9.2-1 4.2-1.5 8.6-3.4 12.6-1.3 2.5-2.7 5.1-4.9 7-1.2 1-2.5 1.8-3.7 2.8-1.5 1.3-3.1 2.3-4.8 3.4-.6.4-1.3.9-2 1.4-.1.1-.2.2-.3.2.1-.9.2-1 .2-1.2" class="st2"/><path d="M161.1 208c-1.4-.1-2.7-.1-4.1-.1-1.1 0-2.3.1-3.4 0-.3 0-.7-.1-.9.1-.6-4.2-1.4-8.6-3.5-12.3-.9-1.6-1.9-3-3-4.5-.7-.9-1.3-1.8-2-2.7 1.8.4 3.7.6 5.6.7 3 .4 6.1.5 9.1.7 2.6 0 5.2-.2 7.8-.2 2.3-.1 4.6-.1 6.9-.5.6-.1 1.2-.2 1.8-.4.3.9.7 1.8 1.2 2.6.4.7.8 1.2 1.2 1.7-.1.3-.2.7-.2 1.1-.4 2.4-.4 4.8-.4 7.3-.1-.3-.2-.7-.5-1.3.2-.4.1-.9-.3-1.1h-.1c-1.3-3.6-3.7-9.3-5.4-7.9-1.8 1.8-1.8 4.5-1.9 6.9 0 3.7.3 7.3-.2 11-2.6-.2-5.1-.9-7.7-1.1" class="st2"/><path d="M141.5 200.6c-.6 0-1-.1-1.3-.7-.4-1 .5-2 1.1-2.7.6-.5 1.6-1.8 2.5-1.1.6.5.7 1.4.9 2.1.6 2.2-1.5 2.6-3.2 2.4m-93.9-2.7c-1.1-1.6-1-4.6-.6-6.4.3-1.6 1.8-3.4 3.5-2.7 1.8.9 1.3 3.6 1 5.2-.3 1.2-.7 2.6-1.7 3.4-.3.8-1.5 1.3-2.2.5m-2.2 12.6c-1.1-.7-.9-2.2-.9-3.4.1-1.9.4-5.2 2.5-6.1 1.9-.4 2.2 2.6 2.1 3.9-.2 1.3-.6 4.7-2 5-.6.5-1.1 1-1.7.6m-3.3 7.7c-1.2-.4-.4-1.8.1-2.5.4-.6 1-1.2 1.7-1.4 1.1-.3 1.7.8 1.2 1.7-.5 1-1.7 3.1-3 2.2M14.9 109.8l.1-.1c-.1 0-.1-.1-.1-.1zm.3 3.4c-1.7 0-1.6-2.1-1.9-3.3-.2-1.8.2-3.7.7-5.5.7-2 1.4-4.5 3.5-5.4 1.4-.7 3.1.3 3.5 1.8.3 1 0 2-.1 3-.5 3-1.5 6.1-3.7 8.3-.6.5-1.2 1.1-2 1.1m13.1-22.9c.4 1.2-.5 2.9-1.1 3.9-.7 1-1.6 2.1-2.9 1.9-2.5-.8-.1-5.9 1.8-6.1.7-.7 1.8-.9 2.2.3M42 197.4c.1.5 0 1 0 1.5-.3 2.9-.3 5.9-.4 8.8-.1.9.3 5.6-1.4 4.7-.1.2-.4.4-.6.3-.4-.1-.7-.4-.9-.7-.3-.4-.7-.9-1-1.4-.9-1.3-2.1-3-3-4.7-.2.1-.5 0-.7-.3-.6-1.2-1.6-2.4-1.6-3.8 0-.6.6-1.3 1.2-.8.8-1.4 2.7-2 4-2.7 1-.4 2-1 2.9-1.6.6-.3 1.4 0 1.5.7m3.6-22.4c.4.2.6.7.5 1.1-.7 2.1-1.4 4.2-1.8 6.4-.3 1.9-.7 3.8-1.1 5.7-.2 1.1-.3 2.2-.6 3.2-.1.4-.5.7-.9.6-.1-.1-.1-.2-.2-.3l-.4-.4v-.1c-1.5-1.5-2.2-3.6-3.4-5.3-.8-1.2-1.8-2.3-2.4-3.7-.5-1.3-.6-2.9.4-3.9l.6-.6c.4-.2.7-.4 1.1-.6.8-.3 1.6-.5 2.4-.9 1.3-.5 2.6-.9 4-1.2.6.1 1.3-.2 1.8 0m5.1-19c1.1.1 2 .6 1.6 1.8-.8 1.6-2 2.9-2.7 4.6q-.75 1.65-1.2 3.3c-.2.5-.3 1.1-.4 1.6-.2.8-.1 2.6-1 2.8-.1.3-.5.5-.8.3-.5-.3-.7-.9-1-1.4-.6-1.1-1.3-2.1-2.1-3.1-1-1.4-2.8-3.6-2.7-5.3.1-.5.3-1 .6-1.3.9-.5 1.8-1 2.8-1.4 1.5-.5 2.9-1.1 4.4-1.5.7-.1 1.7-.1 2.5-.4m85.5 40.4c.1 2-.4 2.9-2.5 3-3.9.3-4.2-1-5.2 3.5-.2.8.1 2.2-1 2.3-1-.1-.8-1.5-1-2.2-.2-.8-.3-1.6-.7-2.3-1.2.2-2.5.3-3.7.5-1.3.3-2.7.6-4 .4-.1 0-.2-.1-.3-.1-.4.4-.5.9-.7 1.6-.2 1.3-.3 2.6-.4 3.9-.2 1.3-.4 2.6-.4 3.9-.1 1.3-.1 2.6-.2 3.9-.1.6 0 1.4-.4 1.9-.3.3-.6.3-.9.1-.2-.2-.4-.5-.5-.7-.3-.6-.7-1.2-1.1-1.7-2.8-3.1-6.6-5.3-10.5-6.8l-2.4-1.2c-2.3-1-5-.9-7.3.1-1.4.5-1.9.4-2.7-.8-.2-.3-.4-.6-.7-.8-.2.2-.4.3-.7.2-.9-.4-1.3-1.2-2.1-1.7-1.9-1.2-4.2-2.1-5.6-3.9-.2 0-.3-.2-.3-.3v.1c-.1.4-.6.5-.9.3-.7-.6-.1-1.9 0-2.7.7-3.1 1.7-6 2.6-9 .7-2.3 1.6-4.6 2.8-6.7 1.1-2.1 2.2-4.3 3.8-6.1 2.1-2.5 4.8-4.2 7.6-5.6 1.8-1.1 3.9-1.6 6-2 3.3-.6 6.5-.9 9.8-.3 2.4.4 4.7 1 6.8 2.2 2.7 1.6 5.5 3.2 7.5 5.7.8 1 1.6 2.3 2.2 3.3 1.7 2.4 3.4 4.8 4.5 7.7.4 1 .7 2.1.9 3.1.1.5.3 1.2.2 1.7 1.4 1.1 1.3 3.8 1.5 5.5m38.4 1.2c1.4 2.7-.4 2.7-2.6 2.6-1.6 0-2.1 0-2.1-1.8.1-1.2.3-2.4.5-3.5.1-.6.4-1.4 1.1-1.6 1.6-.2 2.6 3 3.1 4.3m4.3.8c-.8-.7-.5-1.9-.4-2.9.1-.5.1-1 .4-1.4s.9-.5 1.1 0c1 .1 1.7.9 2.7 1.2q.3.15.6.6c.4.3.8.6.9 1.1.2.8-.4 1.5-1.2 1.6s-1.5.1-2.3.1c-.7.1-1.3.1-1.8-.3" class="st3"/><path d="M182.8 197c-.8-.2-.6-1.7.3-1.5.7.3.5 1.6-.3 1.5m9.6-1.6c.7.8.4 2.1-.2 2.8-.5.6-2.3 1.3-3 .9-.3-.1-.5-.5-.5-.8-.3-.4 0-.9 0-1.4.1-.4.2-.8.3-1.1.3-1.2 1.1-1.4 2.1-1 .5.2 1 .3 1.3.6" class="st3"/><path d="M96.3 129c.3.1.6.1.9.2-.1.1-.1.2-.2.3-.5.8-1.1 1.6-1.8 2.3-1.5 1.2-4.2 2.6-6.1 2.3-1.2-.4-1.8-1.8-2.5-2.7-1.4-2.2-3-4.1-4.7-6-.2-.2-.4-.5-.6-.7h.2c1.8.2 3.5.6 5.2 1.2 3.2 1.1 6.3 2.5 9.6 3.1m22.6 3c-.1.1-.1.2-.2.3-1.7 2.6-5 5.1-8.2 5.1-1.9-.1-3.6-2.8-4.9-4.1-.9-1-1.8-1.9-2.7-2.8v-.1l3.3.6c2.6.3 5.3.5 7.9.7 1.4.1 2.7.2 4.1.3.2-.1.5-.1.7 0m22.6.3c-.7 1.1-1.3 2.2-2.1 3.1-1.5 1.7-3.4 3-5.6 3.6-3.3 1-5.2-2.2-7.3-4.2l-2.4-2.4h9.2c2.6 0 5.3 0 7.9-.1zm20.1-1c-.2.3-.4.7-.5 1-1.4 2.7-3.5 5.3-6.5 6.2-2.7.5-5.2-2.5-6.9-4.3-.6-.7-1.3-1.4-2-2.1 2.6 0 5.1 0 7.7-.2 1.5-.1 2.9-.2 4.4-.3 1.2.1 2.5-.1 3.8-.3m20.7-3.1c-.3.5-.6 1.1-.8 1.4-.8 1.2-1.7 2.2-2.7 3.3s-1.8 2.6-3.3 3.2c-1.6.1-3.2-.9-4.5-1.7-1.7-1-3-2.5-4.4-3.9 3.6-.5 7.3-1 10.9-1.6 1.6-.1 3.2-.4 4.8-.7M67.6 70.4c.1 0 .2-.1.3-.1-2.3 3-3.2 6.5-2.9 10.4.3 2.4 1.3 4.9 2.9 6.8-.8-.1-1.6-.1-2.4-.2-2.5-.2-5-.5-7.3-1.5-.8-.4-1.6-.8-2.5-1.2-1.7-.7-3.5-1.5-4.7-2.9v-.1c1.6-1.9 3.6-3.5 5.5-5.1 3.3-2.7 7.2-4.4 11.1-6.1m16.8 2c.8.4 1 1.5.7 2.3-.3.9-1.3 1.3-2.1 1.4-.4.1-.8-.1-1-.5-.2-.6-.4-1.1-.5-1.7-.1-1 .5-1.5 1.3-1.9.5.5 1.2.2 1.6.4m20 .7c1.6 3.5 1.2 8.4-1.7 11.1-1 .9-2.3 1.3-3.5 1.6-2 .5-4 .8-6 1-1.2.2-2.4.2-3.5.3.7-1.7 1.2-4.2 1.2-4.8.3-2.5.1-5-.1-7.6-.2-3.3-1.5-6.5-4.4-8.1 2-.1 4.1 0 6.1.1 5 .6 9.6 1.5 11.9 6.4m29.9-2.4c-.8 1.2-1.4 2.6-1.6 3.6-.6 2.9-.4 6.1 1 8.7-2.2-.6-4.3-1.3-6.4-2.2q-1.35-.6-2.7-1.5c-.3-.2-.8-.6-1.2-.7 0-.1-.1-.3-.2-.3.2-.2.3-.3.5-.4 3.2-2.8 6.7-5.3 10.6-7.2m34 1.2c2.2 1.8 3.6 4 2 6.8-.6.9-1.3 1.6-2.2 2.1-1.8 1.2-3.8 2-5.9 2.4-2.4.5-4.8 1.1-7.2 1.5-.7.1-1.4.2-2.2.3.1-.1.1-.2.2-.3.3-.4.5-.8.8-1.2 1.8-2.7 2.2-6.2 1.9-9.3-.2-2.5-1.3-4.9-3.1-6.6-.1-.1-.2-.2-.4-.3.8 0 1.7.1 2.5.2 1.6.2 3.1.6 4.7.9 1.6.2 3.2.4 4.7.8 1.7.4 2.9 1.6 4.2 2.7m-19.8 0c.7.2 1.5.9 1.4 1.7-.2.8-.8 1.7-1.7 1.8-1.1 0-1.9-1.2-1.8-2.2.2-1 1.3-1.1 2.1-1.3" style="fill:#fff"/><path d="M53.6 153c.8.7-.2 1.6-.7 2.2-.2.5-.8.9-1.3.4 0-.1-.1-.1-.1-.2-.3.3-.6.4-.9.5-.8.3-1.7.2-2.5.4-1.5.4-2.9 1-4.4 1.5-1 .4-1.9.9-2.8 1.4-.1.1-.3.2-.4.2-.4.2-.8.4-1 .8 0 1 .2 2 .5 2.9.8 1.1 1.5 2.2 2.4 3.3.2 0 .4.2.5.4.3.3.6.7.8 1 .9 1.3 1.5 2.8 1.7 4.4.1.2.2.5.2.7 0 .9-.8 1.4-1.6 1.7-1.5.5-3 .7-4.5 1.3-.7.3-1.4.6-2 1l-.1.1c-.3.2-.7.4-1.1.6-.9.5-1.8.9-2.4 1.8.2 1.8 1.4 3.4 2 5 .8 1.6 1.5 3.2 2.6 4.6.7.9 1.6 1.5 2.5 2.3l.4.4c.1.1.2.2.2.3.7 1 .9 2.4-.2 3.2-2.4 1.6-8.9 3.5-10 6.3 0 1.6 1.2 3 2.2 4.2 1.5 2.1 2.9 4.3 4.3 6.4 1.2 1.6 1.1 2.7-.3 4.2-1.1 1.3-2.4 2.5-3.8 3.5-1.6 1-3.2 1.9-4.8 3-1.5 1-3 1.9-4.4 2.9-.5.4-1 .8-1.6 1.2-.3.2-.7.4-1 .2-.1 0-.1-.1-.2-.1-.5 1.3-1.5 2.9-2.3 2.1-.2-.3-.3-.8 0-1.1.2-.1.3-.3.4-.5.8-1.3 1.2-2.8 1.4-4.3.2-2.8-1.1-5.7-2.8-7.9-1.1-1.4-2.5-2.7-3.1-4.5-1-3-.8-6.2-.4-9.3.1-.8.1-1.8.6-2.4.5-.5 1.1-.1 1.4.4.8 1.2 3.1 3 4.3 1.4.8-1.2.9-2.7.7-4.1-.3-1.7-.9-3.4-1.6-4.9-.2-.5-.1-1.1.3-1.5.7-.5 1.7 0 2.5-.2 2.3-.6 2.3-5.3 2.4-7.2-.2-2.5-1.2-4.9-2.7-6.9-1.9-2.1-3.6-4.4-4.7-7-1.1-3.2-1.4-6.8-1.2-10.2.3-.9 1.2-.7 1.7-.1q.9 1.05 2.1 1.8c.7.4 1.5.9 2.3.7 1.5-.8 1.5-4.2 1.1-5.7-.5-2.2-2-4-3.6-5.5-2.3-2.2-3.6-5.4-4.1-8.5-.1-.8-.3-1.6-.2-2.5.1-.5.6-.8 1-.6.2-.1.5-.2.7 0 .6.4 1 .9 1.5 1.4 1.3 1.1 2.8 2 4.3 2.9 1.8 1.2 3.7 2 5.7 2.9 1.4.7 2.8 1.6 4.3 2 4.1 1.1 8.3 1.6 12.5 2.6 1.4.3 2.8.3 4.2.6.6.1 1.2.3 1.6.8.1.1.1.1.1.2.9-.3 1.5.5 1.4 1.1m131.5-74.2c0 1.4 0 2.9-.3 4.3-.2.9-.6 2.1-1.8 1.8-3.3-.8-3.9-.6-7.1 0-1.1.2-2.4.2-3.4.2-.4 0-.7 0-1.1.1-.2.1-.5.1-.7-.1-1.1-.8-.1-2.9-.1-4.1.1-.6 0-1.3.1-1.9.3-1.1.7-2.2.6-3.3-.1-1.4-.8-2.7-1.2-4.1-.4-1.7 0-3.5-.7-5.1-.3-.7-.7-1.3-1.1-2-.9-1.7-1.6-3.4-3.2-4.4-1-.6-1.8-1.4-2.8-1.9-.4-.3-.6-.7-.9-1-.4-.5-.9-1-1.4-1.3-.9-.6-1.7-1.3-2.5-1.9-1.1-.7-2-1.2-2-2.7 0-1-.3-1.9-.5-2.8 0-.2 0-.4.1-.6-.7-1.1-1.2-2.4-1.7-3.6-.2.4-.5.6-1 .5-.4-.2-.5-.6-.5-.9-.2-.3-.4-.7-.7-1.1-.8-1-1.5-1.9-2.1-3-.5-.8-.9-1.6-1.5-2.2-.9-.9-2.1-1.4-3.1-2-1.6-1.1-3.4-2.1-5.3-2.7-3.4-1-7.1-1-10.6-.4-1.1.2-2.2.3-3.2.5s-1.9.6-2.8.8c-2.2.6-4.3 1.5-6.4 2.6-1.3.7-2.4 1.7-3.5 2.6-.6.5-1.1 1-1.6 1.5-.6.6-1 1.9-2.1 1.8-1.1-.3-2.2-.4-3.4-.5-2.3-.2-4.6-.3-6.8-.2-2.2.2-4.5.4-6.7.8-1.3.2-2.6.5-3.8.8-.9.2-2.1.6-2.9-.1-1.7-1.7-3.3-3.5-5.3-4.9-1.1-.8-2.1-1.6-3.3-2.3-.2-.2-.4-.3-.7-.4-.4.6-1 .3-1.7 0s-1.4-.5-2.1-.7c-2.4-.7-4.9-1-7.3-1.2-2.8-.2-5.6.7-8.3 1.4-1.4.5-2.9.8-4.3 1.3-.9.4-1.8.9-2.7 1.3-2 .9-3.9 2.2-5.8 3.3-.7.4-1.4.8-2 1.2-.7.6-1.3 1.4-2 2-2 1.5-3.1 3.8-4 6-.3.5-.2 1.7-1.1 1.5 0 0-.1 0-.1-.1-.5 1.5-1.1 2.9-1.9 4.3-.1.1-.2.3-.3.4.1.2.1.5 0 .7-.7 2.2-1.1 4.6-1.5 6.9-.4 2.2-.7 4.5-1.1 6.7-.6 2.9-1.1 5.9-1.9 8.8-.3 1.3-.3 2.6-.7 3.8-.4.9-1.4 1.1-2.2 1.4-.6.2-1.1.5-1.6.9-.9.7-1.7 1.6-2.6 2.4-.6.4-1.5 1.3-2.1.4-.2.3-.5.7-.7 1-.2.4-.6.8-1 .5-.6-.5.5-1.8.7-2.4.7-1.2 1.4-2.4 1.9-3.7.6-1.6 1-3.2 1.1-4.9.1-1.2 0-2.5-.1-3.7-.2-2.3-.4-4.5-.7-6.8-.1-.8-.4-1.5-.4-2.3.1-.8 1-1.1 1.5-.5 1.1 1 1.7 2.2 3 .6 2.3-2.8 4.1-5.8 6.1-8.8 0-.1.1-.1.1-.2.4-.8.7-1.6 1.1-2.4 1.1-2.2 1.8-4.6 2.7-6.9.8-2.6 2.1-5 3.9-7.1 1-1.2 1.9-2.5 3.2-3.4 2.2-1.6 4.5-3 6.8-4.4 1.4-.8 2.2-2.2 3.1-3.5.6-.8 1.3-1.7 1.8-2.6.3-.6.6-1.2.7-1.8s.1-1.3.8-1.5c.9-.2 1.5 1.1 2.1 1.6.7.7 1.5 1.1 2.3 1.5s1.6.9 2.5 1.2c1.5.4 3.1.5 4.5-.1 3.6-1.5 4.5-3.4 5-7.1.1-.6-.1-1.3.4-1.8.2-.2.6-.3.9-.1.5.3.5 1 .7 1.5.4 1.1.6 2.2.9 3.3.1.2.3.4.4.6.8 1.2 1.5 2.6 2.7 3.4 1 .7 2.1 1.1 3.4 1.2 1.1.1 2.3.3 3.3-.1.5-.2.9-.5 1.3-.8.2-.2.5-.5.8-.5.5-.1.9.4 1.1.8.3.4.6.8.9 1.1 1 1 2.5 1.6 3.9 1.8 4.5.9 9.5-2.1 10.6-6.6.3-1.1.2-2.2.1-3.3-.1-.5-.1-1.1-.1-1.6q-.15-.3 0-.6c.1-.4.5-.6.8-.3 1.2 1.2 2 2.7 3.2 3.9.5.5 1.2.9 1.8 1.3.7.5 1.4 1 2.1 1.4.7.3 1.5.5 2.3.7s1.6.4 2.5.3c1.1-.1 2.2-.2 3.2-.5.6-.3 1.2-.7 1.7-1.1 1.1-.9 2.1-1.8 2.9-2.9 1-1.4 1.7-3 2.8-4.4 0-.2.1-.4.3-.5.5-.3.9.4 1.1.8.5 1.1 1.2 2 1.9 3 .7 1.1 1.3 2.4 2.4 3.2 1.3.8 2.9 1.4 4.4 1 .7-.1 1.5-.5 1.6-1.3.1-.9.1-1.8-.4-2.6-.3-.4-.8-.7-.8-1.3 0-.7.7-1.1 1.4-1 2.8 0 5.8 1.7 6.8 4.4.5 1.5.4 3.2 1.1 4.7.2.6.7 1 1.3 1.1.7.2 1.4.3 2.1.2.6-.1.9-.6 1.4-.8 1-.2 1 1.1 1.2 1.8.4 1.4.9 2.7 1.3 4 .8 2.3.9 4.8.9 7.2v.6c.4.6.8 1.3 1.1 1.9.5.9.9 2 1.5 2.9.8.9 1.9 1.5 3.1 1.6.8.1 1.6-.1 2.3-.3.5-.5 1.2 0 1.2.6 0 .7.3 1.3.6 2 .4 1.2 1.4 1.8 2.7 1.6 1.5-.5 2.4-3.1 2.8-4.5.2-.9.4-1.9.3-2.9-.1-.7.6-1.4 1.2-.8 2 2.9 1.8 6.6 1.5 10-.3 2.9-1 5.8.2 8.5.6 1.7 2.4 2.8 4.1 3 1 .1 1.9.1 2.9-.1.8-.1 1.2.9.8 1.5-.3.4-.7.8-1 1.3-.3.7-.5 1.5-.6 2.2-.2 1.1.2 2.2.9 3.1.5.6 1.4.6 2 .3.4-.2.7-.7.8-1.1 0-.5.2-1.1.8-1.1.7.1.8 1 1.1 1.5 1.2 2.3 1.4 4.1 1.4 5.8m20.8 68.6c1.7 3.2.9 7-.5 10.2-1.2 2.4-2.4 4.5-3.3 7.1-.4 1-.6 2.1-.7 3.2-.2.9.3 2.1-.7 2.5-.5.1-1.1-.2-1.6-.3-2.1-.8-3.2-.8-4.7 1-.3.3-.7.7-1.2.4-1.1-.6 0-3.2.2-4.1.8-3.6 1.2-7.2 1.3-10.8 0-.5-.1-1-.1-1.5-.1-.3 0-.9-.5-.9-1.8.8-3 2.5-4.2 4-1.7 2.4-2.8 5.2-3.7 7.9-.2.8-1.1 1.2-1.5.4-.5-1.7-.2-3.5-.5-5.2-.1-2.2-1.1-4.1-2.1-6-.9 1.1-1.9 2.3-2.8 3.4-.3.4-.5.9-.7 1.4-.5 3-1.3 6-1.6 9-.2 2.3-.1 4.6.1 6.8 0 1-1.4 1.3-1.6.2-.2.1-.4.1-.7 0-.7-.4-1.4-.6-2.2-.5-1.1 0-2.2 0-3.2-.2-3.2-.9-6.5-1.3-9.7-2.1-3.9-.8-7.8-1.9-11.7-3-.8-.2-1.6-.4-2.4-.7-.2-.1-.3-.4-.3-.7-1.3-.2-2.5-.5-3.8-.8-2.6-.6-5.1-2-7.4-3.2-.9-.4-1.8-.7-2.6-1.1-.4-.2-.9-.3-1.3-.5s-.9-.4-1.1-.9c-.2-.4.1-1.1.6-1 .1-.4.6-.6 1.1-.6 1.2-.2 2.4-.2 3.6-.2 2.7.2 5.5.6 8.2.4 1.6 0 3.2 0 4.9-.2 1.8-.1 3.6-.5 5.5-.7 3.3-.4 6.7-1 9.8-2.2 1.7-.5 3.2-.7 4.9-1.2 2.1-.8 4.3-1.3 6.2-2.3 2.3-1.2 4.4-2.9 6.2-4.7 1.5-1.7 2.4-3.7 3.5-5.7 1.6-3.1 2.6-6.6 3-10.1.2-2.4-.4-4.7-.4-7 0-.3.3-.6.6-.7.3-.2.6-.3 1-.3 1.4-.5 2.8-1.2 3.8-2.3.6-.6 1.1-1.4 1.6-2s1.1-1.2 1.6-1.8c1.6-2.8 1.8-8.1 1.8-11.3 0-1.2.1-2.7 0-3.9 0-2-.4-4-.7-6-.3-2.1-1-4-2-5.8-.3-.5-.8-1-.6-1.5-.4-.1-.9-.2-1.3-.4-.3-.2-.3-.5-.2-.8.2-.4.7-.4 1.1-.3 1.1.1 2.5.1 3.1-1 1-1.5 1.8-3.2 2.2-4.9.1-.3.1-.5.1-.8-.1-.3 0-.7.2-1 .5-.4 1 0 1.2.5.7 1.1 1.2 2.4 1.7 3.6 1 2.8 2.2 5.6 2.7 8.6.7 4.4.8 9.1-.4 13.5-.7 2.5-2.8 4.5-2.8 7.2 0 1.2.2 2 1.2 2.8.6.5 1 1.4.3 2-.7.5-1.7.5-2.4 1-1.1.8-2.1 1.6-3 2.5-1 1-1.4 2.3-1.9 3.6-.6 1.8-1 3.6-1.2 5.5q-.15 1.2 0 2.4v.6c.6 1.9 1.5 3.8 2.7 5.4.5.7 1.3 1.2 2.1 1.5.4.1.7.1 1 .4 1.2 1.8-2 1.9-1.4 5.9.1 1.5 1.6 2.5 3 2.5 1-.1 1.5-1.1 1.8-2s.5-1.9.5-2.8c0-.3-.1-.6.1-.9.1-.4.6-.6 1-.5.3.1.4.3.6.6 0 .4.3.9.6 1.4m7.1 29.5c1.3-.3 1.1 4.2 1.2 5.1 0 2.1-.4 4.3-1.3 6.2-.8 1.6-2.1 2.9-3.3 4.2-.9 1-1.6 2.1-2.5 3.1-1.9 2.1-4.5 4.8-3.4 7.8.2.7.8 1.2 1 1.9.3 1.7-2.1 1.3-2.8 3.8-1.1 3.3-1.1 6.9-1.9 10.3-1 4.3-2.3 8.5-4.1 12.5-.5 1.2-1.1 2.4-1.7 3.7-.8 1.6-1.9 2.9-2.7 4.5-.1.2-.2.5-.4.7s-.6.2-.9 0c-.5-.5-.2-1.1 0-1.6.3-.6.5-1.2.8-1.8.7-1.6 1.3-3.1 1.6-4.8.4-1.3.7-2.7 1-4 .9-2.9 1-5.9 1.1-8.9.2-4.6.3-9.3-.3-13.9q-.3-3.6-.9-7.2c-.1-.6-.2-1.1-.3-1.6-.1-.7-.3-1.5.2-2 .8-.7 1.8-1.1 2.6-1.9 1.5-1.4 3.1-2.8 4.4-4.5 1-1.4 1.6-2.9 2.2-4.5.4-.8 1-1.4 1.4-2.1-.4-.9-1.1-2.4-.1-3.1.2-.1.5 0 .6.2s.1.4.1.6c.1.7.4 1.2.7 1.8.7 1.3 1.9 1.8 3.2 1.1 1.3-.5 2.6-1.4 3.2-2.7.3-.5.5-1.1.6-1.7 0-.7.2-1.1.7-1.2m-36.2 14.6c1.1 2.5 1.5 2.3 1.1 5.2-.2 1.6-.2 3.2-.2 4.9 0 .3-.2.7-.5.8-.8.2-1-.9-1.2-1.5-.3-.9-.6-1.9-.8-2.8-.2-.7-.5-1.5-.7-2.2-.4-.9-1-1.7-1.5-2.5-.5-.7-.7-1.6-1.4-2.2-.6 1.5-1.5 2.9-1.9 4.5-.5 2.6-.4 5.3-.5 7.9 0 1.3 0 2.6-.2 3.9-.1.9-.3 2.6-1.6 2.3-2.8-.7-5.7-.8-8.6-.9-1.7 0-3.3-.3-5-.6q-.6 0-1.2-.3c-.3-.1-.6-.3-.7-.6-.2-.9-.1-1.8-.3-2.7-.6-2.5-1.3-4.9-2.2-7.3-.7-1.7-1.7-3.3-2.9-4.6-.5-.7-1.1-1.3-1.8-1.9-.5-.5-1.3-1.1-.9-1.9-.4-.3-.3-1 .1-1.2.1-.1.3-.1.5 0 .6.1 1.1.3 1.6.4 1.1.3 2.3.4 3.5.6 1.1.2 2.2.5 3.2.7.9.1 1.8.2 2.7.4 1.1.1 2.3.1 3.5.1 1.4-.1 2.7-.5 4.1-.6 1.1-.1 2.1-.3 3.2-.4 1.5-.1 3.1 0 4.6-.1 1.4-.1 2.8-.4 4.2-.2.4.1.7.4.8.8.5.6.8 1.3 1 2" class="st1"/><path d="M66.8 106.4c.5.3.5 1.1 0 1.4-.3.2-.5 0-.8-.1l-2.1-.9q-1.95-.9-4.2-.6c-1.4.2-3.2 1-3.2 2.6 0 1.1.2 2.1.5 3.1.1.5.3.9.3 1.4-.1.5-.5.8-.9.6-.2-.1-.3-.3-.4-.5-.2-.5-.4-1.1-.6-1.7-.4-1.6-.7-3.4.1-5 1.1-2 3.6-2.6 5.7-2.5 1.6 0 3.2.6 4.5 1.5.4.3.8.5 1.1.7m89.5 2.1c1.2 1.3 1.3 4-1.1 3.5-.9-.2-1.8-.5-2.7-.8-1.9-.6-4-1.1-5.5-2.5-.7-.7-1.1-1.8-.7-2.7.3-.7 1-1.4 1.8-1.2.1 0 .2.1.3.1.2 0 .5.1.5.4.8.1 1.7.3 2.6.5 1.9.5 3.5 1.3 4.8 2.7m21.3-.4c-3.2-.6-.6-5.2.5-6.8s3.2-3.6 5.3-2.4c1.9.1 2.4 1.7 1.5 3.2-.7 1.3-1.9 2.2-2.9 3.3-1.2 1.3-2.5 2.8-4.4 2.7"/><path d="M151.6 108c-1.1-.6-2.3-2.3-3.7-1.2.3.9-1 1.6-1.5.7-.7-1.5 1.2-2.8 2.5-2.8 1.1 0 2.1.9 3 1.5.5.3.9.9.6 1.5-.1.3-.5.5-.9.3"/><path d="M197 106c.1 2.6.1 5.2-.1 7.8-.1 2.5-.8 4.9-2.3 7-.7 1.1-1.7 2-2.7 2.9-1.5 1.2-3 2.5-4.8 3.2-.1 0-.1 0-.2.1 0 1.1-.1 2.1 0 3.2 0 3.3-.2 6.7-1.3 9.9-1.7 4.8-4.3 9.4-8.1 12.9-2.4 2.4-5.7 3.3-8.8 4.4-3.3 1.1-6.7 2.1-10.1 2.6-3.5.5-7 1-10.5 1.2s-7.1.3-10.6.4c-7.3.3-14.6.4-21.9.5-3.6 0-7.2.2-10.8.2-3.1 0-6.2-.4-9.3-.7-1.8-.2-3.5-.6-5.3-.8s-3.6-.3-5.3-.7c-1.8-.3-3.6-.6-5.4-1-4.2-1-8.3-2.4-12.5-3.3-2.6-.7-5.3-1.1-8-1.5-2.7-.5-5.3-1.2-8-1.8-3.6-.9-7.3-1.4-10.9-2.4-2.5-.5-5.1-1-7.5-1.8-.8-.3-1.6-.7-2.4-1.1-1.6-.8-3.3-1.6-4.9-2.3-3.2-1.6-6.2-3.8-8.6-6.4-2.6-2.6-4.8-5.5-6.6-8.6-1.6-3.2-2.1-6.8-2.4-10.3-.5-7.9.4-16.3 3.9-23.5 1.1-2.3 3-4.2 5-5.9 1.3-1.1 2.6-2.2 4.1-3.1 1.4-.9 2.8-1.8 4.2-2.5l2.1-1.2c.1-.1.3-.2.5-.2-.2-1.4.2-3.7.3-4.7.4-3.1 1.1-6.1 1.8-9.1.3-1.5.4-3 .6-4.6.2-1.9.7-3.6 1.3-5.4 1-3.2 2.3-6.2 4.2-9 3.5-6 5.4-8.2 11.3-11.8 2.1-1.5 4.4-2.4 6.9-3 3.8-1.3 7.9-1.7 11.9-2 5.3-.3 9.4.9 14 3.2 1.4.8 2.8 1.7 4 2.8 1.3 1.1 2.3 2.6 3.3 4 0-.1.1-.1.2-.2.4-.2.8-.2 1.2-.3 1.9-.4 3.8-.9 5.8-1.1q3.9-.45 7.8-.6c2 .1 4 .2 6 .7.6.1 1.2.3 1.7.5.5-1.1 1.7-2.4 2.1-2.9 1.1-1.2 2.4-2.3 3.8-3.2s2.8-1.7 4.2-2.5c1.5-.9 3-1.5 4.7-1.9 3.2-.8 6.6-.8 9.9-.3 2.4.3 4.8.7 7 1.5 1.5.5 3.1 1 4.5 1.8 1.6.8 2.6 2.2 3.5 3.6 1.3 1.9 2.7 3.7 4 5.6 1.5 2.4 2.7 5.1 2.9 7.9v.3c1.5.7 2.8 1.9 4.1 3 1 1 2 2 2.8 3.3 0 .1.1.2.1.3.4.2.8.4 1.1.7 3.3 2.3 6.4 5.8 6 10.1 0 .4-.1.9-.2 1.4 1.2 1.2 2.2 2.7 2.4 4.4.1 1.4-.3 2.9-1 4.1.5.8-.3 4-.7 4.8l.9-.3c2.7-.8 5.5-1 8.2-.9 5.5.1 11.3 3.1 14.2 7.8 2.3 4.5 2.4 9.8 2.7 14.8m-1.8 7.2c.3-5.3.1-10.3-.7-15.5-.9-4.5-3.1-8.1-7.3-10.2-3.5-2.1-7.7-2.4-11.8-2.1-1.3.1-2.6.4-3.9.7-.7.2-1.3.4-2 .6-.1 0-.2.1-.4.1-.4.4-.8.8-1.2 1.1-2.7 2.4-6.2 3.5-9.6 4.5-2.1.8-4.3 1-6.6 1-2.9 0-5.9.2-8.8 0-1.9-.1-3.8-.2-5.7-.7-3-.9-6-1.7-9-2.6-.1 0-.3-.1-.4-.1-.5-.3-.3-1.1.2-1.2.6-.1 1.1.1 1.7.3 2.6.6 5.2 1.4 7.8 2.2 1.7.4 3.5.5 5.2.6q3.3.15 6.6 0c2.3-.1 4.6.1 6.8-.4 4.4-1.3 9.2-2.5 12.3-6 1-1.2 1.5-2.6 1.7-4.1l-.1.1c-1.7 1.4-3.5 2.4-5.6 3.1-1.6.5-3.3.8-4.9 1.2-4.7 1.1-9.6 1.7-14.4 1.3-1.6-.1-3.3-.2-4.9-.6-1.8-.3-3.5-.7-5.3-1.2-2.3-.5-4.6-1.2-6.8-2.1-1.7-.6-3.2-1.4-4.7-2.4-.5-.2-1.1-.6-1.2-1.2l-.6-.3c-.2-.1-.3-.3-.3-.5 0-.1 0-.1-.1-.2-.1-.3.1-.6.3-.8 2.2-2.5 5.1-4.5 7.9-6.4 2.7-1.9 5.8-3.2 8.9-4.2 1.6-.5 3.2-.7 4.9-1 5.1-1 9.8-1.1 14.9.2 2.4.5 4.8.5 7.1 1.3 1.2.5 2.3 1.4 3.3 2.3.1-1.2.2-2.8-1.1-4.7-1.1-1.6-2.6-3-4.2-4.1-1.3-.9-2.8-1.4-4.3-1.9-2.4-1-5.1-1.6-7.7-1.3-2.2.2-4.4.5-6.4 1.4-2.2 1-4.5 1.6-6.8 2.3-1.8.7-3.6 1.4-5.4 2.2-2.1.9-4 2.4-5.9 3.6-2.2 1.3-4.3 2.5-6 4.3-.2.1-.5-.1-.6-.3-.5-1.3 3.3-3.4 4.2-4.1 2-1.3 3.9-2.7 5.9-3.9 2.1-1.2 4.4-2.1 6.6-3s4.5-1.4 6.7-2.4c.7-.3 1.5-.6 2.2-.9 1.5-.6 3.2-.7 4.8-.9 3.3-.5 6.1.2 9.2 1.4.1.1.3.1.4.2-1.1-1.2-2.4-2.2-3.8-3.1-3-2-6.8-1.1-10.1-.7-3.5.3-6.7 1.6-9.8 3.2-2.4 1.1-4.8 2.1-7.1 3.3-1.8.9-3.7 1.7-5.4 2.6-.8.4-1.7.9-2.4 1.5-.2.2-.4.4-.7.2-1.8-1.4 4.5-3.9 5.4-4.5 2.2-1.1 4.5-2.4 6.8-3.3 2.9-1.2 5.7-2.9 8.8-3.9 1.9-.6 3.8-.8 5.7-1 2.3-.3 4.5-.6 6.8-.1-.2-.8-.3-1.6-.6-2.3-.5-1.5-1.2-3-2.1-4.3l-2.4-3.3c-1.2-1.7-2.2-3.7-3.9-4.9-1.2-.7-2.5-1.2-3.7-1.6-2-.7-4-1.2-6.1-1.5-1.5-.2-2.9-.4-4.4-.5-2.5-.2-5 .1-7.4.7-1.8.4-3.3 1.4-4.9 2.3-2.4 1.4-4.8 2.8-6.6 4.9-.5.6-1 1.1-1.4 1.7 1.4.6 2.7 1.3 4 2.2.8.4.3 1.8-.6 1.4-2.1-.9-4.1-2.1-6.4-2.6-2.9-.8-6-1-9-.8-2.6.1-5.1.3-7.6.8-1 .2-2 .4-3.1.5h-.5c.1.1.2.3.2.4 1.2 2 2.4 4 3.2 6.3.2.8 1 2.1.1 2.8.3.1.6.3.8.5 1 .6 1.9 1.4 2.7 2.3.4.4 1 1 1 1.6 1.8.4 3.5 1.1 5 2.2 1.9 1.5 2.7 3.9 3.4 6.1.3 1.1.6 2.3.7 3.5v.3c2.5 3.6 2.9 9.2.8 13.1.1.1.1.3.1.4-.2 2.6-1.5 5.2-3.3 7-1.2 1-2.6 1.6-4.1 2.1-1.9.7-3.9 1.5-5.8 2.1-1.8.5-3.7.8-5.5 1.3-1.4.4-2.8.7-4.2.6-2.4 0-4.8-.2-7.2-.5-3.2-.3-6.4-.7-9.5-1.5-2.4-.7-4.9-1.3-7.4-1.8-.3-.1-.4-.4-.4-.6.1-1 1.4-.6 2.1-.6 2 .3 4.1.7 6 1.3 3.3.8 6.7 1.2 10.1 1.5 2.5.2 5 .5 7.5.4 1.8-.2 3.5-.8 5.2-1.1 2.3-.3 4.4-1.1 6.6-1.9 2.3-.9 5-1.4 6.6-3.4.7-.9 1.3-1.9 1.6-2.9 0-.1.1-.2.1-.3-.9.9-1.9 1.5-3.2 2-4.2 1.4-8.8 1.5-13.1 1.8-5 .5-10 1.1-15.1.6-2.4-.3-4.9-.5-7.3-.7-1.6-.1-3.3-.3-4.9-.6-2-.4-3.7-1.4-5.5-2.3-1.4-.6-2.8-1.2-4-2.2-.5-.4-.9-.8-1.3-1.3-.2-.3-.3-.7-.1-1-.5-1.4 4.5-5.4 5.6-6.4 2.8-2.5 6.3-4.3 9.7-5.8 2.3-1.1 4.5-2.1 7-2.7 3.5-.9 7-1.6 10.6-1.9 3.5-.3 7.1-.4 10.6-.1s7.4 1 10 3.4c-.4-1.7-1-3.4-1.9-4.9-1.1-1.8-3.3-2.6-5.2-3.2-1.1-.3-2.3-.5-3.5-.6-1.5-.1-3 .1-4.6 0-4.1 0-8.3-.4-12.3.8-3.1.8-6.2 1.8-9 3.4-2 1.1-4.3 2-6.2 3.3-1.9 1.2-3.6 2.7-5.4 4-1.2.8-2.4 1.5-3.5 2.3-.5.4-.9.7-1.4 1.1-.2.2-.5.1-.7-.2-.8-1 4.9-4.4 5.7-5.2 1.9-1.5 3.7-3.1 5.8-4.3 1.3-.8 2.8-1.4 4.1-2.1 1.4-.8 2.8-1.6 4.3-2.1 2.9-1.1 5.8-2.2 8.9-2.6 3.9-.5 7.8 0 11.6-.2 1.2-.1 2.4-.1 3.6.1-.7-.7-1.4-1.4-2.2-1.9-1.1-.7-2.3-1-3.5-1.4-2.4-.5-4.8-.2-7.2.1s-4.7.7-7 1.3c-1.7.4-3.4.9-5 1.6-2.3 1.1-4.2 2.5-6.3 3.7-1.5.9-3 1.8-4.4 2.8-2 1.3-3.9 2.8-6 4.1-.4.2-.9.8-1.3.3-.4-.7.4-1.1.9-1.5 1-.7 2-1.4 3-2.2 2.1-1.5 4.1-3.1 6.3-4.5 1.6-.9 3.1-1.9 4.6-2.9 2.2-1.4 4.7-2.4 7.2-3 2.3-.6 4.6-1.2 7-1.5 3.7-.5 7.1-.9 10.4.4-.2-.5-.3-1.2-.4-1.5-.4-1.2-1-2.4-1.6-3.5-1.5-2.6-3.1-5.2-5.3-7.3-1.9-1.7-4.1-2.8-6.5-3.8-2-.9-4.2-1.5-6.4-1.8-3.3-.3-6.6-.1-9.9.4-2.1.2-4.2.9-6.3 1.5-2 .5-4 1.3-5.7 2.5-3.7 2.2-6.9 4.4-9.2 8.2-1.4 2.3-3 4.6-4.2 7-1.2 2.7-2.1 5.2-2.8 8-.5 1.9-.5 3.9-.8 5.8-.9 4.7-2.3 9.3-2.5 14 .2.1.2.3.2.5v.2c0 .2-.1.5-.4.5-.2.2-.5.3-.7.5-2.5 1.7-5.1 3.1-7.5 4.9-2.3 1.8-4.6 3.7-6.3 6.1-4.6 7.7-5.4 19-4 27.7.3 1.6.7 3.2 1.3 4.6 1.2 2.2 2.6 4.2 4.2 6.2 2.3 2.6 4.7 5.1 7.6 7 2.1 1.4 4.5 2.4 6.8 3.5 1.1.5 2.1 1.2 3.3 1.6 2 .6 4.1 1.1 6.2 1.5 1.8.3 3.5.8 5.2 1.2 2.8.5 5.5 1.1 8.2 1.8 2.7.6 5.3 1.3 8 1.8 1.8.3 3.6.6 5.4 1 2.6.6 5.3 1.3 7.9 2 3.2 1 6.5 1.9 9.8 2.4 2.6.5 5.3.7 7.9 1.1 1.8.3 3.5.6 5.3.8 2.3.2 4.6.6 6.9.6 8.2 0 16.3-.3 24.5-.3 5.4-.1 10.7-.3 16.1-.5 4.1-.1 8.2-.5 12.3-1.1 4-.4 8-1.4 11.8-2.8 1.5-.6 3-1 4.5-1.6 1.2-.5 2.3-1.3 3.3-2.1 2.8-2.4 4.8-5.5 6.3-8.7 2.3-4.7 2.9-8.9 2.9-14v-1.8c-.6.2-1.1.3-1.7.4.5.7-.2 1.7-.6 2.4-.8 1.3-1.8 2.5-2.8 3.7-1.6 1.8-3.3 5-6.2 4.1-2.4-.6-4.5-2-6.3-3.7-.9-.8-1.7-1.7-2.5-2.7-.2-.3-.5-.5-.7-.9-.4 0-.8.1-1.1.2 0 .9-.9 1.9-1.2 2.6-1.2 2.1-2.5 4.1-4.5 5.5-1.4 1-3.1 1.8-4.9 1.4-3.2-.9-5.7-4.3-7.9-6.7-.4-.5-.9-1-1-1.6h-.6c-.3.9-1 1.7-1.5 2.6-.4.7-.9 1.4-1.5 2-2.2 2.4-5.3 4.6-8.7 4.2-2.6-.4-4.1-2.8-5.9-4.6-.7-.7-1.4-1.4-2-2.2-.5-.6-1.3-1.2-1.4-2-.5 0-1-.1-1.5-.1-1.1 2-2.6 3.7-4.4 5-1.7 1.1-3.6 2.1-5.7 2.1-2.3 0-3.9-2-5.3-3.5-1.1-1.3-2.3-2.5-3.4-3.7-.3-.3-.7-.7-.7-1.2 0-.3.1-.6.3-.8-.9-.2-1.7-.4-2.6-.5-.3.5-.7.9-1 1.4-.5.7-1 1.4-1.5 2-1.6 1.6-4.9 3.3-7.2 3.2-1.4-.1-2.4-1.1-3.1-2.1-.9-1.3-1.8-2.7-2.8-4s-2.1-2.5-3.1-3.8c-.4-.6-1.3-1.3-1.1-2-1.4-.5-2.6-1.1-3.8-2-1.3-1.1-2.6-2.2-4.2-2.9-2.3-.9-4.3-2-6-3.8-.7-.8-1.9-1.8-1.3-2.8.8-1 1.5.5 2 1 .7.9 1.6 1.7 2.6 2.3 1.5 1 3.3 1.4 4.8 2.4 1.3.8 2.4 1.8 3.7 2.7 1.7 1.1 3.6 1.7 5.5 1.9 3 .5 5.9 1.6 8.7 2.7 2.4 1 4.9 1.5 7.5 2q3.9.9 7.8 1.5c3.2.4 6.4.6 9.6.8 1.9.1 3.7.3 5.6.5 1.3.1 2.6 0 3.9 0 2.7-.1 5.3 0 8 0 4 0 8-.1 12-.1 4.4 0 8.7-.3 13.1-.6 2.7-.3 5.3-.7 7.9-1 4.5-.5 8.9-1.2 13.3-1.9 2.2-.4 4.5-.8 6.6-1.6 1.5-.7 2.8-1.7 4-2.7 3.2-3.1 4.6-5.9 4.8-9.8m-13.7 16.5c.3-.3.5-1 .8-1.4-1.6.3-3.2.6-4.8.8-3.6.6-7.3 1-10.9 1.6 1.4 1.4 2.7 2.8 4.4 3.9 1.4.8 2.9 1.7 4.5 1.7 1.4-.6 2.2-2.1 3.3-3.2 1-1.2 1.9-2.3 2.7-3.4m-11.2-51c1.6-2.8.2-5-2-6.8-1.3-1.1-2.5-2.3-4.1-2.8-1.5-.4-3.1-.6-4.7-.8s-3.1-.6-4.7-.9c-.8-.1-1.6-.2-2.5-.2.1.1.2.2.4.3 1.8 1.7 2.9 4.1 3.1 6.6.3 3.2-.1 6.6-1.9 9.3-.3.4-.5.8-.8 1.2-.1.1-.1.2-.2.3.7-.1 1.4-.2 2.2-.3 2.4-.4 4.8-1 7.2-1.5 2.1-.4 4.1-1.2 5.9-2.4.8-.4 1.5-1.1 2.1-2m-9.2 53.6c.2-.3.4-.7.5-1-1.3.2-2.6.4-3.9.4-1.5.1-2.9.2-4.4.3-2.6.2-5.1.2-7.7.2.6.7 1.3 1.4 2 2.1 1.7 1.7 4.2 4.8 6.9 4.3 3.1-.9 5.1-3.6 6.6-6.3m-11.2-58.7c.1-.8-.7-1.5-1.4-1.7-.7.2-1.8.4-2.1 1.3-.1 1 .7 2.3 1.8 2.2.9-.1 1.5-1 1.7-1.8m-8.4 58.7h-.3c-2.6 0-5.3.1-7.9.1-3.1-.1-6.1-.1-9.2 0l2.4 2.4c2 2 4 5.3 7.3 4.2 2.2-.6 4.1-1.9 5.6-3.6.8-1 1.4-2.1 2.1-3.1m-8.8-58c.2-1 .8-2.4 1.6-3.6-3.9 1.8-7.4 4.4-10.7 7.1-.2.1-.3.3-.5.4.1.1.2.2.2.3.4.1.9.5 1.2.7q1.35.9 2.7 1.5c2.1.9 4.2 1.6 6.4 2.2-1.3-2.5-1.5-5.7-.9-8.6m-14 57.9c.1-.1.1-.2.2-.3-.2 0-.5-.1-.7-.1-1.4-.1-2.7-.2-4.1-.3-2.7-.2-5.3-.4-7.9-.7l-3.3-.6v.1c.9.9 1.8 1.9 2.7 2.8 1.3 1.3 3 3.9 4.9 4.1 3.3.1 6.5-2.4 8.2-5m-16-48c2.9-2.7 3.3-7.6 1.7-11.1-2.3-5-6.9-5.9-11.9-6.3-2-.2-4.1-.2-6.1-.1 2.9 1.6 4.2 4.9 4.4 8.1.2 2.5.4 5 .1 7.6-.1.6-.5 3.1-1.2 4.8 1.2-.1 2.3-.2 3.5-.3 2-.2 4-.5 6-1 1.2-.3 2.5-.8 3.5-1.7m-5.4 45c-.3-.1-.6-.1-.9-.2-3.3-.6-6.4-2-9.6-3.1-1.7-.6-3.4-1-5.2-1.2h-.2c.2.2.4.5.6.7 1.7 1.9 3.3 3.8 4.7 6 .7 1 1.3 2.3 2.5 2.7 1.9.3 4.7-1.1 6.1-2.3.7-.7 1.3-1.5 1.8-2.3 0-.1.1-.2.2-.3M85.2 74.7c.2-.8.1-1.9-.7-2.3-.5-.2-1.2 0-1.5-.5-.8.4-1.4.9-1.3 1.9 0 .6.2 1.2.5 1.7.1.4.6.6 1 .5.7 0 1.7-.4 2-1.3m-17.3-4.4c-.1 0-.2.1-.3.1-3.9 1.7-7.8 3.4-11.1 6.1-1.9 1.6-3.9 3.2-5.5 5.1v.1c1.2 1.4 3.1 2.2 4.7 2.9.8.4 1.6.8 2.5 1.2 2.3 1 4.9 1.3 7.3 1.5.8.1 1.6.1 2.4.2-1.6-1.9-2.6-4.4-2.9-6.8-.3-3.9.6-7.4 2.9-10.4"/><path d="M16.9 119.2c-.5-1.4-.3-2.9-.4-4.4 0-1.5 0-2.9.1-4.4 0-.6.1-1.2.2-1.8 0-.3.1-.6.3-.7.6-.4 1 .3.9.9-.1 2.7-.2 5.4-.1 8.1 0 .6.1 1.3.1 1.9 0 .3-.1.7-.4.8-.2.1-.6-.1-.7-.4m5.1 3.5c-1.1-1.4-1.1-8-.5-9.6.1-.2.4-.4.7-.3.6.2.4 1 .4 1.5 0 1.8 0 3.5.2 5.3.1.8.2 1.5.3 2.3.1.4 0 .8-.3 1s-.6.1-.8-.2m4.3 3.8c-.1-.2-.2-.3-.2-.6-.1-1.7-.2-3.5-.1-5.2 0-.6.4-1.5 1-.9.4.4.3 1.1.3 1.6.1 1.5 0 3 0 4.6.1.5-.5 1-1 .5m95.6-18.2c-.3-1.6 0-3.2 0-4.8.1-1.1 0-4.4.9-5.1.3-.1.6 0 .7.3q.15.3 0 .6c-.1.3-.1.6-.1.9-.2 2.7.1 5.3-.1 8-.2.8-1.2.9-1.4.1m4.5 0c-.3-.9-.2-2-.3-2.9v.1c0-.6-.1-1.1-.1-1.7 0-.5-.1-1.1.2-1.5.3-.6 1.1-.3 1.1.4 0 .9.2 1.9.3 2.8 0 .7.5 3.2-.5 3.4-.3 0-.6-.3-.7-.6m5.8 2.6c-.5-.1-.6-.6-.5-1 .1-2.2.2-4.5-.1-6.6 0-.5.5-.9 1-.6.6.5.5 1.4.6 2.1.2 1.8 0 3.6-.2 5.5-.2.3-.5.6-.8.6m1.2 44.5c-.3-1-.3-2.1-.4-3.2 0-1.1-.2-2.4.3-3.4.2-.4.7-.6 1-.3.3.2.3.7.1.9-.1.4 0 .8 0 1.3.1 1.5.3 3 .2 4.5 0 .3-.2.6-.5.7s-.6-.2-.7-.5m3.9.2c-.4-1.1-.3-2.3-.3-3.4.1-1.1 0-2.2.2-3.3.1-.2.3-.4.6-.4.9.1.7 1.4.7 2.1.1 1.6.1 3.2-.1 4.8 0 .6-.8.9-1.1.2m4.9-1.2c-.3-.3-.2-.7-.2-1-.1-1-.2-1.9-.2-2.9s-.2-2 0-3c.1-.2.3-.4.5-.4.9 0 .8 1.3.9 1.9.2 1.6.1 3.2.1 4.8-.1.6-.7 1-1.1.6m23-4.2c-.1-1-.1-2-.1-3.1 0-.4 0-.9.3-1.1.7-.4 1 .5 1 1 .1 1 .1 2.1.1 3.2 0 .3-.3.6-.6.6-.4 0-.7-.3-.7-.6m4.1-2.4c0-.9-.1-1.8-.2-2.7-.1-.5.2-1.2.8-1 .7.3.6 1.4.7 2.1 0 .6.3 2.4-.7 2.4-.4-.1-.6-.5-.6-.8m7.6 29.4c-2.7-.5-5.5-.5-8.3-.9-2.7-.5-5.4-1-8-1.6-2.2-.5-4.2-.9-6.3-1.7s-4.2-1.3-6.4-1.8c-1.4-.4-2.8-.8-4.3-1.1-1.4-.3-2.8-.6-4.1-1.1-2.1-.8-3.9-1.9-5.7-3.1-1.4-.9-2.8-1.7-4.3-2.5-.3-.1-.4-.5-.4-.7.1-.3.3-.5.6-.4.8.2 1.5.6 2.3.9 2.7 1.3 5.1 3.1 8 4.1 1.7.6 3.4.8 5.1 1.2 2.8.8 5.6 1.4 8.4 2.3 2.2.8 4.5 1.5 6.8 1.9 4.7 1.2 9.4 2.1 14.2 2.4l2.7.3c.9.1.8 1.9-.3 1.8"/><path d="M193.9 187.3c2.7-.1 4.4-1.5 6.5-3 0-1.7-.5-3.5-2-4.4-2.7-1.7-7.3-2.6-9.1.8v-.1c-1.9 4.5-.2 6.9 4.6 6.7m-9 8.7c-3.6-.2-6.5-1.5-8.3-4.7-1.2-1.9-1.7-4.1-2.3-6.2-.1-.5-.2-1.1-.3-1.6-.1-.3.1-.7.5-.9.3-.1.7.1.8.4.2.7.5 1.3.7 2 1.8 6.4 3.6 8.9 10.7 9 2.8-.1 5.7-.4 8.2-1.9 1.5-1 2.7-2.3 3.8-3.7.6-.7 1.1-1.4 1.6-2.2-1.6 1.2-3.3 2.4-5.3 2.6-3.1.6-7.3-.4-7.9-4-.3-1.7.1-3.6.8-5.2 1.4-3.1 4.8-4 7.8-3.2 3.5.9 6 2.7 6.3 6.5 2.1-2.7 1.9-6.5.6-9.5-.9-2.1-2.9-2.6-5-2.4-1.2.1-2.5.5-3.5 1.1-.5.3-1.1.8-1.7.5-.4-.2-.6-.8-.5-1.2.6-5.2 1.9-10.6 2.2-15.8-1.9 1.9-4 3.6-5.2 6-.7 1.4-1 2.9-1.4 4.4-.2.7-.3 1.3-.5 2-.1.4-.3.9-.7 1.1-1.3.5-1.3-1.7-1.5-2.5-.3-1.6-.7-3.1-1.1-4.7-.5-1.8-.8-3.6-1.4-5.4-1.7 1.9-2.7 4.2-3.2 6.7-.6 3.7-1.1 7.4-.9 11.1 0 .4.1.9.1 1.3-.1.5-.7.7-1 .3-.5-.6-.5-1.5-.5-2.2-.2-2.6.1-5.1.4-7.7.3-2.5.7-5.1 1.9-7.4.5-1.1 1.2-2.1 2-3 1.8-2.5 2.9.1 3.3 2 .6 2.6 1.3 5.2 1.9 7.8 1-3.9 2.1-6.4 5.1-9.2l1.7-1.7c.5-.4 1-1.1 1.7-1.2 1.3.2 1.1 1.9 1.1 2.8-.3 4.8-1.5 9.5-2 14.3 2.2-1.3 5-1.6 7.5-.9 1.3.5 2.3 1.5 3 2.8 2 4.1 1.8 9.5-1.4 12.9-.7 3.1-3.4 5.6-5.6 7.8-1.9 1.7-4.4 2.4-6.9 2.8-2.3.3-4 .4-5.6.2"/><path d="M158.9 189.9c-3-.1-6.1-.3-9.1-.7-3.3-.2-6.6-.6-9.6-1.9-.3-.1-.6-.3-.8-.5-.4-.4-.4-1.1.1-1.3.4-.2.7.1 1.1.1 1.5.4 3 .9 4.5 1.2 1.6.3 3.2.3 4.8.4q4.05.45 8.1.6c2.4.1 4.8-.2 7.2-.2 1.9 0 3.8 0 5.7-.2 1.1-.1 2.1-.2 3.2-.5.6-.1 1.3-.5 2-.3.6.3.6 1.3.1 1.6-.7.5-1.7.6-2.5.8-2.3.4-4.6.4-6.9.5-2.8.2-5.3.4-7.9.4"/><path d="M143.4 249.3c-.8-1.1.6-2 1.3-2.6.5-.4 1-.9 1.5-1.3 1.5-1.2 2.7-2.9 3.5-4.6 2.5-4.8 2.6-10.2 2.5-15.4 0-7-.6-14-1.9-20.9-.4-2.2-1.1-4.4-2-6.4-1.4-2.9-3.5-5.4-5.4-7.9-2.5-2.7-5.7-4.8-7.5-8.1-2.6-4.6-4.6-9.4-6.3-14.4-.4-1.3-.6-2.7-.8-4-.1-.8-.3-1.7.1-2.5.2-.4.7-.5 1-.2s.2.6.3 1c.1 1 .2 2 .4 3 .3 1.9 1.1 3.8 1.9 5.6.4 1.1.9 2.2 1.3 3.2 1.6 3.2 2.8 6.5 5 9.2 1.3 1.6 2.9 2.8 4.4 4.2 1.4 1.2 2.4 2.8 3.5 4.2s2.2 2.9 3 4.5c2.3 4 3 8.6 3.6 13.1 1.1 7.2 1.5 14.6 1.2 21.9-.2 3.8-1 7.7-2.8 11.1-.9 2.1-2.5 3.9-4.2 5.4-.4.4-.8.8-1.2 1.1-.7.5-1.6 1.8-2.4.8m-82.3 2.8c-2.7-.2-5.4-.1-8.1-.3-1.7-.1-3.3-.3-5-.5-3.1-.1-6.3-.6-9.4-.9-3-.2-5.9-.5-8.9-.6-2.1 0-4.2 0-6.2-.1-3.1-.1-6.3 0-9.4-.4-1.1-.1-2.1-.4-3.1-.6-1.7-.5-3.5-.9-5-1.9-1.4-.8-2.5-2.6-1.7-4.2.9-1.6 2.5-2.5 3.8-3.7 1.1-1 2.2-1.9 3.3-2.9 1.9-1.7 3.7-3.6 5.7-5.2 2.1-1.5 4-3.1 6-4.8 1.2-.9 2.4-2 3.7-2.9 1.4-.9 2.9-1.6 4.3-2.5 1.7-1.1 3.2-2.3 4.6-3.7 1.3-1.3 2.7-2.5 3.9-3.9 1-1 1.3-2.6 1.3-4 .3-5.1.2-10.3.8-15.4.4-5.2 1.5-10.3 2.4-15.4.7-4.1 1.7-8.2 3-12.2 1.1-3.8 2.8-7.4 4.9-10.8.5-.8.9-1.6 1.5-2.3.3-.4.7-1 1.3-1s.8.8.4 1.2c-.2.2-.4.4-.5.7q-2.1 3.45-3.9 7.2c-1.4 3.1-2.3 6.5-3.3 9.8-1.3 5-2 9.9-2.9 14.9-1.1 5.7-1.5 11.6-1.7 17.4-.4 10.2.6 9.1-7.1 16.2-2.5 2.3-5.5 3.9-8.4 5.6-3.3 2.5-6.4 5.2-9.7 7.6-2.7 2.2-5 4.7-7.7 6.9-1.4 1.4-3.3 2.3-4.3 4 0 1.7 4 2.7 5.3 3.1 4.3 1.2 8.8.7 13.2 1 2 .1 4.1.1 6.1.1 3 .2 5.7.4 8.7.6 3.2.4 6.5.8 9.8 1 1.9.2 3.7.5 5.6.5 1.5 0 3 0 4.6.1 4.1.2 8.3.1 12.4.1 5-.1 10-.2 15-.5 2.2-.2 4.5-.2 6.7-.3 2.3 0 4.6-.1 6.8-.6.9-.1 1.2 1.5.2 1.7-1.5.4-3 .9-4.6.9-2.5 0-5.1.1-7.6.2-8.8.6-17.8.8-26.8.8"/><path d="M84.6 226.4c-1.8-.1-3.5-.6-5.2-1.3-2.5-.9-4.8-2.1-7-3.5-1.1-.7-2.3-1.3-3.3-2.1-1.1-.9-2-1.9-2.8-3-2.2-2.6-4.7-5.1-6.6-7.9-.8-1.2-1.4-2.5-2.1-3.9-.4-1-2.5-4.5-1.3-5.2.3-.2.8 0 .9.3.3.6.7 1.2.9 1.9.9 1.9 1.7 3.8 2.8 5.5 1.7 2.5 4 4.7 5.9 7 .9 1.1 1.8 2.2 2.8 3.2 1.3 1.1 2.9 1.8 4.3 2.7 2.7 1.7 9.2 4.8 12.3 3.8-.9-1.7-2.5-3-3.9-4.2-.5-.4-1.1-.8-1.4-1.3-.4-.6 0-1.7.8-1.6.3.1.6.3.9.4.8.4 1.7.9 2.5 1.2 1.5.6 2.7 1.3 4.2 1.7 1.7.3 3.4.7 5.1.3-.5-.8-1.3-1.5-2-2.2-2-1.7-4.1-3.2-6.1-4.8-.4-.3-1-.7-1-1.3-.1-.6.3-1.3 1-1.2.5.1.9.4 1.4.5 2.3.5 4.6.6 6.9 1 1.2.1 2.4.5 3.5.3-2.2-2.2-5.1-3.5-7.6-5.2-1.5-1-2.9-2-4.3-3.2-2.5-2.1-5.4-3.8-8.2-5.5-2.1-1.4-4.1-2.9-5.9-4.7-2.5-2.2-4.8-4.7-6.5-7.6-.7-1.2-1.2-2.4-1.8-3.7-1.1-2.5-2.3-5-3.3-7.6-.3-.9-.8-2-.4-3 .2-.3.6-.4.9-.1.2.4.1.9.3 1.3 1.2 3.3 2.9 6.4 4.4 9.7 1.3 2.9 3.2 5.5 5.4 7.6l3.6 3.3c2.8 2.4 6 4.1 9 6.1 2.5 1.7 4.7 3.8 7.2 5.4 2.9 1.9 6.1 3.4 8.6 5.9.7.6 1 1.7.4 2.5-1.2 1.2-3.2.8-4.8.6-1.7-.3-3.3-.5-5-.7 1.8 1.5 6.3 4.5 6.2 7-.3 1.8-2.5 1.8-3.9 1.7-2-.1-4-.5-5.8-1.4 2.5 3 1.7 5.5-2 5.3"/><path d="M60.6 220c-.9-.7.1-1.7.7-2.1.7-.6 1.4-1.1 2.1-1.7.4-.3.7-.6 1.1-.9.9-.6 1.6.8.9 1.5-.7.8-1.9 1.5-2.7 2.1-.4.3-.9.5-1.3.8-.1.2-.4.5-.8.3m68.1 34c-3.7-.2-7.3-.9-10.9-1.6-1.9-.4-3.7-1-5.5-1.4-1.9-.3-3.9-.3-5.9-.4-1.3 0-2.7-.2-4-.1-.9.1-1.8.3-2.6.4-1 0-1.2-1.7-.3-2 .7-.2 1.4-.3 2-.4 1.4-.2 2.9-.1 4.4 0 2.1.1 4.1 0 6.1.3 2.2.3 4.3 1.1 6.4 1.5 2.3.5 4.6.9 7 1.2 3.7.6 7.6.3 11.3-.5 2-.6 4.4-1.4 5.5-3.3 1.5-4 1.3-8.4 1.7-12.7.2-4.1.9-8.2 1.1-12.3.2-3.3.1-6.6 0-9.9-.2-5-.4-9.6-1.3-14.5-.2-.8-.3-1.6-.6-2.4-1.6 1.7-2.5 4-3.3 6.1-.6 2-.9 4.1-1.2 6.2-.1.8-.2 1.7-.3 2.5 0 .4-.1.8-.3 1.1-.3.5-1.2.4-1.4-.2-.3-1.7-.3-3.4-.4-5.1-.1-2.5-.2-5.3-.4-7.8-.2-2.4-.3-4.9-1.2-7.2-1.3 1.3-2.1 3-2.9 4.7-2.4 4.9-3.4 10.4-3.9 15.8 0 .7-.1 1.5-.1 2.2-.1 1-1.5 1.1-1.6 0 0-.5 0-1.1-.1-1.6-.1-3.5-.3-7.1-.9-10.6-.8-3.7-1.6-7.5-3.1-11-4.1 4.8-3.8 11.8-4.5 17.7-.2 2-.5 3.7-.5 5.6 0 1.2.1 2.4 0 3.5-.1.8-.8 1.4-1.5.8-.8-1.1-1.4-2.3-2.4-3.4-1.7-2.2-4.2-3.5-6.4-4.9-3.2-2.1-7-3.3-10.8-3.3-1.1 0-2.2.2-3.3.3-.3.1-.7 0-1 .1s-.7-.2-.7-.6c-.1-1 1.2-1.1 1.9-1.2.8-.1 1.7-.3 2.5-.4 5-.5 9.9 1.5 14 4.3 1.4.9 2.9 1.8 4 3 .8.8 1.5 1.7 2.1 2.6-.1-2.6.3-5.1.6-7.7.3-3.4.3-6.7 1.1-10 .6-2.4 1.4-4.8 2.8-6.8 1.5-2.2 2.8-2.5 3.9.2 1.7 4.5 2.9 9.3 3.4 14 .9-4.5 2.4-9 4.8-12.9.8-1.2 2.3-3.9 3.8-2 1.6 2.5 1.6 9.7 1.8 12.9.3-1.8 1.1-3.5 1.9-5.1.6-1.3 1.3-2.5 2.3-3.5 2.6-2.6 3.4 2.7 3.7 4.4 1.1 7.4 1.3 14.9 1.2 22.3-.2 5-.9 10-1.2 15-.4 4-.3 8.1-1.6 12-1.7 5.4-10.4 6.1-15.2 6.1m40.8-43.1c-2.8-.1-5.7-.7-8.5-1-2.4-.2-4.8.1-7.2-.2-.4-.1-.8-.1-1.1-.3-.4-.3-.4-.9-.1-1.2.2-.3.6-.2.9-.2h3.4c1.4 0 2.7 0 4.1.1 2.6.3 5.1.9 7.7 1 .5-3.7.2-7.3.2-11 .1-2.4.2-5.1 1.9-6.9 2.3-1.8 5.7 8.7 6.3 10.4 0-2.4-.1-4.9.4-7.3.1-.5.1-1.1.5-1.6s1.2-.2 1.2.4c0 1.3-.5 2.6-.5 3.9-.1 3 0 6.1-.2 9.1 0 .6-.2 1.6-1 1.5-.7-.1-.8-1-1-1.5-.6-2.3-1.2-4.5-2.1-6.7-.8-2.2-1.7-4.3-3-6.2-1.8 3-.6 9.7-1 13.5 0 .9-.1 1.8-.2 2.7.2.4.1 1.5-.7 1.5m16.3-4.8c-.5-.4-.4-1.2-.6-1.7-.3-1.4-.6-2.8-1-4.1-.4-1.4-.9-2.9-1.2-4.4-.1-.4-.1-.8.2-1.2s.9-.4 1.1.1c.5 2.4 1.5 4.7 2 7.1l.9-3.3c.3-.8.4-3.7 1.7-3.4.9.4.4 1.5.2 2.2-.3 1-.5 2.1-.8 3.1-.4 1.4-.7 2.8-1.1 4.2-.1.4-.1.9-.5 1.3-.2.3-.7.4-.9.1"/><path d="M176.3 245.4c-3.2 0-6.5 0-9.7-.4-2.3-.2-4.6-.8-6.9-1.2-1.4-.2-2.8-.3-4.2-.5-1.2-.2-2.5-.4-3.7-.6-1.1-.2-.9-2.1.3-2 2.4.5 4.9.8 7.4 1 1.5.2 3 .5 4.6.8 3 .5 6 .7 8.9.7h4.8c2.9-.1 6.9.3 9.5-1.1 1.8-1 3.3-7.4 3.8-9.5 1.2-4.4 1.8-9 2.2-13.5.3-4.4.1-8.9 0-13.3-.2-3.2-.9-6.3-1-9.5 0-.4 0-.8-.1-1.3-.1-.2-.1-.4-.1-.6.1-.3.3-.6.6-.6.2 0 .3.1.5.2.3.4.4.9.5 1.3.2 1.2.3 2.4.4 3.6.6 3.2 1 6.5 1 9.7.5 10.4-.7 21.1-4.2 30.9-.7 1.7-1.3 3.6-3.1 4.4-1.3.7-2.9.9-4.3 1-2.5.5-4.8.5-7.2.5m-58.2-42.8c-.4-.1-.6-.5-.5-.9.2-.7 1.5-.8 2.1-1 1.4-.3 2.8-.5 4.2-.5.7 0 1.5-.1 2.2.2.6.2.5 1.1 0 1.3-.7.3-1.4.1-2.1.2-.7 0-1.4 0-2.1.1-1.3.1-2.5.6-3.8.6m11-2.1c-.6-.5-.1-1.5.6-1.6 1.8-.4 3.7-.3 5.6-.5.7 0 1.4-.2 2 0 .5.2.5.9.2 1.2-.1.1-.3.2-.5.3-2 .4-4.2.1-6.2.4-.3 0-.7.1-1 .1-.3.3-.5.3-.7.1m16.2 1.2-5.4-.3c-.8 0-1.2-.8-.6-1.3.4-.3 1-.1 1.5-.2 1.4 0 2.8-.1 4.2 0 .6 0 1.1.2 1.1.9 0 .4-.3.9-.8.9m24.5-.5c-.4 0-.6-.5-.5-.9.3-1.2 4.1-1.3 5.2-1.5.7 0 1.4-.2 2 .1.5.2.5 1.2 0 1.4-.3.2-.7.2-1.1.2-1.9.1-3.9.1-5.6.7m8.3-2.1c-.3-.4-.1-1.1.4-1.2.3-.1.6-.1.9-.1 1.5-.1 3-.3 4.5-.2.2 0 .3.1.5.1.6.2.6 1.2 0 1.4-.3.1-.5.1-.8.1-1.6 0-3.1 0-4.7.1-.3 0-.6.1-.8-.2"/><path d="M192.5 199.6c-1 0-2-.1-3.1-.1-.5 0-1 .1-1.3-.3-.2-.3-.2-.7 0-1 .2-.2.5-.3.7-.3h1.8c.8 0 1.7-.1 2.5 0s.8 1.5 0 1.7zm-12.8 35.6c-.2-.6-.1-1.2-.2-1.8 0-1.1-.1-2.2 0-3.3.1-.5-.1-1.3.4-1.6.2-.1.4-.1.5.1.2.2.2.6.2.9v.9c.1 1.2.2 2.3.2 3.5 0 .6.2 1.6-.5 1.8-.3 0-.5-.2-.6-.5m3.1-2.9c-.2-.6-.2-1.2-.2-1.9 0-1.3-.1-2.7 0-4 0-.4.1-.8.5-1 .2-.1.5 0 .6.2.3.5.1 1 .2 1.6.1 1.6.4 3.3.2 4.9-.2.7-1.1.9-1.3.2m3.9-4.4c-.1-1.8-.3-3.5-.4-5.2 0-.4 0-.8.3-1s.6-.1.8.1c.3.5.2 1.1.3 1.6.2 1.5.2 2.9.2 4.4.1.9-1.1 1-1.2.1M30.1 242.4c-.9-1.4-1-4.7-.4-6.3.1-.4.5-.8.9-.6.4.1.5.7.2 1-.3 1.7.2 3.4.3 5.1.1.3.1.7-.2.9s-.7.2-.8-.1m4.4.2c-.3-1.1-.3-2.2-.3-3.3s-.1-2.2.3-3.3c.2-.5.8-.6 1.1-.1.2.6.1 1.2.1 1.8 0 1.3.1 2.6.1 3.9v1c-.1.7-1.1.8-1.3 0m5.9 1.3c-.5-1-.7-2-.7-3.1s-.2-2.2.2-3.2c.2-.5.9-.3 1 .2.1.4.1.9.1 1.3.1 1.4.2 2.8.5 4.3.1.6-.7 1.2-1.1.5m4.8.1c-.1-1.1-.2-2.2-.1-3.2.1-.5-.1-1.4.6-1.5.3 0 .5.3.5.6.1 1.3.1 2.6.3 3.9 0 .4-.1.8-.5.8-.5.1-.8-.3-.8-.6m-36.3-5.1c.1-.7.7-1.3 1.1-1.9.5-.7.9-1.5 1.3-2.3 1.6-3.5 2.5-7.2 2.7-11 .2-2.8.1-5.7-.3-8.5-.1-.7-.3-1.3-.7-1.9-1.1-1.7-3.1-2.4-4.7-3.6-2.7-1.9-4.8-4.6-5.7-7.7-1-3.3-1-6.8-.6-10.3.4-3.9 2.2-7.5 5.3-9.9.7-.7 1.8-.9 2 .3.1.9-.1 1.9.3 2.8.4 1.3 1.3 2.6 2.6 3.3.6.4 1.2 0 1.6-.4.8-1 1.3-2.2 1.7-3.4.5-1.7.9-3.4.9-5.2.2-2.6-1.2-5.1-2.9-7-1.5-1.7-3-3.4-4.4-5.2-2.9-3.6-5.3-7.8-6.4-12.4-.7-3-.8-6-.5-9.1.2-.9-.1-3.1 1.3-3 .4.1.7.4 1 .7l1.2 1.2c1.1.9 2.3 1.7 3.6 2.1 2.6.8 2-1.9 1.2-3.3-1-1.7-2.4-3-3.6-4.6-1.3-1.7-2.4-3.6-3.3-5.6-1.9-4.3-3.2-8.9-3.4-13.6-.5-6.1 0-12.3 1.4-18.2 1.1-4.5 3.3-8.7 6.2-12.4 1.9-2.4 3.5-5.1 4.4-8.1 1.1-3.8 2.1-7.8 2.3-11.8.3-4 .3-8-.4-12-.2-1.5-.5-3-.7-4.5-.1-1 .4-2.2 1.6-1.9 1.5.6 2.4 2 3.4 3.2.6.7 1.3 1.6 2.1 2 1.2.5 2.3-.8 2.9-1.7 2.9-4.6 2-10.5 4.2-15.4 1.3-3.2 4.4-5.2 7.3-6.9 3.1-1.8 6.5-3.1 9-5.7 1.8-1.9 3.2-4.1 4.5-6.4 1.4-2.4 2.6-5 2.8-7.8.1-1.6 1.2-2.7 2.6-1.3 1.2 1.1 2.1 2.5 3.1 3.8s1.9 2.8 3.2 3.8c2 1.1 4.6-.5 6.2-1.8 2.6-2.5 3.8-8.8 2.2-12-.8-1.3-.6-3.1 1.3-2.6 2.4.7 4.3 2.4 6 4.2 1.8 2 3.7 3.8 5.2 6 1.8 2.5 3 5.6 5.3 7.8 2.5 2.3 6.2 1.8 8.8 0 1.6-1.1 2.7-2.8 3.3-4.6.5-1.6.7-3.3.8-4.9.1-1.5 0-2.9.1-4.4 0-.5.3-1 .8-1 .2 0 .5 0 .6.2.6.5 1 1.3 1.5 1.9.6 1 1.2 2 1.8 2.9.8 1.3 1.8 2.6 3.1 3.5 5.7 4.4 13.9 3 14.9-5 .1-2.2-.1-4.4.9-6.5.3-.7.6-1.4 1.1-2 .1-.2.3-.3.5-.3.7-.1 1.1.8.8 1.4-.5.9-1 1.8-1.3 2.7-.4 1.1-.3 2.2-.3 3.3 0 1.7-.2 3.5-1 5.1-.8 1.5-1.8 3.1-3.3 4-4.3 2.9-10.1 1.6-13.8-1.7-2.1-1.8-3.3-4.3-4.7-6.6-.1 2.7-.2 5.5-1 8.1-1.1 3.2-3.5 5.8-6.8 6.8-2.3.8-4.9.4-6.9-.9-1.4-1-2.5-2.4-3.4-3.8-1.2-1.9-2.2-3.8-3.5-5.5-1-1.5-2.3-2.7-3.5-4-1.7-1.8-3.4-3.7-5.7-4.8 1.7 4.3.2 12.2-3.9 14.9-1.9 1.3-4.4 2.4-6.6 1.3-1.5-.8-2.4-2.3-3.4-3.6-1.1-1.4-2.1-3-3.4-4.3-.2 2-.8 4-1.7 5.8-1.5 3.1-3.3 6.1-5.5 8.8-2.3 2.8-5.6 4.4-8.8 6-2.6 1.5-5.3 2.9-7.1 5.4-2.7 4.4-1.9 10-3.9 14.7-.9 2.4-3 5.8-6 4.6-2-1.1-3.1-3.4-4.8-4.8.4 3.1 1.1 6.1 1.2 9.3.1 4.7-.1 9.5-1.2 14-.6 2.4-1.1 4.9-2.1 7.2-1.4 3.6-3.9 6.5-6.1 9.6C2.6 99 1.5 107 1.4 114.6c0 4.3.4 8.6 1.8 12.7 1.4 4.6 3.6 8.7 6.9 12.2 1.9 2.1 4.1 6.5.9 8.4-2.5.9-5.8-1.5-7.4-3.2-1.1 7.1 1.2 13.9 5.6 19.4 2 2.7 4.4 5 6.4 7.7 2.1 2.8 2.4 6.4 1.8 9.7-.5 2.7-2.2 9.3-5.9 7.8-2.4-1.2-3.8-3.8-4-6.4-2.6 2.1-4 5.3-4.3 8.6-.4 3-.3 6.1.6 9 .8 2.6 2.5 4.9 4.6 6.5 1.2.9 2.5 1.5 3.7 2.4 2.1 1.4 2.9 3.7 3.1 6.2.3 2.4.3 4.7.1 7.1-.2 3.4-.9 6.7-2.1 9.8-.8 2-1.7 4-3.1 5.6-.2.3-.5.6-.9.6-.1.9-.3.5-.3.2"/><path d="M189.3 243c-.8 0-1-1.3-.3-1.7.8-.3 1.3-.8 2-1.3s1.4-1 2-1.4c1.7-1 3.3-2.1 4.8-3.4 1.2-1 2.6-1.8 3.7-2.8 2.1-1.9 3.6-4.5 4.9-7 1.9-4 2.4-8.4 3.4-12.6.8-3.2 2-6.2 3.2-9.2.9-2.3 1.8-4.5 2.9-6.7 1.3-2.6 2.7-5.3 3.5-8.1 1-3 1.4-6 1.6-9.1.2-3.2.1-6.4-.5-9.5-.5-3-1.9-5.7-2.6-8.7-.9 1.7-1.3 3.6-1.2 5.6.1 1.4.4 2.9-.1 4.3-.8 2.6-4.3 3.1-6.3 1.6-2.9-2-2.2-5.9-1.8-8.9.4-2.1 1-4.1 1.5-6.1.6-2.1 1-4.2 1.3-6.4.6-3.9.6-7.9 1.5-11.8-2.9 3.8-8.4 4.2-11-.1-2-3.7-.2-8.5 1.8-11.8 4.1-6.6 6.5-13.2 6-21.1 0-5-.6-10-1.8-14.8-2.1-7.7-5.6-14.9-8.3-22.3.1 3.9-1.3 10-6.4 8.6-2.8-.8-4.6-3.2-5.2-6-1.1-4.6-.1-9.4-.7-14.1-1.7 2.9-5 5.6-8.1 2.9-2.2-1.8-3.2-4.6-3.3-7.3-.1-1.7.1-3.4.2-5.1.2-2.5.5-5-.3-7.4-.7-2.1-1.7-3.9-2.8-5.7-2-3.2-4.2-6.4-7.2-8.6 1.9 4 3.1 8.5 2.6 12.9-.2 2.4-1.7 6-4.7 5.4-2.6-.8-3.9-3.6-4.6-6.1-.5-2-.7-4.1-1.1-6.1-.9-4-2.8-9.3-5.3-12.5-2.5-2.7-6.3-3.5-9.7-4.5-4-1.1-8.3-1.9-11.9-4-3.2-2.2-4.7-6-5.6-9.6-.6-2.6 1.7-2.3 1.2-1.1.3 1.6 1.1 3.2 1.7 4.7.8 1.7 1.9 3.3 3.5 4.3 3 1.7 6.5 2.4 9.7 3.3 3.6 1 7.5 1.8 10.6 4 3.4 2.6 4.9 7 6.3 10.9 1 2.9 1.4 5.9 1.9 8.9.5 2.3 1.3 5.1 3.7 6h.6c.1 0 .2-.1.2-.1 1.1-.6 1.4-2 1.7-3.2.5-3.1-.1-6.2-1-9.2-.2-.7-.5-1.4-.8-2-.4-1.1-1.4-2-1.1-3.3.1-.5.6-1 1.2-1 .4 0 .8.2 1.2.4 1.3.8 2.3 1.9 3.4 2.9 1.5 1.5 2.7 3.4 3.9 5.2s2.3 3.6 3.2 5.6c1.8 3.7 1.5 6.7 1.1 10.6-.1 2.9-.5 6 1.1 8.5.8 1.3 2.3 2.7 3.9 2.3 1.8-.6 3-2.3 3.7-3.9.6-1.1 1.7-1.2 2.2.1.4 1.1.5 2.3.5 3.5.1 3-.1 6 .1 8.9.2 2.5.7 5.3 2.9 6.8 3.2 2 5.2 0 5.8-3.2.2-1.4.3-2.7.2-4.1 0-.7-.1-1.5-.2-2.2 0-.4.1-.7.3-1 .3-.3.9-.3 1.2 0 1.2 1.8 1.9 4 2.7 6.1.7 2 1.6 3.9 2.4 5.8 2.3 5.8 4.8 11.6 6 17.8.9 4.5 1.1 9 1.1 13.5.1 4.1-.7 8.1-2.1 11.9-.7 1.9-1.5 3.6-2.4 5.4-1.3 2.4-2.9 4.6-3.8 7.2-.6 2-1 4.3.2 6.1 2.1 3.2 6.3 2.4 8.4-.4 1.2-1.4 1.9-3.1 2.8-4.7.3-.5 1.1-.4 1.3.1.3.5.1 1-.1 1.5-1.1 3.5-1.8 7-2 10.7-.4 4.2-1 8.3-2 12.4-.7 3-3.3 10.3-.7 12.6 1.1 1 3 1.2 3.9.1.6-.8.4-1.8.4-2.6-.1-1.5-.2-3.1.1-4.5.3-1.6 1-3 1.8-4.5.2-.4.3-.7.5-1.1.2-.3.3-.7.7-.8.4-.2.9.2 1 .6.1.6 0 1.2 0 1.9.1 1.6.8 3.2 1.3 4.7.6 1.8 1.2 3.6 1.5 5.4.6 4.1.6 8.3.3 12.4-.3 3.5-1.3 6.8-2.6 10-.9 2.2-2 4.2-3 6.3-.9 2.1-1.8 4.2-2.6 6.3-.7 1.9-1.5 3.7-2.1 5.6-.7 2.2-1.1 4.5-1.6 6.8-.6 3.3-1.5 6.6-3 9.5-1.1 2.1-2.4 4.2-4 5.9-1.3 1.4-2.9 2.4-4.5 3.6-1.5 1.3-3.3 2.5-5 3.5-.8.5-1.6 1.1-2.4 1.7-1 .5-1.6 1.1-2.5 1.1M38.9 214.3c-1-.8-1.7-2.1-2.5-3.2-.9-1.4-1.8-2.7-2.8-4-.5-.7-.9-1.3-1.4-2-.4-.7-1-1.4-1.1-2.3-.2-3.4 6.1-6 8.7-7.1.9-.3 2.7-1.7 3.2-.2.2.9-.5 1.3-1.2 1.5-1 .4-1.9.8-2.9 1.2-2 1-4.2 2-5.8 3.7-.2.3-.5.6-.3.9.3.6.7 1.2 1 1.7 1.4 2.1 2.8 4.1 4.2 6.1.6.9 1.2 1.8 1.9 2.6.5.8-.3 1.6-1 1.1m3.6-20.9c-.6-.2-1.1-.7-1.6-1.1-1.9-1.7-3.3-3.7-4.5-5.9-.8-1.4-1.8-2.7-2.3-4.2-.6-1.4-.5-3 .4-4.2 2.4-3 7.8-3.1 11.2-4.6-.8-2.4-2.3-4.6-3.6-6.8-1.1-1.8-2.7-3.4-2.9-5.6 0-3.9 9.5-5.2 12.5-5.9.8-.2 1.6-.3 1.7.7.1.5-.2 1-.7 1.1l-3.3.6c-2.5.6-6.6 1.3-8.5 3.1-.8.8 1.7 3.7 2.1 4.6 1.3 2.1 2.7 4.2 3.7 6.5.7 1.7 1.2 2.8-1 3.5-2.4 1.3-10.4 2-10.5 5.1.2 1.6 1.3 2.9 2.1 4.3.7 1.2 1.4 2.4 2.2 3.6.9 1.3 2.1 2.4 3.3 3.5.3.3.6.8.4 1.3-.1.4-.4.5-.7.4"/></svg>