<svg xmlns="http://www.w3.org/2000/svg" xml:space="preserve" x="0px" y="0px" viewBox="0 0 2336 640.3"><path d="m883.2 378.7-22.5-39h-32.8v39h-19.3V261.5h58.3c7.1-.1 14.1 1.9 20.2 5.5 6.1 3.7 11.1 8.9 14.4 15.2 3.4 6.3 4.8 13.4 4.4 20.5s-2.7 14-6.8 19.9c-4.2 6.2-10.1 11.1-17.1 14l23.9 42h-22.7zm-16.4-97.3H828v38.9h38.9c2.6 0 5.1-.5 7.4-1.6 2.3-1 4.4-2.5 6.2-4.4 2.7-2.7 4.5-6.2 5.2-10 .7-3.7.3-7.6-1.1-11.2-1.5-3.5-3.9-6.6-7.1-8.7-3.2-2.2-6.9-3.4-10.7-3.4zm207.1-19.9-58.4 117.2h21.7l36.7-73.4 36.6 73.4h21.7zm245.9 0h-24.7l-33.2 43.2-33.1-43.2H1204l48.7 62.5v54.7h19.3v-55.6zm99.1 0h38.8c15.4.1 30.2 6.3 41 17.3 10.9 10.9 17.1 25.8 17.2 41.3-.1 15.5-6.2 30.3-17.2 41.3-10.9 11-25.7 17.2-41.1 17.2h-38.8zm38.8 97.3c10.3 0 20.1-4.1 27.4-11.5 7.3-7.3 11.4-17.2 11.4-27.5-.2-10.3-4.2-20.2-11.5-27.5s-17.1-11.5-27.3-11.5h-19.6v78zm187.6-97.3H1626v117.2h19.3zm207 68.3c.1 6.5-1.1 12.9-3.6 18.8-2.4 5.9-6.1 11.3-10.8 15.8-6.8 6.9-15.4 11.5-24.9 13.3-9.4 1.9-19.2.9-28.1-2.8s-16.5-10-21.8-18-8.1-17.5-8.1-27.1v-68.2h19.3v68.2c0 7.8 3 15.2 8.6 20.7 5.5 5.5 12.9 8.6 20.6 8.6s15.1-3.1 20.6-8.6 8.5-12.9 8.5-20.7v-68.2h19.5zm129.2 48.9v-70l39 39.1 38.8-39.1v70h19.7V261.5l-58.5 58.6-58.3-58.6v117.2z" style="fill-rule:evenodd;clip-rule:evenodd;fill:#193650"/><linearGradient id="a" x1="458.0841" x2="1.1533" y1="-573.6735" y2="-391.9205" gradientTransform="translate(242.34 803.04)" gradientUnits="userSpaceOnUse"><stop offset="0" style="stop-color:#c200fb"/><stop offset="0.4897" style="stop-color:#3772ff"/><stop offset="0.4898" style="stop-color:#3773fe"/><stop offset="1" style="stop-color:#5ac4be"/></linearGradient><path d="M664.8 257.9V432L472.1 543.9 279.3 432V208.3l192.9-112 148.1 86 22.4-12.9-170.5-99L257 195.3V445l215.2 124.9L687.4 445V244.9z" style="fill:url(#a)"/><linearGradient id="b" x1="449.367" x2="-7.5628" y1="-595.5868" y2="-413.8328" gradientTransform="translate(242.34 803.04)" gradientUnits="userSpaceOnUse"><stop offset="0" style="stop-color:#c200fb"/><stop offset="0.4897" style="stop-color:#3772ff"/><stop offset="0.4898" style="stop-color:#3773fe"/><stop offset="1" style="stop-color:#5ac4be"/></linearGradient><path d="M418.2 432.2H386V323.5h107.5c10.1-.1 19.9-4.2 27.1-11.5s11.2-17.1 11.2-27.3c.1-5.1-.9-10.1-2.9-14.7-1.9-4.7-4.8-8.9-8.4-12.4-3.5-3.6-7.7-6.5-12.3-8.4s-9.6-3-14.7-2.9H386v-33.1h107.6c18.8.1 36.9 7.7 50.2 21.1s20.8 31.5 21 50.5c.1 14.5-4.3 28.6-12.6 40.5-7.6 11.3-18.4 20.2-31 25.5-12.5 4-25.4 5.9-38.5 5.8h-64.5z" style="fill:url(#b)"/><linearGradient id="c" x1="494.8715" x2="37.9418" y1="-481.1839" y2="-299.4308" gradientTransform="translate(242.34 803.04)" gradientUnits="userSpaceOnUse"><stop offset="0" style="stop-color:#c200fb"/><stop offset="0.4897" style="stop-color:#3772ff"/><stop offset="0.4898" style="stop-color:#3773fe"/><stop offset="1" style="stop-color:#5ac4be"/></linearGradient><path d="M563.9 429.5h-37.6l-29-50.9c11.5-.7 22.8-3 33.6-6.9z" style="fill:url(#c)"/><linearGradient id="d" x1="445.8823" x2="-11.0464" y1="-604.1683" y2="-422.4153" gradientTransform="translate(242.34 803.04)" gradientUnits="userSpaceOnUse"><stop offset="0" style="stop-color:#c200fb"/><stop offset="0.4897" style="stop-color:#3772ff"/><stop offset="0.4898" style="stop-color:#3773fe"/><stop offset="1" style="stop-color:#5ac4be"/></linearGradient><path d="m642.4 221.7 22.2 12.4 22.2-12.4v-26.3l-22.2-12.9-22.2 12.9z" style="fill:url(#d)"/></svg>