<svg xmlns="http://www.w3.org/2000/svg" xml:space="preserve" id="Calque_1" x="0px" y="0px" version="1.1" viewBox="0 0 687.9 580.4"><style>.st0{fill:#8664c2}</style><path d="M416.7 242.5c2.2 0 4.5.4 4 3.2-.7 6.3-.4 12.6-.5 18.9 0 5.7 0 11.4-.2 17.1 0 1.7-1 3-2.8 2.9-1.8.1-3.7.1-5.5.1-1.6-.1-4.2.4-4.5-1.7.3-6.3.5-12.6.4-18.9.1-5 .1-10 .1-14.9 0-1.3 0-2.6.1-3.9.1-.7 0-1.5.5-2 .6-.6 1.6-.5 2.4-.6 2-.2 4-.2 6-.2m19.1 10c.7 1 .4 2.3.3 3.4-.2 3.7-.3 7.4-.6 11.2 0 1.4-.4 2.7-.5 4.1 0 .8-.3 1.8-1.1 2.2-2 .3-4.1.2-6.1.2-4.1.1-4.7-.2-4.2-4.3.1-2.4.1-4.8-.1-7.2.1-1.7-1.3-11.1 1.8-10.1 1.2-.5 2.6-.3 3.9-.4 1.9 0 5.4-.7 6.6.9m120.7-70.9c0 1.5.5 3 .5 4.5-.2 2-2.9 1.8-4.3 2-.4 0-.7.1-1.1.1-1.5.1-2.6.2-4 .4-.7.1-1.5.2-2.1-.3-1.4-1.5-.8-3.9-1-5.8 0-3.1 0-6.3.1-9.4v-3.8c-.2-.8.1-2.3 1.2-1.8 2.2-.2 4.4-.1 6.6-.3 1.2-.1 3-.4 3.5 1.1.4 1.6.3 3.2.3 4.9.1 2.8.1 5.8.3 8.4m11.5-2.8c0 3.5-.2 7-.2 10.4-.2 2.3.9 6.8-2.7 6.5-2-.1-4-.1-5.9-.5-.8-.2-1.3-.8-1.4-1.6-.1-2.5.7-5 .7-7.6.1-1.9.2-3.8.1-5.7-.1-1.1-.3-3.4 1.4-3.1 1.6-.2 3.3-.2 4.9-.2 1.4 0 3 .3 3.1 1.8m14.7 2.7c.3 2-1.1 2.8-2.8 3.3-1.2.4-2.4.7-3.6 1-1.1.2-2.4.7-3.4 0-1.3-1.1-.9-3.1-1-4.6-.1-2.6 0-5.2 0-7.8.2-7.3.2-14.7.3-22-.5-1.4.7-2.3 2-2.4 1-.2 2.2-.4 3.1-.7 2.3-.8 3.8-1 4 2 .3 2.6.2 5.3.3 7.8.5 5.2.8 10.4.8 15.6q.15 3.75.3 7.8m12.8-13.7c.5 3.8-2.8 3.4-5.4 4.2-1.4.3-2.6.9-4 .7-2-.7-1.1-3.8-1.2-5.5v-7.4c0-5.2 0-10.4.1-15.5v-6.2c.1-1-.3-2.5.9-2.9-.2-2.2 2.6-2 4-2.1 2.4-.3 4.3-1.2 4.6 2.1.6 3.4.9 6.8 1 10.3.2 7.4-.6 14.8 0 22.3m15.5-3.9c-.1 1.8.9 4.7-1.1 5.7-2.1.6-4.3.5-6.4.9-1.6.3-3.2.6-3.6-1.4-.3-4.7 0-9.4-.1-14.1 0-2.2 0-4.5-.1-6.7-.1-.5-.1-1.2.4-1.5.9-1.5 3.7-1.3 5.2-1.4 2.8 0 5-.2 5.3 3.3.7 5.1.1 10.2.4 15.2m13.9-10c.3 2.3-.6 3.3-2.9 3.3-1.8.1-3.7.3-5.5 0-1.8-.4-1.7-2.5-1.8-4-.1-2.5 0-5.1 0-7.6 0-2.7.1-5.3.2-8 0-.5 0-.9.2-1.4.5-1.4 2.2-1.3 3.4-1.5 1.4-.1 2.7-.5 4.1-.7 1.6-.1 2 1.7 2 2.8.2 2.4.1 4.8.1 7.2 0 3.4 0 6.6.2 9.9m13.5-8.2c.2 1 .1 2.2-.8 2.9-.5.5-1.2.6-1.9.8-1.8.4-3.7.7-5.6.6-1.6-.1-2.1-1.5-2.1-2.9 0-1.7 0-3.4-.1-5.1-.2-5 0-10.1-.2-15.1-.2-4-.1-7.9-.1-11.9v-4c0-.9 1-1.6 1.7-.9 1.3-.5 2.7-.4 4-.3 1-.1 2.1.4 2.5 1.4.9 3.5.8 7.2 1.1 10.8s.9 7.2 1 10.9c.1 3 0 6 .2 9 0 1.3.1 2.6.3 3.8M653.1 97c.2 7.8-.1 15.5-.3 23.3-.2 7.2-.1 14.5 0 21.7-.3 2.6-3.9 2.4-5.8 2.9-.9.2-1.9.3-2.8.5-.8.1-1.7.2-2.3-.4s-.7-1.5-.7-2.3v-2.8c0-2.4.1-4.7.2-7.1.2-9.9-.2-19.8.6-29.6.2-3.8.2-7.7.2-11.5-.1-1.2.1-2.5-.2-3.7-.3-2.7 3.5-2.1 5.3-2.4 1.3-.1 2.5-.2 3.8-.3.9 0 1.7.7 1.9 1.7.2 3.2 0 6.6.1 10" class="st0"/><path d="M686.8 50.1c1.4 19.5 1.6 39 .1 58.5-.7 16.3-1.2 32.7-1.9 49-2.2 26.7-.5 53.6-2.1 80.4-1.3 22.2-.8 44.3-.9 66.5 0 .9.1 1.8.1 2.7.7.1 1.2.8 1.3 1.4.2 2.5-2.9 2.1-4.6 2.3-3 .2-5.9.4-8.9.4-9 0-17.9.1-26.9.1-9.7 0-19.4-.1-29.1.4-20.1 1.4-40.3 1.2-60.4.9-7.4-.1-14.8-1-22.3-1.2-17.2-.3-34.4.1-51.6.3-5 .2-10 .5-15 .6-6.7.3-13.4 0-20 .4-.6.1-1.4.3-1.8-.1-1.9 3.3-3.8 6.7-6 9.7-3.1 4.1-6.2 8.3-9.1 12.5-1.4 1.9-2.7 3.8-4 5.8l.1.1c1.3 1.5 2.4 3.1 3.5 4.7 2.4 3.3 4.1 6.8-.8 8.7-3.5 1.8-7.4 2.2-11.3 3.1 1 2 1.9 4 2.8 6.1.7 1.6 1.9 3.7.4 5.3-1.5 1.7-11.3 2.3-14.6 2.2-.3.4-.5.8-.8 1.2-3.6 5.5-6.4 11.6-11 16.4-1.7 1.8-3.8 4.5-6.5 3.4-3.2-1.5-6.1-3.7-8.8-6-1.7-1.5-3.3-3.1-4.5-5.1-.9-1.4-1.7-2.9-2.6-4.4-1.5-1-.3-2.9.7-3.9.8-1.4 1.6-2.7 2.4-4.1-.6-.1-1.2-.1-1.8-.2q-8.55-1.2-17.1-2.1c-4.3-.5-8.5-1.5-12.8-2.3-5.9-1.1-11.9-1.9-17.5-4.1.3.4.5.9.8 1.3 4 5.7 7.1 12 10.3 18.2 2.6 4.7 4.6 9.8 6.3 14.8.1-.2.3-.3.5-.4 1-.2 1.8.7 2.6 1 4.4 1.8 9 3 13.3 5 10.7 4 19 14.1 23.7 24.2 3.2 7.6 3.7 16 3.8 24.2.1 7.4-.6 14.8-2 21.9-1.3 8-3.8 15.9-7.4 23.2-1.5 3.4-3.4 6.6-5.6 9.6 3.6.9 7.4 1.5 10.8 2.4 2.8.7 5.5 1.7 8.3 2.4 5.9 1.5 11.8 2.5 17.3 5.1 3.9 2 7.7 4 11.5 6.1 1.2.7 2.6 1.4 3.5 2.5 1 1.2.6 3.2-.9 3.8-2.2.8-4.7.3-7 .2-3.3-.3-6.7-.6-10-.8 3.4 1.4 6.6 3.1 9.7 5.1 1.4 1 3.2 2.2 2.9 4.1-.3 2.3-2.8 2.8-4.7 3-2.5.3-4.9.2-7.4 0-5.1-.3-10.2-.5-15.2-1.3 4 2.3 8.4 4.3 11.5 7.9 1.2 1.4 1.1 3.5-.4 4.6-1.9 1.4-4.4 1.4-6.7 1.4-4.9-.3-9.6-1.7-14.4-2.4-5.6-1.1-11.3-1.5-16.9-2.6-3.4-.8-6.9-1-10.4-1.4-3.2-.6-6.7-1.6-9.5-2.9-3.2-1.5-6.4-3.1-9.6-4.4-3.1-1.3-6-3.2-9.2-4.1-7-2-16.2 0-20.9-6.7-1.2-1.9-1.2-4.3-1.4-6.5v-.6c-.2.1-.4.1-.6.2-6.4 1.7-13.1 1.5-19.5 3-2 .6-4 1.4-6 2.1-4.3 1.4-8.9 1.8-13.4 1.8-6.9-.2-13.7-.8-20.4-2.1-1-.3-2.5-.3-3.6-.7-1.2 2.4-2.6 4.7-4 6.9 2.5.5 5.1.5 7.6.7 3.5.2 7 .4 10.5.9 6.9 1 13.6 2.7 20.3 4.3 4.7 1.2 8.7 2.9 12.9 5.1 3.1 1.6 5.9 3.6 8.5 6q.75.6 1.2 1.5c1.1 2-.3 4-2.4 4.3-2.6.6-5.3.4-7.9.3-2.3-.1-4.6.1-6.9.1 2.8 1.5 9.2 4.9 10.3 7.9.6 2-1 3.5-2.8 4-7.7 2.1-15.7 2.2-23.6 2.1-2.7-.1-5.4-.1-8.2-.1-3.8 0-7.6 0-11.4-.3 5 2.7 10 5.7 14.6 8.9 1.6 1 2 3.5.3 4.6-.9.6-2.1.7-3.2.9-2.2.3-4.4.4-6.6.4h-1.3c-1.7 0-3.5 0-5.2-.1-5.1-.2-10.1-1.6-15.1-2.7-3.5-.8-7.1-1.2-10.6-2.1-3.9-1.1-7.8-2.3-11.8-2.8-4.1-.6-8.1-.9-12.2-1.1-2.7-.1-5.4-.2-8-.6-4.2-.7-7.9-2.8-11.9-3.9-3-.9-6-1.8-9-2.9-3.5-1.2-7.1-1.9-10.6-3-2.1-.6-4.1-1.4-6.2-2-3.3-.8-6.5-1.5-9.7-2.6-2.4-.8-5-1.8-6.2-4.2-2.8-5.1 1.2-10.2 3.3-14.7.8-1.7 1.4-3.5 2-5.1-3 .6-6 .9-9 1.3-4.6.5-9.2.3-13.7.3-9.9 0-20.1.1-29.9-1.3-2.2-.2-4.3-.2-6.4-.2h-4.3c-5-.3-9.6-.8-14.5-1.2-4.6-.5-9.2-1.8-13.8-2.2-2.4-.2-4.7-.4-7.1-.7-8.2-.9-16.5-.7-24.6-1.9-2.9-.5-6-1.1-8.4-3-3.3-2.5-2.8-6.9-.1-9.6 3.6-3.5 8.6-5 13.2-7 4.1-1.9 7.8-4.2 11.6-6.5 3.9-2.4 8-4.4 11.8-7 3.6-2.4 7.3-4.7 10.6-7.6 2.7-2.5 5.1-5.4 7.6-8.3 2.9-3.4 5.5-6.9 8.6-10.2 3.4-3.5 7-6.9 10.5-10l.1-.1c.8-.7 1.6-1.4 2.4-2.2-.3-.4-.4-.9-.5-1.4-.6-2.1-1.1-4.3-1.7-6.5-1.8-5.8-3.6-11.7-4.6-17.7-.3-2.1-.9-4.3-.6-6.4 1.1-6.5 14-6.1 19.1-6.8 4.2-.2 8.4.2 12.5.3.5 0 1 0 1.4.2 1.7-2.7 3.4-5.4 5-8.2-.7-1-1.2-2.1-1.8-3.1-2.5-4.6-5.6-8.8-8.2-13.3-2.3-3.8-4.1-8-5.1-12.4-1.8-5.9 4.1-9.1 9-10 3.3-.7 6.7-.9 9.9-1.2 3.1-.3 6.1-1 9.1-1.6.9-.1 1.7-.5 2.6-.5.5-1.3 1-2.7 1.4-4.1.7-2.2 1.2-4.5 1.9-6.7-.1-.1-.3-.2-.4-.3-4.8-3.5-8.7-8.3-12.6-12.7-2.4-3.1-5.9-6.1-6.3-10.2-.1-2.6 1.5-5 3.7-6.5 2.1-1.5 5-2.5 7.4-3.2 4.5-1.1 9.1-1.8 13.7-2.6.5 0 1 .4 1.2.8 0-.5.1-1 .1-1.5 0-.2 0-.4.1-.5 0-.2 0-.5.1-.7 0-.4.1-.7.1-1.1v-.2c0-.2.1-.5.1-.7s.1-.5.1-.7.1-.5.1-.7.1-.5.1-.7.1-.5.1-.7.1-.4.1-.7c.1-.4.1-.7.2-1.1 0-.1.1-.3.1-.4 0-.2.1-.4.1-.6-.1-1.3.1-2.7.3-4-.4-.1-.8-.1-1.2-.2-.2 0-.5-.1-.7-.1s-.4-.1-.6-.1c-.3 0-.5-.1-.8-.1-.4-.1-.8-.1-1.2-.2l-1.5-.3c-.4-.1-.9-.2-1.3-.2-.2 0-.3-.1-.5-.1-.3-.1-.7-.1-1-.2-.5-.1-.9-.2-1.4-.3s-.9-.2-1.4-.3c-.3-.1-.6-.1-1-.2-.3-.1-.7-.1-1-.2-2-.4-4.1-.9-6.1-1.3-.5-.1-1-.2-1.6-.3-5.5-1.2-10.9-2.5-16.3-3.8-.5-.1-1-.2-1.5-.4-.7-.2-1.3-.3-2-.5-.3-.1-.7-.2-1-.2-2-.5-4-.9-6-1.4-2.1-.5-4.3-1-6.4-1.5-4.2-1-8.1-2.8-12.1-4.3-6-2.2-12.2-4.3-17.5-8-5.3-3.8-10.7-7.4-16.1-11.1-6.7-4.7-12.6-10.6-16.3-18-1.9-3.7-4-7.3-5.6-11.2-2.4-5.9-3.7-12.2-4-18.5-.2-4.3.7-8.5 1.5-12.6 1.9-9.3 4.3-18.6 8.8-27 2.5-4.7 5.1-9.7 9.2-13.2 2.6-2.1 5.6-3.7 8.1-5.9 1.5-1.4 2.9-2.8 4.1-4.2.3-.4.7-.8 1.1-1.2-1-6.7-1.5-13.4-2.2-20.2-.6-10.3-.8-20.6 0-30.8.5-5.3 1.9-10.5 2.8-15.8 1.1-5.7 3-11.2 5-16.7 1.4-4.1 3.4-8 5.4-12 1.3-2.7 2.8-5.2 4.6-7.5 3.7-4.7 8.3-8.5 12.5-12.8 2.1-2.2 4.3-4.4 6.8-6.1 2.4-1.8 5.1-3.2 7.8-4.6 3.9-2.1 7.6-4.7 11.9-5.9 2.8-.8 5.6-1.4 8.4-2 2.3-.4 4.7-.8 7.1-.5 4.4.8 8.8 1.7 13.2 2.4s8.6 2.5 12.7 4.2c2.7 1.1 5.4 2.3 7.9 3.9 3.1 2.2 5.8 4.7 8.4 7.5 4-1.9 8-4.1 12.3-5.2 3-.7 6-1.4 9-2 3-.5 6-.7 9-.8 3.2-.1 6.4.3 9.6.7 0-1 .3-2 .4-2.9.7-2.8 1.4-5.6 2.4-8.4 1.5-4.2 3.7-8.3 6.9-11.5 3.7-3.6 7.7-7.2 12.4-9.5 6-2.8 13.1-3.4 19.6-3.1 3.8.3 7.6.8 11.2 1.7 3.7.9 6.7 2.5 10.1 4.1 3.9 1.7 7.9 3.2 11.6 5.4 3.5 2.4 7.1 5 10 8.2 1.9 2 3.3 4.4 4.9 6.7.4.7 1.1 1.4 1.4 2.2 3.8-.3 7.7-.3 11 1.9 1.7 1 7 5 8.1 8 3.3.5 6.4 1.8 9.6 4.3 2.6 2 4.9 4.4 6.3 7.3.5 1.3 1.7 3.6 1 4.9 6.5 4 11.4 15.4 9.8 23 .3.1.6.3.8.7.5.9.8 1.9 1 2.8 1.2-1 2.4-1.8 3.5-2.8 1.7-1.3 3.5-2.6 5.3-3.8 5.1-3.7 10.8-6.5 16.7-8.7 5.7-2.2 11.6-4.4 17.6-5.8 1.2-.3 2.5-.4 3.8-.4-.1-.4-.1-.8-.2-1.1-.1-1-.1-1.9-.1-2.9.1-4 .7-8 1-12.1.4-3.7.5-7.5.8-11.2.2-3.5 2.6-3.2 5.4-3.1 4.7.2 9.3.6 14 .9 6.2.4 12.4.4 18.6.3 3.1 0 6.1-.2 9.1-.4 6.1-.4 12.3-.2 18.5-.1 9.2.2 18.4-.4 27.6-.4h12.3c5.2.1 10.5.1 15.7 0 9.3-.1 18.6-.1 28-.1 15.8-.6 31.6-.6 47.4-.7 9.6.1 19.2-.1 28.7.5 9.4.6 18.8.7 28.1 1.2 9.4.3 18.7.8 28 2 6.8 1 13.7 1.7 20.5 2.4.8.1 1.2 1 1.2 1.7 0 .3-.1.7-.3 1 1.7 0 1.1 3.7 1.3 4.9.2 2.4.4 5 .6 7.5m-1.6 37.5c.2-12.5-.3-25-1.1-37.4-.2-3.2-.4-6.3-.4-9.5 0-.7-.1-1.7.3-2.4h-.1c-2.8-.1-5.5-.5-8.3-.8-6.8-.8-14-2-20.7-2.5-15.5-1.3-31.1-1.3-46.7-2.3-19-1-38-.4-57-.4-6.3 0-12.6.3-18.9.5-12.5 0-25.1 0-37.6.1-9.3-.2-18.6-.3-27.9 0-12.3.6-24.6.1-36.9.6-9.1.7-18.3.7-27.4.3-5.9-.2-11.8-1.1-17.7-1.2-.5 2.8-.4 5.4-.6 8.1-.3 4.8-.9 9.5-1.3 14.3-.1 1.2-.1 2.4-.2 3.6 0 .4 0 .8-.2 1.2 2.2.1 4.4.5 6.6 1 5 1 10 2.6 14.1 5.6 4.4 3.1 7.6 7.5 10.7 11.9 2.4 3.5 4.6 7.1 6.6 10.9 1 1.9 2 3.7 2.9 5.6 2.7 5.6 4.1 11.8 5.2 17.9 1.1 7.3 1.9 15.1-.3 22.3-2.6 7.1-10.1 10-16.6 12.5-.8.3-1.5.6-2.3.9.4.4.6 1.1.5 1.6-.3 1.6-.7 3.2-1.1 4.8s-.7 3.1-1.1 4.6c-1.3 5.5-3.3 10.9-7.2 15.1-4.6 5.1-8.4 4.6-13.8 2.5v.3c.2 7.2 0 14.4.1 21.6v3.6c4.4.4 8.6 2.4 11.3 5.9 3.4 4.7 4.7 10.9 4 16.7-1 6.3-3.1 12.5-6.4 18-2.5 4.2-5.9 7.9-9.1 11.6-.9 1-1.7 2-2.5 3.1 0 .1.1.3.1.4-.5 11.4-.1 22.9-.2 34.3 0 5.5-.2 11 .4 16.5 5.4.1 10.9-.2 16.3-.1 2.1 0 4.2-.2 6.3-.3h1c.5-.3 1.1-.3 1.6-.3q1.5-.15 3 0c4.6-7.8 8.9-15.8 14.5-23 3.3-4.2 7-8.1 9.9-12.7 1.4-2.2 2.7-4.5 4-6.8-.1 0-.1-.1-.2-.2-.4-.7-.2-1.6-.2-2.3.1-2.4.2-4.8.2-7.3 0-4.6 0-9.2-.1-13.9 0-2.9 0-5.8.2-8.5.2-1.2-.1-2.6.4-3.7.6-1.1 2-.8 3-.7s1.9.3 2.9.4c.8.2 1.8.2 2.5.8 1 1 .6 2.6.7 3.9v3.6c-.1 4.4.2 8.8.1 13.2 2.1-2.6 4.2-5.1 6.2-7.8.1-.1.1-.2.2-.3-.9-1.3-.6-3.1-.8-4.5-.1-3.6-.1-7.2-.1-10.8 0-3.3 0-6.6-.3-9.9-.2-2.3-.7-4.5-.7-6.8.1-2.6-.2-5.6 3.3-5.7 1.6-.2 3.3-.3 4.9-.3 1.2-.2 2.1.6 2.2 1.8.2 6.7-.1 13.3 0 20v2.6c.1-.1.2-.3.3-.4 1.6-2.4 3.2-4.7 4.9-7-.2-.9 0-2.1-.1-2.8 0-3.6-.4-7.3.5-10.8.7-1.7 2.8-.7 4.2-1 1.3-.1 2.5-.5 3.8-.5.8 0 1.3.8 1.3 1.5.1.1.1.1.1.2.9-1.2 1.7-2.4 2.6-3.7 3.8-6.1 7.1-12.4 11.4-18.1 3.6-4.6 7.5-8.9 10.6-13.8 2.8-4.6 5.3-9.4 8.2-14-2.3-.7-4.4-2.3-6.4-3.6-3.3 4.3-7.2 8.1-10.2 12.6-1.6 2.6-3 5.4-4.9 8-3.2 4.2-7.1 7.8-9.8 12.4-6.9 12-7.9 12-18.9 3.5-1.3-.8-3.2-2.8-4.7-1.7-2.8 2.6-4.5 5.8-6.2 9.1-5 9.7-11.8 18.3-17.7 27.4-1.1 1.7-2.8 4.3-5 2.6-3.4-2.3-6.4-5.4-9-8.7-3.2 1.8-6 4.4-8.4 7.2-1.5 1.2-3.2 5.5-5.5 4.4-2-2.2 1.5-4.5 2.5-6.4 2.8-3.8 6.5-7 10.6-9.4 2.2-1.3 3.6 1.3 4.8 2.7 2 2.2 4 4.2 6.3 5.9 5.2-6.9 9.9-14.2 14.8-21.3 2.8-4.4 4.6-9.4 7.8-13.6 6.6-11.6 12.6 1.4 20.4 3.4 2.3-2.2 3.5-5.3 5.3-7.8 2.4-4.1 5.8-7.6 8.9-11.2 2.8-3.2 4.4-7.2 6.9-10.7 3.2-4.1 6.7-8 9.9-12 3.4-2.6 6.3 3.6 10.7 3.6 1.9-3 4.5-1.9 7.2-.2 1.2.8 2.3 1.7 3.3 2.6 1.4-2.3 4.8-4.9 5.5-6.7 10.7-16.9 6.1-11.4 25.2-.4 3.7-4.5 6-9.8 8.9-14.8 2.5-4.6 6.2-8.4 8.9-12.8 2.3-2.5 3.1-9.6 7.6-8.4 8.6 3.6 15 11 23.6 14.5 3.1-5.8 7.1-10.9 11.1-16.1C621.9 103 628.9 94 634.3 84c3.9-9.3 11.5-16.5 15.2-25.9-2.2.3-6.9 2.8-8.4 1.9-1.1-.9-1.1-2.9.2-3.6 3.1-1.1 6.3-1.8 9.2-3.2.5-.8 1.6-1.4 2.4-1 2.2-.5 2.7 2.5 1.6 3.9.2 3.4 1.6 6.7 1.1 10.1-.3 1.9-3 2.2-3.6.3-.5-1.2-.5-2.6-.7-3.9-2.8 5.9-6.8 11.1-10.5 16.5-2.7 4.1-4.3 8.9-7 13-5.1 7.2-9.7 14.8-13.7 22.7-3.3 5.3-7.8 9.9-10.5 15.6-2.6 6.2-6.8 2.5-11 .4-6.1-3.5-11.1-8.6-17.6-11.6-3 5.7-6.8 10.9-10.7 16.1-3.3 5.1-5.6 10.8-9.1 15.8-1.4 2.3-3.8 6.1-6.7 3.4-5-3.1-9.7-6.5-14.6-9.8-2.8 3.7-4.6 7.6-7.6 11-.8.7-2.5 3.1-4.1 4.5l2.7 3c.2-.3.6-.5 1-.5 2.3-.1 4.6-.1 6.9-.2 3.3-.3 3.4 1.8 3 4.4-.4 5 .1 9.9 0 14.9 0 3.6-.6 7-.7 10.4.2 1.8-1 2.6-2.7 2.5-1.6.1-3.3.1-4.9 0-1 0-2-.2-3-.3-1.9-.1-2.3-1.5-1.9-3.1.3-2.1.4-4 .4-6-2.4 4-4.6 8.1-7.3 11.9v.1c.1.7 0 1.4 0 2.2q-.15 4.05.3 8.1c.1 1.1.3 2.2.5 3.3.3 1.4.8 3-.3 4.2-1.1.9-2.6 1.2-3.8 1.8-1.3.4-2.9 2-4.1.9-.8-.9-.7-2.3-.8-3.4 0-1.6-.2-3.1-.3-4.6-.5.9-1.1 1.8-1.6 2.7l-1.8 3c.3 1.3-.2 3.4-.2 4.2-.6 4.8-.4 9.6-.2 14.3 0 1.7.7 3.7-.6 5.1-1.2 1.1-3 1.4-4.5 1.9-.9.2-1.8.6-2.7.6-2.1-.2-1.9-2.6-1.8-4.1 0-2.8-.2-5.5-.1-8.3-2.2 2.6-4.3 5.3-6.1 8.2-2.7 4.2-4.9 8.6-7.7 12.6-5.2 7-11.2 13.5-15.8 20.9-4.1 6.2-7 13-11.5 19-2.8 4.2-6.1 8-9.2 12-1.9 2.5-3.4 5.3-4.9 8v.1c.7-.2 1.5-.2 2.1-.3 5.7-.4 11.4-.2 17-.5 9.7-.4 19.4-.9 29-.9 12.4-.1 24.9-.5 37.3-.1 5 .3 9.9.5 14.9.9 10.3.7 20.6.5 30.9.5 7.4 0 14.7.1 22.1-.2 7.4-.2 14.7-.8 22-1.1 18.5-.4 37.1-.1 55.6-.6 1.3-.1 2.6-.1 3.9-.2.3-21.8-.3-43.7.7-65.5.3-4.9.7-9.8.8-14.7.6-19.3-.1-38.5.8-57.8.3-6.9 1-13.6 1.1-20.4.2-8.1.7-16.1.9-24.2.2-12.4 1.5-24.8 1.6-37.3M409.9 312.3c.2-.4.5-.7.7-1.1-.4 0-.8.1-1.1.1-.1.2-.3.3-.5.4-.6.4-1.3.3-1.9.4-1.9 0-3.7.2-5.6.3-4.6.1-9.3 0-13.9.2H386c-1.1 0-2.2.1-3.2-.1-1.6-.7-1.5-3-1.5-4.4-.2-2.8-.3-5.5-.3-8.3 0-12.6-.1-25.2.3-37.9v-.3c-2 2.8-4.2 5.4-6.8 7.6-4.8 4.1-10.5 6.8-16 9.9-3.6 2-6.9 4.5-10.7 6.1-4.3 1.8-8.8 3.3-13.1 5.2-2.1.9-4.3 1.8-6.5 2.6-2.8.9-5.9 1.6-8.6 2.4-4.2 1.1-8.2 2.4-12.4 3.3-5.2 1-10.4 1.8-15.6 2.6 1.2 2.2 2.2 4.5 3.2 6.7v.1c2.5 1.9 5.2 3.8 7.8 5.5 4.2 2.7 8.8 4.7 13.6 6.4 3.1 1.1 6.2 2.2 9.4 2.8 6.4 1.4 13 1.7 19.6 2.1 4.3.3 8.6.6 12.9.6 2.4 0 4.8-.1 7.3-.3 5.5-.5 10.9-1.1 16.4-1.2 4.3-.2 8.6-.3 12.9-1 1.9-.2 3.8-.9 5.8-.6.8.2 1.1.9 1.2 1.6 2.6-4 5.6-7.8 8.2-11.7m-25.7-135.9v-.3c-2.6-1-5.1-2.3-7.5-3.7-3-1.5-6-3.2-9.1-4.4-4.1 5.8-5.7 18.3-11.4 21.8-3.7 2.1-8.5-.7-11.9-2.4-4.7-2.6-8-6.8-11.6-10.6-2.2 4.2-4.5 8.3-7 12.2-2.4 3.5-5.6 10.2-9.6 11.6-1.7.5-3.4-.5-4.8-1.4-2.1-1.2-4.1-2.5-6.1-3.8-4-2.4-7.8-5.1-11.3-8.2-3.5 6.8-13 24.1-21.7 23-1.7-.2-3-1.3-4.4-2.2s-2.7-1.9-4.1-2.9c-3.1-2.3-6.2-4.7-9.1-7.1-.9-.9-2.3-1.6-2.8-2.8-1.4.3-2.9.6-4.3.8q.15.6 0 1.2c-.5 1.5-1.2 2.9-1.9 4.4-2.8 5.7-6.2 11.6-11.9 14.8-4.2 2.4-8.2-.3-11.9-2.3-3.6-2-7.1-4.1-10.2-6.7-1.9-1.5-3.6-3.2-5.4-4.8-1.2 1.5-1.9 3-3.1 4.4-1.9 2.1-4 3.9-6.3 5.5-2.9 1.9-8.2 6.2-11.7 5.5-.9-.2-1.8-.8-2.6-1.2q-3.9-2.4-7.8-5.1c-2.6-1.9-5.3-3.7-7.8-5.7-1.1-1-2.6-1.8-3.3-3.1-.1-.2-.1-.3-.1-.5-1.4-.2-2.8-.5-4.1-.8-3.1-.7-6.3-1.8-9.5-1.8-.8 0-1.5.1-2.3.2-2.8.8-5 2.7-6.7 5.1-1.2 1.7-2.4 3.5-3.1 5.5-.9 3.3-.8 6.9.1 10.2.9 2.5 2.7 4.4 4.6 6.1 5.5 5.1 10.2 5.5 17.3 6.1 6.8.7 13.2 1.4 20 1.5h4.4c3.2 0 6.5-.1 9.7-.1.3-1.3 2.1-3 2.7-3.7 1.6-1.9 3.2-3.9 4.8-5.8 1.6-1.8 3.1-3.6 4.8-5.2 1.5-1.4 3.6-1.5 5.5-1 2.9.7 5.5 2.5 8.2 3.9 2.9 1.5 5.5 3.5 7.8 5.9.6.6 1.2 1.2 1.7 1.8.3.4.7.8 1 1.2 1.3-.3 2.5-.5 3.8-.8 2.7-.4 5.4-.7 8.2-.9.2-3.1 3.3-8.5 4.1-10.4 3.1-6.5 9.9-8.4 16-4.6 2.8 1.7 5 4.1 7.4 6.3 2.1 1.9 4.5 3.5 6.6 5.4.3.3.4.6.5 1 2.7-.3 5.5-.6 8.2-.9-.1-3.9 6.7-12.2 8.4-14.5 3.3-4.5 6.8-5.4 12.1-3.7 4.5 1.5 9.2 3.6 13.1 6.1 1.8 1.1 3.4 2.6 5.1 3.8 2.3-3.4 4.3-6.9 6.6-10.3 1.6-2.4 3.1-4.9 4.8-7.1 1.6-2.3 4.1-4 6.9-4.2 6.7-.5 13.3 3.2 16.9 8.7.7 1 1.4 2 2 3 7.5-2.6 15-4.9 22.8-5.7 0-4 .1-8.1 0-12.1.1-4.9 0-9.5.3-14.2" class="st0"/><path d="M684.2 50.2c.8 12.4 1.3 24.9 1.1 37.4s-1.4 24.9-1.7 37.4c-.2 8.1-.7 16.1-.9 24.2-.1 6.9-.8 13.5-1.1 20.4-.9 19.3-.2 38.5-.8 57.8-.1 4.9-.5 9.8-.8 14.7-1 21.8-.4 43.7-.7 65.5-1.3.1-2.6.1-3.9.2-18.5.6-37.1.2-55.6.6-7.4.3-14.7.9-22 1.1-7.4.3-14.7.2-22.1.2-10.3 0-20.6.2-30.9-.5-5-.4-9.9-.7-14.9-.9-12.4-.4-24.9 0-37.3.1-9.7 0-19.4.5-29 .9-5.7.2-11.4.1-17 .5-.6 0-1.4.1-2.1.3v-.1c1.5-2.7 3-5.5 4.9-8 3.1-4 6.4-7.8 9.2-12 4.4-5.9 7.4-12.8 11.5-19 4.6-7.4 10.6-13.9 15.8-20.9 2.8-4.1 5.1-8.5 7.7-12.6 1.8-2.9 3.9-5.6 6.1-8.2 0 2.8.1 5.5.1 8.3 0 1.5-.2 4 1.8 4.1.9 0 1.8-.3 2.7-.6 1.5-.5 3.3-.8 4.5-1.9 1.3-1.4.6-3.4.6-5.1-.2-4.8-.4-9.6.2-14.3 0-.9.5-3 .2-4.2l1.8-3c.5-.9 1.1-1.8 1.6-2.7.1 1.5.3 3.1.3 4.6.1 1.2 0 2.5.8 3.4 1.2 1.1 2.9-.5 4.1-.9 1.3-.6 2.7-.9 3.8-1.8 1.1-1.2.6-2.8.3-4.2-.2-1.1-.3-2.2-.5-3.3q-.45-4.05-.3-8.1c.1-.7.2-1.4 0-2.2v-.1c2.7-3.8 5-7.9 7.3-11.9-.1 2-.1 3.9-.4 6-.3 1.6.1 3.1 1.9 3.1q1.5.3 3 .3c1.6.1 3.3.1 4.9 0 1.7 0 2.9-.7 2.7-2.5.1-3.4.6-6.8.7-10.4.1-5-.4-10 0-14.9.4-2.6.2-4.7-3-4.4-2.3.1-4.6.1-6.9.2-.4 0-.8.2-1 .5l-2.7-3c1.6-1.4 3.2-3.7 4.1-4.5 3.1-3.4 4.9-7.3 7.6-11 4.9 3.3 9.6 6.7 14.6 9.8 3 2.7 5.3-1.1 6.7-3.4 3.4-5 5.8-10.7 9.1-15.8 3.9-5.2 7.6-10.4 10.7-16.1 6.4 3 11.5 8.1 17.6 11.6 4.2 2.1 8.5 5.8 11-.4 2.7-5.7 7.2-10.3 10.5-15.6 4.1-7.9 8.6-15.5 13.7-22.7 2.7-4.1 4.3-8.8 7-13 3.6-5.4 7.7-10.5 10.5-16.5.2 1.3.2 2.6.7 3.9.6 1.9 3.3 1.6 3.6-.3.5-3.4-1-6.7-1.1-10.1 1.1-1.4.6-4.4-1.6-3.9-.9-.4-1.9.2-2.4 1-3 1.4-6.2 2.2-9.2 3.2-1.3.7-1.4 2.7-.2 3.6 1.6 1 6.2-1.6 8.4-1.9-3.7 9.4-11.4 16.6-15.2 25.9-5.4 10-12.3 19-17.6 29.1-3.9 5.2-8 10.3-11.1 16.1-8.7-3.5-15-10.9-23.6-14.5-4.4-1.2-5.2 5.9-7.6 8.4-2.8 4.4-6.4 8.2-8.9 12.8-2.8 5-5.2 10.3-8.9 14.8-19.1-11.1-14.6-16.5-25.2.4-.8 1.7-4.1 4.3-5.5 6.7-1-1-2.1-1.8-3.3-2.6-2.7-1.7-5.3-2.9-7.2.2-4.4.1-7.4-6.1-10.7-3.6-3.2 4-6.7 7.9-9.9 12-2.5 3.5-4.1 7.5-6.9 10.7-3.2 3.6-6.5 7-8.9 11.2-1.8 2.5-3 5.6-5.3 7.8-7.8-2-13.8-15-20.4-3.4-3.2 4.2-5 9.2-7.8 13.6-4.9 7.1-9.6 14.4-14.8 21.3-2.3-1.7-4.3-3.7-6.3-5.9-1.2-1.4-2.6-4-4.8-2.7-4.1 2.4-7.8 5.5-10.6 9.4-1 1.9-4.5 4.3-2.5 6.4 2.3 1.1 4-3.2 5.5-4.4 2.4-2.8 5.2-5.3 8.4-7.2 2.6 3.2 5.5 6.3 9 8.7 2.2 1.7 4-.9 5-2.6 5.9-9.1 12.8-17.7 17.7-27.4 1.7-3.3 3.4-6.4 6.2-9.1 1.5-1.2 3.4.9 4.7 1.7 11 8.5 12 8.5 18.9-3.5 2.7-4.6 6.6-8.2 9.8-12.4 1.8-2.5 3.2-5.3 4.9-8 3-4.5 6.9-8.3 10.2-12.6 2 1.3 4.1 2.9 6.4 3.6-2.9 4.6-5.4 9.4-8.2 14-3.2 4.9-7.1 9.2-10.6 13.8-4.3 5.7-7.6 12.1-11.4 18.1-.9 1.2-1.7 2.5-2.6 3.7 0-.1-.1-.2-.1-.2 0-.7-.5-1.5-1.3-1.5-1.3 0-2.5.4-3.8.5-1.4.3-3.5-.7-4.2 1-.8 3.5-.4 7.2-.5 10.8.1.7-.1 1.9.1 2.8-1.7 2.3-3.3 4.6-4.9 7-.1.1-.2.3-.3.4v-2.6c-.1-6.7.2-13.3 0-20 0-1.2-1-2-2.2-1.8-1.6.1-3.3.1-4.9.3-3.4.1-3.2 3.1-3.3 5.7 0 2.3.5 4.5.7 6.8.3 3.3.3 6.6.3 9.9 0 3.6 0 7.2.1 10.8.2 1.5-.2 3.3.8 4.5-.1.1-.1.2-.2.3-2 2.7-4.1 5.2-6.2 7.8.1-4.4-.2-8.8-.1-13.2v-3.6c-.1-1.3.3-2.9-.7-3.9-.7-.6-1.6-.6-2.5-.8-1-.2-1.9-.3-2.9-.4s-2.4-.4-3 .7-.3 2.5-.4 3.7c-.2 2.7-.3 5.6-.2 8.5.1 4.6.1 9.2.1 13.9 0 2.4-.1 4.8-.2 7.3 0 .8-.3 1.6.2 2.3 0 .1.1.1.2.2-1.3 2.3-2.6 4.6-4 6.8-2.9 4.5-6.6 8.4-9.9 12.7-5.6 7.2-9.9 15.2-14.5 23q-1.5-.15-3 0c-.5 0-1.1.1-1.6.3h-1c-2.1.1-4.2.3-6.3.3-5.4 0-10.9.3-16.3.1-.5-5.5-.3-11-.4-16.5.1-11.5-.3-22.9.2-34.3 0-.1 0-.3-.1-.4.8-1.1 1.6-2.1 2.5-3.1 3.2-3.7 6.6-7.4 9.1-11.6 3.3-5.5 5.4-11.7 6.4-18 .8-5.7-.6-12-4-16.7-2.7-3.5-7-5.5-11.3-5.9V199c0-7.2.1-14.4-.1-21.6v-.3c5.4 2.1 9.2 2.7 13.8-2.5 3.9-4.2 5.9-9.7 7.2-15.1.4-1.5.8-3.1 1.1-4.6.4-1.6.8-3.2 1.1-4.8.1-.6-.1-1.2-.5-1.6.7-.3 1.5-.6 2.3-.9 6.5-2.5 14-5.4 16.6-12.5 2.2-7.2 1.3-15 .3-22.3-1-6.1-2.4-12.3-5.2-17.9-.9-1.9-1.9-3.8-2.9-5.6-2-3.8-4.2-7.4-6.6-10.9-3-4.4-6.3-8.8-10.7-11.9-4.1-3.1-9.1-4.6-14.1-5.6-2.2-.4-4.4-.8-6.6-1 .2-.4.2-.8.2-1.2.1-1.2.1-2.4.2-3.6.4-4.8 1-9.5 1.3-14.3.2-2.8.1-5.3.6-8.1 5.9.1 11.8 1 17.7 1.2 9.1.4 18.3.5 27.4-.3 12.3-.5 24.6 0 36.9-.6 9.3-.3 18.6-.2 27.9 0 12.5-.1 25.1-.1 37.6-.1 6.3-.1 12.6-.5 18.9-.5 19 0 38-.7 57 .4 15.6.9 31.2.9 46.7 2.3 6.8.5 13.9 1.7 20.7 2.5 2.7.3 5.5.7 8.3.8h.1c-.3.7-.2 1.6-.3 2.4 0 3.1.3 6.2.5 9.4m-31.4 70.1c.2-7.8.5-15.5.3-23.3-.1-3.4.1-6.7-.1-10.1-.2-.9-1-1.6-1.9-1.7-1.3.1-2.5.2-3.8.3-1.8.3-5.5-.3-5.3 2.4.4 1.2.2 2.4.2 3.7 0 3.8 0 7.7-.2 11.5-.8 9.9-.4 19.8-.6 29.6-.1 2.4-.1 4.7-.2 7.1v2.8c0 .8.1 1.7.7 2.3s1.5.5 2.3.4c.9-.1 1.9-.3 2.8-.5 2-.6 5.5-.3 5.8-2.9-.1-7.2-.2-14.4 0-21.6m-15.2 28.3c.9-.7 1-1.9.8-2.9-.1-1.2-.3-2.5-.4-3.8-.2-3-.1-6-.2-9-.1-3.7-.7-7.3-1-10.9s-.2-7.3-1.1-10.8c-.4-1-1.5-1.4-2.5-1.4-1.3 0-2.7-.1-4 .3-.7-.8-1.8 0-1.7.9.1 1.3 0 2.6 0 4 0 4 0 7.9.1 11.9.2 5 0 10.1.2 15.1.1 1.7.1 3.4.1 5.1 0 1.4.5 2.8 2.1 2.9 1.9.1 3.8-.2 5.6-.6.8-.1 1.5-.3 2-.8m-15.6 8.6c2.3 0 3.2-1 2.9-3.3-.2-3.2-.2-6.5-.2-9.7 0-2.4 0-4.8-.1-7.2 0-1.1-.4-2.9-2-2.8-1.4.2-2.7.6-4.1.7-1.2.2-3 .1-3.4 1.5-.2.4-.2.9-.2 1.4-.1 2.7-.1 5.3-.2 8 0 2.5-.1 5.1 0 7.6.1 1.4 0 3.6 1.8 4 1.8.1 3.7-.1 5.5-.2m-12.1 12.4c2-1 1-3.9 1.1-5.7-.3-5 .3-10.1-.5-15.1-.3-3.4-2.5-3.3-5.3-3.3-1.5.1-4.3-.1-5.2 1.4-.5.4-.5 1-.4 1.5.1 2.2.1 4.5.1 6.7.1 4.7-.2 9.4.1 14.1.5 2 2.1 1.6 3.6 1.4 2.2-.5 4.4-.4 6.5-1m-19.8 2.3c2.6-.8 5.9-.4 5.4-4.2-.5-7.4.2-14.9-.1-22.3-.1-3.4-.4-6.9-1-10.3-.3-3.4-2.1-2.4-4.6-2.1-1.4.1-4.2 0-4 2.1-1.2.4-.8 2-.9 2.9v6.2c0 5.2-.1 10.4-.1 15.5v7.4c.2 1.6-.7 4.7 1.2 5.5 1.5.3 2.7-.4 4.1-.7M580 184.7c1.7-.4 3-1.3 2.8-3.3-.1-2.6-.3-5.2-.3-7.8 0-5.2-.3-10.4-.8-15.6-.1-2.6-.1-5.2-.3-7.8-.2-3-1.6-2.8-4-2-.9.3-2.1.5-3.1.7-1.3.1-2.5 1-2 2.4-.1 7.3-.1 14.7-.3 22 0 2.6-.1 5.2 0 7.8.2 1.5-.2 3.5 1 4.6 1 .7 2.3.2 3.4 0 1.1-.3 2.4-.6 3.6-1m-12.2 4.6c0-3.5.2-7 .2-10.4-.2-1.5-1.7-1.9-3-1.8-1.6 0-3.3 0-4.9.2-1.7-.3-1.5 2-1.4 3.1.1 1.9 0 3.8-.1 5.7-.1 2.5-.8 5-.7 7.6.1.8.6 1.4 1.4 1.6 1.9.5 3.9.5 5.9.5 3.5.3 2.4-4.3 2.6-6.5m-10.9-3.1c0-1.5-.4-3-.5-4.5-.1-2.6-.2-5.6-.2-8.4 0-1.6.1-3.3-.3-4.9-.5-1.5-2.3-1.2-3.5-1.1-2.2.2-4.4.1-6.6.3-1.1-.5-1.4 1-1.2 1.8v3.8c0 3.1 0 6.3-.1 9.4.1 1.9-.4 4.3 1 5.8.6.5 1.4.3 2.1.3 1.4-.2 2.5-.3 4-.4.4 0 .7-.1 1.1-.1 1.4-.2 4 0 4.2-2m-120.8 69.7c.1-1.1.4-2.4-.3-3.4-1.2-1.6-4.7-.9-6.5-1-1.3.1-2.7-.1-3.9.4-3-1-1.7 8.4-1.8 10.1.1 2.4.2 4.8.1 7.2-.5 4.1.1 4.4 4.2 4.3 2 0 4.1.1 6.1-.2.8-.3 1.1-1.3 1.1-2.2.1-1.4.5-2.7.5-4.1.2-3.7.3-7.4.5-11.1m-15.4-10.2c.5-2.8-1.8-3.2-4-3.2-2 0-3.9 0-5.9.1-.8.1-1.8 0-2.4.6-.5.5-.4 1.3-.5 2-.2 1.3-.1 2.6-.1 3.9 0 5-.1 10-.1 14.9.1 6.3-.1 12.6-.4 18.9.3 2.2 2.9 1.6 4.5 1.7 1.8 0 3.7 0 5.5-.1 1.8.1 2.8-1.2 2.8-2.9.3-5.7.2-11.4.2-17.1 0-6.2-.4-12.5.4-18.8" style="fill:#fffbdf"/><path d="M416.1 524.2c-5.2-.9-10.6-.4-15.7-2-.6.9-1.9.6-2.1-.5-.3-1.3.9-2.7 1.5-3.7.7-.9 1.3-1.9 2-2.8 2.2-3 5.2-.2 7.5 1.1 2.5 1.4 4.6 3.4 7.2 4.5 1.6.7 1.3 3.4-.4 3.4m-298-103.1c-3-.9-1.9-4.8-1.7-7.2.6-3.8 1.7-8 4.9-10.5 1.5-1.1 3-2.9 5.1-2.4.9.2 1.6 1 1.9 1.9 1 1.2 1 2.8 1.1 4.3.2 3.1-1.2 6.1-2.9 8.6-1.5 2-3.1 4.2-5.5 5.2-.6.2-1.2.3-1.8.1-.3 0-.7.1-1.1 0m-.2 13c.4 4.1-6.2 13.6-10.8 12.5-5.8.3-4.7-6.4-2.7-9.8.8-1.9 2.5-5.6 5-5.5 3.4-2.4 8.3-2.3 8.5 2.8m-30.3 27.4c-1.8-1.2-.8-3.5 0-5 1-2.2 3.1-5.7 6-4.8 3.2-.9 4.3 2.3 2.1 4.4-1.7 1.7-5.4 6.7-8.1 5.4M36.7 212.2c.1-.2.3-.5.4-.7-.2-.2-.3-.4-.5-.6 0 .4.1.8.1 1.3m-.1 9.4c-1.1-.2-1.9-1-2.4-1.9-1.1-.8-1.3-2.2-1.4-3.5-.8-6 .1-12.2 1.9-18 1.1-3.4 2.5-6.9 5.2-9.2 7.2-4.9 10.8 3.3 9.9 9.5-.4 4.5-1.5 8.9-3.4 12.9-1.9 3.4-5.3 10.9-9.8 10.2m18.5-56.4c-.2-.2-.4-.2-.7-.2h.2-.2c.3.1.5.2.7.2M49.8 180c-.4-.2-.8-.5-1-.9l-.3-.6c-3.8-2.4-.1-12.2 2.4-14.8 1.9-2.5 5.7-3.2 6.9.3.6 1.7.2 3.6-.2 5.4-.6 3-3.7 12.2-7.8 10.6m54.3 239.8c.5.8.4 2.1-.4 2.6-2 2-3.7 4.2-5.3 6.5-3 4.5-5.3 9.5-8.4 14-1.5 2.4-3.2 4.8-4.7 7.2-.8 1.2-2.2 3.8-3.8 2.4-.1-.1-.2-.2-.2-.4-2.8 1-4-6-4.6-7.9-1.5-5.9-5-13.4-3.7-19.4.4-1.3 1.3-2.1 2.4-2.7-.8-.2-.9-1.3-.4-1.9 1-.8 2.2-.6 3.3-.8 2.1-.2 4.2-.3 6.4-.4h3.8c.8 0 1.1.7 1.1 1.4h.4c3.7-.1 7.1-.4 10.7-1 .9.1 2.6-.7 3.4.4m18.4-51.3c1.1-.6 2.4.4 2.2 1.6-.2 1.5-.9 2.9-1.2 4.4-1 4-2.3 7.9-3.6 11.7-1.5 5.1-2.9 10.2-5.2 15-.6 1.4-1.2 2.8-2.1 4-.3.4-.8.6-1.3.5-.2.1-.3.1-.5.1-1.6-.1-3.5-4.3-4.5-5.6-1.6-2.6-3.2-5.3-4.8-7.9-1.4-2.4-2.4-5.1-3.3-7.7-1.7-4.8-3.1-9.5 3-11.6 3.3-1 6.7-.7 10.1-1.4 3-.5 6.1-.8 9-1.9.7-.3 1.4-.7 2.2-1.2m10.8-45.5c1.6-1.2 3.1 0 2.7 1.9-.5 2.7-.9 5.4-1.2 8.2-.4 4.1-.6 8.3-1.9 12.3-.7 2.3-1.4 4.6-2.4 6.9 0 1.3-1.2 2-2.3 1.5-2.2-.9-3.8-2.7-5.5-4.2-3.2-2.9-5.7-6.3-8.4-9.7-8.4-10.9 3-11.8 11.1-14.3 2.7-.9 5.3-1.7 7.9-2.6m206.8 129.2c1.2 8.2.9 16.6.6 24.9l-.3 8.4c-.3 2.2.4 9.7-2.7 8.8-.5-.2-.8-.6-.9-1.1-.3.3-.5.5-.7.8-1.7 1.8-3.4 3.7-5.4 5.2-2.8 2-6 3.2-9 4.9-2.3 1.4-4.4 3.1-6.9 4.2-2.6 1.2-5.2 2.4-7.7 3.8-4.9 3.1-10.8 3.4-16.4 4.4-2.9.6-5.7 1.6-8.5 2.6-2.7 1-5.3 2.3-8.2 2.9q-4.35.75-8.7.6c-5-.3-9.7-1.8-14.7-1.5-3 .1-11.1.9-13.2-1.1-1.6-1.6-.2-3.8.5-5.5 2.1-4.3 4.4-8.5 5.7-13.1 5.2-14.7 5.7-18.2 3.2-33.5-.4-2.6-.8-5.2-1.5-7.8-1-3.4-2.5-6.7-3.8-9.9-1.7-3.8-3.4-7.9-6.9-10.5-2.5-1.5-5-3.1-7.6-4.5-.6-.3-1.3-.6-2-.9-.6-.3-.8-1.1-.6-1.7v-.4c.1-.7.6-1.4 1-2 .9-1.5 1.7-3.1 2.3-4.8 1.8-5.1 2.4-10.7 2.4-16.1-.4-6.9-.3-13.8 0-20.7.4-8.6.2-17.2 1.4-25.8.7-5.1 1.4-10.3 3.5-15.1 3.8-9 11.2-15.4 20.9-17.3 3.3-.7 6.7-1.1 10-1.2 3.4-.1 6.8-.3 10.1.5s6.4 2.3 9.4 3.9c3 1.7 5.9 3.5 8.4 5.8 5 4.8 7.9 11.2 11.8 16.9 3.9 5.6 7.9 11.3 10.2 17.8 2.6 8.3 6 16.3 9.4 24.3 2.7 6.2 5.9 12.3 7.9 18.9 1.9 6.5 3.3 13.1 4.4 19.8 1 5.1 1.9 10.1 2.6 15.1m-202.2 52.9c2.1 5.3 2.3 11 2.2 16.6-.1 3.4-1.2 7.2-3.7 9.6-3.1 2.3-9.3 2.3-13 2.2-4.1-.2-8.1-.8-12.2-.7h-4.6c-1.5.1-2.9-.2-2.7-2-3.1 1.1-6.5 1.3-9.7 1.3-1.4-.1-6 .1-6.4-1.3-.3-.8.3-1.6 1.1-1.5 6.7.4 12.1.6 18-3.1 4.6-2.7 9.7-4.4 14.4-7 5.2-3.3 8.7-8.5 12.6-13.2 1-1 3.2-2.8 4-.9m114.4 68.3c1.4 1.1 3.5 3 1.7 4.8-1.8 1.4-8.6.5-11.2.5-2.7-.3-6.6.6-8.3-2-.6.7-1.3 1.8-2.3 1.5-1.2-.5-.8-1.9-.3-2.7.1-.3.4-.5.7-.5 2.1-2.8 4-6.6 7.7-7.4 2.4-.1 4.6 1.1 6.7 2.2 1.8 1.1 3.6 2.3 5.3 3.6m31.3-13.7c1.1.8 1 3-.5 3.3-2.7.1-5.3-.2-8-.2-2.4 0-4.8.1-7.1.2-1.3.1-2.7.2-4 .4-.9.1-1.9.4-2.7-.3-.1.3-.4.4-.7.4-.4.2-.9 0-1.2-.3-1.8-1.9 3.7-7.4 4.9-9.3 2.7-3.5 3.6-4 7.7-1.9 4 2.2 8.1 4.7 11.6 7.7m9-11.8c.7 1.5-.4 3.2-2.2 2.9-3.1-.2-6-1.4-9.1-1.3-2.7.1-5.5 1.3-8.2.7-3.7-1.6 1.6-8.7 3.1-10.7.9-1 2.4 0 2.2 1.2.9-1.3 2.4-.2 3.4.3 1.7.8 3.8 1.6 5.4 2.4 2.1 1.1 4.2 2.4 5.4 4.5m106.2-3.1c.4 3.4-3.9 4.5-6.5 3.7-1.9-.4-3.6-1.1-5.5-1.3-2.6-.5-5.2-.6-7.8-1-4.4-1.1-.1-7.9 1.3-10.1.7-1.2 2.7-2.7 3.5-.8 2.1.6 3.9 1.1 5.9 1.9 2.4 1.1 4.6 2.7 6.6 4.4 1 1 2.2 1.8 2.5 3.2m13.2-13.2c.8.7.8 2.1-.1 2.8-.6.5-1.5.3-2.2.3-1.9 0-3.6-.4-5.5-.7-2.4-.3-4.9-.4-7.3-.3-1.9.1-3.7.1-5.6.2-1.3-.2-1.9-2.2-.8-3 .8-2 1.5-4 2.6-5.9.5-.8 1.2-1.7 2.3-1.6 2.3.2 4.2 1.6 6.2 2.7s3.9 2.4 6 3.5c1.5.9 3 1.3 4.4 2" style="fill:#c3a3fc"/><path d="M202.7 202.2c-.5.8-.9 1.5-1.4 1.9-2.4 2.8-5.5 4.9-8.6 6.9-1.9 1.2-3.9 2.5-6.1 3.2-1.2.4-2.2-.5-3.2-1l-5.4-3.3c-3.2-2.1-6.7-4.5-9.9-6.8-.1-.1-.3-.2-.4-.3 1.2.1 2.4.2 3.6.4 4.1.6 8.1.3 12.2.1 6.4 0 12.8-.6 19.2-1.1m-31.3-78.8c.1.1.2.1.3.1-2.2.7-4.5 1.3-6.8 1.8-4.9.9-9.9 1.5-14.9 2q-11.4 1.35-22.8 1.5c-5.1.1-10.1-1-15.1-1.8-4.4-.7-8.9-1.4-13-3.3-1.6-.7-3.3-1.5-4.5-2.9 2.1-2.3 4.7-4.1 7.2-6 2.7-2 5.4-3.9 8.3-5.6 2.4-1.3 4.9-2.5 7.2-4 2.2-1.4 4.3-2.9 6.5-4.4 5.8-3.7 11.8-7.1 17.8-10.4 2.6-1.4 5.1-2.9 7.8-4.1 4.4-2 9.1-3.3 13.8-4.2q2.1-.45 4.2-.6c-5.6 4.2-9.6 10.5-9.5 17.7 0 2.8 1.1 5.5 2.2 8.1 2.2 6.4 5.6 12.3 11.3 16.1m5.9-30.4c1 .8.6 2.1-.1 2.9-1.1 1.2-2.8 1.8-4.4 1.9-.7 0-1.8 0-2.1-.7-.4-1.2-.4-2.6-.3-3.8.3-2.3 2.5-3.2 4.6-3.2-.3 1.7 1.4 2.1 2.3 2.9m121-25c1.3.5 4.4.8 4.4 2.6-1 2-2.9 3.7-5.2 4.1-2.2.2-3.2-2.6-3.5-4.4-.2-1.9 1.9-2.9 3.3-3.7.1.6.4 1.2 1 1.4m-53.9 128.4c-.9 1.5-1.5 3-2.2 4.6-1.3 2.8-3 5.8-5 8.2-6 6.4-7.9 5.4-14.9 1.3-4.4-2.4-8.4-5.3-12.1-8.7 5.2-.3 10.4-.6 15.5-1.5 5.2-1 10.1-2.8 15.3-3.5 1.1-.1 2.3-.3 3.4-.4m-17.5 35.7q0 .15 0 0c-2.8.6-5.6 1.1-8.4 1.3-5.7.8-11.5 1-17.3.9h-4.5c.8-.8 1.6-1.6 2.3-2.5 2.7-3.1 5.2-6.4 8.3-9.2 2.7-2.6 7.1.7 9.8 2 2.6 1.4 5.2 2.9 7.4 4.9.8.9 1.6 1.8 2.4 2.6m39.4-9.8c2.1 1.9 4.1 3.8 6.4 5.5-3 .2-6 .3-9 .5-6.3.6-12.5.9-18.8 1.3 1.4-3.6 2.9-7.2 5.1-10.3 3-3.8 8-3.5 11.7-1 1.8 1.1 3.2 2.6 4.6 4m25.7-37.9c-.1.2-.2.4-.4.6-2.9 6.2-10.8 19.7-17.4 21.6-1.9.6-3.6-.7-5.1-1.7-2.8-1.9-5.5-3.9-8.2-5.9-1.9-1.4-3.8-2.9-5.7-4.4-.1 0-.1-.1-.2-.1.3-.1.7-.2 1-.3 4.6-1.1 9.3-1.8 13.9-3 7.5-2 14.8-4.5 22.1-6.8m26.5 34c.9.6 1.7 1.3 2.5 2-1.5.3-3.1.6-4.6.8-5 .9-10 2.2-14.9 3.3-3.7.8-7.4 1.1-11.1 1.4l-2.7.3c.1-.2.1-.3.2-.5 2.2-4.4 5.1-8.3 8.2-12 1.4-1.8 3.4-3.1 5.8-2.7 4.4.6 8.4 2.7 12.4 4.6 1.3.9 2.8 1.8 4.2 2.8m11.9-44c-.1.2-.3.5-.4.8-2.2 5-5.3 9.6-8.3 14.2-1.2 1.8-2.5 3.8-4 5.7-2.6 3.1-3.2 2.1-6.2.3-3.1-1.9-6.1-3.7-9.2-5.7-1.7-1.1-3.6-2.5-5.1-3.9-.9-.8-1.9-1.8-3-2.2 2.2-.7 4.5-1.3 6.7-1.9 7.6-2.2 15.2-4.5 23-6 2.3-.4 4.4-.8 6.5-1.3m27.4 34.8c0 .1.1.1.1.2-6.1 2.1-12.2 4.3-18.5 5.9-4 1-8.1 2.2-12.1 3.4.2-.4.5-.8.7-1.3 1.8-3.2 3.9-6.2 5.9-9.3q1.8-2.85 3.9-5.4c.7-.8 1.4-1.5 2.4-1.9 3-1.3 6.4-.5 9.3.7 3.6 1.5 6.3 4.5 8.3 7.7m7.1-42.8c-.3.5-.5 1-.8 1.5-2.2 4.6-3.7 9.5-5.8 14.2-1.2 2.6-3.2 5.7-6.4 4.6-5.2-1.4-9.8-4.5-13.4-8.5-1.2-1.1-2.7-3.4-4.2-4.5 9.2-1.9 18.4-3.8 27.5-6.3 1-.3 2-.7 3.1-1m41.9-16.9c-.2.8-.2 1.8-.5 2.5-.4 1.9-.8 3.7-1.2 5.5-.9 3.9-2 7.7-4.1 11.1-2.2 3.3-5.5 7.5-9.9 6.1-2.8-.9-5.6-1.9-8.3-3.1-3-1.5-5.8-3.1-8.8-4.6-1.5-.7-2.9-1.5-4.4-2.2-.1 0-.2-.1-.3-.1 10.2-3.9 19.9-9.1 30.3-12.4 2.4-.9 4.8-1.8 7.2-2.8M294.6 98.8c-1.7.6-3.4 1.1-5.1 1.6-6.3 1.7-12.8 2.4-19.2 2.4-6 .1-11.9.2-17.9-.2-4.9-.3-9.7-1.7-14.3-3.7-.4-.3-.8-.6-1.3-.9-.1-.1-.3-.2-.4-.3 1.6-3.2 3.5-6.3 5.3-9.3 1.7-2.8 4-5.2 6.5-7.5 4.5-3.9 9.3-7.7 14.5-10.7 3.2-1.9 6.6-3.2 10-4.7 5.7-2.7 11.6-5.3 17.7-7.1-4.5 5.7-8.3 9.4-7.7 17.2 0 5.1 2 9.9 5 14.1 2.1 3.2 4.2 6.5 6.9 9.1" style="fill:#fff"/><path d="M210.5 92.5c1.1 2.9 1.7 6.1 1.2 9.2s-1.6 6.2-3.7 8.6c-7.5 8.2-17.4 10.7-27.5 14-4.2 1.5-8.4 2.9-12.7 4.1-5.7 1.4-11.6 2-17.5 2.6-8.9 1.1-17.8 1.7-26.7 1.4-3-.2-5.9-.7-8.8-1.2-5.3-1-10.7-1.4-15.7-3.6-2.1-1-7.8-3-6.8-6-.7-2.9 7.1-8.3 9.3-10 2.8-2.2 5.8-4.3 9-5.9 1.8-1 3.6-2 5.4-3.1 7.2-5.2 14.8-9.8 22.6-14 5.2-3 10.4-6.1 16.1-7.9 4.3-1.3 8.7-2.4 13.1-2.8 4.4-.3 8.8-.2 13.2-.2 5.8.1 12-.5 17.3 2.3 5.4 2.4 10.1 6.8 12.2 12.5M177.2 96c.7-.8 1.1-2.2.1-2.9-1-.8-2.7-1.2-2.3-2.9-2.1 0-4.3.9-4.6 3.2-.2 1.3-.2 2.6.3 3.8.4.8 1.4.7 2.1.7 1.6-.1 3.3-.7 4.4-1.9m-5.6 27.6c-.1 0-.2-.1-.3-.1-5.7-3.9-9-9.8-11.5-16-1.1-2.6-2.2-5.2-2.2-8.1-.1-7.2 3.9-13.6 9.5-17.7q-2.1.15-4.2.6c-4.7.9-9.4 2.2-13.8 4.2-2.7 1.3-5.2 2.7-7.8 4.1-6 3.3-12 6.6-17.8 10.4-2.2 1.5-4.3 3-6.5 4.4-2.3 1.5-4.8 2.7-7.2 4-2.9 1.6-5.6 3.6-8.3 5.6-2.5 1.8-5 3.7-7.2 6 1.2 1.4 2.8 2.1 4.5 2.9 4.1 1.9 8.6 2.6 13 3.3 5 .8 10 1.9 15.1 1.8 7.6-.1 15.2-.5 22.8-1.5 5-.5 10-1 14.9-2 2.5-.6 4.8-1.2 7-1.9m149.6-69.4c7.4 3.7 13.3 17.5 10.2 25.3-1.7 4.8-5.8 7.8-10.1 10.1-2.7 1.5-5.3 3.1-7.9 4.6-2.7 1.5-5.4 3.1-8.2 4.3-2.9 1.2-5.8 2-8.7 3-4.4 1.7-9 2.9-13.6 3.6-4.6.8-9.3.9-13.9 1-5.6.1-11.5.3-17-.3-4.6-.4-9-1.7-13.2-3.4-1-.4-2.4-.5-2.9-1.6-.6-1.5.7-3 2.2-2.1 4.5 2 9.4 3.4 14.3 3.8 5.9.4 11.9.2 17.9.2 6.5 0 13-.7 19.2-2.4 1.7-.5 3.4-1.1 5.1-1.6-2.7-2.6-4.9-5.8-6.9-9-3-4.1-4.9-8.9-5-14.1-.5-7.8 3.2-11.6 7.7-17.2-6.1 1.8-11.9 4.4-17.7 7.1-3.4 1.5-6.8 2.8-10 4.7-5.3 3-10 6.7-14.5 10.7-2.5 2.2-4.8 4.6-6.5 7.5-2.1 3.4-4.2 6.9-5.9 10.6-.3 1-1.7.8-1.8-.3-.1-1.4.8-2.7 1.3-3.9 1.6-3.1 3.2-6.2 5-9.2 2.7-4.3 6.6-7.6 10.5-10.8 6.1-5.2 13-9.3 20.4-12.3 9.8-4.8 20.2-8.9 31.2-10 6.6-1.1 12.9-1.8 18.8 1.7m-18.5 16.3c0-1.7-3.1-2.1-4.4-2.6-.6-.2-.9-.8-1-1.4-1.4.7-3.5 1.8-3.3 3.7.3 1.8 1.3 4.6 3.5 4.4 2.2-.3 4.2-2.1 5.2-4.1"/><path d="M138.1 148c-4.5-.3-8.8-1.2-13-2.7-1.7-.6-3.4-1.2-5-1.8-.6-.3-1.3-.4-1.8-.9s-.4-1.5.2-1.8c.5-.3 1-.1 1.6 0 3.7.8 7.3 2.2 10.9 2.9 8.1 1.8 16.2.7 24.3-.2 6.9-.7 13.9-1.6 20.5-3.7 4.1-1.5 8.1-3.2 11.9-5.2 3.5-1.7 6.8-3.8 9.6-6.4 3.2-2.9 6.6-6 8.4-10 .8-1.7 1.4-3.6 1.5-5.5.1-1.6-.3-3.3-.3-4.9-.2-2 2.3-2.6 2.7-.5.2 1.5.4 3 .4 4.5-.2 4.4-1.9 8.6-4.5 12.1-3.6 4.5-7.8 8.6-12.7 11.7-2.4 1.5-5 2.7-7.5 4-2.6 1.2-5.3 2.4-8 3.3-5.6 1.8-11.4 2.8-17.2 3.5-7.4.7-14.6 2.1-22 1.6m131.2-26.8c-7.9-.1-15.7-1.7-23.6-2.2-.4.2-.8.1-1.1-.3-.5-.7-.1-1.7.7-2 2.2-.5 4.5 0 6.7.1 5.9.5 12.2 1.3 18.1 1.1 3.9-.3 7.5-1.6 11.3-2.6 4.1-.9 7.6-3.1 11.4-4.6 4.4-1.5 9-3 13.3-4.9 5.1-2.4 10.4-4.4 15-7.8 3.4-2.8 6.2-6 8.8-9.4 1.9-2.7 1.8-5.8.5-8.7-.7-1.7 1.4-3.5 2.5-1.6 2.6 5.3 1.1 11.1-2.9 15.1-3.7 4.5-8 8.6-13.3 11.1-6.5 3.2-13.1 6.3-20.1 8.6-3.4 1-6.5 2.7-9.8 4.1-2.4 1-5.1 1.5-7.6 2.2-3.4 1-6.6 1.9-9.9 1.8M87.6 107.6c-1.7-1.5 1.8-4 2.8-5.1 2.3-2.2 4.8-4.3 7.4-6 2.1-1.4 4.3-2.7 6.4-4.2 1.9-1.4 3.6-3 5.4-4.4 3.4-2.5 7.2-4.6 10.8-6.9 2.5-1.6 4.8-3.4 7.4-4.8 4.2-2.2 8.6-3.8 12.9-5.6 4.2-1.8 8.5-3.2 12.8-4.5 1.9-.6 3.8-1.2 5.7-1.7 5.9-1.5 12-1.7 18-1.6 3.1.3 6.1 1.2 9 2.3 2.8 1 5.6 1.8 8.3 3 2.5 1.2 4.2 3.4 5.5 5.8 1.3 2.5 2.1 5.3 2.5 8.1.1.8-.3 1.8-1.2 2-1.9.2-1.7-2.2-2-3.5-.8-3.9-2.8-8.1-6.8-9.6-1.7-.8-3.6-1.3-5.4-1.9-3.1-1.1-6.3-2.2-9.6-2.6-5.9-.2-11.9.1-17.7 1.6-5.8 1.7-11.6 3.4-17.2 5.6-4.6 1.8-9.4 3.4-13.8 5.7-3.1 1.7-5.9 3.9-9 5.7-2.1 1.2-4.2 2.5-6.2 3.8-2.5 1.6-4.9 3.5-7.2 5.4-1.8 1.4-3.7 2.5-5.7 3.7-3.4 2-6.4 4.4-9.4 7-.7.6-1.3 1.2-1.9 1.8-.3.5-1 1.5-1.8.9m141.2-26.3c-.6-2.2 1.9-5.1 2.9-6.9 2.5-3.9 5.4-7.4 8.8-10.6 3.3-3.2 6.8-6.1 10.3-9 4.7-3.8 10.4-5.9 15.7-8.6 9.6-5.9 20.8-8.1 31.9-8.2 6.4-.3 11.2.5 16.4 4.5 2.6 2 4.9 4.4 6.3 7.3.6 1.6 2.3 4.6.2 5.6-1.6.5-1.9-1.4-2.3-2.5-.3-.9-.7-1.7-1.1-2.5-2.7-3.9-6.8-6.9-11.4-8.3-2.6-.7-5.4-.6-8.1-.6-5.8.1-11.6.8-17.2 2.2q-4.05 1.05-7.8 2.7c-3 1.4-6.1 3.3-9.2 4.6-3.3 1.5-6.7 3-9.7 5-1.8 1.2-3.4 2.6-5.1 3.9-7.2 5.7-14 12.2-18.4 20.3.5.5.4 1.7-.4 1.7-.7.5-1.5.1-1.8-.6"/><path d="M87.4 96.1c-.6-2.3 2.4-4.9 3.8-6.5 3.8-4 9.1-6 13.2-9.6 2-1.8 3.7-3.9 6-5.3 4.1-2.6 8.6-4.5 12.7-7.2 10.2-5.8 21.1-10.4 32.5-12.9 5-1.2 10.2-1.6 15.3-.7 2.8.4 5.5 1 7.9 2.6 2.6 1.6 4.6 3.9 6.9 5.9 1.2 1.2 3.4 2.7 2.2 4.5-1.2 1.5-2.5-.4-3.5-1.2-3-2.8-5.9-6.5-10-7.4-9.7-2.6-17.8-.7-27.1 2.2-7.9 2.5-15.5 6-22.8 10-4.1 2.6-8.5 4.6-12.7 7.1-3 2-5.2 5-8.3 7-4 2.6-8.4 4.6-11.8 8.1-1 1-2.1 2-2.7 3.3.1 1-1.3 1.4-1.6.1M222 73.4c-.9-.2-1-1.3-.7-2 .3-1 1.1-1.9 1.8-2.7 1.6-1.8 3.5-3.3 5.1-5.1 4.1-4.1 7.2-9.2 11.8-12.7 3.4-2.8 7-5.4 10.3-8.3 2.2-1.9 4.4-3.9 6.9-5.4 5.1-3 10.6-5.5 16.3-7.2 3.6-1 7.2-1.4 10.8-1.7 4.3-.4 9-.8 12.8 1.8 2.2 1.4 10.7 7.8 7.7 10.5-1.6 1.1-2.4-1.3-3.3-2.2-2.4-2.6-5.1-5.1-8.6-6.2-2.9-.7-6-.3-9-.1-1.7.2-3.5.3-5.2.6-7.4 1.2-14.6 4.1-21 8-2.4 1.6-4.6 3.6-6.8 5.4-3.6 3-7.5 5.7-11 8.7-2.2 1.9-4.1 4.1-5.9 6.3-2.3 2.7-4.9 5.2-7.6 7.5-1.3 1.2-2.8 2.3-3.6 3.9.1.6-.3 1-.8.9"/><path d="M43.2 160.6c-1.1-6.9-1.6-14-2.3-20.9-.6-10.3-.8-20.6 0-30.8.5-5.3 1.9-10.5 2.8-15.8 1.1-5.7 3-11.2 5-16.7C50 72.1 52 68.2 54 64.2c1.3-2.7 2.8-5.2 4.6-7.5 3.7-4.7 8.3-8.5 12.5-12.8 2.2-2.2 4.3-4.4 6.8-6.1 2.4-1.8 5.1-3.2 7.8-4.6 3.9-2.1 7.6-4.7 11.9-5.9 2.8-.8 5.6-1.4 8.4-2 2.3-.4 4.7-.8 7.1-.5 4.4.8 8.8 1.7 13.2 2.4s8.6 2.5 12.7 4.2c2.7 1.1 5.4 2.3 7.9 3.9 6.9 4.9 12.4 11.6 16.7 18.8.3.7 0 1.6-.7 1.8-.8.3-1.4-.5-1.8-1-.8-1.1-1.6-2.3-2.5-3.4-4.3-5.7-9.2-11.4-15.6-14.7-4.4-2.2-9.1-4-13.8-5.5-2.7-.7-5.5-1.1-8.3-1.6-3.7-.6-7.4-1.9-11.3-1.6-4.7.6-9.4 1.6-13.8 3.3-3.9 1.8-7.5 4.1-11.3 6-2.1 1.2-4.2 2.4-6.2 3.9-3.1 2.3-5.7 5.3-8.5 7.9-3.3 3.3-6.9 6.4-9.7 10.2-1.6 2.2-2.9 4.5-4.1 7-2 3.9-3.8 7.7-5 11.9-2 5.3-3.7 10.6-4.7 16.2-.7 4.1-1.6 8.2-2.2 12.3-.9 8.5-.8 17.1-.5 25.7 0 8.3 1.6 16.5 2 24.8v3.3c0 .6-.4 1.3-1.1 1.5-.6-.1-1.2-.8-1.3-1.5"/><path d="M153.9 44.3c-.2-.7.3-1.3 1-1.5 4.2-1.9 8.2-4.3 12.7-5.4 3-.7 6-1.4 9-2 3-.5 6-.7 9-.8 3.5-.1 7.1.4 10.6.9 2 .3 4 .5 6 1 1.4.3 1.5 2.8 0 3-.6.1-1.2.1-1.9.1-5.2-.5-10.3-1.9-15.6-1.6-5.8 0-11.5 1.3-17.2 2.5-2.1.5-4.2 1.3-6.2 2.2-2.1.8-4.3 1.5-6.4 2.3-.3.3-.9-.2-1-.7"/><path d="M195.5 37c-.5-1.4-.1-3 .2-4.4.7-2.8 1.4-5.6 2.4-8.4 1.5-4.2 3.7-8.3 6.9-11.5 3.7-3.6 7.7-7.2 12.4-9.5 6-2.8 13.1-3.3 19.6-3.1 3.8.3 7.6.8 11.2 1.7 3.7.9 6.7 2.5 10.1 4.1 3.9 1.7 7.9 3.2 11.6 5.4 3.5 2.4 7.1 5 10 8.2 1.9 2 3.3 4.4 4.9 6.7.7 1.1 1.7 2.1 1.6 3.4-.1.8-.7 1.5-1.5 1.5-.5 0-.9-.3-1.1-.6-.7-.9-1.5-2.2-2.1-3.1-1-1.6-2.1-3.2-3.3-4.6-2.8-3.2-6.3-5.7-9.8-8.1-3.1-2-6.6-3.3-10-4.8-2.1-.9-4.2-2-6.2-2.9-3-1.3-6.2-2-9.5-2.6-4.3-.7-8.8-1-13.2-.5-3.7.4-7.5.9-11 2.5-3.7 1.7-6.8 4.3-9.9 7-3.6 3.1-6.5 7.2-8.1 11.7-1.2 3.5-2.3 7-3.2 10.7-.1.5 0 .9-.1 1.4-.3 1-1.6.8-1.9-.2m-18.4 273.6c-12.7-1.2-25.6-1.3-38.2-3.3-17.1-2.5-33.9-7-50.7-10.8-2.1-.5-4.3-1-6.4-1.5-4.2-1-8.1-2.8-12.1-4.3-6-2.2-12.2-4.3-17.5-8-5.3-3.8-10.7-7.4-16.1-11.1-6.7-4.7-12.6-10.6-16.3-18-1.9-3.7-4-7.3-5.6-11.2-2.4-5.9-3.7-12.2-4-18.5-.2-4.3.7-8.5 1.5-12.6 1.9-9.3 4.3-18.6 8.8-27 2.5-4.7 5.1-9.7 9.2-13.2 2.6-2.1 5.6-3.7 8.1-5.9 1.5-1.4 2.9-2.8 4.1-4.2.7-.9 1.7-2.3 2.9-1.2 1.6 2-1.4 4-2.6 5.4-1 1.1-2.1 2.1-3.2 3.1-3.1 2.7-6.9 4.4-9.6 7.6-2.1 2.5-3.7 5.3-5.2 8.2-3.9 6.9-6.3 14.5-8.2 22.1-1.3 5.7-2.8 11.6-2.7 17.5.3 5.5 1.4 11 3.3 16.2 1.7 4.1 3.9 8 5.9 12 5.7 11.4 15.8 17 25.8 23.9 3.8 2.7 7.5 5.5 11.8 7.4 3.6 1.6 7.3 2.8 11 4.2 3.7 1.5 7.3 3.1 11.1 4 8.5 2 16.9 3.9 25.4 5.9 12 2.9 24.1 5.5 36.4 7 7.2.9 14.2 1.4 21.4 1.7 4.7.2 9.3.9 13.9 1 2.9 0 5.8-.3 8.8-.5 7.6-.4 15.3-.6 22.9-1.3 5.2-.4 10.5-.2 15.7-1.1 4.9-1 9.8-1.4 14.7-1.5 6.6-.4 13.2-.6 19.7-1.1 4-.4 7.9-.9 11.9-1.5 4.1-.6 8.2-.9 12.2-1.5 4.1-.6 8.1-1.4 12.1-2 4.1-.7 8.3-1.2 12.3-2.3 6.3-1.8 12.7-3.2 18.8-5.3 4-1.5 7.8-3.3 11.8-4.8 3-1.1 6.1-2.2 8.9-3.8 2.7-1.6 5.3-3.3 8.1-4.8 8.3-4.5 16.2-8.4 21.6-16.5 4.2-6.1 9.7-11.2 13.7-17.5 2.4-3.7 4-7.9 5.2-12.2 1.1-4 1.8-8.2.6-12.2-1.4-6.4-5.7-10.6-12.3-11-4.2-.1-8.4 1.1-12.5 2.1-9 2.4-17.7 5.8-26.5 8.6-5.3 1.7-10.7 2.8-15.9 4.5-1.9.6-3.8 1.2-5.7 1.7-3.8 1.1-7.8 1.6-11.7 2.4-5.9 1.1-11.6 3-17.6 3.7-4.9.5-9.8.8-14.6 1.5-8.4 1.1-16.9 1-25.3 1.8-7.5.8-15.1.7-22.6 2-3.2.5-6.3 1.5-9.5 2-5.2.7-10.5 1.4-15.8 1.6-10.6-.1-21.3.3-31.9 0-6.2-.2-12.4-.9-18.6-1.6-4.3-.4-8.7-.8-12.5-3-4.4-2.7-8.8-6.4-10.6-11.3-1.2-3.8-1.3-8-.5-11.9.5-2.2 1.7-4.2 2.9-6.1 8.5-13.3 16.2-6.6 28.3-5.2 3.7.4 7.5 1 11.2 1 5.7-.2 11.5-.3 17.2-.7 10-1 19.9-1 29.8-2.3 5.4-.9 10.1-2.7 15.4-3.5 3.5-.6 7.1-.9 10.5-1.6 4.9-1.1 9.7-2.4 14.6-3.2 10.1-2 19.8-5.8 29.6-8.7 11.4-3.4 22.9-6.8 34.6-8.8 11.5-2.5 23.1-4.5 34.3-7.9 9.8-3.1 18.9-8.1 28.6-11.8 4.9-1.8 9.8-3.5 14.6-5.6 6.1-2.7 13.4-4.2 17.7-9.6 3.6-4.7 2.5-14.8 1.8-20.3s-1.9-11-3.8-16.2c-2.3-5.5-5.2-10.7-8.3-15.8-4.4-6.7-9.1-13.9-16.8-17.1-5-2-10.3-3.2-15.6-3.4-5.2 0-10.1 2.2-15 3.8-5.7 2.1-11.5 4.3-16.8 7.3-5.5 3.2-10.7 6.7-15.7 10.6-.5.4-1 .8-1.5 1.1-1.5.7-2.2-.8-1.4-2 1.8-2.2 4.2-3.9 6.5-5.6 1.7-1.3 3.5-2.6 5.3-3.8 5.1-3.7 10.8-6.5 16.7-8.7 5.7-2.2 11.6-4.4 17.6-5.8 4-.8 8.2-.2 12.2.6 5 1 10 2.6 14.1 5.6 4.4 3.1 7.6 7.5 10.7 11.9 2.4 3.5 4.6 7.1 6.6 10.9 1 1.9 2 3.7 2.9 5.6 2.7 5.6 4.1 11.8 5.2 17.9 1.1 7.3 1.9 15.1-.3 22.3-2.6 7.1-10.1 10-16.6 12.5-4 1.6-8 3.3-12 4.8-13 4.2-24.8 11.1-37.9 15-12.4 3.4-25.1 5.7-37.7 8.3-7.8 1.5-15.4 3.7-23 6-10.5 2.8-20.6 6.7-31.1 9.4-4.6 1.2-9.3 1.8-13.9 3-4.9 1.4-10 2.1-15 2.7-5.2.7-10.2 2.5-15.3 3.5-5.2.9-10.6 1.1-15.9 1.5-8.9.3-17.4 1.4-26.3 1.5-4.1.2-8.2.4-12.2-.1s-8.1-.7-12-1.7c-3.8-.8-7.8-2.4-11.7-1.6-2.8.8-5 2.7-6.7 5.1-1.2 1.7-2.4 3.5-3.1 5.5-.9 3.3-.8 6.9.1 10.2.9 2.5 2.7 4.4 4.6 6.2 5.5 5.1 10.2 5.5 17.3 6.1 6.8.7 13.2 1.4 20 1.5 7.2.2 14.3-.1 21.5-.1 5.8.2 11.6 0 17.3-.9 5.3-.4 10.5-1.9 15.7-2.8 9.8-1.4 19.7-1.5 29.6-2.4 4.2-.3 8.5-.4 12.8-.7 4.6-.5 9.2-1.1 13.8-1.5 3.7-.3 7.5-.6 11.1-1.4 5-1.1 9.9-2.5 14.9-3.3 2.6-.5 5.1-.9 7.6-1.5 5.1-1.5 10.3-3.2 15.4-4.4 15.1-3.8 29.3-11.2 44.9-12.8 5.1-.3 10.5 1.8 13.7 5.9 3.4 4.7 4.7 10.9 4 16.7-1 6.3-3.1 12.5-6.4 18-2.5 4.2-5.9 7.9-9.1 11.6-4.1 4.7-7.1 10.4-12 14.4-4.8 4.1-10.5 6.8-16 9.9-3.6 2-6.9 4.5-10.7 6.1-4.3 1.8-8.8 3.3-13.1 5.2-2.1.9-4.3 1.8-6.5 2.6-2.8.9-5.9 1.6-8.6 2.4-4.2 1.1-8.2 2.4-12.4 3.3-6.5 1.2-13 2.1-19.5 3.3-6.3.9-12.8 1.4-19.1 2.5-8.3 1.3-16.7 1.2-25 1.8-3.8.2-7.7.2-11.5.8-3.2.5-6.4 1.2-9.6 1.4-4.1.3-8.3.3-12.4.6-6.5.6-13.1.9-19.6 1.1-4.4 0-8.7.6-13.2.3"/><path d="M184.9 217.9c-.9-.2-1.8-.8-2.6-1.2q-3.9-2.4-7.8-5.1c-2.6-1.9-5.3-3.7-7.8-5.7-1.1-1-2.6-1.8-3.3-3.1-.3-.7 0-1.7.9-1.9.5-.1.8.1 1.2.4.9.6 1.7 1.2 2.6 1.8 3.2 2.3 6.8 4.7 9.9 6.8 1.8 1.1 3.6 2.3 5.4 3.3 1 .5 2 1.4 3.2 1 2.2-.7 4.2-2 6.1-3.2 3.1-2 6.1-4.1 8.6-6.9 1.6-1.6 3-6.7 5.9-5 .8.6 1.4 1.2 2.1 1.9 3.8 3.7 8.2 6.8 12.9 9.4 7 4.1 8.9 5.1 14.9-1.3 2-2.4 3.7-5.4 5-8.2.9-1.9 1.6-3.8 2.9-5.5.4-.6 1.2-.7 1.8-.3.6.5.8 1.4.5 2.1-.5 1.5-1.2 2.9-1.9 4.4-2.8 5.7-6.2 11.6-11.9 14.8-4.2 2.4-8.2-.3-11.9-2.3-3.6-2-7.1-4.1-10.2-6.7-1.9-1.5-3.6-3.2-5.4-4.8-1.2 1.5-1.9 3-3.1 4.4-1.9 2.1-4 3.9-6.3 5.5-2.9 1.8-8.2 6-11.7 5.4m87.2-7.7c-1.7-.2-3-1.3-4.4-2.2s-2.7-1.9-4.1-2.9c-3.1-2.3-6.2-4.7-9.1-7.1-1.1-1-2.7-1.8-3-3.4-.1-.8.6-1.8 1.4-1.5s1.5.9 2.2 1.4c1.9 1.5 3.8 3 5.7 4.4 2.7 2 5.4 4 8.2 5.9 1.5 1 3.2 2.4 5.1 1.7 6.6-1.9 14.6-15.4 17.4-21.6 1.5-3 4-.6 5.7.8 1.6 1.4 3.4 2.7 5.1 3.9 3.1 2 6.1 3.8 9.2 5.7 3 1.8 3.6 2.8 6.2-.3 1.5-1.9 2.8-3.9 4-5.7 2.9-4.6 6-9.2 8.3-14.2 2.5-5.7 6.1.8 8.4 3 3.6 4 8.2 7.1 13.4 8.5 3.3 1.1 5.3-2.1 6.4-4.6 2.1-4.6 3.6-9.6 5.8-14.2.7-1.3 1.2-2.9 2.7-3.5.9-.3 1.9.1 2.8.5 1.5.7 2.9 1.5 4.4 2.2 3 1.4 5.9 3.1 8.8 4.6 2.7 1.2 5.5 2.2 8.3 3.1 4.4 1.4 7.8-2.9 9.9-6.1 2.1-3.4 3.2-7.3 4.1-11.1.4-1.8.9-3.7 1.2-5.5.4-1.4.1-4.1 2.2-4 .9.2 1.5 1.2 1.3 2.1-.3 1.6-.7 3.2-1.1 4.8s-.7 3.1-1.1 4.6c-1.3 5.5-3.3 10.9-7.2 15.1-5 5.6-9 4.4-15.2 1.9-3-1.1-5.8-2.6-8.6-4.1-3-1.5-6-3.2-9.1-4.4-4.1 5.8-5.7 18.3-11.4 21.8-3.7 2.1-8.5-.7-11.9-2.4-4.7-2.6-8-6.8-11.6-10.6-2.2 4.2-4.5 8.3-7 12.2-2.4 3.5-5.6 10.2-9.6 11.6-1.7.5-3.4-.5-4.8-1.4-2.1-1.2-4.1-2.5-6.1-3.8-4-2.4-7.8-5.1-11.3-8.2-3.4 6.8-12.8 24.1-21.6 23m112.1-104c.3-.2.6-.6.8-.9l-.1.1c2.2-3.5 4.1-12.2 1.7-15.8-.3-.5-1-.3-1.4-.7-1.2 0-1.6 4.4-1.7 5.4q-.45 3.75-.3 7.5c.2 1.6.3 3.1 1 4.4m-.2 3.4c-4-.7-3.6-9.6-3.4-12.7.2-2.6.7-11.3 4.6-10.5.5-.6 1.3-.6 2-.4 1.6.7 2.4 2.5 2.9 4 1.7 3.8-1 19.8-6.1 19.6m-41.3 18.7c2.3 0 4.7.1 7-.1h.1c-2.9-1.7-6.1-2.7-9.3-3.5-2.6-.7-5.3-1.4-7.9-.7-1.2.3-2.3.8-3.3 1.4-.7.4-1.5-.1-1.7-.8-.9.9.8 1.8 1.5 2.1 4.3 1.7 9.1 1.4 13.6 1.6m1.5 3.4c-5.7-.1-12.3.4-17.3-2.5-4.8-3.3-1.6-9.4 3.8-8.1 2.8-1.4 6.1-.8 9-.1 3.9 1 7.9 2.2 11.4 4.2 1.9 1 3.7 3.3 1.9 5.3-1.8 1.7-6.3 1.1-8.8 1.2"/><path d="M343.2 130.1c-1.5-.3-2.9-.8-4.4-1-2.6-.2-5.2-.4-7.8-.7-1.4-.2-3-.3-4.3-.8-1.8-1.1-.8-3.6 1.3-3.3 2.9-2.7 9.9-2 13.2-.3 1.1.5 2.2 1.2 3.2 1.8.9.2 1.9.4 2.8.8 1.4.7.8 3.5-.9 3.1-.8.9-2.1.6-3.1.4m38.7-23.6c-.6-2.7-.2-5.6-.2-8.3.1-2.5.4-5.2 1.9-7.2.2-4 3.6-4.1 3.6-.1.1.1.1.1.1.2.9 0 1.4.9 1.4 1.7v4.3c-.1 2.1.2 9.4-3.3 8.2-.3 1-.6 2.3-1.8 2.5-.8.1-1.4-.6-1.7-1.3"/><path d="M350.3 130.7c-.9-.2-2.1 0-2.8-.7-1.1-.3-2.1-.6-3.1-1-.6-.2-1.3-.5-1.6-1.2-.3-.8.3-1.6 1.1-1.5 1.4.1 2.8.5 4.2.7.9-.2 2 .1 2.9.4 1.5.6 1.1 3.5-.7 3.3M194.4 235.8c-2.1-1.2 1.3-4.1 2.1-5.2 1.6-1.9 3.2-3.9 4.8-5.8 1.6-1.8 3.1-3.6 4.8-5.2 1.5-1.4 3.6-1.5 5.5-1 2.9.7 5.5 2.5 8.2 3.9 2.9 1.5 5.5 3.5 7.8 5.9.6.6 1.2 1.2 1.7 1.8.9 1.1 2.8 2.6 1.7 4.1-1.5 1.7-3.2-1.3-4.2-2.2-.8-.9-1.6-1.7-2.4-2.5-2.2-2-4.8-3.5-7.4-4.9-2.7-1.3-7.1-4.6-9.8-2-3.1 2.8-5.5 6.1-8.3 9.2-.9 1.1-1.9 2.1-2.9 3.1-.4.4-.9 1.1-1.6.8m48.4-4.2c-1.8-1.9 2.7-9.9 3.7-12.1 3.1-6.5 9.9-8.4 16-4.6 2.8 1.7 5 4.1 7.4 6.3 2.1 1.9 4.5 3.5 6.6 5.4 1.2 1.1.1 3.6-1.6 2.8-3.1-2-5.9-4.5-8.6-7-1.4-1.4-2.9-2.9-4.6-4-3.7-2.5-8.7-2.8-11.7 1-2.3 3.3-3.8 7.1-5.3 10.8-.1.3-.2.6-.2.9-.1.7-1.1 1.1-1.7.5m42.8-3.8.1.1c-2.6-2.8 5.9-13.3 7.9-15.9 3.3-4.5 6.8-5.4 12.1-3.7 4.5 1.5 9.2 3.6 13.1 6.1 1.8 1.1 3.4 2.6 5.1 3.8 2.3-3.4 4.3-6.9 6.6-10.3 1.6-2.4 3.1-4.9 4.8-7.1 1.6-2.3 4.1-4 6.9-4.2 6.7-.5 13.3 3.2 16.9 8.7 1 1.5 2.1 3 3 4.6.7 1.3-.8 3.3-2.2 2.3-.9-.8-1.4-2-2.1-2.9-2-3.2-4.7-6.2-8.3-7.7-2.9-1.2-6.3-2-9.3-.7-1 .4-1.7 1.1-2.4 1.9-1.4 1.7-2.7 3.6-3.9 5.4-2 3.1-4.1 6.1-5.9 9.3-.8 1.4-1.5 2.8-2.6 4-.7.9-1.7.7-2.6.2-1.6-.8-2.9-2.2-4.4-3.2-1.4-1-2.8-1.9-4.3-2.7-3.9-1.9-8-4-12.4-4.6-2.4-.4-4.3.9-5.8 2.7-3.1 3.7-6.1 7.6-8.2 12-.4.7-.5 1.5-1 2.1 0 0 0-.1.1-.1-.1.2-.4.4-.6.4-.2-.1-.4-.3-.6-.5M113 220.3c-1.8-7.5-3.6-15.7-1-23.2 1.4-4.6 5.3-11.3 9.5-13.8.7-.3 1.5-.5 2.1-.1.9.5 1.5 2.4.2 2.7h.1c-.4.2-.8-.1-1.1 0-1.5.8-2.5 2.3-3.6 3.6-2.9 3.8-4.9 8.3-5.4 13.1-.6 4.6.6 9.2 1.3 13.7.1 1.2.2 2.4.2 3.6.2 1.5-1.9 2-2.3.4m148 304.5c-6.9-.2-13.7-.8-20.4-2.1-1.7-.5-5.1-.1-4.8-2.7.4-2.5 3.5-1.1 5.1-1 3.3.6 6.8 1.3 10 1.5 6 .5 12.1 1.1 18 0 3.1-.4 6-1.5 8.8-2.6 4.3-1.5 9-1.7 13.5-2.3 2.2-.3 4.5-.5 6.7-1 2.5-.6 4.9-1.5 7.3-2.3 6.6-2.2 12.8-5.4 18.4-9.6l4.5-2.7c2.8-1.9 5.4-4.2 8-6.4 2.7-2.4 4.3-5.7 6.1-8.7 2.2-3.6 4-7.4 5.4-11.3 1.1-3.5 2-7.1 2.8-10.7 1.1-6 .7-12.1-.1-18.1-1.7-11.4-4.2-22.7-7.3-33.8-2.5-8.8-5.3-17.5-9-25.8-2.2-4.5-4.6-9-6.9-13.4-1.6-3-3.5-5.8-5.3-8.6-2.7-4.4-4.8-9.2-7.6-13.5-3.8-5.8-8-11.4-11.5-17.4-2.6-5.2-4.9-10.7-7.4-15.9l-4.5-10.2c-.5-1.2-1.1-2.4-1.5-3.7-.1-.5-.2-1.1 0-1.6.3-.7 1.2-1 1.7-.4 1.6 2.7 2.7 5.7 4.1 8.5q3 6.9 6.3 13.8c1.2 2.5 2.3 5.1 3.6 7.6 3.4 5.9 7.6 11.4 11.3 17.1 3 4.5 5.2 9.5 8 14.1 4 5.7 7.1 12 10.3 18.2 3.6 6.6 6 13.7 8.3 20.8 4.5 13.6 7.6 27.5 10 41.6 1.1 7 1.6 14.2.5 21.2-1.2 5.6-2.4 11.3-4.8 16.5-1.4 3.2-3.1 6.3-5 9.3-1.2 2-2.3 4-3.8 5.8-2.2 2.4-4.9 4.3-7.3 6.4-2.3 2-5 3.3-7.6 5-5.6 4.2-12 7.4-18.6 9.7-2.1.7-4.2 1.5-6.3 2.1-6.4 1.7-13.1 1.5-19.5 3-2 .6-4 1.4-6 2.1q-6.6 1.5-13.5 1.5"/><path d="M245.1 580.4c-1.7 0-3.5 0-5.2-.1-5.1-.2-10.1-1.6-15.1-2.7-3.5-.8-7.1-1.2-10.6-2.1-3.9-1.1-7.8-2.3-11.8-2.8-4.1-.6-8.1-.9-12.2-1.1-2.7-.1-5.4-.2-8-.6-4.2-.7-7.9-2.8-11.9-3.9-3-.9-6-1.8-9-2.9-3.5-1.2-7.1-1.9-10.6-3-2.1-.6-4.1-1.4-6.2-2-3.3-.8-6.5-1.5-9.7-2.6-2.4-.8-5-1.8-6.2-4.2-2.8-5.1 1.2-10.2 3.3-14.7 1.1-2.5 1.9-5 2.7-7.3 1.6-5 3.2-10 2.8-15.3-.6-8.2-2.3-16.2-3.4-24.3-.6-4.2-1.6-8.4-2.1-12.6-.4-3.2-1.1-6.4-.7-9.7.1-.7.6-1.3 1.3-1.3 1.6.2 1.3 2.3 1.6 3.5.2 1.9.3 3.8.6 5.7.5 4.1 1.3 8.2 2 12.3.6 5.1 1.6 10.1 2.4 15.2.5 3.5 1 7.1 1.3 10.6.3 3.6-.2 7.2-1.1 10.7-1.4 4.9-2.8 9.9-4.9 14.5-1.3 3.1-4.1 6.1-3.7 9.6.2 1.4 1.3 2.5 2.7 3 4.5 1.9 9.4 2.7 14.1 4.1 3.9 1.4 7.8 2.3 11.8 3.4 4.9 1.6 9.9 3.1 14.8 4.8 3.7 1.4 7.3 3 11.3 3.2 8.3.5 16.8.7 24.8 2.9 4.8 1.7 9.9 2.4 14.9 3.4 4.3.9 8.6 2.2 13.1 2.6 4.7.3 9.5.5 14.2-.1-4.7-3-9.4-6.1-14.5-8.4-4.9-2-9.8-3.8-14.8-5.4-1.2-.5-3-.4-3.4-1.9-.3-.9.2-2.1 1.3-2.3 5.3.6 10.5 2.3 15.8 3.2 5.9.7 11.7.8 17.7.6 9.7 0 19.7.8 29.1-1.8-4.6-4-10-6.3-15.7-8.1-6.9.5-13.5-1.9-20.2-3.3-1.6-.4-3.4-.5-5-.8-1.5-.1-2.6-1.2-2.1-2.8.7-1.8 3-.8 4.4-.6 1.1.3 2.2.4 3.3.5 6.7.7 13.6 1.1 20 3.4 5 0 10-.4 15-.4 2.4 0 4.8.2 7.1-.1-5.3-4.6-12.1-7.8-18.7-9.7-3.6-.9-7.2-1.7-10.8-2.5-4.9-1.1-9.8-2-14.8-2.4-4-.4-7.9-.3-11.8-.7-3.7-.3-6.3-2.1-3.8-5.9 1.8-2.8 3.4-5.6 4.8-8.6q4.8-9 6.9-18.9c4.8-19.2 5.4-41.7-7.9-57.8-1.1-1.3-2.4-2.3-3.8-3.2-3.4-2.1-6.8-3.9-10.3-5.8-1.4-.8-2.8-1.7-4.3-2.3-1.1-.2-1-2.1.1-2.3 1.7-.1 3.2 1.1 4.7 1.8 2.5 1.3 4.9 2.6 7.4 3.9 2.6 1.4 5.1 2.7 7.2 4.8 4.3 4.5 7.5 10.1 9.6 15.9 4.9 13.2 4.3 27.8 1.4 41.5-1.1 5.6-2.5 11.2-4.6 16.5-2.4 5.7-5.2 11.3-8.5 16.5 2.5.5 5.1.5 7.6.7 3.5.2 7 .4 10.5.9 6.9 1 13.6 2.7 20.3 4.3 4.7 1.2 8.7 2.9 12.9 5.1 3.1 1.6 5.9 3.6 8.5 6q.75.6 1.2 1.5c1.1 2-.3 4-2.4 4.3-2.6.6-5.3.4-7.9.3-2.3-.1-4.6.1-6.9.1 2.8 1.5 9.2 4.9 10.3 7.9.6 2-1 3.5-2.8 4-7.7 2.1-15.7 2.2-23.6 2.1-6.5-.2-13.1.2-19.6-.3 5 2.7 10 5.7 14.6 8.9 1.6 1 2 3.5.3 4.6-.9.6-2.1.7-3.2.9-2.6-.1-5.2-.1-7.9-.1"/><path d="M111.3 533.9c-9.9 0-20.1.1-29.9-1.3-3.6-.4-7.1-.1-10.7-.2-5-.3-9.6-.8-14.5-1.2-4.7-.5-9.2-1.8-13.8-2.2-2.4-.2-4.7-.4-7.1-.7-8.2-.9-16.5-.7-24.6-1.9-2.9-.5-6-1.1-8.4-3-3.3-2.5-2.8-6.9-.1-9.6 3.6-3.5 8.6-5 13.2-7 4.1-1.9 7.8-4.2 11.6-6.5 3.9-2.4 8-4.4 11.8-7 3.6-2.4 7.3-4.7 10.6-7.6 2.7-2.5 5.1-5.4 7.6-8.3 2.9-3.4 5.5-6.9 8.6-10.2 3.4-3.5 7.1-7.1 10.7-10.2-.1 0-.1.1-.2.1 2.2-2 4.4-4 6.4-6.2 4.9-6.1 8.7-13 12.8-19.6 5.9-10.6 13.4-20.7 18.5-31.7 3.5-7 5.2-14.6 7.2-22.1 1.3-5.1 3.4-10 5.1-15.1.9-2.8 1.5-5.6 2.3-8.4 1.4-4.7 3.3-9.3 4.3-14.2 1.8-9.8 1.5-19.8 3.4-29.6.1-.7.3-1.6.8-2.1.3-.3.8-.5 1.2-.2.4.2.6.8.6 1.2-1.9 9.7-1.6 19.7-3.1 29.5-.9 6-3.3 11.6-4.9 17.4-1.4 6.2-3.7 12.1-5.7 18.1-2.8 9-4.5 18.4-8.7 26.9-4.9 11-12.2 20.7-18 31.2-2.4 4-4.8 7.9-7.2 11.8-2.5 3.9-5 7.9-8.3 11.2-2.3 2.3-4.8 4.5-7.2 6.6-2.8 2.6-5.5 5.2-8.2 7.9-6.6 6.9-11.7 15.2-19.3 21.1-6.4 4.7-13.2 8.6-20.1 12.5-4 2.3-7.9 4.9-12.1 6.7-5 2.1-21.4 8.2-8.3 12 9.2 2 18.7 1.4 28.1 2.5 3.7.4 7.4.6 11.1 1.2 5.3 1.1 10.6 1.9 16 2.2 1.9.1 3.6.4 5.4.5 4.1.4 8.2 0 12.3.3 7.7 1 15.1 1.4 22.9 1.4 11.2 0 22.6.9 33.5-2.1 1.8-.3 2.3 2.7.6 3.3-4.1 1.3-8.5 1.7-12.7 2.2-4.3.6-8.9.5-13.5.4"/><path d="M79 455.5c-.6-.5-.8-1.3-1-2-.6-2.1-1.1-4.3-1.7-6.5-1.8-5.8-3.6-11.7-4.6-17.7-.3-2.1-.9-4.3-.6-6.4 1.1-6.5 14-6.1 19.1-6.8 4.2-.2 8.4.2 12.5.3.7 0 1.5 0 2 .7.7.9.4 2.7-.9 2.9-.8.1-1.6 0-2.4 0l-6.3-.3c-2.8-.2-5.6 0-8.4.2-3.1.2-6.2.4-9.2 1.2-1.6.5-4.1 1.2-3.7 3.4.4 5.2 1.6 10.3 3 15.2 1.5 4.5 2.5 9.1 3.6 13.6.1.3.3.7.3 1 .2 1.3-.9 2-1.7 1.2m31.7-45.6c-.6-.1-1.1-.7-1.5-1.2-.7-1-1.3-2.2-1.9-3.3-2.5-4.6-5.6-8.8-8.2-13.3-2.3-3.8-4.1-8-5.1-12.4-1.8-5.9 4.1-9.1 9-10 3.3-.7 6.7-.9 9.9-1.2 3.1-.3 6.1-1 9.1-1.6 1.1-.2 2.2-.7 3.3-.5 1.9.5 1.4 3.2-.3 3.6-5.1 1.3-10.6 2.2-15.7 2.5-3.5.4-12.5 1.1-12.7 5.4 1.1 8.2 6.6 14.7 10.7 21.6 1.5 2.4 2.7 5 4.1 7.5.8-.6 1.5.2 1.3 1-.1 1.1-.9 2.2-2 1.9m16.9-54.4c-4.8-3.5-8.7-8.3-12.6-12.7-2.4-3.1-5.9-6.1-6.3-10.2-.1-2.6 1.5-5 3.7-6.5 2.1-1.5 5-2.5 7.4-3.1 4.5-1.1 9.1-1.8 13.7-2.6.7 0 1.2.6 1.4 1.2.5 1.7-1.4 2.5-2.8 2.7l-5.1.9c-4.1.9-15.2 2.1-15.5 7.4.4 2.3 2.5 4.2 3.7 5.9 4.5 5.1 8.8 10.4 14.1 14.6 2.3-.7 1.7 4.8-1.7 2.4m27.4 98.4c-7.4-3-11.4-12.1-12.8-19.5-1.1-5.9-2.1-11.8-2.4-17.8-.3-5.9-.2-11.8-.3-17.7-.3-14.7.1-29.3 2.2-43.8.2-1.7.4-3.3.7-5 .2-1 .2-2.1 1-2.8 1-.8 2.3.3 2.2 1.4-.2 2.9-.8 5.8-1.2 8.6-.8 5.5-1.4 11.4-1.7 16.8-.5 8.8-.3 17.6-.2 26.5 0 5.5 0 10.9.3 16.4.3 5.2 1.3 10.7 2.2 15.7 1 5.7 3.2 11.4 7.4 15.5 1.3 1 2.7 2.3 4.4 2.4.3-3.1-.1-6.2-.2-9.3-.1-3.7-.7-7.5.1-11.2.3-1.1 1.4-1.9 2.5-1.2 1 .7 1.4 2 1.9 3.1 2.2 4.2 6.4 13.9 11 15.3.2-6.8-2.2-13.3-2.7-20 .1-2.1 2.1-2.9 3.3-1 2.7 4.2 5.5 8.4 9 12 2.1 1.9 6.1 6.6 9.2 5.5-.3-2.4-1.4-4.9-2.1-7.2-1.9-5.7-3.4-11.5-5-17.3-1.9-7.2-3.8-14.3-5-21.6-.7-4.4-1-8.9-1.1-13.4-.2-6-.1-12-.4-18-.1-6-.8-12.1-.6-18.1.1-1.6.4-5.6 2.6-5.2.4.1.6.4.7.8.1.6-.4.9-.6 1.4-.8 3.7-.2 7.5-.1 11.2.4 6.7.7 13.4 1 20.2.2 6.6.3 13.1 1.3 19.6 1.1 6.7 2.9 13.3 4.6 19.9 1.6 5.7 3.1 11.5 4.9 17.2.9 2.8 1.9 5.5 2.7 8.3.3 1.1.5 2.2.2 3.2-.4 1.9-2.5 2.9-4.3 2.6-5.4-.4-13.5-10.5-16.4-15 .5 2.9 1.1 5.4 1.5 8.2.3 2.8.8 5.1.3 7.7-1.1 3.6-4.9 2.2-6.9.2-4-3.7-6.3-8.7-8.7-13.4.1 3.2.3 6.4.4 9.6-.2 3.8 1 10.9-4.9 9.2m238 95.6c-4.9-.3-9.6-1.7-14.4-2.4-5.6-1.1-11.3-1.5-16.9-2.6-3.4-.8-6.9-1-10.4-1.4-3.2-.6-6.7-1.6-9.5-2.9-3.2-1.5-6.4-3.1-9.6-4.4-3.1-1.3-6-3.2-9.2-4.1-7-2-16.2 0-20.9-6.7-1.2-1.9-1.2-4.3-1.4-6.5 0-1.3-.4-3.7 1.4-3.8.8 0 1.4.7 1.4 1.4.2 2 0 4.1.6 6.1.6 1.7 2.4 2.7 3.9 3.4 4.9 1.9 10.4 1.2 15.4 2.6 3.7 1 7.1 3.1 10.6 4.6 2.9 1.2 5.7 2.6 8.6 4 3.4 1.4 7.2 2.7 10.8 3 3.3.2 6.5.7 9.7 1.4 6.3 1 12.7 1.8 19 3 5 .8 10.2 2.7 15.2 1.4-2.3-2.2-5.2-3.7-8-5.4q-2.55-1.5-5.1-2.7c-5.7-2.5-11.9-3.9-17.9-5.3-1.9-.4-1.6-3.7.4-3.5 3 .6 6.1 1.1 9.1 1.4 3.2.3 6.4 1.2 9.6 1.6 3.1.3 6.1.8 9.2 1.1 2.6.2 5.2.3 7.8.5 3.1.2 6.3.6 9.5 0-3.3-2.3-6.8-4.1-10.6-5.5-5.9-1.7-11.6-3.1-17.5-4.6-1.9-.6-3.9-.9-5.8-1.3-1.4-.5-1.4-2.9 0-3.4.5-.2.9 0 1.4.1 2.8.6 5.6.9 8.4 1.2 5.8.8 11.7 1.3 17.5 1.6 4.7.2 5.9.6 11.2.8-4.1-2.2-8.2-4.5-12.4-6.5-5.2-2.1-10.7-3.1-16.1-4.5-2.6-.7-5.2-1.7-7.8-2.3s-5.2-1.2-7.9-1.7c-2.1-.6-5.1-.5-6-2.7-.5-1.3.4-2.5 1.2-3.5l2.4-3.3c4.1-7 7.1-14.7 9-22.5 1.4-6.6 2.6-12.9 3-19.7.3-9.6.4-19.6-2.9-28.8-1.8-4.4-4.5-8.3-7.4-12-2.7-3.2-5.8-6.2-9.3-8.5-5.6-3.5-11.9-5.4-17.9-7.8-1.4-.7-3.6-1.4-3.5-3.3 0-.4.3-.9.8-1.1 1-.2 1.8.7 2.6 1 4.4 1.8 9 3 13.3 5 10.7 4 19 14.1 23.7 24.2 3.2 7.6 3.7 16 3.8 24.2.1 7.4-.6 14.8-2 21.9-1.3 8-3.8 15.9-7.4 23.2-1.5 3.4-3.4 6.6-5.6 9.6 3.6.9 7.4 1.5 10.8 2.4 2.8.7 5.5 1.7 8.3 2.4 5.9 1.5 11.8 2.5 17.3 5.1 3.9 2 7.7 4 11.5 6.1 1.2.7 2.6 1.4 3.5 2.5 1 1.2.6 3.2-.9 3.8-2.2.8-4.7.3-7 .2-3.3-.3-6.7-.6-10-.8 3.4 1.4 6.6 3.1 9.7 5.1 1.4 1 3.2 2.2 2.9 4.1-.3 2.3-2.8 2.8-4.7 3-2.5.3-4.9.2-7.4 0-5.1-.3-10.2-.5-15.2-1.3 4 2.3 8.4 4.3 11.5 7.9 1.2 1.4 1.1 3.5-.4 4.6-2.2 1.3-4.7 1.3-7 1.3m-6.1-160.8c2.2-.9 3.6-3 5.1-4.7 4-4.9 6.5-10.6 10.2-15.8 3.2-4.7 7-8.9 10.1-13.6 2.5-4.1 4.5-8.5 7-12.6 2.5-4.2 5.3-8.1 8.1-12 2.9-4.4 6.4-8.3 9.3-12.7 3.9-6.1 6.7-12.9 11.2-18.7 3.8-4.8 7.6-9.6 10.9-14.8 3.8-6.4 7.1-13 11.5-19 4.1-5.8 8.8-11 12.9-16.7 3.4-4.9 5.9-10.1 9.3-14.9 2.8-4.1 6.2-7.7 9.2-11.6 4.4-5.6 7.6-12 11.5-18 2.7-4.1 5.8-7.9 8.4-12.1 3.9-6.7 8-13.2 12.1-19.8-4.2-4.5-9.7-12.8-15.5-14.5-4.5 5.4-7.3 11.8-11 17.7-3.5 5.5-8 10.3-11.9 15.6-2.3 3.2-4.3 6.5-6.3 9.8-2.4 4.2-4.9 8.3-7.8 12.1-4.4 6.2-9 12.2-13.3 18.5-3.2 5.3-6 10.8-9.8 15.7-4.2 5.4-8.9 10.4-12.3 16.5-3.1 5.4-5.8 11.1-9.7 16-1.5 2-3.2 3.9-4.8 5.9-3.8 4.5-7 9.4-10.1 14.5-3.8 6.1-6.9 12.5-11.1 18.2-4.5 6.1-9.1 12.1-12.7 18.7-2.5 4.4-4.9 8.9-7.8 13-1.4 2.1-3 4-4.5 6.1-4.7 6.1-8.5 12.8-12.6 19.3.8 1.3 1.5 2.7 2.3 4 1.1 1.7 2.6 3.2 4.1 4.5 1.7 1.5 3.6 2.9 5.5 4.2.7.4 1.5 1 2.5 1.2m-1.3 3.4c-3.2-1.5-6.1-3.7-8.8-6-1.7-1.5-3.3-3.1-4.5-5.1-.9-1.4-1.7-2.9-2.6-4.4-1.5-1-.3-2.9.7-3.9 1-1.7 2-3.3 2.9-5 3.8-6.6 8-12.6 12.6-18.6 4.7-6.2 8-13.4 12.1-20 3.6-6 8.1-11.2 12-17 5.6-9 10.4-18.6 16.9-26.9 3.3-4.2 7-8.1 9.9-12.7 2.7-4.2 4.9-8.6 7.4-12.8 3.5-5.9 8.3-10.9 12.4-16.4 3.4-4.5 6-9.6 8.9-14.4 5.5-8.2 11.6-16 17.2-24.2 3.8-6.1 7.1-12.4 11.4-18.1 3.6-4.6 7.5-8.9 10.6-13.8 3.5-5.8 6.6-11.9 10.5-17.5 1.9-3.2 4.5-2 7.3-.3 4.3 2.8 7.5 7 10.8 10.8 1.2 1.4 2.3 2.7 3.5 4 .5.6.7 1.4.4 2.2-2.6 4.5-5.5 8.8-8.2 13.2-2.5 4.2-4.9 8.6-7.9 12.6q-5.25 6.9-9.6 14.4c-2.5 4.3-5.2 8.5-8.3 12.4-3.3 4.1-6.9 8.1-9.8 12.6-2.7 4.2-4.9 8.6-7.7 12.6-5.2 7-11.2 13.5-15.8 20.9-4.1 6.2-7 13-11.5 19-2.8 4.2-6.1 8-9.2 12-1.9 2.5-3.4 5.3-4.9 8-2.4 4.3-4.7 8.7-7.6 12.7-3.1 4.1-6.2 8.3-9.1 12.5-2.9 4.1-5.8 8.4-8.2 12.9-1.7 3.2-3.3 6.5-5.3 9.5-3.5 5-7.8 9.7-11 14.8-3.6 5.5-6.4 11.6-11 16.4-1.7 2-3.8 4.7-6.5 3.6"/><path d="M356.8 328.9c-4.5-.1-8.9-.3-13.4-.7-4.9-.3-9.8-.5-14.6-1.4-6.8-.9-13.2-3.3-19.4-6-4.4-2-8.5-4.6-12.2-7.6-.9-.7-1.8-1.4-2.6-2.2-.6-.6-1.4-1.2-1.6-2-.3-1.3.9-2.3 1.8-1.1 2.5 1.9 5.2 3.8 7.8 5.5 4.2 2.7 8.8 4.7 13.5 6.4 3.1 1.1 6.2 2.2 9.4 2.8 6.4 1.4 13 1.7 19.6 2.1 6.7.5 13.5.8 20.2.3 5.5-.5 10.9-1.1 16.4-1.2 4.3-.2 8.6-.3 12.9-1 1.9-.2 3.8-.9 5.8-.6 1.4.3 1.6 2.6.2 3.1-.6.2-1.2.3-1.9.3-8 1.6-16.1 1.4-24.2 2-5.8.8-11.7 1.6-17.7 1.3m14.2 39.6q-8.55-1.2-17.1-2.1c-4.3-.5-8.5-1.5-12.8-2.3-7.1-1.3-14.5-2.3-21-5.7-.7-.4-1.4-1-1.4-1.9 0-.5.2-1 .7-1.2.4-.2.8-.1 1.2.1 1.2.5 2.5 1 3.8 1.4 7 2.4 14.4 2.9 21.5 4.4 5.7 1.3 11.4 1.8 17.2 2.5 3.2.4 6.4.9 9.7 1.3.9.1 1.9.1 2.8.2 1.5.4 1.7 2.8.2 3.3s-3.2.2-4.8 0m32.4 2.6c-.5 0-1.1-.1-1.5-.5-.7-.6-.7-1.8 0-2.4q.45-.3.9 0h1.8c3.9-.3 7.8-.7 11.5-1.7l-2.7-6c-.5-1.3-1.5-2.5-1.6-3.9 0-1.6 1.3-2.1 2.7-2.4 1.1-.3 2.1-.5 3.2-.7 3.1-.6 6.1-1.5 8.8-3-1.5-3.2-4.2-5.8-6.1-8.7-.5-1.1.5-2.8 1.8-2.2.6.3 1 .9 1.5 1.4 1.3 1.5 2.4 3.1 3.5 4.7 2.4 3.3 4.1 6.8-.8 8.7-3.5 1.8-7.4 2.2-11.3 3.1 1 2 1.9 4 2.8 6.1.7 1.6 1.9 3.7.4 5.3-1.4 1.8-12.2 2.4-14.9 2.2m-15.8-4.8c-2.2-1.7-3.8-4-5.9-5.9-.6.2-.9-.4-1-.9-.3-.7 0-1.7.8-1.8.6-.1 1.1.3 1.5.6.7.6 1.4 1.2 2.1 1.9 1.3 1.3 2.7 2.6 3.8 4 .8.9-.1 2.8-1.3 2.1m3.2-11c-.9-.5-1.7-1.3-2.5-2-.8-.6-1.3-1.9-.3-2.5.6-.3 1.1.1 1.5.4.9.7 1.7 1.4 2.4 2.2.9.8 0 2.5-1.1 1.9m2.9-7c-1.1-.8-2.2-2.1-2.1-3.5.1-.7.7-1.3 1.4-1 .8.7 1.5 1.8 2 2.7s-.3 2.3-1.3 1.8m4.5-6.8c-1-.5-1.7-1.4-2.3-2.2-.7-.8-1.3-2.5 0-3.1.5-.2 1 .1 1.2.6.4.5.8 1 1.3 1.4.7.7 1.8 1.7 1.2 2.8-.3.5-.9.7-1.4.5m3.2-7.3c-.3-.2-.7-.4-1-.7-.3-.2-.5-.4-.8-.6-.7.1-1.1-.8-1-1.4 0-.8.9-1.5 1.7-1.2.9.3 1.7.9 2.4 1.6 1 .9.1 3-1.3 2.3m13-1.2c-1.3-.8-2.1-2.2-3.2-3.3q-2.1-2.55-4.5-4.8c-.3-.3-.6-.6-.7-.9-.4-.8 0-2 1-1.8 1 .3 1.8 1.2 2.5 1.8 2.3 2.1 4.5 4.3 6.4 6.7.9.9-.1 3-1.5 2.3m1.8-15.3c-1.5-.7-2.7-2-3.8-3.2-.7-.9 0-2.5 1.2-2.1 1.5.7 2.7 1.9 3.8 3.1.4.4.4 1.1.1 1.6s-.8.8-1.3.6m4.2-6.6c-1.4-.8-2.6-1.8-3.7-2.8-1.1-.8-.7-2.9.8-2.5 1.5.7 2.7 1.9 4 2.9.5.4.7 1.1.4 1.7-.1.6-.9 1-1.5.7m4.9-7.5c-1.5-.6-2.8-1.8-4-2.9-1.6-1-.7-3.5 1.2-2.4 1.1.6 2.1 1.5 3 2.3.7.6 1.5 1.4 1.1 2.3-.2.5-.8.9-1.3.7m2.6-8.1c-.7-.4-1.3-.9-1.9-1.3-.6.2-1-.3-1.1-.8-.3-.6-.2-1.5.3-1.9 1.3-.9 2.9.6 4 1.4 1.2.8.3 3.3-1.3 2.6m9.8-2.4c-1.4-1.3-2.5-2.8-3.8-4.3-.7-1-1.8-1.9-2.2-3.1-.3-1.4 1.1-2 2.1-1 2 1.9 3.9 3.9 5.7 5.9 1 1.2-.3 3.6-1.8 2.5m3.2-11.8c-1.1-.4-2.3-1.5-3.2-2.2-.5-.4-1.1-.9-1.3-1.5-.3-.9.5-1.9 1.4-1.5 1.2.5 2.6 1.6 3.5 2.3.7.6 1.3 1.5.8 2.4-.2.5-.7.7-1.2.5m3.9-7.6c-.8-.5-1.5-1.1-2.2-1.8-.5-.6-1.2-1.1-1.5-1.9-.2-.7.3-1.6 1.2-1.5.7.2 1.2.7 1.8 1.1 1 .9 3.1 1.9 2.2 3.6-.3.5-1 .8-1.5.5m4.5-6.6c-1.7-.5-3.1-1.7-4.7-2.6-.9-.5-.7-2 .2-2.3 1.1-.3 2.1.4 3.1.9 1.1.7 3.3 1.7 2.7 3.3-.1.5-.7.9-1.3.7m2.4-5.8c-1.1-.6-2-1.5-3-2.2-.8-.4-.8-1.7-.1-2.2.5-.4 1.2-.3 1.7 0 1 .5 2 1.1 2.8 1.9 1 .9 0 3.2-1.4 2.5m9.5-3.1c-2.7-1.9-4.4-4.7-6.4-7.2-.4-.5-.9-1.2-.9-1.9-.1-.8.6-1.8 1.5-1.3.8.5 1.3 1.3 1.9 1.9 1.8 2.1 3.8 3.9 5.5 6.1.7 1.1-.2 3.1-1.6 2.4m.4-11.6c-.8-.7-1.5-1.6-2.2-2.5-.4-.6-.5-1.5.1-2 .7-.5 1.3 0 1.9.5.7.6 1.3 1.3 1.9 2 1 1.1-.4 3.2-1.7 2m6.4-5c-1.1-.4-2.1-1.6-3-2.3-.4-.4-.8-.6-1.1-1-.4-.6-.3-1.4.2-1.9 1.1-1.1 4.4 2.2 5 3.1.7.9.1 2.5-1.1 2.1m2.7-8.2c-1-.9-2.2-1.9-2.4-3.3-.2-.9.9-2 1.7-1.1.8.8 1.6 1.6 2.2 2.4.8 1-.3 2.9-1.5 2m2.8-7.3c-.6-.4-1.1-1-1.4-1.6-.3-.7.1-1.8 1-1.8 1.3.2 2.8 1.7 2.1 3-.4.6-1.1.8-1.7.4m10.7-1c-2.5-2.1-4.5-4.9-6.1-7.8-.6-.9-1.1-2.8.4-3 1 .1 1.4 1.4 2 2.1 1.5 2.3 3.6 4.2 5.4 6.3 1 1.2-.2 3.5-1.7 2.4m.8-11.7c-1.3-.9-2.3-2.3-3.3-3.6-.6-.7-.8-2.1.2-2.4 1 0 1.6 1 2.4 1.6.8.8 1.6 1.5 2.2 2.4s-.4 2.6-1.5 2m4.9-6.5c-1.2-.6-2.3-1.7-3.6-2.2-.6-.2-.8-.9-.7-1.5.2-.8 1.1-1.2 1.8-.9 1.4.4 2.6 1.3 3.7 2.3.5.4.5 1.3.2 1.8-.2.5-.8.8-1.4.5m4-7.8c-1-.7-1.9-1.6-2.7-2.5-.6-.6-.5-1.7.3-2.1 1.4-.7 3.2 1.7 3.9 2.7s-.3 2.7-1.5 1.9m2.7-8c-.6-.8-1.2-1.5-1.4-2.5-.2-1.1 1.1-1.9 1.9-1 .6.5 1 1.1 1.4 1.8.8 1.3-.7 3.1-1.9 1.7m11-.3c-2.3-1.7-4.2-3.8-6.2-5.9-.5-.6-1.3-1.4-1.2-2.3s1.1-1.4 1.8-.8c1.6 1.3 3.1 2.7 4.7 4 .9.7 1.8 1.4 2.5 2.4.9 1.2-.1 3.4-1.6 2.6m-1.1-9c-.8-.8-1.7-1.6-2.4-2.5-.7-.7-.5-2.2.6-2.3.4 0 .8.3 1.1.5.9.7 1.6 1.5 2.3 2.4.7 1.1-.5 2.9-1.6 1.9m4.6-6.2c-1.1-.9-2-1.9-3-2.9-.4-.4-.3-1.2.1-1.6.9-.8 1.9.2 2.5.7.9.9 2.7 2.2 1.7 3.6-.2.4-.8.6-1.3.2m4.1-6.1c-.4-.3-.8-.7-1.1-1l-1.2-1.2c-1.8.3-1-2.5.3-2.5 1 0 1.6.9 2.3 1.5.7.8 1.9 1.9 1.1 3-.3.4-1 .6-1.4.2m2.5-6.1q-1.05-.9-1.8-2.1c-.5-.7-.2-1.9.7-2 .7-.2 1.3.6 1.8 1.1.6.8 1.5 1.9.8 2.8-.4.4-1 .6-1.5.2m-136.6-103c-.7-.3-.7-1.2-.7-1.8-.1-1-.1-1.9-.1-2.9.1-4 .7-8 1-12.1.4-3.7.5-7.5.8-11.2.2-3.5 2.6-3.2 5.4-3.1 4.7.2 9.3.6 14 .9 6.2.4 12.4.4 18.6.3 3.1 0 6.1-.2 9.1-.4 6.1-.4 12.3-.2 18.5-.1 9.2.2 18.4-.4 27.6-.4 9.3-.1 18.7.3 28 0 9.3-.1 18.6-.1 28-.1 15.8-.6 31.6-.6 47.4-.7 9.6 0 19.2-.1 28.7.5 9.4.6 18.8.7 28.1 1.2 9.4.3 18.7.8 28 2 6.8 1 13.7 1.7 20.5 2.4.8.1 1.2 1 1.2 1.7 0 .8-.6 1.7-1.5 1.7-2.8-.1-5.5-.5-8.3-.8-6.8-.8-13.9-2-20.7-2.5-15.5-1.3-31.1-1.3-46.7-2.3-19-1-38-.4-57-.4-6.3 0-12.6.3-18.9.5-12.5 0-25.1 0-37.6.1-9.3-.2-18.6-.3-27.9 0-12.3.6-24.6.1-36.9.6-9.1.7-18.3.7-27.4.3-5.9-.2-11.8-1.1-17.7-1.2-.5 2.8-.4 5.4-.6 8.1-.3 4.8-.9 9.5-1.3 14.3-.1 1.2-.1 2.4-.2 3.6.2.8-.2 2.3-1.4 1.8m2.9 145.3c-.2-5.1.1-10.2 0-15.3 0-4.7-.1-9.4.2-14 .1-1 1.3-1.7 2-.9.5.5.5 1.2.5 1.9.2 7.2 0 14.4.1 21.6 0 2.3 0 4.5-.1 6.8-.1.7-.6 1.3-1.3 1.3-.8-.1-1.3-.7-1.4-1.4m-1.2 106.7c-1.6-.7-1.5-3-1.5-4.4-.2-2.8-.3-5.5-.3-8.3 0-12.6-.1-25.2.3-37.9.2-1.4-.3-4.7 1.6-4.9.7 0 1.1.7 1.2 1.4-.5 11.4-.1 22.9-.2 34.3 0 5.5-.2 11 .4 16.5 5.4.1 10.9-.2 16.3-.1 2.1 0 4.2-.2 6.3-.3.7 0 1.4-.1 2 .2 1.1.4 1.2 2.2.2 2.8-.6.4-1.3.3-1.9.4-1.9 0-3.7.2-5.6.3-4.6.1-9.3 0-13.9.2-1.7-.2-3.3.1-4.9-.2"/><path d="M408 311.2c-.8-.3-1.2-1.3-.8-2 .4-.8 1.4-.8 2.1-.9q1.65-.15 3.3 0c.3 0 .5.1.7.3.7.7.4 2-.5 2.2-1.5.3-3.2.6-4.8.4m34.5 1.3c-1-2.4 2.3-2.7 4-2.8 5.7-.4 11.4-.2 17-.5 9.7-.4 19.4-.9 29-.9 12.4-.1 24.9-.5 37.3-.1 5 .3 9.9.5 14.9.9 10.3.7 20.6.5 30.9.5 7.4 0 14.7.1 22.1-.2 7.4-.2 14.7-.8 22-1.1 18.5-.4 37.1-.1 55.6-.6 2.1-.1 4.2-.1 6.2-.5.9-.3 1.7.5 1.8 1.4.2 2.5-2.9 2.1-4.6 2.3-3 .2-5.9.4-8.9.4-9 0-17.9.1-26.9.1-9.7 0-19.4-.1-29.1.4-20.1 1.4-40.3 1.2-60.4.9-7.4-.1-14.8-1-22.3-1.2-17.2-.3-34.4.1-51.6.3-5 .2-10 .5-15 .6-6.7.3-13.4 0-20 .4-.6.2-1.5.6-2-.3"/><path d="M679.3 307.7c.3-21.9-.3-43.8.7-65.7.3-4.9.7-9.8.8-14.7.6-19.3-.1-38.5.8-57.8.3-6.9 1-13.6 1.1-20.4.2-8.1.7-16.1.9-24.2.3-12.5 1.5-24.9 1.7-37.4s-.3-25-1.1-37.4c-.2-3.2-.4-6.3-.4-9.5.1-1.1-.2-2.9 1.3-3.1 1.8 0 1.1 3.7 1.3 4.9.1 2.5.3 5 .4 7.5 1.4 19.5 1.6 39 .1 58.5-.7 16.3-1.2 32.7-1.9 49-2.2 26.7-.5 53.6-2.1 80.4-1.3 22.2-.8 44.3-.9 66.5 0 1.1.1 2.2 0 3.2-.1.7-.7 1.4-1.4 1.4-.6.2-1.2-.5-1.3-1.2m-272.9-75.6c-2-2.2 1.5-4.5 2.5-6.4 2.8-3.8 6.5-7 10.6-9.4 2.2-1.3 3.6 1.3 4.8 2.7 2 2.2 4 4.2 6.3 5.9 5.2-6.9 9.9-14.2 14.8-21.3 2.8-4.4 4.6-9.4 7.8-13.6 6.6-11.6 12.6 1.4 20.4 3.4 2.3-2.2 3.5-5.3 5.3-7.8 2.4-4.1 5.8-7.6 8.9-11.2 2.8-3.2 4.4-7.2 6.9-10.7 3.2-4.1 6.7-8 9.9-12 3.4-2.6 6.3 3.6 10.7 3.6 1.8.4 2 3.2.3 3.9-3.4.2-6.3-2.1-9-3.9-3.3 4.3-7.2 8.1-10.2 12.6-1.6 2.6-3 5.4-4.9 8-3.2 4.2-7.1 7.8-9.8 12.4-6.9 12.1-7.9 12-18.9 3.5-1.3-.8-3.2-2.8-4.7-1.7-2.8 2.6-4.5 5.8-6.2 9.1-5 9.7-11.8 18.3-17.7 27.4-1.1 1.7-2.8 4.3-5 2.6-3.4-2.3-6.4-5.4-9-8.7-3.2 1.8-6 4.4-8.4 7.2-1.4 1.3-3.2 5.5-5.4 4.4m119.3-71c-2.5-2.7 4.5-7.3 5.7-9.9 10.7-16.9 6.1-11.4 25.2-.4 3.7-4.5 6-9.8 8.9-14.8 2.5-4.6 6.2-8.4 8.9-12.8 2.3-2.5 3.1-9.6 7.6-8.4 8.6 3.6 15 11 23.6 14.5 3.1-5.8 7.1-10.9 11.1-16.1 5.2-10.1 12.2-19.1 17.6-29.1 3.9-9.3 11.5-16.5 15.2-25.9-2.2.3-6.9 2.8-8.4 1.9-1.1-.9-1.1-2.9.2-3.6 3.1-1.1 6.3-1.8 9.2-3.2.5-.8 1.6-1.4 2.4-1 2.2-.5 2.7 2.5 1.6 3.9.2 3.4 1.6 6.7 1.1 10.1-.3 1.9-3 2.2-3.6.3-.5-1.2-.5-2.6-.7-3.9-2.8 5.9-6.8 11.1-10.5 16.5-2.7 4.1-4.3 8.9-7 13-5.1 7.2-9.7 14.8-13.7 22.7-3.3 5.3-7.8 9.9-10.5 15.6-2.6 6.2-6.8 2.5-11 .4-6.1-3.5-11.1-8.6-17.6-11.6-3 5.7-6.8 10.9-10.7 16.1-3.3 5.1-5.6 10.8-9.1 15.8-1.4 2.3-3.8 6.1-6.7 3.4-5-3.1-9.7-6.5-14.6-9.8-2.8 3.7-4.6 7.6-7.6 11-1.4 1.1-4.9 6.4-6.6 5.3M411.1 281.4h2.1c1.4 0 2.8 0 4.2-.1.7-11.9-.3-23.8.7-35.6-2.6-.2-5.2-.1-7.8-.1-.3 3.7.1 7.4 0 11.1-.2 8.2.2 16.4-.3 24.6.3.1.7.1 1.1.1m.5 3.3c-1.6-.1-4.2.4-4.5-1.7.3-6.3.5-12.6.4-18.9.1-5 .1-10 .1-14.9 0-1.3 0-2.6.1-3.9.1-.7 0-1.5.5-2 .6-.6 1.6-.5 2.4-.6 2-.1 3.9-.1 5.9-.1 2.2 0 4.5.4 4 3.2-.7 6.3-.4 12.6-.5 18.9 0 5.7 0 11.4-.2 17.1 0 1.7-1 3-2.8 2.9zm15.7-14.3c1.8 0 3.6.1 5.4 0 .9-5.3.7-10.7 1.1-16.1-2.6-.3-5.2 0-7.7-.2-.4 1.7-.1 3.8-.1 5.5.3 3.6.5 7.1.2 10.7.4.1.7.1 1.1.1m.6 3.1c-4.1.1-4.7-.2-4.2-4.3.1-2.4.1-4.8-.1-7.2.1-1.7-1.3-11.1 1.8-10.1 1.2-.5 2.6-.3 3.9-.4 1.8.1 5.3-.6 6.5 1 .7 1 .4 2.3.3 3.4-.2 3.7-.3 7.4-.6 11.2 0 1.4-.4 2.7-.5 4.1 0 .8-.3 1.8-1.1 2.2-1.9.2-4 .1-6 .1m12.7-7.8c-.4-.7-.2-1.6-.2-2.3.1-2.4.2-4.8.2-7.3 0-4.6 0-9.2-.1-13.9 0-2.9 0-5.8.2-8.5.2-1.2-.1-2.6.4-3.7.6-1.1 2-.8 3-.7s1.9.3 2.9.4c.8.2 1.8.2 2.5.8 1 1 .6 2.6.7 3.9v3.6c-.1 5.2.3 10.4 0 15.5-.4 1.3-1.9 1.3-2.2 0-.3-1.8.1-3.7-.1-5.6-.1-5.1-.1-10.1-.2-15.2-1.6-.3-3.2-.6-4.8-.8-.8 6.2-.4 12.4-.4 18.6.1 3.6.1 7.3 0 10.9-.2 1.2.1 4-1.1 4.5-.2.2-.6.1-.8-.2"/><path d="M456.8 243.2c-.9-1.3-.6-3.1-.8-4.5-.1-3.6-.1-7.2-.1-10.8 0-3.3 0-6.6-.3-9.9-.2-2.3-.7-4.5-.7-6.8.1-2.6-.2-5.6 3.3-5.7 1.6-.2 3.3-.3 4.9-.3 1.2-.2 2.1.6 2.2 1.8.2 6.7-.1 13.3 0 20v2.8c0 1.2.5 3.3-1.1 3.5-1.3-.1-1.2-1.7-1.2-2.7-.1-2.4 0-4.8 0-7.2 0-5.1.2-10.3 0-15.4-1.8.1-3.7.1-5.5.4-.6 2.2-.2 4.6.1 6.8.3 2.3.5 4.7.6 7 .1 5.8 0 11.6.2 17.4.8.4.3 1.2.3 1.9s.1 1.6-.6 2c-.6.1-1 0-1.3-.3m14.3-20.2c-1.2-.5-.7-2.7-.8-3.8 0-3.6-.4-7.3.5-10.8.7-1.7 2.8-.7 4.2-1 1.3-.1 2.5-.5 3.8-.5.8 0 1.3.8 1.3 1.5-.1 1.6-1.3 1.5-2.5 1.5-1.6.4-3.3.5-5 .2-.4 3.3-.1 6.7-.1 10 0 .8.2 1.6-.1 2.3-.3.4-.8.8-1.3.6"/><path d="M478.2 209c0-1.5 2-1.5 2 0 0 1.6-2 1.6-2 0m23.3 32.6c-2.1-.2-1.9-2.6-1.8-4.1 0-2.8-.2-5.6-.1-8.4 0-1.1.1-2.6 1.2-3.2.4-.2.8.1.9.4.2.3.1.6.1 1v2.2c.1 3.1.1 6.2.2 9.3 1.7-.4 3.5-.8 5-1.8-.3-6.3-.5-12.6.4-18.8.2-1.2-.5-3.5 1.2-3.7 1.9.1.9 4 .9 5.3-.6 4.8-.4 9.6-.2 14.3 0 1.7.7 3.7-.6 5.1-1.2 1.1-3 1.4-4.5 1.9-.9.1-1.8.5-2.7.5m12.7-23.8c-.8-.9-.7-2.3-.8-3.4 0-2-.4-4-.3-6 .1-.6.6-1.2 1.2-1 1.3.5 1.1 2.7 1.3 3.9.1 1.3.2 2.5.3 3.7 1.5-.8 3-1.3 4.5-2-.6-3.3-1-6.7-1-10.1.1-1.9-.3-3.9.3-5.7.4-1.1 1.8-.9 2.1.2.1.7 0 1.4 0 2.2q-.15 4.05.3 8.1c.1 1.1.3 2.2.5 3.3.3 1.4.8 3-.3 4.2-1.1.9-2.6 1.2-3.8 1.8-1.4.3-3.1 1.9-4.3.8m19.3-23c-1 0-2-.2-3-.3-1.9-.1-2.3-1.5-1.9-3.1.6-3.4.3-6.5.8-9.8.4-1.3 2-1.2 2.2.2 0 3.3-.1 6.5-.4 9.9 2.5.4 5.1.3 7.7.2.1-2.9.5-5.8.7-8.7.3-5.9-.3-11.9.2-17.8-2.7-.1-5.5.2-8.2-.2-1.3-.5-.9-2.3.5-2.4 2.3-.1 4.6-.1 6.9-.2 3.3-.3 3.4 1.8 3 4.4-.4 5 .1 9.9 0 14.9 0 3.6-.6 7-.7 10.4.2 1.8-1 2.6-2.7 2.5zm13.3-8.7c2.6-.5 5.2-.5 7.7-.9-.8-5-.3-10.1-.6-15.2-2.4.1-4.8.5-7.3.6.2 5.2-.1 10.4.2 15.5m-1.3 2.3c-1.4-1.5-.8-3.9-1-5.8 0-3.1 0-6.3.1-9.4v-3.8c-.2-.8.1-2.3 1.2-1.8 2.2-.2 4.4-.1 6.6-.3 1.2-.1 3-.4 3.5 1.1.4 1.6.3 3.2.3 4.9 0 2.7.1 5.8.2 8.4 0 1.5.5 3 .5 4.5-.2 2-2.9 1.8-4.3 2-.4 0-.7.1-1.1.1-1.5.1-2.6.2-4 .4-.6.1-1.4.2-2-.3m20 4.4c.1-4.4.2-8.8.3-13.1-1.6 0-3.2 0-4.7-.1.1 4.3-.1 8.6-.7 12.9 1.7.2 3.3.4 5.1.3m-.4 3c-2-.1-4-.1-5.9-.5-.8-.2-1.3-.8-1.4-1.6-.1-2.5.7-5 .7-7.6.1-1.9.2-3.8.1-5.7-.1-1.1-.3-3.4 1.4-3.1 1.6-.2 3.3-.2 4.9-.2 1.3-.1 2.9.2 3 1.8 0 3.5-.2 7-.2 10.4-.1 2.2 1 6.8-2.6 6.5m9.4-12.8c1.9-.3 3.9-.8 5.7-1.5-.3-5.2-.2-10.4-.4-15.6-.1-2.4-.4-5.1-.6-7.3-.2-2.5 0-5.1-.3-7.7-1.6.5-3.1 1-4.8 1.3.6 10.2-.3 20.5.4 30.8m-1.6 2.7c-1.3-1.1-.9-3.1-1-4.6-.1-2.6 0-5.2 0-7.8.2-7.3.2-14.7.3-22-.5-1.4.7-2.3 2-2.4 1-.2 2.2-.4 3.1-.7 2.3-.7 3.8-1 4 2 .3 2.6.2 5.3.3 7.8.5 5.2.8 10.4.8 15.6l.3 7.8c.3 2-1.1 2.8-2.8 3.3-1.2.4-2.4.7-3.6 1-1.1.2-2.4.7-3.4 0m14.2-48.7c.3 10.9.1 21.7.2 32.6 1.8-.5 3.7-1 5.5-1.4-.6-10.8 1-21.6-.9-32.3-1.6.4-3.3.6-4.9.7.1.1.1.2.1.4m-1 35.7c-2-.7-1.1-3.8-1.2-5.5v-7.4c0-5.2 0-10.4.1-15.5v-6.2c.1-1-.3-2.5.9-2.9-.2-2.2 2.6-2 4-2.2 2.4-.3 4.3-1.2 4.6 2.1.6 3.4.9 6.8 1 10.3.3 7.4-.5 14.9.1 22.3.5 3.8-2.8 3.4-5.4 4.2-1.5.3-2.7 1-4.1.8m16-4.9 6.6-.9c-.1-3.6-.2-7.2-.1-10.8 0-2.5.2-5.1-.5-7.4-2.1-.1-4.2 0-6.2.6.2 6.1-.1 12.3.2 18.5m-2.2 1.4c-.3-4.7 0-9.4-.1-14.1 0-2.2 0-4.5-.1-6.7-.1-.5 0-1.2.4-1.5.9-1.5 3.7-1.3 5.2-1.4 2.8 0 5-.2 5.3 3.3.8 5 .1 10.1.5 15.1-.1 1.8.9 4.7-1.1 5.7-2.1.6-4.3.5-6.4.9-1.6.3-3.3.7-3.7-1.3m21.4-15c.3 0 .7-.1 1-.1-.2-5.6.1-11.2-.2-16.7-1.7.4-3.4.9-5.1.9.2 5.3-.2 10.7.3 16h.3c1.3.1 2.7 0 4-.1zm-4.8 3c-1.8-.4-1.7-2.5-1.8-4-.1-2.5 0-5.1 0-7.6 0-2.7.1-5.3.2-8 0-.5 0-.9.2-1.4.5-1.4 2.2-1.3 3.4-1.5 1.4-.1 2.7-.5 4.1-.7 1.6-.1 2 1.7 2 2.8.2 2.4.1 4.8.1 7.2 0 3.2.1 6.5.2 9.7.3 2.3-.6 3.3-2.9 3.3-1.8.3-3.7.5-5.5.2m15.8-10.4c1-.1 1.9-.3 2.9-.5.2 0 .3-.1.5-.2-.6-5-.4-10-.6-15-.1-2.3-.5-4.6-.7-6.9-.4-3.7-.2-7.5-.8-11.2h-.8c-1 .1-1.9.3-2.9.3.3 11.1.3 22.3.8 33.4.6.2 1.1.1 1.6.1m-2.1 3.3c-1.6-.1-2.1-1.5-2.1-2.9 0-1.7 0-3.4-.1-5.1-.2-5 0-10.1-.2-15.1-.2-4-.1-7.9-.1-11.9v-4c0-.9 1-1.6 1.7-.9 1.3-.5 2.7-.4 4-.3 1-.1 2.1.4 2.5 1.4.9 3.5.8 7.2 1.1 10.8s.9 7.2 1 10.9c.1 3 0 6 .2 9 .1 1.3.2 2.5.4 3.8.2 1 .1 2.2-.8 2.9-.5.5-1.2.6-1.9.8-2 .3-3.9.6-5.7.6m14.2-60.5c.4 7.6-.2 15.1-.4 22.6-.1 10 0 20.1-.2 30.1 2.2-.3 4.4-.6 6.5-1.2-.5-11.8.1-23.6.4-35.5-.1-5.8.1-11.5-.1-17.3-2 .3-4.1.3-6.1.8-.1.3-.1.4-.1.5m-2.5 55.3c-.6-.6-.7-1.5-.7-2.3v-2.8c0-2.4.1-4.7.2-7.1.2-9.9-.2-19.8.6-29.6.3-3.8.2-7.7.2-11.5-.1-1.2.1-2.5-.2-3.7-.3-2.7 3.5-2.1 5.3-2.4 1.3-.1 2.5-.2 3.8-.3.9 0 1.7.7 1.9 1.7.3 3.3 0 6.7.1 10.1.2 7.8-.1 15.5-.3 23.3-.2 7.2-.1 14.5 0 21.7-.3 2.6-3.9 2.4-5.8 2.9-.9.2-1.9.3-2.8.5-.8.1-1.7.2-2.3-.5M136.1 311.1c-.1-1.5.2-3.1.3-4.6.1-.6.1-1.2.5-1.7.9-1.2 2.4-.3 2.3 1l-.3 3.6c-.1.9 0 1.9-.6 2.6-.8 1-2.1.2-2.2-.9m93.6 264.5c0-2.1 2.7-3.9 4-5.4 1.5-1.4 2.8-3 4.3-4.2 1.5-.9 2.6 1.3 1.6 2.4-1 1.2-2.4 2-3.5 3.2l-4.1 4.1c-.4.4-.8 1-1.4 1-.4-.1-.9-.5-.9-1.1m29.4-12.1c-1.6-1.2-.3-3.5.3-5 1.4-2.9 3-5.9 5.1-8.4.5-.6 1.1-1.3 2-1.4 1.2-.2 1.9 1.4 1.4 2.4-.6 1.3-1.8 2.1-2.5 3.3-1.4 2.1-2.9 4.5-4 6.6-.3.6-.6 1-.7 1.7-.2.8-1 1.2-1.6.8m12.5-12.9c-1.1-.8-.9-2.8-.8-4 .4-2.5 1.5-4.9 3.2-6.7.8-.8 1.7-1.8 2.9-2.2 1.4-.4 2.2 1.5 1.5 2.5-1.1 1.7-3.2 2.6-4 4.5-.4.9-.7 1.8-.9 2.8-.1.9.1 2-.5 2.8-.3.4-.9.6-1.4.3m104.2-5.8c-2.2-1.2.6-5.2 1.1-7 .6-1.1 1.3-4.2 3-3.7.4.1.7.6.7.9.2.8-.5 1.4-.6 2.2-.7 1.9-1.2 3.5-1.9 5.2-.3 1.1-.9 2.9-2.3 2.4m12.8-11c-.7-2.9 1-6.2 2.8-8.5.6-.8 1.4-1.8 2.5-1.5 1 .2 1.4 1.5 1 2.4-.5 1-1.4 1.6-2 2.5-1 1.5-1.7 3.2-2 5-.2 1.7-1.8 1.5-2.3.1m8.7-11.4c-3.3-2 3-8.3 5.3-8.9 2-.7 3.4 1.8 1.1 2.7-1.3.9-2.5 1.9-3.4 3.2-.8.9-1.2 3.5-3 3M237 101.5c-1.1-.6-2.5-1.3-2.7-2.7-.1-.7.4-1.6 1.2-1.5.5 0 1 .4 1.4.7.9.6 2.2 1.2 1.7 2.5-.2.7-.9 1.3-1.6 1"/><path d="M533.7 171.7c-4.1 6.6-8.2 13.1-12.1 19.8-2.7 4.1-5.8 7.9-8.4 12.1-3.9 6-7.1 12.4-11.5 18-3 3.9-6.4 7.5-9.2 11.6-3.4 4.8-5.9 10.1-9.3 14.9-4.2 5.7-8.9 11-12.9 16.7-4.4 6-7.7 12.6-11.5 19-3.3 5.2-7.1 10-10.9 14.8-4.5 5.8-7.3 12.6-11.2 18.7-2.8 4.4-6.3 8.3-9.3 12.7-2.8 3.9-5.7 7.8-8.1 12-2.5 4.1-4.5 8.5-7 12.6-.2.3-.3.5-.5.8-.2.4-.5.7-.8 1.1s-.6.8-.8 1.1c-.1.2-.3.4-.4.6-.1.1-.1.2-.2.3-.5.7-1 1.4-1.6 2-.1.1-.2.2-.3.4l-3.3 4.2c-.1.1-.2.3-.3.4s-.2.3-.3.4-.2.3-.3.4-.2.3-.3.4-.2.3-.3.4-.2.3-.3.4-.2.3-.3.4h-.1c-.1 0-.1 0-.2.1h-.2l-.1.1-.1.1v.2c-.1.1-.1.2-.1.3v.5c-.4.6-.8 1.2-1.1 1.8-.1.1-.1.2-.2.3 0 .1-.1.1-.1.2-.2.2-.3.5-.5.7 0 .1-.1.2-.1.2-.1.2-.2.3-.3.5-1.1 1.8-2.2 3.7-3.3 5.5-.2.3-.4.6-.5.9-.2.4-.5.8-.8 1.2-.1.1-.2.3-.3.4-.2.3-.4.5-.5.8-.1.1-.2.2-.2.3-.1.1-.2.3-.3.4-.3.4-.7.9-1 1.3-1.6 1.7-3 3.8-5.1 4.7-1-.2-1.8-.8-2.6-1.3-1.9-1.3-3.8-2.6-5.5-4.2-1.5-1.4-3-2.8-4.1-4.5-.8-1.3-1.5-2.7-2.3-4 .3-.4.5-.8.8-1.2.1-.1.2-.3.3-.4.3-.4.5-.9.8-1.3.8-1.2 1.5-2.4 2.3-3.6l.1-.1v-.1l.1-.1v-.1c.1-.1.2-.2.2-.4.2-.4.5-.8.7-1.2.6-1 1.3-2.1 2-3.1.2-.3.4-.6.6-.8l.6-.9v-.1c.2-.3.4-.6.6-.8h.4c2.1 1.8 3.7 4.2 5.9 5.9 1.2.6 2.1-1.2 1.3-2.1-1.1-1.5-2.5-2.7-3.8-4-.7-.6-1.3-1.3-2.1-1.9l-.1-.1c.2-.2.3-.5.5-.7.1-.2.3-.4.4-.6.4-.5.8-1 1.1-1.5l.6-.9c.2-.3.4-.6.6-.8.2-.3.4-.6.6-.8.2-.3.4-.6.6-.8v.3c0 .1.1.2.1.3v.1s0 .1.1.1c0 0 0 .1.1.1l.1.1c.1.1.2.2.4.3.8.7 1.6 1.5 2.5 2 1.1.6 1.9-1.1 1.2-1.9-.7-.9-1.5-1.5-2.4-2.2-.1-.1-.3-.2-.5-.3h-.2s-.1 0-.1-.1h-.3c.1-.2.3-.3.4-.5.2-.3.4-.5.5-.8.1-.2.3-.4.4-.6.6-.9 1.2-1.8 1.8-2.8 0 .1.1.2.2.3 0 .1.1.1.1.2s.1.1.1.2l.1.1c0 .1.1.1.1.2l.1.1c.1.2.3.3.4.4l.1.1c.1.1.2.1.2.2l.1.1.1.1.1.1c.1 0 .1.1.2.1 1 .5 1.9-.9 1.3-1.8-.3-.5-.6-.9-.9-1.4 0-.1-.1-.1-.1-.1-.2-.2-.3-.4-.5-.6l-.1-.1c0-.1-.1-.1-.1-.2l-.1-.1-.1-.1c.3-.4.5-.9.8-1.3.2-.3.4-.7.6-1 .5-.8 1-1.7 1.4-2.5 0 0 0 .1.1.1v.1l.1.1c.6.8 1.3 1.7 2.3 2.2.5.3 1.1 0 1.4-.5.6-1.1-.5-2.1-1.2-2.8-.4-.5-.9-.9-1.3-1.4v-.1c.1-.1.1-.2.2-.3.2-.3.3-.6.5-.8v-.1c.2-.3.3-.6.5-.8.2-.3.4-.7.6-1 .1-.2.3-.5.4-.7h.4c.3.2.5.4.8.6s.6.5 1 .7c1.4.7 2.3-1.5 1.3-2.4-.2-.2-.5-.5-.8-.7l-.1-.1c-.1-.1-.2-.2-.4-.3-.1 0-.1-.1-.2-.1s-.1-.1-.2-.1c0 0-.1 0-.1-.1h-.1s-.1 0-.1-.1c.2-.3.4-.5.5-.8.1-.2.2-.3.3-.5.7-1.1 1.5-2.2 2.3-3.3l.6-.9c.1-.2.3-.4.4-.6l.9-1.2c0 .2 0 .5.2.6.2.3.5.6.7.9 1.6 1.6 3.1 3.1 4.5 4.8 1 1.1 1.8 2.5 3.2 3.3 1.4.7 2.4-1.4 1.5-2.4-1.9-2.4-4.1-4.7-6.4-6.7-.8-.6-1.5-1.5-2.5-1.8h-.3c.7-.9 1.4-1.8 2-2.8.3-.4.6-.8.8-1.1.1-.2.3-.4.4-.6.2-.2.4-.5.5-.7l1.2-1.8c.1-.2.2-.3.3-.5 0-.1.1-.1.1-.2 0 0 0 .1.1.1 1.1 1.2 2.3 2.5 3.8 3.2.5.2 1.1-.1 1.3-.6.3-.5.3-1.2-.1-1.6-1.1-1.2-2.3-2.4-3.8-3.1l.9-1.5c.1-.2.2-.3.3-.5.5-.9 1.1-1.8 1.6-2.7.1.1.2.3.3.4l.1.1.1.1c1.1 1 2.3 2.1 3.7 2.8.6.4 1.3-.1 1.6-.7.2-.6.1-1.3-.4-1.7-1.3-1-2.5-2.2-4-2.9h-.1c1.1-1.9 2.2-3.7 3.3-5.6 0 0 0 .1.1.1 0 .1.1.1.1.1l.1.1s.1 0 .1.1l.1.1s.1 0 .1.1c1.2 1.1 2.5 2.3 4 2.9.5.2 1.1-.2 1.3-.7.4-1-.5-1.7-1.1-2.3-.9-.8-1.9-1.6-3-2.3-.2-.1-.3-.2-.5-.2 0-.1.1-.1.1-.1.2-.3.4-.7.6-1 .4-.6.8-1.3 1.2-1.9.1-.2.2-.3.3-.5s.3-.4.4-.6.2-.3.3-.5c0 0 0 .1.1.1 0 0 0 .1.1.1 0 .1.1.2.2.2h.1l.1.1h.1c.1 0 .1.1.2.1h.2c.1 0 .2 0 .3-.1.7.4 1.3.9 1.9 1.3 1.6.8 2.4-1.7 1.2-2.6-.1-.1-.2-.1-.2-.2 0 0-.1 0-.1-.1-.1 0-.1-.1-.2-.1 0 0-.1 0-.1-.1-.2-.2-.5-.4-.8-.5 0 0-.1 0-.1-.1-.1-.1-.2-.1-.3-.2 0 0-.1 0-.1-.1-.1 0-.1-.1-.2-.1h-.7c.2-.3.4-.5.6-.8s.4-.5.6-.8c.2-.2.3-.4.5-.6.1-.1.2-.2.3-.4s.2-.3.3-.5c.2-.3.4-.5.6-.7s.4-.5.6-.7l.1-.1c.2-.3.4-.5.6-.8s.5-.6.8-.9c1.6-2 3.3-3.9 4.8-5.9.2-.3.4-.6.7-.9l.1.1.1.1.1.1.2.2.1.1c.1.1.3.2.4.3.9.7 2 1.8 3.2 2.2.5.2 1-.1 1.3-.6.5-.9-.1-1.8-.8-2.4-.2-.1-.4-.3-.6-.5l-.2-.2-.1-.1-.2-.2c-.3-.2-.6-.4-.8-.6-.1 0-.1-.1-.2-.1-.1-.1-.3-.2-.4-.3s-.3-.2-.4-.2-.1-.1-.2-.1c.1-.2.2-.4.4-.5.1-.1.2-.2.2-.3.1-.1.2-.3.3-.4.1-.2.3-.4.4-.6v-.1c.1-.2.3-.4.4-.7.1-.2.3-.4.4-.7l1.2-2.1c.1.1.1.2.2.3 0 0 0 .1.1.1l.1.1.1.1.1.1.2.2.3.3c.7.7 1.4 1.3 2.2 1.8.5.3 1.2 0 1.5-.5.8-1.6-1.2-2.6-2.2-3.6-.2-.1-.3-.3-.5-.4l-.1-.1-.1-.1c-.1 0-.1-.1-.2-.1 0 0-.1 0-.1-.1 0 0-.1 0-.1-.1-.1 0-.1-.1-.2-.1h-.1c.7-1.3 1.5-2.7 2.2-4 .3.2.6.4 1 .6 0 0 .1 0 .1.1.4.2.8.5 1.2.7.1 0 .2.1.2.1.2.1.3.2.5.3l.1.1c.3.2.6.3.9.4h.1c.1 0 .2.1.2.1.1 0 .1 0 .2.1.6.2 1.1-.2 1.3-.7.6-1.6-1.6-2.6-2.7-3.3-.1 0-.1 0-.2-.1-.1 0-.1 0-.2-.1 0 0-.1 0-.1-.1 0 0-.1 0-.1-.1-.1 0-.2-.1-.2-.1-.1 0-.1-.1-.2-.1s-.1-.1-.2-.1-.1-.1-.2-.1c0 0-.1 0-.1-.1 0 0-.1 0-.1-.1-.1 0-.2-.1-.2-.1.1-.1.1-.2.2-.4s.2-.3.3-.5c.2-.3.4-.6.5-.9.1-.1.2-.3.3-.4.3-.4.6-.9.9-1.3l.1.1s.1 0 .1.1c0 0 .1 0 .1.1 1.1.7 1.9 1.6 3 2.2 1.4.7 2.4-1.5 1.4-2.5-.8-.8-1.8-1.4-2.8-1.9 0 0-.1 0-.1-.1h-.2c.2-.2.3-.4.5-.6.1-.1.1-.2.2-.2.1-.2.3-.4.4-.5.2-.3.4-.6.7-.9.2-.2.4-.5.6-.7 0-.1.1-.1.1-.2.3-.4.7-.9 1-1.3.1-.1.2-.2.2-.3.3-.3.5-.6.8-.9.1-.1.2-.2.2-.3.1.1.1.2.2.2 2 2.5 3.7 5.3 6.4 7.2 1.4.7 2.3-1.3 1.5-2.3-1.6-2.2-3.7-4-5.5-6.1-.3-.3-.6-.7-.9-1l.9-1.2c.3-.3.5-.7.8-1 .1-.2.3-.4.4-.5.1-.2.3-.4.4-.5.1-.2.3-.4.4-.5.1-.2.3-.4.4-.6.1.1.1.2.2.3s.1.2.2.3.1.2.2.3.1.2.2.2c.1.1.1.2.2.2.1.1.1.2.2.2 0 0 0 .1.1.1.1.1.2.2.2.3l.3.3c1.3 1.2 2.7-.9 1.7-2-.6-.7-1.2-1.4-1.9-2l-.3-.3.6-.9c.1-.2.2-.3.3-.5l1.8-3v.2c0 .1.1.1.1.2.3.4.7.7 1.1 1 .9.7 1.9 1.9 3 2.3 1.2.4 1.8-1.2 1.2-2.1v-.1l-.1-.1c-.1-.1-.2-.3-.4-.5l-.1-.1c-.2-.3-.5-.5-.8-.8l-.1-.1c-.4-.4-.9-.7-1.3-1-.1-.1-.2-.1-.3-.2h-.1c-.1-.1-.2-.1-.3-.2h-.1c-.1 0-.2-.1-.2-.1-.1 0-.1 0-.2-.1h-.5c.2-.3.3-.5.5-.8s.4-.7.6-1c.7-1.2 1.4-2.3 2.1-3.5.1-.2.3-.4.4-.6v.1c0 .1.1.2.1.3s.1.1.1.2c.2.4.4.7.6 1l.1.1c.1.1.2.3.4.4l.1.1c.3.3.7.7 1.1 1 1.2.9 2.3-1.1 1.5-2-.6-.8-1.5-1.6-2.2-2.4l-.1-.1h-.5l1.5-2.1c.2-.3.5-.6.7-1 .2-.3.5-.7.7-1 0 0 0 .1.1.1 0 .1.1.1.1.2 0 0 0 .1.1.1 0 0 0 .1.1.1.2.2.4.5.6.7l.1.1.2.2c.6.4 1.3.2 1.7-.4.1-.2.2-.5.2-.7v-.6c0-.1 0-.1-.1-.2v-.3c0-.1-.1-.1-.1-.2s-.1-.1-.1-.1l-.1-.1-.1-.1-.1-.1-.1-.1-.1-.1-.2-.2s-.1 0-.1-.1c0 0-.1 0-.1-.1l-.1-.1h-.2c-.1 0-.1-.1-.2-.1.9-1.2 1.7-2.4 2.6-3.5.6-.8 1.1-1.5 1.7-2.3 0 0 0-.1.1-.1 0 .1.1.2.1.2s0 .1.1.1c0 0 0 .1.1.1 1.6 2.8 3.5 5.7 6.1 7.8 1.5 1 2.7-1.2 1.8-2.4-1.8-2.1-3.9-3.9-5.4-6.3-.3-.4-.6-.9-.9-1.4 0 0 0-.1-.1-.1l-.1-.1s0-.1-.1-.1c.6-.8 1.2-1.6 1.7-2.4.3-.3.5-.7.8-1 .2-.2.3-.5.5-.7v.1c.1.1.1.2.2.2.1.2.3.3.4.5.1.1.1.2.2.2.1.1.1.2.2.2l.2.2c0 .1.1.1.1.2l.1.1.2.2.2.2.2.2.1.1.1.1.1.1c.1.1.1.1.2.1 1.1.6 2.1-1.1 1.5-2-.5-.9-1.4-1.6-2.2-2.4l-.4-.4c0-.1.1-.1.1-.2.2-.2.3-.4.5-.7 0-.1.1-.1.1-.2l.6-.9.6-.9s0-.1.1-.1l.6-.9c.1 0 .2.1.2.1.2.1.3.1.4.2s.3.2.4.3c.1 0 .1.1.2.1.2.1.4.3.6.4s.4.3.6.4c.1.1.2.2.4.2.1 0 .1.1.2.1.1.1.3.2.5.3.5.3 1.2 0 1.5-.5s.3-1.4-.2-1.8c-.2-.2-.4-.3-.6-.5l-.2-.2-.2-.2c-.1 0-.1-.1-.2-.1s-.1-.1-.2-.1-.1-.1-.2-.1h-.1l-.1-.1c-.1 0-.1-.1-.2-.1s-.1-.1-.2-.1c0 0-.1 0-.1-.1l-.1-.1c-.4-.2-.8-.4-1.2-.5.2-.3.4-.7.6-1s.4-.7.6-1c.7-1.2 1.5-2.5 2.2-3.7.3.3.5.6.8.8l.2.2.3.3.1.1.3.3.3.3.3.3s.1 0 .1.1c.1.1.2.2.3.2 1.2.8 2.2-1 1.4-1.9-.1-.1-.1-.2-.2-.3 0 0 0-.1-.1-.1-.4-.6-1-1.3-1.6-1.8l-.1-.1-.1-.1-.1-.1c-.1-.1-.2-.1-.3-.2h-.2c.9-1.4 1.8-2.7 2.7-4 .2-.2.3-.4.5-.6 0 .1.1.1.1.2s.1.1.1.2.1.1.1.2c.1.1.2.2.3.4.1.1.1.2.2.3 0 .1.1.1.1.2 1.1 1.4 2.7-.4 1.9-1.7-.1-.2-.3-.4-.4-.6 0-.1-.1-.1-.1-.2l-.3-.3-.1-.1-.1-.1s0-.1-.1-.1l-.1-.1c.3-.3.5-.7.8-1 .2-.2.3-.4.5-.6.6-.8 1.3-1.6 1.9-2.4l.1.1.1.1c.2.3.5.6.7.9 2 2 3.9 4.2 6.2 5.9 1.5.8 2.5-1.4 1.6-2.6-.7-.9-1.6-1.6-2.5-2.4-1.6-1.3-3-2.7-4.7-4 0 0 0-.1.1-.1.1-.2.3-.4.4-.5.2-.2.3-.4.5-.6s.3-.4.5-.6.3-.4.5-.6l.3.3.3.3.3.3.3.3.4.4c.1.1.3.2.4.4l.4.4c1.2 1.1 2.4-.8 1.5-1.8-.7-.9-1.4-1.7-2.3-2.4l-.2-.2c.3-.4.5-.7.8-1.1.1-.1.1-.2.2-.3.1-.2.2-.3.3-.5s.3-.4.4-.6c.4-.6.8-1.3 1.2-1.9.1.1.2.2.3.4.1.1.2.2.3.4.2.2.4.5.7.7l.3.3.3.3.2.2c.1.1.2.1.2.2.1.1.2.2.4.3.5.4 1.1.2 1.4-.2.9-1.4-.9-2.7-1.7-3.6l-.1-.1-.2-.2s-.1 0-.1-.1c-.3-.2-.6-.5-.9-.6l2.4-4.2v.5l.1.1h.9l1.2 1.2c.3.4.7.7 1.1 1 .4.4 1.1.2 1.4-.2.8-1.1-.4-2.3-1.1-3-.7-.6-1.3-1.5-2.3-1.5h-.3l.3-.6c.1-.2.2-.3.3-.5.1-.1.2-.3.2-.4.1-.1.2-.3.3-.4s.2-.3.3-.4c.1-.2.2-.3.3-.5s.2-.3.3-.5c0 0 0-.1.1-.1.1-.2.2-.3.3-.5 0 0 0-.1.1-.1.1-.1.2-.3.3-.4 0 0 0-.1.1-.1v.4c0 .1.1.3.2.4.1.2.2.4.4.6.1.1.1.2.2.2.1.1.1.2.2.3l.5.5.1.1c.1.1.3.2.4.4.4.4 1.1.2 1.4-.2.7-1-.2-2.1-.8-2.8-.4-.5-1-1.2-1.8-1.1.1-.2.3-.3.4-.5s.3-.4.4-.6c.3-.3.5-.6.8-1 4.9 1.9 10.3 10.2 14.5 14.7m-96 121.4c1.5 1.1 2.8-1.3 1.8-2.5-1.8-2-3.7-4.1-5.7-5.9-1-1-2.3-.4-2.1 1 .4 1.2 1.5 2 2.2 3.1 1.3 1.5 2.4 3 3.8 4.3" style="fill:#fdd104"/><path d="M418 245.7c-1 11.8 0 23.8-.7 35.6-1.4.1-2.8.1-4.2.1h-3.3c.5-8.2.1-16.4.3-24.6.1-3.7-.3-7.4 0-11.1 2.7-.1 5.3-.2 7.9 0m15.8 8.7c-.4 5.3-.3 10.8-1.1 16.1h-6.5c.3-3.6 0-7.1-.2-10.7-.1-1.7-.3-3.8.1-5.5 2.5.1 5.1-.2 7.7.1m14.4-.5c-.5.8-1 1.5-1.6 2.3-.1.2-.2.3-.3.5s-.2.3-.4.5c-.2.4-.5.7-.7 1.1-.1.2-.2.3-.3.5s-.2.4-.3.5c-.1.2-.2.4-.3.5-.2.3-.3.6-.5.9-.1.2-.3.5-.4.7-.2.3-.3.5-.5.8-.1.1-.1.2-.2.3v-1c.1-3.6.1-7.3 0-10.9 0-6.2-.4-12.4.4-18.6 1.6.2 3.2.4 4.8.8.1 5.1.1 10.1.2 15.2.1 1.9-.2 3.8.1 5.6q-.15.15 0 .3m14.9-21.5c0 .1.1.3.2.4-.7 1.3-1.5 2.6-2.2 3.9-.1.2-.2.3-.3.5-.4.6-.8 1.3-1.2 1.9-.1.2-.2.3-.3.5l-.6.9v-.1c0-.3-.1-.6-.5-.8-.2-5.8-.1-11.6-.2-17.4-.1-2.4-.3-4.7-.6-7s-.7-4.6-.1-6.8c1.8-.3 3.7-.3 5.5-.4.2 5.1 0 10.3 0 15.4 0 2.4-.1 4.8 0 7.2v1.2c0 .2 0 .3.1.4.2.1.2.2.2.2m15.9-22.3c-.1.1-.1.2-.2.2-.5.7-.9 1.3-1.4 2-.6.8-1.2 1.6-1.7 2.4-.4.6-.8 1.1-1.2 1.7-.7 1-1.4 2-2.1 2.9v-7.2c0-.7.1-1.4.2-2.1 1.7.2 3.4.1 5-.2h1l.1.1.1.1h.1c.1 0 .1.1.2.1zm40.3-9.7c0 .8.1 1.6 0 2.4 0 3.4.4 6.8 1 10.1-1.5.7-3.1 1.3-4.5 2-.1-1.2-.2-2.5-.3-3.7v-.3c0-.2 0-.4-.1-.6v-.7c0-.2-.1-.4-.1-.6v-.5c-.1-.2-.1-.3-.2-.5 0 0 0-.1-.1-.1 0 0 0-.1-.1-.1l-.1-.1-.1-.1s-.1 0-.1-.1l.6-.9c.2-.3.4-.6.5-.8.4-.6.8-1.3 1.3-1.9.2-.3.4-.5.5-.8l.6-.9c.4-.5.8-1.1 1.1-1.6 0-.1.1-.1.1-.2m20.3-35.2c-.4 5.9.1 11.9-.2 17.8-.2 2.9-.6 5.8-.7 8.7-2.6.1-5.1.2-7.7-.2.3-3.3.4-6.5.4-9.9 0-.1 0-.2-.1-.3 0 0 0-.1.1-.1l.6-.9c.2-.2.3-.5.5-.7.7-1.2 1.5-2.3 2.2-3.5.2-.2.3-.5.5-.8s.4-.7.6-1c.1-.2.3-.4.4-.7l.3-.6c.1-.2.2-.3.3-.5l.3-.6c.3-.7.1-1.6-.4-2.2-1.2-1.3-2.4-2.7-3.5-4-.2-.3-.5-.6-.7-.8.4 0 .8.1 1.2.1h.9c1.8.3 3.4.2 5 .2m14.3 4.8c.2 5.1-.2 10.2.6 15.2-2.5.4-5.1.4-7.7.9-.2-5.2.1-10.3-.1-15.5 2.4 0 4.8-.4 7.2-.6m25.9-4.2c.2 5.2.1 10.4.4 15.6-1.8.7-3.8 1.3-5.7 1.5-.7-10.3.2-20.6-.4-30.9 1.6-.3 3.2-.8 4.8-1.3.3 2.5.1 5.1.3 7.7.2 2.4.5 5.1.6 7.4m12.2-29.9c1.9 10.7.3 21.5.9 32.3-1.8.5-3.7.9-5.5 1.4-.2-10.9 0-21.8-.2-32.6v-.4c1.5-.1 3.2-.4 4.8-.7m16 12.8c.6 2.4.5 5 .5 7.4 0 3.6 0 7.2.1 10.8-2.2.4-4.4.6-6.6.9-.3-6.2 0-12.4-.2-18.6 2-.5 4.1-.7 6.2-.5m14.3 5.4h-1.7c-.2 0-.5 0-.7.1h-2.8c-.4-5.3-.1-10.7-.3-16 1.7-.1 3.4-.5 5.1-.9.5 5.6.2 11.2.4 16.8m13.4-8c-.2.1-.3.1-.5.2-1 .2-1.9.4-2.9.5-.5 0-1 .1-1.6 0-.5-11.1-.5-22.3-.8-33.4 1 0 1.9-.2 2.9-.3h.8c.6 3.7.5 7.5.8 11.2.2 2.3.6 4.6.7 6.9.2 4.9 0 9.9.6 14.9m14.9-57.7c.2 5.8 0 11.5.1 17.3-.3 11.8-.9 23.6-.4 35.5-2.1.6-4.3.9-6.5 1.2.2-10 .1-20.1.2-30.1.2-7.5.8-15.1.4-22.6v-.3c2-.7 4.1-.7 6.2-1" style="fill:#71de29"/><path d="M507.3 219.2c0 .2 0 .4-.1.6 0 .2 0 .3-.1.5 0 .4-.1.7-.1 1.1v.5c0 .5-.1.9-.1 1.4v1.3c-.2 4.1 0 8.2.2 12.3-1.5.9-3.3 1.3-5 1.8-.1-3.1-.2-6.2-.2-9.3v-2.2c0-.2.1-.5 0-.7.5-.6.9-1.1 1.4-1.7.2-.2.4-.5.5-.7.1-.1.2-.3.3-.5s.3-.3.4-.5c.2-.2.3-.4.4-.6.2-.2.3-.4.5-.7.1-.1.1-.2.2-.2.1-.2.3-.4.4-.6s.3-.4.4-.6.2-.4.4-.5c.1-.2.3-.5.5-.7m58.5-39.5c-.1 4.4-.2 8.8-.3 13.1q-2.55 0-5.1-.3c.6-4.3.8-8.6.7-12.9 1.5.1 3.1.1 4.7.1" style="fill:#f6481f"/></svg>