<svg xmlns="http://www.w3.org/2000/svg" xml:space="preserve" id="Calque_1" x="0px" y="0px" version="1.1" viewBox="0 0 336.9 349.5"><style>.st3{fill:#010101}</style><path d="M2 76.5h.2c-.8-.1-1.5-.1-2.2-.3v9.9c3-4.1 6.4-8 9.4-12.1l.2-.2C7.3 75.4 4.8 77 2 76.5m331.8 2.1c-.4-5.1-2.2-10.3-3.9-14.4-1.7-4.3-2.8-8.8-4.7-13.1-2.1-5.4-4.8-10.7-9.7-14.1-4.1-3.3-9.3-4.2-14.3-4.7-4-.5-7.9-.8-11.9-.3-9.1 1-18.1.9-27 2.6-6.6 1-13.3 1.7-19.8 3.5-2 .6-3.9 1.3-5.9 1.9.6-3 .8-6.7.8-7.9-.4-4.3-1.8-8.6-4.9-11.6-3.1-2.6-6.5-5-10.1-6.9-1.3-.7-2.8-1.2-4.1-1.9-1.2-1.4-1.8-2.8-3-4.1-2.1-2-5.1-2.8-7.9-3.2-4.5-1.4-9.2-1-13.7.3-2.2-3.6-7.3-2.4-10.8-1.9-2.9.7-5.6 2-8.1 3.7-3.7-2-10.5-3.3-12.2-3.7-8.1-1.5-16.7-.5-24 3.3-2 1.2-3.9 2.6-5.9 3.8-5.1 2.2-6.7 7.7-7.8 12.7-.7 3.9-1.5 7.8-1.7 11.8-2.9.1-7.1 1.5-8.3 1.6-2.2.1-4.3-.5-6.4-.9-2.4-.4-4.8-.4-7.2-.5-10.4-.2-20.1 4.6-28.8 9.8-3.5 1.4-6.7 3.2-9.7 5.5-2.1 1.4-4.4 2.4-6.2 4.1-.8.9-1.6 2-2.3 2.9q-3.75 6-7.2 12.3c-2.2 4.4-2.6 9-3.6 13.6-.4 1.7-.8 3.5-.9 5.2-4.7-3.4-10.6-4.9-16-7-1.1-.4-2.2-.7-2.9-1.5-1-1.8-2.4-3.3-3.6-5 .9 1.9 1.7 3.8 2.4 5 2 3.8 4.4 7.4 5.9 11.4 1.6 4.9 2.8 10.1 4.4 15 .6 2.3 2.7 6.9-1.1 7.3-8.8-.4-17.4-2.3-26-4.4-1.9-.4-3.7-.6-5.6-.7v236.7c.3-.1.7-.3 1-.4 1.7-.7 3.2-1.7 4.8-2.6 4.3-2.2 8.6-4.5 12.4-7.6 4.1-2.2 8.1-4.7 11.3-8.1 2.6-2.2 5.6-3.9 7.8-6.4 1.6-2.2 3.5-4.1 5.6-5.9 1.6-1.6 2.7-2.9 4.1-4.5 3.8-3.9 5.9-9 7.9-13.9.7-2.4 1.4-4.8 1.9-7.3.3.1.6.2.8.3 3.7 1 6.9 1.7 8.5 5.5 1.5 3.1 2.9 6.2 4.3 9.3 1.3 2 2.6 8.3 5.7 7.1.8-.3 1.2-1.2 1.5-1.9.8-1.7 1.3-3.4 2-5.1 2.4-3.7 2.8-8 4-12.1 2.8-.1 5.2 1.2 7.2 3 1.7 1.3 3.5 2.5 5.4 3.3 1 .5 2.4.3 3.1-.8.7-2-.1-4.4-.4-6.4-1.2-5.1-2.4-10.4-4.9-15.1 2.7-.7 5.5-1.3 8.2-1.7 2.8-.2 5.7 0 8.4-.7.9-.2 1.5-1 1.4-1.8 1.3-.4 1.9-2.1.5-3-.7-.2-1.3-.9-2.1-.5-6.3-1.6-12.2-4.3-18.2-6.8-2.3-1.4-4.6-2.6-6.8-4-.7-.5-1.4-1-2.2-1.5 4.1-.9 8.1-1.9 12.2-2.8 5-1.1 9.9-1.7 14.6-3.8 2.3-1 4-3 6.1-4.3 1.7 3.5 3.5 7.2 5.3 10.6 1.3 2.5 2.6 5.1 4.6 7.2 1.9 2 4.2 3.4 6.3 5.1 2.1 1.9 3.9 4.1 6.3 5.7 4.3 2.6 5.7 3.9 6.5 9 1.2 3.9 1.5 20.8 8.3 17.5 4.5-3.3 6.9-8.6 8.3-13.9 2.9 2.1 5.9 4.1 8.7 6.4 1.6 1.3 2.9 2.5 4.4 3.9 1.2 1.1 2.4 2.8 4.2 2.6 2.2-.3 2.3-3.1 2.3-4.8.1-4.7-.3-9.4.2-14.1 4.9 1.6 9.4 4.7 14.7 5 10.5.1.3-10.4-3.1-13.3-3.2-2.6-6.8-4.8-10.2-7.2-3.2-1.7-6.8-2.4-10-4-2.1-1.4-3.2-3.9-5.1-5.6-1.6-1.8-3.6-3.3-5-5.3-1.8-2.6-2-6-4-8.5 4 .5 7.9 1.2 11.8 2.2 3.6.6 7.2 1.1 10.7 1.9 8.5 1.4 17.3 2.5 25.9 3.1 7.2.1 13.9-1.3 20.9-2.3 6.7-.7 13.3-1.9 19.5-4.7 2-.8 3.7-2.1 5.4-3.3 3.5-2.2 7.4-3.9 9.5-7.7 1.3-2.2 2.1-4.6 3.3-6.9 2.1-4 5.1-7.6 6-12.2 1-3.4.5-6.9-.2-10.2-.9-4.9-1.8-9.9-4-14.4-.7-1.5-1.4-3.1-2.1-4.6-1.4-3-2.4-6.1-3.9-9.1-1.4-2.8-3.3-5.4-5.2-7.9-2.4-2.8-4.5-5.8-6.7-8.7-2.2-2.6-4.9-4.6-7.2-6.9-2-2.4-3.7-5.1-5.8-7.5-1-1.3-2.1-2.7-3.4-3.8 1.5-.5 3-1.2 4.4-1.9 3-1.5 6.3-2.1 9.4-3.2 10.1-3.8 20.4-6.7 30.9-8.9 4.9-1.2 9.4-3.4 13.9-5.4 4-1.6 8-3.5 12-5.2 4.4-1.8 8.6-2.7 12.8-4.7 2.8-1.3 5.4-2.8 7.9-4.6 2.6-2.1 5.8-4.1 7.2-7.3 1.4-4.9 2.4-10 2.6-15.1 0-1.4-.3-2.2-.7-2.7M35.3 29.3c-3.7-1.4-7.7-2.1-11.5-3.4-3-.7-6.1-1-9.1-1.7-3.5-.5-7.2-.7-10.6.2-1.3.5-2.7.8-4.1 1.2v29.8c1.9-1.4 3.9-2.8 5.9-4.1 3.3-1.3 6.8-2.4 10.3-3.2 6.6-.8 13.2-1.8 19.6-3.4 3.6-.9 7.6-1.2 10.2-4.1 3.7-5.1-7.2-9.5-10.7-11.3" style="fill:#8664c2"/><path d="M49.8 173.9c3-.4 4.5-3.2 5.9-5.5 2.4-3.4 4.1-7.6 4-11.8-.2-6.7-4.2-9.1-9.3-4.2-2.4 2.3-4 5.3-5.3 8.4-1.2 2.9-2.1 6-1.2 9.1.7 2.5 3.2 4.5 5.9 4m5.7-31.2c2-1.5 3.1-4.6 2.2-7-.8-1.8-3.3-2-4.4-.3-1.1.7-1.6 2.1-1.4 3.3-.5 2.2 1.1 5.3 3.6 4m-22.8-36.8c-1.6-5-2.7-10.1-4.4-15-1.5-4-3.9-7.6-5.9-11.4-.8-1.2-1.5-3.2-2.4-5-.7-1.3-1.4-2.6-2.3-3.5-.5-.6-1.1-1-1.8-1.3-.8-.3-1.7-.4-2.6 0-1.7.9-2.6 2.7-3.7 4.2l-.2.2C6.4 78.1 3 82 0 86.2V108c1.9.1 3.8.4 5.6.7 8.5 2.1 17.2 4 26 4.4 3.8-.3 1.7-4.9 1.1-7.2m33.7 132c-1.6.5-2.7 1.9-1.8 3.6 1 2.2 2.1 4.4 3.8 6.1s4 2.7 6.1 3.7c2.2 1 3.6 2.4 5.6 3.5 2.5 1.1 5.2 2.1 8 1.5 1.9-.4 3.9-1.5 5.8-1.8 3.3-.5 6.7-.6 9.5-2.7 0 0 .1 0 .1.1 1 .5 2.4-.5 2.2-1.7-.2-.8-.8-1.5-1.1-2.2-1.4-2.6-3.1-5.3-5.5-6.8-5.6-3.6-12.5-4.9-19.1-5.1-4.7.2-9.4 0-13.6 1.8m-13.7 47.5c-1.8-.9-3.5-2-5.2-3.1-3.3-2.6-6.4-5.6-9.5-8.5-3.3-4-5.8-8.7-8.5-13.1-1.1-3.1-2-5.1-5.7-3.6-7 3-14.6 3.8-22 5-.6.1-1.2.2-1.7.3v81.9c1.9-.9 3.9-1.8 5.7-2.9 2.4-1.1 4.5-1.5 6.7-2.7 3.4-1.5 5.9-4.3 9.3-5.8 3.2-1.5 6-3.8 8.8-5.9 2.2-1.4 4.3-3 6-4.9s3-4.2 4.7-6.2c1.8-2 3.9-3.7 5.8-5.6 4.3-4.6 5.5-10.9 7.7-16.5.3-1.2.9-2.9.9-4.4.1-.1.2-.2.3-.4 1.1-2.3-2-2.8-3.3-3.6" style="fill:#c3a3fc"/><path d="M279.7 127.6c-.1 0-.2 0-.3.1h.2c0-.1 0-.1.1-.1m8.2.9c-.1 0-.1.1-.2.1v.1c.1-.1.1-.2.2-.2m-9.5 4.3c-1.8-1.5-4.2-2.1-6.1-3.4-4.6-5 8.9-5.8 11.6-6.8 3.6-1.2 7.4-2.2 10.9-3.7.7-.4 1.5-.9 2.3-1.1.5-.9.9-1.8 1.4-2.6.8-1.1 2.7-.6 2.8.8-.2 3-2.2 5.6-3.6 8.2 1.1 1.1.3 3-.1 4.4-1.3 3-3.9 5.7-7.1 6.5-4.1 1-8.6.3-12.1-2.3M255 142c2.7 0 4.8-1.8 6.4-3.8 1.5-2 3.4-3.9 3.9-6.3.8-1 .1-2.7-1.2-2.9-1.7-.1-3 1.6-4.4 2.4-4.9.5-9.7 1.5-14.4 3.1-1.7.7-4.3.8-5.3 2.6-.4 1 .1 2.2 1.1 2.6 4.7.8 9.2 2.7 13.9 2.3m-48.1 5.7c-1.5.2-3.4 1.4-2.6 3.2.8 1.6 2.9 1.4 4.4 2 .4 1.6 2.1 1.5 3.4 1.1 2.1.5 4.2 1.2 6.3.8 5.5-1.6 11.8-5.6 15-10.4 1.9-.4 2.9-2.5.9-3.6-.4-1.6-2.9-1.6-3.1.1-4.4.8-8.6 2.1-12.9 3.3-2.5.7-5.1 1.2-7.6 1.9-1.3.5-2.9.6-3.8 1.6m-27 8.4c-2.4.7-9.9 1.1-9.5 4.5 0 .2.1.3.1.5.3.1.7.3 1 .5 3 1.4 5.8 2.2 9.1 3.2 1.1.3 2.3.7 3.5 1 2.4.2 4.8 0 7.1-1.3 2.5-1.3 4.3-3.6 5.9-5.9.9-1.7 3.4-4.2 2-6.1-.9-1.2-2.8-.4-3 .9-.6-.2-1.3-.1-1.8.1-.9.2-1.8.4-2.6.6-4.1.7-7.9 1.3-11.8 2m5.3-123.9c1.1-2.2 2.4-4.3 4-6.1 1.6-2.1 3-4.4 4.7-6.5 2.2-2.8 5.5-4.6 8.8-5.9 3-1.4 6.3-1.4 9.6-1 3.6.8 7.8.1 10.8 2.7 3.9 2.3 8.5 4.8 10.3 9.2 1.5 2.8-1.5 5.8-3.5 7.5-2.5 1.9-5.4 3.1-7.8 5.2-3.5 3.3-7 6.7-11.2 9.1-3.9 2.8-8.5 4.5-12.8 6.5-3.5 1.9-6.9 4.1-10.8 4.8-6.1 1.3-5.6-7.4-5.6-11.3.1-4.9 1.5-9.8 3.5-14.2M209.8 45c4-2.7 8.5-5.4 11.9-8.9 1.1-1 2.4-1.3 3.5-2.3 1.3-1 2.8-3.2 1.1-4.5-2.7-4.8-6.2-10-12-11-.4-.1-.8-.1-1.2-.2.1-3.1-6.5-1.7-8.2-1-1.3.4-1.5 1.8-.9 2.6-3.6 1.7-6.6 4.7-7.6 8.7-1.4 5.4.3 10.9 3.8 15.1 2.9 4.2 5.5 4.3 9.6 1.5M94.2 106.3c-.4 1.4-1.5 2.7-1.2 4.2.3 1 1.3 1.7 2.3 1.5 2.3-.6 4.1-2.4 6.3-3.4 1.4-.6 2.8-1.1 4.3-1.6 2.7-.9 5.5-1.3 8.2-2 3.7-1 7-3.3 10.2-5.4 2.4-1.4 4.8-2.8 6.9-4.5 1.3-1.1 2.8-2.6 4.2-3.5 2.6-1.8 5.2-3.5 7.8-5.3.5-.4 1-.9 1.4-1.3-.3.2-.6.4-.9.5-4.5 1.8-7.6-3.6-9-7.1-1.1-3.1-.6-6.4.4-9.5.8-2.4 1.6-5 3.5-6.7 3.1-2.7 6.5-5.2 10.6-5.8 6.6-1.6 12.4 1.7 17.1 6.1 1.4-.7 3.1.8 2.6 2.2-.1.1-.1.3-.2.4.7-.9 1.4-1.7 2.1-2.6 1.2.2 1.8-1.4 1.4-2.4.1-.8-.3-1.5-1-1.9-1.6-2.1-3.6-3.9-5.6-5.7-5.5-5-12.8-6.7-20-4.8-3.4.9-6.2 3.1-8.9 5.2-2.5 1.9-5 3.9-7.1 6.3-8.2 7.9-15.3 16.8-22.4 25.6-2.8 3.9-4.4 8.4-7.1 12.4-2.1 3-4.7 5.6-5.9 9.1m60.8 81.4c-3 1.6.5 4.3 2.2 5.4 2.9 1.9 6.2 3.1 9 5.1 2.5 1.8 5 3.6 7.8 4.9 7.3 3.4 14.1 7 20.9 11.3 3.9 2 8.2 2.7 12.4 4 2.9.9 5.5 1.8 8.3 2.7 2.9 1.1 5.8 2.3 8.8 2.8 4.2.7 8.6.8 12.8.4 4-.7 7.7-2.6 10.9-5.1 2.1-1.4 4.4-2.8 6.1-4.7 3.9-4 3.6-10.8.5-15.2.8-2.5 1.5-4.9 2.2-7.4.4-1.7 1.2-3.4 1.2-5.1.3 0 .6-.1.8-.3 1.9-1.8-.9-4.1-2.5-4.8-3.8-1.7-7.9-.9-11.9-.9 1.3-4.7 2.8-9.5 3.6-14.3 1.3-5.2-2.2-7.4-7-6.8-2.6.4-7.4.1-7.5 3.7.7 3.3 1.2 6.8 2.3 10 .2.6.5 1.2.7 1.8 1.1 2.5 2.5 4.8 3.5 7.3 1.5 3 2.7 6.1 3.7 9.2-.6 1.1-.1 3-.6 4.2 0 .1-.1.1-.1.2-.3 2-1.6 3.9-2.6 5.7-1.8 2.9-3.4 5.4-5.6 8.2 0 .1-.1.1-.1.1-1 2-1.9 3.9-3.4 5.5l-.6-.3c-1 .4-2.2 0-2.8-1.1-.8-1.3-1.4-2.8-2.2-4.3-1.1-1.3-2.1-2.6-3.1-4-2.4-3.3-7.6-1.6-10.9.1l-3.3 2.4-.9.6c-.5.5-.9.9-1.4 1.3-.3.1-.5.1-.8.2-1.7 1-3.4 1.4-4.6-.5-1.9-3.4-2.8-7.4-4.7-10.8-.1-.1-.3-.2-.4-.3-2.7-1.9-6.1-.9-9.1-.7h-.4c-1 .4-2.1.8-3.2 1.2-1.6.4-2.6-.2-3.3-1.2h-.2c-.6-.5-1.1-1.2-1.6-1.9-1.6-2.3-2.9-4.4-4.7-6.5-2.1-2.6-4.4-4.3-7.9-3.2-3.3.8-6.9.4-10.3 1.1m-22.1-19.1c-.2.5-.1 1.1.2 1.6 2.7 1.1 5.8 2.7 8.1 3.8 2.2.8 4.2 1.6 6.5 1.5 2.8 0 5.3-1.2 7.2-3.1 3.1-2.7 6.5-5.6 7.9-9.5.6-2.1-1.8-3.4-3-1.5-1-1-2.4-.4-3.5.1-4.5 1.2-8.7 2.7-13.1 3.8-2.5.5-4.9 1-7.4 1.6-1.1.1-2.5.4-2.9 1.7" style="fill:#fff"/><path d="M271.1 97.7c2.3-.3 4.6-1 6.8-1.6 1.5-.4 3.8-1.4 3-3.4-.3-.7-1-1.1-1.7-1.2 1.1-.4 2.6.2 3.2-.9.3-.6.2-1.3-.2-1.8-.6-.6-1.5-.6-2.3-.6-1.4.1-2.8.4-4.2.7-3.3.9-6.8 2.2-8.8 5.2-1.4 3 1.8 4.1 4.2 3.6" class="st3"/><path d="M282.4 92.8c1.2-.3 3-1.5 1.8-2.8-.9-.8-2.1-.4-3-.1-1.9.8-.7 3.6 1.2 2.9m20-25.4q0-.15 0 0c0-.4 0-.7-.1-1v-.1c0 .3-.1.7.1 1.1q-.15 0 0 0m-3.2 1c-.9-5.6 3.3-10.4 6.6-14.5.3-.4.6-.7.9-1.1 1-1.1 2.9-.8 3.5.6.5 1.3.3 2.8 0 4.2-.4 2.8-1.3 5.4-2.6 7.9-.6 1.4-1 3.4-2.7 3.7-.6.7-1.2 1.3-2 1.7-1.8.9-3.5-.8-3.7-2.5M196.4 28.5c-1.4 5.4.3 10.9 3.8 15.1 2.9 4.2 5.6 4.2 9.6 1.4 4-2.7 8.5-5.4 11.9-8.9 1.1-1 2.4-1.3 3.5-2.3 1.3-1 2.8-3.2 1.1-4.5-2.7-4.8-6.2-10-12-11-.4-.1-.8-.1-1.2-.2.1-3.1-6.5-1.7-8.2-1-1.3.4-1.5 1.8-.9 2.6-3.6 1.8-6.6 4.8-7.6 8.8m-61.3 40.3c-1 3-1.5 6.4-.4 9.5 1.3 3.6 4.4 8.9 9 7.1.3-.2.6-.3.9-.5 3.3-1.9 6.2-4.4 9.4-6.5 3.4-2.4 6-5.7 9.4-8.1 1.9-1.8 4.2-3 5.3-5.3.1-.1.1-.3.2-.4.5-1.5-1.2-2.9-2.6-2.2-4.7-4.4-10.4-7.7-17.1-6.1-4.1.7-7.6 3.1-10.6 5.8-1.9 1.8-2.7 4.3-3.5 6.7" class="st3"/><path d="M127.9 169.3c-2.2 2.2.8 3.6 2.4 4.7 5.5 3.5 10.3 7.9 16.2 10.6 2.5.9 4.8 2.9 7.5 2.6 2-.3 3.6-1.5 5.6-1.9 4.6-.9 9.8-1.1 13.3 2.5 2 1.8 3.7 3.9 4.9 6.3.6 1.2 1.1 2.9 1.9 4 .8 1 1.8 1.7 3.3 1.2 1.1-.3 2.1-.7 3.2-1.2 1.9-.8 3.8-1.6 5.9-1.9.6-.1 1.4-.4 2 0 .8.9 1.5 1.9 2 2.9 1.9 3.4 2.8 7.4 4.7 10.8 1.2 1.9 2.9 1.5 4.6.5.8-.5 1.6-1 2.3-1.5l.9-.6 3.3-2.4c1.1-.9 2.3-1.7 3.6-2.3 1.5-.4 3.2.1 4.7.5 2.8.9 4.4 3.2 5.7 5.8.8 1.5 1.4 3 2.2 4.3.6 1.1 1.8 1.5 2.8 1.1.6-.2 1-.7 1.3-1.4.6-1.5 1.7-2.6 2.7-3.8l.1-.1c2.2-2.7 3.8-5.3 5.6-8.2 1-1.8 2.3-3.6 2.6-5.7.1-.5.1-1.1 0-1.7-.2-2.7-1.3-5.3-2.2-7.8-1.1-3.4-2.3-6.7-3.8-9.9l-.6-1.5c-.2-.6-.5-1.2-.7-1.8-2-4.8-4.2-9.4-5.7-14.3-.8-1.7-1.1-5.7-3.7-5-1.4.3-2.5 1.6-3.8 2.2-2.3 1-4.8.9-7.2.8-3.6-.5-7.3-1.5-10.2-3.8-3.4-2.6-4.7 1.8-6.1 4.1-1.8 3.5-4.4 7-8.1 8.5-2.3.8-4.7.4-7-.3-1.2-.3-2.3-.7-3.5-1-3.3-.9-6.1-1.7-9.1-3.2-.4-.2-.7-.3-1-.5-3.8-1.5-4.9.5-7 4-2.4 3.5-5.4 6.4-8.3 9.4-3.2 3-8.1 1.3-11.8.3-.5-.1-1.3-.4-2.2-.8-2.2-1-5.4-2.7-8.1-3.8-2.4-.8-4.4-1.4-5.2-.7" style="fill:#944650"/><path d="m171 60.9-.2.2c-3.9-10-16.1-12.8-25.8-11.4-5.4 1.2-9.4 5.5-13.5 9-6.3 4-9.7 10.7-14.1 16.5-5.3 6-10 12.4-14 19.3-3 4.7-6.2 9.4-8 14.8 15.9-6.1 31.6-13.6 45-24.3 10.8-7.3 21.2-14.9 30.6-24.1m-77.1 52.6c-8.1 0 3-16.3 5-19.6 3.6-5.6 6.6-11.8 11.4-16.6 6.6-7.2 10.7-16.4 18.9-22 5.1-4.7 10.6-10.4 18-10.4 10.9-.7 26.5 4.6 27.5 16.9.4 3.4-6.2 6.7-8.3 9.4-6.5 5.7-13.4 10.9-20.9 15.2-9.1 7.3-19 13.4-29.5 18.5-7.1 2.6-13.6 6.9-21.1 8.5-.3.1-.7.1-1 .1M208.1 12.4c-3.2 0-6.4.9-9.8 2.9-4.8 3.4-7.2 9.1-10.2 14-2.1 4.1-3.1 8.5-3.6 13.1-.6 4.3-1.1 8.8.1 13.1 3-1.7 6-3.1 9.2-4.5 9.6-4 19.2-9.1 27.4-15.6 3.5-3.4 6.9-6.9 11.1-9.5-1.1-2.4-3.3-4-5.2-5.8-2.7-2.5-5.6-4.6-9.2-5.7-3.5-1.1-6.7-2-9.8-2m-25 48.1c-3.2 0-3.1-6-3.5-8.4-.4-4 .2-8.1.7-12.1.6-5.7 2.5-11.3 5.6-16.2 4.3-7.6 8-13.2 16.9-15.5 5.7-1.8 11.7-.2 17.1 1.9 3.9 1.2 7.1 3.6 10 6.4 3.1 3 9.5 7.8 5.8 12.4-1.8 1.6-3.9 2.7-5.6 4.3-2.8 2.6-5.3 5.6-8.5 7.8-3.1 2.3-6.4 4.2-9.8 6.2-5.1 3.2-10.6 5.4-16.1 7.7-1.8.7-3.6 1.4-5.3 2.2-1.7.6-3.4 1.8-5.3 2-.2.6-.7 1.1-1.4 1.3z" class="st3"/><path d="M203.9 49.4c2.3-2-.9-4.5-1.9-6.2-2-2.7-3.3-5.9-3.4-9.3-.1-2.5-.2-5.2.9-7.5 1.9-3.5 5-6.3 8.7-7.9 3.8-1.5 7.3 1.3 10.5 3.1 2.5 1.6 4.6 3.9 6.3 6.3.7.8.9 2.1 2 2.6.8.4 1.7 0 2.1-.7 1-2-1.2-4.3-2.1-5.9-2.2-3.1-5.2-5.5-8.6-7.3-3.3-2-7.2-3.6-11-2.2-4.5 1.5-8.3 5-10.9 8.9-2.9 4.8-2.4 11-1 16.2.8 2.4 2.2 4.6 3.6 6.7.9 1.3 2.1 3.6 3.8 3.6.1 0 .5-.1 1-.4m-65.1 38c2.6-1.7-.5-5-1.3-7-1.2-2.2-2-4.6-1.8-7.1.7-5.8 4.1-11.4 9.5-14 4.6-2.1 8.8-3.1 13.4-.4 2.7 1.4 5.4 2.9 7.5 5.1.4.3.4.8.8 1.2.8.9 2.3.3 2.7-.8.9-3.3-5.7-6.9-8.1-8.4-5.7-3.6-11.1-3.7-17.2-.9-10 4.1-16.2 17.2-10.8 27.1 1 1.8 1.9 5.5 4.2 5.5.3-.1.7-.1 1.1-.3m76.3-22.2c3.6-1.3 7.3-2.4 10.5-4.7 8.1-6.1 15.1-17 13.9-27.5-.3-2.2-.3-8.3-3.6-7.8-1.3.3-1.4 1.8-1.1 3 .3 1.3.4 2.6.5 4 .5 4.4-.6 8.8-2.6 12.8-4.7 8.2-9.3 13.1-18.5 15.8-7.2 2.5-14.6 4.8-22.3 4.8-1.8-.1-4.5-1.3-5.3 1.1-.6 3.6 4.6 3.2 6.9 3.3 7.4-.4 14.7-2.3 21.6-4.8" class="st3"/><path d="M98.5 122.9c6.7-.5 13.2-2.3 19.8-3.4 5.3-1.4 10.8-2.4 16.1-4 5.4-1.5 10.2-4.4 15-7 3.7-2 6.8-4.8 10.5-6.8 4-2.2 8.4-4 11.4-7.6 5.4-7.3 6.1-17 4.7-25.7-.5-2.2-.9-8-4.3-6.3-.8.5-.8 1.5-.3 2.2.8 3.2 1.1 6.5 1.2 9.8 0 6.2-1.1 12.4-4.9 17.4-2.8 2.9-6.6 4.4-10.1 6.4-2.4 1.4-4.6 3-6.9 4.6-5 3.2-10.3 6-15.9 8.3-4.7 1.6-9.6 2.4-14.4 3.7-4.2 1.2-8.1 1.7-12.3 2.7-3.3.6-6.7 1.1-10 1.8-1 .1-1.7 1-1.7 2 .1 1 1 1.9 2.1 1.9" class="st3"/><path d="M106.8 139.9c1.8-.4 2.5-2.6 4-3.6 3.8-3 7.3-6.3 10.8-9.7 1.6-1.4 3.2-2.8 5-4 3.3-2 6.9-3.5 10.1-5.6 2-1.5 7.7-4.5 7.1-7-.2-.8-1.1-1.2-1.9-1-2.3 1.2-4.4 3-6.7 4.2-3.4 2.2-7.7 3.7-11 5.9-4.3 2.8-7.8 6.6-11.5 10.1-1.9 2.1-11 7.4-7.5 10.4.4.3.9.4 1.3.4.1-.1.2-.1.3-.1m64.7-84.4c-.1-5.5-.1-11.5.2-16.9.3-5 .6-10.2 2.9-14.7 1.4-2.8 3.5-5.1 5.4-7.5 3-4.2 6.2-8.7 11.5-10.1 3.1-1 6.4-1.7 9.7-1.6 1.8.2 3.5.7 5.2 1.1 3 .7 5.9 1.6 8.1 3.8.9.8 1.8 1.6 2.4 2.6.3.6.9.8 1.5.7 3.6-1.7-4.2-8.3-6.2-8.8-4.9-1.7-10.1-3.6-15.3-2.8s-10.8 2.1-14.5 6c-2.4 2.4-4.2 5.4-6.4 8-2.2 2.7-4.4 5.4-5.7 8.7-1.6 4-2.2 8.8-2.4 13-.5 6.2-.4 12.5-.5 18.7 0 1.3 1 2 2 2 1.1-.2 2.1-.8 2.1-2.2m-86.8 62.6c.5-7.7 1.1-15.4 3.3-22.8 1.2-3.1 2.6-6.5 4-9.4 2.9-6.1 7.1-11.5 10.2-17.5 1.3-2.4 2.6-4.8 4.4-6.8 2.6-2.8 5.7-5 8.2-7.9 2.4-2.5 4.3-5.4 7.1-7.5 2.7-1.6 5.6-2.8 8.6-3.4 2.7-.5 5.5-1 8.3-.9 4.7.5 9.3 2 13.3 4.3 1.4.7 2.8 1.2 4.2 1.9.6.7 1.7.9 2.4.1 1.4-2.4-2.1-3.6-3.7-4.4-3.1-1.6-6.1-3.6-9.6-4.3-8.4-2.5-18-1.1-25.5 3.4-3.9 2.6-6.4 6.7-9.7 9.9-3.2 3.1-6.9 5.7-9.3 9.6-1.8 2.9-3.2 6-5 8.9-5.4 8.1-10.1 16.8-12.6 26.3-1.5 6.6-2.3 13.6-2.7 20.3 0 1.3 1 1.9 2 1.9s1.9-.6 2.1-1.7" class="st3"/><path d="M164.2 47.7c.1-7 .8-14 2-20.9C168.6 15.7 170.5 7 183 4c2.2-.5 4.5-.2 6.7.2 1.1.4 3 .7 3.1-1-.2-1.9-2.7-1.9-4.1-2.2-6.3-1.2-12.9 1.3-17.5 5.5-3.7 3.3-5.5 8.1-6.6 12.8-1.3 4.6-2.2 9.2-2.7 13.9-.7 4.8-1.3 9.6-1.2 14.5.1 1 .9 1.5 1.7 1.5.9 0 1.7-.5 1.8-1.5m-90 71.1c.9-6.8 2.4-13.9 4.7-20.2 1.7-4.6 4-9 6-13.6 1.8-4.1 3.3-8.4 5.2-12.5 1.8-3.6 4.5-6.9 7.1-9.9 3.1-3.1 6-6.5 9.2-9.6 4.2-3.5 9-6.5 14.3-7.9.5-.1 1.1-.1 1.5-.5.7-.5.7-1.7 0-2.2-1.6-1-3.5-.1-5.2.3-7.1 2.5-13.5 7-18.3 12.8-4 4.1-8 8.2-10.9 13.2-2.5 4.3-4.1 9.1-6 13.7-1.9 4.5-4.3 8.9-6.1 13.4-2.3 6-3.9 12.3-4.9 18.7-.1 2-1.7 5.3 1.1 5.9h.3c1 .1 1.8-.6 2-1.6" class="st3"/><path d="M46.8 134.3c1.1-.1 2-1.2 1.8-2.3-.3-1.8-.9-3.5-1.4-5.3-1.7-6.9-4.3-13.6-4.8-20.7-.4-7.6 1.3-15.2 3-22.5.8-2.6 1-5.2 1.5-7.9 1.2-4.6 2.6-9.1 4.8-13.2 2.3-4.6 6.7-7.5 10.7-10.4 3-2.1 5.3-4.3 8.4-5.8 2.4-1.1 4.8-1.9 7.2-3 4-1.9 8-3.4 12.3-4.4 2.7-.7 5.3-1.6 8.1-1.8 6-.3 11.9 1.1 17.5 2.9 3.1.9 6.3 1.5 9.2 2.7.6.4 1.3.5 2 0 1.9-1.8-1-3.4-2.6-3.9-2.7-1-5.5-1.7-8.2-2.5-5.2-1.8-10.5-3.2-16-3.2-3.8-.2-7.4 1-11 2-7.2 1.7-13.8 5-20.5 7.8-3.3 1.6-5.9 4.2-9 6.3-6.4 4.3-11.1 8.9-13.7 16.3-1.2 3.3-2.3 6.7-3.1 10.2-.5 3.3-1.3 6.8-2.1 10-2.7 11.1-4 20.8-.6 32 1 3.4 1.8 6.8 2.7 10.2.4 1.7.8 3.3 1.4 5 .2 1 1 2 2.1 2 0-.4.1-.4.3-.5m77.1-99.4c2.8-1 .2-5.3.4-7.5-.1-2.6.2-5.3 1-7.8C128.2 11 136 7.7 144 5.1c4.1-1.6 8.7-1.4 13-1.2 3.8.2 7.4 1.1 11.1 2.1 1.9.3 5.3 2.2 6.8.6.5-.7.3-1.7-.4-2.2-.9-.4-2-.6-2.9-.9-4.2-1.4-8.4-2.8-12.8-3.2-4.5-.4-9.1-.7-13.6.3-2.5.7-5 1.7-7.5 2.6-8.6 2.8-15.7 9.6-17 18.8-.5 2.3-.8 13 2.7 13 .2 0 .4-.1.5-.1" class="st3"/><path d="M113.7 37.9c5.7-1.9 11.5-3.2 17.5-3.9 3.2-.2 6.5.1 9.7-.3 2.4-.4 2.2-4-.3-4-4.6.5-9.4.3-14 1.5-3.4.7-6.8 1.3-10.1 2.4-1.4.5-3.1 1-4 2.3-.7.8-.1 2.2.9 2.2.2-.2.2-.2.3-.2m24.6 93.8c3.5-6.6 6.7-13.3 10.6-19.7.6-1.3 2.3-2.6 1.7-4.2-.4-1-1.8-1.3-2.7-.5-.3.2-.6.5-.7.9-.4.5-.8 1-1.1 1.5-4.2 6.4-7.7 13.2-11.4 19.9-.9 1.7.5 3.2 1.9 3.2.6 0 1.2-.3 1.7-1.1m-11.5 39.2c1.7-.5 3.9-1.6 5.4-2.1 6.4-1.9 13-2.8 19.4-4.7 6-1.7 12.1-2.9 18.3-4.1 6.3-1.5 12.6-3.1 18.9-4.6 4-.9 8-2.2 11.8-3.7 3.3-1.1 6.7-1.8 10-2.8 3.5-1.1 6.9-2.6 10.3-3.8 6.3-2.2 12.7-4.1 19-6.3 3.1-1.1 6-2.6 9.1-3.6 3.2-1 6.5-1.9 9.6-3 3.2-1.1 6.2-2.6 9.4-3.8 4.2-1.4 8.4-2.5 12.5-4.2s8.1-3.5 12.2-5c4.4-1.5 9-2.3 13.1-4.6 5.1-2.8 10.5-5 15.4-8.1 7.6-4.4 12.8-6.9 15.1-16.2 1-3 .8-6.2.5-9.3-.3-6.7-2.4-13.2-4-19.7-2.3-8.6-5.2-17.5-11.6-23.9-9.7-11-21.8-9.1-34.9-7.9-3.3.2-6.7.5-10 .8-4.4.2-8.8.3-13.1 1.2-8.4 1.7-16.9 3.6-25.1 6.2-1.9.7-2.6 3.7-.1 4 7.7-2.2 15.7-3.9 23.5-5.5 7.3-1.6 15-1.3 22.4-2.1 8.1-.2 16.6-2.3 24.6.1 13 4.3 18 18.6 20.9 30.7 1.9 6.9 3.5 14 3.3 21.2-.6 3.8-1.8 8-4.8 10.6-2.8 2.3-6 4-9 5.8-3.7 2.3-7.5 4.2-11.4 6-2.6 1.4-5.2 3-8 3.9-6.3 1.8-12.4 4-18.4 6.7-5 2.4-10.4 3.7-15.6 5.5-3 1.1-5.9 2.6-9 3.7-3.3 1.1-6.7 2-10 3.2-11.7 5.1-24.1 8.1-35.9 12.9-2.6.9-5.2 1.5-7.9 2.2-4.6 1.4-9.1 3.4-13.8 4.4-6.3 1.6-12.7 2.9-19 4.5-10.1 1.6-20 4.4-29.9 6.7-4.1.8-8.3 1.7-12.2 3.4-1.7.6-4.3 1.5-3.4 3.8.3.8 1.2 1.3 2 1.3 0 .3.2.3.4.2" class="st3"/><path d="M240.1 226.7c5.4-.7 10.1-4.1 13.9-7.9 4.8-4.9 7.6-11.5 5.7-18.3-.7-2.5-4.5-1.7-4.2.9.7 3.1.8 6.4-.8 9.3-2.8 5-7.3 9-12.6 11.1-2.9.9-6 .9-9.1.7-3.8-.3-7.7-.5-11.5-1.2-4.3-.9-8.4-2.5-12.4-4.1-5.2-1.8-10.3-4-15.3-6.5-5.5-2.1-11.1-4.1-16.4-6.6-2.9-1.5-5.6-3.4-8.5-4.9-5-2.8-9.9-5.7-14.2-9.5-3.9-3.7-8.2-6.9-12.7-9.7-5.5-3.2-10.5-7-14.8-11.6-1.4-1-3.2.6-2.5 2.1.6 1.3 1.6 2.3 2.6 3.4 4.3 4.5 9.5 7.7 14.7 11 5.5 3.5 9.9 8.4 15.2 12 6.2 4.2 12.7 8 19.3 11.5 5 2.3 10.3 4.2 15.5 6.2 8.3 4 17 7.3 25.8 10 3.6 1.1 7.4 1.4 11.2 1.7 2.4.2 4.8.5 7.2.5 1.2.2 2.6.1 3.9-.1" class="st3"/><path d="M153.5 177.4c5.8-2.5 7.9-9.1 11.9-13.6 2-1 7.3 1.9 9.5 2.6 5 1.9 11.3 3.9 16.2.9 4.6-3 7.7-7.6 10.5-12.3 5.2 1.1 10.2 4 15.6 3.8 9.7-.8 15.1-10.1 20.9-16.8 3.7 1.2 7.2 3.2 11.1 3.7 4.2.7 9.1.7 12.4-2.4 3.2-3.4 4.8-8 7-12.1 5.5 2.6 16.1 8 22 6.7 7-2 11.1-12.2 13.6-18.5.7-2.4 2.4-5 1.4-7.5-.5-1-2-1.1-2.6-.1-1.1 4.4-3.3 8.6-5.2 12.8-1.6 3.1-3.5 5.9-6.1 8.3-3.3 2.6-7.6.2-11-.7-3.6-1.3-7.2-2.6-10.5-4.5-3.6-2.6-4.8.8-6.2 3.6-1.6 3-2.9 6.2-5 8.8-1.8 1.9-4.6 1.9-7 1.8-3.6-.2-7.1-1.5-10.4-3-3.6-1.8-5.5-1.5-7.9 1.8-4.5 5.5-9.1 13.1-16.7 13.9-4.3.1-8.3-1.9-12.4-3.1-1.7-.5-3.8-1.3-5.3 0-1.8 1.6-2.7 4-4.1 6-1.6 2.2-3.5 4.2-5.7 5.8-3.8 2.7-9.3.7-14.5-1.3-4.5-1.7-8.8-3.5-11.4-2.1-2.4 1.5-3.9 4.5-5.4 6.7-1 1.5-2.1 3-3.3 4.4-1.1 1.2-2.4 2.5-4.1 2.6-3.1 0-6.2-1.4-9.1-2.3-2.9-1-5.8-2-8.4-3.7-1.5-1-3.4-2.6-4.9-.8-1.8 2.8 2.3 4.3 4.2 5.3 1.6.8 3.3 1.5 5 2.1 2.5.9 5 1.8 7.5 2.5 1.7.6 3.6 1.1 5.4 1.1 1 .2 2 0 3-.4m103.6 20.9c3.3-5.6 8.1-16.6-.3-19.9-2.1-.7-4.3-.6-6.5-.5-1.1 0-2.2.1-3.3 0 1-5.2 3.7-10.1 3.5-15.5-.8-8.6-12.2-5-17.9-4.5-1.4 0-2.8 1.4-1.8 2.7 1.3 1.4 3.6.6 5.3.5 2.8-.3 5.7-.9 8.5-.5 3.9.3.7 7.6.2 10-.5 1.6-1 3.3-1.5 4.9-.4 1.6-1.3 3.5-.1 5 1.8 1.7 4.4 1.6 7 1.4 1.9-.1 3.7-.3 5.3.3 2.1.8 1.6 3.7 1.4 5.5-.6 3.2-2.7 5.8-3.6 8.9-.2 1.4 1 2.3 2.2 2.3.6.1 1.2-.1 1.6-.6" class="st3"/><path d="M232.4 217.8c.8-.3 1.3-1 1.7-1.7 1.2-1.8 2.2-3.7 3.2-5.5q2.85-5.25 5.4-10.8c.8-1.3 2.5-5.4 4.3-4.8 3.3 1.7 5.5 4.7 7.7 7.6.8 1.2 1.7 2.5 1.8 4 .2 1.7 2.3 1.5 2.8.1 1.4-3.5-4.3-9.6-6.6-12.1-8.6-8.8-12.5 1-15.9 8.3-1.8 3.5-3.7 7.1-5.8 10.5-3.3-3.7-6.4-11.5-11.8-11.9-6 .3-10.5 5-15.2 8.1-3-3.8-3.6-9-6.7-12.8-4.1-4.2-11.2.6-16.1 1.1-3-5.8-4.8-14.6-12.6-15.2-2.3-.2-4.6.2-6.9.6-3.9.7-7.9 1.4-11.4 3.3-2.5 1.5-.6 5.2 2.1 4.2.9-.4 1.9-.9 2.8-1.2q5.7-1.8 11.7-2.4c6.9-.7 8 7.9 10.6 12.5.8 1.8 2.8 3 4.8 2.5 2.5-.5 5-1.3 7.5-2 1.4-.3 3.2-1.3 4.6-.6 2.7 3.5 3.6 8.1 6.1 11.8 3.4 6 8.4-.6 12-2.8 2-1.2 5.4-4 7.8-2.7 3.4 2.7 5.2 6.7 7.8 10 .8 1.1 2 2.2 3.4 2.2.1-.1.5-.1.9-.3" class="st3"/><path d="M244.1 195.5c1-.3 1.6-1.3 1.3-2.3-.5-1.6-1.2-3.2-1.7-4.8-1.5-4.5-2.9-9-4.7-13.4-2.1-5.3-4.9-10.3-6.3-15.8-.7-1.2-2.5-.8-3 .4-.4 1 0 2.2.4 3.2 1.6 4.6 3.8 9.1 5.5 13.7 1.8 4.7 3.3 9.4 4.9 14.2.8 1.6.9 4.9 3.1 4.9.1 0 .3 0 .5-.1" class="st3"/><path d="M232.1 161.3c2.3-1.1-.3-4.5-.9-6.1-.6-1.4-1.9-3.7-3.8-2.6-.4.2-.8.6-.8 1.2 0 .9.9 1.1 1.2 1.8 1 1.5 1.6 5.8 3.7 5.8.2 0 .4 0 .6-.1" class="st3"/><path d="M222.5 249.1c10-.7 19.7-3.6 28.6-8.1 4.9-2.3 9.3-5.6 12.5-10 5.4-7.6 11.3-20.2 10-29.6-.6-4.7-2.5-9-4-13.4-2.6-6.9-5.1-13.8-8.5-20.4-2.2-4.3-5.3-7.9-8.6-11.4-4.6-4.9-9.4-9.7-13.9-14.7-.3-.3-.5-.6-.9-.8-.8-.4-1.7-.1-2.1.7-.6 1.7 1.5 3.1 2.4 4.4 3.9 4.7 8.3 8.9 12.4 13.5s7.5 9.5 9.6 15.3c2.5 6.5 5.1 13 7.3 19.6 1.3 3.7 2.4 7.5 2.2 11.5-1.2 9.5-6.2 20.4-13.2 26.9-1.9 1.7-4.6 3.2-6.7 4.2-7.9 3.9-16.4 6.8-25.2 7.7-7.5.8-15 1.1-22.4.5-7.6-.7-15.1-2.1-22.6-3.2-18.2-2.7-36.3-5.5-54.3-9.6-9.9-1.5-19.4-4.4-28.8-7.7-5.6-1.6-11-3.7-16.3-6.2-3.2-1.4-6.5-2.7-9.4-4.2-4.8-2.5-9.1-6-13.6-8.9-6-4-12-8.2-15.9-14.4-6-8.2-11.7-17.6-11.5-28.1.3-3.6 1.8-7 3.1-10.3 1.6-4.2 3.9-8.2 6.9-11.5 1.7-2 3.7-3.8 5.7-5.5 1.4-1 3.3-2.6 2-4.4-.7-.9-1.9-1.1-2.9-.6-.9.5-1.6 1.3-2.3 1.9-2.6 2.2-5 4.6-7.1 7.2-3 3.7-5 8-6.6 12.4-1.3 3.4-2.7 6.9-2.9 10.6-.1 5.1 1 10.2 2.9 14.9 1.8 4.7 4.3 9.1 7.3 13.3 4 6.5 9.3 12 15.7 16 5 3.2 9.8 6.9 14.9 10 6.8 3.6 13.9 6.4 20.9 9.4 10 3 19.7 6.9 30 8.9 14.9 2.8 29.8 6.3 44.8 8.4 12.5 1.9 25 3.9 37.5 5.7 3.4.3 6.8.5 10.2.5 4.2.1 8.5-.1 12.8-.5m57.2-158.4c-4 0-10 2.3-11.9 5.7h.3c4.7-.3 10.2-1.5 13.5-5.1-.2 0-.5-.1-.7-.2s-.3-.3-.4-.4zm-11.3 9.7c-6.1 0-5.6-6.2-1.2-9.3 4-2.9 11.3-5.7 16.1-3.7 1.7 0 2.9 1.6 2.7 3.3-1 6.7-11.1 9.2-16.9 9.7zm40.3-45c-4 2.7-6.9 8.5-5.8 13.3 3.8-2.4 7.6-8.3 6.4-12.9-.3 0-.5-.2-.6-.4m-6.2 17.3c-2.5 0-3.8-2.9-3.6-6.2.1-2.7.9-5.4 2.1-7.8 1.3-2.6 7.4-10.7 9.9-5.7 1.9.6 2.2 3 2.3 4.7-.1 5.3-3.2 10.5-7.4 13.6-1.3.9-2.4 1.4-3.3 1.4M42.2 88.3c.9-1.5-.6-2.8-1.9-3.5-2.5-1.5-5.1-2.7-7.8-3.9-3.6-1.5-7.1-3.3-10.7-4.6-1.1-.4-2.2-.7-3.4-.9l2.7 5.4c1.4.5 2.7 1 4 1.6 4.6 2 9.3 3.8 13.9 6.1.5.4 1.2.6 1.8.6.5 0 1.1-.2 1.4-.8m-32-14.4C6.8 73.5 3.4 73 0 72.5v4.6c2.2.3 4.5.5 6.7.8.2-.2.4-.5.6-.7 1.1-1.2 2.2-2.3 3.5-3.3zm66.7 240.4c1.2-.1 2.2-1 2.7-2.1.9-1.7 1.6-3.4 2.4-5.2 1.7-4.5 2.3-9.3 3.4-14 4.1 1.7 7.3 5.1 11 7.4 2 1.2 4.8.6 5.5-1.7.7-2.1.3-4.4 0-6.6-.8-5.3-3.1-10.2-4.8-15.1 5.6-.3 14.7.3 18.5-4.6 1-1.3.9-3.2-.2-4.5-3.4-3.1-8.3-3.5-12.3-5.6-3.9-2-7.5-4-11.5-5.8-2.8-1.2-5.7-1.9-8.5-3.1-2.7-1.2-5.3-2.5-8-3.8-8.5-4.1-11.1-14.2-13.4-22.6-.3-1.1-.7-2.6-2-2.7-1-.1-1.8.7-1.7 1.7.8 3.7 1.5 7.6 2.9 11.1 1.9 5.6 4.7 11.4 9.9 14.7 5 3 10.3 5.5 15.8 7.3 5.9 2 11 5.4 16.6 7.9 2.8 1.2 5.8 1.8 8.4 3.4-4.6 2.7-10.3 2-15.4 2.4-5.1.6-4.2 3.8-2.7 7.5 2 5.2 3.9 10.3 4.1 15.8-22.6-17.5-13.4-2.5-21.5 13.1-2-2.6-3.4-5.6-4.6-8.7-1.2-3.8-2.6-7.9-5.9-10.3-3-2.5-6.7-3.9-10-5.9-2.9-1.6-5.6-3.4-8.3-5.1-6.5-4-10.6-8.8-13.9-15.6-6.4-13.9-12.7-29.5-12-44.9.3-3.4 1-6.8 1.9-10.1.3-2.2 2.6-5.9-.4-7-2.6-.6-3 2.5-3.4 4.4-.6 2.9-1.2 5.7-1.7 8.6-1.8 11.8 1.5 23.7 5 34.8 3.4 9.2 6.6 19 13 26.5 7.2 7.5 17.1 12.1 26 17 2.5 1.5 4.1 3.9 4.9 6.6 1.3 3.8 2.6 7.5 4.8 10.9 1.2 1.7 2.6 4 4.9 4 .3-.1.4-.1.5-.1" class="st3"/><path d="M88 258.6c2.5-.8 5.1-1.4 7.6-2.2 2.9-1 6.2-2.4 9-3.3 6.9-2.1 13.6-4.7 19.4-9 1.9-1.5 7.5-4.6 7.3-7.2-.1-1.1-1.6-1.7-2.5-1-.4.3-.7.6-1.1.9-1 .9-2.1 1.6-3.2 2.4-4.7 3.3-9.6 6.2-14.9 8.1-3.6 1.2-7 2.3-10.5 3.5-2.8 1.1-5.7 2.2-8.6 2.9-1.7.5-3.7.5-5.2 1.7-1.4 1.6-.1 3.4 1.6 3.4.3 0 .7 0 1.1-.2m-33.3 28.6c-.9 1.1-.8 2.8-1.3 4.1-2.9 11.4-7.7 15.3-15.2 23.3-3.5 4.1-6.4 8.9-11.1 11.8-3.1 2-6.4 3.7-9.5 5.7-2.5 1.6-4.7 3.6-7.1 5.3Q5.4 341 0 344v5.4c2.3-1.1 4.6-2.6 6.8-3.9 4.8-2.8 9-6.4 13.5-9.6 4.8-3.2 10.3-5.6 14.3-9.9 2.9-2.9 5.1-6.6 7.8-9.6 2.6-2.9 5.5-5.6 7.8-8.7 4.1-5.3 6.5-12 7.4-18.5.3-1.7-1.2-3.4-2.9-2" class="st3"/><path d="M152.7 303.1c4.7-.9 8.1-10.6 9.6-14.8 2.6 2.8 5.8 5.5 8.6 7.9 1.5 1.3 2.9 2.6 4.5 3.8 3.2 2.5 6.6 1.5 7-2.7.7-5 .3-10 .7-15 4.4 1.6 16.9 7.8 20.2 2.9 1.4-2.4-.3-5-1.4-7.1-2.2-4-5.9-6.7-9.6-9.2-5.1-3.1-10-6.9-15.6-9.1-9.3-2.8-12.6-9-15.5-17.7-.8-2.6-4.1-1.7-3.3 1 1.4 5.9 4 11.6 8.5 15.7 2.7 2.4 6 3.7 9.3 4.9 3 1.2 5.7 2.8 8.3 4.5 6 4 13 7.3 15.5 14.5-5.5 0-10.6-2.7-15.6-4.6-5.4-2.2-5.2 4-5.3 7.6-.1 3.8 0 7.6-.5 11.4-2-1.2-3.7-3-5.5-4.5-2.3-1.9-4.6-3.9-6.6-6.2-.9-.9-1.6-2-2.6-2.7-2.5-1.9-4.5.7-5.2 3.1-1.5 4.2-3 8.7-6.1 12-3.4-4.4-4.3-10.2-5.3-15.6-2.2-12.3-15.9-16.4-22.4-25.9-2.3-3.4-4-7.3-5.9-10.9-.5-1-1.8-1.2-2.8-.7-2.1 1.3-.2 3.6.5 5.1 6.3 12.6 9.7 14.4 19.8 23.3 2.7 2.4 5.2 4.8 6.3 8.3 1.7 5 3.3 20.7 10.1 20.7zM34.5 111.7c.2-1.4-.1-2.7-.4-4-.7-3.4-1.5-6.7-2.4-10-1.7-7.6-5.1-14.8-8.8-21.7-1.6-2.7-2.1-6.4-4.9-8.1-4.6-1.7-8.9 2.3-12.1 5.1-2.4 2.3-4.3 5-5.9 7.9v8.6c1.9-4.4 4-8.8 7.3-12.4 2.1-2.3 4.6-4.5 7.6-5.7.4-.1.6-.2.9-.2.8 0 1.2.7 1.6 1.6 3 6.7 6.6 12.9 9.1 19.8 2 6 3.8 12.4 5.2 18.5-4.1-.5-7.5-1.6-11.4-2.2-6.8-.9-13.6-2.3-20.3-3.9v4.1c7.5 2 15.2 3 22.9 4.3 3.7.8 6.8 1.6 10.4 1.8h.1c1.1 0 2-1 1.9-2 .1-.5-.3-1.1-.8-1.5M43 30.8c-6-4-13.5-5.4-20.6-6.5C15 23.6 7.5 22.5 0 22.8v4.6c6.3-.4 12.6.2 18.9.9 5.3.4 10.6 1.3 15.7 3 3.9 1.2 7.7 3.1 9.2 7.2.7 1.4-.8 2.2-1.9 2.5-4.2 1.3-8.6 2.1-13 2.8-3.9.5-7.7 1.5-11.4 2.6-5.6 1.4-11.2 2.6-16.3 5.3-.4.3-.8.5-1.2.7v4.5q1.5-1.05 3-1.8c4.4-2.2 9.1-3.5 13.8-4.5 2.8-.6 5.5-1.5 8.3-2.1 5.6-.9 11.3-1.5 16.8-3.3 9-2.2 6.8-9.7 1.1-14.4" class="st3"/></svg>