<svg xmlns="http://www.w3.org/2000/svg" xml:space="preserve" id="Calque_1" x="0px" y="0px" version="1.1" viewBox="0 0 783.4 633.6"><style>.st0{fill:#8664c2}.st1{fill:#c3a3fc}.st2{fill:#fff}.st5{fill:#695a57}.st6{fill:#423e3d}.st9{fill:#2c2c2c}</style><path d="M411 369.9c0 2.4-2.1 3.9-3.8 5.2-3.5 2.8-6.3 6.2-9.8 9-1.4.9-1.2 2.7-1.1 4.1.2 2.4.5 4.8.8 7.2.2 2.3.2 4.6.2 6.9.6.4 1.3.4 2 .7 1.6.9 1.3 3.1 1.4 4.7 0 1.6 0 3.1-.1 4.6-.1 6.5.1 12.9.2 19.3.1 3.3.2 6.6-.3 9.8-.7 3.6-.4 7.2-.2 10.9.5.1.9.6.9 1.3-.1 3.6-.1 7.1-.8 10.6-.6 2.9-.9 6.1-2.9 8.4-1.8 1.7-6.4 2.5-8.8 2.5-4.7-.4-9-2.7-12.6-5.6-1.5-1.2-3.1-2.5-4.9-3.2-4.3-1.9-8.6-3.5-13-5.2-3-1-5.7-2.7-8.5-3.9-3-1.4-6.3-2.2-9.6-2.6-2.8-.1-5.5-.7-8.3-1.1-1.6 0-3.1-.2-4.7-.1-3.1 1.5-4.6 5-7 7.3-.6 3.7-1.6 7.5-1.7 8.8-1.3 4.9-1.9 9.9-3.6 14.7-5.2 16.6-7.5 30.3-27 34.7-3.2.9-6.5 1.2-9.8 1.7-6.5 1.2-12.9 2.7-19.5 2.3-4.3-.5-8.7.1-12.9-1-3.5-.5-6.7-1.8-9.9-2.9-.5-.1-.9-.1-1.4-.2-1.5 0-3.1 0-4.6-.2-.8-.1-1.5-.5-2-1-.5-.3-.8-.9-.9-1.6-.2-.7-.2-1.6-.1-2.3-23.3-4.1-47.1-6.2-69.5-13.8-6.4-3.4-12.8-7.2-18.8-11.2-3.3-2.7-6.4-5.5-10-7.7-.6.4-1.4.5-2.2 0-4.1-2.4-6.5-6.7-9.5-10.2-3.2-3.7-6.8-6.9-9.5-11-1.3-1.4-7.4-14.7-2.1-12.1-4.1-14.4-10.5-28.1-13.8-42.7-3-14.4-1.2-29.4-1-44.1.4-14.8 2.4-29.4 4.2-44.1.7-5.5.8-10.5.8-16 .3-5.2 1.2-10.4 1.1-15.6.2-2.4.2-4.9.3-7.4-7.1-.5-14.2-1.4-21.1-2.9-3.2-.8-6.4-1.8-9.5-2.9-3.4-1.4-6.2-2.8-9.6-4-3.2-1.4-6.4-2.8-9.7-3.9-4.1-1.5-8.4-3-11.7-6-4.4-4.4-10.3-6.9-14.6-11.4-1.2-1.2-2.3-2.5-3.5-3.7-2.5-2.5-5.7-5.2-5.5-9.1v-.5c-3.2-8.6-2.7-17.9-1.7-26.9.2-6.8 1.7-13.4 3.8-19.7-1.4-1.6 1.5-6.1 2-7.8.8-2.1 1.6-4.3 2.4-6.4.3-.8.5-1.7.8-2.5-.3-.7-.6-1.4-.9-2.2-.4-1.1-.8-2.2-1.3-3.2-1.4-2.7-3.2-5.3-4.4-8.1-1.8-3.9-3.6-7.9-5.1-11.9-.8-2.1-1.3-4.3-2.2-6.4-.9-2.3-1.3-4.8-1.8-7.2-1.2-6.6-1-13.4-.8-20.1.6-6.9 1.1-14 3.7-20.4 2.2-4.7 4.2-9.5 6.2-14.2 1.4-3.1 3.5-5.8 5.5-8.6 1.8-2.5 3.9-4.6 6.2-6.5 1.9-1.7 3.5-3.7 5.6-5.3 3.7-2.7 6.5-6.5 10.6-8.6 3-1.9 6.4-3 9.7-4.4 4.4-2 8.9-4 13.7-4.6 6-.6 12.3-.8 18.3 0 1.6.2 3.1 1.1 4.7 1.5.7.2 1.5.3 2.3.5 2.9.8 5.9 1.1 8.9 1.8 3.5 1 7 2 10.4 3.4 2.9.8 5.7 1.7 8.4 3 1.2-.5 2.2-.9 2.8-1.2 7.7-3.9 15.9-6.6 24.3-8.7v-.2c.2-1.7.4-3.4.8-5.1.9-4.3 3.6-7.8 5.5-11.7 1.7-3.6 3.5-7.3 6.1-10.3 9.3-9.3 12.2-6 23.6-8.3 3.1-.7 6.3-.6 9.4-.7 2.8-.1 5.7.1 8.4.8 3.4 1.1 7.1 1.6 10.4 3.1 3.2 1.8 6.9 2.5 10 4.4 2.4 1.2 4.9 2.4 7.1 4.1 1.7 1.1 3.6 1.9 5.2 3.1 2.5 2.2 3.8 5.4 6.4 7.5 1.8 1.5 3.3 3.3 4.5 5.3 1.3 1.9 2.7 3.8 4.1 5.6 1.1-2.2 6.3 1.5 8.1 1.6 3.2.3 6.3-.3 9.4-.6 5-.2 9.7 2.5 13.4 5.7 2.2 1.8 3.5 4.4 4.5 7 1 2.7 2.4 5.1 3.8 7.5 1 1.8 1.8 3.8 2.9 5.5.9 1.3 1.7 2.8 2.4 4.3 1.2 2.5 1.2 5.1 1.1 7.8 2.1-1.4 4.4-2.4 6.7-3.3 6.5-3 13.5-4.3 20.6-4.7 6.1-.1 12.9-1.5 18.4 1.8 4.4 2.2 9 4 12.5 7.6 2.6 2.2 5.2 4.3 7.6 6.7 1.1 1.1 2.1 2.4 3.1 3.7.6.3 1.1.8 1.6 1.2 2.5 2.2 4.9 4.5 7.2 6.8 2.7 3.2 4.2 7.2 5.4 11.1.7 2.2 1.2 4.7 1.9 6.8.7 2.2 1.6 4.3 2.3 6.5 1.3 4.6 1.7 12.9-.4 17.2-1.6 2.7-3.5 5.3-5.5 7.7-3.1 3.2-7.1 5.3-10.4 8.3q-2.7 2.4-6 3.9v1.9c0 5 .3 10.1-.6 15.1-.4 2.6-.7 5.3-1.5 7.8-.7 2.4-1.5 4.8-2.1 7.2-1.3 4.6-2.6 9.2-4.7 13.6-1.5 2.9-3.4 5.6-5.3 8.3-1.6 2.2-3.1 4.4-4.8 6.6l-.3.6c-1.6 3-3.2 6-5.5 8.5-1.1 1.2-2.4 2.3-3.7 3.2-2.5 1.8-4.9 3.8-7.4 5.5-4.2 2.6-8.4 5.3-12.8 7.6-4.6 1.8-9.1 3.7-13.8 5.1-3.1.9-6.3 2-9.2 3.3-6 2.7-12.5 4-19 4.8-2.8.4-5.6.7-8.4 1.5-2.7.7-5.5 1.2-8.3 1.8-3.7 1.2-7.5 2.2-11.3 3.2 1.7 2.5 4.1 4.6 6.3 6.6 3.9 1.8 7.3 4.2 10.5 6.9 1.9 1.1 4 1.9 6.1 2.6 2.7 1.1 4.9 2.9 7.5 4.1 7.2 3.1 14.4 6.7 19.8 12.5 3.4 2.5 6.9 4.8 9.8 7.8 2.6 2.4 6.1 3.1 8.7 5.5 1.6 1.2 2.3 3.2 3.9 4.3 1.9.7 3.8 1.4 5.8 2.1l.2-.2c2.7-.8 5.4-1.8 8.1-2.7 2.4-.7 4.8-1.2 7-2.2-1.6-2.5-4.7-2.8-4.4-6.6.4-3.3 3.2-5.6 5.9-7.3 2.3-1.4 5-1.7 7.3-3.1 1.4-.9 2.8-2.1 4.6-2 2.8.3 5 2.5 6.7 4.6 1.1 1.4 2 2.9 2.9 4.5.9 1.9 1.5 4 2.2 6 .5 1.5 1.1 3 1.4 4.5.5 3.1.1 6.4 0 9.5-.4 4-1 8.3-2.3 12.1-1 3.2-2.2 6.5-5.1 8.5-4 3.3-7.4 4.9-12.4 2.8-2-.6-3.7-2-5.8-2.2-2.7 1.7-5.5 3.3-8.2 5.1.7 2.7 1.9 5.2 2.9 7.8 1.7 2.8 3.2 5.7 4.3 8.8 1 2.4 1.7 4.9 2.3 7.5.5.2 1 .3 1.5.5 3.1 1 6 2.5 8.9 4 3.1 1.4 5.4 3.9 7.9 6.1 1.9 1.8 3.5 3.8 4.9 5.9.1-4.6.6-9.3.7-13.9.1-2.5.6-5 1-7.5.3-3.8 1.3-7.5 1.8-11.3.5-2.2 1.4-10.4 3.6-10.9 2.5-.5 3.2 3.3 3.9 5 1.3 4.4 1.9 9 2.7 13.5.6 2.6 1.1 5.2 1.4 7.8.3 2.4.3 4.9.8 7.2.4 1.9.9 3.7 1.4 5.6 1.4-5.7 1.6-11.6 2.5-17.4.4-2.7.7-5.3 1.1-8 .4-2.5.9-5.1 1.3-7.6.6-3.6 1.8-7 2.7-10.5.4-1.1.5-2.4 1.4-3.1 1.3-.9 2.5.5 2.8 1.8 2.4 8.7 2.1 17.8 2.5 26.8.4 3.5.8 7.1.9 10.5 1.6-5.3 2.7-10.6 4.2-15.9.5-1.7 1-3.4 1.5-5 1.2-3.9 2-8 2.8-11.9.6-3.1 1-6.3 1.8-9.4.3-.7.9-1.3 1.8-1.2 1.7.5 1.8 2.7 2.3 4.2.6 3.1 1.6 6.1 2.4 9.2 1.1 4.4 2.1 8.9 3.4 13.3 1.1 4 2 8.1 2.1 12.3" class="st0"/><path d="M368.6 355.8c1 2.4-.1 4.3-2.8 4.4-1.2.1-2.4.2-3.6.5-.5.3-1 .4-1.5.2-2-.8-.9-3.5-.7-5 .5-2.5 1.2-4.9 1.7-7.3.4-1.2.3-2.7 1.2-3.7.7-.7 1.9-.5 2.4.3.9 1.8 1.3 3.8 1.8 5.7.6 1.6 1 3.2 1.5 4.9m18.7-7.3c.3 1.4.9 3 .1 4.4-1.2 1.8-3.3 2.9-5.1 3.8-.8.5-1.9.3-2.4-.6-1 1-1.6 3.4-3.4 2.9-.8-.3-1.2-1.1-1.2-1.9.1-2.2 2-3.6 3.3-5.1.5-1.6 1-3.1 1.4-4.7.7-2.4 1.3-5.1 2.1-7.4.4-1.1.4-1.8 1-2.7.8-1.2 2.5-.8 2.9.5.4 1.5.2 3.1.4 4.5q.3 3.15.9 6.3m19.1-4c.9 3.8 2.6 7.6-2.3 9.2-1.4.5-3 .9-4.4 1.3-1 .2-1.9.7-2.9.4-.6-.2-1.1-.9-1.1-1.5v-.1c-1.2-1.4-.2-3.4.1-4.9.9-3.5 1.8-7 3-10.5.8-1.7.4-4.6 2.3-5.5 2.3-.6 2.6 2.6 3.2 4.1.8 2.5 1.5 4.9 2.1 7.5m-299.3 8.8c4.1 4.7 4.7 31.8-5.6 27.9-7.3-3.1-5.4-35.4 5.6-27.9m-3 44.8c.3 3.3-2 12.7-6.7 9.1-2-2-3-4.7-3.2-7.4-.2-3.3.6-11.4 4.2-12.7 1.4-.5 2.7.6 3.2 1.9.6 1.3 1 2.6 1.3 3.9.8 1.6 1.1 3.4 1.2 5.2m-3.4 1.6v-1c0 .2-.1.5-.1.7-.1.4-.2.8-.4 1.2-.1.3-.3.5-.5.7.3.7.1 1.5-.4 2h-.1s0 .1.1.1c.4-.3.8-.7 1-1.2.3-.6.4-1.6.4-2.5" class="st1"/><path d="M102.9 397.7c1.2 1.4.2 3.5-.1 5-.1.6-.6 1-1.1 1.1-.7.1-1.5-.4-1.5-1.3v-.2c-.1-.6-.1-1.1 0-1.7 0-.4.1-.9.1-1.3-.2-.5-.3-.9-.4-1.3-.3-2.4 1.8-3.8 3-.3" class="st1"/><path d="M101.9 402c.3.7.2 1.4-.1 1.9-.7 1-2.2 1.3-2.8-.2-.5-2-2.2-4.5-1.3-6.5.9-1 1.7-.2 2.3 1 .2.4.4.9.7 1.4 0 .1.1.2.1.3.3.8.7 1.7 1.1 2.1M36.1 202.5c.2 5.5-.1 12.9-2.9 17.7-1.2 1.6-3.1 3.2-5.2 2.5-1.1-.4-1.9-1.2-2.5-2.1-2.2-1.5-2.8-4.2-3.6-6.6-1.4-3.7-1.6-7.8-1-11.7.2-2.6.4-5.1.9-7.7.6-3 2.6-6.2 5.7-7 2.5-.7 5.3.8 6.5 3.1 1.8 3.6 1.8 7.9 2.1 11.8M28 215.8c.4-.8.6-1.7.8-2.6-.3.8-.6 1.6-1.1 2.4 0 .1.1.2.1.2.1.1.2.1.2 0m5-47.1c.4 3.7.2 11.9-4.8 12.3-3.6-.7-4-5.4-4-8.4-.3-1.7-.4-3.4 0-5.1.8-3.7 3.4-6.4 7.2-4.4 1.6 1.3 1.4 3.7 1.6 5.6m217.8 113.9c1.4.9 1.7 2.9.6 4-5.6.7-11.1 2.4-16.7 3.7-4.4 1-8.9 1-13.2 2.2-2.9 1-3.9 3.3-4 5.9-.5 1.6-.7 3.5-.5 5.9.6 8.6 3 16.9 5.5 25.1.9 4.2-4.6 4.1-7.2 5.6-3.5 1.6-6.6 4.4-10.5 4.7h-.5c-1.7-.7-.9-3.3-1.2-4.7-.3-3.6-.7-7.1-1.1-10.7-1.9-11.3-5.4-23.8.9-34.2 8.1-14.4 36-18.3 47.9-7.5m80.6 108.6c.4 11.3.6 22.7-.4 34.1-.6 6.7-1.4 13.5-3.4 19.9-.7 2-3.4 12.1-6.1 10.5-1.2-.7-1.2-2.3-1.3-3.6-.2-3.5-.2-6.9-.2-10.4-.1-10-.6-20 .5-30 .2-4.5.8-9 1.3-13.5h-.3c-4.6-.1-9.4-.5-13.9.7-.8.8-1 2.2-1.5 3.3-.3.9-.7 1.9-1 2.9-.7 2.3-1 4.8-1.4 7.2-.5 1.6 0 5.1-2.1 5.3-1.8-.1-1.7-2.3-1.8-3.6-.3-2.6-.1-5.4-.9-7.9-5.1-.2-10.2.9-15.3 1.5-.7 2.8-.6 5.8-.9 8.6-.2 1.5-.1 3.1-.7 4.5-.5 1.1-2.2 1.1-2.7 0-1-3.3-1.3-7-3-10.3-3.1.5-6.2.9-9.1 2.2-3.1 1.3-6.5 1.9-9.7 2.5-.6 3.7-.2 7.5-.3 11.3-.1 6.4-1.2 12.8-1.6 19.1-.3 5.7-.4 11.4-.8 17.1.2.7.3 1.5.5 2.2.5 1.8-1.7 3.1-2.6 1.2-1.9-5.2-3.3-10.6-5.3-15.8-1.2-3-2.7-5.8-3.8-8.7-1.1-3-2.2-6.1-3.4-9.1-2-4.3-5.3-7.7-8.6-11-2.8-3.2-6.1-5.9-9.8-8.2-1.5-1-2.9-2-4.4-3.1-.4-.3-.9-.6-1.3-1-.3 0-.5-.2-.8-.5-.7-.9-.2-2.1 0-3 1-3.8 1.3-7.7 1.3-11.6.1-4.4-.4-8.8-1-13.1-.3-1.6-.8-3.6.5-4.9.6-.6 1.3-.9 2.1-1.2q3.9-1.65 8.1-2.4c2.6-.3 5.1-1.2 7.7-1.9 1.3-.4 2.7-.2 3.8.7 2.5 2 4.8 4.7 8 5.5.7.1 1.3.3 2 .3 1.9 1 4.2 1.3 6.4 1.5 3.5.3 7 .4 10.5.6 2.3.1 4.2.1 6.5-.3 5-1.2 9.6-3.7 14.4-5.5 1.6-.6 3.2-1.1 4.8-1.7 3.3-1.3 5.8-3.8 8.5-6 2.6-2.1 5.4-4.1 7.3-6.8.9-1.3 1.8-2.7 2.6-4.2.8-1.4 1.5-2.7 2.3-4 .5-.8 1.3-1.8 1.6-2.7.4 0 .7 0 1.1.1.5 0 .9.1 1.4.1 1.8 1.3 3.3 3.1 4.4 5 1.7 2.9 2.6 6.1 3.9 9.2 3.6 9.2 7.7 18.7 7.9 28.9" class="st1"/><path d="M198.8 222.5c.9-.1 1.7-.5 2.5-1 2-1.3 3.7-2.8 5.3-4.5-2.3.6-4.7.8-7.1 1.3-2.7.8-5.3 1.7-7.9 2.5 2.2 1.1 4.7 1.8 7.2 1.7m-.4 3.7c-4.2 0-8-2-11.5-4-.4-.2-.7-.4-1.1-.7-.5-.1-.9-.3-1.2-.7-.7-.4-1.4-.8-1.8-1.5s-.2-1.9.6-2.3 1.6.3 2.3.5c3.1-.2 6.1-.9 9-1.8 2.5-.8 5-1.7 7.6-1.8 2.7-.3 5.2-1.4 7.9-1.4 2.1 0 2.8 2.6 1.4 4-1.8 1.7-3.2 3.7-5 5.4-2.3 1.9-5 4.3-8.2 4.3m41.9-12.5c-3.2-.5-6.5-.8-9.8-1.2-2.1-.3-4.1-.7-6.2-.8-.4 0-.9.1-1.2-.1-.9-.3-1.1-1.5-.7-2.2 1.2-1.7 4.5-.9 6.3-.8.3-1 1.4-1.3 2.4-1.5 3.1-.9 6-2.4 9-3.3 3.2-.8 11-5.7 13.5-4.5 1.3.7 1.2 2.6.3 3.6-1.2 1.1-2.4 2.3-3.7 3.4-1.1 1-2.3 2.1-3.4 3.2-1.6 2-3.5 4.6-6.5 4.2" class="st2"/><path d="M193.8 222.9v-.8c-.4 0-.7-.1-1.1-.2-1.5-.7-.9-2.9.8-2.7 3.5-.5 7-1 10.2-2.2.5-.3 1.1-.7 1.7-.7 1-.1 1.6 1.2 1.5 2-.1 1.4-1.6 1.9-2.6 2.4-2.4 1.3-4.9 2.3-7.4 3.3-1.3.8-2.8.7-3.1-1.1m86.9-19.6c-3.6-.7-7.1-1.6-10.7-2-3-.2-5.8-.5-8.6-1.4-.4-.1-.9-.2-1.3-.4-.8-.6-.8-1.8-.1-2.5.6-.6 1.5-.5 2.2-.4.6-1 2-1.1 3-1.6 1.2-.5 2.4-1.1 3.5-1.6 4-1.9 8-3.5 12.2-5 2.9-1.2 5.9-2.4 8.8-3.7 1.7-.7 3.4-1.9 5.2-2.2 1.3-.2 2.4 1.1 2.2 2.4-.4 1.9-2.1 3.4-3.1 5.1-1.7 2.8-3 5.8-4.9 8.4-2 2.6-4.9 5.5-8.4 4.9m47.4-28.8s0-.1.1-.1c0 0-.1 0-.1.1m-12 5.8h.3c0-.1-.1-.3-.1-.4v-.2c-.1.1-.3.1-.4.2l-.6.3c.2 0 .5 0 .8.1m3.1 4.2c-3.4-.7-7.2.2-10.3-1.5-2.1-.1-4.2 0-6.3-.2-.9-.3-1-1.6-.6-2.2.5-.6 1.3-.7 2-.8.3-1.4 8-3.1 9.8-3.7 4.9-2.4 9.5-5.4 14.7-7.3 1.5-.5 3.1-1.6 4.7-1.3 1.6.6 1.5 2.6.5 3.7-1.2 1.6-2.1 3.3-2.9 5-2 4.8-6.1 9.1-11.6 8.3" class="st2"/><path d="M314.6 184.1c-1.7-.8-.7-3 .3-3.9-.6-2.2 1.8-2.6 3.1-1.3 2.1 2.1-.9 6-3.4 5.2m48.2-27.2c0 .1 0 .2.1.3.2-.3.4-.7.6-1-.2.1-.5.2-.7.4zm-16.7 9.5c-1.6 0-3.2-.1-4.9-.1-.5 0-1 .1-1.4-.2-.8-.5-1.1-1.8-.5-2.6.7-.9 1.9-.9 2.9-1 1.3-.1 2.6-.1 3.8-.1 3.1-2 6.5-3.7 9.6-5.7 3.3-2.3 6.6-4.6 10.4-6 1-.3 2 .4 2.2 1.4.3.9-.2 1.8-.6 2.5-1.4 2.5-2.4 5.2-4 7.6-1.9 3-4.5 3.5-7.9 3.6-3.1 0-6.3.6-9.6.6M167.4 83.1c10.6.5 18.9 10.8 14.9 21.2-1.4 4.8-5.2 8.2-8.1 12.1-3.3 4.6-7.4 8.7-12.5 11.2-7.6 2.9-15 6.8-23 8.8-8 1.5-16.2 1.9-24.3 1.6-2.7-.7-13.7-1.6-14-4.6-2.2-3.8 6.8-7.6 9-10.1 2.8-2.7 4.8-6.2 8-8.5 4.2-2.8 6.5-7 10.1-10.4 2-1.9 4.3-3.5 6.4-5.3 2-1.9 3.8-4 6.2-5.4 3.7-2.3 7.7-4.1 11.7-5.7 5.2-2 10.1-5 15.6-4.9m106.5-27.3c6.8 6.3 5.4 17.9-1.1 23.9-4.4 4.6-10.9 5.4-16.6 7.4-6.9 3-15 3.6-22.4 4.2-3.1.2-6.1 1.2-9.2.9-3-.4-8.4-.5-9-4.3-1.9-4.4 7-8.8 9.6-11.4 3.3-3.7 5.6-8.2 10-10.8 8.4-7.3 18.7-11.5 29.4-14 3.7-.9 6.5 2.2 9.3 4.1" class="st2"/><path d="M329.8 289.5c1.2 1.6 2.9 3.5 2.4 5.6-.3 1.1-1.3 1.9-2.7 2.4-.1 1.3-1.2 2.4-2.7 1.6-.5-.2-1-.5-1.5-.8-.6 0-1.1 0-1.6-.1-1.9-.2-3.6-1-5.2-1.8-1.5-.5-2.4-2.3-1.4-3.6v-.3c-.2-.1-.5-.2-.7-.3 0 3.8-.3 7.6-.1 11.4.4 4.8.3 9.7.5 14.5.1 4.2.1 8.4-.1 12.6-.2 3.1-.3 6.1 0 9.1 2.1-1.3 4.2-2.6 6.4-3.6.5-.3.9-.7 1.5-.7 1.6-.2 2.9.9 4.1 1.8 2.5 2.4.2 6-2.3 7.4-3.4 2.1-7.4 3.4-11.4 3.3-.5 0-.9 0-1.4-.1-.4 0-.7 0-1.1-.1-.3 1-1 2-1.6 2.7-.8 1.3-1.6 2.7-2.3 4-.8 1.4-1.7 2.8-2.6 4.2-1.9 2.8-4.7 4.7-7.3 6.8-2.7 2.2-5.2 4.8-8.5 6-1.6.6-3.2 1-4.8 1.7-4.8 1.8-9.4 4.3-14.4 5.5-2.3.4-4.3.3-6.5.3-3.5-.1-7-.2-10.5-.6-2.2-.2-4.4-.5-6.4-1.5-.5-.2-.9-.5-1.4-.9-1.6-1.2-4-2.8-3.2-5.1.8-2 3.2-1.6 5-1.8 2.2-.3 4.8-.3 6.7-1.7 1.3-3.7-3.6-6.4-6-8.1-1-.6-2-1.2-2.9-1.8-.6-.3-1.2-.7-1.4-1.4-.4-.9-.1-2 .8-2.6.8-.4 1.8-.2 2.7-.5 2-.6 3.7-1.7 5.6-2.6 1.7-.8 3.4-1.6 5-2.6.6-.4 1.1-.8 1.4-1.4.1-.5-.4-1-.7-1.4-.7-.7-1.5-1.4-2.4-1.8-1.4-.6-2.9-1-4.3-1.5-2.9-.9-5.5-2.5-8.4-3.2-2.7-1-2-3.4-.9-5.3.5-1 .9-2.1 1.3-3.2 1.4-3.4 2.7-7 3.3-10.7-2.9.1-5.8.6-8.5 1.7-2.3 1-4.4 2.4-6.6 3.7-2 1.1-4.2 2.1-6.1 3.3-.1 1.1-.8 2-2.1 1.7-2-1.4-1.8-4.6-2.8-6.7-2-5.8-2.8-11.9-2.7-17.9-.4-2.1-1.1-4.8-1-7.2.1-2.6 1.1-4.9 4-5.9 4.3-1.2 8.8-1.2 13.2-2.2 5.5-1.3 11-3 16.7-3.7.7-.1 1.4-.2 2.2-.2 5.7-1 11.6-.7 17.4-1.7 4.1-1 8.2-1.4 12.4-1.8 8.4-.6 16.9.2 25.2-1.9 2.6-.7 4.9.8 6.1 3 .6 1 1.5 2.4 2 3.8.5-.5 1.4-.6 2-.7 1.8-.2 4-.3 5.6-.1 1.6.6 3.7 1.3 5 3" style="fill:#e9e2bd"/><path d="M300.7 292.3c.2-.1.3-.2.5-.3h-.5zm-35.4 14.2c-2.4-.1-4.9.1-7.3-.1-3-.3-6.1.2-9.1-.2-3-.2-6.1 0-9.1-.2-2 .1-4-1-3.2-3.3-1.6.7-3.3 1.4-4.8 2.4-.7.5-1.6-.3-1.6-1-.2-2.1 2.8-3.1 4.3-4 3-1.5 6-3 9.3-3.8 4.7-1 9.4-1.9 14.2-2.5 3.2-.6 6.4-1.2 9.6-1.6 3.2-.5 6.4-1.2 9.6-1.6 4.7-.7 9.4-1.6 14.2-1.9 4.1-.2 8.3-.6 12.4-.2 2 .3 4.8.9 3.9 3.6-.3.9-1.3 1.3-2.1 1.8-2 1.1-4.1 2.2-6 3.5-2.3 1.7-4.9 3.4-7.5 4.4-4 1.8-8.1 3.5-12.5 4.2-4.8 0-9.5.4-14.3.5" style="fill:#664441"/><path d="M76.5 455.8c-.3 1.2-.6 2.4-.8 3.7-1.3 6.5-1.7 13.1-2.1 19.6-.4 5.7.2 11.4-.9 17-.2.5-.4 1-.9 1.3-.3.2-.7.4-1.1.3-1.9-.9-3.3-2.5-4.5-4.3-3.9-2.9-8.5-5.3-11.7-9-.9-1 .4-3 1.6-1.9.7.7 1.4 1.3 2.2 1.9-1.6-1.7-3.2-3.5-4.4-5.4-3.8-5.9-7.3-11.9-10.3-18.2-4.6-10.9-7.3-22.3-11-33.5-7.6-20.7-11.3-41.9-9-64-.3-12.1 1.8-25.3 11.7-33.5 3.3-3.1 8.3-3.7 11.5-6.8 3.7-5.4 3.4-14.1 1.5-20.1-1.1-8.6-4.9-17.1-4-25.8.5-2.7 1.8-9.7 5.2-9v-.3c.2-.9 1.2-1.7 2.2-1.4 1.5.5 2.8 1.4 4.2 2.1 2.9 1.2 6.1 1.7 9.1 2.8 1.5.5 3 1.1 4.5 1.6-4.8.6-9.8 3.4-11.2 8.3-.5 2.6.5 5.1.8 7.6.5 3.7 1 7.3 1.8 10.9 1.6 6.8 3.4 13.6 4.9 20.4 1 6.1.4 14.5-3.7 19.4-2.3 2.7-5.6 4.4-8 7-1.4 1.4-2.5 3-3.4 4.7-1.2 2.5-1.9 5.2-1.9 7.9-.7 5.5-1 11.1-.4 16.7.5 5.8 1.7 11.4 3.2 17 1.7 7.3 3.2 14.6 5.4 21.7 1.6 5.4 2.9 11 6 15.8.3.3.7.5 1.2.5 2.7 8.5 6.2 16.7 8 25.5.5 1.8 2.3 1.5 2.9.2.7.1 1.1-.2 1.4-.7m2.2-15.1c.2 2 0 4.1-.3 6.1-.4 2.4-.9 4.7-1.5 7.1.1-.9 0-1.8.1-2.5.2-3.5 1.2-7 1.1-10.5-.1-1.3-.5-2.6-.6-4v-1.3c.4 1.7 1 3.4 1.2 5.1m4.5-17.6c-.4.6-.9 1.3-1.3 1.9s-.9 1.2-1.4 1.8c0-.1.1-.2.1-.2.8-1.2 1.7-2.4 2.6-3.5m13.7-138.3c.2 6.4-.5 12.9-.4 19.3-.1 8-.2 16.1-.9 24.1-.8 7.7-1.4 15.3-1.9 23-.7 6.8-1.6 13.6-2.2 20.4-.3 7.2-1 14.3-1.5 21.4-.2 3.9-.2 7.7.5 11.6.4 2.1.9 4.1 1.4 6.1.3 1.1.3 2 .1 2.8 0-.2-.1-.3-.1-.5-1.2-5.3-2-10.8-2.4-16.2-.4-7.7.2-15.9.5-23.7s1-15.7 1.4-23.5c.4-10 1.1-20.1 2.1-30.2.6-7.4 1.5-14.7 2.2-22.1.3-3.6.8-7.3 1.1-10.9 0-.6.1-1.1.1-1.6" class="st5"/><path d="M227.4 433.8c6.3 4.8 0 12.7-3.6 17.1-1.5 1.7-2.7 3.7-4.2 5.4-3.6 3.5-12.4 3.5-17.3 3.4-7-.2-14 0-21-.6-6.2-.6-12.4-1.7-18.6-1.8-6-.4-12-1-18-1.5-7.2-.5-14.3-1.6-21.3-3.5-5-1.3-9.9-2.4-15-3.3-3.4-.6-6.9-.7-10.2-1.6-3.3-1-6.5-2.7-9.7-4.1-3.8-2.1-10-3.7-10.8-8.4l-.1-.1c.3-2.8 1.4-5.5 2.8-7.9 1.1-1.3 2.5-2.3 3.9-3.3 2.9-2 5-4.3 7.8-6.3 2.8-1.9 5.6-3.7 8.4-5.6 2.1-1.4 4.4-2.4 6.7-3.3 3.7-1.7 7.8-2.5 11.8-2.8 6.9-.5 13.8.9 20.6 2 3.4.5 6.9 1 10.2 1.8 3.3.6 6.7 1 10 2 3.3.8 6.8 1.2 10 2.3 4.7 1.6 9.3 3.6 14 5.2 2.9.9 5.8 1.7 8.7 2.5 2.9.9 5.8 1.7 8.8 2.2 3.8.4 7.6 1 11.3 1.9 1.1-.5 2.1.5 3.2.8 4.3 1.7 8.1 4.5 11.6 7.5M92.8 446.3c.5-.2 1.1 0 1.4.5-.5-.1-.9-.1-1.4-.2zm3.5 53.4c-3.2-.6-7.9-3.1-7.6-6.7-.3-.1-.5-.2-.8-.4-3.4-3-2.7-8.7-2.4-12.8.3-3.5 1.3-6.9 2.2-10.3 0 1-.1 2-.1 3-.2 4.9-.6 9.8-.1 14.6.2 1.8.8 3.6 1.6 5.2s2.1 2.8 3.3 4c1.4 1.2 2.6 2.4 3.9 3.4m8.7 3.3c-.7-.2-1.4-.5-2.1-.7h-.1c.1-.1.2-.1.2-.2.7.2 1.3.6 2 .9m4.6-39.8-.1-.1c-1.3-2.2-2.1-4.5-3-6.9 1.1 2.3 2.1 4.6 3.1 7m66.5 43.2c.4.1.8.2 1.3.3-8.5-1-17.5-1.8-24-7.8-.7-.8-1.5-1.6-2.3-2.3 2.3.7 4.6 1.3 6.8 2.1 3.7 1.3 6.7 3.8 10.5 5 2.1.8 4.3 1.2 6.3 2.1q.45.15.6.6c.3-.1.6-.1.8 0m24.5 17.1q-1.5.15-3 0c-3.1-.1-6.3-.2-9.3-.9s-5.6-2.3-8.5-3.1c-3.2-.7-6.4-.9-9.6-1.5-6-1.2-12-2.2-18-3.4-5.5-1.6-11-3.2-16.6-4.1-3.9-.4-7.8-1.1-11.6-2.1 4.8.5 9.6.8 14.4 1.9 11.3 1.1 21.9 5.9 33.3 6.6 4.4.3 8.5 2.1 12.8 3.2 5.3.8 10.6 2.9 16.1 3.4m3.9-12c2.5 0 5.3.1 4.7 3.5-.1.3-.2.6-.4.9-.2-2-1.5-3.7-4.5-4.2-.2-.1-.5-.1-.7-.2z" class="st5"/><path d="M295.3 518c2.4-1.5 3.9 1.7 2.2 3.4-2.6 3.8-6.8 5.8-10.6 8.2-5.8 4.2-11 9.1-17.4 12.4-3.1 2.1-6.5 3.7-10.1 4.8-.7.3-1.3.5-2 .8-1.2-1.9-4.4.2-6.2.4-6.3 1-12 3.9-17.8 6.2-4.6.9-9.2 1.6-13.9 1.7-3.2-.2-6.4-.6-9.6-.9-4.3-1.3-8.9-2.7-13.3-1.9-.2.1-.4.3-.5.4-7.9-1.6-15.7-3.9-23.8-4.8-6.4-1.3-13.1-1.6-19.4-3.2-7.4-1.5-14.4-4.1-21.8-5.1-7.7-.4-13.9-5.6-21.2-7.5-.5-.1-.8-.4-1-.9-.3-.2-.6-.3-.8-.4-2.7 2.2-6.4-2.5-8.5-4.1-1.6-.4-3.6-.9-4.5-2.5-.5-1 0-2.5 1.2-2.6 0-.4.1-.8.4-1.2.2-.2.4-.4.6-.5-.3-.8.2-2 1.2-1.9 1.4.7 2.3 2.2 3.6 3.1 7.8 1 15.2 4.5 23 5.5 7 .8 13.9 2.1 20.8 3.6 12.3 2.6 24.5 5.3 37 6.7 7.4 1.3 14.2 3.8 21.6 4.5 3.7.5 7.4.1 10.9-1.3 3.9-.9 7.9-2.9 8.8-7.1 1.5-3.6 1-7.6 2-11.3 4.3-6.5 12.6-1.2 18.4-.1 1.4.5 3.6.3 3.9 2 1.4.1 2.9.2 4.3.1 11.2-.3 22.1-2.4 33.1-3.8 3.3-.4 6.5-1.2 9.4-2.7m46.4-61.4c3.9 1.4 6.9 2.2 4.8 7.1-.7 2.3-1.3 4.7-2.2 7-1.6 3.8-3.4 7.5-5.5 11-2.7 4.3-6.8 7.3-10.2 11-2.4 2.5-4.7 5.1-7.5 7.2-1.5 1.1-3 2.2-4.5 3.5-1.9 1.7-3.7 3.5-5.3 5.5-.9.9-1.7 2.4-3.2 2.1-2.8-1-.6-4.2.1-5.9 1.4-3.5 3.1-7 4.8-10.3 1.5-3.2 2.4-6.2 3.5-9.4.7-2 1.5-3.9 1.8-6 .8-4.2 1.2-8.9 1.5-13 .1-1.4 0-2.8.3-4.2.2-.8 1.2-1.4 1.9-.8 1.6-2.4 5-7.9 8.4-6.9 3.8.7 7.6.4 11.3 2.1" class="st5"/><path d="M96.4 278.9c.7 1.9.7 4 .5 6 0 .5-.1 1-.1 1.5-.4 3.6-.8 7.3-1.1 10.9-.7 7.4-1.6 14.7-2.2 22.1-1 10.1-1.7 20.2-2.1 30.2-.4 7.8-1.1 15.7-1.4 23.5-.4 7.8-.9 15.9-.5 23.7q.6 8.25 2.4 16.2c.1.2.1.3.1.5 1 3.8-1.9 4.4-4.7 6-1.5.9-2.8 2.2-4 3.5-.9 1.1-1.8 2.3-2.5 3.5-.1.1-.1.2-.1.2 0 .1-.1.1-.1.2-1.5 2.4-2.5 5.1-2.8 7.9 0 .2-.1.5-.1.7v1.3c.1 1.3.5 2.6.6 4 .1 3.5-.9 7-1.1 10.5-.1.7-.1 1.6-.1 2.5-.1.7-.2 1.4-.5 2-.3.5-.7.8-1.4.9-.5 1.2-2.4 1.6-2.9-.2-1.9-8.7-5.3-17-8-25.5-.4 0-.9-.2-1.2-.5-3-4.8-4.4-10.4-6-15.8-2.1-7.1-3.7-14.4-5.4-21.7-1.5-5.6-2.7-11.2-3.2-17-.6-5.5-.2-11.1.4-16.7-.1-2.7.7-5.5 1.9-7.9.9-1.8 2-3.3 3.4-4.7 2.4-2.6 5.6-4.3 8-7 4.1-4.8 4.7-13.3 3.7-19.4-1.5-6.8-3.2-13.6-4.9-20.4-.9-3.6-1.4-7.3-1.8-10.9-.3-2.5-1.3-5.1-.8-7.6 1.4-4.8 6.4-7.6 11.2-8.3.2 0 .4 0 .5-.1 4.5-.6 8.9.8 13.4 1.2 1.7.1 3.3.2 5 .4 1.8.2 3.4 1 4.9 1.8 1.2.6 2.5 1.2 3 2.5m112.4 237c.3 3.7-3.2 8.3-7.6 7.6h-.6c-5.5-.5-10.8-2.6-16.3-3.4-4.3-1.1-8.3-2.9-12.8-3.2-11.4-.6-22-5.5-33.3-6.6-4.7-1.1-9.6-1.4-14.4-1.9-2.1-.2-4.3-.4-6.4-.8-4.4-1-8.5-2.7-12.5-4.6-.7-.3-1.3-.7-2-1l-.2.2c-.3.2-.7.3-1.1.3-2-.5-3.8-1.5-5.4-2.8-1.3-1-2.5-2.2-3.7-3.4s-2.5-2.5-3.3-4c-.8-1.6-1.3-3.4-1.6-5.2-.5-4.9-.2-9.8.1-14.6 0-1 0-2 .1-3 .2-4.2.7-8.3 1.1-12.5.2-2.7.3-5.3.7-8 .3-1.4.2-3.7 2-4 .8.1 1.1.6 1.2 1.2v.3c.4 0 .9.1 1.4.2.7.1 1.4.3 1.9.5 2.9.9 6.8.8 8.4 3.8.7 1.7 1.3 3.4 2 5.1.8 2.4 1.7 4.7 3 6.9l.1.1c2.7 4.2 7.4 6.5 10.5 10.4 1.9 2.4 3.8 5 5.8 7.4 8.2 5.5 17.8 9.1 25.2 15.7.8.7 1.6 1.5 2.3 2.3 6.5 6 15.5 6.8 24 7.8 1 .1 2.1.3 3.1.4 4.6.4 9.2 1.2 13.6 2.8 3.1.9 6.4.9 9.5 1.6.2.1.5.1.7.2 3 .4 4.3 2.2 4.5 4.2m13.3 20.2c-3.7-3.4 3.7-5.1 4.3-8.4 1.4-2.1.3-4.5.8-6.8.8-2.2 3.5-1.4 4 .6 1.8.4 3.5.9 5.3 1.1 2.6.4 5.7-.3 8 1.3 4.1-1.8 6.6 3.5 2 4.8-4.2 1.5-8.5 2.9-12.5 5-3.5 1.9-7.9 3.2-11.9 2.4m98.4-62.1c-2.6-.9-1.5-4.2-1.4-6.3.1-1.2.3-2.5.5-3.7.1-1.1.9-2.5 2.2-2 1.1-1.9 2.6-3.6 4.2-5.1-2.1-1.1-2.1-4.2.6-4.3 2.6 0 5.2.6 7.8 1.2 2.2.4 3.5 2 2.2 4.1-3.4 4.3-6.7 8.6-10.5 12.5-1.6 1.4-3.3 4-5.6 3.6m-31.1 122.5c2.9 5.6-1.3 17.8-9.1 15.7-7.6-1.1-14.7-4.5-21.7-7.5-6.5-2.7-13.3-4.6-19.9-7-2.2-1.1-4.2-2.5-6.7-2.6-12.8-.9-15.5 1.5-26.8 6-6.7 2.3-13.4 4.5-20 7.1-9.4 4.5-19.7 7.7-30 8.6-11.4-.5-15.9-12.8-5.6-18.8 5.4-1.9 9.8-5.6 14.9-7.9 4.5-2.1 9.3-3.5 13.6-6 5.6-4.1 12.9-3.4 18.9-6.5-1.8-6.8-1.7-13.9-1.9-20.8-.2-.7.1-1.6.5-2.1 0-.4.1-.8.4-1.1.1-.2.3-.3.5-.4 4.4-.9 9 .5 13.3 1.9l1.8.6c5.6 1.1 11.5 1.7 17.1.4 1.6-.5 3.1-1.1 4.7-1.8 5.8-2.4 11.5-5.2 17.8-6.2 1.9-.2 5.1-2.3 6.2-.4.1.2.3.6.3.9.1.4 0 .7-.1 1 1.3 2 1.2 6.5 2 8.2 7 .2 14.1-.4 20.8 2.2 3.6.7 7 2.3 6 6.7-.3 5.6-5.6 6.4-10.1 7.1-4.9.9-21.4-2.4-11.9 6.9 3.6 3.1 8.1 5 12.3 7.1 4.9 1.8 10.3 3.7 12.7 8.7" class="st6"/><path d="M281.2 583c-2.6 0-5.2-.8-7.4-2.3-1-.6-2.1-1.4-2.1-2.7 0-.8.4-1.5 1.1-1.9.3-1.5 2.2-1.5 3.4-1.6 2.2-.2 4.3-.4 6.5-.6.3-.6.6-1.2.8-1.8.3-.7.5-1.5 1.3-1.8.9-.3 1.8.4 1.9 1.2.2.7 0 1.4-.2 2.1 1.8.7 1.6 2.9 1.2 4.5-.8 3-3.5 5-6.5 4.9m-5.6 42.4c-4.1-.3-9-1.1-11.3-5-2-3.1-2.5-7.2-.7-10.6.6-1.2 2-3 3.4-2 .9.7.5 1.9-.2 2.7.1-.1.3-.1.4-.1 1.2-1.5 2.9.4 3.9 1.2 1.9.9 4.1 1.5 5.6 3 2.7 0 5.6-.8 8-2.2.7-.4 1.3-1.1 2.2-.9 1.6.4 1.7 2.3 1 3.6.4.9.1 2-.1 2.9-.4 1.6-.8 3.4-2 4.5-1 .9-2.3 1.3-3.6 1.4-1.9 1.3-4.3 1.7-6.6 1.5m-121.2 4.9c-1.7-.2-3.4-.6-4.9-1.6-2.9-1.7-6-3.7-6.7-7.2-.5-2-.3-4.1-.2-6.1.1-1.1-.1-2.3.7-3.2 1.4-1.1 2.3.6 2.2 1.8.8.1 1.3.9 2 1.3.8.5 1.7 1 2.6 1.4.6-.7 1.6-.4 2.3-.3 1.1.1 2.2.2 3.3.2 2.3 0 4.9-.9 6.8.8 1.5-.6 2.9-1.4 4.4-1.7 4.3-.2 1.8 6.8.8 8.9-.3.6-.8 1-1.3 1.4-1 1.8-2.9 4.8-5.3 3.5-2.1 1.2-4.5 1.1-6.7.8" style="fill:#272727"/><path d="M780.4 345.1c0 1.8.2 3.6.1 5.4s-.4 3.6-1.1 5.2c-.8 2.1-2.5 3.8-2.8 6.1-.6 2.5-.2 5.1-.1 7.6.2 3.4.5 6.5.5 9.9.2 7.3-.6 14.9-1.2 22.1-.1 1.8-.3 3.7-.4 5.5-.1 2.8 0 5.5-.3 8.3-.3 3.8-.7 7.5-.9 11.2-.5 8.9 0 17.9-.3 26.8-.1 8.5-.8 17-1.1 25.6-.2 5.6-.5 11.2-.4 16.8.2 5.2.8 10.4.8 15.5-.1 3.8-.6 7.6-.5 11.4 0 .6-.5 1.3-1.1 1.3h-.2c.1 2.3.2 4.7.5 7 .8 4.5.4 9 .4 13.5-.1 2.8.1 5.6-.4 8.4-.4 2.1-1.2 3-3.5 2.6-1.8-.2-3.6-.4-5.5-.4-1.9-.1-4.6.3-5-2.2-.4-4.7-1-9.5-.9-14.3.6-6.5 1.2-13 1-19.5-.1-5.3 0-10.7-.3-16-.2-6.5-.1-13-.3-19.5-.1-2.4-.6-4.8-.9-7.3-.3-2.6-.2-5.2-.4-7.8-.2-2.4-.3-4.9-.3-7.3 0-2.7-.4-5.3-.4-7.9 0-1.8.1-3.7.1-5.5 0-3.8-.3-7.6-.2-11.4 0-8.2.3-16.4.8-24.6.3-5.5-.3-11-.2-16.5-.1-4.8 0-9.7-.1-14.5-1.2 1.4-2.5 2.8-3.7 4.2-2.8 3.3-6 6.2-8.8 9.5-1.6 1.9-3.1 3.7-4.8 5.5-.8.8-2.3 2.9-3.3 1.3-.2-.3-.2-.6-.1-1-.5.6-1.1 1.2-1.6 1.8-2.2 2.2-4.5 4.3-6.6 6.7-1.9 2.3-4.2 4-6.5 5.9-2.9 2.8-5.6 5.7-8.9 8.1-1.8 1.4-3.5 2.9-5.2 4.4-2.3 2-4.7 3.8-7 5.8-2.4 2.4-5.3 4-8 6-.1.1-.3.2-.4.4.2 6.5.1 12.9.3 19.4.3 5.6.5 11.2.8 16.7.1 4.7-.1 9.4-.2 14.1s.1 9.3.1 14c-.4 8.2-.5 16.4-.4 24.6.3.4.3 1.1.3 1.6.1 1.5.1 3.1.1 4.6-.1 4.6.2 9.2.1 13.9-.3 6 0 12.4.4 18.3.2 2.8.2 5.3.3 8 .2 3.1.7 6.2.9 9.3.7 9.5-.5 19-.3 28.5 0 2 .1 4 0 6-.1.9-.2 1.8-.8 2.5-.8.8-2.2.6-3.2.8-2.6.4-5.3.2-8 .4-1.6.1-3.2.5-4.8.7-.7.1-1.6.2-2.1-.3l-.1-.1c-.2 0-.3-.1-.5-.2-1.5-1-1.7-3-2.1-4.7-.9-4.7-1.6-9.5-1.5-14.3.1-2.8.6-5.6 1.2-8.3.1-.6.6-1 1.2-1.1v-1c-.5-4.1-.9-8.3-1-12.4.1-8.3.3-16.6.1-24.9-.7-7.8-.6-15.8-.9-23.7-1.1-13-.5-26.1-.5-39.1.2-5.2.1-10.3.2-15.5 0-3-.4-6-.4-9-.1-3.8.2-7.5.1-11.3-.1-1.9-.2-3.8-.1-5.6l.6-10.5c-2.2-.3-4.4-.8-6.5-1.1-4-.6-8-1.7-12-2-7.6-.8-15.4-1.4-22.9-2.3-5.3-.8-10.6-1.1-15.9-1.6-4.6-.4-9.2-.6-13.9-1-4.1-.5-8.2-1.3-12.3-1.7-3.2-.4-6.4-.5-9.6-.9-6.6-.8-13.1-2.6-19.7-3.7-5-.7-10.1-.9-15.1-1.7-5.5-1-11.2-1.3-16.8-2-3.5-.4-6.8-1.6-10.3-2.1-3-.6-6-1.2-9-1.7-1.5-.3-3-.8-4.5-1 .4 4.6.2 9.2.5 13.8.3 3.5.3 7 .3 10.5-.1 9.7.5 19.4 1 29.2.3 7.2-.2 14.4-.2 21.6-.1 5.5-.4 10.9-.1 16.4.1.6.1 1.2.1 1.8 1.4 1.1 1.5 3.2-.7 3.6-.4-.1-.8-.3-1.2-.4-.2.1-.5.1-.8.1-2.2.3-4.4.9-6.6 1.1-.7.1-1.5 0-2.1-.3-.3-.2-.6-.4-.7-.7-.1 0-.2.1-.2.1-3.6 1-3.5-2.6-3.3-5.1.1-3.2-.1-6.4-.1-9.5-.2-13.3 0-26.6-.6-40-.1-10.2-1.3-20.3-1.2-30.4l.3-10c.1-1 .1-1.9.1-2.8-3.5-.6-7-1.4-10.5-1.7-5-.4-10.1-.4-15.1-.9-3.4-.2-6.7-.8-10.1-1.3-5-.6-10.1-.8-15-2.1-2-.5-4.1-1.1-6.1-1.7-2.6-.8-5.1-2.2-7.9-2.4-.6.1-1.3-.1-1.6-.7-.2-.4-.2-.8-.2-1.1h-.2c-.3 9.5-.6 19 0 28.6.7 7.3.7 15 1.2 22.3.5 6.8.1 13.7.2 20.6.1 8.7-.2 17.4-.2 26 0 6.9 0 13.9-.1 20.8-.4 8.7-.7 17.5-.5 26.2 0 3.4-.1 6.8 0 10.1 0 1.6.1 3.1.1 4.7 0 1.2-.1 2.5-1 3.4-.8.8-2.1.9-3.2.8-2.1-.1-4.4-.8-6.4-1-1.7-.2-3.5-.1-5.2-.2-3-.6-2.5-6.7-2.9-9.1-1.6-15.2-1.4-30.5-1.4-45.7.1-24.5-.4-49.1-.2-73.6 0-3.5 0-7 .2-10.5.3-4.6.8-9.3.7-13.9 0-2.3 0-4.6-.2-6.9-.1-1.1-.2-2.2-.4-3.4q-.6.15-1.5-.6c-1.6-3.1-.6-6.9-1-10.2-.1-2.7-.2-5.5.2-8.2-.2-.4-.3-.9-.2-1.3.2-1.3 1.3-2.2 2.3-2.9 2.4-1.7 5.1-2.8 7.6-4.3 3.3-2.3 5.7-5.7 9.3-7.6 1.4-.8 2.8-1.5 4.3-2.2 2.5-1.2 4.7-2.7 6.9-4.3 4.3-2.8 8.3-5.6 12.3-8.7 3.9-3.1 8.8-4.6 13-6.9 2-1.2 4.2-2.3 6.3-3.5 1.7-.9 3.4-1.9 5-2.9 2.5-1.8 5.2-3.3 7.8-4.9.9-.5 1.7-1.1 2.5-1.7 2.3-1.7 4.3-3.9 6.6-5.5 1.4-1.1 3.1-1.7 4.9-1.5 5.3.3 10.6.6 15.8 1.3 5.2.8 10.4 1.7 15.6 2.3 9.3.5 18.6.8 27.9 1.6 5.7.5 11.2 1.5 16.8 2.5-.6.3-1.1.9-1.6 1.3 0-1.5-1.8-2.2-2.8-.8-.7.4-1.4 1.2-1 2.1-.1.1-.2.3-.3.4s-.2.3-.2.4c-2.1 1.3-2.9 3.9-4.2 5.9-1.9 3.6-3.6 7.3-5.8 10.7-6.1 7.7 2.7 7.4 7.9 9.7.3.1.6.1 1 0 .3-.1.5-.3.7-.5 6.1.4 11.9 2.1 17.9 3 5 .7 10 .3 15 .8 7.3.7 14.4 2.2 21.6 3.3 6.7.8 13.3 1.1 20 2.2.8 1 2.2 1.8 4.6 2.7 2.2.6 3-2.1 3.2-3.8.5-3.3 1-6.6 1.6-9.9.4-2.2 1.1-4.3 1.6-6.4.8-2.2.8-7.4 3.1-8.4.1 3.5-.6 6.9-1.5 10.2-.8 3.2-1.3 6.4-1.8 9.6-.6 1.2-1.3 2.4-2 3.5-.3.5-.7 1.1-.8 1.7-.1.8.3 1.8 1.2 1.9 1.3.1 2.2-1.2 3.1-2 .5.2 1.1 0 1.5-.4.2-.2.4-.5.6-.8 1.5.1 2.7-1.2 4-1.8 1.3-.7 2.5-1.4 3.8-2.1 0 .7.4 1.6 1.2 1.7 1.5 0 2.8-1.1 4.2-1.6 1.5-.7 3-1.3 4.5-2 2.8-1.3 5.3-3.2 7.9-4.9 1.2-.8 3-1.7 3.8-3l.3-.3c.1-.1.2-.2.3-.4 3.5-1.7-1.4-6-2.8-7.6-1.1-1-2.1-3.6-4-2.8-.5-.6-.9-1.2-1.7-1.5-1.4-.5-2.3 1.2-2 2.4 1 2.4 2.2 4.8 3.4 7.1-1.1.6-2.1 1.3-3.1 2-1.8 1.1-3.8 1.7-5.6 2.7-1.4.8-2.7 1.7-4 2.6-2.3 1.4-4.7 2.6-7 4 0-1.2.2-3.1-1.3-3.4.7-3.9 1.4-7.8 2-11.7.1-1.7 1.4-4.8-.4-5.9q-.6-.3-1.2 0c-1-2-2.9-1.2-4.3-.2-.2-.2-.4-.4-.7-.5-.8-.3-1.4.1-2 .6-.3-.8-1.4-1-2-.3-.5.8-.7 1.7-1.1 2.5-.8 2.3-1.6 4.7-2.4 7.1-.9 3-1.4 6-2.3 9-.6 1.9-1.4 3.6-2 5.1-3-.6-6-1.1-9-1.3-2.9-.2-5.6-1.1-8.5-1.4-1.7-.2-3.3-.4-5-.6-4.8-.5-9.6-.4-14.4-1.1-4.9-.8-9.6-2.5-14.6-2.7-4.4-.2-8.8.5-13-.6-4.9-.9-9.9-1-14.5-3-.1-.2-.2-.4-.4-.6 2-2.4 4.1-7.1 5.4-8.2 2.7-3.7 5.6-7.4 7.9-11.3.2-.7 0-1.4-.4-1.9 4.8.9 9.6 1.7 14.4 2.3 5.2.7 10.3 1.2 15.6 1.5 4.2.3 8.4.8 12.6 1 13 1 26 1.9 39 2.5 3.9.2 7.4.6 11.2.8 2.7.1 5.5.2 8.2.6 5.6.4 11.2 1.4 16.8 1.9 10 1.1 20.1.9 30.1.8 4.1-.2 8.2-.2 12.1-1.3 3-.8 5.8-2.2 8.6-3.5 2.3-1.1 4.7-2 6.6-3.7 1.8-1.5 3-3.8 5.3-4.8 2.4-.8 4.9.4 7.4.5 4.5.4 8.9.1 13.4.1 3.3.2 6.6.3 9.8.8.4.1.8.4 1 .7.1 0 .2 0 .3-.1 1.1-.4 2.1.3 2.4 1.4.7 2.6.8 5.6.9 8.5M700 384.8c4.5-7.3 3.9-15.5-4.8-18.9-4.3-1.9-9-.3-13.2 1-5.1.8-9.9 2.6-14.3 5.4-5.3 3.7-11.6 14.1-10.5 20.7 1.8 4.5 5.5 10 10.7 10.4 4.4-.1 8.1-2.2 12.1-3.9 3.8-1.5 7.5-3.3 10.6-6.1 3.4-2.7 7.1-5 9.4-8.6m-64.6 14.1c.8-.9 1.7-2 1.5-3.3-.8-3.2-2.2-6.3-3-9.5-.8-4.1-2.7-5.1-6.7-5.3-3.6-.2-7.2-.1-10.8-.3-2-.1-4-.3-6-.3-.3 0-.6.1-.8.2-.6 0-1.1-.1-1.5-.2-3.9-.3-7.7-1-11.5-1.7-5.9-.9-11.9-1.1-17.8-2.2-5.7-1.5-11.6-2.2-17.4-3-23-3.6-46.1-8.2-69.5-8.2-15.2-2.9-10.1-.8-21 7.6-5.2 4.1-8.4 10-13.4 14.2-2.5 3.2-8 6.3-7.2 10.8.6 2.2 1 5.4 3.2 6.5.3.1.6 0 .8-.1 2.9.8 5.9 1.1 9 1.3 1.8.2 3.5.5 5.3.7 2.6.3 5.3.3 7.9.8 6.5 1.2 13.2 1.2 19.8 1.7 4.6.3 9.2.8 13.8 1.4 3.5.4 7.1.6 10.6 1.1q13.65 2.55 27.3 4.8c7.2 1.3 14.4 2.9 21.7 3.7 8.8 1.2 17.8 1.8 26.5 3.5 4.1 1 8.4 1.3 12.5 2.7 2.3.8 3.2-2.2 4.6-3.5 2-2.4 4.4-4.6 6.7-6.6 2.6-2.6 4.8-5.5 7.6-8 1.7-1.7 3.6-3.2 5-5.1.8-1.2 1.8-2.5 2.8-3.7" class="st6"/><path d="M398.2 399c-1-4.3-2.4-8.4-3.5-12.5-.5-3.5 2.8-3.1 4.9-4.5 0-.6.4-1.2.9-1.5.9-.7 1.7-1.4 2.6-2.1 2.2-1.8 4.2-3.8 6.6-5.2.5-.3 1.1-.6 1.6-.8.6-.3 1.3-.8 2-.5 1.3.5 1.5 2.5.4 3.3-5.6 3.2-9.4 8.9-15.5 11.3 1.3 3.7 2.2 7.5 3 11.4.2.9-.1 2-1.1 2.3-.8.4-1.7-.3-1.9-1.2" class="st6"/><path d="M636.9 395.6c.2 1.3-.6 2.4-1.5 3.3-1 1.2-2 2.5-2.9 3.8-1.4 2-3.3 3.5-5 5.1-2.8 2.5-5 5.4-7.6 8-2.4 2.1-4.7 4.2-6.7 6.6-1.3 1.3-2.3 4.3-4.6 3.5-4-1.4-8.3-1.7-12.5-2.7-8.8-1.7-17.7-2.2-26.5-3.5-7.3-.8-14.5-2.4-21.7-3.7-9.1-1.5-18.2-3.2-27.3-4.8-3.5-.6-7.1-.7-10.6-1.1-4.6-.6-9.2-1.1-13.8-1.4-6.6-.6-13.3-.5-19.8-1.7-2.6-.5-5.2-.5-7.9-.8-1.8-.2-3.5-.5-5.3-.7-3-.2-6-.4-9-1.3-.2.1-.5.2-.8.1-2.2-1.1-2.5-4.3-3.2-6.5-.7-4.6 4.7-7.7 7.2-10.8 5-4.3 8.2-10.2 13.4-14.2 10.9-8.4 5.8-10.5 21-7.6 23.4-.1 46.4 4.5 69.5 8.2 5.8.8 11.7 1.5 17.4 3 5.9 1.2 11.9 1.3 17.8 2.2 3.8.7 7.6 1.5 11.5 1.7.4.1.9.2 1.5.2.2-.2.5-.2.8-.2 2 0 4 .2 6 .3 3.6.2 7.2.1 10.8.3 4 .2 5.9 1.2 6.7 5.3.9 3.1 2.3 6.2 3.1 9.4m58.3-29.8c8.6 3.5 9.3 11.7 4.8 18.9-2.3 3.6-6 6-9.3 8.6-3.1 2.7-6.8 4.5-10.6 6.1-4 1.8-7.7 3.8-12.1 3.9-5.3-.4-8.9-5.9-10.7-10.4-1.1-6.7 5.2-17 10.5-20.7 4.4-2.8 9.2-4.6 14.3-5.4 4.1-1.3 8.8-2.9 13.1-1" style="fill:#ebe2be"/><path d="M472.5 335.4c.5.7.5 1.8-.1 2.4-2.1 1.7-4.5 3.2-6.7 5-1.4.9-3.6 2.9-5.2 2.1-.6-.3-.8-1-.7-1.6.1-.5.3-1 .7-1.3.6-.6 1.2-1.6 2.1-.6 3-1.9 5.1-5.1 8.5-6.5.5-.2 1.1 0 1.4.5" class="st6"/><path d="M758.9 165.3c.2 7.8-.1 15.5-1.1 23.2-.1 12.3-1.9 24.5-2.2 36.8.2 9.4-.6 18.9-1.2 28.2-.9 13-1.4 26-2.3 39-.9 3.7-.5 25.3-2.6 32.3.3.6.3 1.3 0 1.9-.5.9-1.3 1.4-2.1 1.9-2.2 1.5-4.2 3.1-6.2 4.8-1.3 1-2.5 2.1-3.7 3.1-2 1.8-3.8 3.9-6.2 5-2.5 1.1-5.3 1.5-8 1.9-4.6.8-9.2 1.3-13.8 1-12.1-.7-24.3-.3-36.4-.8-9.2-.7-18.5-1.1-27.7-1.7-6-.3-12-.5-18-.9-8.6-.5-17.1-1.1-25.7-2.1-7.6-.6-15.3-.9-22.9-2.1-4.8-.6-9.6-1.4-14.4-2.2l.2.2c.4.5.6 1.2.4 1.9-2.3 3.9-5.2 7.6-7.9 11.3-1.3 1.1-3.4 5.8-5.4 8.2.2.2.3.4.4.6 4.6 2.1 9.6 2.2 14.5 3 4.3 1.1 8.7.4 13 .6 5 .1 9.7 1.9 14.6 2.7 4.8.8 9.6.6 14.4 1.1 1.7.2 3.3.4 5 .6 2.9.3 5.6 1.3 8.5 1.4 3 .2 6 .7 9 1.3.6-1.5 1.4-3.1 2-5.1.9-3 1.4-6 2.3-9 .7-2.4 1.5-4.7 2.4-7.1.3-.8.6-1.8 1.1-2.5.5-.8 1.6-.5 2 .3.5-.5 1.2-.9 2-.6.3.1.5.3.7.5 1.4-1.1 3.2-1.8 4.3.2q.6-.3 1.2 0c1.8 1.1.5 4.2.4 5.9-.6 3.9-1.4 7.8-2 11.7 1.5.3 1.3 2.2 1.3 3.4 2.3-1.4 4.8-2.6 7-4 1.3-.9 2.6-1.8 4-2.6 1.8-1 3.9-1.6 5.6-2.7 1-.7 2-1.4 3.1-2-1.2-2.3-2.4-4.7-3.4-7.1-.3-1.2.7-2.9 2-2.4.7.3 1.2.9 1.7 1.5 1.9-.8 2.8 1.8 4 2.8 1.4 1.6 6.3 5.9 2.8 7.6-.1.1-.2.3-.3.4l-.3.3c-.8 1.3-2.7 2.2-3.8 3-2.6 1.7-5.1 3.6-7.9 4.9-1.5.7-3 1.3-4.5 2-1.4.5-2.7 1.5-4.2 1.6-.8-.1-1.2-1-1.2-1.7-1.3.7-2.5 1.4-3.8 2.1-1.3.6-2.5 1.9-4 1.8-.1.3-.3.6-.6.8-.4.4-1 .6-1.5.4-.9.8-1.8 2.1-3.1 2-.9-.1-1.3-1.1-1.2-1.9.1-.6.5-1.2.8-1.7.7-1.2 1.4-2.3 2-3.5.6-3.2 1.1-6.4 1.8-9.6.8-3.3 1.6-6.7 1.5-10.2-2.3 1-2.3 6.2-3.1 8.4-.6 2.1-1.2 4.3-1.6 6.4-.6 3.3-1.1 6.6-1.6 9.9-.2 1.7-1 4.4-3.2 3.8-2.4-.9-3.8-1.7-4.6-2.7-6.6-1.1-13.3-1.4-20-2.2-7.2-1.1-14.4-2.6-21.6-3.3-5-.5-10-.1-15-.8-6-1-11.8-2.6-17.9-3-.2.2-.4.4-.7.5s-.7.1-1 0c-5.2-2.3-14-2-7.9-9.7 2.2-3.4 3.9-7.1 5.8-10.7 1.2-2 2.1-4.6 4.2-5.9.1-.1.2-.3.2-.4.1-.1.2-.3.3-.4-.4-.9.3-1.6 1-2.1.9-1.4 2.8-.7 2.8.8.5-.4 1-1 1.6-1.3.1 0 .1-.1.2-.1-5.6-1-11.3-2.1-16.9-3.4-3.7-.7-7.5-1.4-11.2-2.3-8.2-1.5-16.5-1-24.7-1.6-10-.6-19.9-2.7-29.9-3.7-4.9-.3-9.8-.9-14.7-1.3-4.5-.4-9-1.2-13.5-2-4.3-.4-8.7-.8-12.9-1.8-3.1-.7-6.1-2-9.2-2.6-.4.1-.7.1-1.1 0-1-.3-1.4-1.8-.8-2.7.1-.3.4-.5.7-.6-.5-5.6-.9-11.2-1.3-16.8-.6-5.9-1.2-11.9-1.4-17.8-.6-12.9-1.8-25.9-2.4-38.7-.6-12.6-.5-25.2-.4-37.8-.1-7.7.5-15.4.5-23.1.2-6.3.1-12.7 0-19 .2-5.6.2-11.2.1-16.8 0-3.3 0-6.7.4-10 0-4.1.4-8.2.3-12.3-.2-5.1-.5-10.1-.5-15.2-.2-7.1-.5-14.3.6-21.3.3-1.3 0-2.6.2-3.9.1-1 .3-1.9.7-2.9.3-1 .9-2.2 2.1-2.1 2-2.4 4.7-4.1 7.3-5.9 3.3-2.2 6.9-3.9 10.6-5.2-.1-.6.1-1.3.6-1.5 3.1-1.1 6.5-.6 9.8-.7 1.6 0 3.2-.1 4.8-.2 2 0 4 .2 5.9.3.2-1.6 2-.9 3.2-.9 5.7.3 11.4.2 17.1 0 8.5-.1 17 .3 25.5.2 5.5-.2 10.9-.5 16.4-.5 11.4.7 22.9.2 34.3.7 6.7.5 13.3.7 20 .6 6.5 0 13 .7 19.4 1.4 8 1 15.9 2.5 23.9 3.2 11.7.6 23.3.9 35 1.8 8.7.3 17.3 1.2 25.9 2.3 9.9 1 19.7 3.2 29.5 5 5.7.9 11.4 1.9 17 3.2 3 .5 5.9 1.5 8.7 2.6 2.5.9 5.1 1.5 7.7 2 1.3.4 2.8.4 4 1.1.7.4 1 1.2.9 2v.1c3.3 5.7 1.6 12.6 1.8 18.8-.1 5.2-.3 10.3-.3 15.5 2.7 14.8 2.1 29.9 2 44.9" class="st9"/><path d="M758.1 338.2c-4.1-.5-7.4-3.6-11.4-4.2-.5-.1-1.1 0-1.6 0-2.1-.9-.7-3.4 1.2-3.4 4.2-.8 7.4 2.8 11.5 3 3.1.1 3.8 4.6.3 4.6m-39 9.4c-4.9-.3-9.8-.3-14.7-.7-3.5-.4-7.1-1-10.6-.6h.1c-1.7.1-3.3.3-5 .6-1.1 1-2.5-.3-2.1-1.6.3-1.3 2-1.5 3.2-1.8 1.6-.3 3.2-.5 4.8-.7 3.1-.4 6.2-.1 9.3.3 3.2.2 6.4.2 9.6.1 3.3 0 6.5.1 9.8-.2 2 0 4-.1 5.9.2 1.7.4 1.9 3.1.2 3.8-1.7.6-3.6.4-5.4.4-1.7.1-3.4.3-5.1.2" class="st6"/><path d="M682.7 347.6c-1.9-.2-10.6.4-7.5-3.3 5-.4 10.2.2 15.3.3.7 0 1.2.7 1.2 1.4s-.5 1.4-1.2 1.4c-2.6.2-5.2.3-7.8.2m40.8-1.4c-.2-1.9 2.1-2.2 3.5-2.4 1.6-.1 3.4-.9 4.9-.2 1 .8.8 2.7-.6 3-1.1.2-2.1.4-3.2.5s-2.3 0-3.4.2c-.6.1-1.2-.5-1.2-1.1" class="st6"/><path d="M643.2 360.2c-.8-.3-1.2-1.1-1.2-1.8.1-2.9.8-5.7 1.5-8.4.7-1.8.7-7.6 3.6-6.6.6-1 2.1-1.1 2.7 0 1.5 0 2.2 2.1 1.3 3.2-.9 2.2-1.5 4.5-2.2 6.8-.7 1.5-1.3 7.8-3.8 5.9-.2.7-1.1 1.2-1.9.9" class="st9"/><path d="M640.3 364.7c-.7-.1-1-.8-.9-1.5.5-5 1-10.1 2-15 .6-3.2 3.7-1.9 2.3.3-1 5-1.3 10.1-2.1 15.1-.1.7-.6 1.3-1.3 1.1" class="st9"/><path d="M724.8 113.3c1.6 50.8 1 101.8-1.9 152.6-.9 18-3.5 36.1-4.6 54.1.3 1.8-1.5 6.5-1.4 9.2v.6l-.1-.1-.1-.1c-.1 0-.1-.1-.2-.1h-.5c-1.6-.1-3.2-.2-4.9-.3-3.6-.1-7.1-.3-10.7-.6-11.4-1.1-22.7-2.8-34.1-3.5-11.7-1.3-23.4-2.3-35.1-4-8.5-1.4-17.1-2.2-25.6-3.5-11.6-1.9-23.2-2.9-34.9-4.2-5.8-.4-11.7-.3-17.5-.5-8.8-.4-17.5-.1-26.3-.8-12.7-1.2-25.1-4.5-37.8-5.4-5.7-.7-11.5-.7-17.3-.9-5.5-.2-10.6-.9-16.2-1.2-5.2-.1-10.4-.7-15.6-.6h-1.3l.2-.2s0-.1.1-.1c0-.1.1-.2.1-.2v-.7c-.4-6.4-.7-12.6-.8-19.3-.1-13.6-.6-27.1-.7-40.6-1.4-50.1-.7-100.1.7-150.1v-.5h.9c.9-.1 1.9-.3 2.8-.4h1.4c.4 0 .7 0 1 .1 19.5 2 39.1 3.4 58.7 3.2 21.2 2.1 42.3.4 63.5 1 29.3 3.9 59 3 88.4 5.3.7 0 1.4.1 2.2.1 1.3.1 2.5.1 3.8.2h.8l4.8.3c.3 0 .5 0 .8.1.3 0 .6 0 .9.1.3 0 .6.1 1 .1 2 .2 4 .3 5.9.5.4 0 .7.1 1.1.1 1.5.1 3 .3 4.4.5.4 0 .7.1 1.1.1 1.9.2 3.8.4 5.7.7.4 0 .7.1 1.1.1.3 0 .6.1.9.1s.5.1.8.1c.2 0 .4.1.6.1.5.1 1 .1 1.5.2 7.3 1 14.6 2.1 21.9 3.2.4.1.7.1 1.1.2s.7.1 1.1.2.7.1 1.1.2.7.1 1.1.2.7.1 1.1.2c1.4.2 2.9.4 4.3.7v.2c0 .3.1.6.1 1 0 .2 0 .3.1.5v1.4c.5-.3.5.1.5.4" class="st2"/><path d="M306.6 135c2.9 1.7 4.3 5.5.4 6.9-4.1 1.1-8.4 1.2-12.6.8-2.3-.3-5-.6-6.7-2.4-1.8-2.1-1-4.5.8-6.3 2.7-2.3 7.4-1.2 10.7-1 2.5.2 5.2.5 7.4 2m-8 1.7c-.3 0-.6-.1-1-.1-1.2-.1-2.5-.2-3.7-.2.5.1.9.1 1.4.2 1.1 0 2.2 0 3.3.1m48.9-40c4.1 1.9 1.7 7.2 1.3 10.5-.5 3-2.4 11.2-6.7 9.9-2.9-1.3-2.1-7.2-2.1-9.8.3-3.7.5-9.3 4.1-11.4 1.1-.4 2.7-.2 3.4.8"/><path d="M380.3 125.1c.1 4.6.6 9.3-.9 13.7-.8 2.2-2.6 3.9-4.4 5.5-1.3 1.2-2.6 2.2-4 3.3.3.5.4 1.1.2 1.8-1.6 5.8-3.8 11.6-7.2 16.6-3.5 5.1-10.4 4.8-15.8 4.6-3.9-.1-7.5-1.2-11.2-2.2-1.8 5.1-3.7 10.2-6.9 14.6-2.1 2.6-4.4 6-8 6.4-3-.1-5.9-1.1-8.8-1.6-4.5-.9-9-1.7-13.3-3.2-2 4.6-4.1 8.8-6.8 12.9-2.6 4.2-6.1 8.2-10.9 9.8-2.9.9-5.9 0-8.7-.5-2-.4-4-.9-6-1.6-3-.9-5.7-2.6-8.7-3.2-6.2 5.8-9.8 15.8-19.4 16.4-5.3 0-10.3-2-15.3-3.6l-5.1-1.5c-.6-.1-1.3-.4-1.8.1-4.1 3.1-6 8.2-9.7 11.6-2.9 2.9-7.1 4.3-11.1 3.4-8.6-1-12.6-3.1-19.1-8.9-.1-.1-.2-.1-.3-.2-3.6.4-7.2.6-10.8.5-4.4.1-8.7-.1-12.9-1.6-1.7-.4-1.6-3.3.2-3.4.9.1 1.9 0 2.8 0 4.3.1 8.6.5 13 .6 5.1.1 10.2-.8 15.3-.9 4.9-.5 9.7-1.4 14.5-2.1 2.3-.3 4.5-.8 6.7-1.4 2.6-.7 5.1-1.1 7.7-1.8 4.2-1.2 8.5-2.5 12.7-3.5 4.4-1.2 8.9-2.3 13.3-3.7 3.2-1 6.1-2.5 9.1-3.9 3.1-1.4 6.5-2.3 9.7-3.5 2.6-.9 5.2-2.1 7.7-3.2 5.6-2.2 11.3-4 16.8-6.4 2.2-.9 4.5-2 6.7-2.9 3.2-1.3 6.5-2.1 9.6-3.4 2.6-1.2 5.1-2.6 7.7-3.7 2.5-1.1 5.1-2 7.6-3.1 6.1-3 12.4-5.5 18.8-7.7 2.1-.7 4.2-1.4 6.2-2.3 3.5-1.6 6.8-3.7 10.2-5.3 5.9-2.9 11.4-6.7 16.7-10.6 2.1-1.4 4.2-2.9 6.1-4.6 4.6-3.7 4.1-7.3 4-12.7-.1-3.8-.2-7.5-.9-11.3-1.1-5.8-3.5-11.3-6.5-16.3-1.2-2.1-2.3-4.3-3.6-6.4-2.2-3.2-4.8-6.2-7.7-8.9-4-3.5-8.7-6.1-12.9-9.4-2.5-2.1-5.2-4-8.3-5.4-5.1-2.2-10.8-3.1-16.3-2.8-2.5.3-4.9.9-7.3 1.4-6.4 1.4-12.9 3.1-19.1 5.2-.2.1-.4.1-.6.2-2.2 11.9-10.7 16.4-20.7 21.3-4.5 2.4-9.1 4.8-13.9 6.3-5.7 1.7-11.6 3-17.6 2.5-1.4-.1-2.9-.4-4.3-.7-.7-.1-1.2-.9-1.2-1.6 0-.8.5-1.6 1.4-1.6 3.2-.2 6.5 0 9.7-.2 3.1-.3 6.7-1 9.6-1.8 5.7-1.5 10.9-4.4 16.1-7.1 6.4-3.2 13.4-6.6 16.5-13.5.9-1.8 1.4-3.6 1.7-5.5-2.6 3-6.4 5.2-9.7 7.1-6.1 3.5-12.3 7-19.2 8.6-8.3 2.5-17 4-25.6 4.4-3.3.3-6.6.7-9.9.4-2.7-.3-12.2-1.2-12-4.9-1.5.1-1.6-1.8-1-2.8 1.8-2.9 4.5-5.2 6.8-7.7 3.7-3.6 6.8-7.8 10.5-11.3 2.5-2.5 5.4-4.7 8.4-6.4s5.8-3.6 8.6-5.6c5.6-3.6 19-8.9 28.8-9.2l-.5-.5c-11.1-10.9-26.3-3.2-37.3 3.7-4.1 2.4-7.2 5.8-10.1 9.5-3.5 3.9-7.7 7.1-11.2 10.9-2.4 2.6-4.7 5.5-6.3 8.7-.3 1.1-1.3 3.1-2.3 1.5-.2-7.9 9.9-15.6 15-21 5.4-6.3 10.8-12.7 18.6-16.2 2.3-1.5 4.8-2.8 7.4-3.9-4.9-1-10.1.5-14.6 2.5-3.6 1.7-6.8 4-10 6.3-3.7 2.6-7.2 5.6-9.9 9.3-1.6 2.1-2.9 4.4-4.2 6.7-1 1.4-3 6.6-5 5.1-1.6-1.3 0-3.3.7-4.6 1.2-2 2.4-4 3.7-6 3.4-5.6 8.2-10.1 13.5-13.7 5.3-3.8 10.9-7.4 17.3-8.7.3-.1.6-.1.9-.2-.5-.8-1-1.7-1.5-2.5-2.2-3.4-5.1-6.4-7.9-9.3-2.9-2.9-5.7-6-9.2-8.3-3.9-2.6-8.4-4-12.8-5.7-7-2.6-13.8-4.1-21.1-4.9-10.6-.5-21.6 1.6-30.9 6.7-5 3.1-7.1 9.3-9 14.6-1.1 3-2.1 6-3 9.1-.2.8-.5 1.6-.7 2.4 3.4-.6 6.9-1 10.5-.9 1.5 0 2.9.1 4.3.3.6.1 1.1.7 1.1 1.3.1.7-.2 1.6-.9 1.7-1 .3-2 .6-3 .6-2.8.2-5.7.1-8.5.4-3.2.3-6.4 1-9.5 1.8-6.5 1.8-13 3.9-19.4 6 3.1 1.4 6.3 2.7 9.2 4.4 3.2 1.7 6.2 3.8 9.2 5.9.9.7 1.9 1.3 2.9 2 3.8-.9 7.7-1.6 11.6-1.2 2.3.3 10.5 2.4 11 5.4 1.2 0 2.5.2 3.7.4 5 .7 10 1.6 14.5 3.8 3.9 1.8 6.7 5.2 8.6 8.9.6 1.5 2.3 3.6 1.9 5.2 5.9 3.9 10.9 10.8 9.8 17.7-.1.1-.1.3-.2.4 1.1 2.5 1.3 7.5 1.3 9.2 0 5.8-3.2 9.1-7.4 12.4-3.9 3.2-7.1 6.5-11.1 9.4-2.8 2.1-5.9 3.6-9.1 4.9-4.6 2.2-9.5 3.8-14.4 5.1-3.2.9-6.4 2.1-9.6 2.8-5.1 1.1-10.3 1.7-15.6 2.1-3.1.2-6.2-.2-9.3-.1-.4 0-.8.1-1.1.2-.6 0-1.1-.5-1.3-1.1-.9-3.7 8.3-2.6 10.5-2.7 3.5 0 7-.6 10.5-1 4-.5 7.9-1.5 11.8-2.8 4.9-1.5 9.8-2.8 14.5-4.8 3.4-1.5 6.7-2.8 9.8-4.8 4-2.6 7.3-5.9 10.8-9 2.4-2.3 5.5-4 7.1-7.1 1.2-2.8.9-6 .4-9-5 7.2-11.8 13.3-19.5 17.3-7.8 4.8-16.6 7.3-25.1 10.4-12.4 5.3-26.2 6.3-39.5 6.5-3.2-.5-19.1-.6-18.5-4.6-7.3-.9 12.8-15 13.9-18 19.1-21 46.8-43.5 77-35.7.1 0 .2.1.3.1-1.4-2.7-3.1-5.4-5.7-7.1-2.3-1.4-4.9-2.4-7.5-3.1-3.6-.9-7.2-1.4-10.9-1.8-2.6-.1-5.2.4-7.8 1.1-5.7 1.5-10.9 4.2-16.1 6.9-7 3.8-13.7 8.2-20.1 12.9-3.7 2.6-6.5 6.2-9.7 9.5-4.1 4.2-8.8 7.9-11.8 13.1-2.3 3.8-4.2 7.7-6.3 11.6-.6 1-1.1 2-1.7 3.1-.3.7-.8 1.5-1.7 1.2-2.1-1 .7-4.6 1.2-6.1 2.2-4.5 4.2-9.2 7-13.5 3.8-5.9 9.5-10 14-15.2 5.4-6.4 12.8-10.7 19.8-15.3 3.2-2.2 6.6-4.1 10.1-5.9 5.6-3 11.4-5.6 17.7-6.8-.2-.1-.5-.3-.8-.4-3-1.3-6.2-2-9.4-1.7-5 .7-10 1.5-14.6 3.4-4 1.9-7.7 4.4-11.5 6.7-3 2-5.7 4.4-8.4 6.8-2.3 2.1-4.6 4.2-6.8 6.3-3.1 2.9-6.4 5.7-8.8 9.2-4.2 6.4-8.4 12.5-11.7 19.4-.6 1.3-1.2 2.7-1.7 4.1-.1.9-1 1.9-1.8 1.1-1.6-1.6 2.4-8.7 3.2-10.7 1.5-3 3.3-5.9 5.1-8.7 1.9-3 3.6-6 5.7-8.9 2.1-2.8 4.7-5.1 7.3-7.5 6.3-5.8 12.5-12 20.1-16.3 4-2.4 7.9-5.1 12.4-6.4-2.9-1.8-5.6-3.8-8.6-5.3-3.6-1.9-7.3-3.4-11-5.1-.8-.4-1.7-.8-2.5-1.3-.5 0-.9-.1-1.2-.6-2.5-1.2-5.1-2.3-7.9-3-6.7-1.8-13.7-2.7-20.5-4-5.6-1.1-11.2-1.6-16.8-1.4-6.2 0-12.1 2.1-17.8 4.5-3.9 1.6-8 2.8-11.6 4.9-2 1.3-3.7 2.9-5.5 4.4-3.3 2.8-6.8 5.4-9.7 8.7-3.4 4-5.6 8.8-8 13.4-2.7 5.4-6.1 10.4-8.2 16.1C4.5 104 3 120.2 4.8 131.4c1.3 5.7 3.2 11.2 5.8 16.4 2.2 4.9 4.3 9.8 6.9 14.6 1.1 2.1 2 4.3 2.8 6.6.5 1.1-.3 2.8-1.6 2.5-1.4-.2-2.9-4.4-3.6-5.6-2.5-4.7-4.8-9.4-6.9-14.3-3.1-6.4-5.8-13-7.1-19.9-1.2-7.2-.7-14.6 0-21.9 1-10.7 4.6-21 10.4-30.1 4.4-7.6 7.6-16.2 14.4-22.1 2.6-2.4 5.4-4.5 8.1-6.8 1.4-1.2 2.8-2.4 4.3-3.4 3-1.9 6.5-3 9.8-4.3 9.2-3.9 15.6-6.4 25.9-5.8 5.4 0 10.6 1 15.9 2 6.9 1.2 13.9 2.3 20.6 4.4 2.2.7 4.3 1.7 6.3 2.8.8-.3 1.5-.5 2.1-.8 3.2-1.2 6.4-2.3 9.6-3.4 4.9-1.6 9.9-3.3 15-4.5 0-.7.2-1.4.3-2 .5-2.4 1.1-4.8 1.9-7.1 2.3-6.3 4.1-13.1 8.6-18.2 2.5-2.6 5.7-4.2 9-5.4 3.1-1.2 6.2-2.3 9.4-2.9 5-1 10.1-1.6 15.2-1.6 8.2.3 16.4 2.2 24.1 5 4.6 1.8 9.5 3.3 13.6 6.2 4.1 2.8 7.5 6.5 10.9 10.1 1.7 1.8 3.3 3.5 4.9 5.4 1.6 2 3.2 4.1 3.9 6.6q.15.45 0 .9c3.4-.2 6.8.3 9.7 2.2 8.6-2.3 17.5-1.1 24.6 6.2.9.5 1.5 1.8 1.6 3 1.8.3 3.4.9 4.7 1.8 5.2 3.7 7.2 10.3 8.1 16.3.1.8.2 1.5.1 2.2.1.4.1.8.1 1.1.1 1.3.1 2.6 0 3.8 6-2.9 19.7-5.8 22.5-6.5 4.5-1.2 9.3-.9 13.8-.1 2.2.4 4.4.9 6.6 1.8 4.3 1.6 8 4.4 11.6 7.3 3.7 2.7 7.8 5 11.3 8 3.5 3.1 6.6 6.7 9.2 10.6 1.3 2.1 2.4 4.3 3.6 6.5 1.1 2 2.3 3.9 3.2 5.9 2.7 5.9 4.2 13 4.3 20.2m-13.7 26.7c.2-.5.3-.9.4-1.4-3.7 2.6-7.4 5.1-11.3 7.4-3.2 1.8-6.6 3.2-9.9 5l-4.5 2.4h.1c5.6 1.2 11.7 1.8 17.3-.1 1.4-.6 2.5-1.8 3.3-3.1 2-3.2 3.5-6.6 4.6-10.2m-37.7 26.3c2-3.1 3.2-6.5 4.4-9.9-6.4 2.4-12.7 4.9-18.8 7.8-2.3 1-4.7 1.8-7 2.8-1.4.6-2.8 1.3-4.2 2 .3.1.5.2.8.2 4.4 1.1 8.8 1.8 13.2 2.9 1.8.3 3.7 1.2 5.5.6 2.7-1.4 4.4-4 6.1-6.4m-44.6 23.3c5.1-3.5 9.7-12 12.2-17.8-6.9 2.2-13.2 5.5-19.9 7.9-4.9 1.8-9.8 3.6-14.6 5.8-.4.2-.9.4-1.4.5 1.8.5 3.5 1.2 5.2 1.9 2.8 1.2 5.8 2 8.8 2.5 3.8.9 6.3 1.5 9.7-.8M272.7 67.9c-.2-.8-.8-1.3-1.3-1.9-.9-.8-2-1.5-3.2-1.6-.7-.1-1.4.2-2-.1-.5 1.4-1 2.9-1.1 4.4.1 1.6 1.5 3.2 3.2 2.9 1.9-.4 4.2-1.6 4.4-3.7m-11.3-14.8.3-.3c-3.4 1.1-6.7 2.4-9.9 4.1-2.9 1.5-5.2 3.4-8 5-2.7 1.7-5.6 3.2-8.2 5.2-2 1.6-3.9 3.4-5.6 5.2-4.3 5-9.1 9.6-13.7 14.3 4.3 2 9 3 13.7 2.8 10.6-.6 21.3-1.8 31.5-4.8-4.2-3.5-7-9.6-7.6-14.7-.7-6.5 3.6-12.1 7.5-16.8m-5.9 146.7c.1-.1.1-.2.2-.2-2 .7-4.1 1.4-6 2.2-4.2 2-8.6 3.9-13.1 5.1-4.1 1.2-8.1 2.2-12.2 3.3 1 .3 2 .6 2.9.9 5.1 1.4 10.7 4 15.9 1.7 2.2-1 4-2.7 5.5-4.5 2.2-2.9 4.5-5.7 6.8-8.5m-44.6 15.1c.3-.4.7-.8 1-1.3-3.1.8-6.2 1.5-9.2 2.2-6.7 1.1-13.5 2.3-20.3 2.8 2.1 1.5 4.2 3 6.7 3.8 3.5 1 7.1 1.7 10.7 1.7 5.3-.4 8.1-5.4 11.1-9.2m-45-105.9c2.6-.6 4.3-4.8 4-7.2-.4-1.1-1.7-1.6-2.8-1.8-.9-.1-1.7.5-2.5.2-.8 1-1.4 2.2-1.8 3.5-.2.8-.5 1.6-.4 2.4.4 1.6 2 2.9 3.5 2.9m-8.7 18.7c1.8-.6 3.6-1.2 5.5-1.8-6.8-3-11.9-10.7-12.7-17.8-.8-6.8 2.8-13.1 6.6-18.5 1-1.2 1.9-2.4 2.9-3.6-24.4 8.4-40.7 30-59.5 46.6 6 1.5 12.2 2.6 18.4 2.4 13.2-.4 26.7-1.9 38.8-7.3"/><path d="M123.5 280.8c-7.3-.1-14.5-.6-21.8-1.2-5.3-.2-10.5-.6-15.7-1.6-7-.9-14-2.3-20.9-4-4.9-1.5-9.8-3.2-14.6-5.1-7-2.7-12.9-7.3-19.1-11.4-4.3-2.8-8.9-5.1-12.8-8.5-4.2-3.6-7-8.4-9-13.4-1.4-3.2-2.6-6.6-3.2-10.1-.6-3.4-.7-6.9-.6-10.3.1-7.1.9-14.2 2.8-21 1.6-6.4 3.7-12.7 6.1-18.9.7-1.9 1.6-3.8 2.4-5.6.3-.5.5-1.2 1.1-1.5.5-.3 1.2-.2 1.7.3 1.1 1.1.3 2.7-.2 3.9-.6 1.4-1.1 2.8-1.7 4.2-2 5.3-3.7 10.7-5.2 16.2-1.4 5.3-2.5 10.6-2.8 16.1-.3 5.3-.6 10.6.3 15.8.8 4.2 2.5 8.1 4.3 11.9 1.5 3.3 3.8 6.3 6.5 8.7 3.8 3.3 8.3 5.5 12.5 8.3 5.3 3.5 10.4 7.5 16.2 10.1 2.6 1.2 5.4 2.1 8.1 3 2.8 1 5.5 2 8.4 2.8 7 1.7 14.1 3 21.3 4 5.9 1.1 12 1.2 18 1.7 3.6.3 7.2.6 10.9.7 9.5.3 19.1.7 28.5-.2 7.1-.7 14.2-1.2 21-3.1 5.4-1.5 10.9-2.1 16.4-2.8 5.3-.7 10.3-2.3 15.5-3.2 5.3-1 10.7-1.4 15.9-2.6 3.5-.8 6.9-1.6 10.4-2.2s6.9-1.1 10.4-1.7c4.9-.9 9.7-2.2 14.6-3 9.5-1.7 18.8-4.1 28.1-6.8 7.3-2 14.7-3.6 21.7-6.5 4.2-1.7 8.4-3.3 12.6-5.1 10-4.6 17.8-12.9 24.5-21.4 2.5-3.2 4.6-6.6 6.4-10.2 2.4-4.6 4.8-9.3 6.4-14.2 1.2-3.8 1.7-7.8 2.3-11.7.4-2.5 1-4.9 1.5-7.3.4-1.3.1-2.9 1-3.9.7-.8 2-.6 2.6.2.4.5.5 1.1.4 1.7-.1 1.3-.4 2.5-.7 3.8-1.5 5.9-1.8 12-3.5 17.9-2.5 7.9-6.4 15.4-10.8 22.5-5.9 8.7-13.2 16.6-21.7 22.8-4.8 3.4-10.4 5.5-15.8 7.7-6.8 2.9-13.8 5.1-20.9 6.9-12.3 3.5-24.6 6.9-37.3 8.9-7.1 1.5-14.2 3-21.3 4-7 1.3-13.9 3.2-21.1 4-5.3.7-10.4 2-15.6 3.2-3.6.8-7.3 1.2-11 1.7-5.4.6-10.6 2.3-15.9 3.3-12.5 1.9-25.1 2.7-37.6 2.2m49 110.7c-13.4-2.3-26.8-11.7-32.2-24.4-.6-2.1-3.1-5.1-.9-6.9.9-.5 1.8.1 2.1.9 3.3 8.7 9 16.1 17.2 20.7 4.9 3 10.7 6 16.6 5.3 8.1-1 16.2-3.1 23.9-5.9 9.6-3.8 18.4-9.6 28.4-12.2 7.5-1.9 15.5 0 23-2.2-2.2-4.6-17.2-9-11.1-14.2 4.5-2.8 14.9-.9 17.4-5.7-4.8-4.5-19.7-.8-18.3-10.1 1.5-5 5.7-8.9 5.8-14.4-6.4 1.9-10.8 7.5-17.1 9.8-10.1 3.8-19.2 9.4-30 11.2-6.7 1.9-13.3 4.6-20.4 4.6-9.2.1-13.4-9.5-18.5-15.7-5.8-8-11.5-16.3-13.8-26.1-1.2-2.9 1.8-5.7 2.6-1.6 1.9 6.8 5.1 13.2 9.3 18.8 12.3 15.6 12.7 25.2 35 17.3 12.2-2.6 23.3-7.5 34.6-12.5 6.2-2.4 10.6-7.8 16.9-9.8 5.2-2.1 5.1 4.6 3.9 7.9-.9 4.2-3.9 7.5-5.2 11.6 5.3 2.2 11.7 1.6 16.6 5.1 7.8 9.3-8.6 11.7-14.9 12.6 6 3.2 18.8 14 5.1 16.1-7 1.3-14.2-.1-21.1 1.7-9 2.4-16.9 7.4-25.4 11-9 3.9-19.3 6.7-29.5 7.1"/><path d="M253.8 304.5c9 0 18.2-.6 26.9-2.8 3.4-.9 6.7-2 10-3 3.9-1.4 7.9-2.8 11.6-4.7 3.3-1.9 6.4-4.3 9-7.1.8-1.1 1.9-2.2 1.9-3.6-1.6-2.4-7.4-1.3-9.8-1.2-7.1.6-14.2 1.6-21.3 2.7-4.5.6-9 .7-13.5 1.5-5.5 1.1-10.9 2.1-16.5 2.6-8 1-16.1 1.2-23.9 3.2-2.9.9-5.9 1.6-8.4 3.4.7.9 1.1 2 2 2.8 2.7 2.1 6.1 2.7 9.3 3.6 3 .7 5.9 1.4 8.9 1.9 4.6.6 9.2.7 13.8.7m-31.1 27.8c-1.6-.4-2.3-3.4-3-4.7-3.3-7.3-4.5-15.2-4.5-23.2 0-2.2.1-4.3.3-6.5 0-3.8 1.4-6.3 5-7.8 10.3-4.7 21.7-4.4 32.7-5.9 4.8-.4 9.5-1.5 14.2-2.3 6.5-1 12.9-1.2 19.4-2.4 3.6-.6 7.2-1 10.9-1.4 3.5-.4 7-.8 10.5-.9 3.9-.3 8.9 1.4 9 6.1-.4 5.6-5.6 9.3-9.7 12.4-4.5 3.3-9.9 5-15.1 7.1-5.2 1.7-10.4 3.4-15.8 4.4-10.7 1.9-21.5 2.1-32.3 1.4-3.5-.2-7-1-10.4-1.8-5-1.4-11.2-2.3-14.9-6.2-.3 6.2 0 12.5 1.6 18.6.8 3.1 2 6 3.2 8.9.3.8.8 1.7.8 2.6-.2.8-.9 1.8-1.9 1.6"/><path d="M253.6 381.9c-3.1-.3-6.2-1.3-9-2.7-1.9-1.1-5.4-2.9-4.1-5.6.4-.8 1.5-1.3 2.3-.8 1.6 1.1 3.2 2.3 5 3.1 7.3 3.3 15.3 1.3 22.7-.5 4.6-1 9.2-2.4 13.5-4.2 2.8-1.4 5.5-3 8.2-4.6 5-3.1 10.9-5.1 14-10.4 3-5.1 5.6-10.6 6.7-16.5.8-4.5 1-9.1 1.3-13.6q.6-8.25.9-16.5c.3-7.3.5-14.8-.6-22-.3-1.6-.7-3.2-1.5-4.6-1.1-.8-1-2.8.4-3.3 6.7-.7 5.6 26.3 5.3 31.1-.2 4.9-.4 9.9-.7 14.7-.4 5.6-.5 11.3-1.6 16.8-.8 3.7-2.2 7.2-3.8 10.6-1.5 3.2-3.1 6.5-5.5 9.1-2.4 2.9-5.7 4.8-9 6.4-3.1 1.6-6 3.5-9.1 5.2-6.3 3.6-13.5 5.3-20.5 6.9-4.9.9-9.9 1.9-14.9 1.4m92-41.1c7.9-.6 11.1-19.2 11.5-25.7.7-6.8-2.4-12.2-5.9-17.6-1.4-2.1-2.8-4.2-4.8-5.7-.7-.5-1.6-.6-2.5-.8-5.3 1.4-13.4 7.5-16.6 12 1.7 1.1 3.9 1.2 5.9 1.5 2.8.2 5.5.2 8.3.3 1.8.1 2.4 2.5 1.3 3.8-.4.6-1.1.8-1.7 1.1-1.2.5-2.5 1-3.7 1.5-3.7 1.8-7.5 3.8-10.5 6.8 2 1.8 4.7 2.5 7.1 3.5 1.3.5 2.7.9 4.1 1.3.8.3 1.7.4 2.4.9 1.5 1.1 1.1 4-.9 4.3-1.5.2-3-.1-4.5 0-2.3.2-4.7.8-6.7 2.1-.5.5-1.6.8-1.3 1.7.9 2.2 3.1 3.4 4.9 4.8 4.1 2.4 8.7 4.7 13.6 4.2m-3.8 4.4c-9.8-1.4-28.9-14.4-11.3-20.7-3.2-1.3-8.4-3.4-7.2-7.8 1.4-3.4 7-6.2 10-8.1-4-.3-11.2-1.5-9.3-7.2 1.5-3 4.3-5.1 6.9-7.2 3.4-2.4 7.7-6.2 12-6.3 1.2-2.6 5.2-.2 6.6 1.2 2.4 2.3 4.1 5.3 5.9 8.1 1.8 3 3.6 6.1 4.5 9.5 1.8 7.3.3 15-1.5 22.1-2.3 8.4-6.2 18.3-16.6 16.4"/><path d="M333 295.7c-1.3-2.1-2.2-4.5-4.3-5.8-1.7-1.1-3.8-1.4-5.9-1.6-2-.1-3.9-.2-5.9 0-1 .8-2.5-.1-2.4-1.4.1-3.1 5.9-2.4 8.1-2.5 3.4.1 6.9.8 9.3 3.3 1.8 1.8 3.4 4 3.9 6.5.3 1.6-1.6 3-2.8 1.5m-18.2 54.1c-1.1-.2-1.8-1.5-1.2-2.4.6-1.1 2.1-.7 3.2-1 5.9-1 11.6-3.3 15-8.3 4.7-1.1 1.1 5.3-.8 6.5-4.4 3.5-10.5 5.4-16.2 5.2m1.4-10.6c-.5-.1-.8-.6-.9-1-.1-.6.2-1.1.7-1.3h-.1s-.1 0-.1.1c3.5-2.2 6.6-5 10.1-7.1 7.2.8-7.4 10.4-9.7 9.3m11.1-36.6c-1.8-.8-3.2-2.4-5.1-3.2-1.5-.7-3.1-1.2-4.6-1.7-1.9-1.2-.6-4 1.6-3.4 3.3.8 8.2 2.6 9.9 5.8.4 1.3-.5 3-1.8 2.5m1.7 10.5c-.9-1.1-.4-2.7-.4-4 .1-1.1.1-2.6 1.3-3 .7-.3 1.4.3 1.6 1 .2 1.6.1 3.3 0 5-.2 1.2-1.7 2-2.5 1m-75.8-25.8c-.5-.2-.8-.6-1.1-1.1-.9-1.9-1.7-3.9-2.7-5.8-2-3.6-4.4-6.9-7.4-9.7-1.6-1.4-3.4-2.7-5-4.1-.6-.6-1.3-1.1-1.5-1.9-.3-.9.3-2 1.3-2 .4 0 .8.2 1.1.4 1 .6 2 1.4 3 2.1 2.6 1.9 5.1 4 7 6.5 3.1 3.9 5.5 8.2 7.3 12.9.6 1.2-.4 3.2-2 2.7"/><path d="M270 284.3c-2.8-3.5-37.4-18.4-32.5-21.5 2.8-1.3 14.2 7.4 18.1 8.9 5.4 3.7 13.3 5.2 16.9 10.7.3 1.4-1.2 2.9-2.5 1.9m47.7 30.5c-1.5 0-2.2-2-1.2-3 .7-.7 1.7-.7 2.6-.8 2.9-.5 5.8-.9 8.6-1.9 1.7-.2 2.4 2.2 1.3 3.2-.7.8-1.9 1-2.8 1.2-2.8.6-5.6 1.2-8.5 1.3m1.6 148.3c-1.9-2.1.8-4 1.8-5.8.9-1.4 1.7-2.8 2.5-4.3 3.7-6.5 8-12.8 10.4-19.9 1.8-6.3 2.7-12.7 3.3-19.2.2-5.1.1-10.2-.2-15.3-.5-8.6-1.4-17.2-4.2-25.4-1.9-6-4.4-11.7-7.1-17.4-.7-1.5-1.5-3-2.3-4.4-.7-1.4-1.8-3.4-.5-4.8 1.3-1.2 2.3.2 2.8 1.4 1.4 2.5 2.8 5 3.9 7.5 3.1 6.5 5.9 13.3 7.8 20.2 2 7 2.6 14.2 3.1 21.4.3 5.4.6 10.9.3 16.4-.6 7-1.5 14-3.5 20.7-1.7 5.2-4.3 10-7.1 14.7-2 3.4-4 6.8-6 10.3-1 1.7-2.8 5.9-5 3.9M91 414.3c-6.3-22.2-3.7-45.5-1.1-68.1 3.1-22.1 4.3-44.3 6-66.5.4-3.7 5.1-3.3 2.8.6-1 15.8-.8 31.8-3.2 47.5-1.3 17.3-4.6 34.4-4.6 51.7.1 6.9-.5 13.8.7 20.6.1 3.5 4.5 13.4 1.3 15.2-.7.4-1.6-.2-1.9-1"/><path d="M262.7 526.8c-5.5-.2-11-1.2-16.5-1.8-4.9-.5-9.6-2.2-14.4-3.1-1.3-.2-2.6-.5-3.8-.9-2-.7-1.5-4.4.8-4.1 7.1 1.1 13.9 3.5 21.1 4 4.3.4 8.5 1.2 12.8 1.3 2.7 0 5.3-.4 7.9-.8 3.6-.6 7.1-1.7 10.7-2.3 4.2-.7 8.3-1.7 12.2-3.3 10.4-5.1 12.4-10.8 16.5-20.8 4.6-10.5 6.7-21.8 7.4-33.2.3-7 .1-14.1.2-21.2 0-7.2.2-14.4.5-21.5.2-7.4.6-14.8 1.5-22.1.6-5.6 1.3-11.4.1-17-7.2 7.4-9.8 17.7-12.1 27.4-1.9 7-3.2 14.2-4.5 21.3-.2 1.4-1.5 3.1-3 2.1-1-.7-1-2.1-1.2-3.2-1.4-14.4-1.2-29-5-43-2 3.2-3.2 6.9-4.7 10.5-1 2.6-2.1 5.1-3 7.8-1.4 4.7-1.8 9.6-2.2 14.5-.3 3.6-.5 7.3-.8 10.9-.2 1.8-.1 5.1-2.7 4.9-2.1-.3-2.6-5.8-3.2-7.6-1-5.5-2.2-11-3.8-16.4-1.6-6.6-3.8-13.8-9.6-17.9-2 6.8-3.9 13.7-4.7 20.8-1.1 10-1.3 20.1-1.8 30.2-.5 13 .5 25.9.7 38.8 0 1 0 2.1-.7 2.8-.9.9-2.2.5-2.7-.7-.9-3.5-1.3-7.1-2.3-10.5q-1.5-5.7-3.6-11.1c-1.4-3.4-3.1-6.6-4.3-10.1-1-2.9-1.9-5.7-3.1-8.5-1.5-3.5-3.3-6.9-4.9-10.3-1.1-2.4-2.3-4.7-4-6.7-2.1-2.4-4.8-4.2-7.3-6.3-1.9-1.5-3.9-2.9-5.9-4.3-3.9-2.3-7.6-5.3-11.9-6.9-4.6-1.6-9.5-1.8-14.3-2.4-7.5-1.3-15.2-.2-22.5 1.6-4.1 1-7.7 3.3-11.6 4.8-1.7.6-3-1.7-1.6-2.9 3.6-1.8 7-4 10.8-5.2 5.3-1.7 10.8-2.6 16.4-3 3.7-.2 7.4.4 11.1.8 8.6.8 13.8 1.7 21 6.8 4.8 2.9 9.3 6.1 13.7 9.6 1.9 1.5 3.8 3 5.3 4.9 2.2 2.8 3.6 6.2 5.2 9.5s3.3 6.5 4.6 10 2.4 7.1 3.9 10.6c1.9 4.1 3.8 8.2 5.1 12.6-.2-7.9-.5-15.9-.3-23.8.2-4.5.4-9 .5-13.5.7-10.2.9-20.1 3.6-30 .7-2.5 1.3-5 1.9-7.5.7-3.7 2.6-6.3 6.3-3.6 5.5 4.3 8.4 11 9.9 17.6 1.4 5.4 3 10.7 3.9 16.2.6-6.4.8-12.9 2.5-19.1 1.7-5.4 4-10.6 6.1-15.8.7-1.6 1.5-3.2 2.4-4.7.7-1.4 2.1-3.1 3.9-2.4 3 1.4 3.4 7.7 4 10.7 1.6 8.9 2.3 17.8 2.7 26.8 2.2-9.5 4.3-19.2 8-28.3 2-4.6 4.6-9.1 8.3-12.5 2.8-2.6 5 .5 5.3 3.4 1.2 6.2.4 12.6-.2 18.8-.8 7.3-1.2 13.9-1.3 21.1-.6 14.3 0 28.6-.4 42.8-.3 5.6-1 11.1-2.2 16.6-.9 5.4-2.5 10.6-4.5 15.7-2.2 5.1-4 10.5-7 15.2-2 3.1-4.7 5.7-7.8 7.7-3.1 2.2-6.5 3.7-10.2 4.6-3.5 1.1-7.2 1.6-10.8 2.4-5.6.9-10.9 2.2-16.4 2.2m138.8-69.2c-.1 5.1-.1 10.1-.2 15.2-.2.4-.4.7-.6 1.1-2.1 3.4-6.4 4.7-10.2 4.5-8-.3-14.7-5.3-21-9.7-4.2-2.5-8.3-5.3-13.1-6.7-3.4-.9-6.9-1.6-10.4-2.3-5-1-9.8-2.8-14.8-3.8-1.9-.4-5.1 0-4.8-2.9.4-2.7 3.5-1.5 5.3-1.3 4 .8 7.6 2 11.5 3 5.2 1.3 10.5 2 15.6 3.5 5 1.9 9.7 4.7 14.1 7.6 2.4 1.6 4.7 3.3 7.2 4.7 4.8 2.5 10.7 4.8 15.8 2.1 1.9-1.3 2.7-3.6 3.5-5.7.9-3 1.5-6.2 2.1-9.3m9.6-86.9v2.8c-1.2.8-2.4 1.6-3.5 2.5 0-3.3.1-6.7-.1-10-.4-5.4-1.1-10.8-2-16.2-.9-5.8-1.8-11.6-3.7-17.1-2.3 4.4-2.9 9.3-4.1 14.1-1.1 4.7-2.1 9.8-3 14.4-.8 4-1.6 8.1-2.6 12.1-.5 1.6-.6 3.5-1.9 4.7-.5.4-1.1.4-1.6.1-1.1-.5-1.2-2.1-1.3-3.2-.7-6.3-.5-12.7-.7-19-.2-6.9-.9-13.9-2.7-20.5-2.8 8.7-6.2 17.3-7.1 26.4-.9 7.2-.5 14.6-1.9 21.7-.4 1.3-2 1.9-2.9.7-.5-.6-.6-1.4-.7-2.1-.2-1.4-.5-2.8-.7-4.1-1.3-7.4-1.4-15-2.7-22.4-.9-4.2-2.1-8.3-3.9-12.2-1.4 4-1.8 8.2-2.7 12.3-.8 4.5-1.6 9-2.2 13.6-.8 6.1-.3 12-.9 18.1-.2 3.3-3 4.7-4.5 1.2-2.8-6.1-6.8-9.5-12.3-13-2.5-1.6-5-3.1-7.7-4.1-1.3-.4-1.4-2.4-.2-3.1 2.1-1.1 8.8 3.4 10.7 4.5 4.4 2.8 8.5 6.3 10.9 11 .2-5.1.1-10.2.7-15.3.5-3.9 1.2-7.8 1.9-11.7.8-3.9 1.5-7.9 2.3-11.8.6-2 1.3-7 4.1-6.7 2.8.5 4.7 8 5.6 10.5 2.2 6.8 2.4 14 3.1 21.1.2-6.5 1-12.9 2.6-19.2 1.2-5 3-9.9 4.6-14.8.5-1.7 1-3.1 1.5-4.7.3-1.1 1-2.4 2.4-2.2 3.6.3 5.2 16.1 5.6 19.4.6 6.4.4 12.8.6 19.2 2-9.8 3.8-19.3 6-29 .5-2.5 1.5-5 2.5-7.3.5-1.2.9-2.5 1.8-3.4 2.1-1.8 3.9 1 4.3 2.9.8 2.2 1.4 4.5 1.9 6.8 2.1 10.8 4.3 21.8 4.5 33m.1 12.5c.1 1.2.1 2.4.2 3.6l-3.6-.6c0-1.2-.1-2.4-.1-3.6 1.1.2 2.3.4 3.5.6m.2 20.1c0 1.3-.1 2.5-.1 3.8-1.2-.2-2.4-.4-3.6-.5 0-.3 0-.6.1-.9.1-1 .1-1.9.2-2.9 1 .1 2.2.3 3.4.5"/><path d="M185.8 457.4c5.5.2 11.1.3 16.6.2 4.3-.1 8.6-.1 12.8-1.1 4.9-1.1 8.3-5.4 11.1-9.3 2.1-3.4 3.8-8 2-11.9-1.5-2.9-4.7-4.3-7.5-5.7-9.5-4.1-19.2-5.6-29.1-7.6-5.8-1.4-11.4-3.6-17.2-5.1-7-1.9-14.2-3.3-21.3-5-7.6-2.2-15.2-4.1-23.1-4.8-2.7-.2-5.4-.1-8.2 0-4.7.3-9.5.2-14 1.6-4.2 1.4-7.5 4.4-11.1 6.8-7.5 4.8-13.1 11.8-19.5 18 1.9-.5 2.2 1.5 2.8 2.7 1.7 2.3 4.4 3.5 6.8 4.7 4.9 2.1 10.2 3.2 15.2 5 5.8 2.1 11.6 4 17.7 4.8 6.2 1.1 12.5 1.1 18.7 2 10.9 1.4 21.8 2.7 32.7 3.8 4.9.2 9.8.9 14.6.9m1.5 4.7c-7.4 0-14.7-1.2-22-1.8-10.6-1.1-21.1-2.6-31.7-3.7-3.6-.3-7.2-.5-10.8-1-7.2-.8-14.2-2.6-21-5.2-7.9-2.9-16.9-4.1-23.2-10.1-1.5-1.5-3.5-4.5-1.9-6.5-1.4.7-2.5-1.2-1.8-2.4 2.3-3 4.9-5.8 7.5-8.6 2.5-2.7 5.1-5.4 8-7.8 2.9-2.3 6-4.4 9-6.5 3.8-2.9 8.2-4.9 13-5.3 6.5-.6 13.1-1.3 19.6-.5 7.5.8 14.8 2.6 22 4.7 3.6.9 7.2 1.5 10.7 2.4 4.9 1.3 9.9 2.3 14.8 3.8 3.9 1.2 7.7 2.6 11.7 3.7 7.1 1.6 14.3 2.5 21.3 4.7 5.2 1.5 10.3 3.2 14.8 6.2 6.6 4.3 6.6 12.5 3.5 19-1.5 3.3-3.9 6.1-6.3 8.7-2.6 3-6.1 4.9-9.9 5.5-5.4 1-10.9.8-16.3.9-3.6-.1-7.3-.1-11-.2"/><path d="M198.2 544c-6.4-.7-12.8-1.7-18.7-4.2-4.3-1.5-8.9-1.9-13.3-3.1-7.2-1.6-14.4-2.7-21.7-4-5.5-.9-11.1-1.3-16.6-2.6-5.4-1.5-10.8-2.8-16.2-4-5.5-1.1-10.9-2.6-16.2-4.7-4.3-1.6-8.8-2.9-12.7-5.3-3.3-2.1-6.3-4.9-8-8.5-3.8-7.6-2.7-16.4-2.5-24.6.1-3.8.3-7.6.6-11.5.7-7.3 2.1-14.6 2.8-21.9.4-3.4.7-6.7 1.2-10.1.2-1.2.3-2.5 1-3.6.9-1.1 2.4-.5 2.6.9-.6 7.4-1.4 14.9-2.3 22.3-.6 4.4-1.4 9.4-1.7 13.7-.2 3.7-.4 7.5-.5 11.2-.4 12.1-1.8 23.3 11.1 29.3 3 1.3 6.1 2.4 9.2 3.5s6.1 2.3 9.3 3.2c7.5 1.9 15.1 3.4 22.5 5.6 3.4.9 7 1.3 10.5 1.8 5.5.7 11 1.7 16.4 2.8 5.6.8 11 2.1 16.5 3.3 2.5.5 5.1.9 7.5 1.7s4.7 1.8 7.1 2.4c4.1.9 8.6 1.7 12.7 2 5.6.4 11.4.7 16.7-1.2 3.8-1.6 5.7-5.5 6.8-9.2.8-2.5 1.4-5.1 1.9-7.7.9-5.3 2-10.7 2.5-16.1 1-9.5 1.1-19.1 1.7-28.6.2-6.6.4-13.2.2-19.8-.1-1.7-.4-3.3-.6-5-.1-1.4-.4-3.5 1.3-3.9.9-.2 1.6.5 1.8 1.3 1.3 5.2 1 10.6 1 15.9 0 5.5-.1 10.9-.3 16.4-.7 11.6-.7 23.3-3.1 34.7-3.6 22.6-5.9 29.7-30.5 27.6"/><path d="M201.1 526.2c-3.5-.5-6.8-1.3-10.3-2-3.5-.6-7-1.3-10.5-2.3-7.4-2.3-15.4-4-22.9-5.9-3.2-.8-6.3-1.8-9.6-2.1q-7.95-.9-15.9-2.7c-3.5-.8-7-1.4-10.5-2-3.6-.6-7.1-1.5-10.6-2.4-3.2-.8-6.5-1.5-9.6-2.6-3.8-1.5-7.5-3.1-11-5.3-1.2-.8-2.3-1.7-3.2-2.8-2.7-3.5-2-8.5-2.1-12.6.1-7 1.1-14 1.8-21 .7-5.4.6-10.9 2.2-16.1.3-.9 1.3-2.7 2.4-2 .9.8.1 2 0 3-.3 1.6-.4 3.2-.5 4.8-.5 8.9-1.3 17.5-2.1 26.3-.2 4.3-.4 8.7.2 13 .8 3.7 7 5.9 10.1 7.5 4 1.9 8.4 2.8 12.7 3.9 5.2 1.4 10.5 2.4 15.8 3.2 3.5.7 7 1.6 10.5 2.3 5.1 1.1 10.3 1.3 15.3 2.5 8.4 2.3 16.9 4.1 25.3 6.4 4.5 1.5 9.2 2.4 13.8 3.2 1.6.3 3.2.7 4.8 1 1.4.3 2.9.6 4.4.8 1.1.1 2.3 0 2.9-1.2 1.2-2 1.8-4.3 2.2-6.5 1.5-7.8 1.7-15.7 2.3-23.6.3-6.5.9-13 1.1-19.4.1-1.3.1-2.6.2-4 .3-1.8-.5-5.8 2-6 1.1 0 1.7 1 1.7 2-.7 11-1.3 22.2-2 33.2-.4 5.3-.6 10.5-1.5 15.7-.5 5.3-1.7 15.2-9.4 13.7"/><path d="M209.1 514.6c-3.3-.3-6.5-1.2-9.8-2-3.4-.9-6.9-1.5-10.4-2-5.1-.8-10.2-2-15.2-3.2-5.3-1-10.6-2.4-15.5-4.6-4-1.8-7.1-5.1-10.9-7.2-4-2.2-8.1-4-11.9-6.4-2.4-1.4-4.8-2.8-6.9-4.5s-4.1-3.6-6.2-5.5c-4.7-4.4-9.3-9.2-13-14.5-1.7-2.5-8.6-14.1-4.9-15.9.6-.2 1.2 0 1.6.6.3.7.1 1.5.5 2.2 1.1 3.3 2.8 6.3 4.7 9.2 4.8 7.1 11.3 12.9 17.6 18.6 1.3 1.1 2.6 2.2 4 3.1 3 1.9 6.1 3.8 9.3 5.5s6.5 3.1 9.5 5.2c2.8 1.9 5.4 4.2 8.6 5.6 4.2 1.8 8.6 3 13.1 3.9 5.1 1.2 10.1 2.5 15.3 3.3 6.8.9 13.3 3 20.1 4.2 1.2.1 2.4.8 2.4 2.2-.3 1.1-.9 2.2-2 2.2M72.9 503.2c-3.4-2.6-6.8-5.2-10-8-4.5-4-8.3-8.7-11.8-13.5-3.4-5.1-5.7-10.9-8.3-16.4-3.6-9-7.5-17.9-10.8-27-2.3-7.2-4.3-14.4-6-21.8-1.1-5-1.8-10.1-2.6-15.1-1.5-9.9-2.5-19.9-2.7-30-.3-6.3.2-12.6 1.5-18.7 1.2-5.8 2.6-11.6 5.8-16.6 2.2-3.5 5.6-6.1 9-8.4 2.6-1.8 5.5-3.2 7.9-5.2 2.2-1.7 2.9-3.7 2.6-6.4-.3-5-1.4-9.9-2.5-14.8-1.6-6-3.2-12-3.2-18.2-.1-4.5.8-9.1 3.1-13 1-1.6 1.9-3.4 3.6-4.2 2.7-1 2.9 3.9.9 3.5-8.2 10.6-2.1 24.1.2 35.6.9 4.8 2.6 11.6 1 16.3-1.3 3.5-4.6 5.7-7.6 7.5-12.5 7.2-14.6 12.1-17.3 25.9-1.6 8-1.4 16.1-.8 24.2.6 9.9 2 19.8 3.5 29.6.8 5.4 2.1 10.8 3.6 16.1 1 3.7 1.9 7.3 3.1 11 2.3 6.9 5.4 13.6 8.1 20.4 1.3 3.2 2.7 6.7 4.1 9.8 2 4.2 3.9 8.5 6.3 12.5 3.4 4.9 7.3 9.5 11.7 13.5 3.2 2.8 6.7 5.1 9.8 8 .7.7.8 1.9.3 2.8-.5.8-1.6 1.2-2.5.6"/><path d="M75.6 471.2c-1.1-.2-1.2-1.4-1.4-2.3-.4-1.6-.8-3.1-1.3-4.6-1.7-6-3.9-11.8-6-17.7-1.4-3.9-2.7-7.8-4.3-11.6-2.5-5.8-5.4-11.5-7.3-17.5s-3.6-12-4.9-18.2c-1.3-6.1-1.8-12.4-2.9-18.6-1-6.2-1.7-12.4-2-18.6-.1-2-.2-4.1.2-6.1.7-4.4 3.9-7.8 7.3-10.4 3.1-2.7 7.2-4.4 9.4-8 4-6.3 1.9-15.7.8-22.8-.6-3.9-2-7.6-3.4-11.2-2-5.6-3.4-11.5-4.2-17.5-.8-5.9.1-9.9 5.9-12.7 1.2-.7 2.3-1.4 3.5-2 1.1-.6 2.2-.6 2.7.7.7 1.7-.8 2.8-2.2 3.4-1.6.8-3.1 1.6-4.6 2.6-.7.4-1.3 1-1.6 1.7-2 4.8 2.8 20.4 5 25.5 2.2 5.9 3.1 12.1 3.8 18.3.7 6.5.4 13.8-4.3 18.9-4 4.2-9.9 6.3-13.2 11.2-2.2 3.5-1.4 7.9-1.3 11.8.4 6.2 1.5 12.2 2.5 18.3 1.3 10.7 3.4 21.3 6.7 31.5 2.5 8 6.6 15.2 9.4 23.1 2.7 8.1 5.9 16 8 24.3.5 1.8 1 3.7 1.3 5.5.2 1.2 0 3.2-1.6 3m13.6 22.4c-1.3-.2-1.6-2.1-.6-2.8 1-.6 2.2-.7 3.3-1.3 5.7-2.9 11.2-6.2 16.8-9.5 2.9-1.5 4.9-4 7.5-5.8.6-.4 1.3-.1 1.7.4 1.1 1.6-.7 3.1-1.8 4.1-6.3 5.3-18.9 13.5-26.9 14.9m131.9 44.6c-.9-1.2.3-3.6 1.8-2.4 1.3.2 2.6-.1 3.9-.4 3.8-1.1 7.2-3 10.9-4.5 4.3-1.7 8.4-3.7 12.5-5.8.8-.3 1.7.3 1.9 1 .8 2.1-1.3 2.9-2.7 3.7-2.1 1.1-4.3 2.2-6.5 3.1-4.1 1.3-18.8 9.8-21.8 5.3"/><path d="M250.2 526.6c-.6-.8-.4-2.1.6-2.5 1.3 0 2.3-.7 3.4-1.1 1.8-.5 2.7 2.3 1.3 3.2-1.5 1-3.9 1.9-5.3.4m66.7-47.3c-1-.2-1.4-1.6-.9-2.4s1.4-1.3 2.1-2c2.3-1.9 4.7-3.6 6.9-5.5 4-3.5 7.4-7.8 10.4-12.2.6-1.1 1.5-2.4 2.9-1.5 1.8 1.5 0 3.6-.9 5q-1.95 3-4.2 5.7c-3.2 4.1-7.2 7.3-11.5 10.2-1.1.8-2.1 1.6-3.3 2.2-.4.4-1 .6-1.5.5"/><path d="M225.1 558.1c-11.6.1-22.9-2.8-34.3-4.4-18.5-1-36.8-4.8-54.7-9.7-15.6-6.1-39.1-6.2-44.5-25.4-.7-1.5.7-3.7 2.2-2.1 1.8 3.3 2.9 7.1 6 9.6 9.7 7.5 22.3 8.9 33.6 12.7 19 5.8 38.6 9.7 58.4 11 37 7.5 37.6 4.2 72-9.1 8.1-4.6 16.9-8.2 24.2-14 8.7-8.1 18.8-14.7 26.8-23.6 10.9-10.8 29-23.3 30.8-39.5-.2-1.9.8-6.3 3.3-3.9 1.2 4.9-.9 10.6-2.8 15.1-6 10.6-15.2 19.2-24.3 27.2-5.9 4.9-10.7 11-16.8 15.6-8 5.5-14.3 13.3-22.9 17.8-9.2 4.9-18.1 10.2-28.1 13.3-9.3 3.8-18.9 7.8-28.9 9.4"/><path d="M222.1 580.8c-9.3-.6-23.4 1.1-27.8-9.3-1.5-6-1.2-12.5-.3-18.5 2.8-3.7 2.7 4.2 2.7 5.8.4 4.4-.8 9.9 2.5 13.4 8.2 5.7 19.3 3.9 28.8 4.4 20.2.7 32-6.4 28.1-28.3 0-.8.4-1.6 1.2-1.9 4.6-.4 2.9 14.9 2 17.9-4.2 17-22.9 16.7-37.2 16.5"/><path d="M222.3 586c-4.2-.4-8.9-.5-12.4-3.2-1.2-1-2.4-2.2-2.6-3.8-.1-1.1 1.2-2.1 2.2-1.4.8.7 1.3 1.6 2.2 2.2 2.6 1.6 5.7 1.9 8.7 2.3 4.7.5 9.3-.1 13.9-1.3 1.9-.4 3.7-1.3 4.8-2.9.6-.7 1.6-.6 2.3 0 .7.7.8 1.8.3 2.7-1.9 3.2-5.9 3.9-9.2 4.6-3.4.7-6.8 1.1-10.2.8"/><path d="M155.1 618.4c-5.6-.2-11-3.1-12.2-8.9-.9-3.5-.1-7.6 2.6-10.1 1.5-1.4 3.4-2.2 5.2-3.1 6.6-2.9 13.2-5.9 19.5-9.5 4.8-2.3 9.8-4 14.7-6.1 4.8-2.3 10-3.5 15.3-4.6 1.4-.2 4.5-1.4 5.6-.3.5.6.5 1.6-.1 2.1-6.2 2.2-12.8 3-18.8 5.9-4.6 2.1-9.3 3.7-13.9 5.7-3.1 1.4-5.9 3.4-9.1 4.8-3.3 1.6-6.6 3.1-9.9 4.6-2.5 1.3-5.4 2.2-7.1 4.5-2.1 3.4-.2 8.3 3.4 9.7 3.6 1.5 7.6 1.3 11.3.7 4.2-.8 8-2.6 12-3.9 3.4-1.1 6.7-2.2 9.9-3.7 6.4-2.9 13-5.1 19.6-7.2 6.5-2.4 13-5.1 19.9-6.1 2.1-.4 4.2 0 6.3.3 5.9 1 11.5 3.1 16.8 5.6 6.4 2.7 13 4.8 19.6 7 5.9 2.5 12.8 7.8 19.1 3.4 2.3-1.5 4.4-3.9 4.7-6.7.1-3-.8-6.1-2.7-8.4-1.7-1.8-4.2-2.7-6.4-3.8-3.9-1.7-7.5-3.2-11.1-5.5-2.1-1.3-4-2.9-6-4.3-1.4-1-3-1.6-4.1-2.9-1.9-3.2 1.7-4.8 4.2-5.4 4.7-1.4 9.7-1.2 14.5-1.8 2.1-.2 4.2-.4 6-1.5 1.9-1.4.7-4.1-.4-5.6-1.5-1.7-3.7-2.3-5.8-2.9-3.3-.8-6.7-1-10.1-1-2.1 0-4.1.1-6.2.1-1.1 0-1.8-1.1-1.8-2.1s.7-2 1.8-2.1c1.8 0 3.7.1 5.5.1 5.8.1 12.1.2 17.2 3.4 4.7 3 6.5 11.6.8 14.5-1.8 1-4 1.3-6.1 1.5-5 .5-10.1.4-15 1.6 3.3 2.1 6.4 4.6 9.9 6.4 4.2 2.2 8.8 3.7 12.9 6.3 5.2 3.1 7.2 10.3 5.7 15.9-1.6 5.1-6.3 9.2-11.6 9.8-2.7.3-5.4-.4-7.9-1.3-2.4-.9-4.6-2.1-6.9-3.2-4.8-1.9-9.7-3.2-14.5-5.1-5.9-1.9-11.5-5.3-17.6-6.8-2.8-.7-5.6-1.4-8.4-1.7-4.4 0-8.7 1.4-12.9 2.7-6.5 2.6-13.2 4.7-19.8 6.9-4.9 1.8-9.5 4.2-14.4 5.9-3.4 1.1-6.8 2.3-10.1 3.6-1.6.6-3.3 1.2-5 1.6-2.5.8-5.3 1.1-8.1 1"/><path d="M154.5 633.3c-7.2-.8-15.7-5.4-14.7-13.7.3-3.5 1.5-7 3.6-9.8 1.2-1.6 3.6-2.1 3.8.4-.1.8-.4 2.6-1.6 2-1.3 2.2-2.1 4.7-2.3 7.2-.2 2.4.4 4.5 2.4 6 4.2 3.5 12.2 5 17.4 3 6.3-2.8 4-8.6 4.4-14 0-.7.4-1.4 1.1-1.6 1-.2 1.5.9 1.6 1.8.4 1.7.8 3.4.7 5.1.4 10.5-6.6 15.1-16.4 13.6m122-5.5c-3.5 0-7.3-.3-10.3-2.5-2.6-2.1-4.6-5.1-5.3-8.4-.5-2.7.3-5.4 1.9-7.7.8-1.1 1.9-2.5 3.4-2.3 1.3.2 2 2.2.9 3-.7.3-1.2.7-1.6 1.4-.8 1.4-1.5 3-1.2 4.6.7 2.7 2.6 5.3 5.1 6.5 1.4.6 3 .8 4.5 1 3 .2 6 .2 8.9-.4 5.3-1.4 4.4-8.1 5.2-12.3.4-1.7 2.6-1.7 2.9 0 .7 4.4-.6 12.2-4.3 15-2.8 1.9-6.6 2-10.1 2.1m4.4-42.4c-2.2-.3-4.5-.7-6.4-1.9-3-1.7-4.8-5.5-3.6-8.8.8-1.9 2.5-1.4 2.7.5-.2 4.5 4 5.7 7.7 6.1 4.2.4 4.8-.5 5.1-4.6.1-1.9 0-3.7-.3-5.6-.1-1 .4-2.2 1.5-2.4s1.9.8 2 1.7c.3 3.1.2 6.3-.3 9.3-.7 5.1-3.9 6.3-8.4 5.7m-22.2-169.2c-.7-.7-.5-2 .3-2.5 1.4-.8 2.8-1.3 4.3-2 2.7-1.2 5.5-2.2 8.4-2.9 1.5-.3 3-.7 4.6-.4 1.5.3 1.5 2.8 0 3.1-1.8.2-3.6.5-5.3.9-3 .8-5.9 2-8.8 3.2-1.1.5-2.5 1.6-3.5.6m25.7-8.2c-1.3-.3-1.6-2.4-.4-3 .4-.2.8-.2 1.2-.3 3.5-.7 7-1.7 10.5-2.1 1.7 0 4.9-1.3 5.3 1.1.1.8-.3 1.5-1 1.8-2.6.8-5.3.8-7.9 1.3-1.9.4-3.9.8-5.8 1.1-.6.1-1.2.3-1.9.1m24.7-8.2c-1.5-.3-1.4-2.6 0-3 3.3-.7 6.9-.7 10.2-.8 1 0 1.6.9 1.6 1.8-.1 2.4-2.5 1.8-4.2 1.8-2.5-.1-5 .1-7.6.2m49.3-35.4c-.6-.2-.9-.7-.9-1.3 0-1.4 1.7-1.7 2.8-2.1 3.2-1.1 6.4-2.4 9.8-3 1.9-.2 2.4 2.9.7 3.5-2.8.8-5.6 1.5-8.3 2.3-1.4.2-2.8.9-4.1.6m17.9-5.1c-1.1-1.8.7-2.9 2.3-3.3 2.8-.8 5.5-1.7 8.4-1.8 1.6.1 1.9 2.7.4 3.1-1.3.4-2.7.5-4.1.9-1.7.4-3.3.7-4.8 1.2-.8.2-1.7.8-2.2-.1m17.6-1.9c-1.4-.3-1.4-2.3-.3-3 .8-.6 1.9-.8 2.9-1 2.3-.6 4.6-1.2 7-1.6 1.2-.1 2.4-.4 3.6-.2 1.6.3 1.6 3 0 3.3-4.5.3-8.9 1.5-13.2 2.5m32.1-44c-1.1-16.1-1.5-32.4-2.3-48.6-.4-5-.8-9.9-.9-14.9-.6-20.2-.7-40.4-1.4-60.5-.4-37.6 1.1-75.1 1.6-112.6.1-1 0-2.3.9-2.8.7-.3 1.3.4 1.4 1 .6 5.5.3 11.2.4 16.7.1 10.2-.2 20.3-.5 30.5-.3 15.2-.4 30.3-.5 45.5-.2 17.7.5 35.5.8 53.2.2 11.8.4 23.6 1 35.4.4 5 .8 10 .9 15 .5 10.1.7 20.2 1.4 30.3.2 4 .6 7.5.6 11.3.1 2.4-2.9 3.2-3.4.5"/><path d="M740.6 98.4c-9.4-1.2-18.6-3.7-28-5.2-6.8-1.1-13.6-1.9-20.4-2.8-11.6-1.8-23.5-1.5-35.1-3.6-6.1-1-12.2-1.3-18.3-1.7-6.5-.4-13-1.2-19.5-1.9-6.4-.6-12.8-1.2-19.1-2.2-6.1-.9-12.2-1.3-18.3-1.8-13.4-1.2-26.9-.5-40.3-1.3-13.4-.6-26.7-1.2-40.1-1.9-6.7-.3-13.4-.3-20.1-.5-6.4-.3-12.9.3-19.3.4-3.3 0-6.6-.1-10 0-3.2.1-6.3.3-9.5.5-5.6.4-11.3.3-17 .6-.5 0-.9.1-1.4.3-.5.1-1-.2-1.3-.7-.9-2.2 1.2-2.9 3.1-3 2.4-.3 4.8-.4 7.1-.5q7.5-.3 15-.9c3.2-.3 6.4-.2 9.6-.2 6.6.1 13.2-.4 19.7-.5 19.9.2 39.7 1.4 59.6 2.2 6.8.3 13.7.6 20.5.7 6.6.2 13.3 0 19.9.4 6.6.6 13.1 1 19.7 1.6 6.8.9 13.5 1.8 20.3 2.4 5.5.5 10.9 1.3 16.4 1.8 5.9.5 11.8.7 17.7 1.3 5.9.5 11.6 1.9 17.5 2.3 21.5 1.2 42.8 4.2 63.9 8.7 2.8.5 5.6.7 8.3 1.5 2.1.7 1.6 4.3-.6 4m-48.1 247.9c-22.2.5-44.3-2-66.4-3-22.4.1-44.5-2.9-66.5-7.3-15.3-2.7-30.6-4.9-46-5.4-26.8-2.7-53.9-4.3-80-11.4-2.5-1.1-5.8-1.2-7.7-3.3-.7-1.3.3-3.1 1.9-2.5 9 3.3 18.4 4.2 27.7 6.3 17.4 3.4 35 4.1 52.6 6.1 12.1 1.7 24.5 1 36.6 3.6 15.8 2.3 31.4 6.1 47.2 8 15.7 2.2 31.6 1.4 47.4 2.6 27.4 2.7 54.9 2.7 82.4 1.9 2.7.5 7.3-1.9 8.3 1.4.1 1-.4 2-1.4 2.2-12 1-24.1.6-36.1.8"/><path d="M730 343c-1.9-1.2-.4-3.1.1-4.7 1.3-5.2 2-10.5 2.8-15.7 1.1-9.7 1.7-19.5 2.3-29.2.5-6.8 1.2-13.5 1.6-20.2.5-12.5 1.3-25 2.3-37.5.5-12.2 1.6-24.3 1.9-36.5.6-15.6-.1-31.2 0-46.8.1-14.5-.9-28.9-1.2-43.4 0-3.1 0-6.3.1-9.4.1-1.3-.1-3.3 1.5-3.5 2 .3 1.4 2.9 1.5 4.3 0 3.7 0 7.4.1 11.1 1.4 25.9 1.3 51.9 1.4 77.9-.2 11.4-.9 22.9-1.6 34.2-.4 7.3-.6 14.7-1.3 22-.8 9-1.1 17.7-1.5 26.6-.6 9.6-1.7 19.2-2.1 28.7-.7 9.7-1.2 19.4-2.9 29-.8 4.1-1.1 8.3-2.9 12.1-.3.9-1.3 1.5-2.1 1m25.3-257.6c-3.3-1.3-6.7-2.3-10.2-3.1-4.7-1.2-9.4-2.3-14.2-3-12.5-2.2-25.2-3.7-37.7-6.3-16.5-3.2-33.2-2.6-49.8-4.1-10.7-1.2-21.4-2.4-32.2-2.9-15.2-.7-30.4-1-45.6-2.7-13.7-.7-27.5-.6-41.3-1-16.5-.9-33.1-1.8-49.6-.5-5.6.3-11.2.3-16.8.6-3.5.3-7.1-.1-10.6.6-1.5.4-2.7 1.3-4.1 2-5.4 2.5-10.8 5.2-15.3 9.2-.7.7-1.4 1.3-1.9 2.1-.1.7-.8 1.6-1.6 1.1-3.4-3.1 4.8-8.4 7-10 4.5-2.9 9.3-5.2 14-7.9 3.8-1.5 8-.8 11.9-1.1 5.1-.2 10.2-.2 15.2-.5 17.2-1.4 34.4-.7 51.6.4 13.4.3 26.8.4 40.2 1 10.2 1 20.4 1.9 30.7 2.2 6.9.2 13.8.5 20.6.8 10.7.7 21.1 2 31.5 3 6.8.5 13.6.6 20.4.9 10.2.6 20.4 1.6 30.5 3.7 18.7 3.9 38.1 4.9 56.3 10.9.7.2 1.4.5 2 .8.8.4 1.1 1.5.9 2.4 0 1-1 1.8-1.9 1.4"/><path d="M730.1 344.3c-.4-.7-.3-1.8.3-2.4 1.9-1.6 4.2-3.3 5.9-4.9 2.5-2.2 5-4.5 7.6-6.6 1.3-1.1 2.6-2.1 3.7-3.3.6-.7.8-1.6 1-2.5.4-2.3.6-4.6.8-6.9 2-26.2 3.9-52.5 5.5-78.7 1-27.1.9-54.3 2.1-81.4.6-11.2.2-22.4-.4-33.6-1-10.9-.7-21.8-1.3-32.8l-.3-5.1c-.1-1.2-.3-3 1.2-3.4 1.8-.1 1.8 2.2 2 3.5.2 1.4.3 2.9.3 4.2.7 11.6.4 23.3 1.5 34.9.4 8.1.7 16.3.6 24.4-.3 10.9-.9 21.8-1.2 32.8-.2 10.8-.6 21.6-.8 32.3-.1 7.9-.1 15.8-.6 23.7-1.7 26.4-3.6 52.7-5.6 79.1-.8 14.3-1.8 11.1-11.7 20.2-2 1.7-3.9 3.5-5.9 5.2-1.3 1-3.4 3.3-4.7 1.3"/><path d="M738.3 97.4c-.5-1.8 1.3-3.1 2.5-4.1 2.2-1.8 4.4-3.5 6.7-5.2 1.5-1.2 3.2-2.3 4.4-3.8.4-.5.8-1.1 1.4-1.2 1.5-.2 2.2 1.9 1.4 2.9-1.1 1.5-2.4 2.7-3.9 3.7-2.3 1.7-4.7 3.4-7 5.1-1.2.9-2.6 1.7-3.7 2.7-.3 1-1.7.8-1.8-.1M436 302.9c-2.3-69.1-3.3-138.4-.1-207.5.1-1.8.3-3.7.6-5.5.2-1.6 2.5-1.3 2.2.4-.1.9-.2 1.5-.2 2.2-1.4 50-2.1 100.1-.7 150.1.1 13.5.5 27.1.7 40.6.1 6.7.4 12.9.8 19.3.1 2.3-3.1 2.8-3.3.4"/><path d="M726.3 109.4c-23.5-3.6-47-7.6-70.8-8.4-29.4-2.4-59.1-1.5-88.4-5.3-21.2-.6-42.4 1.1-63.5-1-19.6.2-39.3-1.2-58.7-3.2-2.7-.7-11 2.6-9-2 3.9-2.3 9.2-1.4 13.6-1.3 17.2 2.2 34.3 2.4 51.6 2.4 18.1 1.1 36.3 1.6 54.4.8 11-.6 21.7 2.1 32.7 2.3 15.2 1.1 30.5 1.2 45.7 2.2 24.2 1 48.4 2.6 72.4 6.3 6.8 1.3 13.8 2 20.6 3.3 1.5.8 1.3 3.9-.6 3.9m-10.3 224c-3.3-.4-6.6-.4-10-.6-7.9-.4-15.8-1.5-23.7-2.5-4.9-.6-9.7-.9-14.6-1.3-5.7-.5-11.4-1.2-17.1-1.8-5.7-.7-11.4-1.3-17-2-8.4-1.4-16.9-2.4-25.4-3.5-5.7-.8-11.5-1.8-17.2-2.4-5.8-.5-11.5-1.2-17.3-1.9-6.5-.6-13-.5-19.5-.8-8.8-.4-17.6-.1-26.3-.7-11.4-.8-22.5-4-33.8-4.9-7.1-.8-14.3-1.3-21.5-1.4-7.7-.4-15.5-1.3-23.2-1.5-3.6-.2-7.3-.6-10.9-.4-.4 0-.7.3-1.1.2-.6-.1-1-.6-1.2-1.2s0-1.3.4-1.8c.9-1.1 2.4-.9 3.6-1 5.2-.1 10.4.5 15.6.6 5.5.3 10.7 1 16.2 1.2 5.8.2 11.5.3 17.3.9 12.7.8 25.1 4.2 37.8 5.4 8.7.7 17.5.5 26.3.8 5.8.3 11.7.2 17.5.5 11.6 1.3 23.3 2.3 34.9 4.2 8.5 1.3 17.1 2.1 25.6 3.5 11.7 1.6 23.4 2.7 35.1 4 11.4.7 22.7 2.4 34.1 3.5 3.6.3 7.1.5 10.7.6 1.6.1 3.2.1 4.9.3.4 0 .8.2 1.1.5.9 1 .4 3.5-1.3 3.5"/><path d="M718.2 331.3c-3.1-.7.5-8.8.1-11.4 1.1-18 3.7-36.1 4.6-54.1 2.8-50.8 3.4-101.7 1.8-152.6.1-2.3-.9-4.7-.3-6.8 2.9-2.7 3.1 3.7 3.3 5.5 2 44.6.8 89.3-.7 133.9-.6 20.6-2.5 41.1-4.7 61.5-.6 4-.2 24.1-4.1 24m-82.4 46.6c-8.1-1.7-16.4-2.9-24.6-4.1-5-.7-9.9-2-14.8-3.1-8.4-1.5-17-.7-25.5-1.8-8.7-1-17.4-2.7-26-4.3-3.6-.6-5.5-3.1-3.5-6.6 1.5-3 3.1-5.9 4.7-8.8 1.7-3.1 3.5-6.2 5.3-9.2.9-1.5 1.8-3 2.7-4.4.6-.9 1.4-1.8 2.6-1.6 1.5.2 2.3 2.7.6 3.1-4.2 7.7-8.7 15.3-12.7 23.1 3.7 1.1 7.6 1.4 11.3 2.2 6.2 1.2 12.5 2.2 18.8 2.9 7.6.7 15.3.1 22.7 1.7 5.1 1.2 10.2 2.5 15.3 3.2 7.6.9 15.2 2.1 22.7 3.5 1 .2 2.1.4 3.1.4 1.1-.1 2.2-.7 3.2-1.1 3.1-1.4 5.9-3.2 8.8-4.8 3.1-1.7 6.3-3.2 9.5-4.6 5.6-2.4 11.5-4.5 15.7-9-1.1-1.9-2.3-3.8-3.7-5.5-1.1-1.3-3.1-3.1-1.8-5 .5-.7 1.5-.9 2.2-.4 2.9 2.6 4.6 6.4 6.7 9.6 1.5 2.2-1 4-2.5 5.3-5 4.6-11.6 6.7-17.7 9.4-4.7 2-9.1 4.6-13.5 7.1-3 1.7-6.2 3.8-9.6 2.8"/><path d="M637.9 378.3c-2.6-4.5 1.8-13.7 2-18.9 1.3-3 .7-18.6 4.1-17.8 3.7-.1-2 23.1-2.5 26.3-.6 2.8-1.4 5.6-1.6 8.4.2 1.1-.7 2.9-2 2m-15.8-10.5c-6.3-.4-12.2-2.7-18.4-3.2-3.3-.2-6.5-.4-9.8-.7-3.6-.2-7.2-1-10.7-1.4-4.8-.4-9.7-.4-14.6-.9-3.6-.4-7.2-.7-10.9-1-3.6-.3-8-1-5.8-5.7 2-4.9 5.6-8.8 8.4-13.2.9-1.4 1.7-2.8 2.5-4.2.8-1.2 1.8-3.7 3.5-3.3.7.2 1 1 .8 1.7-1.8 2.9-3.2 6.1-5 9-2.3 3.7-5.2 7.1-6.9 11.2 5 .9 10.2.9 15.3 1.6 5 .4 10 .5 15 1.1 5.5 1 11 1.2 16.5 1.6 5.1.2 9.9 1.6 14.9 2.7 4.4.8 8.9.9 13.3.8 1-3 1.4-6.1 2.1-9.2s1.9-6.1 2.8-9.2c.3-1.2.9-3 2.4-2.6 1.6.7 1.1 2.7.6 3.9-1.6 4.3-2.8 8.8-3.7 13.3-.5 2.3-.9 4.6-1.8 6.7-.5 1.1-1.6 1-2.7 1-2.5.2-5.2.3-7.8 0m26-2.6c-1.4-.8-1.1-2.7-.8-4 .6-5 1.3-10 2.3-14.9.3-1.1.3-2.3 1-3.2.6-.7 1.8-.3 2.1.5.4 1.7-.3 3.5-.5 5.1-.7 4-1.2 8-1.7 12.1 5.1-2.9 10.5-5.5 14.8-9.5-.7-1.7-2-3.1-2.5-4.9-.7-1.7 1.2-3.8 2.7-2 1 1.4 1.7 2.8 2.5 4.3 1.3 2.3 1.6 4.6-1 6.2-1.2.9-2.3 1.8-3.5 2.7-2.6 1.9-5.5 3.3-8.3 4.9-1.5.8-2.9 1.7-4.5 2.4-.8.3-1.7.8-2.6.3"/><path d="M685.7 444.5c-7.9-.6-15.7-2.1-23.6-2.9-9.1-1.2-18.2-2.3-27.2-3.5-2.3-.4-4.7-.8-7.1-1-4.3-.3-8.7-.7-13-1.2-3.6-.3-7.3-.3-10.9-.7-11.6-1.5-23.3-2.6-34.9-4.1-6-.7-11.9-1.5-17.9-2.4-5.8-.7-11.5-1.2-17.2-2.6-4-.7-8-1-11.9-1.7-3.9-.8-7.7-1.5-11.6-2.2-9.5-2-19-3.1-28.7-3.9-4.7-.7-9.4-.9-14.2-1.2-4.4-.4-8.7-.9-13.1-1.2-5.5-.7-11-1.3-16.3-2.6-3.7-.7-7.4-1.1-11-2.1-3.5-.9-7-2-10.5-3.1-6.5-1.6-13.3-2-19.9-2.8-1 .1-2-.8-2.1-1.8-.5-5.8-.3-11.6-.6-17.3-.3-5.3.4-5.8 4.9-8.4 2.4-1.5 4.6-3.3 6.9-5.1 2.5-2 5.3-3.6 8-5.3 4.6-2.5 8.8-5.7 13.4-8.4 6.9-3.9 13.2-8.5 19.9-12.6 4-2.3 8.2-4.3 12.1-6.8 4.3-3.1 8.8-6 13.6-8.5 2.3-1.3 4.6-2.7 6.8-4 1.3-.7 2.9-2.1 4.4-1.2.6.4.7 1.3.3 1.9-.5.6-1.4.9-2 1.4-2.5 1.7-5 3.4-7.6 4.9-2.6 1.6-5.3 3-7.8 4.7-3.3 2.3-6.5 4.8-10 6.6-5.8 3-11.5 6.5-16.8 10.3-5.3 3.6-11.4 6.8-16.7 10.2-3.7 2.6-7.7 4.7-11.6 7.1-2.7 1.7-5.1 3.6-7.5 5.6-2.1 1.7-4.5 3-6.7 4.7-.2 3 .1 6.1.1 9.1.1 3 0 6.1.3 9.1 6.3.9 12.6 1.5 18.8 3 6.3 1.8 12.5 4.1 19 4.9 2.1.3 4.2.8 6.3 1.2 4.6.8 9.3 1.4 13.9 1.9 4.1.3 8.3.8 12.4 1.2 3.8.3 7.6.5 11.3 1 3.9.6 7.9.8 11.8 1.3 7.6.7 15.1 2.3 22.6 3.7 4 .7 7.9 1.6 11.9 2.2 3.8.5 7.6.8 11.4 1.7s7.8 1.2 11.7 1.6c9.6 1.3 19.3 2.4 28.9 3.8 7.4.9 14.8 1.6 22.2 2.6 4.6.7 9.2.8 13.8 1.1 4.8.5 9.7 1 14.5 1.3 11.3 1.5 22.6 2.9 33.9 4.3 7.3.7 14.8 1.9 22.1 2.6 1 .1 2 .1 2.8-.5 1.4-1 2.7-2.2 4-3.3 4.4-3.7 8.8-7.3 13.5-10.6q4.5-3.15 8.7-6.9c5.7-4.6 11.2-9.4 16.4-14.7 3.9-3.6 8-7 11.8-10.7 2.8-2.7 4.9-5.4 7.3-8.3 3.7-4.4 8.2-8 12.4-12 5.1-5.1 9.8-10.6 15.2-15.4.9-.8 1.9-1.5 2.5-2.5.5-1.4.5-2.9.6-4.4.3-3.5.5-6.4.4-9.8-.2-2.2-.5-4.5-.8-6.7-3.3-.6-6.6-.5-10-.7-6.9-.4-14-.3-20.8-1.9-1.3-.5-1.5-2.3-.6-3.2 1-.9 2.4-.2 3.5.1 1.9.5 3.8.7 5.7.9 3.4.3 6.8.3 10.2.4s6.8 0 10.2.3c1.6.1 3.7.2 4.6 1.8.9 2 .6 4.4 1 6.5.6 5.1-.1 10.1-.5 15.2-.1 2.1-.8 4.1-2.4 5.5-2 1.8-4 3.7-6 5.6-4.2 4-7.9 8.7-12.3 12.6-2.8 2.5-5.7 4.8-8.3 7.5-3.4 3.4-6.1 7.3-9.4 10.7-2.8 2.9-5.9 5.5-8.9 8.2-3.9 3.3-7.5 7-11.3 10.5l-13.8 11.4c-4.6 3.5-9.3 6.9-13.7 10.6-1.5 1.3-3 2.5-4.5 3.8-1.8 1.3-3.6 3.6-6.3 3.6"/><path d="M609.4 421.3c-5.3-.4-10.5-1.5-15.7-2.8-4.7-1.2-9.6-1.9-14.4-2.8l-4.5-.9c-3.5-.6-6.6-.6-10-1.2-5.3-.9-10.6-1.8-15.9-2.5-3.9-.3-7.7-.6-11.5-1.4-6.2-1.1-12.4-2-18.7-3.1-4.5-1.2-9.1-1.3-13.7-1.5-6.6-.7-13.2-.9-19.7-1.9-1.9-.3-3.8-.8-5.7-1.2-3.8-.8-7.7-1.3-11.6-2-2.9-.5-5.8-1.2-8.7-1.6-2.9-.5-10.5-.4-11.8-3.3-.7-1.7.7-3.2 1.9-4.3 2.5-2.6 5.2-5 7.8-7.4 2.8-2.6 5.3-5.5 7.9-8.3 3.1-3.5 6.6-6.6 10.3-9.5.9-.7 1.8-1.5 2.7-2.2.5-.4 1.2-.7 1.8-.4.9.5.9 1.6.4 2.4-.1.6-.6 1.2-1.3 1-1.9 1.7-3.8 3.3-5.7 4.9-4.3 3.8-7.9 8.2-11.9 12.4-3.2 3.3-6.9 6.2-10 9.6 3.8 1 7.9.9 11.7 1.7 6.6 1.5 13.3 2.3 19.8 3.7 6.8 1.5 13.9 1.5 20.8 2.3 4 .3 8 .3 11.9 1 8.3 1.8 16.7 2.7 25.1 4.3 3.4.6 6.9.6 10.3 1.1 1.8.3 3.6.7 5.5.9 4.4.5 8.8 1.8 13.1 2 5.9.4 11.6 1.9 17.3 2.8 7.4 1.3 14.7 3.8 22.2 4.4.6.1 1.2.2 1.5-.4.9-1.2 1.7-2.5 2.6-3.8 3.4-5.7 8.5-9.8 12.8-14.8 2.1-2.5 3.8-5.2 5.4-8 .8-1.3 1.4-2.7 2.3-3.9.5-.7 1.4-.8 2-.3 1.8 1.5-.2 3.6-1.1 5.1-1 1.5-1.9 3.1-2.9 4.7-3.2 5.3-8 9.4-12.1 13.9-2.2 2.5-3.9 5.5-5.7 8.3-.9 1.7-2.4 3.6-4.5 3"/><path d="M633.3 387c0-1-.1-2-.2-3-4.9-1.4-10-1.5-15-2.4-4.7-.8-9.4-1.8-14.2-2.3-5.2-.5-10.3-1.5-15.4-1.9-5.8-.5-11.5-.9-17.2-2-2.8-.5-5.7-.9-8.5-1.5-5.8-1.4-11.6-3.1-17.7-3.6-9.7-1.4-19.5-1.5-29.3-2.4-6.2-.4-12.2-1.3-18.3-1.6-4.9-.4-9.7-.6-14.6-.4-1.7-.1-5 1-4.3-1.9.6-1.6 3.9-1.2 5.3-1.4 4.9-.3 9.7 0 14.6.3 4.1 0 8.1.6 12.2 1 3.1.2 6.3.5 9.3.8 8.3.7 16.6.7 24.8 1.9 7.3.5 14.2 2.8 21.3 4.2 6.4 1.1 13.1 2.1 19.5 2.6 4.9.4 9.8.9 14.7 1.7 6.5.7 12.9 1.7 19.3 3 4.4.8 8.9 1 13.3 2.2 1.7.5 3.9.4 3.6 2.9-.1 1.4-.2 2.7-.3 4.1-.1.6-.6 1.3-1.2 1.3-1.2-.1-1.7-.9-1.7-1.6M609 428.3c-7.4-1.4-14.9-2.9-22.5-3.6-5.1-.4-10.2-.4-15.3-1.2-3.3-.5-6.7-.7-10-1.3-10-2-20.1-3.9-30.2-5.3-5.2-.9-10.3-2.1-15.5-2.8-5.1-.5-10.2-1.3-15.3-1.5-5.1-.4-10.2-.6-15.3-1.3-6.6-1-13.2-2.3-19.9-3.2-3.3-.6-6.7-1.1-10-1.7-1.7-.3-3.5-.7-4.6-2-1.5-1.8-1.6-4.2-2.2-6.4-.2-1.1-.8-2.2-.9-3.3 0-.9.7-1.8 1.6-1.4 1.4.7 1.5 2.7 2 4.1.3 1.1.6 2.2.9 3.2.2.6.5 1.4 1.2 1.6 1.8.7 3.8.8 5.7 1.2 3.3.6 6.7 1.2 10 1.7 6.8 1.1 13.7 2.5 20.6 3.3 5.1.4 10.3.7 15.4 1 5.1.6 10.1 1.1 15.2 2 3.4.6 6.9 1.3 10.3 2 3.3.6 6.6.9 9.9 1.5 6.8 1.2 13.5 2.3 20.3 3.7 3.3.6 6.7.8 10.1 1.3 5.2.9 10.5.9 15.7 1.3 7.5.7 14.9 2 22.3 3.5 0-1.1-.1-2.3.2-3.4.4-1.7 2.5-1.7 2.9 0 .4 1.4.2 2.8 0 4.3 0 1.5-1 3.1-2.6 2.7"/><path d="M609.6 428.5c-1.1-1.6.4-3.1 1.5-4.1 1.5-1.4 2.9-2.9 4.4-4.3 4.1-3.7 7.5-8.1 11-12.4 2.8-3.4 6.2-6.3 9.2-9.4.5-.7.3-1.7.3-2.5-.1-3.3-1.2-6.4-2.1-9.6-.2-.9-.6-2.3.3-2.9.4-.3 1-.3 1.3.1.6 1 .8 2.2 1.3 3.2.7 2.2 1.5 4.3 1.9 6.6.6 3.9 1.1 6.6-2.4 9.3-2.7 2.5-5.3 5.1-7.7 7.8-2 2.3-3.8 4.9-5.8 7.2s-4.3 4.3-6.5 6.3c-1.1 1.1-2.2 2.3-3.2 3.5-.9 1.2-2.4 2.7-3.5 1.2m-159.4-36.4c-7.1-.2-13.9-1.9-20.9-3-4.5-.7-9.1-1-13.6-1.6-5.8-.8-11.5-2-17.4-2.2-1.8.3-2.5-2.1-1-3q.75-.3 1.5-.3c2.8-.2 5.6.3 8.4.7 4.4.5 8.8 1.3 13.3 1.8 3 .2 6 .6 9 1.1 4 .7 7.8 1.9 11.8 2.5 2.7.4 5.3.6 8 .5 1 0 2.4-.3 3.1.6 1 1.6-.3 3.3-2.2 2.9"/><path d="M685.7 443.2c-.9-2.9-1.6-6-2-9-.4-4.4-.2-8.8-.6-13.1-3.4-.5-6.6-1.4-9.9-2.1-4.6-1-9.2-2.1-13.8-2.9-5.6-.6-11.2-1.7-16.9-2.1-2.9-.3-5.7-.3-8.6-.5-2.6-.2-5.3-.3-7.6-1.4-1.1-.6-1.5-2.2-.6-3.1.6-.7 1.5-.3 2.2-.1 1.5.4 3.1.5 4.6.7 5 .3 10 .3 14.9 1 4.6.7 9.3 1.2 13.9 2 4.6 1 9.1 2 13.7 3 2.8.6 5.5 1.4 8.3 1.8 1.2 0 2.4.1 2.7 1.5.6 6.6-.4 13.4 1.6 19.7.3 1.2.7 2.4.8 3.7.4 1.7-1.9 2.8-2.7.9"/><path d="M684.9 421.4c-.9-.5-1-1.8-.2-2.4.5-.3 1.1-.4 1.6-.6 1.9-.9 3.6-2.3 5.3-3.7 2.3-2.1 4.6-4.4 7-6.5 3.4-2.9 6.9-5.5 10.2-8.4 2.4-2.2 4.4-4.8 6.9-7 2.5-2.1 5.2-3.9 7.7-6 3.4-2.7 6.3-6 9-9.4 4-4.6 9.5-7.6 13.7-11.9 2.4-2.4 4.2-5.2 6.6-7.5 2.3-2.2 4.8-4.3 7.1-6.5 3.6-3.4 6.3-7.5 9.7-11 1.6-1.6 3.3-3 5-4.4 1-.8 2-1.6 3.1-2.3 1.9-.9 3 2.1 1.5 3.2-1.7 1.4-3.8 2.5-5.4 4-3.6 3.1-6.3 7.1-9.5 10.6-2.4 2.8-5.4 5.2-8.1 7.6-2.7 2.2-4.7 5.1-7 7.7-4 4.6-9.3 7.7-13.6 12-1.6 1.6-2.9 3.5-4.4 5.1-3.3 3.8-7.4 6.7-11.4 9.7-3.5 2.5-5.9 6.1-9.1 8.9-3.7 3.3-7.7 6.2-11.4 9.4-3.2 3-9.9 10.7-14.3 9.4m-11.8-20.8c5.5-.5 9.7-4.4 14.3-6.9 4-2.2 8-4.7 10.9-8.2 2.9-3.4 5.2-8.5 4.3-12.9-3.4-5.3-11.1-5.8-16.7-4.6-4.6 1.2-8.7 3.4-13 5.4-3.4 1.7-7 3.2-9.4 6.2-8.7 10.1-4.3 21.5 9.6 21m-2.9 4.1c-14.7-.7-19.1-15.6-10.6-26.4 3-4.7 8.3-7 13.1-9.2 8.8-4.7 20.5-8.5 29.5-2.2 10.1 7.3-.7 23.4-8.9 27.9-7.4 3.7-14.2 10.9-23.1 9.9"/><path d="M698.2 387.5c-1-.4-1.6-1.2-2.3-1.9-5.5-7.4-8.7-7.6-17.3-9.4-2.3-.5-4.5-1.1-6.8-1.3h-1.1c-.2.1-.4.2-.7.1-1.7-.5-1.2-2.9.3-3.3 2.9-.8 5.9.4 8.7.8 5.4 1 11.3 1.8 15.4 5.8 2.1 2.1 3.7 4.1 5.4 6.2 1 1.2.1 3.6-1.6 3"/><path d="M688.1 376.9c-1.4-.6-1.1-2.6.3-3.1 1.8-1.2 3.7-2.3 5.6-3.4.9-.5 1.7-1 2.6-1.6s1.8-1.4 3-1.2c1 .2 1.3 1.4 1 2.2-1 2.1-3.5 2.8-5.4 3.9-1.5.8-3 1.7-4.5 2.5-.9.4-1.8 1-2.6.7M414.5 570.7c-2.5-.2-5-.4-7.4-.7-1.3-.1-2.7-.2-4-.7-3-1.2-2.3-5-2.9-7.6-.8-6.6-1.3-13.2-1.6-19.7-.5-10.3-.1-20.6-.4-30.8-.5-27.5.4-54.9.3-82.4.1-5.8.1-11.6.1-17.4 0-1.8-.2-3.6.1-5.3.2-.8 1.1-1.6 1.9-1.1.9.5.9 1.6.9 2.5v7.7c-.1 13.8.1 27.7.1 41.5-.3 20.6-.5 41.3.1 61.9.1 9.6-.2 19.5.6 29 .5 6 .8 12 2 18 2.6.7 5.4.6 8 .9 2.3.1 4.8.7 7-.1-.8-17 .6-34 .4-51-.4-10.2-.3-20.4-.5-30.7-.3-6.9-.8-13.7-.7-20.6-.3-13.5-.8-27-.8-40.5v-10.1c.2-1.9-.9-5.2 1.7-5.6 2.2.2 1.7 2.9 1.8 4.5v7.1c-.1 16.9.7 33.9 1 50.8.2 6.8.8 13.6.7 20.4-.1 10.2.4 20.4.3 30.6 0 6.9-.5 13.8-.7 20.7-.1 6.9-.3 13.7 0 20.6 0 2 .5 4.2-.3 6.1-1.6 2.4-5.2 2.1-7.7 2m260.4 54.5c-4.4.1-5.5-.9-5.6-5.3-.1-1.7-.2-3.6-.3-5-.5-7.5-.2-15-.2-22.5.2-11.6-.5-23.1-.7-34.7-.2-15.4-1-30.8-1.1-46.2.1-11.9.5-23.8.5-35.7.2-7.9.5-15.8.5-23.6 0-2.3.1-4.6.2-6.8.2-1.9 0-5.1 1.9-5.3.8 0 1.3.8 1.2 1.6-.1.5-.2 1-.2 1.6-.2 23.6-.8 47.2-.9 70.9.1 7.7.2 15.4.5 23.1.3 11.5.4 23 .8 34.5.3 7.7.3 15.4.3 23 0 8.8-.3 17.7.8 26.3 3.1.4 6.3 0 9.4-.2 3.3-.3 6.6-.8 9.7-1.7.1-7.7-.4-15.4-.5-23.1s-.1-15.5-.1-23.2c-.1-19.2-.7-38.3-.7-57.5-.2-11.6 0-23.2.1-34.8-.1-7.6-.7-15.2-.7-22.7 0-5.6-.3-11.3 0-16.9.3-2.1 3.1-2.2 3.2.3.1 7.4 0 14.8.3 22.2.2 5.8.6 11.5.6 17.3-.1 13.5-.2 27 0 40.5-.1 19.3.7 38.5.6 57.7-.1 12.8.2 25.6.7 38.4.1 3.7-.2 5.6-4.4 6.2-5.1 1.1-10.5 1.4-15.9 1.6m93.1-67.3c-2-.1-4.1-.2-6.1-.2-1.8-.1-3.7.4-5.3-.7-2.9-2.4-2.3-6.8-2.4-10.2 0-5.2 0-10.4.1-15.5.3-12.6-.4-25.2-.5-37.9-.2-10.4-.3-20.8-.6-31.1-.5-6.1-.4-12.3-.2-18.4 0-4.9.3-9.8.7-14.7.4-8.1.5-16.2.7-24.3.1-5.3-.1-10.6-.2-15.9.2-2.1-1.1-6.5 1.6-6.7.9 0 1.5.8 1.6 1.7.2 1.8 0 3.6.1 5.4.3 5.8.3 11.7.2 17.5-.3 8.3-.3 16.6-.8 24.8-.5 5.2-.4 10.4-.5 15.6-.3 5.9.2 11.7.4 17.6.1 6.3.3 12.6.3 18.8.1 12.7.7 25.3.8 38-.1 6.9-.1 13.7-.2 20.6 0 3.3-.2 6.7.3 10 .1.4.1 1 .5 1.1h3.2c3.3 0 6.6.2 9.9.1.6-11.9.1-23.9.1-35.8-.4-12.1-.7-24.2-.5-36.4-.1-13 1.1-26.4 2.2-39.2.5-8.1.9-16.3 1-24.4.5-16.6 1.9-33.1 1-49.7 0-1.2-.1-2.4-.2-3.6 0-1.2-.3-2.7.7-3.6.9-.6 1.9.2 2 1.1.6 3.5.7 7.2.8 10.7.7 18.6-1.1 37.1-1.4 55.6-.5 15.6-2.6 31.2-2.9 46.8-.5 20.1.5 40.2.6 60.3.1 5.7 0 11.4-.1 17.2.3 5.6-2.2 5.8-6.9 5.4m-281.4-39.8c-2.6-.9-2.1-4.1-2.1-6.3v-7.5c.1-14.2.3-28.4 0-42.6-.3-10.8-.7-21.6-.7-32.4 0-3.6-.1-7.2.4-10.7.3-2.1 2.6-1.9 2.5.3.2 13.9.6 27.8 1.1 41.7.4 17.8-.3 35.6.1 53.3 3.2 0 6.4-.1 9.7-.1 1.9-.1 3.8 0 5.6-.6 0-3-.5-6.4-.6-9.1-.2-3.6-.3-7.1-.2-10.7 0-17.5 1-35.2-.7-52.6-.7-7.1-1.1-14.2-.8-21.3.3-2.1 3-2.2 3.3 0 .3 4.4.1 8.9.4 13.3.4 5.7 1 11.5 1.4 17.2.5 10.8.2 21.7.3 32.5-.1 9.1-.4 18.3.5 27.2.8 6.2-.3 8.4-6.9 8.5-3.4.1-6.8.1-10.2.2-1.1-.1-2.1 0-3.1-.3m127.2-104.8c-21.9-3.2-43.8-6.2-65.6-9.6-11.9-2.1-24-2.4-36-4.1-9.6-1.6-19-4-28.6-5.9-8.8-1-17.7-1.9-26.4-3.5-1-.2-2.2.2-3.2-.4-.7-.6-.7-1.8 0-2.4 1.2-.6 2.9-.1 4.2 0 8.2 1.6 16.4 2.5 24.7 3.4 8.9 2 17.7 4.3 26.6 5.9 8.2 1.7 16.6 1.7 24.9 2.7 9.9 1.1 19.8 2.6 29.7 4.1 12.8 1.8 25.6 4 38.4 5.6 3.3.4 6.6.6 9.9 1.1 1 .1 2.1-.3 3 .4 1.4 1 0 3.1-1.6 2.7m8.1-9.7c-6.2-.4-12.2-1.3-18.4-1.9-8.8-1.1-17.7-2.2-26.5-3.5-7.6-1.1-15.1-2.9-22.8-3.5-9.9-.7-19.9-1.2-29.8-2.5-5-.9-10-1.5-14.9-2.6-6.6-1.3-13.3-1.7-19.9-2.7-4.9-1-9.9-1.8-14.8-2.8-2.8-.6-5.6-1.6-8.4-2.1-.8-.2-1.7-.3-2.5-.4-.8 0-1.8-.3-1.9-1.3-.1-1.4.9-1.8 2.1-1.6 3.1.2 6 1.2 9 2 5.7 1.3 11.5 2.1 17.2 3.4 4.2.5 8.3 1.1 12.5 1.5 3.3.4 6.6 1.1 9.8 1.8 6.5 1.1 13.1 2.3 19.7 2.8 7.8.8 15.6 1.1 23.4 1.7 6.7.6 13.3 2 19.9 3.1 13.5 1.9 27 3.6 40.6 5.1 2.5.3 5.1.1 7.5.5 1.1.5 1.2 2.3 0 2.8-.7.3-1.3.2-1.8.2m7.6-8.4c-4.2-.5-8.3-1.8-12.6-2.5-12.9-2.2-25.9-4-38.9-6-6.7-.9-13.4-1.4-20-2.3-8.5-1.1-17.1-1.6-25.6-2.8-4.9-.6-9.9-1.1-14.9-1.6-5.7-.9-11.4-1.5-17.1-2.3-5-.3-10-.4-14.9-1.3-4.4-.7-8.7-1.4-13.1-2.2-.9-.2-2 0-2.8-.6-.9-.6-.6-2.3.5-2.5 3.3-.1 6.6.9 9.9 1.3q3.6.45 7.2 1.2c2.5.4 5 .5 7.6.7 3.3.2 6.7.3 10 .9 2.5.4 5 .6 7.5.9s4.9.9 7.4 1.1c12 1.2 23.9 2.9 36 4 6.6 1 13.3 1.5 19.9 2.2 11.4 1.7 22.7 3.3 34 5.2 3.2.6 6.4 1.1 9.6 1.6 3.5.8 7 1.6 10.6 2 1.6.3 1.4 3.2-.3 3"/><path d="M461.8 397.1c-.9-.8-.6-2.1.4-2.6 2.5-2.6 4.6-5.5 7.2-8 2.6-2.3 4.8-5 7-7.7 3.8-3.9 8-7.5 11.3-11.9 1.2-1.2 2.7-4.8 4.6-3.1.4.5.4 1.3.1 1.8-2.7 3.4-5.9 6.7-8.8 9.8-2.8 2.6-5.6 5.3-7.8 8.4-2.5 3.1-5.7 5.6-8.2 8.7-1.4 1.3-3.8 5.8-5.8 4.6m15.5 2.7c-.5 0-.9-.4-1-.9-.3-1 .6-1.6 1.2-2.1 1.8-1.6 3.5-3.2 5-5 3.2-4.3 6.2-8.6 9.9-12.5 4-5 8.1-10 12.4-14.7 1.4-1 2.6 1 1.9 2.2-1.3 2.2-3.6 3.8-5.3 5.8-3.5 4.6-7 8.8-10.9 13-4.1 5-7.2 11.5-13.2 14.2m17.1 2.5c-1.2-1.5.7-3.1 1.4-4.4 2.3-3.2 5.2-5.8 7.8-8.8 1.7-2 3.1-4.2 4.4-6.5 2.9-5.3 7.2-9.4 10.4-14.4.8-1.1 1.2-2.7 2.5-3.4.4-.2.9 0 1.2.3 1.1 1.3-.3 3-1 4.1-1.6 2.4-3.2 4.8-5.1 7-1.7 2-3.2 4.1-4.6 6.2-1.6 2.5-3 5.2-4.9 7.6s-4.1 4.5-6.2 6.8c-1.3 1.4-2.5 2.8-3.6 4.3-.5.8-1.3 2.2-2.3 1.2m18.7-.4c-.3.4-.7.8-1 1.2-.5.7-1.5 1.7-2.4.9-.7-.8-.4-1.6.1-2.4zm24.3-35.1c1.2 1.3-.2 2.7-1.1 3.7-1.1 1.3-2.2 2.8-3.1 4.2-2.9 5.1-6.7 9.5-10.1 14.2-1.6 2.4-2.9 4.7-4.7 7-1.1 1.4-2.4 2.7-3.5 4-.9-.1-1.7-.2-2.6-.4-.2 0-.5-.1-.7-.1 1.4-1.7 2.9-3.3 4.3-4.9 2.8-3.4 4.8-7.3 7.6-10.7 2.6-3.2 5.1-6.5 7.1-10 1-1.7 2.3-3.2 3.4-4.8.9-1 1.9-3.6 3.4-2.2m-5.1 38.3-.3.6c-.3.6-.7 1.6-1.5 1.4-1-.3-1-1.2-.7-2.4.9.2 1.7.3 2.5.4m22.5-36.4c1.1.6.8 2 .3 2.9-3 5.3-6.6 10-10.1 14.9-1.5 2.4-2.6 5-4.3 7.3-2.1 2.7-4.4 5.3-6.3 8.2l-3-.3c1-1.6 2-3 2.4-3.6 1.7-2.4 3.8-4.6 5.4-7s2.7-5 4.4-7.3c3.1-4.2 6.4-8.3 8.9-13 .4-1 .9-2.8 2.3-2.1m-8.3 38.5c-.1.1-.2.3-.3.4-.5.5-.9 1.4-1.7 1.5-.5 0-.9-.3-1.1-.8s-.1-.9.1-1.3c1 .1 2 .1 3 .2m18.4-33.9c1.2-1.5 3 .5 2.1 1.9-2 3.4-3.7 7-6 10.2-1 1.5-2.1 2.8-3.1 4.3-2.1 3.8-4.2 7.7-6.8 11.2-.7 1-1.4 2-2.1 2.9-.3 0-.6-.1-.9-.1-.7-.1-1.4-.2-2.1-.4 1.9-2.6 3.6-5.2 5.3-7.8 2-2.9 3.3-6.1 5.3-9 2.8-3.6 5-7.3 7.1-11.3.4-.5.8-1.3 1.2-1.9m-4.4 37.9c-1.7-.8-.4-2.8.3-3.9 1.2-1.9 2.3-3.9 3.4-5.9.8-1.4 1.6-2.8 2.5-4.2 1.8-2.7 4.3-5 6-7.8 2.2-3.8 4.1-7.6 6.6-11.2 1-1.3 1.6-2.9 3-3.8 1.2-.6 2.3 1 1.7 2-.2.6-.6 1-1 1.5-3.9 4.6-6.1 10.4-9.5 15.3-1.3 1.8-2.8 3.3-4 5.1-2.8 3.9-4.9 8.3-7.7 12.2-.2.5-.7.9-1.3.7m15.1 2.5c-1.4-.9-.2-2.6.4-3.6 1.2-1.9 2.5-3.6 3.9-5.4 3.9-5 7.3-10.4 10.4-15.9 1.4-2.3 3.4-4.2 4.9-6.4 1.3-1.7 1.8-3.8 2.9-5.6 1-1.3 2.6.1 2.2 1.4q-.6 1.65-1.5 3.3c-1.8 3.4-4.4 6.2-6.5 9.4-2.8 5.1-5.8 10.1-9.4 14.6-1.5 2-3.1 4-4.6 6-.8.8-1.3 2.8-2.7 2.2m14.5 3.1c-1.1-.9-.3-2.3.4-3.2q1.35-2.1 3-4.2c2.2-2.9 4.2-5.9 6.1-9 1.9-3 4.3-5.5 6.2-8.5 2.7-4.6 5-9.6 9-13.2 1.3-.9 2.5.9 1.8 2.1-1.2 1.9-2.9 3.3-4.1 5.3-2.1 3.6-3.9 7.4-6.5 10.6-2.5 2.8-4.6 6-6.5 9.2-1.6 2.5-3.4 4.9-5.2 7.2-.8 1.1-1.6 2.3-2.5 3.4-.4.4-1.2.7-1.7.3m11 1.7c-.7 0-1.1-.8-1-1.4.3-1.3 1.8-2.2 2.6-3.4 1.8-2.2 3.6-4.5 5.3-6.8 3.4-4.5 6.5-9.3 9.9-13.7 1.7-2.7 3.2-5.7 5.2-8.2 1.3-1.6 2.5-3.2 3.9-4.7 1.4-1.3 2.9.9 1.9 2.2-1.9 2.4-4.1 4.6-5.7 7.2-1.1 1.7-2 3.5-3.1 5.1-2 2.8-4.3 5.5-6.1 8.4-3.3 4.9-6.8 9.7-10.8 14.1-.8.4-1.3 1.1-2.1 1.2"/><path d="M679.8 181.2c-.5 2.1-.8 4.2-1.5 6.3-1.2 3-2.8 5.8-5.5 7.7-4.6 3.3-9.5 3.1-14.4 1-4.6-2-7.7-5.6-9.5-10.2-3.6-9.3-3.3-18.5 2-27.2 3.1-5.2 9-7.8 14.6-6.6 4.3.9 7.4 3.7 9.7 7.3 2.4 3.7 3.7 7.9 4.4 12.3.1.4.2.7.2 1zm-9.9-4.7c-.2-3.8-.7-7.5-2.4-10.8-.9-1.7-1.9-3.6-4.2-3.6-2.4-.1-3.6 1.7-4.6 3.5-2 3.6-2.4 7.5-2.1 11.5.2 3 1 5.8 3 8.2 2.2 2.5 6.9 3.8 8.8-1.1 1-2.5 1.3-5.1 1.5-7.7m-180.7-34.7c3.2 1.3 4.1 2.7 4.1 6.2 0 3.2 0 6.3-.1 9.5 0 1 .3 1.5 1.4 1.6 2.8.1 5.5.2 8.3.4 1 .1.9-.6.9-1.2v-10.9c0-3.2 3-5.4 5.9-4.3 1.8.7 2.9 2.2 3.2 4.2.1.5 0 1.1 0 1.7v32.7c0 2.2-1.2 3.8-3 4.4s-3.8-.2-5-1.9c-.8-1-1.1-2.2-1.1-3.5v-10.1c0-1.2-.4-1.6-1.5-1.6-2.7-.1-5.3-.2-8-.3-.9 0-1.3.3-1.3 1.3 0 3.6-.1 7.1-.2 10.7 0 2.5-1.3 4.2-3.4 4.6-2.3.4-4.5-.8-5.4-3.1-.2-.4-.3-.8-.4-1.2v-6.7c.2-.4.2-.8.2-1.2l.3-25.3c0-3.8.8-4.9 4.3-6zm86.8 27.8 2.7-13.8c.3-1.6.6-3.1.9-4.7.5-2.4 2.6-4.1 4.6-3.9 2.8.3 4.8 2.3 4.8 4.9 0 2.5-.7 5-1.2 7.4-1.7 9.1-3.5 18.3-5.2 27.4-.5 2.6-1.9 4.1-4 4.3-2.2.2-4.3-1.1-5.3-3.4-1.7-4-3.4-7.9-5.2-11.9-.2-.4-.2-.8-.6-1-.5.4-.6 1-.9 1.5-1.7 3.6-3.4 7.1-5.1 10.7-1.1 2.3-2.6 3.1-4.9 2.9-1.9-.2-3.7-1.8-4.2-4-.7-3-.8-6-1.2-9-.8-6.4-1.6-12.8-2.3-19.3-.3-2.2-.5-4.4-.8-6.7-.2-1.7.1-3.2 1.4-4.4 1.3-1.3 2.9-1.5 4.6-.9 1.9.7 3.1 2.2 3.4 4.2.5 3.2.8 6.4 1.2 9.6.3 2.6.6 5.3 1.2 7.9 1-2.2 2.1-4.4 3.1-6.6.9-1.9 2.3-3 4.4-3s3.6 1.2 4.5 3c1.1 2.2 2 4.5 2.9 6.7.3.7.6 1.3.9 2 .2.1.2.1.3.1m-60.1 72.2v-9c0-3 .1-5.9.5-8.9.5-3.9 2.3-5.7 6.2-6 4.6-.3 8.9.7 12.6 3.7 4.7 3.7 6.5 11 3.7 16-.6 1.1 0 1.7.6 2.3 3.2 3.4 5.4 11 1.2 16.4-2.3 2.9-5.4 4.5-8.9 5.2-3.3.7-6.6.9-9.8-.1-2.5-.8-4-2.5-4.6-5-.7-2.6-.7-5.3-.9-8-.3-2.2-.6-4.4-.6-6.6m9.8 5.4c.1 1.4.2 2.9.3 4.3 0 .5.2 1 .8.9 1.8-.2 3.5-.6 5.1-1.5 1.2-.6 1.6-1.6 1.4-2.9-.1-1.3-.7-2.2-1.9-2.7-1-.4-2-.7-3-.8-2.8-.1-2.8-.1-2.7 2.7m5.1-15.9c-.1-.3-.1-.7-.3-1-.6-1.3-3-2.6-4.4-2.5-.5.1-.6.3-.6.7-.1 1.8-.1 3.6-.2 5.4 0 .5.2.8.7.7 1.2-.3 2.4-.5 3.5-1.2.7-.5 1.3-1.1 1.3-2.1m15.5-62.8c-.1 4.9-.7 9.7-3.5 13.9-3.9 6.1-10.9 7.8-17.3 4.4-5.6-3-8.4-7.9-9.8-13.8-1.5-6.6-1.1-13.2 1.8-19.5 1.5-3.2 3.5-5.9 6.6-7.7 5.2-3 11.4-1.8 15.4 2.7 4.2 4.7 6 10.4 6.6 16.5.1.6.2 1.2.2 1.8zm-9.6-.6c.1-3-.4-5.9-1.4-8.7-.6-1.5-1.2-3.1-2.4-4.2-1.3-1.2-2.5-1.4-4-.5-1.4.8-2.1 2.1-2.8 3.5-1.7 3.8-2 7.7-1.5 11.7.3 2 .9 4 2 5.7 1.3 2.1 3.1 3.4 5.7 3.1 2.2-.3 2.9-2.1 3.5-3.9.8-2.2 1-4.4.9-6.7m8.4 68.7c.2-3.6-.3-7.1-.2-10.7 0-2.8 1.6-4.6 4.2-4.9 2-.2 4.5 1.6 5 3.9.5 2.1.4 4.3.4 6.4.1 4.6 0 9.3.5 13.9.4 3.3 1.2 6.5 3.7 8.9 1.7 1.7 3.7 1.6 5.2-.3 1.4-1.8 2-4 2.3-6.2.1-1.1.2-2.1.2-3.2.2-5.9.4-11.7.5-17.6.1-3.2 1.9-5.3 4.6-5.3 2.5 0 5 2.5 5 5.3q0 5.55-.3 11.1c-.1 3.2-.2 6.4-.4 9.6-.3 5.6-1.8 10.7-6.1 14.7-3.8 3.5-10 4-14.3 1.2-5.3-3.5-8-8.7-9.4-14.7-.8-3.9-1-8-.9-12.1m75.4-61.4v-14.3c0-1.1-.4-1.5-1.5-1.6-2.7-.1-5.5-.4-8.2-.7-2.2-.3-3.5-1.8-4.1-3.9-.5-2 0-3.6 1.7-4.9 1.1-.9 2.5-1.1 3.9-1 5.1.6 10.3.8 15.4 1.1 3.9.3 7.9.6 11.8 1 1.8.2 3.3 1 4.3 2.5 1 1.6 1.2 3.2.3 4.9-.9 1.8-2.5 2.7-4.4 2.6-2.4-.1-4.9-.4-7.3-.6-1.9-.2-2-.1-2 1.7v27.5c0 1.4-.2 2.6-1.2 3.7-1.4 1.5-3.4 2-5.4 1.3-1.9-.7-3.3-2.8-3.3-5zM582 222.9c3.3-.1 4.6 1.3 5.8 2.9 2.4 3.2 4.7 6.4 7.1 9.5.9 1.2.9 1.1 1.5-.1 1.1-2.4 2.1-4.7 3.3-7.1 1.3-2.6 3.6-3.5 6.1-2.5 2.4.9 4 3.9 3.1 6.3-1 2.8-2.3 5.4-3.5 8.2l-10.5 23.7c-.2.4-.4.8-.5 1.2-1.1 2.4-3.2 3.4-5.5 2.8-2.5-.8-4.3-3.3-3.9-5.7.2-1.2.7-2.3 1.2-3.4 1.6-3.7 3.2-7.3 4.8-11 .4-.8.3-1.4-.2-2.1-3.6-4.8-7.1-9.6-10.6-14.4-.8-1.1-1.4-2.3-1.3-3.8-.2-2.7 1.5-4.5 3.1-4.5m63 19c.2 4.3-1.2 7.9-4.5 10.8-2.3 2.1-5.2 2.9-8.2 3.3-1.3.2-2.6.4-3.8 1-2 1-4 .3-5.8-1.7-1.4-1.6-1.6-4.2-.5-5.9 1.2-1.9 3-2.7 5.1-3 1.8-.2 3.6-.5 5.3-1 1.1-.3 1.8-1.1 2.2-2.2.3-1 .4-2.1.3-3.2-.1-1.3-.7-2.2-1.9-2.8-2.5-1.3-5.2-1.4-7.9-1.6-2.5-.1-5 .2-7.5.6-2.2.4-4-.1-5.5-1.8-2-2.3-1.7-7.2 2.6-8 6.3-1.1 12.7-1.4 18.9.5 5.8 1.8 9.8 5.5 11.1 11.7.2 1.2.1 2.3.1 3.3m-13.2 24.2c0 2.9-2.1 4.9-5.1 4.9-3.3 0-5.9-2.7-5.9-5.9 0-2.8 2.4-5.2 5.2-5.1 3.2 0 5.9 2.7 5.8 6.1" class="st0"/></svg>