<svg xmlns="http://www.w3.org/2000/svg" xml:space="preserve" id="Calque_1" x="0px" y="0px" version="1.1" viewBox="0 0 1920 266.5"><style>.st1{fill:#7c3759}</style><path d="M0 0h1920v144.6H0z" style="fill:#a8736d"/><path d="M157.3 62.9c6.4 6.9 2.2 23.7-8.9 20.5-6.5-2-19.6-5.1-16.3-14.4 1.3-2.8 2.6-6.5 5.7-7.7.7-.4 1.5-.7 2.3-1 1.1-3.4 7.4-2.2 10.2-1.6 2.7.7 5.2 2.1 7 4.2m75.5-2.6c10 1.5 14.1 10.4 10.9 19.6-3.1 6.4-12.9 7.8-19.2 9.6-9.8 2.3-19.6 5.5-29.8 4.9-6.7-.4-12.1-4.5-16.7-9-7.4-1.1 3.8-17.1 6.3-19.9 6.2-7.5 16.9-7.1 25.7-6.7 7.5.3 15.2 0 22.8 1.5m4.6 171c2.8 4.7 3.7 10.8 1.9 16-1.7 5.4-7 10.3-13 9.2-7.8-1.9-16.9-9.9-15.7-18.6.7-5 7.6-9.7 12.4-10 .5-1.7 2.5-2.1 4-2.2 4.2-.5 8.4 1.8 10.4 5.6m71.8-19.8c9.1 6.2 7 19.2 2.5 27.6-3.6 7.1-11.8 10.6-19.5 9.7-8.9-1-18.1-3.6-25.2-9.3-13.5-11.6-3.9-23.3 9.9-27.6 1.4-1.6 3.9-1.7 5.8-2.5 7.8-2.3 19.4-2.5 26.5 2.1M540 61.6c4.2 2.8 4.8 8.3.9 11.7-3.3 3.2-7.3 5.6-11.1 8.1-6.7 3.9-14.3 9.8-22.3 6.7-2.1-.8-4-1.8-6-2.8-1.9-.9-3.7-1.9-5.5-2.9-.7.2-1.4 0-2-.3-2.5-1.2-4.5-3.1-6.4-5.1-6.5-6.4-4.2-17.1 4.4-20.1 3.4-1.3 7.1-1.5 10.7-1.4 6.6 0 12.4.4 18.8 1.1 6.3.5 13.1 1.1 18.5 5m262.4 181.2c3.5 9.2-5.6 15.1-12.9 18.1-9.3 3.7-20.8 7.4-30.7 4.6-7.1-2.4-13.5-6.6-19.4-11.2-6.2-4.8-9.3-8.6-3.4-15.5 2.1-6.7 16.6-11.3 22.9-13.4 9-3.2 16.8-3.1 25.5 1 7.3 3.5 14.6 8.8 18 16.4m260.5-9.4c-.6 5.9-5.7 10.4-10.4 13.5-6.8 3.8-14.8 7.6-22.7 5.8-7.1-1.5-13.7-8.8-11.3-16.3.5-1.4 1.3-2.6 2.3-3.7 1-3 2.9-5.7 5.3-7.8 6.2-5.5 16.3-3.6 23.7-1.9 4.9 1.3 12.9 4.6 13.1 10.4m47.3.7c4.8 6.7-1.1 12.1-7.1 15-4.3 2.2-9.3 4.7-14.3 3.4-6.3-2.2-14.6-14.3-9.6-20.6 2.6-3.2 7-4 10.7-5.1 1.7-1.4 4.4-.5 6.3-.2 5.1 1.6 10.6 3.4 14 7.5m245.4-3c21.7 14.4-1.9 24.2-17.5 21.7-6.2-1-13.5-.9-18.9-4.3-5.1-3.5-10.9-11-9.4-17.5-1.4-1.4-.2-4 1.8-3.9 3.8-.8 7.4-2.4 11.1-3.8 6.5-3.1 13.3-1.3 19.6 1.3 4.6 1.8 9.1 4 13.3 6.5M1784 48c1.6 7.1 2.1 15.7-4.6 20.2-7.5 4.7-16.9 3-25.3 3.4-7.9.5-13.8 6.5-20.9 9.4-9.1 3.9-19.2 4.5-29 4.2-8.7-.5-20.8-4-26.8-10.5-2.3-2.5-1-4.4.4-7 .3-2.4 2-4.4 3.5-6.2.5-.7.9-1.7 1.8-2 3.2-3.3 6.7-6.3 10.2-9.3 18.2-15.7 18.8-25.1 45.5-26.7 13.3-.1 30.3-2.5 39.5 9.4 3.1 4.5 4.6 9.9 5.7 15.1m63-.7c7.9 3.6 16.9 10.6 16.2 20.3-1.2 7.4-10.3 8.2-16 10.5-6.8 2-13.5 4.8-20.7 4.9-10.3.3-18.3-11.4-14.8-20.9 1.6-4 4.1-7.6 6.3-11.3 1.9-2.5 6.9-12.6 10.6-9 6.5-1.2 12.5 3.2 18.4 5.5" class="st1"/><path d="M1875.8 90.1c-7.9 1.1-15.7 2.9-23.6 4.4-8.4 1.8-16.7 3.8-25.1 5.5-5.5 1.2-11.1 2-16.8 1.7-17.6-1-34.6-6.1-52.1-8.2-13.7-.6-27 3.3-40.6 4.2-11.6.8-22.8-2.8-33.8-5.7-12.2-3.1-23.8-7.7-35.5-12.1-15.9-5.4-32.4-10.1-49.3-10.7-17.1.1-32.6 8-47.1 16.3-4.4 2.3-9.3 3.2-14.2 2.7-6.1-.4-12.1-1.1-18.1-1.7-11.3-1.3-22.8-2-33.9 1.2-5.6 1.6-11 3.7-16.7 4.8-10.3 2-20.4-1.7-30.5-2.8-11.1-.6-21.7 3.5-32.1 6.9-6 2.1-12.5 4.2-19 4.1-20.2-1.1-39.8-6.8-59.2-12.4-9.8-2.5-19.7-4.5-29.6-6.5-14.1-3.1-28.7-5.4-43.1-2.5-4.6.9-9 2.4-13.1 4.5-8.1 3.9-14.5 10.4-21.9 15.3-11.1 7.1-23.9 12.3-37.3 11.1-9.1-.7-17.8-3.7-26.8-5-5.3-.8-10.6-1-16-1.4-11.2-.2-21.3-4.1-32.4-4.5-28.8.9-53.4 17.3-82.8 6.4-10.7-4.2-21-9.6-32.5-11.7-10.2-1.9-20.5-5.4-31-3.9-4.9.7-9.4 2.7-14.2 3.7-8.9 1.5-18 2.3-26.9 3.8-2.9.6-13.3 1.7-17.4 4.4q-6.9-.75-13.8-1.2c-14.6-.9-29.3-2.1-43.8-4.3-15.9-2.2-31.8-5.8-47.9-6-6.4.1-12.7 1.4-19 2.5-9.3 1.7-18.6 3.5-27.9 4.9-17.1 2.8-34 2.1-51.3.3-12-1.2-23.5-4.6-35.1-7.8-20.4-5.5-41.8-8.6-62.9-5.8-13.1 1.3-26 4-38.8 7.1-11 2.4-21.8 6-32.9 7.6-16.9 2-34.1-.3-50.3-5-8.5-2.7-17.1-5.4-26-5.6-9.1-.3-18.2.3-27.2 1.2-8.4.9-16.7 2.5-25.1 3.5-11.9 1.4-23.8 1.9-35.8 1.7-21.6-.2-43.1-3-64.7-4.3-8.9-.7-17.9-1.1-26.7.2-18.3 2.5-36.4 6.5-54.8 7.7-19.9.9-39.9-1-59.7-2.5-11.6-1.3-23.2-2.5-34.8-2.1q-11.7.45-23.1 2.4c-9.3 1.5-18.4 4.4-27.8 5.9-12.2 1.5-24.1.3-36.4-.9-12.8-1.4-25-5.6-37.5-8.7v139.6c7.4 2.8 14.7 5.5 22.4 7.1 17.7 4.3 35.6-2.3 52-8.8 11.5-5.1 23.1-9.9 35.5-12.2 13.3-2.4 26.9-4 40.4-4.2 15.3-.2 30.4 2.7 45.7 2.9 14.4-.6 26.9-11.6 39.3-18.2 7.3-4.2 14.9-7.9 22.5-11.5 5.1-2.4 10.3-4.5 15.9-5.6 7.6-1.7 15.5-.8 23.2.7 17.2 3.3 32.8 11.8 49.4 17 10.7 3.4 21.7 5.8 32.7 7.9 6.4 1.2 12.9 2.3 19.5 2.1 10.4-.2 20.8-2 31-3.8 9-1.4 18.4-4.2 27.3-.8 33.1 13.6 43.7 12.3 77 1.2 7.3-2.2 14.8-3.8 22.3-4.8 7.3-.8 14.8-1.7 22.1-.3s14.3 4 21.5 6.1c12.3 3.6 24.8 6.5 37.5 8.5 28.6 4.8 57.4-.7 85.8-4.2 16.8-1.4 33.8-2.5 50.6-.4 17 3 33.8 7.6 50.1 13.1 10.1 3.6 20 7.5 30.4 10.2 10.7 3 21.6 4.7 32.6 6 9.6 1.3 19.3 2.2 29 1.2 10.2-.8 20.4-2.7 30.2-5.8 10-3.1 19.5-7.6 29.1-11.7 17.6-7.5 35.8-14.3 54.8-16.5 14-.4 28 .5 41.9 2.6 22.2 3.5 44.3 10.2 67.2 9.8 16.5.4 31.6-7.3 47.5-10.5 6.8-1.4 13.8-1.6 20.6-.3 7.8 1.7 15.3 4.7 23.2 6.3 13.3 2.7 27.1 4.6 40.7 2.8 8.9-1.3 17.2-4.8 25.9-6.7 15.5-3.2 32.1-5.6 47.3-.1 9.4 3.5 17.9 8.9 26.8 13.4 5.9 3 11.9 5.9 17.9 8.7 12.1 5.4 23.7 12.5 37.1 14.5 15 2.5 30.4.2 45-3.8 14.6-4.1 28.2-11.5 43.2-14 9.2-1.6 18.3 1.1 27 3.9 10.7 3.5 21.9 5.3 33.1 5.3 14.9 0 28.5-6.6 42.8-10 16.9-3 34.4-4.9 51.3-1.2 9.9 2 19.8 3.6 29.9 4.1 7.1.5 14.3 0 21.1-2.3 9.3-3.2 17.3-9.2 26.6-12.4 15.4-5.4 32.3-6.3 48.5-4 17.8 2.8 35.5 6.2 53 10.8 12.1 3.5 24.6 6.2 37.2 6.1 12.1-.3 24-2.4 35.8-4.7V91.5c-15-1.5-29.7-3.5-44.5-1.4" class="st1"/></svg>